<svg width="1458" height="753" viewBox="0 0 1458 753" fill="none" xmlns="http://www.w3.org/2000/svg">
<g clip-path="url(#clip0_146_2478)">
<rect y="33" width="1458" height="210" fill="#E7EFF9"/>
<rect x="1" y="34" width="1456" height="208" stroke="#656AF8" stroke-opacity="0.25" stroke-width="2"/>
<rect x="-462" y="460" width="1920" height="145" fill="#13065A"/>
<rect x="-462" y="317" width="1920" height="144" fill="#656AFF"/>
<rect x="-462" y="604" width="1920" height="145" fill="#00001D"/>
<rect x="-462" y="173" width="1920" height="145" fill="#DEFF23"/>
<path d="M1202.8 67V65.46L1208.4 60.6C1208.97 60.12 1209.41 59.7 1209.72 59.34C1210.03 58.9667 1210.23 58.6133 1210.34 58.28C1210.46 57.9467 1210.52 57.5867 1210.52 57.2C1210.52 56.4133 1210.29 55.7667 1209.82 55.26C1209.35 54.74 1208.71 54.48 1207.9 54.48C1206.93 54.48 1206.18 54.7467 1205.66 55.28C1205.14 55.8 1204.88 56.54 1204.88 57.5H1203C1203 56.58 1203.2 55.7667 1203.6 55.06C1204.01 54.3533 1204.59 53.8 1205.32 53.4C1206.07 53 1206.93 52.8 1207.9 52.8C1208.85 52.8 1209.65 52.9933 1210.32 53.38C1211 53.7533 1211.51 54.2733 1211.86 54.94C1212.22 55.5933 1212.4 56.3467 1212.4 57.2C1212.4 57.84 1212.27 58.4267 1212.02 58.96C1211.77 59.48 1211.41 59.9733 1210.96 60.44C1210.52 60.9067 1210.01 61.3933 1209.42 61.9L1205.24 65.36H1212.6V67H1202.8ZM1219.3 67.2C1218.29 67.2 1217.42 67.0267 1216.7 66.68C1215.99 66.32 1215.45 65.84 1215.06 65.24C1214.69 64.6267 1214.5 63.9467 1214.5 63.2H1216.38C1216.38 63.88 1216.61 64.44 1217.08 64.88C1217.55 65.3067 1218.29 65.52 1219.3 65.52C1220.31 65.52 1221.05 65.3 1221.52 64.86C1221.99 64.4067 1222.22 63.82 1222.22 63.1C1222.22 62.3533 1221.98 61.7533 1221.5 61.3C1221.03 60.8333 1220.3 60.6 1219.3 60.6H1217.8V59H1219.3C1220.26 59 1220.95 58.8 1221.38 58.4C1221.81 57.9867 1222.02 57.42 1222.02 56.7C1222.02 56.0067 1221.81 55.4667 1221.4 55.08C1220.99 54.68 1220.29 54.48 1219.3 54.48C1218.35 54.48 1217.66 54.6867 1217.22 55.1C1216.79 55.5 1216.58 56 1216.58 56.6H1214.7C1214.7 55.8933 1214.88 55.2533 1215.24 54.68C1215.6 54.1067 1216.12 53.6533 1216.8 53.32C1217.49 52.9733 1218.33 52.8 1219.3 52.8C1220.29 52.8 1221.12 52.9733 1221.8 53.32C1222.49 53.6533 1223.01 54.1 1223.36 54.66C1223.72 55.22 1223.9 55.8333 1223.9 56.5C1223.9 57.3 1223.69 57.98 1223.26 58.54C1222.85 59.0867 1222.26 59.4733 1221.5 59.7C1222.3 59.9533 1222.93 60.3667 1223.4 60.94C1223.87 61.5133 1224.1 62.3 1224.1 63.3C1224.1 64.0067 1223.91 64.66 1223.54 65.26C1223.17 65.8467 1222.62 66.32 1221.9 66.68C1221.19 67.0267 1220.33 67.2 1219.3 67.2ZM1226.4 67V65.36H1229.74V55.06L1226.4 57.44V55.4L1229.78 53H1231.66V65.36H1234.4V67H1226.4Z" fill="#00001D"/>
<path d="M1260.8 67V65.46L1266.4 60.6C1266.97 60.12 1267.41 59.7 1267.72 59.34C1268.03 58.9667 1268.23 58.6133 1268.34 58.28C1268.46 57.9467 1268.52 57.5867 1268.52 57.2C1268.52 56.4133 1268.29 55.7667 1267.82 55.26C1267.35 54.74 1266.71 54.48 1265.9 54.48C1264.93 54.48 1264.18 54.7467 1263.66 55.28C1263.14 55.8 1262.88 56.54 1262.88 57.5H1261C1261 56.58 1261.2 55.7667 1261.6 55.06C1262.01 54.3533 1262.59 53.8 1263.32 53.4C1264.07 53 1264.93 52.8 1265.9 52.8C1266.85 52.8 1267.65 52.9933 1268.32 53.38C1269 53.7533 1269.51 54.2733 1269.86 54.94C1270.22 55.5933 1270.4 56.3467 1270.4 57.2C1270.4 57.84 1270.27 58.4267 1270.02 58.96C1269.77 59.48 1269.41 59.9733 1268.96 60.44C1268.52 60.9067 1268.01 61.3933 1267.42 61.9L1263.24 65.36H1270.6V67H1260.8ZM1277.3 67.2C1276.29 67.2 1275.42 67.0267 1274.7 66.68C1273.99 66.32 1273.45 65.84 1273.06 65.24C1272.69 64.6267 1272.5 63.9467 1272.5 63.2H1274.38C1274.38 63.88 1274.61 64.44 1275.08 64.88C1275.55 65.3067 1276.29 65.52 1277.3 65.52C1278.31 65.52 1279.05 65.3 1279.52 64.86C1279.99 64.4067 1280.22 63.82 1280.22 63.1C1280.22 62.3533 1279.98 61.7533 1279.5 61.3C1279.03 60.8333 1278.3 60.6 1277.3 60.6H1275.8V59H1277.3C1278.26 59 1278.95 58.8 1279.38 58.4C1279.81 57.9867 1280.02 57.42 1280.02 56.7C1280.02 56.0067 1279.81 55.4667 1279.4 55.08C1278.99 54.68 1278.29 54.48 1277.3 54.48C1276.35 54.48 1275.66 54.6867 1275.22 55.1C1274.79 55.5 1274.58 56 1274.58 56.6H1272.7C1272.7 55.8933 1272.88 55.2533 1273.24 54.68C1273.6 54.1067 1274.12 53.6533 1274.8 53.32C1275.49 52.9733 1276.33 52.8 1277.3 52.8C1278.29 52.8 1279.12 52.9733 1279.8 53.32C1280.49 53.6533 1281.01 54.1 1281.36 54.66C1281.72 55.22 1281.9 55.8333 1281.9 56.5C1281.9 57.3 1281.69 57.98 1281.26 58.54C1280.85 59.0867 1280.26 59.4733 1279.5 59.7C1280.3 59.9533 1280.93 60.3667 1281.4 60.94C1281.87 61.5133 1282.1 62.3 1282.1 63.3C1282.1 64.0067 1281.91 64.66 1281.54 65.26C1281.17 65.8467 1280.62 66.32 1279.9 66.68C1279.19 67.0267 1278.33 67.2 1277.3 67.2ZM1289 67.2C1288.25 67.2 1287.58 67.0867 1286.98 66.86C1286.39 66.6333 1285.91 66.2933 1285.52 65.84C1285.13 65.3733 1284.86 64.7933 1284.7 64.1H1286.58C1286.77 64.5667 1287.06 64.92 1287.46 65.16C1287.87 65.4 1288.39 65.52 1289 65.52C1289.64 65.52 1290.21 65.36 1290.72 65.04C1291.24 64.72 1291.65 64.18 1291.96 63.42C1292.28 62.66 1292.45 61.62 1292.48 60.3C1292.11 60.9533 1291.59 61.42 1290.92 61.7C1290.27 61.9667 1289.63 62.1 1289 62.1C1288.07 62.1 1287.25 61.9267 1286.56 61.58C1285.88 61.22 1285.35 60.7067 1284.96 60.04C1284.59 59.36 1284.4 58.54 1284.4 57.58V57.38C1284.4 56.4867 1284.61 55.7 1285.04 55.02C1285.47 54.3267 1286.03 53.7867 1286.74 53.4C1287.46 53 1288.25 52.8 1289.1 52.8C1290.15 52.8 1291.06 53.0267 1291.82 53.48C1292.58 53.9333 1293.17 54.6333 1293.58 55.58C1293.99 56.5133 1294.2 57.72 1294.2 59.2V59.6C1294.2 61.44 1293.96 62.92 1293.48 64.04C1293 65.1467 1292.37 65.9533 1291.58 66.46C1290.79 66.9533 1289.93 67.2 1289 67.2ZM1289.26 60.42C1290.23 60.42 1290.97 60.1733 1291.48 59.68C1291.99 59.1867 1292.24 58.48 1292.24 57.56V57.36C1292.24 56.4533 1291.98 55.7467 1291.46 55.24C1290.95 54.7333 1290.22 54.48 1289.26 54.48C1288.29 54.48 1287.55 54.7267 1287.04 55.22C1286.53 55.7 1286.28 56.4133 1286.28 57.36V57.56C1286.28 58.48 1286.53 59.1867 1287.04 59.68C1287.55 60.1733 1288.29 60.42 1289.26 60.42Z" fill="#00001D"/>
<path d="M1318.8 67V65.46L1324.4 60.6C1324.97 60.12 1325.41 59.7 1325.72 59.34C1326.03 58.9667 1326.23 58.6133 1326.34 58.28C1326.46 57.9467 1326.52 57.5867 1326.52 57.2C1326.52 56.4133 1326.29 55.7667 1325.82 55.26C1325.35 54.74 1324.71 54.48 1323.9 54.48C1322.93 54.48 1322.18 54.7467 1321.66 55.28C1321.14 55.8 1320.88 56.54 1320.88 57.5H1319C1319 56.58 1319.2 55.7667 1319.6 55.06C1320.01 54.3533 1320.59 53.8 1321.32 53.4C1322.07 53 1322.93 52.8 1323.9 52.8C1324.85 52.8 1325.65 52.9933 1326.32 53.38C1327 53.7533 1327.51 54.2733 1327.86 54.94C1328.22 55.5933 1328.4 56.3467 1328.4 57.2C1328.4 57.84 1328.27 58.4267 1328.02 58.96C1327.77 59.48 1327.41 59.9733 1326.96 60.44C1326.52 60.9067 1326.01 61.3933 1325.42 61.9L1321.24 65.36H1328.6V67H1318.8ZM1337.12 67V63.62H1330V62.18L1336.92 53H1339V61.98H1340.8V63.62H1339V67H1337.12ZM1332 61.98H1337.12V55.2L1332 61.98ZM1347.51 67.2C1346.76 67.2 1346.09 67.0867 1345.49 66.86C1344.9 66.6333 1344.42 66.2933 1344.03 65.84C1343.64 65.3733 1343.37 64.7933 1343.21 64.1H1345.09C1345.28 64.5667 1345.57 64.92 1345.97 65.16C1346.38 65.4 1346.9 65.52 1347.51 65.52C1348.15 65.52 1348.72 65.36 1349.23 65.04C1349.75 64.72 1350.16 64.18 1350.47 63.42C1350.79 62.66 1350.96 61.62 1350.99 60.3C1350.62 60.9533 1350.1 61.42 1349.43 61.7C1348.78 61.9667 1348.14 62.1 1347.51 62.1C1346.58 62.1 1345.76 61.9267 1345.07 61.58C1344.39 61.22 1343.86 60.7067 1343.47 60.04C1343.1 59.36 1342.91 58.54 1342.91 57.58V57.38C1342.91 56.4867 1343.12 55.7 1343.55 55.02C1343.98 54.3267 1344.54 53.7867 1345.25 53.4C1345.97 53 1346.76 52.8 1347.61 52.8C1348.66 52.8 1349.57 53.0267 1350.33 53.48C1351.09 53.9333 1351.68 54.6333 1352.09 55.58C1352.5 56.5133 1352.71 57.72 1352.71 59.2V59.6C1352.71 61.44 1352.47 62.92 1351.99 64.04C1351.51 65.1467 1350.88 65.9533 1350.09 66.46C1349.3 66.9533 1348.44 67.2 1347.51 67.2ZM1347.77 60.42C1348.74 60.42 1349.48 60.1733 1349.99 59.68C1350.5 59.1867 1350.75 58.48 1350.75 57.56V57.36C1350.75 56.4533 1350.49 55.7467 1349.97 55.24C1349.46 54.7333 1348.73 54.48 1347.77 54.48C1346.8 54.48 1346.06 54.7267 1345.55 55.22C1345.04 55.7 1344.79 56.4133 1344.79 57.36V57.56C1344.79 58.48 1345.04 59.1867 1345.55 59.68C1346.06 60.1733 1346.8 60.42 1347.77 60.42Z" fill="#00001D"/>
<path d="M1203.4 15V0.999999H1209.5C1210.67 0.999999 1211.65 1.19333 1212.42 1.58C1213.21 1.96667 1213.8 2.50667 1214.2 3.2C1214.6 3.89333 1214.8 4.72 1214.8 5.68C1214.8 6.68 1214.56 7.54 1214.08 8.26C1213.61 8.96667 1212.91 9.48667 1211.96 9.82L1215.2 15H1211.2L1208.48 10.2H1207V15H1203.4ZM1207 7.4H1208.7C1209.66 7.4 1210.31 7.26 1210.66 6.98C1211.02 6.68667 1211.2 6.25333 1211.2 5.68C1211.2 5.10667 1211.02 4.68 1210.66 4.4C1210.31 4.10667 1209.66 3.96 1208.7 3.96H1207V7.4Z" fill="#00001D"/>
<path d="M1267.6 15.26C1266.33 15.26 1265.19 15.02 1264.18 14.54C1263.17 14.0467 1262.37 13.2733 1261.78 12.22C1261.19 11.1667 1260.9 9.79333 1260.9 8.1V7.7C1260.9 6.48667 1261.07 5.44667 1261.42 4.58C1261.77 3.7 1262.24 2.98 1262.84 2.42C1263.45 1.84667 1264.15 1.42667 1264.94 1.16C1265.74 0.879999 1266.59 0.739999 1267.5 0.739999C1268.3 0.739999 1269.05 0.833332 1269.74 1.02C1270.43 1.20667 1271.05 1.5 1271.58 1.9C1272.13 2.28667 1272.57 2.78667 1272.92 3.4C1273.28 4.01333 1273.51 4.74667 1273.6 5.6H1269.86C1269.75 5.09333 1269.57 4.70667 1269.3 4.44C1269.05 4.17333 1268.76 3.99333 1268.44 3.9C1268.13 3.79333 1267.82 3.74 1267.5 3.74C1266.94 3.74 1266.44 3.86667 1266 4.12C1265.57 4.36 1265.23 4.76667 1264.98 5.34C1264.74 5.91333 1264.62 6.7 1264.62 7.7V8.1C1264.62 8.84667 1264.69 9.48667 1264.84 10.02C1264.99 10.54 1265.19 10.9667 1265.44 11.3C1265.71 11.6333 1266.02 11.88 1266.38 12.04C1266.75 12.1867 1267.16 12.26 1267.6 12.26C1268.09 12.26 1268.56 12.18 1269 12.02C1269.44 11.8467 1269.81 11.58 1270.1 11.22C1270.39 10.86 1270.55 10.4 1270.56 9.84H1268V7.56H1273.9V8.5C1273.9 9.7 1273.74 10.7267 1273.42 11.58C1273.11 12.4333 1272.68 13.1333 1272.12 13.68C1271.56 14.2267 1270.89 14.6267 1270.12 14.88C1269.36 15.1333 1268.52 15.26 1267.6 15.26Z" fill="#00001D"/>
<path d="M1319.4 15V0.999999H1326.1C1327.74 0.999999 1328.93 1.32667 1329.68 1.98C1330.43 2.62 1330.8 3.54 1330.8 4.74C1330.8 5.46 1330.61 6.08 1330.24 6.6C1329.87 7.10667 1329.37 7.47333 1328.74 7.7C1329.55 7.88667 1330.2 8.26667 1330.68 8.84C1331.16 9.4 1331.4 10.1333 1331.4 11.04C1331.4 11.8533 1331.22 12.56 1330.86 13.16C1330.51 13.7467 1329.97 14.2 1329.22 14.52C1328.47 14.84 1327.5 15 1326.3 15H1319.4ZM1323 12.24H1325.5C1326.37 12.24 1326.97 12.1133 1327.3 11.86C1327.63 11.5933 1327.8 11.1867 1327.8 10.64C1327.8 10.0933 1327.63 9.68667 1327.28 9.42C1326.95 9.15333 1326.33 9.02 1325.44 9.02H1323V12.24ZM1323 6.58H1325.22C1325.99 6.58 1326.51 6.46 1326.78 6.22C1327.06 5.96667 1327.2 5.61333 1327.2 5.16C1327.2 4.69333 1327.06 4.34667 1326.78 4.12C1326.51 3.88 1326 3.76 1325.24 3.76H1323V6.58Z" fill="#00001D"/>
<path d="M1202.8 211V209.46L1208.4 204.6C1208.97 204.12 1209.41 203.7 1209.72 203.34C1210.03 202.967 1210.23 202.613 1210.34 202.28C1210.46 201.947 1210.52 201.587 1210.52 201.2C1210.52 200.413 1210.29 199.767 1209.82 199.26C1209.35 198.74 1208.71 198.48 1207.9 198.48C1206.93 198.48 1206.18 198.747 1205.66 199.28C1205.14 199.8 1204.88 200.54 1204.88 201.5H1203C1203 200.58 1203.2 199.767 1203.6 199.06C1204.01 198.353 1204.59 197.8 1205.32 197.4C1206.07 197 1206.93 196.8 1207.9 196.8C1208.85 196.8 1209.65 196.993 1210.32 197.38C1211 197.753 1211.51 198.273 1211.86 198.94C1212.22 199.593 1212.4 200.347 1212.4 201.2C1212.4 201.84 1212.27 202.427 1212.02 202.96C1211.77 203.48 1211.41 203.973 1210.96 204.44C1210.52 204.907 1210.01 205.393 1209.42 205.9L1205.24 209.36H1212.6V211H1202.8ZM1214.4 211V209.46L1220 204.6C1220.57 204.12 1221.01 203.7 1221.32 203.34C1221.63 202.967 1221.83 202.613 1221.94 202.28C1222.06 201.947 1222.12 201.587 1222.12 201.2C1222.12 200.413 1221.89 199.767 1221.42 199.26C1220.95 198.74 1220.31 198.48 1219.5 198.48C1218.53 198.48 1217.78 198.747 1217.26 199.28C1216.74 199.8 1216.48 200.54 1216.48 201.5H1214.6C1214.6 200.58 1214.8 199.767 1215.2 199.06C1215.61 198.353 1216.19 197.8 1216.92 197.4C1217.67 197 1218.53 196.8 1219.5 196.8C1220.45 196.8 1221.25 196.993 1221.92 197.38C1222.6 197.753 1223.11 198.273 1223.46 198.94C1223.82 199.593 1224 200.347 1224 201.2C1224 201.84 1223.87 202.427 1223.62 202.96C1223.37 203.48 1223.01 203.973 1222.56 204.44C1222.12 204.907 1221.61 205.393 1221.02 205.9L1216.84 209.36H1224.2V211H1214.4ZM1226 211V209.46L1231.6 204.6C1232.18 204.12 1232.62 203.7 1232.92 203.34C1233.23 202.967 1233.44 202.613 1233.54 202.28C1233.66 201.947 1233.72 201.587 1233.72 201.2C1233.72 200.413 1233.49 199.767 1233.02 199.26C1232.56 198.74 1231.92 198.48 1231.1 198.48C1230.13 198.48 1229.38 198.747 1228.86 199.28C1228.34 199.8 1228.08 200.54 1228.08 201.5H1226.2C1226.2 200.58 1226.4 199.767 1226.8 199.06C1227.22 198.353 1227.79 197.8 1228.52 197.4C1229.27 197 1230.13 196.8 1231.1 196.8C1232.05 196.8 1232.86 196.993 1233.52 197.38C1234.2 197.753 1234.72 198.273 1235.06 198.94C1235.42 199.593 1235.6 200.347 1235.6 201.2C1235.6 201.84 1235.48 202.427 1235.22 202.96C1234.97 203.48 1234.62 203.973 1234.16 204.44C1233.72 204.907 1233.21 205.393 1232.62 205.9L1228.44 209.36H1235.8V211H1226Z" fill="#00001D"/>
<path d="M1260.8 211V209.46L1266.4 204.6C1266.97 204.12 1267.41 203.7 1267.72 203.34C1268.03 202.967 1268.23 202.613 1268.34 202.28C1268.46 201.947 1268.52 201.587 1268.52 201.2C1268.52 200.413 1268.29 199.767 1267.82 199.26C1267.35 198.74 1266.71 198.48 1265.9 198.48C1264.93 198.48 1264.18 198.747 1263.66 199.28C1263.14 199.8 1262.88 200.54 1262.88 201.5H1261C1261 200.58 1261.2 199.767 1261.6 199.06C1262.01 198.353 1262.59 197.8 1263.32 197.4C1264.07 197 1264.93 196.8 1265.9 196.8C1266.85 196.8 1267.65 196.993 1268.32 197.38C1269 197.753 1269.51 198.273 1269.86 198.94C1270.22 199.593 1270.4 200.347 1270.4 201.2C1270.4 201.84 1270.27 202.427 1270.02 202.96C1269.77 203.48 1269.41 203.973 1268.96 204.44C1268.52 204.907 1268.01 205.393 1267.42 205.9L1263.24 209.36H1270.6V211H1260.8ZM1277.4 211.2C1276.64 211.2 1275.98 211.1 1275.42 210.9C1274.86 210.7 1274.39 210.427 1274 210.08C1273.63 209.733 1273.34 209.347 1273.14 208.92C1272.94 208.493 1272.83 208.053 1272.8 207.6H1274.68C1274.75 208.107 1275.01 208.553 1275.48 208.94C1275.96 209.327 1276.6 209.52 1277.4 209.52C1278.31 209.52 1279.02 209.24 1279.54 208.68C1280.06 208.107 1280.32 207.313 1280.32 206.3C1280.32 205.527 1280.18 204.907 1279.9 204.44C1279.62 203.96 1279.25 203.613 1278.8 203.4C1278.36 203.187 1277.89 203.08 1277.4 203.08C1276.68 203.08 1276.11 203.213 1275.7 203.48C1275.3 203.747 1274.99 204.053 1274.78 204.4H1273.1V197H1281.4V198.64H1274.98V202.54C1275.33 202.153 1275.73 201.867 1276.18 201.68C1276.63 201.493 1277.14 201.4 1277.7 201.4C1278.63 201.4 1279.43 201.587 1280.1 201.96C1280.77 202.333 1281.28 202.887 1281.64 203.62C1282.01 204.34 1282.2 205.233 1282.2 206.3C1282.2 207.3 1281.99 208.167 1281.58 208.9C1281.18 209.633 1280.62 210.2 1279.9 210.6C1279.18 211 1278.35 211.2 1277.4 211.2ZM1289 211.2C1288.24 211.2 1287.58 211.1 1287.02 210.9C1286.46 210.7 1285.99 210.427 1285.6 210.08C1285.23 209.733 1284.94 209.347 1284.74 208.92C1284.54 208.493 1284.43 208.053 1284.4 207.6H1286.28C1286.35 208.107 1286.62 208.553 1287.08 208.94C1287.56 209.327 1288.2 209.52 1289 209.52C1289.91 209.52 1290.62 209.24 1291.14 208.68C1291.66 208.107 1291.92 207.313 1291.92 206.3C1291.92 205.527 1291.78 204.907 1291.5 204.44C1291.22 203.96 1290.86 203.613 1290.4 203.4C1289.96 203.187 1289.5 203.08 1289 203.08C1288.28 203.08 1287.72 203.213 1287.3 203.48C1286.9 203.747 1286.6 204.053 1286.38 204.4H1284.7V197H1293V198.64H1286.58V202.54C1286.93 202.153 1287.33 201.867 1287.78 201.68C1288.24 201.493 1288.74 201.4 1289.3 201.4C1290.24 201.4 1291.04 201.587 1291.7 201.96C1292.37 202.333 1292.88 202.887 1293.24 203.62C1293.62 204.34 1293.8 205.233 1293.8 206.3C1293.8 207.3 1293.6 208.167 1293.18 208.9C1292.78 209.633 1292.22 210.2 1291.5 210.6C1290.78 211 1289.95 211.2 1289 211.2Z" fill="#00001D"/>
<path d="M1323.7 211.2C1322.69 211.2 1321.82 211.027 1321.1 210.68C1320.39 210.32 1319.85 209.84 1319.46 209.24C1319.09 208.627 1318.9 207.947 1318.9 207.2H1320.78C1320.78 207.88 1321.01 208.44 1321.48 208.88C1321.95 209.307 1322.69 209.52 1323.7 209.52C1324.71 209.52 1325.45 209.3 1325.92 208.86C1326.39 208.407 1326.62 207.82 1326.62 207.1C1326.62 206.353 1326.38 205.753 1325.9 205.3C1325.43 204.833 1324.7 204.6 1323.7 204.6H1322.2V203H1323.7C1324.66 203 1325.35 202.8 1325.78 202.4C1326.21 201.987 1326.42 201.42 1326.42 200.7C1326.42 200.007 1326.21 199.467 1325.8 199.08C1325.39 198.68 1324.69 198.48 1323.7 198.48C1322.75 198.48 1322.06 198.687 1321.62 199.1C1321.19 199.5 1320.98 200 1320.98 200.6H1319.1C1319.1 199.893 1319.28 199.253 1319.64 198.68C1320 198.107 1320.52 197.653 1321.2 197.32C1321.89 196.973 1322.73 196.8 1323.7 196.8C1324.69 196.8 1325.52 196.973 1326.2 197.32C1326.89 197.653 1327.41 198.1 1327.76 198.66C1328.12 199.22 1328.3 199.833 1328.3 200.5C1328.3 201.3 1328.09 201.98 1327.66 202.54C1327.25 203.087 1326.66 203.473 1325.9 203.7C1326.7 203.953 1327.33 204.367 1327.8 204.94C1328.27 205.513 1328.5 206.3 1328.5 207.3C1328.5 208.007 1328.31 208.66 1327.94 209.26C1327.57 209.847 1327.02 210.32 1326.3 210.68C1325.59 211.027 1324.73 211.2 1323.7 211.2ZM1335.5 211.2C1334.74 211.2 1334.08 211.1 1333.52 210.9C1332.96 210.7 1332.49 210.427 1332.1 210.08C1331.73 209.733 1331.44 209.347 1331.24 208.92C1331.04 208.493 1330.93 208.053 1330.9 207.6H1332.78C1332.85 208.107 1333.11 208.553 1333.58 208.94C1334.06 209.327 1334.7 209.52 1335.5 209.52C1336.41 209.52 1337.12 209.24 1337.64 208.68C1338.16 208.107 1338.42 207.313 1338.42 206.3C1338.42 205.527 1338.28 204.907 1338 204.44C1337.72 203.96 1337.35 203.613 1336.9 203.4C1336.46 203.187 1335.99 203.08 1335.5 203.08C1334.78 203.08 1334.21 203.213 1333.8 203.48C1333.4 203.747 1333.09 204.053 1332.88 204.4H1331.2V197H1339.5V198.64H1333.08V202.54C1333.43 202.153 1333.83 201.867 1334.28 201.68C1334.73 201.493 1335.24 201.4 1335.8 201.4C1336.73 201.4 1337.53 201.587 1338.2 201.96C1338.87 202.333 1339.38 202.887 1339.74 203.62C1340.11 204.34 1340.3 205.233 1340.3 206.3C1340.3 207.3 1340.09 208.167 1339.68 208.9C1339.28 209.633 1338.72 210.2 1338 210.6C1337.28 211 1336.45 211.2 1335.5 211.2Z" fill="#00001D"/>
<path d="M1203.1 355V353.36H1206.44V343.06L1203.1 345.44V343.4L1206.48 341H1208.36V353.36H1211.1V355H1203.1ZM1217.91 355.2C1217.23 355.2 1216.59 355.087 1215.99 354.86C1215.39 354.62 1214.85 354.227 1214.39 353.68C1213.92 353.133 1213.55 352.4 1213.29 351.48C1213.03 350.547 1212.91 349.387 1212.91 348V347.6C1212.91 346.307 1213.03 345.227 1213.29 344.36C1213.55 343.48 1213.92 342.78 1214.39 342.26C1214.85 341.74 1215.39 341.367 1215.99 341.14C1216.59 340.913 1217.23 340.8 1217.91 340.8C1218.59 340.8 1219.23 340.913 1219.83 341.14C1220.43 341.367 1220.96 341.74 1221.43 342.26C1221.89 342.78 1222.25 343.48 1222.51 344.36C1222.77 345.227 1222.91 346.307 1222.91 347.6V348C1222.91 349.387 1222.77 350.547 1222.51 351.48C1222.25 352.4 1221.89 353.133 1221.43 353.68C1220.96 354.227 1220.43 354.62 1219.83 354.86C1219.23 355.087 1218.59 355.2 1217.91 355.2ZM1217.91 353.56C1218.33 353.56 1218.73 353.487 1219.11 353.34C1219.48 353.18 1219.81 352.9 1220.09 352.5C1220.38 352.087 1220.61 351.52 1220.77 350.8C1220.94 350.067 1221.03 349.133 1221.03 348V347.6C1221.03 346.213 1220.88 345.147 1220.59 344.4C1220.31 343.653 1219.93 343.14 1219.45 342.86C1218.98 342.58 1218.47 342.44 1217.91 342.44C1217.35 342.44 1216.83 342.58 1216.35 342.86C1215.88 343.14 1215.5 343.653 1215.21 344.4C1214.93 345.147 1214.79 346.213 1214.79 347.6V348C1214.79 349.133 1214.87 350.067 1215.03 350.8C1215.2 351.52 1215.43 352.087 1215.71 352.5C1216 352.9 1216.33 353.18 1216.71 353.34C1217.09 353.487 1217.49 353.56 1217.91 353.56ZM1225.21 355V353.36H1228.55V343.06L1225.21 345.44V343.4L1228.59 341H1230.47V353.36H1233.21V355H1225.21Z" fill="#E7EFF9"/>
<path d="M1261.1 355V353.36H1264.44V343.06L1261.1 345.44V343.4L1264.48 341H1266.36V353.36H1269.1V355H1261.1ZM1275.91 355.2C1275.23 355.2 1274.59 355.087 1273.99 354.86C1273.39 354.62 1272.85 354.227 1272.39 353.68C1271.92 353.133 1271.55 352.4 1271.29 351.48C1271.03 350.547 1270.91 349.387 1270.91 348V347.6C1270.91 346.307 1271.03 345.227 1271.29 344.36C1271.55 343.48 1271.92 342.78 1272.39 342.26C1272.85 341.74 1273.39 341.367 1273.99 341.14C1274.59 340.913 1275.23 340.8 1275.91 340.8C1276.59 340.8 1277.23 340.913 1277.83 341.14C1278.43 341.367 1278.96 341.74 1279.43 342.26C1279.89 342.78 1280.25 343.48 1280.51 344.36C1280.77 345.227 1280.91 346.307 1280.91 347.6V348C1280.91 349.387 1280.77 350.547 1280.51 351.48C1280.25 352.4 1279.89 353.133 1279.43 353.68C1278.96 354.227 1278.43 354.62 1277.83 354.86C1277.23 355.087 1276.59 355.2 1275.91 355.2ZM1275.91 353.56C1276.33 353.56 1276.73 353.487 1277.11 353.34C1277.48 353.18 1277.81 352.9 1278.09 352.5C1278.38 352.087 1278.61 351.52 1278.77 350.8C1278.94 350.067 1279.03 349.133 1279.03 348V347.6C1279.03 346.213 1278.88 345.147 1278.59 344.4C1278.31 343.653 1277.93 343.14 1277.45 342.86C1276.98 342.58 1276.47 342.44 1275.91 342.44C1275.35 342.44 1274.83 342.58 1274.35 342.86C1273.88 343.14 1273.5 343.653 1273.21 344.4C1272.93 345.147 1272.79 346.213 1272.79 347.6V348C1272.79 349.133 1272.87 350.067 1273.03 350.8C1273.2 351.52 1273.43 352.087 1273.71 352.5C1274 352.9 1274.33 353.18 1274.71 353.34C1275.09 353.487 1275.49 353.56 1275.91 353.56ZM1288.41 355.2C1286.86 355.2 1285.62 354.687 1284.69 353.66C1283.77 352.62 1283.31 351 1283.31 348.8V348.4C1283.31 346.56 1283.55 345.087 1284.03 343.98C1284.51 342.86 1285.15 342.053 1285.95 341.56C1286.75 341.053 1287.64 340.8 1288.61 340.8C1289.33 340.8 1289.98 340.913 1290.55 341.14C1291.12 341.367 1291.6 341.713 1291.99 342.18C1292.38 342.633 1292.65 343.207 1292.81 343.9H1290.93C1290.74 343.433 1290.46 343.08 1290.07 342.84C1289.68 342.6 1289.2 342.48 1288.61 342.48C1287.94 342.48 1287.34 342.64 1286.81 342.96C1286.29 343.28 1285.87 343.82 1285.55 344.58C1285.24 345.327 1285.07 346.367 1285.03 347.7C1285.42 347.047 1285.94 346.587 1286.59 346.32C1287.24 346.04 1287.88 345.9 1288.51 345.9C1289.44 345.9 1290.25 346.08 1290.93 346.44C1291.62 346.787 1292.16 347.293 1292.53 347.96C1292.92 348.627 1293.11 349.447 1293.11 350.42V350.62C1293.11 351.5 1292.9 352.287 1292.47 352.98C1292.04 353.673 1291.48 354.22 1290.77 354.62C1290.06 355.007 1289.28 355.2 1288.41 355.2ZM1288.25 353.52C1289.22 353.52 1289.96 353.273 1290.47 352.78C1290.98 352.287 1291.23 351.573 1291.23 350.64V350.44C1291.23 349.52 1290.98 348.813 1290.47 348.32C1289.96 347.827 1289.22 347.58 1288.25 347.58C1287.28 347.58 1286.54 347.827 1286.03 348.32C1285.52 348.813 1285.27 349.52 1285.27 350.44V350.64C1285.27 351.56 1285.52 352.273 1286.03 352.78C1286.54 353.273 1287.28 353.52 1288.25 353.52Z" fill="#E7EFF9"/>
<path d="M1318.8 355V353.46L1324.4 348.6C1324.97 348.12 1325.41 347.7 1325.72 347.34C1326.03 346.967 1326.23 346.613 1326.34 346.28C1326.46 345.947 1326.52 345.587 1326.52 345.2C1326.52 344.413 1326.29 343.767 1325.82 343.26C1325.35 342.74 1324.71 342.48 1323.9 342.48C1322.93 342.48 1322.18 342.747 1321.66 343.28C1321.14 343.8 1320.88 344.54 1320.88 345.5H1319C1319 344.58 1319.2 343.767 1319.6 343.06C1320.01 342.353 1320.59 341.8 1321.32 341.4C1322.07 341 1322.93 340.8 1323.9 340.8C1324.85 340.8 1325.65 340.993 1326.32 341.38C1327 341.753 1327.51 342.273 1327.86 342.94C1328.22 343.593 1328.4 344.347 1328.4 345.2C1328.4 345.84 1328.27 346.427 1328.02 346.96C1327.77 347.48 1327.41 347.973 1326.96 348.44C1326.52 348.907 1326.01 349.393 1325.42 349.9L1321.24 353.36H1328.6V355H1318.8ZM1335.4 355.2C1334.64 355.2 1333.98 355.1 1333.42 354.9C1332.86 354.7 1332.39 354.427 1332 354.08C1331.63 353.733 1331.34 353.347 1331.14 352.92C1330.94 352.493 1330.83 352.053 1330.8 351.6H1332.68C1332.75 352.107 1333.01 352.553 1333.48 352.94C1333.96 353.327 1334.6 353.52 1335.4 353.52C1336.31 353.52 1337.02 353.24 1337.54 352.68C1338.06 352.107 1338.32 351.313 1338.32 350.3C1338.32 349.527 1338.18 348.907 1337.9 348.44C1337.62 347.96 1337.25 347.613 1336.8 347.4C1336.36 347.187 1335.89 347.08 1335.4 347.08C1334.68 347.08 1334.11 347.213 1333.7 347.48C1333.3 347.747 1332.99 348.053 1332.78 348.4H1331.1V341H1339.4V342.64H1332.98V346.54C1333.33 346.153 1333.73 345.867 1334.18 345.68C1334.63 345.493 1335.14 345.4 1335.7 345.4C1336.63 345.4 1337.43 345.587 1338.1 345.96C1338.77 346.333 1339.28 346.887 1339.64 347.62C1340.01 348.34 1340.2 349.233 1340.2 350.3C1340.2 351.3 1339.99 352.167 1339.58 352.9C1339.18 353.633 1338.62 354.2 1337.9 354.6C1337.18 355 1336.35 355.2 1335.4 355.2ZM1347 355.2C1346.24 355.2 1345.58 355.1 1345.02 354.9C1344.46 354.7 1343.99 354.427 1343.6 354.08C1343.23 353.733 1342.94 353.347 1342.74 352.92C1342.54 352.493 1342.43 352.053 1342.4 351.6H1344.28C1344.35 352.107 1344.62 352.553 1345.08 352.94C1345.56 353.327 1346.2 353.52 1347 353.52C1347.91 353.52 1348.62 353.24 1349.14 352.68C1349.66 352.107 1349.92 351.313 1349.92 350.3C1349.92 349.527 1349.78 348.907 1349.5 348.44C1349.22 347.96 1348.86 347.613 1348.4 347.4C1347.96 347.187 1347.5 347.08 1347 347.08C1346.28 347.08 1345.72 347.213 1345.3 347.48C1344.9 347.747 1344.6 348.053 1344.38 348.4H1342.7V341H1351V342.64H1344.58V346.54C1344.93 346.153 1345.33 345.867 1345.78 345.68C1346.24 345.493 1346.74 345.4 1347.3 345.4C1348.24 345.4 1349.04 345.587 1349.7 345.96C1350.37 346.333 1350.88 346.887 1351.24 347.62C1351.62 348.34 1351.8 349.233 1351.8 350.3C1351.8 351.3 1351.6 352.167 1351.18 352.9C1350.78 353.633 1350.22 354.2 1349.5 354.6C1348.78 355 1347.95 355.2 1347 355.2Z" fill="#E7EFF9"/>
<path d="M1203.1 499V497.36H1206.44V487.06L1203.1 489.44V487.4L1206.48 485H1208.36V497.36H1211.1V499H1203.1ZM1217.41 499.2C1216.66 499.2 1215.99 499.087 1215.39 498.86C1214.8 498.633 1214.31 498.293 1213.93 497.84C1213.54 497.373 1213.27 496.793 1213.11 496.1H1214.99C1215.17 496.567 1215.47 496.92 1215.87 497.16C1216.28 497.4 1216.79 497.52 1217.41 497.52C1218.05 497.52 1218.62 497.36 1219.13 497.04C1219.65 496.72 1220.06 496.18 1220.37 495.42C1220.69 494.66 1220.86 493.62 1220.89 492.3C1220.51 492.953 1219.99 493.42 1219.33 493.7C1218.67 493.967 1218.03 494.1 1217.41 494.1C1216.47 494.1 1215.66 493.927 1214.97 493.58C1214.29 493.22 1213.75 492.707 1213.37 492.04C1212.99 491.36 1212.81 490.54 1212.81 489.58V489.38C1212.81 488.487 1213.02 487.7 1213.45 487.02C1213.87 486.327 1214.44 485.787 1215.15 485.4C1215.87 485 1216.65 484.8 1217.51 484.8C1218.56 484.8 1219.47 485.027 1220.23 485.48C1220.99 485.933 1221.57 486.633 1221.99 487.58C1222.4 488.513 1222.61 489.72 1222.61 491.2V491.6C1222.61 493.44 1222.37 494.92 1221.89 496.04C1221.41 497.147 1220.77 497.953 1219.99 498.46C1219.2 498.953 1218.34 499.2 1217.41 499.2ZM1217.67 492.42C1218.64 492.42 1219.38 492.173 1219.89 491.68C1220.39 491.187 1220.65 490.48 1220.65 489.56V489.36C1220.65 488.453 1220.39 487.747 1219.87 487.24C1219.36 486.733 1218.63 486.48 1217.67 486.48C1216.69 486.48 1215.95 486.727 1215.45 487.22C1214.94 487.7 1214.69 488.413 1214.69 489.36V489.56C1214.69 490.48 1214.94 491.187 1215.45 491.68C1215.95 492.173 1216.69 492.42 1217.67 492.42Z" fill="#E7EFF9"/>
<path d="M1266.3 499.2C1264.75 499.2 1263.51 498.687 1262.58 497.66C1261.66 496.62 1261.2 495 1261.2 492.8V492.4C1261.2 490.56 1261.44 489.087 1261.92 487.98C1262.4 486.86 1263.04 486.053 1263.84 485.56C1264.64 485.053 1265.53 484.8 1266.5 484.8C1267.22 484.8 1267.87 484.913 1268.44 485.14C1269.01 485.367 1269.49 485.713 1269.88 486.18C1270.27 486.633 1270.54 487.207 1270.7 487.9H1268.82C1268.63 487.433 1268.35 487.08 1267.96 486.84C1267.57 486.6 1267.09 486.48 1266.5 486.48C1265.83 486.48 1265.23 486.64 1264.7 486.96C1264.18 487.28 1263.76 487.82 1263.44 488.58C1263.13 489.327 1262.96 490.367 1262.92 491.7C1263.31 491.047 1263.83 490.587 1264.48 490.32C1265.13 490.04 1265.77 489.9 1266.4 489.9C1267.33 489.9 1268.14 490.08 1268.82 490.44C1269.51 490.787 1270.05 491.293 1270.42 491.96C1270.81 492.627 1271 493.447 1271 494.42V494.62C1271 495.5 1270.79 496.287 1270.36 496.98C1269.93 497.673 1269.37 498.22 1268.66 498.62C1267.95 499.007 1267.17 499.2 1266.3 499.2ZM1266.14 497.52C1267.11 497.52 1267.85 497.273 1268.36 496.78C1268.87 496.287 1269.12 495.573 1269.12 494.64V494.44C1269.12 493.52 1268.87 492.813 1268.36 492.32C1267.85 491.827 1267.11 491.58 1266.14 491.58C1265.17 491.58 1264.43 491.827 1263.92 492.32C1263.41 492.813 1263.16 493.52 1263.16 494.44V494.64C1263.16 495.56 1263.41 496.273 1263.92 496.78C1264.43 497.273 1265.17 497.52 1266.14 497.52Z" fill="#E7EFF9"/>
<path d="M1323.7 499.2C1322.95 499.2 1322.28 499.087 1321.68 498.86C1321.09 498.633 1320.61 498.293 1320.22 497.84C1319.83 497.373 1319.56 496.793 1319.4 496.1H1321.28C1321.47 496.567 1321.76 496.92 1322.16 497.16C1322.57 497.4 1323.09 497.52 1323.7 497.52C1324.34 497.52 1324.91 497.36 1325.42 497.04C1325.94 496.72 1326.35 496.18 1326.66 495.42C1326.98 494.66 1327.15 493.62 1327.18 492.3C1326.81 492.953 1326.29 493.42 1325.62 493.7C1324.97 493.967 1324.33 494.1 1323.7 494.1C1322.77 494.1 1321.95 493.927 1321.26 493.58C1320.58 493.22 1320.05 492.707 1319.66 492.04C1319.29 491.36 1319.1 490.54 1319.1 489.58V489.38C1319.1 488.487 1319.31 487.7 1319.74 487.02C1320.17 486.327 1320.73 485.787 1321.44 485.4C1322.16 485 1322.95 484.8 1323.8 484.8C1324.85 484.8 1325.76 485.027 1326.52 485.48C1327.28 485.933 1327.87 486.633 1328.28 487.58C1328.69 488.513 1328.9 489.72 1328.9 491.2V491.6C1328.9 493.44 1328.66 494.92 1328.18 496.04C1327.7 497.147 1327.07 497.953 1326.28 498.46C1325.49 498.953 1324.63 499.2 1323.7 499.2ZM1323.96 492.42C1324.93 492.42 1325.67 492.173 1326.18 491.68C1326.69 491.187 1326.94 490.48 1326.94 489.56V489.36C1326.94 488.453 1326.68 487.747 1326.16 487.24C1325.65 486.733 1324.92 486.48 1323.96 486.48C1322.99 486.48 1322.25 486.727 1321.74 487.22C1321.23 487.7 1320.98 488.413 1320.98 489.36V489.56C1320.98 490.48 1321.23 491.187 1321.74 491.68C1322.25 492.173 1322.99 492.42 1323.96 492.42ZM1336.31 499.2C1335.63 499.2 1334.99 499.087 1334.39 498.86C1333.79 498.62 1333.26 498.227 1332.79 497.68C1332.32 497.133 1331.96 496.4 1331.69 495.48C1331.44 494.547 1331.31 493.387 1331.31 492V491.6C1331.31 490.307 1331.44 489.227 1331.69 488.36C1331.96 487.48 1332.32 486.78 1332.79 486.26C1333.26 485.74 1333.79 485.367 1334.39 485.14C1334.99 484.913 1335.63 484.8 1336.31 484.8C1336.99 484.8 1337.63 484.913 1338.23 485.14C1338.83 485.367 1339.36 485.74 1339.83 486.26C1340.3 486.78 1340.66 487.48 1340.91 488.36C1341.18 489.227 1341.31 490.307 1341.31 491.6V492C1341.31 493.387 1341.18 494.547 1340.91 495.48C1340.66 496.4 1340.3 497.133 1339.83 497.68C1339.36 498.227 1338.83 498.62 1338.23 498.86C1337.63 499.087 1336.99 499.2 1336.31 499.2ZM1336.31 497.56C1336.74 497.56 1337.14 497.487 1337.51 497.34C1337.88 497.18 1338.21 496.9 1338.49 496.5C1338.78 496.087 1339.01 495.52 1339.17 494.8C1339.34 494.067 1339.43 493.133 1339.43 492V491.6C1339.43 490.213 1339.28 489.147 1338.99 488.4C1338.71 487.653 1338.33 487.14 1337.85 486.86C1337.38 486.58 1336.87 486.44 1336.31 486.44C1335.75 486.44 1335.23 486.58 1334.75 486.86C1334.28 487.14 1333.9 487.653 1333.61 488.4C1333.33 489.147 1333.19 490.213 1333.19 491.6V492C1333.19 493.133 1333.27 494.067 1333.43 494.8C1333.6 495.52 1333.83 496.087 1334.11 496.5C1334.4 496.9 1334.74 497.18 1335.11 497.34C1335.5 497.487 1335.9 497.56 1336.31 497.56Z" fill="#E7EFF9"/>
<path d="M1208.2 643.2C1207.52 643.2 1206.88 643.087 1206.28 642.86C1205.68 642.62 1205.15 642.227 1204.68 641.68C1204.21 641.133 1203.85 640.4 1203.58 639.48C1203.33 638.547 1203.2 637.387 1203.2 636V635.6C1203.2 634.307 1203.33 633.227 1203.58 632.36C1203.85 631.48 1204.21 630.78 1204.68 630.26C1205.15 629.74 1205.68 629.367 1206.28 629.14C1206.88 628.913 1207.52 628.8 1208.2 628.8C1208.88 628.8 1209.52 628.913 1210.12 629.14C1210.72 629.367 1211.25 629.74 1211.72 630.26C1212.19 630.78 1212.55 631.48 1212.8 632.36C1213.07 633.227 1213.2 634.307 1213.2 635.6V636C1213.2 637.387 1213.07 638.547 1212.8 639.48C1212.55 640.4 1212.19 641.133 1211.72 641.68C1211.25 642.227 1210.72 642.62 1210.12 642.86C1209.52 643.087 1208.88 643.2 1208.2 643.2ZM1208.2 641.56C1208.63 641.56 1209.03 641.487 1209.4 641.34C1209.77 641.18 1210.1 640.9 1210.38 640.5C1210.67 640.087 1210.9 639.52 1211.06 638.8C1211.23 638.067 1211.32 637.133 1211.32 636V635.6C1211.32 634.213 1211.17 633.147 1210.88 632.4C1210.6 631.653 1210.22 631.14 1209.74 630.86C1209.27 630.58 1208.76 630.44 1208.2 630.44C1207.64 630.44 1207.12 630.58 1206.64 630.86C1206.17 631.14 1205.79 631.653 1205.5 632.4C1205.22 633.147 1205.08 634.213 1205.08 635.6V636C1205.08 637.133 1205.16 638.067 1205.32 638.8C1205.49 639.52 1205.72 640.087 1206 640.5C1206.29 640.9 1206.63 641.18 1207 641.34C1207.39 641.487 1207.79 641.56 1208.2 641.56Z" fill="#E7EFF9"/>
<path d="M1266.2 643.2C1265.52 643.2 1264.88 643.087 1264.28 642.86C1263.68 642.62 1263.15 642.227 1262.68 641.68C1262.21 641.133 1261.85 640.4 1261.58 639.48C1261.33 638.547 1261.2 637.387 1261.2 636V635.6C1261.2 634.307 1261.33 633.227 1261.58 632.36C1261.85 631.48 1262.21 630.78 1262.68 630.26C1263.15 629.74 1263.68 629.367 1264.28 629.14C1264.88 628.913 1265.52 628.8 1266.2 628.8C1266.88 628.8 1267.52 628.913 1268.12 629.14C1268.72 629.367 1269.25 629.74 1269.72 630.26C1270.19 630.78 1270.55 631.48 1270.8 632.36C1271.07 633.227 1271.2 634.307 1271.2 635.6V636C1271.2 637.387 1271.07 638.547 1270.8 639.48C1270.55 640.4 1270.19 641.133 1269.72 641.68C1269.25 642.227 1268.72 642.62 1268.12 642.86C1267.52 643.087 1266.88 643.2 1266.2 643.2ZM1266.2 641.56C1266.63 641.56 1267.03 641.487 1267.4 641.34C1267.77 641.18 1268.1 640.9 1268.38 640.5C1268.67 640.087 1268.9 639.52 1269.06 638.8C1269.23 638.067 1269.32 637.133 1269.32 636V635.6C1269.32 634.213 1269.17 633.147 1268.88 632.4C1268.6 631.653 1268.22 631.14 1267.74 630.86C1267.27 630.58 1266.76 630.44 1266.2 630.44C1265.64 630.44 1265.12 630.58 1264.64 630.86C1264.17 631.14 1263.79 631.653 1263.5 632.4C1263.22 633.147 1263.08 634.213 1263.08 635.6V636C1263.08 637.133 1263.16 638.067 1263.32 638.8C1263.49 639.52 1263.72 640.087 1264 640.5C1264.29 640.9 1264.63 641.18 1265 641.34C1265.39 641.487 1265.79 641.56 1266.2 641.56Z" fill="#E7EFF9"/>
<path d="M1318.8 643V641.46L1324.4 636.6C1324.97 636.12 1325.41 635.7 1325.72 635.34C1326.03 634.967 1326.23 634.613 1326.34 634.28C1326.46 633.947 1326.52 633.587 1326.52 633.2C1326.52 632.413 1326.29 631.767 1325.82 631.26C1325.35 630.74 1324.71 630.48 1323.9 630.48C1322.93 630.48 1322.18 630.747 1321.66 631.28C1321.14 631.8 1320.88 632.54 1320.88 633.5H1319C1319 632.58 1319.2 631.767 1319.6 631.06C1320.01 630.353 1320.59 629.8 1321.32 629.4C1322.07 629 1322.93 628.8 1323.9 628.8C1324.85 628.8 1325.65 628.993 1326.32 629.38C1327 629.753 1327.51 630.273 1327.86 630.94C1328.22 631.593 1328.4 632.347 1328.4 633.2C1328.4 633.84 1328.27 634.427 1328.02 634.96C1327.77 635.48 1327.41 635.973 1326.96 636.44C1326.52 636.907 1326.01 637.393 1325.42 637.9L1321.24 641.36H1328.6V643H1318.8ZM1335.3 643.2C1334.55 643.2 1333.88 643.087 1333.28 642.86C1332.69 642.633 1332.21 642.293 1331.82 641.84C1331.43 641.373 1331.16 640.793 1331 640.1H1332.88C1333.07 640.567 1333.36 640.92 1333.76 641.16C1334.17 641.4 1334.69 641.52 1335.3 641.52C1335.94 641.52 1336.51 641.36 1337.02 641.04C1337.54 640.72 1337.95 640.18 1338.26 639.42C1338.58 638.66 1338.75 637.62 1338.78 636.3C1338.41 636.953 1337.89 637.42 1337.22 637.7C1336.57 637.967 1335.93 638.1 1335.3 638.1C1334.37 638.1 1333.55 637.927 1332.86 637.58C1332.18 637.22 1331.65 636.707 1331.26 636.04C1330.89 635.36 1330.7 634.54 1330.7 633.58V633.38C1330.7 632.487 1330.91 631.7 1331.34 631.02C1331.77 630.327 1332.33 629.787 1333.04 629.4C1333.76 629 1334.55 628.8 1335.4 628.8C1336.45 628.8 1337.36 629.027 1338.12 629.48C1338.88 629.933 1339.47 630.633 1339.88 631.58C1340.29 632.513 1340.5 633.72 1340.5 635.2V635.6C1340.5 637.44 1340.26 638.92 1339.78 640.04C1339.3 641.147 1338.67 641.953 1337.88 642.46C1337.09 642.953 1336.23 643.2 1335.3 643.2ZM1335.56 636.42C1336.53 636.42 1337.27 636.173 1337.78 635.68C1338.29 635.187 1338.54 634.48 1338.54 633.56V633.36C1338.54 632.453 1338.28 631.747 1337.76 631.24C1337.25 630.733 1336.52 630.48 1335.56 630.48C1334.59 630.48 1333.85 630.727 1333.34 631.22C1332.83 631.7 1332.58 632.413 1332.58 633.36V633.56C1332.58 634.48 1332.83 635.187 1333.34 635.68C1333.85 636.173 1334.59 636.42 1335.56 636.42Z" fill="#E7EFF9"/>
</g>
<defs>
<clipPath id="clip0_146_2478">
<rect width="1458" height="753" fill="white"/>
</clipPath>
</defs>
</svg>
