<svg width="504" height="504" viewBox="0 0 504 504" fill="none" xmlns="http://www.w3.org/2000/svg">
<path d="M240 296.631L136.393 476.085L115.607 464.085L219.004 284.995L39.915 388.393L27.915 367.607L207.369 264H0V240H207.369L27.915 136.393L39.915 115.607L219.004 219.004L115.607 39.915L136.393 27.915L240 207.368V0H264V207.061L367.607 27.6074L388.393 39.6074L284.574 219.425L464.393 115.607L476.393 136.393L296.938 240H504V264H296.938L476.393 367.607L464.393 388.393L284.574 284.574L388.393 464.393L367.607 476.393L264 296.938V504H240V296.631Z" fill="#DEFF23"/>
</svg>
