<svg width="1200" height="600" viewBox="0 0 1200 600" fill="none" xmlns="http://www.w3.org/2000/svg">
<path d="M299.293 525.707C299.683 526.098 300.317 526.098 300.707 525.707L307.071 519.343C307.462 518.953 307.462 518.319 307.071 517.929C306.681 517.538 306.047 517.538 305.657 517.929L300 523.586L294.343 517.929C293.953 517.538 293.319 517.538 292.929 517.929C292.538 518.319 292.538 518.953 292.929 519.343L299.293 525.707ZM300.707 74.2929C300.317 73.9024 299.683 73.9024 299.293 74.2929L292.929 80.6569C292.538 81.0474 292.538 81.6806 292.929 82.0711C293.319 82.4616 293.953 82.4616 294.343 82.0711L300 76.4142L305.657 82.0711C306.047 82.4616 306.681 82.4616 307.071 82.0711C307.462 81.6806 307.462 81.0474 307.071 80.6569L300.707 74.2929ZM301 525L301 75L299 75L299 525L301 525Z" fill="#0C0824"/>
<path d="M74.2929 299.293C73.9024 299.683 73.9024 300.317 74.2929 300.707L80.6569 307.071C81.0474 307.462 81.6805 307.462 82.0711 307.071C82.4616 306.681 82.4616 306.047 82.0711 305.657L76.4142 300L82.0711 294.343C82.4616 293.953 82.4616 293.319 82.0711 292.929C81.6805 292.538 81.0474 292.538 80.6569 292.929L74.2929 299.293ZM525.707 300.707C526.098 300.317 526.098 299.683 525.707 299.293L519.343 292.929C518.953 292.538 518.319 292.538 517.929 292.929C517.538 293.319 517.538 293.953 517.929 294.343L523.586 300L517.929 305.657C517.538 306.047 517.538 306.681 517.929 307.071C518.319 307.462 518.953 307.462 519.343 307.071L525.707 300.707ZM75 301L525 301V299L75 299V301Z" fill="#0C0824"/>
<circle cx="300" cy="300" r="148" fill="url(#paint0_linear_68_69)" stroke="url(#paint1_linear_68_69)" stroke-width="4"/>
<path d="M899.293 525.707C899.683 526.098 900.317 526.098 900.707 525.707L907.071 519.343C907.462 518.953 907.462 518.319 907.071 517.929C906.681 517.538 906.047 517.538 905.657 517.929L900 523.586L894.343 517.929C893.953 517.538 893.319 517.538 892.929 517.929C892.538 518.319 892.538 518.953 892.929 519.343L899.293 525.707ZM900.707 74.2929C900.317 73.9024 899.683 73.9024 899.293 74.2929L892.929 80.6569C892.538 81.0474 892.538 81.6806 892.929 82.0711C893.319 82.4616 893.953 82.4616 894.343 82.0711L900 76.4142L905.657 82.0711C906.047 82.4616 906.681 82.4616 907.071 82.0711C907.462 81.6806 907.462 81.0474 907.071 80.6569L900.707 74.2929ZM901 525L901 75L899 75L899 525L901 525Z" fill="#0C0824"/>
<path d="M674.293 299.293C673.902 299.683 673.902 300.317 674.293 300.707L680.657 307.071C681.047 307.462 681.681 307.462 682.071 307.071C682.462 306.681 682.462 306.047 682.071 305.657L676.414 300L682.071 294.343C682.462 293.953 682.462 293.319 682.071 292.929C681.681 292.538 681.047 292.538 680.657 292.929L674.293 299.293ZM1125.71 300.707C1126.1 300.317 1126.1 299.683 1125.71 299.293L1119.34 292.929C1118.95 292.538 1118.32 292.538 1117.93 292.929C1117.54 293.319 1117.54 293.953 1117.93 294.343L1123.59 300L1117.93 305.657C1117.54 306.047 1117.54 306.681 1117.93 307.071C1118.32 307.462 1118.95 307.462 1119.34 307.071L1125.71 300.707ZM675 301L1125 301V299L675 299V301Z" fill="#0C0824"/>
<circle opacity="0.35" cx="900" cy="300" r="148" stroke="#0C0824" stroke-width="4"/>
<path d="M522 173V60.2H534.648V63.1152H524.915V170.085H534.648V173H522Z" fill="#0C0824"/>
<path d="M539.727 67.9582C541.482 65.4192 543.88 64.1497 546.921 64.1497C548.425 64.1497 549.93 64.5572 551.434 65.3722C552.939 66.1872 554.162 67.6291 555.102 69.698C556.262 72.2997 556.842 75.8732 556.842 80.4184C556.842 85.2771 556.168 88.9917 554.82 91.5621C554.193 92.8786 553.331 93.9287 552.234 94.7124C551.137 95.4961 550.181 95.9819 549.366 96.17C548.551 96.3581 547.751 96.4678 546.968 96.4991C546.153 96.4991 545.338 96.4051 544.523 96.217C543.707 96.0289 542.751 95.5274 541.654 94.7124C540.557 93.8974 539.695 92.8473 539.068 91.5621C537.72 88.9917 537.046 85.2771 537.046 80.4184C537.046 74.9642 537.94 70.8108 539.727 67.9582ZM550.306 67.394C549.366 66.3909 548.253 65.8894 546.968 65.8894C545.651 65.8894 544.523 66.3909 543.582 67.394C542.798 68.209 542.281 69.3375 542.03 70.7794C541.78 72.2214 541.654 75.2306 541.654 79.8072C541.654 84.7599 541.78 88.0199 542.03 89.5873C542.281 91.1546 542.845 92.3928 543.723 93.3018C544.601 94.2422 545.682 94.7124 546.968 94.7124C548.221 94.7124 549.287 94.2422 550.165 93.3018C551.074 92.3614 551.638 91.0449 551.858 89.3522C552.077 87.6595 552.202 84.4778 552.234 79.8072C552.234 75.262 552.108 72.2684 551.858 70.8264C551.607 69.3845 551.09 68.2404 550.306 67.394Z" fill="#0C0824"/>
<path d="M562.39 92.6435C562.39 91.8912 562.657 91.233 563.189 90.6687C563.722 90.1045 564.396 89.8224 565.211 89.8224C565.964 89.8224 566.622 90.0731 567.186 90.5747C567.75 91.0762 568.048 91.7502 568.08 92.5965C568.08 93.3802 567.813 94.0541 567.28 94.6184C566.747 95.1826 566.073 95.4647 565.258 95.4647C564.443 95.4647 563.769 95.1983 563.236 94.6654C562.704 94.1325 562.421 93.4586 562.39 92.6435Z" fill="#0C0824"/>
<path d="M579.505 88.0827C579.505 88.835 579.254 89.4619 578.753 89.9635C578.251 90.465 577.64 90.7158 576.919 90.7158H576.59C578.032 93.1922 579.944 94.4303 582.326 94.4303C584.521 94.4303 586.119 93.49 587.122 91.6092C587.718 90.5747 588.016 88.5686 588.016 85.5907C588.016 82.362 587.593 80.1834 586.746 79.0549C585.931 78.0205 585.022 77.5033 584.019 77.5033H583.737C581.292 77.5033 579.443 78.5691 578.189 80.7006C578.063 80.92 577.954 81.0454 577.86 81.0768C577.766 81.1081 577.53 81.1395 577.154 81.1708C576.621 81.1708 576.324 81.0768 576.261 80.8887C576.198 80.7633 576.167 78.0205 576.167 72.6603V66.5947C576.167 65.0274 576.245 64.2438 576.402 64.2438C576.465 64.1811 576.527 64.1497 576.59 64.1497C576.621 64.1497 576.951 64.2751 577.577 64.5259C578.204 64.7766 579.066 65.0274 580.164 65.2782C581.261 65.529 582.436 65.6543 583.69 65.6543C585.916 65.6543 588.047 65.2155 590.085 64.3378C590.335 64.2124 590.539 64.1497 590.696 64.1497C590.947 64.1497 591.072 64.4318 591.072 64.9961V65.6073C588.502 68.6479 585.289 70.1682 581.433 70.1682C580.461 70.1682 579.584 70.0742 578.8 69.8861L578.33 69.7921V77.8794C578.925 77.4406 579.396 77.0958 579.74 76.845C580.085 76.5942 580.649 76.3435 581.433 76.0927C582.217 75.8419 583.016 75.7165 583.831 75.7165C586.37 75.7165 588.517 76.7353 590.273 78.7728C592.028 80.8103 592.906 83.224 592.906 86.0138C592.906 88.8977 591.903 91.3584 589.897 93.3959C587.89 95.4334 585.445 96.4679 582.562 96.4992C580.022 96.4992 577.985 95.6529 576.449 93.9601C574.913 92.2674 574.145 90.3553 574.145 88.2238C574.145 87.4714 574.317 86.8759 574.662 86.437C575.007 85.9982 575.368 85.716 575.744 85.5907C576.12 85.4653 576.48 85.4026 576.825 85.4026C577.609 85.4026 578.251 85.669 578.753 86.2019C579.254 86.7348 579.505 87.3617 579.505 88.0827Z" fill="#0C0824"/>
<path d="M646.837 67.9583C648.593 65.4192 650.991 64.1497 654.031 64.1497C655.536 64.1497 657.041 64.5572 658.545 65.3722C660.05 66.1872 661.272 67.6292 662.213 69.698C663.373 72.2998 663.952 75.8733 663.952 80.4185C663.952 85.2772 663.279 88.9917 661.931 91.5621C661.304 92.8787 660.442 93.9288 659.345 94.7125C658.247 95.4961 657.291 95.982 656.476 96.1701C655.661 96.3581 654.862 96.4679 654.078 96.4992C653.263 96.4992 652.448 96.4052 651.633 96.2171C650.818 96.029 649.862 95.5275 648.765 94.7125C647.668 93.8975 646.806 92.8474 646.179 91.5621C644.831 88.9917 644.157 85.2772 644.157 80.4185C644.157 74.9642 645.051 70.8108 646.837 67.9583ZM657.417 67.3941C656.476 66.391 655.364 65.8894 654.078 65.8894C652.762 65.8894 651.633 66.391 650.693 67.3941C649.909 68.2091 649.392 69.3375 649.141 70.7795C648.891 72.2214 648.765 75.2307 648.765 79.8072C648.765 84.76 648.891 88.02 649.141 89.5873C649.392 91.1546 649.956 92.3928 650.834 93.3019C651.712 94.2423 652.793 94.7125 654.078 94.7125C655.332 94.7125 656.398 94.2423 657.276 93.3019C658.185 92.3615 658.749 91.0449 658.968 89.3522C659.188 87.6595 659.313 84.4779 659.345 79.8072C659.345 75.262 659.219 72.2684 658.968 70.8265C658.718 69.3846 658.2 68.2404 657.417 67.3941Z" fill="#0C0824"/>
<path d="M558.017 133.786C559.772 131.247 562.17 129.977 565.211 129.977C566.715 129.977 568.22 130.385 569.724 131.2C571.229 132.015 572.452 133.457 573.392 135.525C574.552 138.127 575.132 141.701 575.132 146.246C575.132 151.105 574.458 154.819 573.11 157.39C572.483 158.706 571.621 159.756 570.524 160.54C569.427 161.324 568.471 161.809 567.656 161.997C566.841 162.186 566.041 162.295 565.258 162.327C564.443 162.327 563.628 162.233 562.813 162.044C561.998 161.856 561.041 161.355 559.944 160.54C558.847 159.725 557.985 158.675 557.358 157.39C556.01 154.819 555.336 151.105 555.336 146.246C555.336 140.792 556.23 136.638 558.017 133.786ZM568.596 133.221C567.656 132.218 566.543 131.717 565.258 131.717C563.941 131.717 562.813 132.218 561.872 133.221C561.088 134.036 560.571 135.165 560.321 136.607C560.07 138.049 559.944 141.058 559.944 145.635C559.944 150.587 560.07 153.847 560.321 155.415C560.571 156.982 561.136 158.22 562.013 159.129C562.891 160.07 563.972 160.54 565.258 160.54C566.511 160.54 567.577 160.07 568.455 159.129C569.364 158.189 569.928 156.872 570.148 155.18C570.367 153.487 570.492 150.305 570.524 145.635C570.524 141.089 570.398 138.096 570.148 136.654C569.897 135.212 569.38 134.068 568.596 133.221Z" fill="#0C0824"/>
<path d="M652.338 134.115L651.727 134.35C651.288 134.507 650.661 134.663 649.846 134.82C649.031 134.977 648.122 135.087 647.119 135.149H646.226V132.986H647.119C648.592 132.924 649.956 132.689 651.21 132.281C652.464 131.874 653.341 131.497 653.843 131.153C654.344 130.808 654.783 130.463 655.159 130.118C655.222 130.024 655.41 129.977 655.724 129.977C656.006 129.977 656.272 130.071 656.523 130.259V144.318L656.57 158.424C656.789 158.643 656.977 158.784 657.134 158.847C657.291 158.91 657.667 158.973 658.263 159.035C658.858 159.098 659.83 159.129 661.178 159.129H662.4V161.292H661.883C661.225 161.198 658.733 161.151 654.407 161.151C650.144 161.151 647.683 161.198 647.025 161.292H646.461V159.129H647.683C648.373 159.129 648.968 159.129 649.47 159.129C649.971 159.129 650.363 159.114 650.645 159.082C650.928 159.051 651.178 159.004 651.398 158.941C651.617 158.879 651.743 158.847 651.774 158.847C651.805 158.847 651.899 158.769 652.056 158.612C652.213 158.455 652.307 158.393 652.338 158.424V134.115Z" fill="#0C0824"/>
<path d="M666.351 63.1152V60.2H678.999V173H666.351V170.085H676.084V63.1152H666.351Z" fill="#0C0824"/>
<path d="M973 300C973 341.178 964.65 378.359 951.244 405.172C937.778 432.104 919.545 448 900 448C880.455 448 862.222 432.104 848.756 405.172C835.35 378.359 827 341.178 827 300C827 258.822 835.35 221.641 848.756 194.828C862.222 167.896 880.455 152 900 152C919.545 152 937.778 167.896 951.244 194.828C964.65 221.641 973 258.822 973 300Z" fill="url(#paint2_linear_68_69)" stroke="url(#paint3_linear_68_69)" stroke-width="4"/>
<defs>
<linearGradient id="paint0_linear_68_69" x1="300" y1="150" x2="300" y2="450" gradientUnits="userSpaceOnUse">
<stop stop-color="#656AFF" stop-opacity="0.1"/>
<stop offset="1" stop-color="#656AFF"/>
</linearGradient>
<linearGradient id="paint1_linear_68_69" x1="300" y1="150" x2="300" y2="450" gradientUnits="userSpaceOnUse">
<stop stop-color="#656AFF" stop-opacity="0.1"/>
<stop offset="1" stop-color="#656AFF"/>
</linearGradient>
<linearGradient id="paint2_linear_68_69" x1="900" y1="150" x2="900" y2="450" gradientUnits="userSpaceOnUse">
<stop stop-color="#656AFF" stop-opacity="0.1"/>
<stop offset="1" stop-color="#656AFF"/>
</linearGradient>
<linearGradient id="paint3_linear_68_69" x1="900" y1="150" x2="900" y2="450" gradientUnits="userSpaceOnUse">
<stop stop-color="#656AFF" stop-opacity="0.1"/>
<stop offset="1" stop-color="#656AFF"/>
</linearGradient>
</defs>
</svg>
