<svg width="600" height="600" viewBox="0 0 600 600" fill="none" xmlns="http://www.w3.org/2000/svg">
<path d="M299.293 525.707C299.683 526.098 300.317 526.098 300.707 525.707L307.071 519.343C307.462 518.953 307.462 518.319 307.071 517.929C306.681 517.538 306.047 517.538 305.657 517.929L300 523.586L294.343 517.929C293.953 517.538 293.319 517.538 292.929 517.929C292.538 518.319 292.538 518.953 292.929 519.343L299.293 525.707ZM300.707 74.2929C300.317 73.9024 299.683 73.9024 299.293 74.2929L292.929 80.6569C292.538 81.0474 292.538 81.6806 292.929 82.0711C293.319 82.4616 293.953 82.4616 294.343 82.0711L300 76.4142L305.657 82.0711C306.047 82.4616 306.681 82.4616 307.071 82.0711C307.462 81.6806 307.462 81.0474 307.071 80.6569L300.707 74.2929ZM301 525L301 75L299 75L299 525L301 525Z" fill="#E7EFF9"/>
<path d="M74.2929 299.293C73.9024 299.683 73.9024 300.317 74.2929 300.707L80.6569 307.071C81.0474 307.462 81.6805 307.462 82.0711 307.071C82.4616 306.681 82.4616 306.047 82.0711 305.657L76.4142 300L82.0711 294.343C82.4616 293.953 82.4616 293.319 82.0711 292.929C81.6805 292.538 81.0474 292.538 80.6569 292.929L74.2929 299.293ZM525.707 300.707C526.098 300.317 526.098 299.683 525.707 299.293L519.343 292.929C518.953 292.538 518.319 292.538 517.929 292.929C517.538 293.319 517.538 293.953 517.929 294.343L523.586 300L517.929 305.657C517.538 306.047 517.538 306.681 517.929 307.071C518.319 307.462 518.953 307.462 519.343 307.071L525.707 300.707ZM75 301L525 301V299L75 299V301Z" fill="#E7EFF9"/>
<circle cx="300" cy="300" r="148" fill="#656AFF" fill-opacity="0.5" stroke="#656AFF" stroke-width="4"/>
<path d="M284.243 302.208C285.778 310.91 294.076 316.721 302.778 315.186C311.481 313.652 317.291 305.353 315.757 296.651C314.222 287.949 305.924 282.138 297.222 283.672C288.519 285.207 282.709 293.505 284.243 302.208ZM450.179 275.103C451.129 273.745 450.799 271.875 449.442 270.925L427.325 255.438C425.968 254.488 424.097 254.817 423.147 256.175C422.196 257.532 422.526 259.403 423.883 260.353L443.543 274.119L429.777 293.778C428.827 295.136 429.157 297.006 430.514 297.957C431.871 298.907 433.742 298.577 434.692 297.22L450.179 275.103ZM300.521 302.384L448.242 276.336L447.2 270.428L299.479 296.475L300.521 302.384Z" fill="#E7EFF9"/>
<g opacity="0.8">
<g opacity="0.65">
<path d="M292.151 313.715C299.804 318.133 309.589 315.511 314.008 307.859C318.426 300.206 315.804 290.42 308.151 286.002C300.499 281.584 290.713 284.206 286.295 291.859C281.877 299.511 284.499 309.297 292.151 313.715ZM378.049 169.178C377.62 167.578 375.975 166.628 374.375 167.057L348.295 174.045C346.695 174.474 345.745 176.119 346.174 177.719C346.602 179.32 348.247 180.269 349.848 179.841L373.03 173.629L379.242 196.811C379.671 198.412 381.316 199.361 382.916 198.932C384.516 198.504 385.466 196.859 385.037 195.258L378.049 169.178ZM302.749 301.359L377.749 171.455L372.553 168.455L297.553 298.359L302.749 301.359Z" fill="#E7EFF9"/>
<g opacity="0.5">
<path d="M298.757 315.798C307.56 316.568 315.32 310.056 316.09 301.253C316.861 292.45 310.349 284.69 301.546 283.919C292.743 283.149 284.982 289.661 284.212 298.464C283.442 307.267 289.954 315.027 298.757 315.798ZM315.523 148.501C314.458 147.232 312.566 147.066 311.296 148.131L290.613 165.486C289.344 166.551 289.178 168.444 290.243 169.713C291.308 170.982 293.201 171.148 294.47 170.083L312.855 154.656L328.282 173.041C329.347 174.31 331.239 174.476 332.508 173.411C333.778 172.346 333.943 170.453 332.878 169.184L315.523 148.501ZM303.14 300.12L316.213 150.691L310.236 150.168L297.163 299.597L303.14 300.12Z" fill="#E7EFF9"/>
<path opacity="0.4" d="M305.624 314.894C313.927 311.871 318.209 302.69 315.186 294.386C312.164 286.083 302.983 281.801 294.679 284.823C286.375 287.846 282.094 297.027 285.116 305.331C288.139 313.634 297.32 317.916 305.624 314.894ZM250.116 156.186C248.615 155.486 246.83 156.135 246.129 157.637L234.719 182.107C234.019 183.609 234.668 185.394 236.17 186.094C237.671 186.794 239.456 186.144 240.157 184.643L250.299 162.891L272.051 173.034C273.552 173.734 275.337 173.085 276.038 171.583C276.738 170.082 276.088 168.297 274.587 167.596L250.116 156.186ZM302.97 298.832L251.667 157.879L246.029 159.931L297.332 300.885L302.97 298.832Z" fill="#E7EFF9"/>
</g>
</g>
<path d="M287.045 309.036C292.113 316.274 302.09 318.033 309.329 312.965C316.567 307.897 318.326 297.92 313.258 290.681C308.189 283.443 298.213 281.684 290.974 286.752C283.736 291.821 281.976 301.797 287.045 309.036ZM425.979 214.343C426.266 212.711 425.177 211.155 423.545 210.868L396.955 206.179C395.324 205.891 393.768 206.981 393.48 208.613C393.192 210.244 394.282 211.8 395.913 212.088L419.549 216.256L415.381 239.891C415.094 241.523 416.183 243.079 417.815 243.366C419.446 243.654 421.002 242.564 421.29 240.933L425.979 214.343ZM301.872 302.316L424.745 216.28L421.303 211.365L298.431 297.401L301.872 302.316Z" fill="#E7EFF9"/>
</g>
</svg>
