<svg width="1200" height="600" viewBox="0 0 1200 600" fill="none" xmlns="http://www.w3.org/2000/svg">
<path d="M299.293 525.707C299.683 526.098 300.317 526.098 300.707 525.707L307.071 519.343C307.462 518.953 307.462 518.319 307.071 517.929C306.681 517.538 306.047 517.538 305.657 517.929L300 523.586L294.343 517.929C293.953 517.538 293.319 517.538 292.929 517.929C292.538 518.319 292.538 518.953 292.929 519.343L299.293 525.707ZM300.707 74.2929C300.317 73.9024 299.683 73.9024 299.293 74.2929L292.929 80.6569C292.538 81.0474 292.538 81.6806 292.929 82.0711C293.319 82.4616 293.953 82.4616 294.343 82.0711L300 76.4142L305.657 82.0711C306.047 82.4616 306.681 82.4616 307.071 82.0711C307.462 81.6806 307.462 81.0474 307.071 80.6569L300.707 74.2929ZM301 525L301 75L299 75L299 525L301 525Z" fill="#0C0824"/>
<path d="M74.2929 299.293C73.9024 299.683 73.9024 300.317 74.2929 300.707L80.6569 307.071C81.0474 307.462 81.6805 307.462 82.0711 307.071C82.4616 306.681 82.4616 306.047 82.0711 305.657L76.4142 300L82.0711 294.343C82.4616 293.953 82.4616 293.319 82.0711 292.929C81.6805 292.538 81.0474 292.538 80.6569 292.929L74.2929 299.293ZM525.707 300.707C526.098 300.317 526.098 299.683 525.707 299.293L519.343 292.929C518.953 292.538 518.319 292.538 517.929 292.929C517.538 293.319 517.538 293.953 517.929 294.343L523.586 300L517.929 305.657C517.538 306.047 517.538 306.681 517.929 307.071C518.319 307.462 518.953 307.462 519.343 307.071L525.707 300.707ZM75 301L525 301V299L75 299V301Z" fill="#0C0824"/>
<circle cx="300" cy="300" r="148" fill="url(#paint0_linear_68_55)" stroke="url(#paint1_linear_68_55)" stroke-width="4"/>
<path d="M899.293 525.707C899.683 526.098 900.317 526.098 900.707 525.707L907.071 519.343C907.462 518.953 907.462 518.319 907.071 517.929C906.681 517.538 906.047 517.538 905.657 517.929L900 523.586L894.343 517.929C893.953 517.538 893.319 517.538 892.929 517.929C892.538 518.319 892.538 518.953 892.929 519.343L899.293 525.707ZM900.707 74.2929C900.317 73.9024 899.683 73.9024 899.293 74.2929L892.929 80.6569C892.538 81.0474 892.538 81.6806 892.929 82.0711C893.319 82.4616 893.953 82.4616 894.343 82.0711L900 76.4142L905.657 82.0711C906.047 82.4616 906.681 82.4616 907.071 82.0711C907.462 81.6806 907.462 81.0474 907.071 80.6569L900.707 74.2929ZM901 525L901 75L899 75L899 525L901 525Z" fill="#0C0824"/>
<path d="M674.293 299.293C673.902 299.683 673.902 300.317 674.293 300.707L680.657 307.071C681.047 307.462 681.681 307.462 682.071 307.071C682.462 306.681 682.462 306.047 682.071 305.657L676.414 300L682.071 294.343C682.462 293.953 682.462 293.319 682.071 292.929C681.681 292.538 681.047 292.538 680.657 292.929L674.293 299.293ZM1125.71 300.707C1126.1 300.317 1126.1 299.683 1125.71 299.293L1119.34 292.929C1118.95 292.538 1118.32 292.538 1117.93 292.929C1117.54 293.319 1117.54 293.953 1117.93 294.343L1123.59 300L1117.93 305.657C1117.54 306.047 1117.54 306.681 1117.93 307.071C1118.32 307.462 1118.95 307.462 1119.34 307.071L1125.71 300.707ZM675 301L1125 301V299L675 299V301Z" fill="#0C0824"/>
<circle cx="900" cy="300" r="148" fill="url(#paint2_linear_68_55)" stroke="url(#paint3_linear_68_55)" stroke-width="4"/>
<path d="M540 172V59.5908H552.604V62.4959H542.905V169.095H552.604V172H540Z" fill="#0C0824"/>
<path d="M563.147 67.6502L562.538 67.8845C562.101 68.0407 561.476 68.1969 560.664 68.3531C559.851 68.5093 558.946 68.6186 557.946 68.6811H557.056V66.5257H557.946C559.414 66.4632 560.773 66.2289 562.022 65.8228C563.272 65.4167 564.147 65.0419 564.646 64.6983C565.146 64.3546 565.584 64.011 565.958 63.6674C566.021 63.5737 566.208 63.5268 566.521 63.5268C566.802 63.5268 567.067 63.6206 567.317 63.808V77.8181L567.364 91.8751C567.583 92.0938 567.77 92.2344 567.926 92.2969C568.083 92.3593 568.457 92.4218 569.051 92.4843C569.644 92.5468 570.613 92.578 571.956 92.578H573.174V94.7334H572.659C572.003 94.6397 569.52 94.5928 565.209 94.5928C560.96 94.5928 558.508 94.6397 557.852 94.7334H557.29V92.578H558.508C559.195 92.578 559.789 92.578 560.289 92.578C560.789 92.578 561.179 92.5624 561.46 92.5311C561.741 92.4999 561.991 92.453 562.21 92.3906C562.429 92.3281 562.554 92.2969 562.585 92.2969C562.616 92.2969 562.71 92.2188 562.866 92.0626C563.022 91.9064 563.116 91.8439 563.147 91.8751V67.6502Z" fill="#0C0824"/>
<path d="M627.95 67.3221C629.699 64.7919 632.089 63.5268 635.119 63.5268C636.618 63.5268 638.118 63.9328 639.617 64.745C641.116 65.5572 642.335 66.9941 643.272 69.0558C644.428 71.6486 645.005 75.2097 645.005 79.7392C645.005 84.581 644.334 88.2827 642.991 90.8442C642.366 92.1562 641.507 93.2027 640.414 93.9836C639.32 94.7646 638.367 95.2487 637.555 95.4362C636.743 95.6236 635.947 95.7329 635.166 95.7642C634.353 95.7642 633.541 95.6704 632.729 95.483C631.917 95.2956 630.964 94.7958 629.871 93.9836C628.777 93.1714 627.918 92.125 627.294 90.8442C625.95 88.2827 625.279 84.581 625.279 79.7392C625.279 74.3038 626.169 70.1648 627.95 67.3221ZM638.492 66.7599C637.555 65.7603 636.446 65.2604 635.166 65.2604C633.854 65.2604 632.729 65.7603 631.792 66.7599C631.011 67.572 630.496 68.6966 630.246 70.1335C629.996 71.5705 629.871 74.5693 629.871 79.13C629.871 84.0656 629.996 87.3143 630.246 88.8762C630.496 90.4381 631.058 91.672 631.932 92.5779C632.807 93.515 633.885 93.9836 635.166 93.9836C636.415 93.9836 637.477 93.515 638.352 92.5779C639.258 91.6408 639.82 90.3288 640.039 88.6419C640.257 86.9551 640.382 83.7845 640.414 79.13C640.414 74.6006 640.289 71.6173 640.039 70.1804C639.789 68.7435 639.273 67.6033 638.492 66.7599Z" fill="#0C0824"/>
<path d="M557.665 132.922C559.414 130.391 561.804 129.126 564.834 129.126C566.333 129.126 567.833 129.532 569.332 130.344C570.832 131.157 572.05 132.594 572.987 134.655C574.143 137.248 574.721 140.809 574.721 145.339C574.721 150.18 574.049 153.882 572.706 156.444C572.081 157.756 571.222 158.802 570.129 159.583C569.036 160.364 568.083 160.848 567.271 161.036C566.458 161.223 565.662 161.332 564.881 161.364C564.069 161.364 563.257 161.27 562.444 161.082C561.632 160.895 560.679 160.395 559.586 159.583C558.493 158.771 557.634 157.724 557.009 156.444C555.666 153.882 554.994 150.18 554.994 145.339C554.994 139.903 555.884 135.764 557.665 132.922ZM568.208 132.359C567.271 131.36 566.162 130.86 564.881 130.86C563.569 130.86 562.444 131.36 561.507 132.359C560.726 133.171 560.211 134.296 559.961 135.733C559.711 137.17 559.586 140.169 559.586 144.729C559.586 149.665 559.711 152.914 559.961 154.476C560.211 156.037 560.773 157.271 561.648 158.177C562.522 159.114 563.6 159.583 564.881 159.583C566.13 159.583 567.193 159.114 568.067 158.177C568.973 157.24 569.535 155.928 569.754 154.241C569.973 152.554 570.098 149.384 570.129 144.729C570.129 140.2 570.004 137.217 569.754 135.78C569.504 134.343 568.989 133.203 568.208 132.359Z" fill="#0C0824"/>
<path d="M633.432 133.249L632.823 133.484C632.386 133.64 631.761 133.796 630.949 133.952C630.137 134.109 629.231 134.218 628.231 134.28H627.341V132.125H628.231C629.699 132.062 631.058 131.828 632.308 131.422C633.557 131.016 634.432 130.641 634.932 130.297C635.431 129.954 635.869 129.61 636.244 129.267C636.306 129.173 636.493 129.126 636.806 129.126C637.087 129.126 637.353 129.22 637.602 129.407V143.417L637.649 157.474C637.868 157.693 638.055 157.834 638.212 157.896C638.368 157.959 638.743 158.021 639.336 158.084C639.93 158.146 640.898 158.177 642.241 158.177H643.46V160.333H642.944C642.288 160.239 639.805 160.192 635.494 160.192C631.246 160.192 628.793 160.239 628.137 160.333H627.575V158.177H628.793C629.481 158.177 630.074 158.177 630.574 158.177C631.074 158.177 631.464 158.162 631.745 158.13C632.026 158.099 632.276 158.052 632.495 157.99C632.714 157.927 632.839 157.896 632.87 157.896C632.901 157.896 632.995 157.818 633.151 157.662C633.307 157.506 633.401 157.443 633.432 157.474V133.249Z" fill="#0C0824"/>
<path d="M647.396 62.4959V59.5908H660V172H647.396V169.095H657.095V62.4959H647.396Z" fill="#0C0824"/>
<defs>
<linearGradient id="paint0_linear_68_55" x1="300" y1="150" x2="300" y2="450" gradientUnits="userSpaceOnUse">
<stop stop-color="#656AFF" stop-opacity="0.1"/>
<stop offset="1" stop-color="#656AFF"/>
</linearGradient>
<linearGradient id="paint1_linear_68_55" x1="300" y1="150" x2="300" y2="450" gradientUnits="userSpaceOnUse">
<stop stop-color="#656AFF" stop-opacity="0.1"/>
<stop offset="1" stop-color="#656AFF"/>
</linearGradient>
<linearGradient id="paint2_linear_68_55" x1="900" y1="150" x2="900" y2="450" gradientUnits="userSpaceOnUse">
<stop stop-color="#656AFF" stop-opacity="0.1"/>
<stop offset="1" stop-color="#656AFF"/>
</linearGradient>
<linearGradient id="paint3_linear_68_55" x1="900" y1="150" x2="900" y2="450" gradientUnits="userSpaceOnUse">
<stop stop-color="#656AFF" stop-opacity="0.1"/>
<stop offset="1" stop-color="#656AFF"/>
</linearGradient>
</defs>
</svg>
