<svg width="1200" height="387" viewBox="0 0 1200 387" fill="none" xmlns="http://www.w3.org/2000/svg">
<path d="M210 44V344" stroke="#DEFF23" stroke-width="15" stroke-linecap="square"/>
<path d="M360 194L60 194" stroke="#DEFF23" stroke-width="15" stroke-linecap="square"/>
<path d="M285 64L135 323.808" stroke="#DEFF23" stroke-width="15" stroke-linecap="square"/>
<path d="M340 269L80.1924 119" stroke="#DEFF23" stroke-width="15" stroke-linecap="square"/>
<path d="M340 119L80.1924 269" stroke="#DEFF23" stroke-width="15" stroke-linecap="square"/>
<path d="M285 324L135 64.1924" stroke="#DEFF23" stroke-width="15" stroke-linecap="square"/>
<path d="M431.875 240.408C424.195 240.408 417.838 239.299 412.803 237.08C407.768 234.861 403.928 231.832 401.283 227.992C398.723 224.067 397.187 219.629 396.675 214.68H412.035C412.718 218.179 414.467 221.08 417.283 223.384C420.099 225.688 424.963 226.84 431.875 226.84C439.043 226.84 444.12 225.688 447.107 223.384C450.179 220.995 451.715 218.093 451.715 214.68C451.715 211.864 450.862 209.56 449.155 207.768C447.448 205.976 444.803 204.44 441.219 203.16C437.72 201.795 433.24 200.557 427.779 199.448C421.635 198.083 416.43 196.376 412.163 194.328C407.896 192.195 404.654 189.379 402.435 185.88C400.302 182.381 399.235 177.901 399.235 172.44C399.235 167.917 400.472 163.821 402.947 160.152C405.422 156.483 409.048 153.539 413.827 151.32C418.691 149.101 424.707 147.992 431.875 147.992C438.872 147.992 444.675 149.059 449.283 151.192C453.976 153.24 457.56 156.099 460.035 159.768C462.595 163.437 464.088 167.661 464.515 172.44H449.155C448.472 169.197 446.723 166.595 443.907 164.632C441.176 162.584 437.166 161.56 431.875 161.56C425.731 161.56 421.294 162.627 418.563 164.76C415.918 166.893 414.595 169.453 414.595 172.44C414.595 176.536 416.302 179.608 419.715 181.656C423.128 183.704 428.376 185.453 435.459 186.904C440.75 188.013 445.358 189.336 449.283 190.872C453.208 192.323 456.494 194.115 459.139 196.248C461.784 198.296 463.747 200.856 465.027 203.928C466.392 206.915 467.075 210.499 467.075 214.68C467.075 219.629 465.752 224.067 463.107 227.992C460.547 231.832 456.664 234.861 451.459 237.08C446.254 239.299 439.726 240.408 431.875 240.408ZM497.845 239V149.4H530.485C538.506 149.4 545.12 150.595 550.325 152.984C555.53 155.288 559.37 158.573 561.845 162.84C564.405 167.107 565.685 172.141 565.685 177.944C565.685 183.747 564.405 188.781 561.845 193.048C559.37 197.315 555.53 200.643 550.325 203.032C545.12 205.336 538.506 206.488 530.485 206.488H513.205V239H497.845ZM513.205 193.176H529.205C537.312 193.176 542.858 191.939 545.845 189.464C548.832 186.904 550.325 183.064 550.325 177.944C550.325 172.909 548.832 169.112 545.845 166.552C542.858 163.992 537.312 162.712 529.205 162.712H513.205V193.176ZM595.145 239V149.4H655.305V162.712H610.505V186.264H651.465V199.576H610.505V225.688H655.305V239H595.145ZM720.63 240.408C713.291 240.408 706.678 238.872 700.79 235.8C694.902 232.643 690.209 227.736 686.71 221.08C683.297 214.339 681.59 205.592 681.59 194.84V192.28C681.59 184.515 682.614 177.859 684.662 172.312C686.71 166.68 689.483 162.072 692.982 158.488C696.566 154.904 700.705 152.259 705.398 150.552C710.177 148.845 715.254 147.992 720.63 147.992C725.579 147.992 730.187 148.632 734.454 149.912C738.721 151.107 742.475 152.941 745.718 155.416C748.961 157.891 751.563 160.963 753.526 164.632C755.489 168.301 756.683 172.611 757.11 177.56H740.982C739.873 172.013 737.483 167.96 733.814 165.4C730.23 162.84 725.835 161.56 720.63 161.56C716.875 161.56 713.249 162.541 709.75 164.504C706.251 166.381 703.35 169.539 701.046 173.976C698.827 178.413 697.718 184.515 697.718 192.28V194.84C697.718 200.984 698.401 206.147 699.766 210.328C701.131 214.424 702.923 217.667 705.142 220.056C707.446 222.445 709.921 224.195 712.566 225.304C715.297 226.328 717.985 226.84 720.63 226.84C726.774 226.84 731.51 225.432 734.838 222.616C738.251 219.715 740.299 215.789 740.982 210.84H757.11C756.598 216.131 755.318 220.653 753.27 224.408C751.307 228.163 748.662 231.235 745.334 233.624C742.091 235.928 738.379 237.635 734.198 238.744C730.017 239.853 725.494 240.408 720.63 240.408ZM805.99 239V162.712H775.91V149.4H851.43V162.712H821.35V239H805.99ZM878.295 239V149.4H912.215C919.724 149.4 925.954 150.595 930.903 152.984C935.938 155.373 939.735 158.659 942.295 162.84C944.855 167.021 946.135 171.843 946.135 177.304C946.135 183.448 944.471 188.781 941.143 193.304C937.815 197.741 932.823 200.941 926.167 202.904L948.695 239H931.799L911.959 204.696H893.655V239H878.295ZM893.655 191.896H909.655C917.506 191.896 922.967 190.616 926.039 188.056C929.196 185.496 930.775 181.912 930.775 177.304C930.775 172.696 929.196 169.112 926.039 166.552C922.967 163.992 917.506 162.712 909.655 162.712H893.655V191.896ZM969.12 239L1003.04 149.4H1018.4L1052.32 239H1035.94L1028.38 218.776H992.032L984.48 239H969.12ZM997.024 205.464H1023.39L1010.34 168.6L997.024 205.464ZM1078.52 239V149.4H1093.88V225.688H1137.4V239H1078.52Z" fill="#DEFF23"/>
</svg>
