<svg width="814" height="455" viewBox="0 0 814 455" fill="none" xmlns="http://www.w3.org/2000/svg">
<g clip-path="url(#clip0_91_93)">
<path d="M562 365H708" stroke="#656AFF" stroke-width="2" stroke-linecap="round"/>
<path d="M715 365L722 365" stroke="#656AFF" stroke-width="2" stroke-linecap="round"/>
<path d="M730 365H729" stroke="#656AFF" stroke-width="2" stroke-linecap="round"/>
<path d="M653 365C653 347.89 648.176 331.127 639.082 316.634C629.988 302.14 616.993 290.505 601.587 283.062L562 365H653Z" stroke="#656AFF" stroke-width="2"/>
<path d="M512 345L688 5" stroke="#656AFF" stroke-width="2" stroke-linecap="round"/>
<path d="M700.4 10L677 -2" stroke="#656AFF" stroke-width="2" stroke-linecap="round"/>
<path d="M523.4 351L500 339" stroke="#656AFF" stroke-width="2" stroke-linecap="round"/>
<path d="M677.36 345.24C676.32 345.24 675.4 345 674.6 344.52C673.8 344.04 673.176 343.32 672.728 342.36C672.296 341.4 672.08 340.2 672.08 338.76V338.28C672.08 336.936 672.304 335.8 672.752 334.872C673.216 333.944 673.84 333.24 674.624 332.76C675.424 332.28 676.336 332.04 677.36 332.04C678.384 332.04 679.272 332.264 680.024 332.712C680.792 333.16 681.36 333.776 681.728 334.56V328.2H683.84V345H681.872V342.6C681.552 343.384 680.992 344.024 680.192 344.52C679.392 345 678.448 345.24 677.36 345.24ZM677.84 343.368C678.608 343.368 679.28 343.208 679.856 342.888C680.448 342.552 680.904 342.096 681.224 341.52C681.56 340.928 681.728 340.248 681.728 339.48V337.56C681.728 336.872 681.56 336.256 681.224 335.712C680.904 335.152 680.448 334.712 679.856 334.392C679.28 334.072 678.608 333.912 677.84 333.912C676.816 333.912 675.952 334.296 675.248 335.064C674.544 335.816 674.192 336.888 674.192 338.28V338.76C674.192 340.264 674.544 341.408 675.248 342.192C675.952 342.976 676.816 343.368 677.84 343.368ZM687.926 345V332.28H690.038V345H687.926ZM688.982 330.6C688.566 330.6 688.222 330.464 687.95 330.192C687.678 329.92 687.542 329.576 687.542 329.16C687.542 328.744 687.678 328.4 687.95 328.128C688.222 327.856 688.566 327.72 688.982 327.72C689.398 327.72 689.742 327.856 690.014 328.128C690.286 328.4 690.422 328.744 690.422 329.16C690.422 329.576 690.286 329.92 690.014 330.192C689.742 330.464 689.398 330.6 688.982 330.6ZM694.108 345V332.28H696.076V334.68C696.268 334.168 696.532 333.72 696.868 333.336C697.204 332.936 697.612 332.624 698.092 332.4C698.588 332.16 699.14 332.04 699.748 332.04C700.068 332.04 700.324 332.056 700.516 332.088C700.724 332.12 700.908 332.16 701.068 332.208V334.176C700.86 334.096 700.652 334.04 700.444 334.008C700.252 333.976 699.98 333.96 699.628 333.96C698.988 333.96 698.412 334.112 697.9 334.416C697.388 334.72 696.98 335.144 696.676 335.688C696.372 336.216 696.22 336.84 696.22 337.56V345H694.108ZM708.505 345.24C707.433 345.24 706.425 345.008 705.481 344.544C704.553 344.08 703.801 343.368 703.225 342.408C702.665 341.448 702.385 340.232 702.385 338.76V338.28C702.385 336.872 702.657 335.712 703.201 334.8C703.745 333.872 704.465 333.184 705.361 332.736C706.257 332.272 707.225 332.04 708.265 332.04C710.137 332.04 711.585 332.552 712.609 333.576C713.633 334.6 714.145 336.048 714.145 337.92V339.264H704.497C704.497 340.256 704.697 341.048 705.097 341.64C705.513 342.232 706.025 342.664 706.633 342.936C707.257 343.192 707.881 343.32 708.505 343.32C709.465 343.32 710.201 343.16 710.713 342.84C711.241 342.52 711.617 342.08 711.841 341.52H713.905C713.649 342.736 713.017 343.664 712.009 344.304C711.017 344.928 709.849 345.24 708.505 345.24ZM708.385 333.96C707.729 333.96 707.105 334.088 706.513 334.344C705.921 334.584 705.433 334.968 705.049 335.496C704.681 336.024 704.497 336.704 704.497 337.536H712.153C712.137 336.656 711.953 335.96 711.601 335.448C711.265 334.92 710.817 334.544 710.257 334.32C709.697 334.08 709.073 333.96 708.385 333.96ZM722.067 345.24C720.979 345.24 719.995 345.008 719.115 344.544C718.251 344.064 717.563 343.344 717.051 342.384C716.555 341.424 716.307 340.216 716.307 338.76V338.28C716.307 336.904 716.579 335.752 717.123 334.824C717.667 333.896 718.379 333.2 719.259 332.736C720.139 332.272 721.075 332.04 722.067 332.04C723.075 332.04 723.939 332.224 724.659 332.592C725.395 332.944 725.987 333.432 726.435 334.056C726.883 334.664 727.187 335.352 727.347 336.12H725.187C724.931 335.512 724.571 335 724.107 334.584C723.659 334.168 722.979 333.96 722.067 333.96C721.443 333.96 720.859 334.112 720.315 334.416C719.771 334.704 719.323 335.168 718.971 335.808C718.635 336.432 718.467 337.256 718.467 338.28V338.76C718.467 339.848 718.635 340.728 718.971 341.4C719.323 342.072 719.771 342.56 720.315 342.864C720.859 343.168 721.443 343.32 722.067 343.32C722.851 343.32 723.507 343.128 724.035 342.744C724.579 342.36 724.963 341.832 725.187 341.16H727.347C727.155 341.992 726.811 342.72 726.315 343.344C725.819 343.952 725.211 344.424 724.491 344.76C723.771 345.08 722.963 345.24 722.067 345.24ZM734.905 345.12C734.009 345.12 733.273 344.984 732.697 344.712C732.137 344.44 731.721 344.032 731.449 343.488C731.193 342.928 731.065 342.232 731.065 341.4V334.152H729.145V332.28H731.065V329.4H733.177V332.28H736.585V334.152H733.177V341.16C733.177 341.88 733.329 342.4 733.633 342.72C733.937 343.04 734.521 343.2 735.385 343.2C735.865 343.2 736.345 343.176 736.825 343.128V345C736.521 345.032 736.217 345.056 735.913 345.072C735.609 345.104 735.273 345.12 734.905 345.12ZM740.074 345V332.28H742.186V345H740.074ZM741.13 330.6C740.714 330.6 740.37 330.464 740.098 330.192C739.826 329.92 739.69 329.576 739.69 329.16C739.69 328.744 739.826 328.4 740.098 328.128C740.37 327.856 740.714 327.72 741.13 327.72C741.546 327.72 741.89 327.856 742.162 328.128C742.434 328.4 742.57 328.744 742.57 329.16C742.57 329.576 742.434 329.92 742.162 330.192C741.89 330.464 741.546 330.6 741.13 330.6ZM751.536 345.24C750.464 345.24 749.456 345.008 748.512 344.544C747.584 344.064 746.832 343.344 746.256 342.384C745.696 341.424 745.416 340.216 745.416 338.76V338.28C745.416 336.904 745.696 335.752 746.256 334.824C746.832 333.896 747.584 333.2 748.512 332.736C749.456 332.272 750.464 332.04 751.536 332.04C752.624 332.04 753.632 332.272 754.56 332.736C755.488 333.2 756.232 333.896 756.792 334.824C757.368 335.752 757.656 336.904 757.656 338.28V338.76C757.656 340.216 757.368 341.424 756.792 342.384C756.232 343.344 755.488 344.064 754.56 344.544C753.632 345.008 752.624 345.24 751.536 345.24ZM751.536 343.32C752.192 343.32 752.816 343.176 753.408 342.888C754.016 342.584 754.512 342.096 754.896 341.424C755.296 340.752 755.496 339.864 755.496 338.76V338.28C755.496 337.256 755.296 336.432 754.896 335.808C754.512 335.168 754.016 334.704 753.408 334.416C752.816 334.112 752.192 333.96 751.536 333.96C750.896 333.96 750.272 334.112 749.664 334.416C749.056 334.704 748.552 335.168 748.152 335.808C747.768 336.432 747.576 337.256 747.576 338.28V338.76C747.576 339.864 747.768 340.752 748.152 341.424C748.552 342.096 749.056 342.584 749.664 342.888C750.272 343.176 750.896 343.32 751.536 343.32ZM760.647 345V332.28H762.615V334.68C762.903 333.976 763.407 333.36 764.127 332.832C764.863 332.304 765.807 332.04 766.959 332.04C768.559 332.04 769.743 332.472 770.511 333.336C771.295 334.184 771.687 335.432 771.687 337.08V345H769.575V337.56C769.575 336.376 769.327 335.48 768.831 334.872C768.335 334.264 767.503 333.96 766.335 333.96C765.503 333.96 764.823 334.136 764.295 334.488C763.767 334.84 763.375 335.288 763.119 335.832C762.879 336.376 762.759 336.952 762.759 337.56V345H760.647Z" fill="#656AFF"/>
<path d="M551.754 216.765L540.455 210.923L541.359 209.175L543.491 210.278C542.919 209.676 542.571 208.973 542.446 208.17C542.314 207.346 542.443 206.556 542.832 205.803C543.339 204.823 543.942 204.179 544.64 203.874C545.324 203.561 546.044 203.474 546.801 203.613C546.296 202.884 545.991 202.132 545.887 201.358C545.79 200.569 545.951 199.77 546.37 198.96C546.973 197.794 547.798 197.068 548.847 196.782C549.882 196.488 551.152 196.731 552.659 197.51L559.801 201.202L558.831 203.078L552.115 199.606C550.992 199.026 550.093 198.813 549.419 198.969C548.751 199.11 548.212 199.579 547.8 200.375C547.565 200.829 547.473 201.322 547.523 201.852C547.559 202.375 547.748 202.878 548.093 203.363C548.422 203.839 548.907 204.243 549.547 204.574L556.262 208.046L555.292 209.922L548.577 206.45C547.454 205.869 546.555 205.657 545.88 205.812C545.206 205.968 544.666 206.436 544.262 207.218C544.027 207.673 543.934 208.165 543.984 208.696C544.02 209.218 544.21 209.722 544.554 210.206C544.884 210.683 545.369 211.087 546.009 211.417L552.724 214.889L551.754 216.765ZM563.384 194.794C562.958 195.618 562.445 196.245 561.845 196.673C561.238 197.08 560.595 197.297 559.915 197.323C559.22 197.342 558.539 197.179 557.871 196.834C556.748 196.253 556.107 195.508 555.948 194.597C555.796 193.672 556.039 192.591 556.679 191.354L558.575 187.687L557.807 187.291C556.841 186.791 556.059 186.666 555.461 186.915C554.871 187.151 554.352 187.702 553.904 188.569C553.485 189.379 553.337 190.05 553.458 190.581C553.566 191.105 553.8 191.487 554.162 191.728L553.192 193.604C552.603 193.246 552.169 192.76 551.891 192.148C551.599 191.529 551.476 190.826 551.523 190.039C551.569 189.253 551.813 188.433 552.254 187.58C552.717 186.685 553.259 185.984 553.882 185.477C554.49 184.963 555.184 184.682 555.965 184.636C556.731 184.582 557.597 184.805 558.564 185.304L563.148 187.674C563.744 187.983 564.27 188.255 564.725 188.49C565.173 188.703 565.625 188.892 566.081 189.055L565.232 190.697C564.883 190.571 564.563 190.441 564.271 190.308C563.965 190.168 563.628 190.003 563.258 189.812C563.701 190.419 563.956 191.163 564.022 192.044C564.089 192.925 563.876 193.842 563.384 194.794ZM561.888 193.507C562.197 192.91 562.369 192.315 562.406 191.722C562.45 191.114 562.339 190.561 562.074 190.064C561.816 189.552 561.389 189.142 560.792 188.834L560.024 188.437L558.294 191.784C557.934 192.48 557.793 193.101 557.871 193.646C557.936 194.184 558.266 194.607 558.863 194.915C559.389 195.187 559.918 195.227 560.45 195.033C560.99 194.826 561.469 194.317 561.888 193.507ZM574.531 183.686C573.965 184.781 573.363 185.595 572.726 186.131C572.089 186.666 571.445 186.972 570.793 187.049C570.14 187.126 569.494 187.053 568.853 186.83L569.867 184.868C570.395 184.961 570.897 184.879 571.373 184.62C571.849 184.362 572.333 183.757 572.825 182.804C573.42 181.653 573.58 180.664 573.305 179.838C573.03 179.011 572.381 178.333 571.358 177.804L569.546 176.867C570.13 177.583 570.43 178.378 570.447 179.251C570.471 180.11 570.248 180.995 569.778 181.904C569.3 182.828 568.665 183.535 567.871 184.025C567.077 184.516 566.158 184.743 565.114 184.707C564.077 184.658 562.94 184.313 561.703 183.674L561.277 183.453C560.112 182.851 559.234 182.145 558.644 181.335C558.047 180.504 557.715 179.63 557.649 178.713C557.59 177.782 557.795 176.862 558.266 175.952C558.765 174.986 559.419 174.261 560.227 173.778C561.021 173.288 561.84 173.081 562.683 173.157L560.551 172.055L561.455 170.306L572.328 175.928C573.863 176.721 574.832 177.79 575.236 179.134C575.64 180.477 575.405 181.995 574.531 183.686ZM568.336 180.618C568.688 179.936 568.855 179.266 568.835 178.607C568.823 177.934 568.641 177.327 568.291 176.786C567.933 176.223 567.428 175.772 566.774 175.434L565.069 174.552C564.486 174.251 563.883 174.128 563.259 174.184C562.643 174.226 562.057 174.436 561.501 174.815C560.952 175.18 560.502 175.703 560.149 176.386C559.679 177.295 559.616 178.235 559.961 179.206C560.305 180.177 561.067 180.967 562.247 181.577L562.673 181.798C563.967 182.466 565.116 182.664 566.122 182.392C567.127 182.119 567.865 181.528 568.336 180.618ZM574.52 172.732L563.221 166.89L564.125 165.142L566.257 166.244C565.764 165.665 565.448 164.935 565.31 164.053C565.179 163.156 565.378 162.196 565.907 161.173C566.642 159.752 567.569 158.899 568.689 158.613C569.803 158.306 571.091 158.531 572.555 159.288L579.591 162.925L578.621 164.801L572.012 161.385C570.96 160.841 570.05 160.65 569.282 160.811C568.514 160.972 567.862 161.572 567.326 162.609C566.944 163.348 566.788 164.033 566.858 164.664C566.928 165.295 567.146 165.849 567.512 166.326C567.885 166.789 568.341 167.16 568.881 167.439L575.49 170.856L574.52 172.732ZM581.412 159.403L570.113 153.561L571.083 151.685L582.382 157.527L581.412 159.403ZM569.105 151.851C568.914 152.221 568.636 152.464 568.269 152.581C567.902 152.697 567.534 152.66 567.165 152.469C566.795 152.278 566.552 151.999 566.436 151.633C566.319 151.266 566.356 150.898 566.547 150.529C566.738 150.159 567.017 149.916 567.383 149.799C567.75 149.682 568.118 149.72 568.488 149.911C568.857 150.102 569.1 150.381 569.217 150.747C569.334 151.114 569.296 151.482 569.105 151.851ZM586.507 149.809C586.096 150.605 585.637 151.197 585.131 151.583C584.632 151.956 584.078 152.138 583.47 152.13C582.855 152.1 582.178 151.894 581.439 151.512L575.001 148.183L574.119 149.889L572.456 149.029L573.338 147.323L570.779 146.001L571.749 144.125L574.308 145.447L575.873 142.42L577.536 143.28L575.971 146.307L582.196 149.526C582.835 149.856 583.367 149.96 583.791 149.837C584.215 149.714 584.625 149.269 585.022 148.501C585.242 148.075 585.442 147.637 585.619 147.189L587.282 148.049C587.171 148.333 587.053 148.614 586.927 148.892C586.816 149.177 586.676 149.482 586.507 149.809ZM590.939 141.499C590.233 142.863 589.313 143.685 588.179 143.963C587.045 144.241 585.66 143.957 584.026 143.112L577.31 139.64L578.28 137.764L584.889 141.181C585.941 141.725 586.847 141.923 587.607 141.776C588.375 141.615 589.013 141.044 589.52 140.063C589.887 139.352 590.032 138.689 589.955 138.072C589.877 137.456 589.652 136.916 589.279 136.453C588.892 135.983 588.435 135.611 587.909 135.34L581.3 131.923L582.27 130.047L593.569 135.888L592.665 137.637L590.534 136.534C591.027 137.114 591.342 137.844 591.481 138.726C591.619 139.608 591.438 140.533 590.939 141.499ZM597.59 128.634C597.113 129.557 596.477 130.264 595.683 130.755C594.889 131.245 593.963 131.468 592.905 131.425C591.854 131.368 590.688 131.009 589.409 130.348L588.983 130.127C587.789 129.51 586.883 128.789 586.264 127.965C585.653 127.127 585.314 126.249 585.248 125.332C585.189 124.401 585.395 123.481 585.865 122.571C586.335 121.662 586.942 120.976 587.685 120.513C588.436 120.037 589.244 119.815 590.11 119.848L584.46 116.928L585.43 115.051L600.353 122.767L599.449 124.515L597.318 123.413C597.867 124.057 598.178 124.849 598.252 125.787C598.31 126.718 598.09 127.667 597.59 128.634ZM596.148 127.347C596.501 126.665 596.667 125.995 596.648 125.336C596.621 124.656 596.425 124.041 596.061 123.493C595.689 122.922 595.162 122.461 594.48 122.108L592.774 121.226C592.163 120.91 591.539 120.777 590.901 120.825C590.257 120.852 589.657 121.055 589.101 121.434C588.552 121.799 588.101 122.322 587.748 123.005C587.278 123.914 587.222 124.858 587.581 125.836C587.926 126.807 588.716 127.612 589.953 128.251L590.379 128.472C591.715 129.162 592.893 129.375 593.913 129.11C594.933 128.845 595.678 128.257 596.148 127.347ZM604.758 114.771C604.265 115.723 603.596 116.512 602.751 117.138C601.912 117.749 600.934 118.09 599.817 118.161C598.707 118.217 597.498 117.907 596.191 117.231L595.764 117.011C594.514 116.364 593.608 115.59 593.048 114.688C592.473 113.778 592.193 112.823 592.206 111.821C592.206 110.812 592.444 109.846 592.922 108.922C593.782 107.259 594.901 106.208 596.281 105.769C597.661 105.329 599.183 105.54 600.846 106.399L602.039 107.017L597.608 115.587C598.49 116.042 599.285 116.229 599.995 116.145C600.711 116.047 601.33 115.791 601.851 115.376C602.365 114.939 602.766 114.444 603.052 113.889C603.493 113.037 603.689 112.309 603.64 111.708C603.598 111.092 603.38 110.555 602.985 110.099L603.933 108.266C604.896 109.052 605.43 110.039 605.535 111.229C605.634 112.396 605.375 113.577 604.758 114.771ZM594.683 109.697C594.381 110.28 594.208 110.893 594.164 111.536C594.105 112.173 594.222 112.782 594.515 113.366C594.815 113.935 595.334 114.411 596.073 114.793L599.59 107.992C598.801 107.602 598.098 107.446 597.481 107.524C596.858 107.58 596.318 107.805 595.862 108.2C595.392 108.587 594.999 109.086 594.683 109.697Z" fill="#656AFF"/>
<path d="M44.5959 38L39.2439 25.28H43.3239L46.5399 33.752L49.4679 25.28H53.1639L48.3159 38H44.5959ZM60.2458 38.312C58.9978 38.312 57.8778 38.08 56.8858 37.616C55.8938 37.136 55.1018 36.408 54.5098 35.432C53.9338 34.456 53.6458 33.232 53.6458 31.76V31.28C53.6458 29.872 53.9258 28.704 54.4858 27.776C55.0458 26.848 55.8058 26.152 56.7658 25.688C57.7418 25.208 58.8218 24.968 60.0058 24.968C62.1018 24.968 63.6858 25.512 64.7578 26.6C65.8298 27.672 66.3658 29.232 66.3658 31.28V32.624H57.4378C57.4698 33.248 57.6138 33.768 57.8698 34.184C58.1418 34.6 58.4858 34.904 58.9018 35.096C59.3178 35.272 59.7658 35.36 60.2458 35.36C60.9498 35.36 61.5018 35.256 61.9018 35.048C62.3178 34.824 62.5898 34.528 62.7178 34.16H66.1258C65.8698 35.552 65.2378 36.592 64.2298 37.28C63.2218 37.968 61.8938 38.312 60.2458 38.312ZM60.1258 27.92C59.6778 27.92 59.2538 27.992 58.8538 28.136C58.4538 28.28 58.1258 28.52 57.8698 28.856C57.6298 29.176 57.4938 29.616 57.4618 30.176H62.7418C62.7418 29.584 62.6218 29.128 62.3818 28.808C62.1418 28.472 61.8218 28.24 61.4218 28.112C61.0378 27.984 60.6058 27.92 60.1258 27.92ZM74.282 38.312C73.034 38.312 71.922 38.072 70.946 37.592C69.97 37.112 69.202 36.384 68.642 35.408C68.082 34.432 67.802 33.216 67.802 31.76V31.28C67.802 29.936 68.09 28.792 68.666 27.848C69.258 26.904 70.042 26.192 71.018 25.712C72.01 25.216 73.098 24.968 74.282 24.968C75.562 24.968 76.634 25.192 77.498 25.64C78.362 26.072 79.026 26.656 79.49 27.392C79.954 28.128 80.218 28.944 80.282 29.84H76.466C76.354 29.264 76.122 28.824 75.77 28.52C75.434 28.2 74.938 28.04 74.282 28.04C73.77 28.04 73.306 28.16 72.89 28.4C72.49 28.64 72.17 29 71.93 29.48C71.706 29.944 71.594 30.544 71.594 31.28V31.76C71.594 32.544 71.706 33.192 71.93 33.704C72.154 34.216 72.466 34.6 72.866 34.856C73.266 35.096 73.738 35.216 74.282 35.216C74.842 35.216 75.314 35.072 75.698 34.784C76.098 34.48 76.354 34.032 76.466 33.44H80.282C80.218 34.432 79.93 35.296 79.418 36.032C78.906 36.768 78.21 37.336 77.33 37.736C76.466 38.12 75.45 38.312 74.282 38.312ZM87.4867 38.144C86.4307 38.144 85.5667 38.008 84.8947 37.736C84.2227 37.448 83.7267 36.984 83.4067 36.344C83.0867 35.688 82.9267 34.8 82.9267 33.68V28.304H81.3667V25.28H82.9267V22.4H86.6227V25.28H89.5267V28.304H86.6227V33.08C86.6227 33.8 86.7347 34.312 86.9587 34.616C87.1987 34.92 87.6547 35.072 88.3267 35.072C88.8067 35.072 89.2867 35.048 89.7667 35V38C89.4627 38.048 89.1427 38.08 88.8067 38.096C88.4707 38.128 88.0307 38.144 87.4867 38.144ZM97.6961 38.312C96.5121 38.312 95.4241 38.08 94.4321 37.616C93.4561 37.152 92.6721 36.432 92.0801 35.456C91.5041 34.464 91.2161 33.232 91.2161 31.76V31.28C91.2161 29.904 91.5041 28.752 92.0801 27.824C92.6721 26.88 93.4561 26.168 94.4321 25.688C95.4241 25.208 96.5121 24.968 97.6961 24.968C98.8961 24.968 99.9841 25.208 100.96 25.688C101.936 26.168 102.712 26.88 103.288 27.824C103.88 28.752 104.176 29.904 104.176 31.28V31.76C104.176 33.216 103.88 34.432 103.288 35.408C102.712 36.368 101.936 37.096 100.96 37.592C99.9841 38.072 98.8961 38.312 97.6961 38.312ZM97.6961 35.24C98.2721 35.24 98.7601 35.104 99.1601 34.832C99.5601 34.544 99.8641 34.136 100.072 33.608C100.28 33.08 100.384 32.464 100.384 31.76V31.28C100.384 30.64 100.28 30.08 100.072 29.6C99.8641 29.12 99.5601 28.744 99.1601 28.472C98.7601 28.184 98.2721 28.04 97.6961 28.04C97.1201 28.04 96.6321 28.184 96.2321 28.472C95.8321 28.744 95.5281 29.12 95.3201 29.6C95.1121 30.08 95.0081 30.64 95.0081 31.28V31.76C95.0081 32.496 95.1121 33.128 95.3201 33.656C95.5281 34.168 95.8321 34.56 96.2321 34.832C96.6321 35.104 97.1201 35.24 97.6961 35.24ZM106.087 38V25.28H109.495V27.008C109.623 26.72 109.839 26.416 110.143 26.096C110.447 25.776 110.815 25.512 111.247 25.304C111.679 25.08 112.159 24.968 112.687 24.968C112.959 24.968 113.175 24.984 113.335 25.016C113.495 25.048 113.639 25.08 113.767 25.112V28.304C113.687 28.256 113.503 28.2 113.215 28.136C112.927 28.072 112.599 28.04 112.231 28.04C111.655 28.04 111.183 28.152 110.815 28.376C110.463 28.6 110.199 28.904 110.023 29.288C109.863 29.672 109.783 30.104 109.783 30.584V38H106.087ZM121.198 32.264V30.296H136.798V32.264H121.198ZM149.314 38.24C148.386 38.24 147.594 38.072 146.938 37.736C146.298 37.384 145.81 36.912 145.474 36.32C145.138 35.712 144.97 35.032 144.97 34.28C144.97 33.016 145.338 32.104 146.074 31.544C146.826 30.984 147.898 30.704 149.29 30.704H153.418V29.84C153.418 28.752 153.17 28 152.674 27.584C152.194 27.168 151.466 26.96 150.49 26.96C149.578 26.96 148.914 27.136 148.498 27.488C148.082 27.824 147.85 28.208 147.802 28.64H145.69C145.738 27.952 145.97 27.344 146.386 26.816C146.802 26.272 147.37 25.84 148.09 25.52C148.81 25.2 149.65 25.04 150.61 25.04C151.618 25.04 152.49 25.2 153.226 25.52C153.962 25.824 154.53 26.312 154.93 26.984C155.33 27.64 155.53 28.512 155.53 29.6V34.76C155.53 35.432 155.53 36.024 155.53 36.536C155.546 37.032 155.586 37.52 155.65 38H153.802C153.754 37.632 153.722 37.288 153.706 36.968C153.69 36.632 153.682 36.256 153.682 35.84C153.346 36.512 152.802 37.08 152.05 37.544C151.298 38.008 150.386 38.24 149.314 38.24ZM149.77 36.32C150.442 36.32 151.05 36.2 151.594 35.96C152.154 35.72 152.594 35.368 152.914 34.904C153.25 34.44 153.418 33.872 153.418 33.2V32.336H149.65C148.866 32.336 148.25 32.496 147.802 32.816C147.354 33.12 147.13 33.608 147.13 34.28C147.13 34.872 147.338 35.36 147.754 35.744C148.186 36.128 148.858 36.32 149.77 36.32ZM169.94 38.12C169.044 38.12 168.308 37.984 167.732 37.712C167.172 37.44 166.756 37.032 166.484 36.488C166.228 35.928 166.1 35.232 166.1 34.4V27.152H164.18V25.28H166.1V22.4H168.212V25.28H171.62V27.152H168.212V34.16C168.212 34.88 168.364 35.4 168.668 35.72C168.972 36.04 169.556 36.2 170.42 36.2C170.9 36.2 171.38 36.176 171.86 36.128V38C171.556 38.032 171.252 38.056 170.948 38.072C170.644 38.104 170.308 38.12 169.94 38.12ZM174.869 38V21.2H176.981V27.56C177.205 27.112 177.509 26.696 177.893 26.312C178.277 25.928 178.741 25.624 179.285 25.4C179.845 25.16 180.477 25.04 181.181 25.04C182.781 25.04 183.965 25.472 184.733 26.336C185.517 27.184 185.909 28.432 185.909 30.08V38H183.797V30.56C183.797 29.376 183.549 28.48 183.053 27.872C182.557 27.264 181.725 26.96 180.557 26.96C179.725 26.96 179.045 27.136 178.517 27.488C177.989 27.84 177.597 28.288 177.341 28.832C177.101 29.376 176.981 29.952 176.981 30.56V38H174.869ZM189.875 38V25.28H191.987V38H189.875ZM190.931 23.6C190.515 23.6 190.171 23.464 189.899 23.192C189.627 22.92 189.491 22.576 189.491 22.16C189.491 21.744 189.627 21.4 189.899 21.128C190.171 20.856 190.515 20.72 190.931 20.72C191.347 20.72 191.691 20.856 191.963 21.128C192.235 21.4 192.371 21.744 192.371 22.16C192.371 22.576 192.235 22.92 191.963 23.192C191.691 23.464 191.347 23.6 190.931 23.6ZM196.057 38V25.28H198.025V27.68C198.313 26.976 198.817 26.36 199.537 25.832C200.273 25.304 201.217 25.04 202.369 25.04C203.969 25.04 205.153 25.472 205.921 26.336C206.705 27.184 207.097 28.432 207.097 30.08V38H204.985V30.56C204.985 29.376 204.737 28.48 204.241 27.872C203.745 27.264 202.913 26.96 201.745 26.96C200.913 26.96 200.233 27.136 199.705 27.488C199.177 27.84 198.785 28.288 198.529 28.832C198.289 29.376 198.169 29.952 198.169 30.56V38H196.057ZM215.862 43.04C214.63 43.04 213.63 42.88 212.862 42.56C212.094 42.24 211.526 41.808 211.158 41.264C210.79 40.72 210.558 40.112 210.462 39.44H212.67C212.83 39.952 213.134 40.36 213.582 40.664C214.03 40.968 214.79 41.12 215.862 41.12C217.158 41.12 218.11 40.808 218.718 40.184C219.326 39.56 219.63 38.672 219.63 37.52V35.48C219.262 36.328 218.694 36.96 217.926 37.376C217.174 37.792 216.286 38 215.262 38C214.222 38 213.302 37.76 212.502 37.28C211.702 36.8 211.078 36.088 210.63 35.144C210.198 34.2 209.982 33.032 209.982 31.64V31.16C209.982 29.848 210.206 28.744 210.654 27.848C211.118 26.936 211.742 26.24 212.526 25.76C213.326 25.28 214.238 25.04 215.262 25.04C216.35 25.04 217.294 25.288 218.094 25.784C218.894 26.264 219.454 26.896 219.774 27.68V25.28H221.742V37.52C221.742 39.248 221.238 40.6 220.23 41.576C219.222 42.552 217.766 43.04 215.862 43.04ZM215.742 36.128C216.51 36.128 217.182 35.968 217.758 35.648C218.35 35.328 218.806 34.888 219.126 34.328C219.462 33.752 219.63 33.096 219.63 32.36V30.44C219.63 29.784 219.462 29.192 219.126 28.664C218.806 28.136 218.35 27.712 217.758 27.392C217.182 27.072 216.51 26.912 215.742 26.912C214.718 26.912 213.854 27.288 213.15 28.04C212.446 28.792 212.094 29.832 212.094 31.16V31.64C212.094 33.096 212.446 34.208 213.15 34.976C213.854 35.744 214.718 36.128 215.742 36.128ZM233.868 38L230.388 25.28H232.692L235.14 35.12L238.452 25.28H240.324L243.756 35.12L246.18 25.28H248.388L244.908 38H242.796L239.34 28.16L235.98 38H233.868ZM251.258 38V25.28H253.37V38H251.258ZM252.314 23.6C251.898 23.6 251.554 23.464 251.282 23.192C251.01 22.92 250.874 22.576 250.874 22.16C250.874 21.744 251.01 21.4 251.282 21.128C251.554 20.856 251.898 20.72 252.314 20.72C252.73 20.72 253.074 20.856 253.346 21.128C253.618 21.4 253.754 21.744 253.754 22.16C253.754 22.576 253.618 22.92 253.346 23.192C253.074 23.464 252.73 23.6 252.314 23.6ZM262.12 38.12C261.224 38.12 260.488 37.984 259.912 37.712C259.352 37.44 258.936 37.032 258.664 36.488C258.408 35.928 258.28 35.232 258.28 34.4V27.152H256.36V25.28H258.28V22.4H260.392V25.28H263.8V27.152H260.392V34.16C260.392 34.88 260.544 35.4 260.848 35.72C261.152 36.04 261.736 36.2 262.6 36.2C263.08 36.2 263.56 36.176 264.04 36.128V38C263.736 38.032 263.432 38.056 263.128 38.072C262.824 38.104 262.488 38.12 262.12 38.12ZM267.049 38V21.2H269.161V27.56C269.385 27.112 269.689 26.696 270.073 26.312C270.457 25.928 270.921 25.624 271.465 25.4C272.025 25.16 272.657 25.04 273.361 25.04C274.961 25.04 276.145 25.472 276.913 26.336C277.697 27.184 278.089 28.432 278.089 30.08V38H275.977V30.56C275.977 29.376 275.729 28.48 275.233 27.872C274.737 27.264 273.905 26.96 272.737 26.96C271.905 26.96 271.225 27.136 270.697 27.488C270.169 27.84 269.777 28.288 269.521 28.832C269.281 29.376 269.161 29.952 269.161 30.56V38H267.049ZM287.815 38V25.28H289.783V27.68C290.055 26.896 290.519 26.264 291.175 25.784C291.847 25.288 292.607 25.04 293.455 25.04C294.559 25.04 295.407 25.28 295.999 25.76C296.591 26.224 296.999 26.824 297.223 27.56C297.639 26.776 298.167 26.16 298.807 25.712C299.463 25.264 300.247 25.04 301.159 25.04C302.471 25.04 303.495 25.44 304.231 26.24C304.967 27.024 305.335 28.264 305.335 29.96V38H303.223V30.44C303.223 29.176 302.999 28.28 302.551 27.752C302.119 27.224 301.455 26.96 300.559 26.96C300.047 26.96 299.567 27.104 299.119 27.392C298.671 27.664 298.311 28.064 298.039 28.592C297.767 29.104 297.631 29.72 297.631 30.44V38H295.519V30.44C295.519 29.176 295.295 28.28 294.847 27.752C294.399 27.224 293.735 26.96 292.855 26.96C292.343 26.96 291.863 27.104 291.415 27.392C290.967 27.664 290.607 28.064 290.335 28.592C290.063 29.104 289.927 29.72 289.927 30.44V38H287.815ZM312.673 38.24C311.745 38.24 310.953 38.072 310.297 37.736C309.657 37.384 309.169 36.912 308.833 36.32C308.497 35.712 308.329 35.032 308.329 34.28C308.329 33.016 308.697 32.104 309.433 31.544C310.185 30.984 311.257 30.704 312.649 30.704H316.777V29.84C316.777 28.752 316.529 28 316.033 27.584C315.553 27.168 314.825 26.96 313.849 26.96C312.937 26.96 312.273 27.136 311.857 27.488C311.441 27.824 311.209 28.208 311.161 28.64H309.049C309.097 27.952 309.329 27.344 309.745 26.816C310.161 26.272 310.729 25.84 311.449 25.52C312.169 25.2 313.009 25.04 313.969 25.04C314.977 25.04 315.849 25.2 316.585 25.52C317.321 25.824 317.889 26.312 318.289 26.984C318.689 27.64 318.889 28.512 318.889 29.6V34.76C318.889 35.432 318.889 36.024 318.889 36.536C318.905 37.032 318.945 37.52 319.009 38H317.161C317.113 37.632 317.081 37.288 317.065 36.968C317.049 36.632 317.041 36.256 317.041 35.84C316.705 36.512 316.161 37.08 315.409 37.544C314.657 38.008 313.745 38.24 312.673 38.24ZM313.129 36.32C313.801 36.32 314.409 36.2 314.953 35.96C315.513 35.72 315.953 35.368 316.273 34.904C316.609 34.44 316.777 33.872 316.777 33.2V32.336H313.009C312.225 32.336 311.609 32.496 311.161 32.816C310.713 33.12 310.489 33.608 310.489 34.28C310.489 34.872 310.697 35.36 311.113 35.744C311.545 36.128 312.217 36.32 313.129 36.32ZM327.659 43.04C326.427 43.04 325.427 42.88 324.659 42.56C323.891 42.24 323.323 41.808 322.955 41.264C322.587 40.72 322.355 40.112 322.259 39.44H324.467C324.627 39.952 324.931 40.36 325.379 40.664C325.827 40.968 326.587 41.12 327.659 41.12C328.955 41.12 329.907 40.808 330.515 40.184C331.123 39.56 331.427 38.672 331.427 37.52V35.48C331.059 36.328 330.491 36.96 329.723 37.376C328.971 37.792 328.083 38 327.059 38C326.019 38 325.099 37.76 324.299 37.28C323.499 36.8 322.875 36.088 322.427 35.144C321.995 34.2 321.779 33.032 321.779 31.64V31.16C321.779 29.848 322.003 28.744 322.451 27.848C322.915 26.936 323.539 26.24 324.323 25.76C325.123 25.28 326.035 25.04 327.059 25.04C328.147 25.04 329.091 25.288 329.891 25.784C330.691 26.264 331.251 26.896 331.571 27.68V25.28H333.539V37.52C333.539 39.248 333.035 40.6 332.027 41.576C331.019 42.552 329.563 43.04 327.659 43.04ZM327.539 36.128C328.307 36.128 328.979 35.968 329.555 35.648C330.147 35.328 330.603 34.888 330.923 34.328C331.259 33.752 331.427 33.096 331.427 32.36V30.44C331.427 29.784 331.259 29.192 330.923 28.664C330.603 28.136 330.147 27.712 329.555 27.392C328.979 27.072 328.307 26.912 327.539 26.912C326.515 26.912 325.651 27.288 324.947 28.04C324.243 28.792 323.891 29.832 323.891 31.16V31.64C323.891 33.096 324.243 34.208 324.947 34.976C325.651 35.744 326.515 36.128 327.539 36.128ZM337.385 38V25.28H339.353V27.68C339.641 26.976 340.145 26.36 340.865 25.832C341.601 25.304 342.545 25.04 343.697 25.04C345.297 25.04 346.481 25.472 347.249 26.336C348.033 27.184 348.425 28.432 348.425 30.08V38H346.313V30.56C346.313 29.376 346.065 28.48 345.569 27.872C345.073 27.264 344.241 26.96 343.073 26.96C342.241 26.96 341.561 27.136 341.033 27.488C340.505 27.84 340.113 28.288 339.857 28.832C339.617 29.376 339.497 29.952 339.497 30.56V38H337.385ZM352.39 38V25.28H354.502V38H352.39ZM353.446 23.6C353.03 23.6 352.686 23.464 352.414 23.192C352.142 22.92 352.006 22.576 352.006 22.16C352.006 21.744 352.142 21.4 352.414 21.128C352.686 20.856 353.03 20.72 353.446 20.72C353.862 20.72 354.206 20.856 354.478 21.128C354.75 21.4 354.886 21.744 354.886 22.16C354.886 22.576 354.75 22.92 354.478 23.192C354.206 23.464 353.862 23.6 353.446 23.6ZM363.252 38.12C362.356 38.12 361.62 37.984 361.044 37.712C360.484 37.44 360.068 37.032 359.796 36.488C359.54 35.928 359.412 35.232 359.412 34.4V27.152H357.492V25.28H359.412V22.4H361.524V25.28H364.932V27.152H361.524V34.16C361.524 34.88 361.676 35.4 361.98 35.72C362.284 36.04 362.868 36.2 363.732 36.2C364.212 36.2 364.692 36.176 365.172 36.128V38C364.868 38.032 364.564 38.056 364.26 38.072C363.956 38.104 363.62 38.12 363.252 38.12ZM372.67 38.24C371.134 38.24 369.982 37.8 369.214 36.92C368.446 36.04 368.062 34.68 368.062 32.84V25.28H370.174V32.72C370.174 33.904 370.414 34.8 370.894 35.408C371.39 36.016 372.19 36.32 373.294 36.32C374.094 36.32 374.75 36.144 375.262 35.792C375.774 35.44 376.15 34.992 376.39 34.448C376.63 33.888 376.75 33.312 376.75 32.72V25.28H378.862V38H376.894V35.6C376.606 36.304 376.102 36.92 375.382 37.448C374.662 37.976 373.758 38.24 372.67 38.24ZM387.153 38.24C386.113 38.24 385.193 38 384.393 37.52C383.593 37.04 382.969 36.32 382.521 35.36C382.089 34.4 381.873 33.2 381.873 31.76V31.28C381.873 29.936 382.097 28.8 382.545 27.872C383.009 26.944 383.633 26.24 384.417 25.76C385.217 25.28 386.129 25.04 387.153 25.04C388.177 25.04 389.065 25.264 389.817 25.712C390.585 26.16 391.153 26.776 391.521 27.56V21.2H393.633V38H391.665V35.6C391.345 36.384 390.785 37.024 389.985 37.52C389.185 38 388.241 38.24 387.153 38.24ZM387.633 36.368C388.401 36.368 389.073 36.208 389.649 35.888C390.241 35.552 390.697 35.096 391.017 34.52C391.353 33.928 391.521 33.248 391.521 32.48V30.56C391.521 29.872 391.353 29.256 391.017 28.712C390.697 28.152 390.241 27.712 389.649 27.392C389.073 27.072 388.401 26.912 387.633 26.912C386.609 26.912 385.745 27.296 385.041 28.064C384.337 28.816 383.985 29.888 383.985 31.28V31.76C383.985 33.264 384.337 34.408 385.041 35.192C385.745 35.976 386.609 36.368 387.633 36.368ZM402.759 38.24C401.687 38.24 400.679 38.008 399.735 37.544C398.807 37.08 398.055 36.368 397.479 35.408C396.919 34.448 396.639 33.232 396.639 31.76V31.28C396.639 29.872 396.911 28.712 397.455 27.8C397.999 26.872 398.719 26.184 399.615 25.736C400.511 25.272 401.479 25.04 402.519 25.04C404.391 25.04 405.839 25.552 406.863 26.576C407.887 27.6 408.399 29.048 408.399 30.92V32.264H398.751C398.751 33.256 398.951 34.048 399.351 34.64C399.767 35.232 400.279 35.664 400.887 35.936C401.511 36.192 402.135 36.32 402.759 36.32C403.719 36.32 404.455 36.16 404.967 35.84C405.495 35.52 405.871 35.08 406.095 34.52H408.159C407.903 35.736 407.271 36.664 406.263 37.304C405.271 37.928 404.103 38.24 402.759 38.24ZM402.639 26.96C401.983 26.96 401.359 27.088 400.767 27.344C400.175 27.584 399.687 27.968 399.303 28.496C398.935 29.024 398.751 29.704 398.751 30.536H406.407C406.391 29.656 406.207 28.96 405.855 28.448C405.519 27.92 405.071 27.544 404.511 27.32C403.951 27.08 403.327 26.96 402.639 26.96ZM417.64 32.24V31.76C417.64 30.192 417.856 28.768 418.288 27.488C418.736 26.208 419.232 25.096 419.776 24.152C420.096 23.608 420.432 23.096 420.784 22.616C421.136 22.12 421.512 21.648 421.912 21.2H424.36C423.928 21.648 423.52 22.12 423.136 22.616C422.752 23.096 422.4 23.608 422.08 24.152C421.504 25.08 420.976 26.192 420.496 27.488C420.032 28.768 419.8 30.192 419.8 31.76V32.24C419.8 33.808 420.032 35.24 420.496 36.536C420.976 37.832 421.504 38.944 422.08 39.872C422.4 40.416 422.752 40.936 423.136 41.432C423.52 41.928 423.928 42.384 424.36 42.8H421.816C421.416 42.384 421.04 41.928 420.688 41.432C420.352 40.936 420.032 40.416 419.728 39.872C419.2 38.944 418.72 37.832 418.288 36.536C417.856 35.24 417.64 33.808 417.64 32.24ZM430.358 38.12C429.478 38.12 428.758 37.984 428.198 37.712C427.654 37.424 427.254 36.984 426.998 36.392C426.758 35.784 426.638 35 426.638 34.04V21.2H428.75V34.04C428.75 34.872 428.886 35.44 429.158 35.744C429.43 36.048 429.91 36.2 430.598 36.2C430.774 36.2 430.926 36.2 431.054 36.2C431.182 36.184 431.31 36.168 431.438 36.152V38.024C431.358 38.04 431.246 38.056 431.102 38.072C430.974 38.088 430.838 38.096 430.694 38.096C430.566 38.112 430.454 38.12 430.358 38.12ZM439.251 38.24C438.179 38.24 437.171 38.008 436.227 37.544C435.299 37.08 434.547 36.368 433.971 35.408C433.411 34.448 433.131 33.232 433.131 31.76V31.28C433.131 29.872 433.403 28.712 433.947 27.8C434.491 26.872 435.211 26.184 436.107 25.736C437.003 25.272 437.971 25.04 439.011 25.04C440.883 25.04 442.331 25.552 443.355 26.576C444.379 27.6 444.891 29.048 444.891 30.92V32.264H435.243C435.243 33.256 435.443 34.048 435.843 34.64C436.259 35.232 436.771 35.664 437.379 35.936C438.003 36.192 438.627 36.32 439.251 36.32C440.211 36.32 440.947 36.16 441.459 35.84C441.987 35.52 442.363 35.08 442.587 34.52H444.651C444.395 35.736 443.763 36.664 442.755 37.304C441.763 37.928 440.595 38.24 439.251 38.24ZM439.131 26.96C438.475 26.96 437.851 27.088 437.259 27.344C436.667 27.584 436.179 27.968 435.795 28.496C435.427 29.024 435.243 29.704 435.243 30.536H442.899C442.883 29.656 442.699 28.96 442.347 28.448C442.011 27.92 441.563 27.544 441.003 27.32C440.443 27.08 439.819 26.96 439.131 26.96ZM447.893 38V25.28H449.861V27.68C450.149 26.976 450.653 26.36 451.373 25.832C452.109 25.304 453.053 25.04 454.205 25.04C455.805 25.04 456.989 25.472 457.757 26.336C458.541 27.184 458.933 28.432 458.933 30.08V38H456.821V30.56C456.821 29.376 456.573 28.48 456.077 27.872C455.581 27.264 454.749 26.96 453.581 26.96C452.749 26.96 452.069 27.136 451.541 27.488C451.013 27.84 450.621 28.288 450.365 28.832C450.125 29.376 450.005 29.952 450.005 30.56V38H447.893ZM467.698 43.04C466.466 43.04 465.466 42.88 464.698 42.56C463.93 42.24 463.362 41.808 462.994 41.264C462.626 40.72 462.394 40.112 462.298 39.44H464.506C464.666 39.952 464.97 40.36 465.418 40.664C465.866 40.968 466.626 41.12 467.698 41.12C468.994 41.12 469.946 40.808 470.554 40.184C471.162 39.56 471.466 38.672 471.466 37.52V35.48C471.098 36.328 470.53 36.96 469.762 37.376C469.01 37.792 468.122 38 467.098 38C466.058 38 465.138 37.76 464.338 37.28C463.538 36.8 462.914 36.088 462.466 35.144C462.034 34.2 461.818 33.032 461.818 31.64V31.16C461.818 29.848 462.042 28.744 462.49 27.848C462.954 26.936 463.578 26.24 464.362 25.76C465.162 25.28 466.074 25.04 467.098 25.04C468.186 25.04 469.13 25.288 469.93 25.784C470.73 26.264 471.29 26.896 471.61 27.68V25.28H473.578V37.52C473.578 39.248 473.074 40.6 472.066 41.576C471.058 42.552 469.602 43.04 467.698 43.04ZM467.578 36.128C468.346 36.128 469.018 35.968 469.594 35.648C470.186 35.328 470.642 34.888 470.962 34.328C471.298 33.752 471.466 33.096 471.466 32.36V30.44C471.466 29.784 471.298 29.192 470.962 28.664C470.642 28.136 470.186 27.712 469.594 27.392C469.018 27.072 468.346 26.912 467.578 26.912C466.554 26.912 465.69 27.288 464.986 28.04C464.282 28.792 463.93 29.832 463.93 31.16V31.64C463.93 33.096 464.282 34.208 464.986 34.976C465.69 35.744 466.554 36.128 467.578 36.128ZM482.104 38.12C481.208 38.12 480.472 37.984 479.896 37.712C479.336 37.44 478.92 37.032 478.648 36.488C478.392 35.928 478.264 35.232 478.264 34.4V27.152H476.344V25.28H478.264V22.4H480.376V25.28H483.784V27.152H480.376V34.16C480.376 34.88 480.528 35.4 480.832 35.72C481.136 36.04 481.72 36.2 482.584 36.2C483.064 36.2 483.544 36.176 484.024 36.128V38C483.72 38.032 483.416 38.056 483.112 38.072C482.808 38.104 482.472 38.12 482.104 38.12ZM487.033 38V21.2H489.145V27.56C489.369 27.112 489.673 26.696 490.057 26.312C490.441 25.928 490.905 25.624 491.449 25.4C492.009 25.16 492.641 25.04 493.345 25.04C494.945 25.04 496.129 25.472 496.897 26.336C497.681 27.184 498.073 28.432 498.073 30.08V38H495.961V30.56C495.961 29.376 495.713 28.48 495.217 27.872C494.721 27.264 493.889 26.96 492.721 26.96C491.889 26.96 491.209 27.136 490.681 27.488C490.153 27.84 489.761 28.288 489.505 28.832C489.265 29.376 489.145 29.952 489.145 30.56V38H487.033ZM506.839 31.76V32.24C506.839 33.808 506.615 35.232 506.167 36.512C505.735 37.792 505.247 38.904 504.703 39.848C504.399 40.392 504.063 40.904 503.695 41.384C503.343 41.88 502.967 42.352 502.567 42.8H500.119C500.551 42.352 500.959 41.88 501.343 41.384C501.727 40.904 502.079 40.392 502.399 39.848C502.975 38.92 503.495 37.808 503.959 36.512C504.439 35.216 504.679 33.792 504.679 32.24V31.76C504.679 30.192 504.439 28.76 503.959 27.464C503.495 26.168 502.975 25.056 502.399 24.128C502.079 23.568 501.727 23.048 501.343 22.568C500.959 22.072 500.551 21.616 500.119 21.2H502.663C503.063 21.616 503.431 22.072 503.767 22.568C504.119 23.048 504.447 23.568 504.751 24.128C505.279 25.056 505.759 26.168 506.191 27.464C506.623 28.76 506.839 30.192 506.839 31.76ZM98.6299 76.24C97.7019 76.24 96.9099 76.072 96.2539 75.736C95.6139 75.384 95.1259 74.912 94.7899 74.32C94.4539 73.712 94.2859 73.032 94.2859 72.28C94.2859 71.016 94.6539 70.104 95.3899 69.544C96.1419 68.984 97.2139 68.704 98.6059 68.704H102.734V67.84C102.734 66.752 102.486 66 101.99 65.584C101.51 65.168 100.782 64.96 99.8059 64.96C98.8939 64.96 98.2299 65.136 97.8139 65.488C97.3979 65.824 97.1659 66.208 97.1179 66.64H95.0059C95.0539 65.952 95.2859 65.344 95.7019 64.816C96.1179 64.272 96.6859 63.84 97.4059 63.52C98.1259 63.2 98.9659 63.04 99.9259 63.04C100.934 63.04 101.806 63.2 102.542 63.52C103.278 63.824 103.846 64.312 104.246 64.984C104.646 65.64 104.846 66.512 104.846 67.6V72.76C104.846 73.432 104.846 74.024 104.846 74.536C104.862 75.032 104.902 75.52 104.966 76H103.118C103.07 75.632 103.038 75.288 103.022 74.968C103.006 74.632 102.998 74.256 102.998 73.84C102.662 74.512 102.118 75.08 101.366 75.544C100.614 76.008 99.7019 76.24 98.6299 76.24ZM99.0859 74.32C99.7579 74.32 100.366 74.2 100.91 73.96C101.47 73.72 101.91 73.368 102.23 72.904C102.566 72.44 102.734 71.872 102.734 71.2V70.336H98.9659C98.1819 70.336 97.5659 70.496 97.1179 70.816C96.6699 71.12 96.4459 71.608 96.4459 72.28C96.4459 72.872 96.6539 73.36 97.0699 73.744C97.5019 74.128 98.1739 74.32 99.0859 74.32ZM108.576 76V63.28H110.544V65.68C110.832 64.976 111.336 64.36 112.056 63.832C112.792 63.304 113.736 63.04 114.888 63.04C116.488 63.04 117.672 63.472 118.44 64.336C119.224 65.184 119.616 66.432 119.616 68.08V76H117.504V68.56C117.504 67.376 117.256 66.48 116.76 65.872C116.264 65.264 115.432 64.96 114.264 64.96C113.432 64.96 112.752 65.136 112.224 65.488C111.696 65.84 111.304 66.288 111.048 66.832C110.808 67.376 110.688 67.952 110.688 68.56V76H108.576ZM127.782 76.24C126.742 76.24 125.822 76 125.022 75.52C124.222 75.04 123.598 74.32 123.15 73.36C122.718 72.4 122.502 71.2 122.502 69.76V69.28C122.502 67.936 122.726 66.8 123.174 65.872C123.638 64.944 124.262 64.24 125.046 63.76C125.846 63.28 126.758 63.04 127.782 63.04C128.806 63.04 129.694 63.264 130.446 63.712C131.214 64.16 131.782 64.776 132.15 65.56V59.2H134.262V76H132.294V73.6C131.974 74.384 131.414 75.024 130.614 75.52C129.814 76 128.87 76.24 127.782 76.24ZM128.262 74.368C129.03 74.368 129.702 74.208 130.278 73.888C130.87 73.552 131.326 73.096 131.646 72.52C131.982 71.928 132.15 71.248 132.15 70.48V68.56C132.15 67.872 131.982 67.256 131.646 66.712C131.326 66.152 130.87 65.712 130.278 65.392C129.702 65.072 129.03 64.912 128.262 64.912C127.238 64.912 126.374 65.296 125.67 66.064C124.966 66.816 124.614 67.888 124.614 69.28V69.76C124.614 71.264 124.966 72.408 125.67 73.192C126.374 73.976 127.238 74.368 128.262 74.368ZM148.548 76.24C147.508 76.24 146.588 76 145.788 75.52C144.988 75.04 144.364 74.32 143.916 73.36C143.484 72.4 143.268 71.2 143.268 69.76V69.28C143.268 67.936 143.492 66.8 143.94 65.872C144.404 64.944 145.028 64.24 145.812 63.76C146.612 63.28 147.524 63.04 148.548 63.04C149.572 63.04 150.46 63.264 151.212 63.712C151.98 64.16 152.548 64.776 152.916 65.56V59.2H155.028V76H153.06V73.6C152.74 74.384 152.18 75.024 151.38 75.52C150.58 76 149.636 76.24 148.548 76.24ZM149.028 74.368C149.796 74.368 150.468 74.208 151.044 73.888C151.636 73.552 152.092 73.096 152.412 72.52C152.748 71.928 152.916 71.248 152.916 70.48V68.56C152.916 67.872 152.748 67.256 152.412 66.712C152.092 66.152 151.636 65.712 151.044 65.392C150.468 65.072 149.796 64.912 149.028 64.912C148.004 64.912 147.14 65.296 146.436 66.064C145.732 66.816 145.38 67.888 145.38 69.28V69.76C145.38 71.264 145.732 72.408 146.436 73.192C147.14 73.976 148.004 74.368 149.028 74.368ZM159.113 76V63.28H161.225V76H159.113ZM160.169 61.6C159.753 61.6 159.409 61.464 159.137 61.192C158.865 60.92 158.729 60.576 158.729 60.16C158.729 59.744 158.865 59.4 159.137 59.128C159.409 58.856 159.753 58.72 160.169 58.72C160.585 58.72 160.929 58.856 161.201 59.128C161.473 59.4 161.609 59.744 161.609 60.16C161.609 60.576 161.473 60.92 161.201 61.192C160.929 61.464 160.585 61.6 160.169 61.6ZM165.295 76V63.28H167.263V65.68C167.455 65.168 167.719 64.72 168.055 64.336C168.391 63.936 168.799 63.624 169.279 63.4C169.775 63.16 170.327 63.04 170.935 63.04C171.255 63.04 171.511 63.056 171.703 63.088C171.911 63.12 172.095 63.16 172.255 63.208V65.176C172.047 65.096 171.839 65.04 171.631 65.008C171.439 64.976 171.167 64.96 170.815 64.96C170.175 64.96 169.599 65.112 169.087 65.416C168.575 65.72 168.167 66.144 167.863 66.688C167.559 67.216 167.407 67.84 167.407 68.56V76H165.295ZM179.692 76.24C178.62 76.24 177.612 76.008 176.668 75.544C175.74 75.08 174.988 74.368 174.412 73.408C173.852 72.448 173.572 71.232 173.572 69.76V69.28C173.572 67.872 173.844 66.712 174.388 65.8C174.932 64.872 175.652 64.184 176.548 63.736C177.444 63.272 178.412 63.04 179.452 63.04C181.324 63.04 182.772 63.552 183.796 64.576C184.82 65.6 185.332 67.048 185.332 68.92V70.264H175.684C175.684 71.256 175.884 72.048 176.284 72.64C176.7 73.232 177.212 73.664 177.82 73.936C178.444 74.192 179.068 74.32 179.692 74.32C180.652 74.32 181.388 74.16 181.9 73.84C182.428 73.52 182.804 73.08 183.028 72.52H185.092C184.836 73.736 184.204 74.664 183.196 75.304C182.204 75.928 181.036 76.24 179.692 76.24ZM179.572 64.96C178.916 64.96 178.292 65.088 177.7 65.344C177.108 65.584 176.62 65.968 176.236 66.496C175.868 67.024 175.684 67.704 175.684 68.536H183.34C183.324 67.656 183.14 66.96 182.788 66.448C182.452 65.92 182.004 65.544 181.444 65.32C180.884 65.08 180.26 64.96 179.572 64.96ZM193.254 76.24C192.166 76.24 191.182 76.008 190.302 75.544C189.438 75.064 188.75 74.344 188.238 73.384C187.742 72.424 187.494 71.216 187.494 69.76V69.28C187.494 67.904 187.766 66.752 188.31 65.824C188.854 64.896 189.566 64.2 190.446 63.736C191.326 63.272 192.262 63.04 193.254 63.04C194.262 63.04 195.126 63.224 195.846 63.592C196.582 63.944 197.174 64.432 197.622 65.056C198.07 65.664 198.374 66.352 198.534 67.12H196.374C196.118 66.512 195.758 66 195.294 65.584C194.846 65.168 194.166 64.96 193.254 64.96C192.63 64.96 192.046 65.112 191.502 65.416C190.958 65.704 190.51 66.168 190.158 66.808C189.822 67.432 189.654 68.256 189.654 69.28V69.76C189.654 70.848 189.822 71.728 190.158 72.4C190.51 73.072 190.958 73.56 191.502 73.864C192.046 74.168 192.63 74.32 193.254 74.32C194.038 74.32 194.694 74.128 195.222 73.744C195.766 73.36 196.15 72.832 196.374 72.16H198.534C198.342 72.992 197.998 73.72 197.502 74.344C197.006 74.952 196.398 75.424 195.678 75.76C194.958 76.08 194.15 76.24 193.254 76.24ZM206.092 76.12C205.196 76.12 204.46 75.984 203.884 75.712C203.324 75.44 202.908 75.032 202.636 74.488C202.38 73.928 202.252 73.232 202.252 72.4V65.152H200.332V63.28H202.252V60.4H204.364V63.28H207.772V65.152H204.364V72.16C204.364 72.88 204.516 73.4 204.82 73.72C205.124 74.04 205.708 74.2 206.572 74.2C207.052 74.2 207.532 74.176 208.012 74.128V76C207.708 76.032 207.404 76.056 207.1 76.072C206.796 76.104 206.46 76.12 206.092 76.12ZM211.262 76V63.28H213.374V76H211.262ZM212.318 61.6C211.902 61.6 211.558 61.464 211.286 61.192C211.014 60.92 210.878 60.576 210.878 60.16C210.878 59.744 211.014 59.4 211.286 59.128C211.558 58.856 211.902 58.72 212.318 58.72C212.734 58.72 213.078 58.856 213.35 59.128C213.622 59.4 213.758 59.744 213.758 60.16C213.758 60.576 213.622 60.92 213.35 61.192C213.078 61.464 212.734 61.6 212.318 61.6ZM222.723 76.24C221.651 76.24 220.643 76.008 219.699 75.544C218.771 75.064 218.019 74.344 217.443 73.384C216.883 72.424 216.603 71.216 216.603 69.76V69.28C216.603 67.904 216.883 66.752 217.443 65.824C218.019 64.896 218.771 64.2 219.699 63.736C220.643 63.272 221.651 63.04 222.723 63.04C223.811 63.04 224.819 63.272 225.747 63.736C226.675 64.2 227.419 64.896 227.979 65.824C228.555 66.752 228.843 67.904 228.843 69.28V69.76C228.843 71.216 228.555 72.424 227.979 73.384C227.419 74.344 226.675 75.064 225.747 75.544C224.819 76.008 223.811 76.24 222.723 76.24ZM222.723 74.32C223.379 74.32 224.003 74.176 224.595 73.888C225.203 73.584 225.699 73.096 226.083 72.424C226.483 71.752 226.683 70.864 226.683 69.76V69.28C226.683 68.256 226.483 67.432 226.083 66.808C225.699 66.168 225.203 65.704 224.595 65.416C224.003 65.112 223.379 64.96 222.723 64.96C222.083 64.96 221.459 65.112 220.851 65.416C220.243 65.704 219.739 66.168 219.339 66.808C218.955 67.432 218.763 68.256 218.763 69.28V69.76C218.763 70.864 218.955 71.752 219.339 72.424C219.739 73.096 220.243 73.584 220.851 73.888C221.459 74.176 222.083 74.32 222.723 74.32ZM231.834 76V63.28H233.802V65.68C234.09 64.976 234.594 64.36 235.314 63.832C236.05 63.304 236.994 63.04 238.146 63.04C239.746 63.04 240.93 63.472 241.698 64.336C242.482 65.184 242.874 66.432 242.874 68.08V76H240.762V68.56C240.762 67.376 240.514 66.48 240.018 65.872C239.522 65.264 238.69 64.96 237.522 64.96C236.69 64.96 236.01 65.136 235.482 65.488C234.954 65.84 234.562 66.288 234.306 66.832C234.066 67.376 233.946 67.952 233.946 68.56V76H231.834ZM252.84 70.24V69.76C252.84 68.192 253.056 66.768 253.488 65.488C253.936 64.208 254.432 63.096 254.976 62.152C255.296 61.608 255.632 61.096 255.984 60.616C256.336 60.12 256.712 59.648 257.112 59.2H259.56C259.128 59.648 258.72 60.12 258.336 60.616C257.952 61.096 257.6 61.608 257.28 62.152C256.704 63.08 256.176 64.192 255.696 65.488C255.232 66.768 255 68.192 255 69.76V70.24C255 71.808 255.232 73.24 255.696 74.536C256.176 75.832 256.704 76.944 257.28 77.872C257.6 78.416 257.952 78.936 258.336 79.432C258.72 79.928 259.128 80.384 259.56 80.8H257.016C256.616 80.384 256.24 79.928 255.888 79.432C255.552 78.936 255.232 78.416 254.928 77.872C254.4 76.944 253.92 75.832 253.488 74.536C253.056 73.24 252.84 71.808 252.84 70.24ZM263.397 76.24C263.093 76.24 262.813 76.16 262.557 76C262.301 75.856 262.093 75.656 261.933 75.4C261.789 75.144 261.717 74.864 261.717 74.56C261.717 74.08 261.877 73.68 262.197 73.36C262.533 73.04 262.933 72.88 263.397 72.88C263.861 72.88 264.253 73.04 264.573 73.36C264.909 73.68 265.077 74.08 265.077 74.56C265.077 74.864 264.997 75.144 264.837 75.4C264.693 75.656 264.493 75.856 264.237 76C263.997 76.16 263.717 76.24 263.397 76.24ZM270.592 76.24C270.288 76.24 270.008 76.16 269.752 76C269.496 75.856 269.288 75.656 269.128 75.4C268.984 75.144 268.912 74.864 268.912 74.56C268.912 74.08 269.072 73.68 269.392 73.36C269.728 73.04 270.128 72.88 270.592 72.88C271.056 72.88 271.448 73.04 271.768 73.36C272.104 73.68 272.272 74.08 272.272 74.56C272.272 74.864 272.192 75.144 272.032 75.4C271.888 75.656 271.688 75.856 271.432 76C271.192 76.16 270.912 76.24 270.592 76.24ZM277.788 76.24C277.484 76.24 277.204 76.16 276.948 76C276.692 75.856 276.484 75.656 276.324 75.4C276.18 75.144 276.108 74.864 276.108 74.56C276.108 74.08 276.268 73.68 276.588 73.36C276.924 73.04 277.324 72.88 277.788 72.88C278.252 72.88 278.644 73.04 278.964 73.36C279.3 73.68 279.468 74.08 279.468 74.56C279.468 74.864 279.388 75.144 279.228 75.4C279.084 75.656 278.884 75.856 278.628 76C278.388 76.16 278.108 76.24 277.788 76.24ZM284.622 76L281.142 63.28H283.446L285.894 73.12L289.206 63.28H291.078L294.51 73.12L296.934 63.28H299.142L295.662 76H293.55L290.094 66.16L286.734 76H284.622ZM306.817 76.24C305.745 76.24 304.737 76.008 303.793 75.544C302.865 75.08 302.113 74.368 301.537 73.408C300.977 72.448 300.697 71.232 300.697 69.76V69.28C300.697 67.872 300.969 66.712 301.513 65.8C302.057 64.872 302.777 64.184 303.673 63.736C304.569 63.272 305.537 63.04 306.577 63.04C308.449 63.04 309.897 63.552 310.921 64.576C311.945 65.6 312.457 67.048 312.457 68.92V70.264H302.809C302.809 71.256 303.009 72.048 303.409 72.64C303.825 73.232 304.337 73.664 304.945 73.936C305.569 74.192 306.193 74.32 306.817 74.32C307.777 74.32 308.513 74.16 309.025 73.84C309.553 73.52 309.929 73.08 310.153 72.52H312.217C311.961 73.736 311.329 74.664 310.321 75.304C309.329 75.928 308.161 76.24 306.817 76.24ZM306.697 64.96C306.041 64.96 305.417 65.088 304.825 65.344C304.233 65.584 303.745 65.968 303.361 66.496C302.993 67.024 302.809 67.704 302.809 68.536H310.465C310.449 67.656 310.265 66.96 309.913 66.448C309.577 65.92 309.129 65.544 308.569 65.32C308.009 65.08 307.385 64.96 306.697 64.96ZM319.299 76.12C318.419 76.12 317.699 75.984 317.139 75.712C316.595 75.424 316.195 74.984 315.939 74.392C315.699 73.784 315.579 73 315.579 72.04V59.2H317.691V72.04C317.691 72.872 317.827 73.44 318.099 73.744C318.371 74.048 318.851 74.2 319.539 74.2C319.715 74.2 319.867 74.2 319.995 74.2C320.123 74.184 320.251 74.168 320.379 74.152V76.024C320.299 76.04 320.187 76.056 320.043 76.072C319.915 76.088 319.779 76.096 319.635 76.096C319.507 76.112 319.395 76.12 319.299 76.12ZM326.987 76.12C326.107 76.12 325.387 75.984 324.827 75.712C324.283 75.424 323.883 74.984 323.627 74.392C323.387 73.784 323.267 73 323.267 72.04V59.2H325.379V72.04C325.379 72.872 325.515 73.44 325.787 73.744C326.059 74.048 326.539 74.2 327.227 74.2C327.403 74.2 327.555 74.2 327.683 74.2C327.811 74.184 327.939 74.168 328.067 74.152V76.024C327.987 76.04 327.875 76.056 327.731 76.072C327.603 76.088 327.467 76.096 327.323 76.096C327.195 76.112 327.083 76.12 326.987 76.12ZM331.429 79.6L332.389 76V73.36H335.029V76L332.629 79.6H331.429ZM349.665 76.24C348.625 76.24 347.705 76 346.905 75.52C346.105 75.04 345.481 74.32 345.033 73.36C344.601 72.4 344.385 71.2 344.385 69.76V69.28C344.385 67.936 344.609 66.8 345.057 65.872C345.521 64.944 346.145 64.24 346.929 63.76C347.729 63.28 348.641 63.04 349.665 63.04C350.689 63.04 351.577 63.264 352.329 63.712C353.097 64.16 353.665 64.776 354.033 65.56V59.2H356.145V76H354.177V73.6C353.857 74.384 353.297 75.024 352.497 75.52C351.697 76 350.753 76.24 349.665 76.24ZM350.145 74.368C350.913 74.368 351.585 74.208 352.161 73.888C352.753 73.552 353.209 73.096 353.529 72.52C353.865 71.928 354.033 71.248 354.033 70.48V68.56C354.033 67.872 353.865 67.256 353.529 66.712C353.209 66.152 352.753 65.712 352.161 65.392C351.585 65.072 350.913 64.912 350.145 64.912C349.121 64.912 348.257 65.296 347.553 66.064C346.849 66.816 346.497 67.888 346.497 69.28V69.76C346.497 71.264 346.849 72.408 347.553 73.192C348.257 73.976 349.121 74.368 350.145 74.368ZM360.23 76V63.28H362.342V76H360.23ZM361.286 61.6C360.87 61.6 360.526 61.464 360.254 61.192C359.982 60.92 359.846 60.576 359.846 60.16C359.846 59.744 359.982 59.4 360.254 59.128C360.526 58.856 360.87 58.72 361.286 58.72C361.702 58.72 362.046 58.856 362.318 59.128C362.59 59.4 362.726 59.744 362.726 60.16C362.726 60.576 362.59 60.92 362.318 61.192C362.046 61.464 361.702 61.6 361.286 61.6ZM366.412 76V63.28H368.38V65.68C368.572 65.168 368.836 64.72 369.172 64.336C369.508 63.936 369.916 63.624 370.396 63.4C370.892 63.16 371.444 63.04 372.052 63.04C372.372 63.04 372.628 63.056 372.82 63.088C373.028 63.12 373.212 63.16 373.372 63.208V65.176C373.164 65.096 372.956 65.04 372.748 65.008C372.556 64.976 372.284 64.96 371.932 64.96C371.292 64.96 370.716 65.112 370.204 65.416C369.692 65.72 369.284 66.144 368.98 66.688C368.676 67.216 368.524 67.84 368.524 68.56V76H366.412ZM380.809 76.24C379.737 76.24 378.729 76.008 377.785 75.544C376.857 75.08 376.105 74.368 375.529 73.408C374.969 72.448 374.689 71.232 374.689 69.76V69.28C374.689 67.872 374.961 66.712 375.505 65.8C376.049 64.872 376.769 64.184 377.665 63.736C378.561 63.272 379.529 63.04 380.569 63.04C382.441 63.04 383.889 63.552 384.913 64.576C385.937 65.6 386.449 67.048 386.449 68.92V70.264H376.801C376.801 71.256 377.001 72.048 377.401 72.64C377.817 73.232 378.329 73.664 378.937 73.936C379.561 74.192 380.185 74.32 380.809 74.32C381.769 74.32 382.505 74.16 383.017 73.84C383.545 73.52 383.921 73.08 384.145 72.52H386.209C385.953 73.736 385.321 74.664 384.313 75.304C383.321 75.928 382.153 76.24 380.809 76.24ZM380.689 64.96C380.033 64.96 379.409 65.088 378.817 65.344C378.225 65.584 377.737 65.968 377.353 66.496C376.985 67.024 376.801 67.704 376.801 68.536H384.457C384.441 67.656 384.257 66.96 383.905 66.448C383.569 65.92 383.121 65.544 382.561 65.32C382.001 65.08 381.377 64.96 380.689 64.96ZM394.371 76.24C393.283 76.24 392.299 76.008 391.419 75.544C390.555 75.064 389.867 74.344 389.355 73.384C388.859 72.424 388.611 71.216 388.611 69.76V69.28C388.611 67.904 388.883 66.752 389.427 65.824C389.971 64.896 390.683 64.2 391.563 63.736C392.443 63.272 393.379 63.04 394.371 63.04C395.379 63.04 396.243 63.224 396.963 63.592C397.699 63.944 398.291 64.432 398.739 65.056C399.187 65.664 399.491 66.352 399.651 67.12H397.491C397.235 66.512 396.875 66 396.411 65.584C395.963 65.168 395.283 64.96 394.371 64.96C393.747 64.96 393.163 65.112 392.619 65.416C392.075 65.704 391.627 66.168 391.275 66.808C390.939 67.432 390.771 68.256 390.771 69.28V69.76C390.771 70.848 390.939 71.728 391.275 72.4C391.627 73.072 392.075 73.56 392.619 73.864C393.163 74.168 393.747 74.32 394.371 74.32C395.155 74.32 395.811 74.128 396.339 73.744C396.883 73.36 397.267 72.832 397.491 72.16H399.651C399.459 72.992 399.115 73.72 398.619 74.344C398.123 74.952 397.515 75.424 396.795 75.76C396.075 76.08 395.267 76.24 394.371 76.24ZM407.209 76.12C406.313 76.12 405.577 75.984 405.001 75.712C404.441 75.44 404.025 75.032 403.753 74.488C403.497 73.928 403.369 73.232 403.369 72.4V65.152H401.449V63.28H403.369V60.4H405.481V63.28H408.889V65.152H405.481V72.16C405.481 72.88 405.633 73.4 405.937 73.72C406.241 74.04 406.825 74.2 407.689 74.2C408.169 74.2 408.649 74.176 409.129 74.128V76C408.825 76.032 408.521 76.056 408.217 76.072C407.913 76.104 407.577 76.12 407.209 76.12ZM412.379 76V63.28H414.491V76H412.379ZM413.435 61.6C413.019 61.6 412.675 61.464 412.403 61.192C412.131 60.92 411.995 60.576 411.995 60.16C411.995 59.744 412.131 59.4 412.403 59.128C412.675 58.856 413.019 58.72 413.435 58.72C413.851 58.72 414.195 58.856 414.467 59.128C414.739 59.4 414.875 59.744 414.875 60.16C414.875 60.576 414.739 60.92 414.467 61.192C414.195 61.464 413.851 61.6 413.435 61.6ZM423.841 76.24C422.769 76.24 421.761 76.008 420.817 75.544C419.889 75.064 419.137 74.344 418.561 73.384C418.001 72.424 417.721 71.216 417.721 69.76V69.28C417.721 67.904 418.001 66.752 418.561 65.824C419.137 64.896 419.889 64.2 420.817 63.736C421.761 63.272 422.769 63.04 423.841 63.04C424.929 63.04 425.937 63.272 426.865 63.736C427.793 64.2 428.537 64.896 429.097 65.824C429.673 66.752 429.961 67.904 429.961 69.28V69.76C429.961 71.216 429.673 72.424 429.097 73.384C428.537 74.344 427.793 75.064 426.865 75.544C425.937 76.008 424.929 76.24 423.841 76.24ZM423.841 74.32C424.497 74.32 425.121 74.176 425.713 73.888C426.321 73.584 426.817 73.096 427.201 72.424C427.601 71.752 427.801 70.864 427.801 69.76V69.28C427.801 68.256 427.601 67.432 427.201 66.808C426.817 66.168 426.321 65.704 425.713 65.416C425.121 65.112 424.497 64.96 423.841 64.96C423.201 64.96 422.577 65.112 421.969 65.416C421.361 65.704 420.857 66.168 420.457 66.808C420.073 67.432 419.881 68.256 419.881 69.28V69.76C419.881 70.864 420.073 71.752 420.457 72.424C420.857 73.096 421.361 73.584 421.969 73.888C422.577 74.176 423.201 74.32 423.841 74.32ZM432.951 76V63.28H434.919V65.68C435.207 64.976 435.711 64.36 436.431 63.832C437.167 63.304 438.111 63.04 439.263 63.04C440.863 63.04 442.047 63.472 442.815 64.336C443.599 65.184 443.991 66.432 443.991 68.08V76H441.879V68.56C441.879 67.376 441.631 66.48 441.135 65.872C440.639 65.264 439.807 64.96 438.639 64.96C437.807 64.96 437.127 65.136 436.599 65.488C436.071 65.84 435.679 66.288 435.423 66.832C435.183 67.376 435.063 67.952 435.063 68.56V76H432.951ZM452.757 69.76V70.24C452.757 71.808 452.533 73.232 452.085 74.512C451.653 75.792 451.165 76.904 450.621 77.848C450.317 78.392 449.981 78.904 449.613 79.384C449.261 79.88 448.885 80.352 448.485 80.8H446.037C446.469 80.352 446.877 79.88 447.261 79.384C447.645 78.904 447.997 78.392 448.317 77.848C448.893 76.92 449.413 75.808 449.877 74.512C450.357 73.216 450.597 71.792 450.597 70.24V69.76C450.597 68.192 450.357 66.76 449.877 65.464C449.413 64.168 448.893 63.056 448.317 62.128C447.997 61.568 447.645 61.048 447.261 60.568C446.877 60.072 446.469 59.616 446.037 59.2H448.581C448.981 59.616 449.349 60.072 449.685 60.568C450.037 61.048 450.365 61.568 450.669 62.128C451.197 63.056 451.677 64.168 452.109 65.464C452.541 66.76 452.757 68.192 452.757 69.76Z" fill="#0C0824"/>
<path d="M132.904 99.5727C132.668 99.0734 132.072 98.8599 131.573 99.0959C131.073 99.3319 130.86 99.928 131.096 100.427L132.904 99.5727ZM393.707 219.707C394.098 219.317 394.098 218.683 393.707 218.293L387.343 211.929C386.953 211.538 386.319 211.538 385.929 211.929C385.538 212.319 385.538 212.953 385.929 213.343L391.586 219L385.929 224.657C385.538 225.047 385.538 225.681 385.929 226.071C386.319 226.462 386.953 226.462 387.343 226.071L393.707 219.707ZM132 100L131.096 100.427C152.316 145.325 200.91 175.196 252.491 193.841C304.106 212.498 358.947 220 393 220V219V218C359.172 218 304.561 210.536 253.171 191.96C201.747 173.372 153.781 143.743 132.904 99.5727L132 100Z" fill="#0C0824"/>
<path d="M540.667 365C540.667 376.782 550.218 386.333 562 386.333C573.782 386.333 583.333 376.782 583.333 365C583.333 353.218 573.782 343.667 562 343.667C550.218 343.667 540.667 353.218 540.667 365ZM741.812 23.7884C741.143 21.683 738.894 20.5188 736.788 21.1879L702.48 32.0923C700.374 32.7614 699.21 35.0106 699.879 37.1159C700.548 39.2213 702.797 40.3856 704.903 39.7164L735.4 30.0237L745.092 60.5204C745.761 62.6258 748.011 63.7901 750.116 63.1209C752.221 62.4518 753.386 60.2026 752.716 58.0972L741.812 23.7884ZM562 365L565.552 366.839L741.552 26.8388L738 25L734.448 23.1612L558.448 363.161L562 365Z" fill="#656AFF"/>
<path d="M734.565 141.302C734.565 140.164 734.125 139.595 733.244 139.595C732.132 139.595 730.974 140.255 729.769 141.575C728.564 142.895 727.568 144.921 726.78 147.652C726.734 147.698 726.688 147.766 726.641 147.857C726.595 147.948 726.572 148.016 726.572 148.062C726.572 148.107 726.525 148.153 726.433 148.198C726.34 148.244 726.271 148.267 726.224 148.267C726.178 148.267 726.085 148.267 725.946 148.267C725.807 148.267 725.622 148.267 725.39 148.267H724.417C724.139 147.993 724 147.789 724 147.652C724 147.333 724.185 146.673 724.556 145.672C724.927 144.67 725.483 143.487 726.224 142.121C726.966 140.756 727.985 139.595 729.283 138.639C730.58 137.683 732.04 137.182 733.661 137.137C735.608 137.137 737.114 137.683 738.179 138.775C739.245 139.868 739.801 141.142 739.848 142.599C739.848 143.373 739.778 143.965 739.639 144.374C739.639 144.648 739.291 145.649 738.596 147.379C737.901 149.109 737.183 151.134 736.442 153.456C735.7 155.778 735.283 157.803 735.191 159.533C735.191 160.762 735.306 161.764 735.538 162.537C736.141 164.495 737.6 165.474 739.917 165.474C741.632 165.474 743.23 164.7 744.713 163.152C746.196 161.604 747.354 159.806 748.188 157.758C749.022 155.709 749.694 153.82 750.204 152.09C750.714 150.36 750.969 149.109 750.969 148.335C750.969 147.288 750.783 146.377 750.413 145.604C750.042 144.83 749.625 144.238 749.161 143.828C748.698 143.419 748.281 143.009 747.91 142.599C747.54 142.189 747.354 141.689 747.354 141.097C747.354 140.095 747.794 139.162 748.675 138.297C749.555 137.432 750.505 137 751.525 137C752.405 137 753.193 137.41 753.888 138.229C754.583 139.048 754.954 140.369 755 142.189C755 143.419 754.722 145.308 754.166 147.857C753.61 150.406 752.753 153.251 751.594 156.392C750.436 159.533 748.791 162.242 746.659 164.518C744.528 166.794 742.072 167.954 739.291 168C736.326 168 733.963 167.249 732.202 165.747C730.487 164.29 729.63 162.128 729.63 159.26C729.63 157.849 729.815 156.392 730.186 154.89C730.557 153.388 731.507 150.725 733.036 146.901C734.055 143.988 734.565 142.121 734.565 141.302Z" fill="#656AFF"/>
</g>
<defs>
<clipPath id="clip0_91_93">
<rect width="814" height="455" fill="white"/>
</clipPath>
</defs>
</svg>
