<svg width="814" height="456" viewBox="0 0 814 456" fill="none" xmlns="http://www.w3.org/2000/svg">
<path d="M363.657 158.312C362.409 158.312 361.297 158.072 360.321 157.592C359.345 157.112 358.577 156.384 358.017 155.408C357.457 154.432 357.177 153.216 357.177 151.76V151.28C357.177 149.936 357.465 148.792 358.041 147.848C358.633 146.904 359.417 146.192 360.393 145.712C361.385 145.216 362.473 144.968 363.657 144.968C364.937 144.968 366.009 145.192 366.873 145.64C367.737 146.072 368.401 146.656 368.865 147.392C369.329 148.128 369.593 148.944 369.657 149.84H365.841C365.729 149.264 365.497 148.824 365.145 148.52C364.809 148.2 364.313 148.04 363.657 148.04C363.145 148.04 362.681 148.16 362.265 148.4C361.865 148.64 361.545 149 361.305 149.48C361.081 149.944 360.969 150.544 360.969 151.28V151.76C360.969 152.544 361.081 153.192 361.305 153.704C361.529 154.216 361.841 154.6 362.241 154.856C362.641 155.096 363.113 155.216 363.657 155.216C364.217 155.216 364.689 155.072 365.073 154.784C365.473 154.48 365.729 154.032 365.841 153.44H369.657C369.593 154.432 369.305 155.296 368.793 156.032C368.281 156.768 367.585 157.336 366.705 157.736C365.841 158.12 364.825 158.312 363.657 158.312ZM377.462 158.312C376.278 158.312 375.19 158.08 374.198 157.616C373.222 157.152 372.438 156.432 371.846 155.456C371.27 154.464 370.982 153.232 370.982 151.76V151.28C370.982 149.904 371.27 148.752 371.846 147.824C372.438 146.88 373.222 146.168 374.198 145.688C375.19 145.208 376.278 144.968 377.462 144.968C378.662 144.968 379.75 145.208 380.726 145.688C381.702 146.168 382.478 146.88 383.054 147.824C383.646 148.752 383.942 149.904 383.942 151.28V151.76C383.942 153.216 383.646 154.432 383.054 155.408C382.478 156.368 381.702 157.096 380.726 157.592C379.75 158.072 378.662 158.312 377.462 158.312ZM377.462 155.24C378.038 155.24 378.526 155.104 378.926 154.832C379.326 154.544 379.63 154.136 379.838 153.608C380.046 153.08 380.15 152.464 380.15 151.76V151.28C380.15 150.64 380.046 150.08 379.838 149.6C379.63 149.12 379.326 148.744 378.926 148.472C378.526 148.184 378.038 148.04 377.462 148.04C376.886 148.04 376.398 148.184 375.998 148.472C375.598 148.744 375.294 149.12 375.086 149.6C374.878 150.08 374.774 150.64 374.774 151.28V151.76C374.774 152.496 374.878 153.128 375.086 153.656C375.294 154.168 375.598 154.56 375.998 154.832C376.398 155.104 376.886 155.24 377.462 155.24ZM385.852 158V145.28H389.332V147.104C389.62 146.544 390.068 146.048 390.676 145.616C391.284 145.184 392.036 144.968 392.932 144.968C393.94 144.968 394.716 145.16 395.26 145.544C395.82 145.928 396.228 146.448 396.484 147.104C396.804 146.496 397.3 145.992 397.972 145.592C398.644 145.176 399.436 144.968 400.348 144.968C401.724 144.968 402.772 145.36 403.492 146.144C404.212 146.912 404.572 148.064 404.572 149.6V158H400.876V150.512C400.876 149.616 400.732 148.984 400.444 148.616C400.172 148.232 399.724 148.04 399.1 148.04C398.732 148.04 398.388 148.144 398.068 148.352C397.764 148.544 397.516 148.824 397.324 149.192C397.148 149.56 397.06 150 397.06 150.512V158H393.364V150.512C393.364 149.616 393.22 148.984 392.932 148.616C392.66 148.232 392.212 148.04 391.588 148.04C391.204 148.04 390.86 148.144 390.556 148.352C390.252 148.544 390.004 148.824 389.812 149.192C389.636 149.56 389.548 150 389.548 150.512V158H385.852ZM406.852 162.8V145.28H410.26V147.008C410.596 146.496 411.092 146.032 411.748 145.616C412.42 145.184 413.244 144.968 414.22 144.968C416.012 144.968 417.372 145.496 418.3 146.552C419.228 147.608 419.692 149.184 419.692 151.28V151.76C419.692 153.2 419.468 154.408 419.02 155.384C418.572 156.344 417.94 157.072 417.124 157.568C416.308 158.064 415.34 158.312 414.22 158.312C413.5 158.312 412.812 158.152 412.156 157.832C411.516 157.496 410.98 157.016 410.548 156.392V162.8H406.852ZM413.332 155.264C414.068 155.264 414.676 154.968 415.156 154.376C415.652 153.768 415.9 152.896 415.9 151.76V151.28C415.9 150.176 415.66 149.36 415.18 148.832C414.716 148.288 414.1 148.016 413.332 148.016C412.82 148.016 412.348 148.128 411.916 148.352C411.5 148.56 411.164 148.88 410.908 149.312C410.668 149.744 410.548 150.28 410.548 150.92V152.12C410.548 152.776 410.668 153.344 410.908 153.824C411.164 154.288 411.5 154.648 411.916 154.904C412.348 155.144 412.82 155.264 413.332 155.264ZM427.618 158.312C426.434 158.312 425.346 158.08 424.354 157.616C423.378 157.152 422.594 156.432 422.002 155.456C421.426 154.464 421.138 153.232 421.138 151.76V151.28C421.138 149.904 421.426 148.752 422.002 147.824C422.594 146.88 423.378 146.168 424.354 145.688C425.346 145.208 426.434 144.968 427.618 144.968C428.818 144.968 429.906 145.208 430.882 145.688C431.858 146.168 432.634 146.88 433.21 147.824C433.802 148.752 434.098 149.904 434.098 151.28V151.76C434.098 153.216 433.802 154.432 433.21 155.408C432.634 156.368 431.858 157.096 430.882 157.592C429.906 158.072 428.818 158.312 427.618 158.312ZM427.618 155.24C428.194 155.24 428.682 155.104 429.082 154.832C429.482 154.544 429.786 154.136 429.994 153.608C430.202 153.08 430.306 152.464 430.306 151.76V151.28C430.306 150.64 430.202 150.08 429.994 149.6C429.786 149.12 429.482 148.744 429.082 148.472C428.682 148.184 428.194 148.04 427.618 148.04C427.042 148.04 426.554 148.184 426.154 148.472C425.754 148.744 425.45 149.12 425.242 149.6C425.034 150.08 424.93 150.64 424.93 151.28V151.76C424.93 152.496 425.034 153.128 425.242 153.656C425.45 154.168 425.754 154.56 426.154 154.832C426.554 155.104 427.042 155.24 427.618 155.24ZM436.009 158V145.28H439.417V147.008C439.737 146.432 440.233 145.952 440.905 145.568C441.593 145.168 442.505 144.968 443.641 144.968C445.161 144.968 446.305 145.376 447.073 146.192C447.857 147.008 448.249 148.184 448.249 149.72V158H444.553V150.56C444.553 149.728 444.369 149.104 444.001 148.688C443.649 148.256 443.065 148.04 442.249 148.04C441.657 148.04 441.169 148.16 440.785 148.4C440.417 148.624 440.145 148.928 439.969 149.312C439.793 149.68 439.705 150.096 439.705 150.56V158H436.009ZM456.66 158.312C455.412 158.312 454.292 158.08 453.3 157.616C452.308 157.136 451.516 156.408 450.924 155.432C450.348 154.456 450.06 153.232 450.06 151.76V151.28C450.06 149.872 450.34 148.704 450.9 147.776C451.46 146.848 452.22 146.152 453.18 145.688C454.156 145.208 455.236 144.968 456.42 144.968C458.516 144.968 460.1 145.512 461.172 146.6C462.244 147.672 462.78 149.232 462.78 151.28V152.624H453.852C453.884 153.248 454.028 153.768 454.284 154.184C454.556 154.6 454.9 154.904 455.316 155.096C455.732 155.272 456.18 155.36 456.66 155.36C457.364 155.36 457.916 155.256 458.316 155.048C458.732 154.824 459.004 154.528 459.132 154.16H462.54C462.284 155.552 461.652 156.592 460.644 157.28C459.636 157.968 458.308 158.312 456.66 158.312ZM456.54 147.92C456.092 147.92 455.668 147.992 455.268 148.136C454.868 148.28 454.54 148.52 454.284 148.856C454.044 149.176 453.908 149.616 453.876 150.176H459.156C459.156 149.584 459.036 149.128 458.796 148.808C458.556 148.472 458.236 148.24 457.836 148.112C457.452 147.984 457.02 147.92 456.54 147.92ZM464.696 158V145.28H468.104V147.008C468.424 146.432 468.92 145.952 469.592 145.568C470.28 145.168 471.192 144.968 472.328 144.968C473.848 144.968 474.992 145.376 475.76 146.192C476.544 147.008 476.936 148.184 476.936 149.72V158H473.24V150.56C473.24 149.728 473.056 149.104 472.688 148.688C472.336 148.256 471.752 148.04 470.936 148.04C470.344 148.04 469.856 148.16 469.472 148.4C469.104 148.624 468.832 148.928 468.656 149.312C468.48 149.68 468.392 150.096 468.392 150.56V158H464.696ZM484.627 158.144C483.571 158.144 482.707 158.008 482.035 157.736C481.363 157.448 480.867 156.984 480.547 156.344C480.227 155.688 480.067 154.8 480.067 153.68V148.304H478.507V145.28H480.067V142.4H483.763V145.28H486.667V148.304H483.763V153.08C483.763 153.8 483.875 154.312 484.099 154.616C484.339 154.92 484.795 155.072 485.467 155.072C485.947 155.072 486.427 155.048 486.907 155V158C486.603 158.048 486.283 158.08 485.947 158.096C485.611 158.128 485.171 158.144 484.627 158.144ZM494.357 158.312C493.317 158.312 492.421 158.208 491.669 158C490.933 157.776 490.325 157.48 489.845 157.112C489.365 156.728 489.005 156.288 488.765 155.792C488.525 155.28 488.389 154.736 488.357 154.16H492.053C492.149 154.512 492.357 154.824 492.677 155.096C492.997 155.352 493.557 155.48 494.357 155.48C495.173 155.48 495.757 155.368 496.109 155.144C496.461 154.92 496.637 154.624 496.637 154.256C496.637 154.064 496.557 153.896 496.397 153.752C496.253 153.592 495.973 153.448 495.557 153.32C495.157 153.192 494.573 153.064 493.805 152.936C493.101 152.824 492.437 152.68 491.813 152.504C491.205 152.328 490.669 152.096 490.205 151.808C489.741 151.504 489.373 151.12 489.101 150.656C488.845 150.192 488.717 149.608 488.717 148.904C488.717 148.152 488.941 147.48 489.389 146.888C489.837 146.296 490.485 145.832 491.333 145.496C492.181 145.144 493.189 144.968 494.357 144.968C495.685 144.968 496.733 145.176 497.501 145.592C498.285 145.992 498.861 146.512 499.229 147.152C499.597 147.776 499.813 148.432 499.877 149.12H496.157C496.061 148.72 495.853 148.4 495.533 148.16C495.229 147.92 494.837 147.8 494.357 147.8C493.621 147.8 493.109 147.912 492.821 148.136C492.549 148.36 492.413 148.632 492.413 148.952C492.413 149.272 492.637 149.528 493.085 149.72C493.533 149.896 494.245 150.048 495.221 150.176C495.925 150.272 496.581 150.408 497.189 150.584C497.813 150.76 498.357 151.008 498.821 151.328C499.301 151.632 499.677 152.024 499.949 152.504C500.221 152.968 500.357 153.536 500.357 154.208C500.357 155.008 500.125 155.72 499.661 156.344C499.213 156.968 498.541 157.456 497.645 157.808C496.765 158.144 495.669 158.312 494.357 158.312ZM508.026 152.264V150.296H523.626V152.264H508.026ZM532.518 158V141.2H534.63V151.136L540.486 145.28H543.078L537.798 150.536L543.558 158H540.87L536.286 152L534.63 153.56V158H532.518ZM546.328 158V145.28H548.44V158H546.328ZM547.384 143.6C546.968 143.6 546.624 143.464 546.352 143.192C546.08 142.92 545.944 142.576 545.944 142.16C545.944 141.744 546.08 141.4 546.352 141.128C546.624 140.856 546.968 140.72 547.384 140.72C547.8 140.72 548.144 140.856 548.416 141.128C548.688 141.4 548.824 141.744 548.824 142.16C548.824 142.576 548.688 142.92 548.416 143.192C548.144 143.464 547.8 143.6 547.384 143.6ZM552.51 158V145.28H554.478V147.68C554.766 146.976 555.27 146.36 555.99 145.832C556.726 145.304 557.67 145.04 558.822 145.04C560.422 145.04 561.606 145.472 562.374 146.336C563.158 147.184 563.55 148.432 563.55 150.08V158H561.438V150.56C561.438 149.376 561.19 148.48 560.694 147.872C560.198 147.264 559.366 146.96 558.198 146.96C557.366 146.96 556.686 147.136 556.158 147.488C555.63 147.84 555.238 148.288 554.982 148.832C554.742 149.376 554.622 149.952 554.622 150.56V158H552.51ZM571.715 158.24C570.675 158.24 569.755 158 568.955 157.52C568.155 157.04 567.531 156.32 567.083 155.36C566.651 154.4 566.435 153.2 566.435 151.76V151.28C566.435 149.936 566.659 148.8 567.107 147.872C567.571 146.944 568.195 146.24 568.979 145.76C569.779 145.28 570.691 145.04 571.715 145.04C572.739 145.04 573.627 145.264 574.379 145.712C575.147 146.16 575.715 146.776 576.083 147.56V141.2H578.195V158H576.227V155.6C575.907 156.384 575.347 157.024 574.547 157.52C573.747 158 572.803 158.24 571.715 158.24ZM572.195 156.368C572.963 156.368 573.635 156.208 574.211 155.888C574.803 155.552 575.259 155.096 575.579 154.52C575.915 153.928 576.083 153.248 576.083 152.48V150.56C576.083 149.872 575.915 149.256 575.579 148.712C575.259 148.152 574.803 147.712 574.211 147.392C573.635 147.072 572.963 146.912 572.195 146.912C571.171 146.912 570.307 147.296 569.603 148.064C568.899 148.816 568.547 149.888 568.547 151.28V151.76C568.547 153.264 568.899 154.408 569.603 155.192C570.307 155.976 571.171 156.368 572.195 156.368ZM585.665 158.24C584.737 158.24 583.945 158.072 583.289 157.736C582.649 157.384 582.161 156.912 581.825 156.32C581.489 155.712 581.321 155.032 581.321 154.28C581.321 153.016 581.689 152.104 582.425 151.544C583.177 150.984 584.249 150.704 585.641 150.704H589.769V149.84C589.769 148.752 589.521 148 589.025 147.584C588.545 147.168 587.817 146.96 586.841 146.96C585.929 146.96 585.265 147.136 584.849 147.488C584.433 147.824 584.201 148.208 584.153 148.64H582.041C582.089 147.952 582.321 147.344 582.737 146.816C583.153 146.272 583.721 145.84 584.441 145.52C585.161 145.2 586.001 145.04 586.961 145.04C587.969 145.04 588.841 145.2 589.577 145.52C590.313 145.824 590.881 146.312 591.281 146.984C591.681 147.64 591.881 148.512 591.881 149.6V154.76C591.881 155.432 591.881 156.024 591.881 156.536C591.897 157.032 591.937 157.52 592.001 158H590.153C590.105 157.632 590.073 157.288 590.057 156.968C590.041 156.632 590.033 156.256 590.033 155.84C589.697 156.512 589.153 157.08 588.401 157.544C587.649 158.008 586.737 158.24 585.665 158.24ZM586.121 156.32C586.793 156.32 587.401 156.2 587.945 155.96C588.505 155.72 588.945 155.368 589.265 154.904C589.601 154.44 589.769 153.872 589.769 153.2V152.336H586.001C585.217 152.336 584.601 152.496 584.153 152.816C583.705 153.12 583.481 153.608 583.481 154.28C583.481 154.872 583.689 155.36 584.105 155.744C584.537 156.128 585.209 156.32 586.121 156.32ZM605.451 158.12C604.571 158.12 603.851 157.984 603.291 157.712C602.747 157.424 602.347 156.984 602.091 156.392C601.851 155.784 601.731 155 601.731 154.04V141.2H603.843V154.04C603.843 154.872 603.979 155.44 604.251 155.744C604.523 156.048 605.003 156.2 605.691 156.2C605.867 156.2 606.019 156.2 606.147 156.2C606.275 156.184 606.403 156.168 606.531 156.152V158.024C606.451 158.04 606.339 158.056 606.195 158.072C606.067 158.088 605.931 158.096 605.787 158.096C605.659 158.112 605.547 158.12 605.451 158.12ZM609.539 158V145.28H611.651V158H609.539ZM610.595 143.6C610.179 143.6 609.835 143.464 609.563 143.192C609.291 142.92 609.155 142.576 609.155 142.16C609.155 141.744 609.291 141.4 609.563 141.128C609.835 140.856 610.179 140.72 610.595 140.72C611.011 140.72 611.355 140.856 611.627 141.128C611.899 141.4 612.035 141.744 612.035 142.16C612.035 142.576 611.899 142.92 611.627 143.192C611.355 143.464 611.011 143.6 610.595 143.6ZM615.721 158V141.2H617.833V151.136L623.689 145.28H626.281L621.001 150.536L626.761 158H624.073L619.489 152L617.833 153.56V158H615.721ZM634.102 158.24C633.03 158.24 632.022 158.008 631.078 157.544C630.15 157.08 629.398 156.368 628.822 155.408C628.262 154.448 627.982 153.232 627.982 151.76V151.28C627.982 149.872 628.254 148.712 628.798 147.8C629.342 146.872 630.062 146.184 630.958 145.736C631.854 145.272 632.822 145.04 633.862 145.04C635.734 145.04 637.182 145.552 638.206 146.576C639.23 147.6 639.742 149.048 639.742 150.92V152.264H630.094C630.094 153.256 630.294 154.048 630.694 154.64C631.11 155.232 631.622 155.664 632.23 155.936C632.854 156.192 633.478 156.32 634.102 156.32C635.062 156.32 635.798 156.16 636.31 155.84C636.838 155.52 637.214 155.08 637.438 154.52H639.502C639.246 155.736 638.614 156.664 637.606 157.304C636.614 157.928 635.446 158.24 634.102 158.24ZM633.982 146.96C633.326 146.96 632.702 147.088 632.11 147.344C631.518 147.584 631.03 147.968 630.646 148.496C630.278 149.024 630.094 149.704 630.094 150.536H637.75C637.734 149.656 637.55 148.96 637.198 148.448C636.862 147.92 636.414 147.544 635.854 147.32C635.294 147.08 634.67 146.96 633.982 146.96ZM653.664 158.24C652.576 158.24 651.592 158.008 650.712 157.544C649.848 157.064 649.16 156.344 648.648 155.384C648.152 154.424 647.904 153.216 647.904 151.76V151.28C647.904 149.904 648.176 148.752 648.72 147.824C649.264 146.896 649.976 146.2 650.856 145.736C651.736 145.272 652.672 145.04 653.664 145.04C654.672 145.04 655.536 145.224 656.256 145.592C656.992 145.944 657.584 146.432 658.032 147.056C658.48 147.664 658.784 148.352 658.944 149.12H656.784C656.528 148.512 656.168 148 655.704 147.584C655.256 147.168 654.576 146.96 653.664 146.96C653.04 146.96 652.456 147.112 651.912 147.416C651.368 147.704 650.92 148.168 650.568 148.808C650.232 149.432 650.064 150.256 650.064 151.28V151.76C650.064 152.848 650.232 153.728 650.568 154.4C650.92 155.072 651.368 155.56 651.912 155.864C652.456 156.168 653.04 156.32 653.664 156.32C654.448 156.32 655.104 156.128 655.632 155.744C656.176 155.36 656.56 154.832 656.784 154.16H658.944C658.752 154.992 658.408 155.72 657.912 156.344C657.416 156.952 656.808 157.424 656.088 157.76C655.368 158.08 654.56 158.24 653.664 158.24ZM667.102 158.24C666.03 158.24 665.022 158.008 664.078 157.544C663.15 157.064 662.398 156.344 661.822 155.384C661.262 154.424 660.982 153.216 660.982 151.76V151.28C660.982 149.904 661.262 148.752 661.822 147.824C662.398 146.896 663.15 146.2 664.078 145.736C665.022 145.272 666.03 145.04 667.102 145.04C668.19 145.04 669.198 145.272 670.126 145.736C671.054 146.2 671.798 146.896 672.358 147.824C672.934 148.752 673.222 149.904 673.222 151.28V151.76C673.222 153.216 672.934 154.424 672.358 155.384C671.798 156.344 671.054 157.064 670.126 157.544C669.198 158.008 668.19 158.24 667.102 158.24ZM667.102 156.32C667.758 156.32 668.382 156.176 668.974 155.888C669.582 155.584 670.078 155.096 670.462 154.424C670.862 153.752 671.062 152.864 671.062 151.76V151.28C671.062 150.256 670.862 149.432 670.462 148.808C670.078 148.168 669.582 147.704 668.974 147.416C668.382 147.112 667.758 146.96 667.102 146.96C666.462 146.96 665.838 147.112 665.23 147.416C664.622 147.704 664.118 148.168 663.718 148.808C663.334 149.432 663.142 150.256 663.142 151.28V151.76C663.142 152.864 663.334 153.752 663.718 154.424C664.118 155.096 664.622 155.584 665.23 155.888C665.838 156.176 666.462 156.32 667.102 156.32ZM681.493 158.24C680.421 158.24 679.413 158.008 678.469 157.544C677.541 157.064 676.789 156.344 676.213 155.384C675.653 154.424 675.373 153.216 675.373 151.76V151.28C675.373 149.904 675.653 148.752 676.213 147.824C676.789 146.896 677.541 146.2 678.469 145.736C679.413 145.272 680.421 145.04 681.493 145.04C682.581 145.04 683.589 145.272 684.517 145.736C685.445 146.2 686.189 146.896 686.749 147.824C687.325 148.752 687.613 149.904 687.613 151.28V151.76C687.613 153.216 687.325 154.424 686.749 155.384C686.189 156.344 685.445 157.064 684.517 157.544C683.589 158.008 682.581 158.24 681.493 158.24ZM681.493 156.32C682.149 156.32 682.773 156.176 683.365 155.888C683.973 155.584 684.469 155.096 684.853 154.424C685.253 153.752 685.453 152.864 685.453 151.76V151.28C685.453 150.256 685.253 149.432 684.853 148.808C684.469 148.168 683.973 147.704 683.365 147.416C682.773 147.112 682.149 146.96 681.493 146.96C680.853 146.96 680.229 147.112 679.621 147.416C679.013 147.704 678.509 148.168 678.109 148.808C677.725 149.432 677.533 150.256 677.533 151.28V151.76C677.533 152.864 677.725 153.752 678.109 154.424C678.509 155.096 679.013 155.584 679.621 155.888C680.229 156.176 680.853 156.32 681.493 156.32ZM690.604 158V145.28H692.572V147.68C692.764 147.168 693.028 146.72 693.364 146.336C693.7 145.936 694.108 145.624 694.588 145.4C695.084 145.16 695.636 145.04 696.244 145.04C696.564 145.04 696.82 145.056 697.012 145.088C697.22 145.12 697.404 145.16 697.564 145.208V147.176C697.356 147.096 697.148 147.04 696.94 147.008C696.748 146.976 696.476 146.96 696.124 146.96C695.484 146.96 694.908 147.112 694.396 147.416C693.884 147.72 693.476 148.144 693.172 148.688C692.868 149.216 692.716 149.84 692.716 150.56V158H690.604ZM704.161 158.24C703.121 158.24 702.201 158 701.401 157.52C700.601 157.04 699.977 156.32 699.529 155.36C699.097 154.4 698.881 153.2 698.881 151.76V151.28C698.881 149.936 699.105 148.8 699.553 147.872C700.017 146.944 700.641 146.24 701.425 145.76C702.225 145.28 703.137 145.04 704.161 145.04C705.185 145.04 706.073 145.264 706.825 145.712C707.593 146.16 708.161 146.776 708.529 147.56V141.2H710.641V158H708.673V155.6C708.353 156.384 707.793 157.024 706.993 157.52C706.193 158 705.249 158.24 704.161 158.24ZM704.641 156.368C705.409 156.368 706.081 156.208 706.657 155.888C707.249 155.552 707.705 155.096 708.025 154.52C708.361 153.928 708.529 153.248 708.529 152.48V150.56C708.529 149.872 708.361 149.256 708.025 148.712C707.705 148.152 707.249 147.712 706.657 147.392C706.081 147.072 705.409 146.912 704.641 146.912C703.617 146.912 702.753 147.296 702.049 148.064C701.345 148.816 700.993 149.888 700.993 151.28V151.76C700.993 153.264 701.345 154.408 702.049 155.192C702.753 155.976 703.617 156.368 704.641 156.368ZM714.726 158V145.28H716.838V158H714.726ZM715.782 143.6C715.366 143.6 715.022 143.464 714.75 143.192C714.478 142.92 714.342 142.576 714.342 142.16C714.342 141.744 714.478 141.4 714.75 141.128C715.022 140.856 715.366 140.72 715.782 140.72C716.198 140.72 716.542 140.856 716.814 141.128C717.086 141.4 717.222 141.744 717.222 142.16C717.222 142.576 717.086 142.92 716.814 143.192C716.542 143.464 716.198 143.6 715.782 143.6ZM720.908 158V145.28H722.876V147.68C723.164 146.976 723.668 146.36 724.388 145.832C725.124 145.304 726.068 145.04 727.22 145.04C728.82 145.04 730.004 145.472 730.772 146.336C731.556 147.184 731.948 148.432 731.948 150.08V158H729.836V150.56C729.836 149.376 729.588 148.48 729.092 147.872C728.596 147.264 727.764 146.96 726.596 146.96C725.764 146.96 725.084 147.136 724.556 147.488C724.028 147.84 723.636 148.288 723.38 148.832C723.14 149.376 723.02 149.952 723.02 150.56V158H720.908ZM739.298 158.24C738.37 158.24 737.578 158.072 736.922 157.736C736.282 157.384 735.794 156.912 735.458 156.32C735.122 155.712 734.954 155.032 734.954 154.28C734.954 153.016 735.322 152.104 736.058 151.544C736.81 150.984 737.882 150.704 739.274 150.704H743.402V149.84C743.402 148.752 743.154 148 742.658 147.584C742.178 147.168 741.45 146.96 740.474 146.96C739.562 146.96 738.898 147.136 738.482 147.488C738.066 147.824 737.834 148.208 737.786 148.64H735.674C735.722 147.952 735.954 147.344 736.37 146.816C736.786 146.272 737.354 145.84 738.074 145.52C738.794 145.2 739.634 145.04 740.594 145.04C741.602 145.04 742.474 145.2 743.21 145.52C743.946 145.824 744.514 146.312 744.914 146.984C745.314 147.64 745.514 148.512 745.514 149.6V154.76C745.514 155.432 745.514 156.024 745.514 156.536C745.53 157.032 745.57 157.52 745.634 158H743.786C743.738 157.632 743.706 157.288 743.69 156.968C743.674 156.632 743.666 156.256 743.666 155.84C743.33 156.512 742.786 157.08 742.034 157.544C741.282 158.008 740.37 158.24 739.298 158.24ZM739.754 156.32C740.426 156.32 741.034 156.2 741.578 155.96C742.138 155.72 742.578 155.368 742.898 154.904C743.234 154.44 743.402 153.872 743.402 153.2V152.336H739.634C738.85 152.336 738.234 152.496 737.786 152.816C737.338 153.12 737.114 153.608 737.114 154.28C737.114 154.872 737.322 155.36 737.738 155.744C738.17 156.128 738.842 156.32 739.754 156.32ZM753.69 158.12C752.794 158.12 752.058 157.984 751.482 157.712C750.922 157.44 750.506 157.032 750.234 156.488C749.978 155.928 749.85 155.232 749.85 154.4V147.152H747.93V145.28H749.85V142.4H751.962V145.28H755.37V147.152H751.962V154.16C751.962 154.88 752.114 155.4 752.418 155.72C752.722 156.04 753.306 156.2 754.17 156.2C754.65 156.2 755.13 156.176 755.61 156.128V158C755.306 158.032 755.002 158.056 754.698 158.072C754.394 158.104 754.058 158.12 753.69 158.12ZM763.899 158.24C762.827 158.24 761.819 158.008 760.875 157.544C759.947 157.08 759.195 156.368 758.619 155.408C758.059 154.448 757.779 153.232 757.779 151.76V151.28C757.779 149.872 758.051 148.712 758.595 147.8C759.139 146.872 759.859 146.184 760.755 145.736C761.651 145.272 762.619 145.04 763.659 145.04C765.531 145.04 766.979 145.552 768.003 146.576C769.027 147.6 769.539 149.048 769.539 150.92V152.264H759.891C759.891 153.256 760.091 154.048 760.491 154.64C760.907 155.232 761.419 155.664 762.027 155.936C762.651 156.192 763.275 156.32 763.899 156.32C764.859 156.32 765.595 156.16 766.107 155.84C766.635 155.52 767.011 155.08 767.235 154.52H769.299C769.043 155.736 768.411 156.664 767.403 157.304C766.411 157.928 765.243 158.24 763.899 158.24ZM763.779 146.96C763.123 146.96 762.499 147.088 761.907 147.344C761.315 147.584 760.827 147.968 760.443 148.496C760.075 149.024 759.891 149.704 759.891 150.536H767.547C767.531 149.656 767.347 148.96 766.995 148.448C766.659 147.92 766.211 147.544 765.651 147.32C765.091 147.08 764.467 146.96 763.779 146.96ZM776.981 158.24C776.133 158.24 775.397 158.144 774.773 157.952C774.149 157.744 773.629 157.472 773.213 157.136C772.797 156.8 772.461 156.408 772.205 155.96C771.965 155.496 771.797 155.016 771.701 154.52H773.813C773.925 155.032 774.221 155.48 774.701 155.864C775.197 156.232 775.957 156.416 776.981 156.416C778.165 156.416 778.989 156.232 779.453 155.864C779.917 155.48 780.149 155.032 780.149 154.52C780.149 154.168 780.045 153.864 779.837 153.608C779.645 153.336 779.293 153.104 778.781 152.912C778.285 152.72 777.573 152.56 776.645 152.432C775.941 152.336 775.309 152.2 774.749 152.024C774.189 151.832 773.709 151.584 773.309 151.28C772.909 150.976 772.597 150.608 772.373 150.176C772.165 149.744 772.061 149.232 772.061 148.64C772.061 148 772.245 147.408 772.613 146.864C772.981 146.32 773.533 145.88 774.269 145.544C775.005 145.208 775.909 145.04 776.981 145.04C777.989 145.04 778.821 145.216 779.477 145.568C780.149 145.904 780.669 146.352 781.037 146.912C781.405 147.472 781.653 148.088 781.781 148.76H779.669C779.541 148.2 779.269 147.744 778.853 147.392C778.437 147.04 777.813 146.864 776.981 146.864C775.941 146.864 775.213 147.04 774.797 147.392C774.381 147.728 774.173 148.144 774.173 148.64C774.173 149.216 774.397 149.648 774.845 149.936C775.309 150.224 776.149 150.448 777.365 150.608C778.149 150.704 778.845 150.848 779.453 151.04C780.061 151.216 780.573 151.464 780.989 151.784C781.405 152.088 781.717 152.464 781.925 152.912C782.149 153.36 782.261 153.896 782.261 154.52C782.261 155.192 782.069 155.808 781.685 156.368C781.301 156.928 780.717 157.384 779.933 157.736C779.165 158.072 778.181 158.24 776.981 158.24ZM784.668 161.6L785.628 158V155.36H788.268V158L785.868 161.6H784.668ZM786.948 148.4C786.644 148.4 786.364 148.328 786.108 148.184C785.852 148.024 785.644 147.816 785.484 147.56C785.34 147.304 785.268 147.024 785.268 146.72C785.268 146.24 785.428 145.84 785.748 145.52C786.084 145.2 786.484 145.04 786.948 145.04C787.412 145.04 787.804 145.2 788.124 145.52C788.46 145.84 788.628 146.24 788.628 146.72C788.628 147.024 788.548 147.304 788.388 147.56C788.244 147.816 788.044 148.024 787.788 148.184C787.548 148.328 787.268 148.4 786.948 148.4ZM421.803 196.12C420.907 196.12 420.171 195.984 419.595 195.712C419.035 195.44 418.619 195.032 418.347 194.488C418.091 193.928 417.963 193.232 417.963 192.4V185.152H416.043V183.28H417.963V180.4H420.075V183.28H423.483V185.152H420.075V192.16C420.075 192.88 420.227 193.4 420.531 193.72C420.835 194.04 421.419 194.2 422.283 194.2C422.763 194.2 423.243 194.176 423.723 194.128V196C423.419 196.032 423.115 196.056 422.811 196.072C422.507 196.104 422.171 196.12 421.803 196.12ZM426.733 196V179.2H428.845V185.56C429.069 185.112 429.373 184.696 429.757 184.312C430.141 183.928 430.605 183.624 431.148 183.4C431.709 183.16 432.341 183.04 433.045 183.04C434.645 183.04 435.829 183.472 436.597 184.336C437.381 185.184 437.773 186.432 437.773 188.08V196H435.661V188.56C435.661 187.376 435.413 186.48 434.917 185.872C434.421 185.264 433.589 184.96 432.421 184.96C431.589 184.96 430.909 185.136 430.381 185.488C429.853 185.84 429.461 186.288 429.205 186.832C428.965 187.376 428.845 187.952 428.845 188.56V196H426.733ZM446.778 196.24C445.706 196.24 444.698 196.008 443.754 195.544C442.826 195.08 442.074 194.368 441.498 193.408C440.938 192.448 440.658 191.232 440.658 189.76V189.28C440.658 187.872 440.93 186.712 441.474 185.8C442.018 184.872 442.738 184.184 443.634 183.736C444.53 183.272 445.498 183.04 446.538 183.04C448.41 183.04 449.858 183.552 450.882 184.576C451.906 185.6 452.418 187.048 452.418 188.92V190.264H442.77C442.77 191.256 442.97 192.048 443.37 192.64C443.786 193.232 444.298 193.664 444.906 193.936C445.53 194.192 446.154 194.32 446.778 194.32C447.738 194.32 448.474 194.16 448.986 193.84C449.514 193.52 449.89 193.08 450.114 192.52H452.178C451.922 193.736 451.29 194.664 450.282 195.304C449.29 195.928 448.122 196.24 446.778 196.24ZM446.658 184.96C446.002 184.96 445.378 185.088 444.786 185.344C444.194 185.584 443.706 185.968 443.322 186.496C442.954 187.024 442.77 187.704 442.77 188.536H450.426C450.41 187.656 450.226 186.96 449.874 186.448C449.538 185.92 449.09 185.544 448.53 185.32C447.97 185.08 447.346 184.96 446.658 184.96ZM465.26 196.12C464.38 196.12 463.66 195.984 463.1 195.712C462.556 195.424 462.156 194.984 461.9 194.392C461.66 193.784 461.54 193 461.54 192.04V179.2H463.652V192.04C463.652 192.872 463.788 193.44 464.06 193.744C464.332 194.048 464.812 194.2 465.5 194.2C465.676 194.2 465.828 194.2 465.956 194.2C466.084 194.184 466.212 194.168 466.34 194.152V196.024C466.26 196.04 466.148 196.056 466.004 196.072C465.876 196.088 465.74 196.096 465.596 196.096C465.468 196.112 465.356 196.12 465.26 196.12ZM474.153 196.24C473.081 196.24 472.073 196.008 471.129 195.544C470.201 195.08 469.449 194.368 468.873 193.408C468.313 192.448 468.033 191.232 468.033 189.76V189.28C468.033 187.872 468.305 186.712 468.849 185.8C469.393 184.872 470.113 184.184 471.009 183.736C471.905 183.272 472.873 183.04 473.913 183.04C475.785 183.04 477.233 183.552 478.257 184.576C479.281 185.6 479.793 187.048 479.793 188.92V190.264H470.145C470.145 191.256 470.345 192.048 470.745 192.64C471.161 193.232 471.673 193.664 472.281 193.936C472.905 194.192 473.529 194.32 474.153 194.32C475.113 194.32 475.849 194.16 476.361 193.84C476.889 193.52 477.265 193.08 477.489 192.52H479.553C479.297 193.736 478.665 194.664 477.657 195.304C476.665 195.928 475.497 196.24 474.153 196.24ZM474.033 184.96C473.377 184.96 472.753 185.088 472.161 185.344C471.569 185.584 471.081 185.968 470.697 186.496C470.329 187.024 470.145 187.704 470.145 188.536H477.801C477.785 187.656 477.601 186.96 477.249 186.448C476.913 185.92 476.465 185.544 475.905 185.32C475.345 185.08 474.721 184.96 474.033 184.96ZM482.795 196V183.28H484.763V185.68C485.051 184.976 485.555 184.36 486.275 183.832C487.011 183.304 487.955 183.04 489.107 183.04C490.707 183.04 491.891 183.472 492.659 184.336C493.443 185.184 493.835 186.432 493.835 188.08V196H491.723V188.56C491.723 187.376 491.475 186.48 490.979 185.872C490.483 185.264 489.651 184.96 488.483 184.96C487.651 184.96 486.971 185.136 486.443 185.488C485.915 185.84 485.523 186.288 485.267 186.832C485.027 187.376 484.907 187.952 484.907 188.56V196H482.795ZM502.601 201.04C501.369 201.04 500.369 200.88 499.601 200.56C498.833 200.24 498.265 199.808 497.897 199.264C497.529 198.72 497.297 198.112 497.201 197.44H499.409C499.569 197.952 499.873 198.36 500.321 198.664C500.769 198.968 501.529 199.12 502.601 199.12C503.897 199.12 504.849 198.808 505.457 198.184C506.065 197.56 506.369 196.672 506.369 195.52V193.48C506.001 194.328 505.433 194.96 504.665 195.376C503.913 195.792 503.025 196 502.001 196C500.961 196 500.041 195.76 499.241 195.28C498.441 194.8 497.817 194.088 497.369 193.144C496.937 192.2 496.721 191.032 496.721 189.64V189.16C496.721 187.848 496.945 186.744 497.393 185.848C497.857 184.936 498.481 184.24 499.265 183.76C500.065 183.28 500.977 183.04 502.001 183.04C503.089 183.04 504.033 183.288 504.833 183.784C505.633 184.264 506.193 184.896 506.513 185.68V183.28H508.481V195.52C508.481 197.248 507.977 198.6 506.969 199.576C505.961 200.552 504.505 201.04 502.601 201.04ZM502.481 194.128C503.249 194.128 503.921 193.968 504.497 193.648C505.089 193.328 505.545 192.888 505.865 192.328C506.201 191.752 506.369 191.096 506.369 190.36V188.44C506.369 187.784 506.201 187.192 505.865 186.664C505.545 186.136 505.089 185.712 504.497 185.392C503.921 185.072 503.249 184.912 502.481 184.912C501.457 184.912 500.593 185.288 499.889 186.04C499.185 186.792 498.833 187.832 498.833 189.16V189.64C498.833 191.096 499.185 192.208 499.889 192.976C500.593 193.744 501.457 194.128 502.481 194.128ZM517.006 196.12C516.11 196.12 515.374 195.984 514.798 195.712C514.238 195.44 513.822 195.032 513.55 194.488C513.294 193.928 513.166 193.232 513.166 192.4V185.152H511.246V183.28H513.166V180.4H515.278V183.28H518.686V185.152H515.278V192.16C515.278 192.88 515.43 193.4 515.734 193.72C516.038 194.04 516.622 194.2 517.486 194.2C517.966 194.2 518.446 194.176 518.926 194.128V196C518.622 196.032 518.318 196.056 518.014 196.072C517.71 196.104 517.374 196.12 517.006 196.12ZM521.936 196V179.2H524.048V185.56C524.272 185.112 524.576 184.696 524.96 184.312C525.344 183.928 525.808 183.624 526.352 183.4C526.912 183.16 527.544 183.04 528.248 183.04C529.848 183.04 531.032 183.472 531.8 184.336C532.584 185.184 532.976 186.432 532.976 188.08V196H530.864V188.56C530.864 187.376 530.616 186.48 530.12 185.872C529.624 185.264 528.792 184.96 527.624 184.96C526.792 184.96 526.112 185.136 525.584 185.488C525.056 185.84 524.664 186.288 524.408 186.832C524.168 187.376 524.048 187.952 524.048 188.56V196H521.936ZM542.941 196V183.28H545.053V196H542.941ZM543.997 181.6C543.581 181.6 543.237 181.464 542.965 181.192C542.693 180.92 542.557 180.576 542.557 180.16C542.557 179.744 542.693 179.4 542.965 179.128C543.237 178.856 543.581 178.72 543.997 178.72C544.413 178.72 544.757 178.856 545.029 179.128C545.301 179.4 545.437 179.744 545.437 180.16C545.437 180.576 545.301 180.92 545.029 181.192C544.757 181.464 544.413 181.6 543.997 181.6ZM549.123 196V183.28H551.091V185.68C551.379 184.976 551.883 184.36 552.603 183.832C553.339 183.304 554.283 183.04 555.435 183.04C557.035 183.04 558.219 183.472 558.987 184.336C559.771 185.184 560.163 186.432 560.163 188.08V196H558.051V188.56C558.051 187.376 557.803 186.48 557.307 185.872C556.811 185.264 555.979 184.96 554.811 184.96C553.979 184.96 553.299 185.136 552.771 185.488C552.243 185.84 551.851 186.288 551.595 186.832C551.355 187.376 551.235 187.952 551.235 188.56V196H549.123ZM575.169 196.24C574.097 196.24 573.089 196.008 572.145 195.544C571.217 195.08 570.465 194.368 569.889 193.408C569.329 192.448 569.049 191.232 569.049 189.76V189.28C569.049 187.872 569.321 186.712 569.865 185.8C570.409 184.872 571.129 184.184 572.025 183.736C572.921 183.272 573.889 183.04 574.929 183.04C576.801 183.04 578.249 183.552 579.273 184.576C580.297 185.6 580.809 187.048 580.809 188.92V190.264H571.161C571.161 191.256 571.361 192.048 571.761 192.64C572.177 193.232 572.689 193.664 573.297 193.936C573.921 194.192 574.545 194.32 575.169 194.32C576.129 194.32 576.865 194.16 577.377 193.84C577.905 193.52 578.281 193.08 578.505 192.52H580.569C580.313 193.736 579.681 194.664 578.673 195.304C577.681 195.928 576.513 196.24 575.169 196.24ZM575.049 184.96C574.393 184.96 573.769 185.088 573.177 185.344C572.585 185.584 572.097 185.968 571.713 186.496C571.345 187.024 571.161 187.704 571.161 188.536H578.817C578.801 187.656 578.617 186.96 578.265 186.448C577.929 185.92 577.481 185.544 576.921 185.32C576.361 185.08 575.737 184.96 575.049 184.96ZM587.435 196.24C586.507 196.24 585.715 196.072 585.059 195.736C584.419 195.384 583.931 194.912 583.595 194.32C583.259 193.712 583.091 193.032 583.091 192.28C583.091 191.016 583.459 190.104 584.195 189.544C584.947 188.984 586.019 188.704 587.411 188.704H591.539V187.84C591.539 186.752 591.291 186 590.795 185.584C590.315 185.168 589.587 184.96 588.611 184.96C587.699 184.96 587.035 185.136 586.619 185.488C586.203 185.824 585.971 186.208 585.923 186.64H583.811C583.859 185.952 584.091 185.344 584.507 184.816C584.923 184.272 585.491 183.84 586.211 183.52C586.931 183.2 587.771 183.04 588.731 183.04C589.739 183.04 590.611 183.2 591.347 183.52C592.083 183.824 592.651 184.312 593.051 184.984C593.451 185.64 593.651 186.512 593.651 187.6V192.76C593.651 193.432 593.651 194.024 593.651 194.536C593.667 195.032 593.707 195.52 593.771 196H591.923C591.875 195.632 591.843 195.288 591.827 194.968C591.811 194.632 591.803 194.256 591.803 193.84C591.467 194.512 590.923 195.08 590.171 195.544C589.419 196.008 588.507 196.24 587.435 196.24ZM587.891 194.32C588.563 194.32 589.171 194.2 589.715 193.96C590.275 193.72 590.715 193.368 591.035 192.904C591.371 192.44 591.539 191.872 591.539 191.2V190.336H587.771C586.987 190.336 586.371 190.496 585.923 190.816C585.475 191.12 585.251 191.608 585.251 192.28C585.251 192.872 585.459 193.36 585.875 193.744C586.307 194.128 586.979 194.32 587.891 194.32ZM602.301 196.24C601.213 196.24 600.229 196.008 599.349 195.544C598.485 195.064 597.797 194.344 597.285 193.384C596.789 192.424 596.541 191.216 596.541 189.76V189.28C596.541 187.904 596.813 186.752 597.357 185.824C597.901 184.896 598.613 184.2 599.493 183.736C600.373 183.272 601.309 183.04 602.301 183.04C603.309 183.04 604.173 183.224 604.893 183.592C605.629 183.944 606.221 184.432 606.669 185.056C607.117 185.664 607.421 186.352 607.581 187.12H605.421C605.165 186.512 604.805 186 604.341 185.584C603.893 185.168 603.213 184.96 602.301 184.96C601.677 184.96 601.093 185.112 600.549 185.416C600.005 185.704 599.557 186.168 599.205 186.808C598.869 187.432 598.701 188.256 598.701 189.28V189.76C598.701 190.848 598.869 191.728 599.205 192.4C599.557 193.072 600.005 193.56 600.549 193.864C601.093 194.168 601.677 194.32 602.301 194.32C603.085 194.32 603.741 194.128 604.269 193.744C604.813 193.36 605.197 192.832 605.421 192.16H607.581C607.389 192.992 607.045 193.72 606.549 194.344C606.053 194.952 605.445 195.424 604.725 195.76C604.005 196.08 603.197 196.24 602.301 196.24ZM610.459 196V179.2H612.571V185.56C612.795 185.112 613.099 184.696 613.483 184.312C613.867 183.928 614.331 183.624 614.875 183.4C615.435 183.16 616.067 183.04 616.771 183.04C618.371 183.04 619.555 183.472 620.323 184.336C621.107 185.184 621.499 186.432 621.499 188.08V196H619.387V188.56C619.387 187.376 619.139 186.48 618.643 185.872C618.147 185.264 617.315 184.96 616.147 184.96C615.315 184.96 614.635 185.136 614.107 185.488C613.579 185.84 613.187 186.288 612.931 186.832C612.691 187.376 612.571 187.952 612.571 188.56V196H610.459ZM635.665 196.24C634.625 196.24 633.705 196 632.905 195.52C632.105 195.04 631.481 194.32 631.033 193.36C630.601 192.4 630.385 191.2 630.385 189.76V189.28C630.385 187.936 630.609 186.8 631.057 185.872C631.521 184.944 632.145 184.24 632.929 183.76C633.729 183.28 634.641 183.04 635.665 183.04C636.689 183.04 637.577 183.264 638.329 183.712C639.097 184.16 639.665 184.776 640.033 185.56V179.2H642.145V196H640.177V193.6C639.857 194.384 639.297 195.024 638.497 195.52C637.697 196 636.753 196.24 635.665 196.24ZM636.145 194.368C636.913 194.368 637.585 194.208 638.161 193.888C638.753 193.552 639.209 193.096 639.529 192.52C639.865 191.928 640.033 191.248 640.033 190.48V188.56C640.033 187.872 639.865 187.256 639.529 186.712C639.209 186.152 638.753 185.712 638.161 185.392C637.585 185.072 636.913 184.912 636.145 184.912C635.121 184.912 634.257 185.296 633.553 186.064C632.849 186.816 632.497 187.888 632.497 189.28V189.76C632.497 191.264 632.849 192.408 633.553 193.192C634.257 193.976 635.121 194.368 636.145 194.368ZM646.23 196V183.28H648.342V196H646.23ZM647.286 181.6C646.87 181.6 646.526 181.464 646.254 181.192C645.982 180.92 645.846 180.576 645.846 180.16C645.846 179.744 645.982 179.4 646.254 179.128C646.526 178.856 646.87 178.72 647.286 178.72C647.702 178.72 648.046 178.856 648.318 179.128C648.59 179.4 648.726 179.744 648.726 180.16C648.726 180.576 648.59 180.92 648.318 181.192C648.046 181.464 647.702 181.6 647.286 181.6ZM652.412 196V183.28H654.38V185.68C654.572 185.168 654.836 184.72 655.172 184.336C655.508 183.936 655.916 183.624 656.396 183.4C656.892 183.16 657.444 183.04 658.052 183.04C658.372 183.04 658.628 183.056 658.82 183.088C659.028 183.12 659.212 183.16 659.372 183.208V185.176C659.164 185.096 658.956 185.04 658.748 185.008C658.556 184.976 658.284 184.96 657.932 184.96C657.292 184.96 656.716 185.112 656.204 185.416C655.692 185.72 655.284 186.144 654.98 186.688C654.676 187.216 654.524 187.84 654.524 188.56V196H652.412ZM666.809 196.24C665.737 196.24 664.729 196.008 663.785 195.544C662.857 195.08 662.105 194.368 661.529 193.408C660.969 192.448 660.689 191.232 660.689 189.76V189.28C660.689 187.872 660.961 186.712 661.505 185.8C662.049 184.872 662.769 184.184 663.665 183.736C664.561 183.272 665.529 183.04 666.569 183.04C668.441 183.04 669.889 183.552 670.913 184.576C671.937 185.6 672.449 187.048 672.449 188.92V190.264H662.801C662.801 191.256 663.001 192.048 663.401 192.64C663.817 193.232 664.329 193.664 664.937 193.936C665.561 194.192 666.185 194.32 666.809 194.32C667.769 194.32 668.505 194.16 669.017 193.84C669.545 193.52 669.921 193.08 670.145 192.52H672.209C671.953 193.736 671.321 194.664 670.313 195.304C669.321 195.928 668.153 196.24 666.809 196.24ZM666.689 184.96C666.033 184.96 665.409 185.088 664.817 185.344C664.225 185.584 663.737 185.968 663.353 186.496C662.985 187.024 662.801 187.704 662.801 188.536H670.457C670.441 187.656 670.257 186.96 669.905 186.448C669.569 185.92 669.121 185.544 668.561 185.32C668.001 185.08 667.377 184.96 666.689 184.96ZM680.371 196.24C679.283 196.24 678.299 196.008 677.419 195.544C676.555 195.064 675.867 194.344 675.355 193.384C674.859 192.424 674.611 191.216 674.611 189.76V189.28C674.611 187.904 674.883 186.752 675.427 185.824C675.971 184.896 676.683 184.2 677.563 183.736C678.443 183.272 679.379 183.04 680.371 183.04C681.379 183.04 682.243 183.224 682.963 183.592C683.699 183.944 684.291 184.432 684.739 185.056C685.187 185.664 685.491 186.352 685.651 187.12H683.491C683.235 186.512 682.875 186 682.411 185.584C681.963 185.168 681.283 184.96 680.371 184.96C679.747 184.96 679.163 185.112 678.619 185.416C678.075 185.704 677.627 186.168 677.275 186.808C676.939 187.432 676.771 188.256 676.771 189.28V189.76C676.771 190.848 676.939 191.728 677.275 192.4C677.627 193.072 678.075 193.56 678.619 193.864C679.163 194.168 679.747 194.32 680.371 194.32C681.155 194.32 681.811 194.128 682.339 193.744C682.883 193.36 683.267 192.832 683.491 192.16H685.651C685.459 192.992 685.115 193.72 684.619 194.344C684.123 194.952 683.515 195.424 682.795 195.76C682.075 196.08 681.267 196.24 680.371 196.24ZM693.209 196.12C692.313 196.12 691.577 195.984 691.001 195.712C690.441 195.44 690.025 195.032 689.753 194.488C689.497 193.928 689.369 193.232 689.369 192.4V185.152H687.449V183.28H689.369V180.4H691.481V183.28H694.889V185.152H691.481V192.16C691.481 192.88 691.633 193.4 691.937 193.72C692.241 194.04 692.825 194.2 693.689 194.2C694.169 194.2 694.649 194.176 695.129 194.128V196C694.825 196.032 694.521 196.056 694.217 196.072C693.913 196.104 693.577 196.12 693.209 196.12ZM698.379 196V183.28H700.491V196H698.379ZM699.435 181.6C699.019 181.6 698.675 181.464 698.403 181.192C698.131 180.92 697.995 180.576 697.995 180.16C697.995 179.744 698.131 179.4 698.403 179.128C698.675 178.856 699.019 178.72 699.435 178.72C699.851 178.72 700.195 178.856 700.467 179.128C700.739 179.4 700.875 179.744 700.875 180.16C700.875 180.576 700.739 180.92 700.467 181.192C700.195 181.464 699.851 181.6 699.435 181.6ZM709.841 196.24C708.769 196.24 707.761 196.008 706.817 195.544C705.889 195.064 705.137 194.344 704.561 193.384C704.001 192.424 703.721 191.216 703.721 189.76V189.28C703.721 187.904 704.001 186.752 704.561 185.824C705.137 184.896 705.889 184.2 706.817 183.736C707.761 183.272 708.769 183.04 709.841 183.04C710.929 183.04 711.937 183.272 712.865 183.736C713.793 184.2 714.537 184.896 715.097 185.824C715.673 186.752 715.961 187.904 715.961 189.28V189.76C715.961 191.216 715.673 192.424 715.097 193.384C714.537 194.344 713.793 195.064 712.865 195.544C711.937 196.008 710.929 196.24 709.841 196.24ZM709.841 194.32C710.497 194.32 711.121 194.176 711.713 193.888C712.321 193.584 712.817 193.096 713.201 192.424C713.601 191.752 713.801 190.864 713.801 189.76V189.28C713.801 188.256 713.601 187.432 713.201 186.808C712.817 186.168 712.321 185.704 711.713 185.416C711.121 185.112 710.497 184.96 709.841 184.96C709.201 184.96 708.577 185.112 707.969 185.416C707.361 185.704 706.857 186.168 706.457 186.808C706.073 187.432 705.881 188.256 705.881 189.28V189.76C705.881 190.864 706.073 191.752 706.457 192.424C706.857 193.096 707.361 193.584 707.969 193.888C708.577 194.176 709.201 194.32 709.841 194.32ZM718.951 196V183.28H720.919V185.68C721.207 184.976 721.711 184.36 722.431 183.832C723.167 183.304 724.111 183.04 725.263 183.04C726.863 183.04 728.047 183.472 728.815 184.336C729.599 185.184 729.991 186.432 729.991 188.08V196H727.879V188.56C727.879 187.376 727.631 186.48 727.135 185.872C726.639 185.264 725.807 184.96 724.639 184.96C723.807 184.96 723.127 185.136 722.599 185.488C722.071 185.84 721.679 186.288 721.423 186.832C721.183 187.376 721.063 187.952 721.063 188.56V196H718.951Z" fill="#0C0824"/>
<path d="M587.079 215.61C587.295 215.101 587.881 214.864 588.39 215.079C588.899 215.295 589.136 215.881 588.921 216.39L587.079 215.61ZM227.293 408.707C226.902 408.317 226.902 407.683 227.293 407.293L233.657 400.929C234.047 400.538 234.681 400.538 235.071 400.929C235.462 401.319 235.462 401.953 235.071 402.343L229.414 408L235.071 413.657C235.462 414.047 235.462 414.681 235.071 415.071C234.681 415.462 234.047 415.462 233.657 415.071L227.293 408.707ZM588 216L588.921 216.39C563.779 275.751 501.511 323.889 431.68 357.171C361.825 390.465 284.178 409 228 409L228 408L228 407C283.822 407 361.175 388.56 430.82 355.366C500.489 322.161 562.221 274.299 587.079 215.61L588 216Z" fill="#0C0824"/>
<path d="M555.572 215.096C556.071 214.86 556.667 215.073 556.904 215.572C557.14 216.071 556.927 216.667 556.428 216.904L555.572 215.096ZM113.095 224.973C112.86 224.474 113.074 223.878 113.574 223.642L121.714 219.804C122.214 219.569 122.81 219.783 123.045 220.283C123.281 220.782 123.067 221.378 122.567 221.614L115.331 225.025L118.742 232.261C118.978 232.761 118.764 233.357 118.264 233.592C117.765 233.828 117.169 233.614 116.933 233.114L113.095 224.973ZM556 216L556.428 216.904C509.239 239.255 429.607 252.545 346.327 254.692C263.032 256.839 175.894 247.843 113.662 225.488L114 224.547L114.338 223.606C176.244 245.843 263.106 254.836 346.276 252.692C429.462 250.548 508.761 237.269 555.572 215.096L556 216Z" fill="#0C0824"/>
<path d="M91.6667 366C91.6667 368.946 94.0545 371.333 97 371.333C99.9455 371.333 102.333 368.946 102.333 366C102.333 363.054 99.9455 360.667 97 360.667C94.0545 360.667 91.6667 363.054 91.6667 366ZM273.707 366.707C274.098 366.317 274.098 365.683 273.707 365.293L267.343 358.929C266.953 358.538 266.319 358.538 265.929 358.929C265.538 359.319 265.538 359.953 265.929 360.343L271.586 366L265.929 371.657C265.538 372.047 265.538 372.681 265.929 373.071C266.319 373.462 266.953 373.462 267.343 373.071L273.707 366.707ZM97 366V367H273V366V365H97V366Z" fill="#656AFF"/>
<path d="M97 371.333C99.9455 371.333 102.333 368.946 102.333 366C102.333 363.054 99.9455 360.667 97 360.667C94.0545 360.667 91.6667 363.054 91.6667 366C91.6667 368.946 94.0545 371.333 97 371.333ZM97.7071 25.2929C97.3166 24.9024 96.6834 24.9024 96.2929 25.2929L89.9289 31.6568C89.5384 32.0474 89.5384 32.6805 89.9289 33.0711C90.3194 33.4616 90.9526 33.4616 91.3431 33.0711L97 27.4142L102.657 33.0711C103.047 33.4616 103.681 33.4616 104.071 33.0711C104.462 32.6805 104.462 32.0474 104.071 31.6568L97.7071 25.2929ZM97 366L98 366L98 26L97 26L96 26L96 366L97 366Z" fill="#656AFF"/>
<path d="M169.253 393.25C169.253 392.125 168.826 391.563 167.971 391.563C166.892 391.563 165.768 392.215 164.599 393.519C163.429 394.824 162.463 396.825 161.698 399.523C161.653 399.568 161.608 399.635 161.563 399.725C161.518 399.815 161.496 399.883 161.496 399.928C161.496 399.973 161.451 400.017 161.361 400.062C161.271 400.107 161.203 400.13 161.159 400.13C161.114 400.13 161.024 400.13 160.889 400.13C160.754 400.13 160.574 400.13 160.349 400.13H159.405C159.135 399.86 159 399.658 159 399.523C159 399.208 159.18 398.556 159.54 397.567C159.899 396.577 160.439 395.408 161.159 394.059C161.878 392.71 162.867 391.563 164.126 390.619C165.386 389.675 166.802 389.18 168.376 389.135C170.265 389.135 171.726 389.675 172.761 390.754C173.795 391.833 174.334 393.092 174.379 394.531C174.379 395.296 174.312 395.88 174.177 396.285C174.177 396.555 173.84 397.544 173.165 399.253C172.491 400.962 171.794 402.963 171.074 405.256C170.355 407.55 169.95 409.551 169.86 411.26C169.86 412.474 169.972 413.463 170.197 414.228C170.782 416.161 172.198 417.128 174.447 417.128C176.111 417.128 177.662 416.364 179.101 414.835C180.54 413.306 181.664 411.53 182.474 409.506C183.283 407.482 183.935 405.616 184.43 403.907C184.925 402.198 185.172 400.962 185.172 400.197C185.172 399.163 184.992 398.264 184.632 397.499C184.273 396.735 183.868 396.15 183.418 395.745C182.969 395.341 182.564 394.936 182.204 394.531C181.844 394.127 181.664 393.632 181.664 393.047C181.664 392.058 182.092 391.136 182.946 390.282C183.8 389.427 184.722 389 185.712 389C186.566 389 187.331 389.405 188.005 390.214C188.68 391.024 189.039 392.328 189.084 394.127C189.084 395.341 188.815 397.207 188.275 399.725C187.735 402.243 186.903 405.054 185.779 408.157C184.655 411.26 183.058 413.935 180.99 416.184C178.921 418.432 176.538 419.579 173.84 419.624C170.962 419.624 168.668 418.882 166.96 417.398C165.296 415.959 164.464 413.823 164.464 410.99C164.464 409.596 164.644 408.157 165.003 406.673C165.363 405.189 166.285 402.558 167.769 398.781C168.758 395.903 169.253 394.059 169.253 393.25Z" fill="#656AFF"/>
<path d="M200.457 401.435L199.837 401.674C199.391 401.833 198.756 401.992 197.929 402.151C197.102 402.31 196.18 402.421 195.163 402.485H194.257V400.291H195.163C196.657 400.227 198.04 399.989 199.312 399.575C200.584 399.162 201.474 398.781 201.983 398.431C202.491 398.081 202.936 397.731 203.318 397.382C203.381 397.286 203.572 397.239 203.89 397.239C204.176 397.239 204.447 397.334 204.701 397.525V411.784L204.749 426.091C204.971 426.313 205.162 426.457 205.321 426.52C205.48 426.584 205.861 426.647 206.465 426.711C207.069 426.774 208.055 426.806 209.422 426.806H210.662V429H210.138C209.47 428.905 206.942 428.857 202.555 428.857C198.231 428.857 195.735 428.905 195.068 429H194.495V426.806H195.735C196.435 426.806 197.039 426.806 197.547 426.806C198.056 426.806 198.454 426.79 198.74 426.759C199.026 426.727 199.28 426.679 199.503 426.616C199.725 426.552 199.852 426.52 199.884 426.52C199.916 426.52 200.011 426.441 200.17 426.282C200.329 426.123 200.425 426.059 200.457 426.091V401.435Z" fill="#656AFF"/>
<path d="M33.253 180.25C33.253 179.125 32.8258 178.563 31.9713 178.563C30.8921 178.563 29.7679 179.215 28.5987 180.519C27.4295 181.824 26.4626 183.825 25.6981 186.523C25.6532 186.568 25.6082 186.635 25.5632 186.725C25.5183 186.815 25.4958 186.883 25.4958 186.928C25.4958 186.973 25.4508 187.017 25.3609 187.062C25.2709 187.107 25.2035 187.13 25.1585 187.13C25.1135 187.13 25.0236 187.13 24.8887 187.13C24.7538 187.13 24.5739 187.13 24.3491 187.13H23.4047C23.1349 186.86 23 186.658 23 186.523C23 186.208 23.1799 185.556 23.5396 184.567C23.8994 183.577 24.439 182.408 25.1585 181.059C25.878 179.71 26.8673 178.563 28.1265 177.619C29.3856 176.675 30.8021 176.18 32.3761 176.135C34.2648 176.135 35.7263 176.675 36.7605 177.754C37.7948 178.833 38.3345 180.092 38.3794 181.531C38.3794 182.296 38.312 182.88 38.1771 183.285C38.1771 183.555 37.8398 184.544 37.1653 186.253C36.4907 187.962 35.7937 189.963 35.0742 192.256C34.3547 194.55 33.95 196.551 33.86 198.26C33.86 199.474 33.9725 200.463 34.1973 201.228C34.7819 203.161 36.1984 204.128 38.4469 204.128C40.1107 204.128 41.6622 203.364 43.1012 201.835C44.5402 200.306 45.6644 198.53 46.4739 196.506C47.2833 194.482 47.9354 192.616 48.43 190.907C48.9247 189.198 49.172 187.962 49.172 187.197C49.172 186.163 48.9921 185.264 48.6324 184.499C48.2726 183.735 47.8679 183.15 47.4182 182.745C46.9685 182.341 46.5638 181.936 46.2041 181.531C45.8443 181.127 45.6644 180.632 45.6644 180.047C45.6644 179.058 46.0916 178.136 46.9461 177.282C47.8005 176.427 48.7223 176 49.7117 176C50.5661 176 51.3305 176.405 52.0051 177.214C52.6796 178.024 53.0394 179.328 53.0843 181.127C53.0843 182.341 52.8145 184.207 52.2749 186.725C51.7353 189.243 50.9033 192.054 49.7791 195.157C48.6549 198.26 47.0585 200.935 44.9899 203.184C42.9213 205.432 40.538 206.579 37.8398 206.624C34.9618 206.624 32.6684 205.882 30.9595 204.398C29.2957 202.959 28.4637 200.823 28.4637 197.99C28.4637 196.596 28.6436 195.157 29.0034 193.673C29.3631 192.189 30.285 189.558 31.769 185.781C32.7583 182.903 33.253 181.059 33.253 180.25Z" fill="#656AFF"/>
<path d="M59.4966 195.541C58.6381 195.541 57.9546 195.255 57.4459 194.683C56.9372 194.11 56.6829 193.411 56.6829 192.584C56.6829 190.327 57.5254 188.372 59.2104 186.718C60.8955 185.065 62.9938 184.239 65.5055 184.239C68.3986 184.239 70.8149 185.129 72.7543 186.909C74.6937 188.69 75.6793 190.995 75.7111 193.824C75.7111 195.191 75.3931 196.495 74.7573 197.735C74.1214 198.975 73.3584 200.056 72.4682 200.978C71.578 201.9 70.3062 203.076 68.653 204.507C67.5084 205.492 65.9188 206.955 63.884 208.894L61.0703 211.565L64.6947 211.613C69.6863 211.613 72.341 211.533 72.6589 211.374C72.8815 211.311 73.263 209.896 73.8035 207.13V206.987H75.7111V207.13C75.6793 207.225 75.4726 208.672 75.0911 211.469C74.7096 214.267 74.4711 215.73 74.3758 215.857V216H56.6829V215.094V214.522C56.6829 214.299 56.7782 214.061 56.969 213.806C57.1598 213.552 57.6367 212.996 58.3997 212.137C59.3217 211.12 60.1165 210.23 60.7842 209.467C61.0703 209.149 61.6108 208.56 62.4056 207.702C63.2005 206.844 63.7409 206.255 64.0271 205.937C64.3132 205.62 64.7742 205.095 65.4101 204.364C66.0459 203.632 66.4911 203.092 66.7454 202.742C66.9997 202.393 67.3654 201.916 67.8423 201.312C68.3192 200.707 68.653 200.199 68.8437 199.785C69.0345 199.372 69.273 198.911 69.5591 198.402C69.8452 197.894 70.0519 197.385 70.1791 196.876C70.3062 196.368 70.4175 195.891 70.5129 195.446C70.6083 195.001 70.656 194.476 70.656 193.872C70.656 191.869 70.1155 190.136 69.0345 188.674C67.9535 187.211 66.4116 186.48 64.4086 186.48C63.3594 186.48 62.4374 186.75 61.6426 187.291C60.8478 187.831 60.2914 188.356 59.9735 188.865C59.6555 189.373 59.4966 189.675 59.4966 189.771C59.4966 189.802 59.576 189.818 59.735 189.818C60.3073 189.818 60.8955 190.041 61.4995 190.486C62.1036 190.931 62.4056 191.662 62.4056 192.68C62.4056 193.475 62.1513 194.142 61.6426 194.683C61.1339 195.223 60.4186 195.509 59.4966 195.541Z" fill="#656AFF"/>
<path d="M75.6667 366C75.6667 377.782 85.2179 387.333 97 387.333C108.782 387.333 118.333 377.782 118.333 366C118.333 354.218 108.782 344.667 97 344.667C85.2179 344.667 75.6667 354.218 75.6667 366ZM276.812 24.7884C276.143 22.683 273.894 21.5188 271.788 22.1879L237.48 33.0923C235.374 33.7614 234.21 36.0106 234.879 38.1159C235.548 40.2213 237.797 41.3856 239.903 40.7164L270.4 31.0237L280.092 61.5204C280.761 63.6258 283.011 64.7901 285.116 64.1209C287.221 63.4518 288.386 61.2026 287.716 59.0972L276.812 24.7884ZM97 366L100.552 367.839L276.552 27.8388L273 26L269.448 24.1612L93.4477 364.161L97 366Z" fill="#656AFF"/>
<path d="M269.565 142.302C269.565 141.164 269.125 140.595 268.244 140.595C267.132 140.595 265.974 141.255 264.769 142.575C263.564 143.895 262.568 145.921 261.78 148.652C261.734 148.698 261.688 148.766 261.641 148.857C261.595 148.948 261.572 149.016 261.572 149.062C261.572 149.107 261.525 149.153 261.433 149.198C261.34 149.244 261.271 149.267 261.224 149.267C261.178 149.267 261.085 149.267 260.946 149.267C260.807 149.267 260.622 149.267 260.39 149.267H259.417C259.139 148.993 259 148.789 259 148.652C259 148.333 259.185 147.673 259.556 146.672C259.927 145.67 260.483 144.487 261.224 143.121C261.966 141.756 262.985 140.595 264.283 139.639C265.58 138.683 267.04 138.182 268.661 138.137C270.608 138.137 272.114 138.683 273.179 139.775C274.245 140.868 274.801 142.142 274.848 143.599C274.848 144.373 274.778 144.965 274.639 145.374C274.639 145.648 274.291 146.649 273.596 148.379C272.901 150.109 272.183 152.134 271.442 154.456C270.7 156.778 270.283 158.803 270.191 160.533C270.191 161.762 270.306 162.764 270.538 163.537C271.141 165.495 272.6 166.474 274.917 166.474C276.632 166.474 278.23 165.7 279.713 164.152C281.196 162.604 282.354 160.806 283.188 158.758C284.022 156.709 284.694 154.82 285.204 153.09C285.714 151.36 285.969 150.109 285.969 149.335C285.969 148.288 285.783 147.377 285.413 146.604C285.042 145.83 284.625 145.238 284.161 144.828C283.698 144.419 283.281 144.009 282.91 143.599C282.54 143.189 282.354 142.689 282.354 142.097C282.354 141.095 282.794 140.162 283.675 139.297C284.555 138.432 285.505 138 286.525 138C287.405 138 288.193 138.41 288.888 139.229C289.583 140.048 289.954 141.369 290 143.189C290 144.419 289.722 146.308 289.166 148.857C288.61 151.406 287.753 154.251 286.594 157.392C285.436 160.533 283.791 163.242 281.659 165.518C279.528 167.794 277.072 168.954 274.291 169C271.326 169 268.963 168.249 267.202 166.747C265.487 165.29 264.63 163.128 264.63 160.26C264.63 158.849 264.815 157.392 265.186 155.89C265.557 154.388 266.507 151.725 268.036 147.901C269.055 144.988 269.565 143.121 269.565 142.302Z" fill="#656AFF"/>
</svg>
