<svg width="814" height="455" viewBox="0 0 814 455" fill="none" xmlns="http://www.w3.org/2000/svg">
<path d="M254.5 302V289.28H256.612V302H254.5ZM255.556 287.6C255.14 287.6 254.796 287.464 254.524 287.192C254.252 286.92 254.116 286.576 254.116 286.16C254.116 285.744 254.252 285.4 254.524 285.128C254.796 284.856 255.14 284.72 255.556 284.72C255.972 284.72 256.316 284.856 256.588 285.128C256.86 285.4 256.996 285.744 256.996 286.16C256.996 286.576 256.86 286.92 256.588 287.192C256.316 287.464 255.972 287.6 255.556 287.6ZM260.682 302V289.28H262.65V291.68C262.938 290.976 263.442 290.36 264.162 289.832C264.898 289.304 265.842 289.04 266.994 289.04C268.594 289.04 269.778 289.472 270.546 290.336C271.33 291.184 271.722 292.432 271.722 294.08V302H269.61V294.56C269.61 293.376 269.362 292.48 268.866 291.872C268.37 291.264 267.538 290.96 266.37 290.96C265.538 290.96 264.858 291.136 264.33 291.488C263.802 291.84 263.41 292.288 263.154 292.832C262.914 293.376 262.794 293.952 262.794 294.56V302H260.682ZM280.487 302V300.152L287.207 294.32C287.895 293.744 288.423 293.24 288.791 292.808C289.159 292.36 289.407 291.936 289.535 291.536C289.679 291.136 289.751 290.704 289.751 290.24C289.751 289.296 289.471 288.52 288.911 287.912C288.351 287.288 287.583 286.976 286.607 286.976C285.439 286.976 284.543 287.296 283.919 287.936C283.295 288.56 282.983 289.448 282.983 290.6H280.727C280.727 289.496 280.967 288.52 281.447 287.672C281.943 286.824 282.631 286.16 283.511 285.68C284.407 285.2 285.439 284.96 286.607 284.96C287.743 284.96 288.711 285.192 289.511 285.656C290.327 286.104 290.943 286.728 291.359 287.528C291.791 288.312 292.007 289.216 292.007 290.24C292.007 291.008 291.855 291.712 291.551 292.352C291.247 292.976 290.823 293.568 290.279 294.128C289.751 294.688 289.135 295.272 288.431 295.88L283.415 300.032H292.247V302H280.487ZM295.849 302V285.2H300.769C302.449 285.2 303.889 285.504 305.089 286.112C306.289 286.72 307.209 287.624 307.849 288.824C308.489 290.008 308.809 291.48 308.809 293.24V293.72C308.809 295.512 308.481 297.024 307.825 298.256C307.169 299.488 306.217 300.424 304.969 301.064C303.737 301.688 302.257 302 300.529 302H295.849ZM298.105 300.032H300.289C301.553 300.032 302.641 299.816 303.553 299.384C304.465 298.952 305.169 298.272 305.665 297.344C306.161 296.416 306.409 295.208 306.409 293.72V293.24C306.409 291.8 306.169 290.64 305.689 289.76C305.209 288.864 304.529 288.208 303.649 287.792C302.769 287.376 301.729 287.168 300.529 287.168H298.105V300.032ZM311.105 305.6L312.065 302V299.36H314.705V302L312.305 305.6H311.105ZM326.58 307.04C326.34 307.04 326.1 307.016 325.86 306.968V305.048C326.1 305.096 326.34 305.12 326.58 305.12C326.9 305.12 327.164 305.04 327.372 304.88C327.596 304.736 327.82 304.44 328.044 303.992C328.268 303.544 328.54 302.88 328.86 302L323.46 289.28H325.812L329.94 299.6L333.684 289.28H335.94L331.14 302C330.692 303.2 330.26 304.168 329.844 304.904C329.444 305.64 328.988 306.176 328.476 306.512C327.98 306.864 327.348 307.04 326.58 307.04ZM343.141 302.24C342.069 302.24 341.061 302.008 340.117 301.544C339.189 301.064 338.437 300.344 337.861 299.384C337.301 298.424 337.021 297.216 337.021 295.76V295.28C337.021 293.904 337.301 292.752 337.861 291.824C338.437 290.896 339.189 290.2 340.117 289.736C341.061 289.272 342.069 289.04 343.141 289.04C344.229 289.04 345.237 289.272 346.165 289.736C347.093 290.2 347.837 290.896 348.397 291.824C348.973 292.752 349.261 293.904 349.261 295.28V295.76C349.261 297.216 348.973 298.424 348.397 299.384C347.837 300.344 347.093 301.064 346.165 301.544C345.237 302.008 344.229 302.24 343.141 302.24ZM343.141 300.32C343.797 300.32 344.421 300.176 345.013 299.888C345.621 299.584 346.117 299.096 346.501 298.424C346.901 297.752 347.101 296.864 347.101 295.76V295.28C347.101 294.256 346.901 293.432 346.501 292.808C346.117 292.168 345.621 291.704 345.013 291.416C344.421 291.112 343.797 290.96 343.141 290.96C342.501 290.96 341.877 291.112 341.269 291.416C340.661 291.704 340.157 292.168 339.757 292.808C339.373 293.432 339.181 294.256 339.181 295.28V295.76C339.181 296.864 339.373 297.752 339.757 298.424C340.157 299.096 340.661 299.584 341.269 299.888C341.877 300.176 342.501 300.32 343.141 300.32ZM356.74 302.24C355.204 302.24 354.052 301.8 353.284 300.92C352.516 300.04 352.132 298.68 352.132 296.84V289.28H354.244V296.72C354.244 297.904 354.484 298.8 354.964 299.408C355.46 300.016 356.26 300.32 357.364 300.32C358.164 300.32 358.82 300.144 359.332 299.792C359.844 299.44 360.22 298.992 360.46 298.448C360.7 297.888 360.82 297.312 360.82 296.72V289.28H362.932V302H360.964V299.6C360.676 300.304 360.172 300.92 359.452 301.448C358.732 301.976 357.828 302.24 356.74 302.24ZM377.703 302.24C376.615 302.24 375.631 302.008 374.751 301.544C373.887 301.064 373.199 300.344 372.687 299.384C372.191 298.424 371.943 297.216 371.943 295.76V295.28C371.943 293.904 372.215 292.752 372.759 291.824C373.303 290.896 374.015 290.2 374.895 289.736C375.775 289.272 376.711 289.04 377.703 289.04C378.711 289.04 379.575 289.224 380.295 289.592C381.031 289.944 381.623 290.432 382.071 291.056C382.519 291.664 382.823 292.352 382.983 293.12H380.823C380.567 292.512 380.207 292 379.743 291.584C379.295 291.168 378.615 290.96 377.703 290.96C377.079 290.96 376.495 291.112 375.951 291.416C375.407 291.704 374.959 292.168 374.607 292.808C374.271 293.432 374.103 294.256 374.103 295.28V295.76C374.103 296.848 374.271 297.728 374.607 298.4C374.959 299.072 375.407 299.56 375.951 299.864C376.495 300.168 377.079 300.32 377.703 300.32C378.487 300.32 379.143 300.128 379.671 299.744C380.215 299.36 380.599 298.832 380.823 298.16H382.983C382.791 298.992 382.447 299.72 381.951 300.344C381.455 300.952 380.847 301.424 380.127 301.76C379.407 302.08 378.599 302.24 377.703 302.24ZM389.485 302.24C388.557 302.24 387.765 302.072 387.109 301.736C386.469 301.384 385.981 300.912 385.645 300.32C385.309 299.712 385.141 299.032 385.141 298.28C385.141 297.016 385.509 296.104 386.245 295.544C386.997 294.984 388.069 294.704 389.461 294.704H393.589V293.84C393.589 292.752 393.341 292 392.845 291.584C392.365 291.168 391.637 290.96 390.661 290.96C389.749 290.96 389.085 291.136 388.669 291.488C388.253 291.824 388.021 292.208 387.973 292.64H385.861C385.909 291.952 386.141 291.344 386.557 290.816C386.973 290.272 387.541 289.84 388.261 289.52C388.981 289.2 389.821 289.04 390.781 289.04C391.789 289.04 392.661 289.2 393.397 289.52C394.133 289.824 394.701 290.312 395.101 290.984C395.501 291.64 395.701 292.512 395.701 293.6V298.76C395.701 299.432 395.701 300.024 395.701 300.536C395.717 301.032 395.757 301.52 395.821 302H393.973C393.925 301.632 393.893 301.288 393.877 300.968C393.861 300.632 393.853 300.256 393.853 299.84C393.517 300.512 392.973 301.08 392.221 301.544C391.469 302.008 390.557 302.24 389.485 302.24ZM389.941 300.32C390.613 300.32 391.221 300.2 391.765 299.96C392.325 299.72 392.765 299.368 393.085 298.904C393.421 298.44 393.589 297.872 393.589 297.2V296.336H389.821C389.037 296.336 388.421 296.496 387.973 296.816C387.525 297.12 387.301 297.608 387.301 298.28C387.301 298.872 387.509 299.36 387.925 299.744C388.357 300.128 389.029 300.32 389.941 300.32ZM399.432 302V289.28H401.4V291.68C401.688 290.976 402.192 290.36 402.912 289.832C403.648 289.304 404.592 289.04 405.744 289.04C407.344 289.04 408.528 289.472 409.296 290.336C410.08 291.184 410.472 292.432 410.472 294.08V302H408.36V294.56C408.36 293.376 408.112 292.48 407.616 291.872C407.12 291.264 406.288 290.96 405.12 290.96C404.288 290.96 403.608 291.136 403.08 291.488C402.552 291.84 402.16 292.288 401.904 292.832C401.664 293.376 401.544 293.952 401.544 294.56V302H399.432ZM424.877 302.12C423.981 302.12 423.245 301.984 422.669 301.712C422.109 301.44 421.693 301.032 421.421 300.488C421.165 299.928 421.037 299.232 421.037 298.4V291.152H419.117V289.28H421.037V286.4H423.149V289.28H426.557V291.152H423.149V298.16C423.149 298.88 423.301 299.4 423.605 299.72C423.909 300.04 424.493 300.2 425.357 300.2C425.837 300.2 426.317 300.176 426.797 300.128V302C426.493 302.032 426.189 302.056 425.885 302.072C425.581 302.104 425.245 302.12 424.877 302.12ZM429.807 302V285.2H431.919V291.56C432.143 291.112 432.447 290.696 432.831 290.312C433.215 289.928 433.679 289.624 434.223 289.4C434.783 289.16 435.415 289.04 436.119 289.04C437.719 289.04 438.903 289.472 439.671 290.336C440.455 291.184 440.847 292.432 440.847 294.08V302H438.735V294.56C438.735 293.376 438.487 292.48 437.991 291.872C437.495 291.264 436.663 290.96 435.495 290.96C434.663 290.96 433.983 291.136 433.455 291.488C432.927 291.84 432.535 292.288 432.279 292.832C432.039 293.376 431.919 293.952 431.919 294.56V302H429.807ZM444.812 302V289.28H446.924V302H444.812ZM445.868 287.6C445.452 287.6 445.108 287.464 444.836 287.192C444.564 286.92 444.428 286.576 444.428 286.16C444.428 285.744 444.564 285.4 444.836 285.128C445.108 284.856 445.452 284.72 445.868 284.72C446.284 284.72 446.628 284.856 446.9 285.128C447.172 285.4 447.308 285.744 447.308 286.16C447.308 286.576 447.172 286.92 446.9 287.192C446.628 287.464 446.284 287.6 445.868 287.6ZM450.994 302V289.28H452.962V291.68C453.25 290.976 453.754 290.36 454.474 289.832C455.21 289.304 456.154 289.04 457.306 289.04C458.906 289.04 460.09 289.472 460.858 290.336C461.642 291.184 462.034 292.432 462.034 294.08V302H459.922V294.56C459.922 293.376 459.674 292.48 459.178 291.872C458.682 291.264 457.85 290.96 456.682 290.96C455.85 290.96 455.17 291.136 454.642 291.488C454.114 291.84 453.722 292.288 453.466 292.832C453.226 293.376 453.106 293.952 453.106 294.56V302H450.994ZM465.76 302V285.2H467.872V295.136L473.728 289.28H476.32L471.04 294.536L476.8 302H474.112L469.528 296L467.872 297.56V302H465.76ZM490.61 302.24C489.538 302.24 488.53 302.008 487.586 301.544C486.658 301.064 485.906 300.344 485.33 299.384C484.77 298.424 484.49 297.216 484.49 295.76V295.28C484.49 293.904 484.77 292.752 485.33 291.824C485.906 290.896 486.658 290.2 487.586 289.736C488.53 289.272 489.538 289.04 490.61 289.04C491.698 289.04 492.706 289.272 493.634 289.736C494.562 290.2 495.306 290.896 495.866 291.824C496.442 292.752 496.73 293.904 496.73 295.28V295.76C496.73 297.216 496.442 298.424 495.866 299.384C495.306 300.344 494.562 301.064 493.634 301.544C492.706 302.008 491.698 302.24 490.61 302.24ZM490.61 300.32C491.266 300.32 491.89 300.176 492.482 299.888C493.09 299.584 493.586 299.096 493.97 298.424C494.37 297.752 494.57 296.864 494.57 295.76V295.28C494.57 294.256 494.37 293.432 493.97 292.808C493.586 292.168 493.09 291.704 492.482 291.416C491.89 291.112 491.266 290.96 490.61 290.96C489.97 290.96 489.346 291.112 488.738 291.416C488.13 291.704 487.626 292.168 487.226 292.808C486.842 293.432 486.65 294.256 486.65 295.28V295.76C486.65 296.864 486.842 297.752 487.226 298.424C487.626 299.096 488.13 299.584 488.738 299.888C489.346 300.176 489.97 300.32 490.61 300.32ZM500.206 302V291.152H498.406V289.28H500.206V289.04C500.206 288.144 500.342 287.408 500.614 286.832C500.886 286.24 501.302 285.8 501.862 285.512C502.438 285.224 503.166 285.08 504.046 285.08C504.286 285.08 504.558 285.088 504.862 285.104C505.166 285.104 505.494 285.12 505.846 285.152V287.072C505.606 287.04 505.342 287.024 505.054 287.024C504.782 287.008 504.526 287 504.286 287C503.55 287 503.038 287.152 502.75 287.456C502.462 287.744 502.318 288.272 502.318 289.04V289.28H505.606V291.152H502.318V302H500.206ZM514.492 302V289.28H516.604V302H514.492ZM515.548 287.6C515.132 287.6 514.788 287.464 514.516 287.192C514.244 286.92 514.108 286.576 514.108 286.16C514.108 285.744 514.244 285.4 514.516 285.128C514.788 284.856 515.132 284.72 515.548 284.72C515.964 284.72 516.308 284.856 516.58 285.128C516.852 285.4 516.988 285.744 516.988 286.16C516.988 286.576 516.852 286.92 516.58 287.192C516.308 287.464 515.964 287.6 515.548 287.6ZM525.354 302.12C524.458 302.12 523.722 301.984 523.146 301.712C522.586 301.44 522.17 301.032 521.898 300.488C521.642 299.928 521.514 299.232 521.514 298.4V291.152H519.594V289.28H521.514V286.4H523.626V289.28H527.034V291.152H523.626V298.16C523.626 298.88 523.778 299.4 524.082 299.72C524.386 300.04 524.97 300.2 525.834 300.2C526.314 300.2 526.794 300.176 527.274 300.128V302C526.97 302.032 526.666 302.056 526.362 302.072C526.058 302.104 525.722 302.12 525.354 302.12ZM539.907 302.24C538.979 302.24 538.187 302.072 537.531 301.736C536.891 301.384 536.403 300.912 536.067 300.32C535.731 299.712 535.563 299.032 535.563 298.28C535.563 297.016 535.931 296.104 536.667 295.544C537.419 294.984 538.491 294.704 539.883 294.704H544.011V293.84C544.011 292.752 543.763 292 543.267 291.584C542.787 291.168 542.059 290.96 541.083 290.96C540.171 290.96 539.507 291.136 539.091 291.488C538.675 291.824 538.443 292.208 538.395 292.64H536.283C536.331 291.952 536.563 291.344 536.979 290.816C537.395 290.272 537.963 289.84 538.683 289.52C539.403 289.2 540.243 289.04 541.203 289.04C542.211 289.04 543.083 289.2 543.819 289.52C544.555 289.824 545.123 290.312 545.523 290.984C545.923 291.64 546.123 292.512 546.123 293.6V298.76C546.123 299.432 546.123 300.024 546.123 300.536C546.139 301.032 546.179 301.52 546.243 302H544.395C544.347 301.632 544.315 301.288 544.299 300.968C544.283 300.632 544.275 300.256 544.275 299.84C543.939 300.512 543.395 301.08 542.643 301.544C541.891 302.008 540.979 302.24 539.907 302.24ZM540.363 300.32C541.035 300.32 541.643 300.2 542.187 299.96C542.747 299.72 543.187 299.368 543.507 298.904C543.843 298.44 544.011 297.872 544.011 297.2V296.336H540.243C539.459 296.336 538.843 296.496 538.395 296.816C537.947 297.12 537.723 297.608 537.723 298.28C537.723 298.872 537.931 299.36 538.347 299.744C538.779 300.128 539.451 300.32 540.363 300.32ZM554.294 302.24C553.446 302.24 552.71 302.144 552.086 301.952C551.462 301.744 550.942 301.472 550.526 301.136C550.11 300.8 549.774 300.408 549.518 299.96C549.278 299.496 549.11 299.016 549.014 298.52H551.126C551.238 299.032 551.534 299.48 552.014 299.864C552.51 300.232 553.27 300.416 554.294 300.416C555.478 300.416 556.302 300.232 556.766 299.864C557.23 299.48 557.462 299.032 557.462 298.52C557.462 298.168 557.358 297.864 557.15 297.608C556.958 297.336 556.606 297.104 556.094 296.912C555.598 296.72 554.886 296.56 553.958 296.432C553.254 296.336 552.622 296.2 552.062 296.024C551.502 295.832 551.022 295.584 550.622 295.28C550.222 294.976 549.91 294.608 549.686 294.176C549.478 293.744 549.374 293.232 549.374 292.64C549.374 292 549.558 291.408 549.926 290.864C550.294 290.32 550.846 289.88 551.582 289.544C552.318 289.208 553.222 289.04 554.294 289.04C555.302 289.04 556.134 289.216 556.79 289.568C557.462 289.904 557.982 290.352 558.35 290.912C558.718 291.472 558.966 292.088 559.094 292.76H556.982C556.854 292.2 556.582 291.744 556.166 291.392C555.75 291.04 555.126 290.864 554.294 290.864C553.254 290.864 552.526 291.04 552.11 291.392C551.694 291.728 551.486 292.144 551.486 292.64C551.486 293.216 551.71 293.648 552.158 293.936C552.622 294.224 553.462 294.448 554.678 294.608C555.462 294.704 556.158 294.848 556.766 295.04C557.374 295.216 557.886 295.464 558.302 295.784C558.718 296.088 559.03 296.464 559.238 296.912C559.462 297.36 559.574 297.896 559.574 298.52C559.574 299.192 559.382 299.808 558.998 300.368C558.614 300.928 558.03 301.384 557.246 301.736C556.478 302.072 555.494 302.24 554.294 302.24ZM210.998 340.12C210.102 340.12 209.366 339.984 208.79 339.712C208.23 339.44 207.814 339.032 207.542 338.488C207.286 337.928 207.158 337.232 207.158 336.4V329.152H205.238V327.28H207.158V324.4H209.27V327.28H212.678V329.152H209.27V336.16C209.27 336.88 209.422 337.4 209.726 337.72C210.03 338.04 210.614 338.2 211.478 338.2C211.958 338.2 212.438 338.176 212.918 338.128V340C212.614 340.032 212.31 340.056 212.006 340.072C211.702 340.104 211.366 340.12 210.998 340.12ZM215.928 340V323.2H218.04V329.56C218.264 329.112 218.568 328.696 218.952 328.312C219.336 327.928 219.8 327.624 220.344 327.4C220.904 327.16 221.536 327.04 222.24 327.04C223.84 327.04 225.024 327.472 225.792 328.336C226.576 329.184 226.968 330.432 226.968 332.08V340H224.856V332.56C224.856 331.376 224.608 330.48 224.112 329.872C223.616 329.264 222.784 328.96 221.616 328.96C220.784 328.96 220.104 329.136 219.576 329.488C219.048 329.84 218.656 330.288 218.4 330.832C218.16 331.376 218.04 331.952 218.04 332.56V340H215.928ZM235.973 340.24C234.901 340.24 233.893 340.008 232.949 339.544C232.021 339.08 231.269 338.368 230.693 337.408C230.133 336.448 229.853 335.232 229.853 333.76V333.28C229.853 331.872 230.125 330.712 230.669 329.8C231.213 328.872 231.933 328.184 232.829 327.736C233.725 327.272 234.693 327.04 235.733 327.04C237.605 327.04 239.053 327.552 240.077 328.576C241.101 329.6 241.613 331.048 241.613 332.92V334.264H231.965C231.965 335.256 232.165 336.048 232.565 336.64C232.981 337.232 233.493 337.664 234.101 337.936C234.725 338.192 235.349 338.32 235.973 338.32C236.933 338.32 237.669 338.16 238.181 337.84C238.709 337.52 239.085 337.08 239.309 336.52H241.373C241.117 337.736 240.485 338.664 239.477 339.304C238.485 339.928 237.317 340.24 235.973 340.24ZM235.853 328.96C235.197 328.96 234.573 329.088 233.981 329.344C233.389 329.584 232.901 329.968 232.517 330.496C232.149 331.024 231.965 331.704 231.965 332.536H239.621C239.605 331.656 239.421 330.96 239.069 330.448C238.733 329.92 238.285 329.544 237.725 329.32C237.165 329.08 236.541 328.96 235.853 328.96ZM249.295 340L254.071 333.544L249.535 327.28H251.983L255.343 331.912L258.703 327.28H261.055L256.519 333.424L261.295 340H258.799L255.247 335.032L251.695 340H249.295ZM261.89 334.264V332.296H269.09V334.264H261.89ZM276.887 340.24C275.799 340.24 274.815 340.008 273.935 339.544C273.071 339.064 272.383 338.344 271.871 337.384C271.375 336.424 271.127 335.216 271.127 333.76V333.28C271.127 331.904 271.399 330.752 271.943 329.824C272.487 328.896 273.199 328.2 274.079 327.736C274.959 327.272 275.895 327.04 276.887 327.04C277.895 327.04 278.759 327.224 279.479 327.592C280.215 327.944 280.807 328.432 281.255 329.056C281.703 329.664 282.007 330.352 282.167 331.12H280.007C279.751 330.512 279.391 330 278.927 329.584C278.479 329.168 277.799 328.96 276.887 328.96C276.263 328.96 275.679 329.112 275.135 329.416C274.591 329.704 274.143 330.168 273.791 330.808C273.455 331.432 273.287 332.256 273.287 333.28V333.76C273.287 334.848 273.455 335.728 273.791 336.4C274.143 337.072 274.591 337.56 275.135 337.864C275.679 338.168 276.263 338.32 276.887 338.32C277.671 338.32 278.327 338.128 278.855 337.744C279.399 337.36 279.783 336.832 280.007 336.16H282.167C281.975 336.992 281.631 337.72 281.135 338.344C280.639 338.952 280.031 339.424 279.311 339.76C278.591 340.08 277.783 340.24 276.887 340.24ZM290.325 340.24C289.253 340.24 288.245 340.008 287.301 339.544C286.373 339.064 285.621 338.344 285.045 337.384C284.485 336.424 284.205 335.216 284.205 333.76V333.28C284.205 331.904 284.485 330.752 285.045 329.824C285.621 328.896 286.373 328.2 287.301 327.736C288.245 327.272 289.253 327.04 290.325 327.04C291.413 327.04 292.421 327.272 293.349 327.736C294.277 328.2 295.021 328.896 295.581 329.824C296.157 330.752 296.445 331.904 296.445 333.28V333.76C296.445 335.216 296.157 336.424 295.581 337.384C295.021 338.344 294.277 339.064 293.349 339.544C292.421 340.008 291.413 340.24 290.325 340.24ZM290.325 338.32C290.981 338.32 291.605 338.176 292.197 337.888C292.805 337.584 293.301 337.096 293.685 336.424C294.085 335.752 294.285 334.864 294.285 333.76V333.28C294.285 332.256 294.085 331.432 293.685 330.808C293.301 330.168 292.805 329.704 292.197 329.416C291.605 329.112 290.981 328.96 290.325 328.96C289.685 328.96 289.061 329.112 288.453 329.416C287.845 329.704 287.341 330.168 286.941 330.808C286.557 331.432 286.365 332.256 286.365 333.28V333.76C286.365 334.864 286.557 335.752 286.941 336.424C287.341 337.096 287.845 337.584 288.453 337.888C289.061 338.176 289.685 338.32 290.325 338.32ZM299.436 340V327.28H301.404V329.68C301.676 328.896 302.14 328.264 302.796 327.784C303.468 327.288 304.228 327.04 305.076 327.04C306.18 327.04 307.028 327.28 307.62 327.76C308.212 328.224 308.62 328.824 308.844 329.56C309.26 328.776 309.788 328.16 310.428 327.712C311.084 327.264 311.868 327.04 312.78 327.04C314.092 327.04 315.116 327.44 315.852 328.24C316.588 329.024 316.956 330.264 316.956 331.96V340H314.844V332.44C314.844 331.176 314.62 330.28 314.172 329.752C313.74 329.224 313.076 328.96 312.18 328.96C311.668 328.96 311.188 329.104 310.74 329.392C310.292 329.664 309.932 330.064 309.66 330.592C309.388 331.104 309.252 331.72 309.252 332.44V340H307.14V332.44C307.14 331.176 306.916 330.28 306.468 329.752C306.02 329.224 305.356 328.96 304.476 328.96C303.964 328.96 303.484 329.104 303.036 329.392C302.588 329.664 302.228 330.064 301.956 330.592C301.684 331.104 301.548 331.72 301.548 332.44V340H299.436ZM320.67 344.8V327.28H322.638V329.68C323.07 328.832 323.67 328.184 324.438 327.736C325.222 327.272 326.126 327.04 327.15 327.04C328.75 327.04 330.03 327.568 330.99 328.624C331.95 329.664 332.43 331.216 332.43 333.28V333.76C332.43 335.2 332.206 336.4 331.758 337.36C331.326 338.32 330.71 339.04 329.91 339.52C329.126 340 328.206 340.24 327.15 340.24C326.062 340.24 325.15 340 324.414 339.52C323.694 339.04 323.15 338.44 322.782 337.72V344.8H320.67ZM326.67 338.368C327.71 338.368 328.574 337.976 329.262 337.192C329.966 336.408 330.318 335.264 330.318 333.76V333.28C330.318 331.888 329.966 330.816 329.262 330.064C328.574 329.296 327.71 328.912 326.67 328.912C325.902 328.912 325.222 329.072 324.63 329.392C324.054 329.712 323.598 330.152 323.262 330.712C322.942 331.256 322.782 331.872 322.782 332.56V334.48C322.782 335.248 322.942 335.928 323.262 336.52C323.598 337.096 324.054 337.552 324.63 337.888C325.222 338.208 325.902 338.368 326.67 338.368ZM340.716 340.24C339.644 340.24 338.636 340.008 337.692 339.544C336.764 339.064 336.012 338.344 335.436 337.384C334.876 336.424 334.596 335.216 334.596 333.76V333.28C334.596 331.904 334.876 330.752 335.436 329.824C336.012 328.896 336.764 328.2 337.692 327.736C338.636 327.272 339.644 327.04 340.716 327.04C341.804 327.04 342.812 327.272 343.74 327.736C344.668 328.2 345.412 328.896 345.972 329.824C346.548 330.752 346.836 331.904 346.836 333.28V333.76C346.836 335.216 346.548 336.424 345.972 337.384C345.412 338.344 344.668 339.064 343.74 339.544C342.812 340.008 341.804 340.24 340.716 340.24ZM340.716 338.32C341.372 338.32 341.996 338.176 342.588 337.888C343.196 337.584 343.692 337.096 344.076 336.424C344.476 335.752 344.676 334.864 344.676 333.76V333.28C344.676 332.256 344.476 331.432 344.076 330.808C343.692 330.168 343.196 329.704 342.588 329.416C341.996 329.112 341.372 328.96 340.716 328.96C340.076 328.96 339.452 329.112 338.844 329.416C338.236 329.704 337.732 330.168 337.332 330.808C336.948 331.432 336.756 332.256 336.756 333.28V333.76C336.756 334.864 336.948 335.752 337.332 336.424C337.732 337.096 338.236 337.584 338.844 337.888C339.452 338.176 340.076 338.32 340.716 338.32ZM349.826 340V327.28H351.794V329.68C352.082 328.976 352.586 328.36 353.306 327.832C354.042 327.304 354.986 327.04 356.138 327.04C357.738 327.04 358.922 327.472 359.69 328.336C360.474 329.184 360.866 330.432 360.866 332.08V340H358.754V332.56C358.754 331.376 358.506 330.48 358.01 329.872C357.514 329.264 356.682 328.96 355.514 328.96C354.682 328.96 354.002 329.136 353.474 329.488C352.946 329.84 352.554 330.288 352.298 330.832C352.058 331.376 351.938 331.952 351.938 332.56V340H349.826ZM369.872 340.24C368.8 340.24 367.792 340.008 366.848 339.544C365.92 339.08 365.168 338.368 364.592 337.408C364.032 336.448 363.752 335.232 363.752 333.76V333.28C363.752 331.872 364.024 330.712 364.568 329.8C365.112 328.872 365.832 328.184 366.728 327.736C367.624 327.272 368.592 327.04 369.632 327.04C371.504 327.04 372.952 327.552 373.976 328.576C375 329.6 375.512 331.048 375.512 332.92V334.264H365.864C365.864 335.256 366.064 336.048 366.464 336.64C366.88 337.232 367.392 337.664 368 337.936C368.624 338.192 369.248 338.32 369.872 338.32C370.832 338.32 371.568 338.16 372.08 337.84C372.608 337.52 372.984 337.08 373.208 336.52H375.272C375.016 337.736 374.384 338.664 373.376 339.304C372.384 339.928 371.216 340.24 369.872 340.24ZM369.752 328.96C369.096 328.96 368.472 329.088 367.88 329.344C367.288 329.584 366.8 329.968 366.416 330.496C366.048 331.024 365.864 331.704 365.864 332.536H373.52C373.504 331.656 373.32 330.96 372.968 330.448C372.632 329.92 372.184 329.544 371.624 329.32C371.064 329.08 370.44 328.96 369.752 328.96ZM378.514 340V327.28H380.482V329.68C380.77 328.976 381.274 328.36 381.994 327.832C382.73 327.304 383.674 327.04 384.826 327.04C386.426 327.04 387.61 327.472 388.378 328.336C389.162 329.184 389.554 330.432 389.554 332.08V340H387.442V332.56C387.442 331.376 387.194 330.48 386.698 329.872C386.202 329.264 385.37 328.96 384.202 328.96C383.37 328.96 382.69 329.136 382.162 329.488C381.634 329.84 381.242 330.288 380.986 330.832C380.746 331.376 380.626 331.952 380.626 332.56V340H378.514ZM397.725 340.12C396.829 340.12 396.093 339.984 395.517 339.712C394.957 339.44 394.541 339.032 394.269 338.488C394.013 337.928 393.885 337.232 393.885 336.4V329.152H391.965V327.28H393.885V324.4H395.997V327.28H399.405V329.152H395.997V336.16C395.997 336.88 396.149 337.4 396.453 337.72C396.757 338.04 397.341 338.2 398.205 338.2C398.685 338.2 399.165 338.176 399.645 338.128V340C399.341 340.032 399.037 340.056 398.733 340.072C398.429 340.104 398.093 340.12 397.725 340.12ZM412.278 340.24C411.35 340.24 410.558 340.072 409.902 339.736C409.262 339.384 408.774 338.912 408.438 338.32C408.102 337.712 407.934 337.032 407.934 336.28C407.934 335.016 408.302 334.104 409.038 333.544C409.79 332.984 410.862 332.704 412.254 332.704H416.382V331.84C416.382 330.752 416.134 330 415.638 329.584C415.158 329.168 414.43 328.96 413.454 328.96C412.542 328.96 411.878 329.136 411.462 329.488C411.046 329.824 410.814 330.208 410.766 330.64H408.654C408.702 329.952 408.934 329.344 409.35 328.816C409.766 328.272 410.334 327.84 411.054 327.52C411.774 327.2 412.614 327.04 413.574 327.04C414.582 327.04 415.454 327.2 416.19 327.52C416.926 327.824 417.494 328.312 417.894 328.984C418.294 329.64 418.494 330.512 418.494 331.6V336.76C418.494 337.432 418.494 338.024 418.494 338.536C418.51 339.032 418.55 339.52 418.614 340H416.766C416.718 339.632 416.686 339.288 416.67 338.968C416.654 338.632 416.646 338.256 416.646 337.84C416.31 338.512 415.766 339.08 415.014 339.544C414.262 340.008 413.35 340.24 412.278 340.24ZM412.734 338.32C413.406 338.32 414.014 338.2 414.558 337.96C415.118 337.72 415.558 337.368 415.878 336.904C416.214 336.44 416.382 335.872 416.382 335.2V334.336H412.614C411.83 334.336 411.214 334.496 410.766 334.816C410.318 335.12 410.094 335.608 410.094 336.28C410.094 336.872 410.302 337.36 410.718 337.744C411.15 338.128 411.822 338.32 412.734 338.32ZM422.225 340V327.28H424.193V329.68C424.481 328.976 424.985 328.36 425.705 327.832C426.441 327.304 427.385 327.04 428.537 327.04C430.137 327.04 431.321 327.472 432.089 328.336C432.873 329.184 433.265 330.432 433.265 332.08V340H431.153V332.56C431.153 331.376 430.905 330.48 430.409 329.872C429.913 329.264 429.081 328.96 427.913 328.96C427.081 328.96 426.401 329.136 425.873 329.488C425.345 329.84 424.953 330.288 424.697 330.832C424.457 331.376 424.337 331.952 424.337 332.56V340H422.225ZM441.43 340.24C440.39 340.24 439.47 340 438.67 339.52C437.87 339.04 437.246 338.32 436.798 337.36C436.366 336.4 436.15 335.2 436.15 333.76V333.28C436.15 331.936 436.374 330.8 436.822 329.872C437.286 328.944 437.91 328.24 438.694 327.76C439.494 327.28 440.406 327.04 441.43 327.04C442.454 327.04 443.342 327.264 444.094 327.712C444.862 328.16 445.43 328.776 445.798 329.56V323.2H447.91V340H445.942V337.6C445.622 338.384 445.062 339.024 444.262 339.52C443.462 340 442.518 340.24 441.43 340.24ZM441.91 338.368C442.678 338.368 443.35 338.208 443.926 337.888C444.518 337.552 444.974 337.096 445.294 336.52C445.63 335.928 445.798 335.248 445.798 334.48V332.56C445.798 331.872 445.63 331.256 445.294 330.712C444.974 330.152 444.518 329.712 443.926 329.392C443.35 329.072 442.678 328.912 441.91 328.912C440.886 328.912 440.022 329.296 439.318 330.064C438.614 330.816 438.262 331.888 438.262 333.28V333.76C438.262 335.264 438.614 336.408 439.318 337.192C440.022 337.976 440.886 338.368 441.91 338.368ZM459.436 345.04C459.196 345.04 458.956 345.016 458.716 344.968V343.048C458.956 343.096 459.196 343.12 459.436 343.12C459.756 343.12 460.02 343.04 460.228 342.88C460.452 342.736 460.676 342.44 460.9 341.992C461.124 341.544 461.396 340.88 461.716 340L456.316 327.28H458.668L462.796 337.6L466.54 327.28H468.796L463.996 340C463.548 341.2 463.116 342.168 462.7 342.904C462.3 343.64 461.844 344.176 461.332 344.512C460.836 344.864 460.204 345.04 459.436 345.04ZM469.757 334.264V332.296H476.957V334.264H469.757ZM484.754 340.24C483.666 340.24 482.682 340.008 481.802 339.544C480.938 339.064 480.25 338.344 479.738 337.384C479.242 336.424 478.994 335.216 478.994 333.76V333.28C478.994 331.904 479.266 330.752 479.81 329.824C480.354 328.896 481.066 328.2 481.946 327.736C482.826 327.272 483.762 327.04 484.754 327.04C485.762 327.04 486.626 327.224 487.346 327.592C488.082 327.944 488.674 328.432 489.122 329.056C489.57 329.664 489.874 330.352 490.034 331.12H487.874C487.618 330.512 487.258 330 486.794 329.584C486.346 329.168 485.666 328.96 484.754 328.96C484.13 328.96 483.546 329.112 483.002 329.416C482.458 329.704 482.01 330.168 481.658 330.808C481.322 331.432 481.154 332.256 481.154 333.28V333.76C481.154 334.848 481.322 335.728 481.658 336.4C482.01 337.072 482.458 337.56 483.002 337.864C483.546 338.168 484.13 338.32 484.754 338.32C485.538 338.32 486.194 338.128 486.722 337.744C487.266 337.36 487.65 336.832 487.874 336.16H490.034C489.842 336.992 489.498 337.72 489.002 338.344C488.506 338.952 487.898 339.424 487.178 339.76C486.458 340.08 485.65 340.24 484.754 340.24ZM498.192 340.24C497.12 340.24 496.112 340.008 495.168 339.544C494.24 339.064 493.488 338.344 492.912 337.384C492.352 336.424 492.072 335.216 492.072 333.76V333.28C492.072 331.904 492.352 330.752 492.912 329.824C493.488 328.896 494.24 328.2 495.168 327.736C496.112 327.272 497.12 327.04 498.192 327.04C499.28 327.04 500.288 327.272 501.216 327.736C502.144 328.2 502.888 328.896 503.448 329.824C504.024 330.752 504.312 331.904 504.312 333.28V333.76C504.312 335.216 504.024 336.424 503.448 337.384C502.888 338.344 502.144 339.064 501.216 339.544C500.288 340.008 499.28 340.24 498.192 340.24ZM498.192 338.32C498.848 338.32 499.472 338.176 500.064 337.888C500.672 337.584 501.168 337.096 501.552 336.424C501.952 335.752 502.152 334.864 502.152 333.76V333.28C502.152 332.256 501.952 331.432 501.552 330.808C501.168 330.168 500.672 329.704 500.064 329.416C499.472 329.112 498.848 328.96 498.192 328.96C497.552 328.96 496.928 329.112 496.32 329.416C495.712 329.704 495.208 330.168 494.808 330.808C494.424 331.432 494.232 332.256 494.232 333.28V333.76C494.232 334.864 494.424 335.752 494.808 336.424C495.208 337.096 495.712 337.584 496.32 337.888C496.928 338.176 497.552 338.32 498.192 338.32ZM507.303 340V327.28H509.271V329.68C509.543 328.896 510.007 328.264 510.663 327.784C511.335 327.288 512.095 327.04 512.943 327.04C514.047 327.04 514.895 327.28 515.487 327.76C516.079 328.224 516.487 328.824 516.711 329.56C517.127 328.776 517.655 328.16 518.295 327.712C518.951 327.264 519.735 327.04 520.647 327.04C521.959 327.04 522.983 327.44 523.719 328.24C524.455 329.024 524.823 330.264 524.823 331.96V340H522.711V332.44C522.711 331.176 522.487 330.28 522.039 329.752C521.607 329.224 520.943 328.96 520.047 328.96C519.535 328.96 519.055 329.104 518.607 329.392C518.159 329.664 517.799 330.064 517.527 330.592C517.255 331.104 517.119 331.72 517.119 332.44V340H515.007V332.44C515.007 331.176 514.783 330.28 514.335 329.752C513.887 329.224 513.223 328.96 512.343 328.96C511.831 328.96 511.351 329.104 510.903 329.392C510.455 329.664 510.095 330.064 509.823 330.592C509.551 331.104 509.415 331.72 509.415 332.44V340H507.303ZM528.537 344.8V327.28H530.505V329.68C530.937 328.832 531.537 328.184 532.305 327.736C533.089 327.272 533.993 327.04 535.017 327.04C536.617 327.04 537.897 327.568 538.857 328.624C539.817 329.664 540.297 331.216 540.297 333.28V333.76C540.297 335.2 540.073 336.4 539.625 337.36C539.193 338.32 538.577 339.04 537.777 339.52C536.993 340 536.073 340.24 535.017 340.24C533.929 340.24 533.017 340 532.281 339.52C531.561 339.04 531.017 338.44 530.649 337.72V344.8H528.537ZM534.537 338.368C535.577 338.368 536.441 337.976 537.129 337.192C537.833 336.408 538.185 335.264 538.185 333.76V333.28C538.185 331.888 537.833 330.816 537.129 330.064C536.441 329.296 535.577 328.912 534.537 328.912C533.769 328.912 533.089 329.072 532.497 329.392C531.921 329.712 531.465 330.152 531.129 330.712C530.809 331.256 530.649 331.872 530.649 332.56V334.48C530.649 335.248 530.809 335.928 531.129 336.52C531.465 337.096 531.921 337.552 532.497 337.888C533.089 338.208 533.769 338.368 534.537 338.368ZM548.583 340.24C547.511 340.24 546.503 340.008 545.559 339.544C544.631 339.064 543.879 338.344 543.303 337.384C542.743 336.424 542.463 335.216 542.463 333.76V333.28C542.463 331.904 542.743 330.752 543.303 329.824C543.879 328.896 544.631 328.2 545.559 327.736C546.503 327.272 547.511 327.04 548.583 327.04C549.671 327.04 550.679 327.272 551.607 327.736C552.535 328.2 553.279 328.896 553.839 329.824C554.415 330.752 554.703 331.904 554.703 333.28V333.76C554.703 335.216 554.415 336.424 553.839 337.384C553.279 338.344 552.535 339.064 551.607 339.544C550.679 340.008 549.671 340.24 548.583 340.24ZM548.583 338.32C549.239 338.32 549.863 338.176 550.455 337.888C551.063 337.584 551.559 337.096 551.943 336.424C552.343 335.752 552.543 334.864 552.543 333.76V333.28C552.543 332.256 552.343 331.432 551.943 330.808C551.559 330.168 551.063 329.704 550.455 329.416C549.863 329.112 549.239 328.96 548.583 328.96C547.943 328.96 547.319 329.112 546.711 329.416C546.103 329.704 545.599 330.168 545.199 330.808C544.815 331.432 544.623 332.256 544.623 333.28V333.76C544.623 334.864 544.815 335.752 545.199 336.424C545.599 337.096 546.103 337.584 546.711 337.888C547.319 338.176 547.943 338.32 548.583 338.32ZM557.693 340V327.28H559.661V329.68C559.949 328.976 560.453 328.36 561.173 327.832C561.909 327.304 562.853 327.04 564.005 327.04C565.605 327.04 566.789 327.472 567.557 328.336C568.341 329.184 568.733 330.432 568.733 332.08V340H566.621V332.56C566.621 331.376 566.373 330.48 565.877 329.872C565.381 329.264 564.549 328.96 563.381 328.96C562.549 328.96 561.869 329.136 561.341 329.488C560.813 329.84 560.421 330.288 560.165 330.832C559.925 331.376 559.805 331.952 559.805 332.56V340H557.693ZM577.739 340.24C576.667 340.24 575.659 340.008 574.715 339.544C573.787 339.08 573.035 338.368 572.459 337.408C571.899 336.448 571.619 335.232 571.619 333.76V333.28C571.619 331.872 571.891 330.712 572.435 329.8C572.979 328.872 573.699 328.184 574.595 327.736C575.491 327.272 576.459 327.04 577.499 327.04C579.371 327.04 580.819 327.552 581.843 328.576C582.867 329.6 583.379 331.048 583.379 332.92V334.264H573.731C573.731 335.256 573.931 336.048 574.331 336.64C574.747 337.232 575.259 337.664 575.867 337.936C576.491 338.192 577.115 338.32 577.739 338.32C578.699 338.32 579.435 338.16 579.947 337.84C580.475 337.52 580.851 337.08 581.075 336.52H583.139C582.883 337.736 582.251 338.664 581.243 339.304C580.251 339.928 579.083 340.24 577.739 340.24ZM577.619 328.96C576.963 328.96 576.339 329.088 575.747 329.344C575.155 329.584 574.667 329.968 574.283 330.496C573.915 331.024 573.731 331.704 573.731 332.536H581.387C581.371 331.656 581.187 330.96 580.835 330.448C580.499 329.92 580.051 329.544 579.491 329.32C578.931 329.08 578.307 328.96 577.619 328.96ZM586.381 340V327.28H588.349V329.68C588.637 328.976 589.141 328.36 589.861 327.832C590.597 327.304 591.541 327.04 592.693 327.04C594.293 327.04 595.477 327.472 596.245 328.336C597.029 329.184 597.421 330.432 597.421 332.08V340H595.309V332.56C595.309 331.376 595.061 330.48 594.565 329.872C594.069 329.264 593.237 328.96 592.069 328.96C591.237 328.96 590.557 329.136 590.029 329.488C589.501 329.84 589.109 330.288 588.853 330.832C588.613 331.376 588.493 331.952 588.493 332.56V340H586.381ZM605.592 340.12C604.696 340.12 603.96 339.984 603.384 339.712C602.824 339.44 602.408 339.032 602.136 338.488C601.88 337.928 601.752 337.232 601.752 336.4V329.152H599.832V327.28H601.752V324.4H603.864V327.28H607.272V329.152H603.864V336.16C603.864 336.88 604.016 337.4 604.32 337.72C604.624 338.04 605.208 338.2 606.072 338.2C606.552 338.2 607.032 338.176 607.512 338.128V340C607.208 340.032 606.904 340.056 606.6 340.072C606.296 340.104 605.96 340.12 605.592 340.12Z" fill="#0C0824"/>
<path d="M325.667 158.968C325.667 158.128 325.347 157.707 324.708 157.707C323.901 157.707 323.061 158.195 322.186 159.17C321.312 160.145 320.589 161.642 320.018 163.659C319.984 163.693 319.95 163.743 319.917 163.81C319.883 163.878 319.866 163.928 319.866 163.962C319.866 163.995 319.833 164.029 319.765 164.063C319.698 164.096 319.648 164.113 319.614 164.113C319.58 164.113 319.513 164.113 319.412 164.113C319.311 164.113 319.177 164.113 319.009 164.113H318.303C318.101 163.911 318 163.76 318 163.659C318 163.424 318.135 162.936 318.404 162.196C318.673 161.457 319.076 160.582 319.614 159.574C320.152 158.565 320.892 157.707 321.833 157.001C322.775 156.295 323.834 155.925 325.011 155.892C326.423 155.892 327.516 156.295 328.289 157.102C329.063 157.909 329.466 158.851 329.5 159.927C329.5 160.498 329.449 160.935 329.348 161.238C329.348 161.44 329.096 162.18 328.592 163.457C328.088 164.735 327.566 166.231 327.028 167.946C326.49 169.661 326.188 171.157 326.12 172.435C326.12 173.343 326.205 174.083 326.373 174.654C326.81 176.1 327.869 176.823 329.55 176.823C330.794 176.823 331.954 176.252 333.03 175.108C334.106 173.965 334.947 172.637 335.552 171.124C336.158 169.611 336.645 168.215 337.015 166.937C337.385 165.66 337.57 164.735 337.57 164.163C337.57 163.39 337.435 162.718 337.166 162.146C336.897 161.574 336.595 161.137 336.258 160.835C335.922 160.532 335.62 160.229 335.351 159.927C335.082 159.624 334.947 159.254 334.947 158.817C334.947 158.077 335.267 157.388 335.905 156.749C336.544 156.11 337.234 155.791 337.973 155.791C338.612 155.791 339.184 156.093 339.688 156.699C340.193 157.304 340.462 158.279 340.495 159.624C340.495 160.532 340.293 161.927 339.89 163.81C339.486 165.693 338.864 167.795 338.024 170.115C337.183 172.435 335.989 174.436 334.443 176.117C332.896 177.798 331.114 178.656 329.096 178.689C326.944 178.689 325.229 178.135 323.952 177.025C322.708 175.949 322.085 174.352 322.085 172.233C322.085 171.191 322.22 170.115 322.489 169.005C322.758 167.896 323.447 165.929 324.557 163.104C325.297 160.952 325.667 159.574 325.667 158.968Z" fill="#0C0824"/>
<path d="M358.239 160.633C358.239 160.196 358.475 159.859 358.945 159.624H391.074C391.579 159.893 391.831 160.229 391.831 160.633C391.831 161.003 391.595 161.322 391.125 161.591L375.085 161.642H359.046C358.508 161.473 358.239 161.137 358.239 160.633ZM358.239 170.418C358.239 169.913 358.508 169.577 359.046 169.409H391.125C391.595 169.745 391.831 170.082 391.831 170.418C391.831 170.855 391.579 171.191 391.074 171.427H358.945C358.475 171.191 358.239 170.855 358.239 170.418Z" fill="#0C0824"/>
<path d="M421.125 226V105H434.693V108.127H424.252V222.873H434.693V226H421.125Z" fill="#0C0824"/>
<path d="M444.024 123.662C444.024 122.821 443.704 122.401 443.065 122.401C442.258 122.401 441.418 122.888 440.544 123.863C439.669 124.839 438.946 126.335 438.375 128.352C438.341 128.386 438.307 128.436 438.274 128.504C438.24 128.571 438.223 128.621 438.223 128.655C438.223 128.689 438.19 128.722 438.122 128.756C438.055 128.79 438.005 128.806 437.971 128.806C437.938 128.806 437.87 128.806 437.769 128.806C437.669 128.806 437.534 128.806 437.366 128.806H436.66C436.458 128.605 436.357 128.453 436.357 128.352C436.357 128.117 436.492 127.629 436.761 126.89C437.03 126.15 437.433 125.276 437.971 124.267C438.509 123.258 439.249 122.401 440.19 121.695C441.132 120.988 442.191 120.619 443.368 120.585C444.78 120.585 445.873 120.988 446.646 121.795C447.42 122.602 447.823 123.544 447.857 124.62C447.857 125.192 447.807 125.629 447.706 125.931C447.706 126.133 447.453 126.873 446.949 128.151C446.445 129.428 445.924 130.925 445.386 132.64C444.848 134.354 444.545 135.851 444.478 137.129C444.478 138.036 444.562 138.776 444.73 139.348C445.167 140.794 446.226 141.517 447.907 141.517C449.152 141.517 450.312 140.945 451.388 139.802C452.464 138.658 453.304 137.33 453.909 135.817C454.515 134.304 455.002 132.909 455.372 131.631C455.742 130.353 455.927 129.428 455.927 128.857C455.927 128.083 455.793 127.411 455.524 126.839C455.254 126.268 454.952 125.83 454.616 125.528C454.279 125.225 453.977 124.923 453.708 124.62C453.439 124.317 453.304 123.947 453.304 123.51C453.304 122.771 453.624 122.081 454.263 121.442C454.901 120.804 455.591 120.484 456.331 120.484C456.969 120.484 457.541 120.787 458.045 121.392C458.55 121.997 458.819 122.972 458.852 124.317C458.852 125.225 458.651 126.621 458.247 128.504C457.844 130.387 457.222 132.488 456.381 134.808C455.54 137.129 454.347 139.129 452.8 140.81C451.253 142.492 449.471 143.349 447.453 143.383C445.301 143.383 443.587 142.828 442.309 141.718C441.065 140.642 440.443 139.045 440.443 136.927C440.443 135.884 440.577 134.808 440.846 133.699C441.115 132.589 441.804 130.622 442.914 127.798C443.654 125.646 444.024 124.267 444.024 123.662Z" fill="#0C0824"/>
<path d="M467.355 129.783L466.892 129.961C466.559 130.08 466.084 130.199 465.466 130.318C464.847 130.436 464.158 130.52 463.397 130.567H462.72V128.927H463.397C464.515 128.879 465.549 128.701 466.5 128.392C467.451 128.083 468.116 127.798 468.497 127.536C468.877 127.275 469.21 127.013 469.495 126.752C469.543 126.68 469.685 126.645 469.923 126.645C470.137 126.645 470.339 126.716 470.529 126.859V137.521L470.565 148.219C470.731 148.385 470.874 148.492 470.993 148.54C471.112 148.587 471.397 148.635 471.849 148.682C472.3 148.73 473.037 148.753 474.059 148.753H474.987V150.394H474.594C474.095 150.322 472.205 150.287 468.924 150.287C465.691 150.287 463.825 150.322 463.326 150.394H462.898V148.753H463.825C464.348 148.753 464.8 148.753 465.18 148.753C465.561 148.753 465.858 148.742 466.072 148.718C466.286 148.694 466.476 148.658 466.642 148.611C466.809 148.563 466.904 148.54 466.928 148.54C466.951 148.54 467.023 148.48 467.141 148.361C467.26 148.242 467.332 148.195 467.355 148.219V129.783Z" fill="#0C0824"/>
<path d="M444.024 194.275C444.024 193.434 443.704 193.014 443.065 193.014C442.258 193.014 441.418 193.501 440.544 194.476C439.669 195.452 438.946 196.948 438.375 198.965C438.341 198.999 438.307 199.049 438.274 199.117C438.24 199.184 438.223 199.234 438.223 199.268C438.223 199.302 438.19 199.335 438.122 199.369C438.055 199.403 438.005 199.419 437.971 199.419C437.938 199.419 437.87 199.419 437.769 199.419C437.669 199.419 437.534 199.419 437.366 199.419H436.66C436.458 199.218 436.357 199.066 436.357 198.965C436.357 198.73 436.492 198.242 436.761 197.503C437.03 196.763 437.433 195.889 437.971 194.88C438.509 193.871 439.249 193.014 440.19 192.308C441.132 191.602 442.191 191.232 443.368 191.198C444.78 191.198 445.873 191.602 446.646 192.409C447.42 193.216 447.823 194.157 447.857 195.233C447.857 195.805 447.807 196.242 447.706 196.544C447.706 196.746 447.453 197.486 446.949 198.764C446.445 200.041 445.924 201.538 445.386 203.253C444.848 204.968 444.545 206.464 444.478 207.742C444.478 208.649 444.562 209.389 444.73 209.961C445.167 211.407 446.226 212.13 447.907 212.13C449.152 212.13 450.312 211.558 451.388 210.415C452.464 209.272 453.304 207.943 453.909 206.43C454.515 204.917 455.002 203.522 455.372 202.244C455.742 200.966 455.927 200.041 455.927 199.47C455.927 198.696 455.793 198.024 455.524 197.452C455.254 196.881 454.952 196.444 454.616 196.141C454.279 195.838 453.977 195.536 453.708 195.233C453.439 194.93 453.304 194.561 453.304 194.123C453.304 193.384 453.624 192.694 454.263 192.055C454.901 191.417 455.591 191.097 456.331 191.097C456.969 191.097 457.541 191.4 458.045 192.005C458.55 192.61 458.819 193.585 458.852 194.93C458.852 195.838 458.651 197.234 458.247 199.117C457.844 201 457.222 203.101 456.381 205.421C455.54 207.742 454.347 209.742 452.8 211.424C451.253 213.105 449.471 213.962 447.453 213.996C445.301 213.996 443.587 213.441 442.309 212.331C441.065 211.255 440.443 209.658 440.443 207.54C440.443 206.497 440.577 205.421 440.846 204.312C441.115 203.202 441.804 201.235 442.914 198.411C443.654 196.259 444.024 194.88 444.024 194.275Z" fill="#0C0824"/>
<path d="M463.647 205.709C463.005 205.709 462.494 205.495 462.114 205.067C461.733 204.639 461.543 204.116 461.543 203.498C461.543 201.81 462.173 200.348 463.433 199.112C464.693 197.875 466.262 197.257 468.14 197.257C470.303 197.257 472.11 197.923 473.56 199.254C475.01 200.586 475.747 202.309 475.771 204.425C475.771 205.447 475.533 206.422 475.058 207.349C474.582 208.276 474.012 209.084 473.346 209.774C472.681 210.463 471.73 211.343 470.493 212.413C469.638 213.15 468.449 214.243 466.928 215.693L464.824 217.69L467.534 217.726C471.266 217.726 473.251 217.666 473.489 217.548C473.655 217.5 473.941 216.442 474.345 214.374V214.267H475.771V214.374C475.747 214.445 475.593 215.527 475.308 217.619C475.022 219.711 474.844 220.805 474.773 220.9V221.007H461.543V220.329V219.901C461.543 219.735 461.614 219.556 461.757 219.366C461.9 219.176 462.256 218.76 462.827 218.118C463.516 217.357 464.11 216.692 464.61 216.121C464.824 215.884 465.228 215.444 465.822 214.802C466.416 214.16 466.821 213.72 467.035 213.482C467.248 213.245 467.593 212.852 468.069 212.306C468.544 211.759 468.877 211.355 469.067 211.093C469.257 210.832 469.531 210.475 469.887 210.023C470.244 209.572 470.493 209.191 470.636 208.882C470.779 208.573 470.957 208.229 471.171 207.848C471.385 207.468 471.54 207.088 471.635 206.707C471.73 206.327 471.813 205.97 471.884 205.637C471.956 205.305 471.991 204.912 471.991 204.461C471.991 202.963 471.587 201.667 470.779 200.574C469.97 199.48 468.817 198.933 467.32 198.933C466.535 198.933 465.846 199.135 465.252 199.54C464.657 199.944 464.241 200.336 464.003 200.716C463.766 201.097 463.647 201.323 463.647 201.394C463.647 201.418 463.706 201.43 463.825 201.43C464.253 201.43 464.693 201.596 465.145 201.929C465.596 202.262 465.822 202.808 465.822 203.569C465.822 204.163 465.632 204.663 465.252 205.067C464.871 205.471 464.336 205.685 463.647 205.709Z" fill="#0C0824"/>
<path d="M480.672 108.127V105H494.239V226H480.672V222.873H491.112V108.127H480.672Z" fill="#0C0824"/>
</svg>
