<svg width="814" height="455" viewBox="0 0 814 455" fill="none" xmlns="http://www.w3.org/2000/svg">
<path d="M226.909 385.38C226.605 385.38 226.325 385.3 226.069 385.14C225.813 384.996 225.605 384.796 225.445 384.54C225.301 384.284 225.229 384.004 225.229 383.7C225.229 383.22 225.389 382.82 225.709 382.5C226.045 382.18 226.445 382.02 226.909 382.02C227.373 382.02 227.765 382.18 228.085 382.5C228.421 382.82 228.589 383.22 228.589 383.7C228.589 384.004 228.509 384.284 228.349 384.54C228.205 384.796 228.005 384.996 227.749 385.14C227.509 385.3 227.229 385.38 226.909 385.38ZM234.104 385.38C233.8 385.38 233.52 385.3 233.264 385.14C233.008 384.996 232.8 384.796 232.64 384.54C232.496 384.284 232.424 384.004 232.424 383.7C232.424 383.22 232.584 382.82 232.904 382.5C233.24 382.18 233.64 382.02 234.104 382.02C234.568 382.02 234.96 382.18 235.28 382.5C235.616 382.82 235.784 383.22 235.784 383.7C235.784 384.004 235.704 384.284 235.544 384.54C235.4 384.796 235.2 384.996 234.944 385.14C234.704 385.3 234.424 385.38 234.104 385.38ZM241.299 385.38C240.995 385.38 240.715 385.3 240.459 385.14C240.203 384.996 239.995 384.796 239.835 384.54C239.691 384.284 239.619 384.004 239.619 383.7C239.619 383.22 239.779 382.82 240.099 382.5C240.435 382.18 240.835 382.02 241.299 382.02C241.763 382.02 242.155 382.18 242.475 382.5C242.811 382.82 242.979 383.22 242.979 383.7C242.979 384.004 242.899 384.284 242.739 384.54C242.595 384.796 242.395 384.996 242.139 385.14C241.899 385.3 241.619 385.38 241.299 385.38ZM253.295 385.38C252.207 385.38 251.263 385.14 250.463 384.66C249.663 384.164 249.103 383.524 248.783 382.74V385.14H246.815V368.34H248.927V374.7C249.295 373.916 249.855 373.3 250.607 372.852C251.375 372.404 252.271 372.18 253.295 372.18C254.879 372.18 256.151 372.708 257.111 373.764C258.087 374.804 258.575 376.356 258.575 378.42V378.9C258.575 380.34 258.351 381.54 257.903 382.5C257.471 383.46 256.855 384.18 256.055 384.66C255.271 385.14 254.351 385.38 253.295 385.38ZM252.815 383.508C253.855 383.508 254.719 383.116 255.407 382.332C256.111 381.548 256.463 380.404 256.463 378.9V378.42C256.463 377.028 256.111 375.956 255.407 375.204C254.719 374.436 253.855 374.052 252.815 374.052C252.047 374.052 251.367 374.212 250.775 374.532C250.199 374.852 249.743 375.292 249.407 375.852C249.087 376.396 248.927 377.012 248.927 377.7V379.62C248.927 380.388 249.087 381.068 249.407 381.66C249.743 382.236 250.199 382.692 250.775 383.028C251.367 383.348 252.047 383.508 252.815 383.508ZM266.068 385.38C264.532 385.38 263.38 384.94 262.612 384.06C261.844 383.18 261.46 381.82 261.46 379.98V372.42H263.572V379.86C263.572 381.044 263.812 381.94 264.292 382.548C264.788 383.156 265.588 383.46 266.692 383.46C267.492 383.46 268.148 383.284 268.66 382.932C269.172 382.58 269.548 382.132 269.788 381.588C270.028 381.028 270.148 380.452 270.148 379.86V372.42H272.26V385.14H270.292V382.74C270.004 383.444 269.5 384.06 268.78 384.588C268.06 385.116 267.156 385.38 266.068 385.38ZM280.791 385.26C279.895 385.26 279.159 385.124 278.583 384.852C278.023 384.58 277.607 384.172 277.335 383.628C277.079 383.068 276.951 382.372 276.951 381.54V374.292H275.031V372.42H276.951V369.54H279.063V372.42H282.471V374.292H279.063V381.3C279.063 382.02 279.215 382.54 279.519 382.86C279.823 383.18 280.407 383.34 281.271 383.34C281.751 383.34 282.231 383.316 282.711 383.268V385.14C282.407 385.172 282.103 385.196 281.799 385.212C281.495 385.244 281.159 385.26 280.791 385.26ZM294.001 385.14L290.521 372.42H292.825L295.273 382.26L298.585 372.42H300.457L303.889 382.26L306.313 372.42H308.521L305.041 385.14H302.929L299.473 375.3L296.113 385.14H294.001ZM316.196 385.38C315.124 385.38 314.116 385.148 313.172 384.684C312.244 384.22 311.492 383.508 310.916 382.548C310.356 381.588 310.076 380.372 310.076 378.9V378.42C310.076 377.012 310.348 375.852 310.892 374.94C311.436 374.012 312.156 373.324 313.052 372.876C313.948 372.412 314.916 372.18 315.956 372.18C317.828 372.18 319.276 372.692 320.3 373.716C321.324 374.74 321.836 376.188 321.836 378.06V379.404H312.188C312.188 380.396 312.388 381.188 312.788 381.78C313.204 382.372 313.716 382.804 314.324 383.076C314.948 383.332 315.572 383.46 316.196 383.46C317.156 383.46 317.892 383.3 318.404 382.98C318.932 382.66 319.308 382.22 319.532 381.66H321.596C321.34 382.876 320.708 383.804 319.7 384.444C318.708 385.068 317.54 385.38 316.196 385.38ZM316.076 374.1C315.42 374.1 314.796 374.228 314.204 374.484C313.612 374.724 313.124 375.108 312.74 375.636C312.372 376.164 312.188 376.844 312.188 377.676H319.844C319.828 376.796 319.644 376.1 319.292 375.588C318.956 375.06 318.508 374.684 317.948 374.46C317.388 374.22 316.764 374.1 316.076 374.1ZM335.758 385.38C334.67 385.38 333.686 385.148 332.806 384.684C331.942 384.204 331.254 383.484 330.742 382.524C330.246 381.564 329.998 380.356 329.998 378.9V378.42C329.998 377.044 330.27 375.892 330.814 374.964C331.358 374.036 332.07 373.34 332.95 372.876C333.83 372.412 334.766 372.18 335.758 372.18C336.766 372.18 337.63 372.364 338.35 372.732C339.086 373.084 339.678 373.572 340.126 374.196C340.574 374.804 340.878 375.492 341.038 376.26H338.878C338.622 375.652 338.262 375.14 337.798 374.724C337.35 374.308 336.67 374.1 335.758 374.1C335.134 374.1 334.55 374.252 334.006 374.556C333.462 374.844 333.014 375.308 332.662 375.948C332.326 376.572 332.158 377.396 332.158 378.42V378.9C332.158 379.988 332.326 380.868 332.662 381.54C333.014 382.212 333.462 382.7 334.006 383.004C334.55 383.308 335.134 383.46 335.758 383.46C336.542 383.46 337.198 383.268 337.726 382.884C338.27 382.5 338.654 381.972 338.878 381.3H341.038C340.846 382.132 340.502 382.86 340.006 383.484C339.51 384.092 338.902 384.564 338.182 384.9C337.462 385.22 336.654 385.38 335.758 385.38ZM347.54 385.38C346.612 385.38 345.82 385.212 345.164 384.876C344.524 384.524 344.036 384.052 343.7 383.46C343.364 382.852 343.196 382.172 343.196 381.42C343.196 380.156 343.564 379.244 344.3 378.684C345.052 378.124 346.124 377.844 347.516 377.844H351.644V376.98C351.644 375.892 351.396 375.14 350.9 374.724C350.42 374.308 349.692 374.1 348.716 374.1C347.804 374.1 347.14 374.276 346.724 374.628C346.308 374.964 346.076 375.348 346.028 375.78H343.916C343.964 375.092 344.196 374.484 344.612 373.956C345.028 373.412 345.596 372.98 346.316 372.66C347.036 372.34 347.876 372.18 348.836 372.18C349.844 372.18 350.716 372.34 351.452 372.66C352.188 372.964 352.756 373.452 353.156 374.124C353.556 374.78 353.756 375.652 353.756 376.74V381.9C353.756 382.572 353.756 383.164 353.756 383.676C353.772 384.172 353.812 384.66 353.876 385.14H352.028C351.98 384.772 351.948 384.428 351.932 384.108C351.916 383.772 351.908 383.396 351.908 382.98C351.572 383.652 351.028 384.22 350.276 384.684C349.524 385.148 348.612 385.38 347.54 385.38ZM347.996 383.46C348.668 383.46 349.276 383.34 349.82 383.1C350.38 382.86 350.82 382.508 351.14 382.044C351.476 381.58 351.644 381.012 351.644 380.34V379.476H347.876C347.092 379.476 346.476 379.636 346.028 379.956C345.58 380.26 345.356 380.748 345.356 381.42C345.356 382.012 345.564 382.5 345.98 382.884C346.412 383.268 347.084 383.46 347.996 383.46ZM357.486 385.14V372.42H359.454V374.82C359.742 374.116 360.246 373.5 360.966 372.972C361.702 372.444 362.646 372.18 363.798 372.18C365.398 372.18 366.582 372.612 367.35 373.476C368.134 374.324 368.526 375.572 368.526 377.22V385.14H366.414V377.7C366.414 376.516 366.166 375.62 365.67 375.012C365.174 374.404 364.342 374.1 363.174 374.1C362.342 374.1 361.662 374.276 361.134 374.628C360.606 374.98 360.214 375.428 359.958 375.972C359.718 376.516 359.598 377.092 359.598 377.7V385.14H357.486ZM381.876 385.38C380.948 385.38 380.156 385.212 379.5 384.876C378.86 384.524 378.372 384.052 378.036 383.46C377.7 382.852 377.532 382.172 377.532 381.42C377.532 380.156 377.9 379.244 378.636 378.684C379.388 378.124 380.46 377.844 381.852 377.844H385.98V376.98C385.98 375.892 385.732 375.14 385.236 374.724C384.756 374.308 384.028 374.1 383.052 374.1C382.14 374.1 381.476 374.276 381.06 374.628C380.644 374.964 380.412 375.348 380.364 375.78H378.252C378.3 375.092 378.532 374.484 378.948 373.956C379.364 373.412 379.932 372.98 380.652 372.66C381.372 372.34 382.212 372.18 383.172 372.18C384.18 372.18 385.052 372.34 385.788 372.66C386.524 372.964 387.092 373.452 387.492 374.124C387.892 374.78 388.092 375.652 388.092 376.74V381.9C388.092 382.572 388.092 383.164 388.092 383.676C388.108 384.172 388.148 384.66 388.212 385.14H386.364C386.316 384.772 386.284 384.428 386.268 384.108C386.252 383.772 386.244 383.396 386.244 382.98C385.908 383.652 385.364 384.22 384.612 384.684C383.86 385.148 382.948 385.38 381.876 385.38ZM382.332 383.46C383.004 383.46 383.612 383.34 384.156 383.1C384.716 382.86 385.156 382.508 385.476 382.044C385.812 381.58 385.98 381.012 385.98 380.34V379.476H382.212C381.428 379.476 380.812 379.636 380.364 379.956C379.916 380.26 379.692 380.748 379.692 381.42C379.692 382.012 379.9 382.5 380.316 382.884C380.748 383.268 381.42 383.46 382.332 383.46ZM395.662 385.26C394.782 385.26 394.062 385.124 393.502 384.852C392.958 384.564 392.558 384.124 392.302 383.532C392.062 382.924 391.942 382.14 391.942 381.18V368.34H394.054V381.18C394.054 382.012 394.19 382.58 394.462 382.884C394.734 383.188 395.214 383.34 395.902 383.34C396.078 383.34 396.23 383.34 396.358 383.34C396.486 383.324 396.614 383.308 396.742 383.292V385.164C396.662 385.18 396.55 385.196 396.406 385.212C396.278 385.228 396.142 385.236 395.998 385.236C395.87 385.252 395.758 385.26 395.662 385.26ZM403.95 385.38C403.102 385.38 402.366 385.284 401.742 385.092C401.118 384.884 400.598 384.612 400.182 384.276C399.766 383.94 399.43 383.548 399.174 383.1C398.934 382.636 398.766 382.156 398.67 381.66H400.782C400.894 382.172 401.19 382.62 401.67 383.004C402.166 383.372 402.926 383.556 403.95 383.556C405.134 383.556 405.958 383.372 406.422 383.004C406.886 382.62 407.118 382.172 407.118 381.66C407.118 381.308 407.014 381.004 406.806 380.748C406.614 380.476 406.262 380.244 405.75 380.052C405.254 379.86 404.542 379.7 403.614 379.572C402.91 379.476 402.278 379.34 401.718 379.164C401.158 378.972 400.678 378.724 400.278 378.42C399.878 378.116 399.566 377.748 399.342 377.316C399.134 376.884 399.03 376.372 399.03 375.78C399.03 375.14 399.214 374.548 399.582 374.004C399.95 373.46 400.502 373.02 401.238 372.684C401.974 372.348 402.878 372.18 403.95 372.18C404.958 372.18 405.79 372.356 406.446 372.708C407.118 373.044 407.638 373.492 408.006 374.052C408.374 374.612 408.622 375.228 408.75 375.9H406.638C406.51 375.34 406.238 374.884 405.822 374.532C405.406 374.18 404.782 374.004 403.95 374.004C402.91 374.004 402.182 374.18 401.766 374.532C401.35 374.868 401.142 375.284 401.142 375.78C401.142 376.356 401.366 376.788 401.814 377.076C402.278 377.364 403.118 377.588 404.334 377.748C405.118 377.844 405.814 377.988 406.422 378.18C407.03 378.356 407.542 378.604 407.958 378.924C408.374 379.228 408.686 379.604 408.894 380.052C409.118 380.5 409.23 381.036 409.23 381.66C409.23 382.332 409.038 382.948 408.654 383.508C408.27 384.068 407.686 384.524 406.902 384.876C406.134 385.212 405.15 385.38 403.95 385.38ZM417.516 385.38C416.444 385.38 415.436 385.148 414.492 384.684C413.564 384.204 412.812 383.484 412.236 382.524C411.676 381.564 411.396 380.356 411.396 378.9V378.42C411.396 377.044 411.676 375.892 412.236 374.964C412.812 374.036 413.564 373.34 414.492 372.876C415.436 372.412 416.444 372.18 417.516 372.18C418.604 372.18 419.612 372.412 420.54 372.876C421.468 373.34 422.212 374.036 422.772 374.964C423.348 375.892 423.636 377.044 423.636 378.42V378.9C423.636 380.356 423.348 381.564 422.772 382.524C422.212 383.484 421.468 384.204 420.54 384.684C419.612 385.148 418.604 385.38 417.516 385.38ZM417.516 383.46C418.172 383.46 418.796 383.316 419.388 383.028C419.996 382.724 420.492 382.236 420.876 381.564C421.276 380.892 421.476 380.004 421.476 378.9V378.42C421.476 377.396 421.276 376.572 420.876 375.948C420.492 375.308 419.996 374.844 419.388 374.556C418.796 374.252 418.172 374.1 417.516 374.1C416.876 374.1 416.252 374.252 415.644 374.556C415.036 374.844 414.532 375.308 414.132 375.948C413.748 376.572 413.556 377.396 413.556 378.42V378.9C413.556 380.004 413.748 380.892 414.132 381.564C414.532 382.236 415.036 382.724 415.644 383.028C416.252 383.316 416.876 383.46 417.516 383.46ZM437.667 390.18C436.435 390.18 435.435 390.02 434.667 389.7C433.899 389.38 433.331 388.948 432.963 388.404C432.595 387.86 432.363 387.252 432.267 386.58H434.475C434.635 387.092 434.939 387.5 435.387 387.804C435.835 388.108 436.595 388.26 437.667 388.26C438.963 388.26 439.915 387.948 440.523 387.324C441.131 386.7 441.435 385.812 441.435 384.66V382.62C441.067 383.468 440.499 384.1 439.731 384.516C438.979 384.932 438.091 385.14 437.067 385.14C436.027 385.14 435.107 384.9 434.307 384.42C433.507 383.94 432.883 383.228 432.435 382.284C432.003 381.34 431.787 380.172 431.787 378.78V378.3C431.787 376.988 432.011 375.884 432.459 374.988C432.923 374.076 433.547 373.38 434.331 372.9C435.131 372.42 436.043 372.18 437.067 372.18C438.155 372.18 439.099 372.428 439.899 372.924C440.699 373.404 441.259 374.036 441.579 374.82V372.42H443.547V384.66C443.547 386.388 443.043 387.74 442.035 388.716C441.027 389.692 439.571 390.18 437.667 390.18ZM437.547 383.268C438.315 383.268 438.987 383.108 439.563 382.788C440.155 382.468 440.611 382.028 440.931 381.468C441.267 380.892 441.435 380.236 441.435 379.5V377.58C441.435 376.924 441.267 376.332 440.931 375.804C440.611 375.276 440.155 374.852 439.563 374.532C438.987 374.212 438.315 374.052 437.547 374.052C436.523 374.052 435.659 374.428 434.955 375.18C434.251 375.932 433.899 376.972 433.899 378.3V378.78C433.899 380.236 434.251 381.348 434.955 382.116C435.659 382.884 436.523 383.268 437.547 383.268ZM452.673 385.38C451.601 385.38 450.593 385.148 449.649 384.684C448.721 384.204 447.969 383.484 447.393 382.524C446.833 381.564 446.553 380.356 446.553 378.9V378.42C446.553 377.044 446.833 375.892 447.393 374.964C447.969 374.036 448.721 373.34 449.649 372.876C450.593 372.412 451.601 372.18 452.673 372.18C453.761 372.18 454.769 372.412 455.697 372.876C456.625 373.34 457.369 374.036 457.929 374.964C458.505 375.892 458.793 377.044 458.793 378.42V378.9C458.793 380.356 458.505 381.564 457.929 382.524C457.369 383.484 456.625 384.204 455.697 384.684C454.769 385.148 453.761 385.38 452.673 385.38ZM452.673 383.46C453.329 383.46 453.953 383.316 454.545 383.028C455.153 382.724 455.649 382.236 456.033 381.564C456.433 380.892 456.633 380.004 456.633 378.9V378.42C456.633 377.396 456.433 376.572 456.033 375.948C455.649 375.308 455.153 374.844 454.545 374.556C453.953 374.252 453.329 374.1 452.673 374.1C452.033 374.1 451.409 374.252 450.801 374.556C450.193 374.844 449.689 375.308 449.289 375.948C448.905 376.572 448.713 377.396 448.713 378.42V378.9C448.713 380.004 448.905 380.892 449.289 381.564C449.689 382.236 450.193 382.724 450.801 383.028C451.409 383.316 452.033 383.46 452.673 383.46ZM472.463 385.26C471.567 385.26 470.831 385.124 470.255 384.852C469.695 384.58 469.279 384.172 469.007 383.628C468.751 383.068 468.623 382.372 468.623 381.54V374.292H466.703V372.42H468.623V369.54H470.735V372.42H474.143V374.292H470.735V381.3C470.735 382.02 470.887 382.54 471.191 382.86C471.495 383.18 472.079 383.34 472.943 383.34C473.423 383.34 473.903 383.316 474.383 383.268V385.14C474.079 385.172 473.775 385.196 473.471 385.212C473.167 385.244 472.831 385.26 472.463 385.26ZM482.673 385.38C481.601 385.38 480.593 385.148 479.649 384.684C478.721 384.204 477.969 383.484 477.393 382.524C476.833 381.564 476.553 380.356 476.553 378.9V378.42C476.553 377.044 476.833 375.892 477.393 374.964C477.969 374.036 478.721 373.34 479.649 372.876C480.593 372.412 481.601 372.18 482.673 372.18C483.761 372.18 484.769 372.412 485.697 372.876C486.625 373.34 487.369 374.036 487.929 374.964C488.505 375.892 488.793 377.044 488.793 378.42V378.9C488.793 380.356 488.505 381.564 487.929 382.524C487.369 383.484 486.625 384.204 485.697 384.684C484.769 385.148 483.761 385.38 482.673 385.38ZM482.673 383.46C483.329 383.46 483.953 383.316 484.545 383.028C485.153 382.724 485.649 382.236 486.033 381.564C486.433 380.892 486.633 380.004 486.633 378.9V378.42C486.633 377.396 486.433 376.572 486.033 375.948C485.649 375.308 485.153 374.844 484.545 374.556C483.953 374.252 483.329 374.1 482.673 374.1C482.033 374.1 481.409 374.252 480.801 374.556C480.193 374.844 479.689 375.308 479.289 375.948C478.905 376.572 478.713 377.396 478.713 378.42V378.9C478.713 380.004 478.905 380.892 479.289 381.564C479.689 382.236 480.193 382.724 480.801 383.028C481.409 383.316 482.033 383.46 482.673 383.46ZM501.407 385.38C500.479 385.38 499.687 385.212 499.031 384.876C498.391 384.524 497.903 384.052 497.567 383.46C497.231 382.852 497.063 382.172 497.063 381.42C497.063 380.156 497.431 379.244 498.167 378.684C498.919 378.124 499.991 377.844 501.383 377.844H505.511V376.98C505.511 375.892 505.263 375.14 504.767 374.724C504.287 374.308 503.559 374.1 502.583 374.1C501.671 374.1 501.007 374.276 500.591 374.628C500.175 374.964 499.943 375.348 499.895 375.78H497.783C497.831 375.092 498.063 374.484 498.479 373.956C498.895 373.412 499.463 372.98 500.183 372.66C500.903 372.34 501.743 372.18 502.703 372.18C503.711 372.18 504.583 372.34 505.319 372.66C506.055 372.964 506.623 373.452 507.023 374.124C507.423 374.78 507.623 375.652 507.623 376.74V381.9C507.623 382.572 507.623 383.164 507.623 383.676C507.639 384.172 507.679 384.66 507.743 385.14H505.895C505.847 384.772 505.815 384.428 505.799 384.108C505.783 383.772 505.775 383.396 505.775 382.98C505.439 383.652 504.895 384.22 504.143 384.684C503.391 385.148 502.479 385.38 501.407 385.38ZM501.863 383.46C502.535 383.46 503.143 383.34 503.687 383.1C504.247 382.86 504.687 382.508 505.007 382.044C505.343 381.58 505.511 381.012 505.511 380.34V379.476H501.743C500.959 379.476 500.343 379.636 499.895 379.956C499.447 380.26 499.223 380.748 499.223 381.42C499.223 382.012 499.431 382.5 499.847 382.884C500.279 383.268 500.951 383.46 501.863 383.46ZM515.794 385.38C514.946 385.38 514.21 385.284 513.586 385.092C512.962 384.884 512.442 384.612 512.026 384.276C511.61 383.94 511.274 383.548 511.018 383.1C510.778 382.636 510.61 382.156 510.514 381.66H512.626C512.738 382.172 513.034 382.62 513.514 383.004C514.01 383.372 514.77 383.556 515.794 383.556C516.978 383.556 517.802 383.372 518.266 383.004C518.73 382.62 518.962 382.172 518.962 381.66C518.962 381.308 518.858 381.004 518.65 380.748C518.458 380.476 518.106 380.244 517.594 380.052C517.098 379.86 516.386 379.7 515.458 379.572C514.754 379.476 514.122 379.34 513.562 379.164C513.002 378.972 512.522 378.724 512.122 378.42C511.722 378.116 511.41 377.748 511.186 377.316C510.978 376.884 510.874 376.372 510.874 375.78C510.874 375.14 511.058 374.548 511.426 374.004C511.794 373.46 512.346 373.02 513.082 372.684C513.818 372.348 514.722 372.18 515.794 372.18C516.802 372.18 517.634 372.356 518.29 372.708C518.962 373.044 519.482 373.492 519.85 374.052C520.218 374.612 520.466 375.228 520.594 375.9H518.482C518.354 375.34 518.082 374.884 517.666 374.532C517.25 374.18 516.626 374.004 515.794 374.004C514.754 374.004 514.026 374.18 513.61 374.532C513.194 374.868 512.986 375.284 512.986 375.78C512.986 376.356 513.21 376.788 513.658 377.076C514.122 377.364 514.962 377.588 516.178 377.748C516.962 377.844 517.658 377.988 518.266 378.18C518.874 378.356 519.386 378.604 519.802 378.924C520.218 379.228 520.53 379.604 520.738 380.052C520.962 380.5 521.074 381.036 521.074 381.66C521.074 382.332 520.882 382.948 520.498 383.508C520.114 384.068 519.53 384.524 518.746 384.876C517.978 385.212 516.994 385.38 515.794 385.38ZM530.08 385.14V372.42H532.048V374.82C532.32 374.036 532.784 373.404 533.44 372.924C534.112 372.428 534.872 372.18 535.72 372.18C536.824 372.18 537.672 372.42 538.264 372.9C538.856 373.364 539.264 373.964 539.488 374.7C539.904 373.916 540.432 373.3 541.072 372.852C541.728 372.404 542.512 372.18 543.424 372.18C544.736 372.18 545.76 372.58 546.496 373.38C547.232 374.164 547.6 375.404 547.6 377.1V385.14H545.488V377.58C545.488 376.316 545.264 375.42 544.816 374.892C544.384 374.364 543.72 374.1 542.824 374.1C542.312 374.1 541.832 374.244 541.384 374.532C540.936 374.804 540.576 375.204 540.304 375.732C540.032 376.244 539.896 376.86 539.896 377.58V385.14H537.784V377.58C537.784 376.316 537.56 375.42 537.112 374.892C536.664 374.364 536 374.1 535.12 374.1C534.608 374.1 534.128 374.244 533.68 374.532C533.232 374.804 532.872 375.204 532.6 375.732C532.328 376.244 532.192 376.86 532.192 377.58V385.14H530.08ZM554.939 385.38C554.011 385.38 553.219 385.212 552.563 384.876C551.923 384.524 551.435 384.052 551.099 383.46C550.763 382.852 550.595 382.172 550.595 381.42C550.595 380.156 550.963 379.244 551.699 378.684C552.451 378.124 553.523 377.844 554.915 377.844H559.043V376.98C559.043 375.892 558.795 375.14 558.299 374.724C557.819 374.308 557.091 374.1 556.115 374.1C555.203 374.1 554.539 374.276 554.123 374.628C553.707 374.964 553.475 375.348 553.427 375.78H551.315C551.363 375.092 551.595 374.484 552.011 373.956C552.427 373.412 552.995 372.98 553.715 372.66C554.435 372.34 555.275 372.18 556.235 372.18C557.243 372.18 558.115 372.34 558.851 372.66C559.587 372.964 560.155 373.452 560.555 374.124C560.955 374.78 561.155 375.652 561.155 376.74V381.9C561.155 382.572 561.155 383.164 561.155 383.676C561.171 384.172 561.211 384.66 561.275 385.14H559.427C559.379 384.772 559.347 384.428 559.331 384.108C559.315 383.772 559.307 383.396 559.307 382.98C558.971 383.652 558.427 384.22 557.675 384.684C556.923 385.148 556.011 385.38 554.939 385.38ZM555.395 383.46C556.067 383.46 556.675 383.34 557.219 383.1C557.779 382.86 558.219 382.508 558.539 382.044C558.875 381.58 559.043 381.012 559.043 380.34V379.476H555.275C554.491 379.476 553.875 379.636 553.427 379.956C552.979 380.26 552.755 380.748 552.755 381.42C552.755 382.012 552.963 382.5 553.379 382.884C553.811 383.268 554.483 383.46 555.395 383.46ZM564.885 385.14V372.42H566.853V374.82C567.141 374.116 567.645 373.5 568.365 372.972C569.101 372.444 570.045 372.18 571.197 372.18C572.797 372.18 573.981 372.612 574.749 373.476C575.533 374.324 575.925 375.572 575.925 377.22V385.14H573.813V377.7C573.813 376.516 573.565 375.62 573.069 375.012C572.573 374.404 571.741 374.1 570.573 374.1C569.741 374.1 569.061 374.276 568.533 374.628C568.005 374.98 567.613 375.428 567.357 375.972C567.117 376.516 566.997 377.092 566.997 377.7V385.14H564.885ZM580.862 390.18C580.622 390.18 580.382 390.156 580.142 390.108V388.188C580.382 388.236 580.622 388.26 580.862 388.26C581.182 388.26 581.446 388.18 581.654 388.02C581.878 387.876 582.102 387.58 582.326 387.132C582.55 386.684 582.822 386.02 583.142 385.14L577.742 372.42H580.094L584.222 382.74L587.966 372.42H590.222L585.422 385.14C584.974 386.34 584.542 387.308 584.126 388.044C583.726 388.78 583.27 389.316 582.758 389.652C582.262 390.004 581.63 390.18 580.862 390.18ZM225.719 423.38C224.679 423.38 223.759 423.14 222.959 422.66C222.159 422.18 221.535 421.46 221.087 420.5C220.655 419.54 220.439 418.34 220.439 416.9V416.42C220.439 415.076 220.663 413.94 221.111 413.012C221.575 412.084 222.199 411.38 222.983 410.9C223.783 410.42 224.695 410.18 225.719 410.18C226.743 410.18 227.631 410.404 228.383 410.852C229.151 411.3 229.719 411.916 230.087 412.7V406.34H232.199V423.14H230.231V420.74C229.911 421.524 229.351 422.164 228.551 422.66C227.751 423.14 226.807 423.38 225.719 423.38ZM226.199 421.508C226.967 421.508 227.639 421.348 228.215 421.028C228.807 420.692 229.263 420.236 229.583 419.66C229.919 419.068 230.087 418.388 230.087 417.62V415.7C230.087 415.012 229.919 414.396 229.583 413.852C229.263 413.292 228.807 412.852 228.215 412.532C227.639 412.212 226.967 412.052 226.199 412.052C225.175 412.052 224.311 412.436 223.607 413.204C222.903 413.956 222.551 415.028 222.551 416.42V416.9C222.551 418.404 222.903 419.548 223.607 420.332C224.311 421.116 225.175 421.508 226.199 421.508ZM236.285 423.14V410.42H238.397V423.14H236.285ZM237.341 408.74C236.925 408.74 236.581 408.604 236.309 408.332C236.037 408.06 235.901 407.716 235.901 407.3C235.901 406.884 236.037 406.54 236.309 406.268C236.581 405.996 236.925 405.86 237.341 405.86C237.757 405.86 238.101 405.996 238.373 406.268C238.645 406.54 238.781 406.884 238.781 407.3C238.781 407.716 238.645 408.06 238.373 408.332C238.101 408.604 237.757 408.74 237.341 408.74ZM242.467 423.14V410.42H244.435V412.82C244.707 412.036 245.171 411.404 245.827 410.924C246.499 410.428 247.259 410.18 248.107 410.18C249.211 410.18 250.059 410.42 250.651 410.9C251.243 411.364 251.651 411.964 251.875 412.7C252.291 411.916 252.819 411.3 253.459 410.852C254.115 410.404 254.899 410.18 255.811 410.18C257.123 410.18 258.147 410.58 258.883 411.38C259.619 412.164 259.987 413.404 259.987 415.1V423.14H257.875V415.58C257.875 414.316 257.651 413.42 257.203 412.892C256.771 412.364 256.107 412.1 255.211 412.1C254.699 412.1 254.219 412.244 253.771 412.532C253.323 412.804 252.963 413.204 252.691 413.732C252.419 414.244 252.283 414.86 252.283 415.58V423.14H250.171V415.58C250.171 414.316 249.947 413.42 249.499 412.892C249.051 412.364 248.387 412.1 247.507 412.1C246.995 412.1 246.515 412.244 246.067 412.532C245.619 412.804 245.259 413.204 244.987 413.732C244.715 414.244 244.579 414.86 244.579 415.58V423.14H242.467ZM268.981 423.38C267.909 423.38 266.901 423.148 265.957 422.684C265.029 422.22 264.277 421.508 263.701 420.548C263.141 419.588 262.861 418.372 262.861 416.9V416.42C262.861 415.012 263.133 413.852 263.677 412.94C264.221 412.012 264.941 411.324 265.837 410.876C266.733 410.412 267.701 410.18 268.741 410.18C270.613 410.18 272.061 410.692 273.085 411.716C274.109 412.74 274.621 414.188 274.621 416.06V417.404H264.973C264.973 418.396 265.173 419.188 265.573 419.78C265.989 420.372 266.501 420.804 267.109 421.076C267.733 421.332 268.357 421.46 268.981 421.46C269.941 421.46 270.677 421.3 271.189 420.98C271.717 420.66 272.093 420.22 272.317 419.66H274.381C274.125 420.876 273.493 421.804 272.485 422.444C271.493 423.068 270.325 423.38 268.981 423.38ZM268.861 412.1C268.205 412.1 267.581 412.228 266.989 412.484C266.397 412.724 265.909 413.108 265.525 413.636C265.157 414.164 264.973 414.844 264.973 415.676H272.629C272.613 414.796 272.429 414.1 272.077 413.588C271.741 413.06 271.293 412.684 270.733 412.46C270.173 412.22 269.549 412.1 268.861 412.1ZM277.623 423.14V410.42H279.591V412.82C279.879 412.116 280.383 411.5 281.103 410.972C281.839 410.444 282.783 410.18 283.935 410.18C285.535 410.18 286.719 410.612 287.487 411.476C288.271 412.324 288.663 413.572 288.663 415.22V423.14H286.551V415.7C286.551 414.516 286.303 413.62 285.807 413.012C285.311 412.404 284.479 412.1 283.311 412.1C282.479 412.1 281.799 412.276 281.271 412.628C280.743 412.98 280.351 413.428 280.095 413.972C279.855 414.516 279.735 415.092 279.735 415.7V423.14H277.623ZM296.829 423.38C295.981 423.38 295.245 423.284 294.621 423.092C293.997 422.884 293.477 422.612 293.061 422.276C292.645 421.94 292.309 421.548 292.053 421.1C291.813 420.636 291.645 420.156 291.549 419.66H293.661C293.773 420.172 294.069 420.62 294.549 421.004C295.045 421.372 295.805 421.556 296.829 421.556C298.013 421.556 298.837 421.372 299.301 421.004C299.765 420.62 299.997 420.172 299.997 419.66C299.997 419.308 299.893 419.004 299.685 418.748C299.493 418.476 299.141 418.244 298.629 418.052C298.133 417.86 297.421 417.7 296.493 417.572C295.789 417.476 295.157 417.34 294.597 417.164C294.037 416.972 293.557 416.724 293.157 416.42C292.757 416.116 292.445 415.748 292.221 415.316C292.013 414.884 291.909 414.372 291.909 413.78C291.909 413.14 292.093 412.548 292.461 412.004C292.829 411.46 293.381 411.02 294.117 410.684C294.853 410.348 295.757 410.18 296.829 410.18C297.837 410.18 298.669 410.356 299.325 410.708C299.997 411.044 300.517 411.492 300.885 412.052C301.253 412.612 301.501 413.228 301.629 413.9H299.517C299.389 413.34 299.117 412.884 298.701 412.532C298.285 412.18 297.661 412.004 296.829 412.004C295.789 412.004 295.061 412.18 294.645 412.532C294.229 412.868 294.021 413.284 294.021 413.78C294.021 414.356 294.245 414.788 294.693 415.076C295.157 415.364 295.997 415.588 297.213 415.748C297.997 415.844 298.693 415.988 299.301 416.18C299.909 416.356 300.421 416.604 300.837 416.924C301.253 417.228 301.565 417.604 301.773 418.052C301.997 418.5 302.109 419.036 302.109 419.66C302.109 420.332 301.917 420.948 301.533 421.508C301.149 422.068 300.565 422.524 299.781 422.876C299.013 423.212 298.029 423.38 296.829 423.38ZM305.355 423.14V410.42H307.467V423.14H305.355ZM306.411 408.74C305.995 408.74 305.651 408.604 305.379 408.332C305.107 408.06 304.971 407.716 304.971 407.3C304.971 406.884 305.107 406.54 305.379 406.268C305.651 405.996 305.995 405.86 306.411 405.86C306.827 405.86 307.171 405.996 307.443 406.268C307.715 406.54 307.851 406.884 307.851 407.3C307.851 407.716 307.715 408.06 307.443 408.332C307.171 408.604 306.827 408.74 306.411 408.74ZM316.817 423.38C315.745 423.38 314.737 423.148 313.793 422.684C312.865 422.204 312.113 421.484 311.537 420.524C310.977 419.564 310.697 418.356 310.697 416.9V416.42C310.697 415.044 310.977 413.892 311.537 412.964C312.113 412.036 312.865 411.34 313.793 410.876C314.737 410.412 315.745 410.18 316.817 410.18C317.905 410.18 318.913 410.412 319.841 410.876C320.769 411.34 321.513 412.036 322.073 412.964C322.649 413.892 322.937 415.044 322.937 416.42V416.9C322.937 418.356 322.649 419.564 322.073 420.524C321.513 421.484 320.769 422.204 319.841 422.684C318.913 423.148 317.905 423.38 316.817 423.38ZM316.817 421.46C317.473 421.46 318.097 421.316 318.689 421.028C319.297 420.724 319.793 420.236 320.177 419.564C320.577 418.892 320.777 418.004 320.777 416.9V416.42C320.777 415.396 320.577 414.572 320.177 413.948C319.793 413.308 319.297 412.844 318.689 412.556C318.097 412.252 317.473 412.1 316.817 412.1C316.177 412.1 315.553 412.252 314.945 412.556C314.337 412.844 313.833 413.308 313.433 413.948C313.049 414.572 312.857 415.396 312.857 416.42V416.9C312.857 418.004 313.049 418.892 313.433 419.564C313.833 420.236 314.337 420.724 314.945 421.028C315.553 421.316 316.177 421.46 316.817 421.46ZM325.928 423.14V410.42H327.896V412.82C328.184 412.116 328.688 411.5 329.408 410.972C330.144 410.444 331.088 410.18 332.24 410.18C333.84 410.18 335.024 410.612 335.792 411.476C336.576 412.324 336.968 413.572 336.968 415.22V423.14H334.856V415.7C334.856 414.516 334.608 413.62 334.112 413.012C333.616 412.404 332.784 412.1 331.616 412.1C330.784 412.1 330.104 412.276 329.576 412.628C329.048 412.98 328.656 413.428 328.4 413.972C328.16 414.516 328.04 415.092 328.04 415.7V423.14H325.928ZM345.133 423.38C344.285 423.38 343.549 423.284 342.925 423.092C342.301 422.884 341.781 422.612 341.365 422.276C340.949 421.94 340.613 421.548 340.357 421.1C340.117 420.636 339.949 420.156 339.853 419.66H341.965C342.077 420.172 342.373 420.62 342.853 421.004C343.349 421.372 344.109 421.556 345.133 421.556C346.317 421.556 347.141 421.372 347.605 421.004C348.069 420.62 348.301 420.172 348.301 419.66C348.301 419.308 348.197 419.004 347.989 418.748C347.797 418.476 347.445 418.244 346.933 418.052C346.437 417.86 345.725 417.7 344.797 417.572C344.093 417.476 343.461 417.34 342.901 417.164C342.341 416.972 341.861 416.724 341.461 416.42C341.061 416.116 340.749 415.748 340.525 415.316C340.317 414.884 340.213 414.372 340.213 413.78C340.213 413.14 340.397 412.548 340.765 412.004C341.133 411.46 341.685 411.02 342.421 410.684C343.157 410.348 344.061 410.18 345.133 410.18C346.141 410.18 346.973 410.356 347.629 410.708C348.301 411.044 348.821 411.492 349.189 412.052C349.557 412.612 349.805 413.228 349.933 413.9H347.821C347.693 413.34 347.421 412.884 347.005 412.532C346.589 412.18 345.965 412.004 345.133 412.004C344.093 412.004 343.365 412.18 342.949 412.532C342.533 412.868 342.325 413.284 342.325 413.78C342.325 414.356 342.549 414.788 342.997 415.076C343.461 415.364 344.301 415.588 345.517 415.748C346.301 415.844 346.997 415.988 347.605 416.18C348.213 416.356 348.725 416.604 349.141 416.924C349.557 417.228 349.869 417.604 350.077 418.052C350.301 418.5 350.413 419.036 350.413 419.66C350.413 420.332 350.221 420.948 349.837 421.508C349.453 422.068 348.869 422.524 348.085 422.876C347.317 423.212 346.333 423.38 345.133 423.38ZM363.044 423.38C362.116 423.38 361.324 423.212 360.668 422.876C360.028 422.524 359.54 422.052 359.204 421.46C358.868 420.852 358.7 420.172 358.7 419.42C358.7 418.156 359.068 417.244 359.804 416.684C360.556 416.124 361.628 415.844 363.02 415.844H367.148V414.98C367.148 413.892 366.9 413.14 366.404 412.724C365.924 412.308 365.196 412.1 364.22 412.1C363.308 412.1 362.644 412.276 362.228 412.628C361.812 412.964 361.58 413.348 361.532 413.78H359.42C359.468 413.092 359.7 412.484 360.116 411.956C360.532 411.412 361.1 410.98 361.82 410.66C362.54 410.34 363.38 410.18 364.34 410.18C365.348 410.18 366.22 410.34 366.956 410.66C367.692 410.964 368.26 411.452 368.66 412.124C369.06 412.78 369.26 413.652 369.26 414.74V419.9C369.26 420.572 369.26 421.164 369.26 421.676C369.276 422.172 369.316 422.66 369.38 423.14H367.532C367.484 422.772 367.452 422.428 367.436 422.108C367.42 421.772 367.412 421.396 367.412 420.98C367.076 421.652 366.532 422.22 365.78 422.684C365.028 423.148 364.116 423.38 363.044 423.38ZM363.5 421.46C364.172 421.46 364.78 421.34 365.324 421.1C365.884 420.86 366.324 420.508 366.644 420.044C366.98 419.58 367.148 419.012 367.148 418.34V417.476H363.38C362.596 417.476 361.98 417.636 361.532 417.956C361.084 418.26 360.86 418.748 360.86 419.42C360.86 420.012 361.068 420.5 361.484 420.884C361.916 421.268 362.588 421.46 363.5 421.46ZM377.43 423.38C376.582 423.38 375.846 423.284 375.222 423.092C374.598 422.884 374.078 422.612 373.662 422.276C373.246 421.94 372.91 421.548 372.654 421.1C372.414 420.636 372.246 420.156 372.15 419.66H374.262C374.374 420.172 374.67 420.62 375.15 421.004C375.646 421.372 376.406 421.556 377.43 421.556C378.614 421.556 379.438 421.372 379.902 421.004C380.366 420.62 380.598 420.172 380.598 419.66C380.598 419.308 380.494 419.004 380.286 418.748C380.094 418.476 379.742 418.244 379.23 418.052C378.734 417.86 378.022 417.7 377.094 417.572C376.39 417.476 375.758 417.34 375.198 417.164C374.638 416.972 374.158 416.724 373.758 416.42C373.358 416.116 373.046 415.748 372.822 415.316C372.614 414.884 372.51 414.372 372.51 413.78C372.51 413.14 372.694 412.548 373.062 412.004C373.43 411.46 373.982 411.02 374.718 410.684C375.454 410.348 376.358 410.18 377.43 410.18C378.438 410.18 379.27 410.356 379.926 410.708C380.598 411.044 381.118 411.492 381.486 412.052C381.854 412.612 382.102 413.228 382.23 413.9H380.118C379.99 413.34 379.718 412.884 379.302 412.532C378.886 412.18 378.262 412.004 377.43 412.004C376.39 412.004 375.662 412.18 375.246 412.532C374.83 412.868 374.622 413.284 374.622 413.78C374.622 414.356 374.846 414.788 375.294 415.076C375.758 415.364 376.598 415.588 377.814 415.748C378.598 415.844 379.294 415.988 379.902 416.18C380.51 416.356 381.022 416.604 381.438 416.924C381.854 417.228 382.166 417.604 382.374 418.052C382.598 418.5 382.71 419.036 382.71 419.66C382.71 420.332 382.518 420.948 382.134 421.508C381.75 422.068 381.166 422.524 380.382 422.876C379.614 423.212 378.63 423.38 377.43 423.38ZM393.997 423.14L390.517 410.42H392.821L395.269 420.26L398.581 410.42H400.453L403.885 420.26L406.309 410.42H408.517L405.037 423.14H402.925L399.469 413.3L396.109 423.14H393.997ZM416.192 423.38C415.12 423.38 414.112 423.148 413.168 422.684C412.24 422.22 411.488 421.508 410.912 420.548C410.352 419.588 410.072 418.372 410.072 416.9V416.42C410.072 415.012 410.344 413.852 410.888 412.94C411.432 412.012 412.152 411.324 413.048 410.876C413.944 410.412 414.912 410.18 415.952 410.18C417.824 410.18 419.272 410.692 420.296 411.716C421.32 412.74 421.832 414.188 421.832 416.06V417.404H412.184C412.184 418.396 412.384 419.188 412.784 419.78C413.2 420.372 413.712 420.804 414.32 421.076C414.944 421.332 415.568 421.46 416.192 421.46C417.152 421.46 417.888 421.3 418.4 420.98C418.928 420.66 419.304 420.22 419.528 419.66H421.592C421.336 420.876 420.704 421.804 419.696 422.444C418.704 423.068 417.536 423.38 416.192 423.38ZM416.072 412.1C415.416 412.1 414.792 412.228 414.2 412.484C413.608 412.724 413.12 413.108 412.736 413.636C412.368 414.164 412.184 414.844 412.184 415.676H419.84C419.824 414.796 419.64 414.1 419.288 413.588C418.952 413.06 418.504 412.684 417.944 412.46C417.384 412.22 416.76 412.1 416.072 412.1ZM433.114 423.14L429.634 410.42H431.938L434.386 420.26L437.698 410.42H439.57L443.002 420.26L445.426 410.42H447.634L444.154 423.14H442.042L438.586 413.3L435.226 423.14H433.114ZM453.419 423.38C452.491 423.38 451.699 423.212 451.043 422.876C450.403 422.524 449.915 422.052 449.579 421.46C449.243 420.852 449.075 420.172 449.075 419.42C449.075 418.156 449.443 417.244 450.179 416.684C450.931 416.124 452.003 415.844 453.395 415.844H457.523V414.98C457.523 413.892 457.275 413.14 456.779 412.724C456.299 412.308 455.571 412.1 454.595 412.1C453.683 412.1 453.019 412.276 452.603 412.628C452.187 412.964 451.955 413.348 451.907 413.78H449.795C449.843 413.092 450.075 412.484 450.491 411.956C450.907 411.412 451.475 410.98 452.195 410.66C452.915 410.34 453.755 410.18 454.715 410.18C455.723 410.18 456.595 410.34 457.331 410.66C458.067 410.964 458.635 411.452 459.035 412.124C459.435 412.78 459.635 413.652 459.635 414.74V419.9C459.635 420.572 459.635 421.164 459.635 421.676C459.651 422.172 459.691 422.66 459.755 423.14H457.907C457.859 422.772 457.827 422.428 457.811 422.108C457.795 421.772 457.787 421.396 457.787 420.98C457.451 421.652 456.907 422.22 456.155 422.684C455.403 423.148 454.491 423.38 453.419 423.38ZM453.875 421.46C454.547 421.46 455.155 421.34 455.699 421.1C456.259 420.86 456.699 420.508 457.019 420.044C457.355 419.58 457.523 419.012 457.523 418.34V417.476H453.755C452.971 417.476 452.355 417.636 451.907 417.956C451.459 418.26 451.235 418.748 451.235 419.42C451.235 420.012 451.443 420.5 451.859 420.884C452.291 421.268 452.963 421.46 453.875 421.46ZM463.365 423.14V410.42H465.333V412.82C465.621 412.116 466.125 411.5 466.845 410.972C467.581 410.444 468.525 410.18 469.677 410.18C471.277 410.18 472.461 410.612 473.229 411.476C474.013 412.324 474.405 413.572 474.405 415.22V423.14H472.293V415.7C472.293 414.516 472.045 413.62 471.549 413.012C471.053 412.404 470.221 412.1 469.053 412.1C468.221 412.1 467.541 412.276 467.013 412.628C466.485 412.98 466.093 413.428 465.837 413.972C465.597 414.516 465.477 415.092 465.477 415.7V423.14H463.365ZM482.577 423.26C481.681 423.26 480.945 423.124 480.369 422.852C479.809 422.58 479.393 422.172 479.121 421.628C478.865 421.068 478.737 420.372 478.737 419.54V412.292H476.817V410.42H478.737V407.54H480.849V410.42H484.257V412.292H480.849V419.3C480.849 420.02 481.001 420.54 481.305 420.86C481.609 421.18 482.193 421.34 483.057 421.34C483.537 421.34 484.017 421.316 484.497 421.268V423.14C484.193 423.172 483.889 423.196 483.585 423.212C483.281 423.244 482.945 423.26 482.577 423.26ZM493.746 417.38V416.9C493.746 415.332 493.962 413.908 494.394 412.628C494.842 411.348 495.338 410.236 495.882 409.292C496.202 408.748 496.538 408.236 496.89 407.756C497.242 407.26 497.618 406.788 498.018 406.34H500.466C500.034 406.788 499.626 407.26 499.242 407.756C498.858 408.236 498.506 408.748 498.186 409.292C497.61 410.22 497.082 411.332 496.602 412.628C496.138 413.908 495.906 415.332 495.906 416.9V417.38C495.906 418.948 496.138 420.38 496.602 421.676C497.082 422.972 497.61 424.084 498.186 425.012C498.506 425.556 498.858 426.076 499.242 426.572C499.626 427.068 500.034 427.524 500.466 427.94H497.922C497.522 427.524 497.146 427.068 496.794 426.572C496.458 426.076 496.138 425.556 495.834 425.012C495.306 424.084 494.826 422.972 494.394 421.676C493.962 420.38 493.746 418.948 493.746 417.38ZM507.543 423.38C506.455 423.38 505.471 423.148 504.591 422.684C503.727 422.204 503.039 421.484 502.527 420.524C502.031 419.564 501.783 418.356 501.783 416.9V416.42C501.783 415.044 502.055 413.892 502.599 412.964C503.143 412.036 503.855 411.34 504.735 410.876C505.615 410.412 506.551 410.18 507.543 410.18C508.551 410.18 509.415 410.364 510.135 410.732C510.871 411.084 511.463 411.572 511.911 412.196C512.359 412.804 512.663 413.492 512.823 414.26H510.663C510.407 413.652 510.047 413.14 509.583 412.724C509.135 412.308 508.455 412.1 507.543 412.1C506.919 412.1 506.335 412.252 505.791 412.556C505.247 412.844 504.799 413.308 504.447 413.948C504.111 414.572 503.943 415.396 503.943 416.42V416.9C503.943 417.988 504.111 418.868 504.447 419.54C504.799 420.212 505.247 420.7 505.791 421.004C506.335 421.308 506.919 421.46 507.543 421.46C508.327 421.46 508.983 421.268 509.511 420.884C510.055 420.5 510.439 419.972 510.663 419.3H512.823C512.631 420.132 512.287 420.86 511.791 421.484C511.295 422.092 510.687 422.564 509.967 422.9C509.247 423.22 508.439 423.38 507.543 423.38ZM519.325 423.38C518.397 423.38 517.605 423.212 516.949 422.876C516.309 422.524 515.821 422.052 515.485 421.46C515.149 420.852 514.981 420.172 514.981 419.42C514.981 418.156 515.349 417.244 516.085 416.684C516.837 416.124 517.909 415.844 519.301 415.844H523.429V414.98C523.429 413.892 523.181 413.14 522.685 412.724C522.205 412.308 521.477 412.1 520.501 412.1C519.589 412.1 518.925 412.276 518.509 412.628C518.093 412.964 517.861 413.348 517.813 413.78H515.701C515.749 413.092 515.981 412.484 516.397 411.956C516.813 411.412 517.381 410.98 518.101 410.66C518.821 410.34 519.661 410.18 520.621 410.18C521.629 410.18 522.501 410.34 523.237 410.66C523.973 410.964 524.541 411.452 524.941 412.124C525.341 412.78 525.541 413.652 525.541 414.74V419.9C525.541 420.572 525.541 421.164 525.541 421.676C525.557 422.172 525.597 422.66 525.661 423.14H523.813C523.765 422.772 523.733 422.428 523.717 422.108C523.701 421.772 523.693 421.396 523.693 420.98C523.357 421.652 522.813 422.22 522.061 422.684C521.309 423.148 520.397 423.38 519.325 423.38ZM519.781 421.46C520.453 421.46 521.061 421.34 521.605 421.1C522.165 420.86 522.605 420.508 522.925 420.044C523.261 419.58 523.429 419.012 523.429 418.34V417.476H519.661C518.877 417.476 518.261 417.636 517.813 417.956C517.365 418.26 517.141 418.748 517.141 419.42C517.141 420.012 517.349 420.5 517.765 420.884C518.197 421.268 518.869 421.46 519.781 421.46ZM533.112 423.26C532.232 423.26 531.512 423.124 530.952 422.852C530.408 422.564 530.008 422.124 529.752 421.532C529.512 420.924 529.392 420.14 529.392 419.18V406.34H531.504V419.18C531.504 420.012 531.64 420.58 531.912 420.884C532.184 421.188 532.664 421.34 533.352 421.34C533.528 421.34 533.68 421.34 533.808 421.34C533.936 421.324 534.064 421.308 534.192 421.292V423.164C534.112 423.18 534 423.196 533.856 423.212C533.728 423.228 533.592 423.236 533.448 423.236C533.32 423.252 533.208 423.26 533.112 423.26ZM540.799 423.26C539.919 423.26 539.199 423.124 538.639 422.852C538.095 422.564 537.695 422.124 537.439 421.532C537.199 420.924 537.079 420.14 537.079 419.18V406.34H539.191V419.18C539.191 420.012 539.327 420.58 539.599 420.884C539.871 421.188 540.351 421.34 541.039 421.34C541.215 421.34 541.367 421.34 541.495 421.34C541.623 421.324 541.751 421.308 541.879 421.292V423.164C541.799 423.18 541.687 423.196 541.543 423.212C541.415 423.228 541.279 423.236 541.135 423.236C541.007 423.252 540.895 423.26 540.799 423.26ZM550.887 423.14V410.42H552.999V423.14H550.887ZM551.943 408.74C551.527 408.74 551.183 408.604 550.911 408.332C550.639 408.06 550.503 407.716 550.503 407.3C550.503 406.884 550.639 406.54 550.911 406.268C551.183 405.996 551.527 405.86 551.943 405.86C552.359 405.86 552.703 405.996 552.975 406.268C553.247 406.54 553.383 406.884 553.383 407.3C553.383 407.716 553.247 408.06 552.975 408.332C552.703 408.604 552.359 408.74 551.943 408.74ZM561.748 423.26C560.852 423.26 560.116 423.124 559.54 422.852C558.98 422.58 558.564 422.172 558.292 421.628C558.036 421.068 557.908 420.372 557.908 419.54V412.292H555.988V410.42H557.908V407.54H560.02V410.42H563.428V412.292H560.02V419.3C560.02 420.02 560.172 420.54 560.476 420.86C560.78 421.18 561.364 421.34 562.228 421.34C562.708 421.34 563.188 421.316 563.668 421.268V423.14C563.364 423.172 563.06 423.196 562.756 423.212C562.452 423.244 562.116 423.26 561.748 423.26ZM572.678 423.14V410.42H574.646V412.82C574.934 412.116 575.438 411.5 576.158 410.972C576.894 410.444 577.838 410.18 578.99 410.18C580.59 410.18 581.774 410.612 582.542 411.476C583.326 412.324 583.718 413.572 583.718 415.22V423.14H581.606V415.7C581.606 414.516 581.358 413.62 580.862 413.012C580.366 412.404 579.534 412.1 578.366 412.1C577.534 412.1 576.854 412.276 576.326 412.628C575.798 412.98 575.406 413.428 575.15 413.972C574.91 414.516 574.79 415.092 574.79 415.7V423.14H572.678ZM592.483 416.9V417.38C592.483 418.948 592.259 420.372 591.811 421.652C591.379 422.932 590.891 424.044 590.347 424.988C590.043 425.532 589.707 426.044 589.339 426.524C588.987 427.02 588.611 427.492 588.211 427.94H585.763C586.195 427.492 586.603 427.02 586.987 426.524C587.371 426.044 587.723 425.532 588.043 424.988C588.619 424.06 589.139 422.948 589.603 421.652C590.083 420.356 590.323 418.932 590.323 417.38V416.9C590.323 415.332 590.083 413.9 589.603 412.604C589.139 411.308 588.619 410.196 588.043 409.268C587.723 408.708 587.371 408.188 586.987 407.708C586.603 407.212 586.195 406.756 585.763 406.34H588.307C588.707 406.756 589.075 407.212 589.411 407.708C589.763 408.188 590.091 408.708 590.395 409.268C590.923 410.196 591.403 411.308 591.835 412.604C592.267 413.9 592.483 415.332 592.483 416.9Z" fill="#0C0824"/>
<path d="M311.617 158.555C311.617 157.72 311.3 157.303 310.665 157.303C309.863 157.303 309.028 157.787 308.159 158.756C307.291 159.725 306.572 161.211 306.004 163.216C305.971 163.249 305.938 163.299 305.904 163.366C305.871 163.433 305.854 163.483 305.854 163.516C305.854 163.55 305.821 163.583 305.754 163.617C305.687 163.65 305.637 163.667 305.604 163.667C305.57 163.667 305.503 163.667 305.403 163.667C305.303 163.667 305.169 163.667 305.002 163.667H304.301C304.1 163.466 304 163.316 304 163.216C304 162.982 304.134 162.498 304.401 161.763C304.668 161.028 305.069 160.159 305.604 159.157C306.138 158.155 306.873 157.303 307.808 156.601C308.744 155.9 309.796 155.532 310.965 155.499C312.369 155.499 313.454 155.9 314.223 156.701C314.991 157.503 315.392 158.439 315.425 159.508C315.425 160.075 315.375 160.51 315.275 160.81C315.275 161.011 315.024 161.746 314.523 163.015C314.022 164.285 313.504 165.771 312.97 167.475C312.435 169.179 312.135 170.666 312.068 171.935C312.068 172.837 312.151 173.572 312.318 174.14C312.753 175.577 313.805 176.295 315.475 176.295C316.712 176.295 317.864 175.727 318.933 174.591C320.002 173.455 320.837 172.136 321.439 170.632C322.04 169.129 322.524 167.742 322.892 166.473C323.259 165.204 323.443 164.285 323.443 163.717C323.443 162.949 323.31 162.28 323.042 161.712C322.775 161.145 322.474 160.71 322.14 160.41C321.806 160.109 321.506 159.808 321.238 159.508C320.971 159.207 320.837 158.839 320.837 158.405C320.837 157.67 321.155 156.985 321.789 156.351C322.424 155.716 323.109 155.398 323.844 155.398C324.479 155.398 325.047 155.699 325.548 156.3C326.049 156.902 326.316 157.871 326.35 159.207C326.35 160.109 326.149 161.495 325.748 163.366C325.347 165.237 324.729 167.325 323.894 169.63C323.059 171.935 321.873 173.923 320.336 175.593C318.8 177.264 317.029 178.116 315.024 178.149C312.886 178.149 311.183 177.598 309.913 176.495C308.677 175.426 308.059 173.839 308.059 171.735C308.059 170.699 308.193 169.63 308.46 168.528C308.727 167.425 309.412 165.471 310.514 162.665C311.249 160.526 311.617 159.157 311.617 158.555Z" fill="#0C0824"/>
<path d="M343.979 160.209C343.979 159.775 344.213 159.441 344.68 159.207H376.601C377.102 159.474 377.353 159.808 377.353 160.209C377.353 160.577 377.119 160.894 376.651 161.161L360.716 161.211H344.781C344.246 161.044 343.979 160.71 343.979 160.209ZM343.979 169.931C343.979 169.43 344.246 169.095 344.781 168.928H376.651C377.119 169.262 377.353 169.597 377.353 169.931C377.353 170.365 377.102 170.699 376.601 170.933H344.68C344.213 170.699 343.979 170.365 343.979 169.931Z" fill="#0C0824"/>
<path d="M410.065 111.15V21.0001H427.454V25.2094H414.275V111.15H410.065Z" fill="#0C0824"/>
<path d="M410.065 309.14V218.99H414.275V304.93H427.454V309.14H410.065Z" fill="#0C0824"/>
<g clip-path="url(#clip0_91_47)">
<path d="M410.065 253.466V76.6877H414.275V253.466H410.065Z" fill="#0C0824"/>
</g>
<path d="M437.947 39.5415C437.947 38.7063 437.63 38.2887 436.995 38.2887C436.193 38.2887 435.358 38.7731 434.49 39.742C433.621 40.7108 432.903 42.1974 432.335 44.2019C432.301 44.2353 432.268 44.2854 432.235 44.3522C432.201 44.419 432.184 44.4691 432.184 44.5025C432.184 44.5359 432.151 44.5693 432.084 44.6028C432.017 44.6362 431.967 44.6529 431.934 44.6529C431.9 44.6529 431.834 44.6529 431.733 44.6529C431.633 44.6529 431.5 44.6529 431.333 44.6529H430.631C430.431 44.4524 430.33 44.3021 430.33 44.2019C430.33 43.968 430.464 43.4836 430.731 42.7486C430.998 42.0137 431.399 41.1451 431.934 40.1429C432.468 39.1406 433.203 38.2887 434.139 37.5872C435.074 36.8856 436.127 36.5181 437.296 36.4847C438.699 36.4847 439.785 36.8856 440.553 37.6874C441.321 38.4892 441.722 39.4246 441.756 40.4936C441.756 41.0616 441.706 41.4959 441.605 41.7965C441.605 41.997 441.355 42.7319 440.854 44.0014C440.353 45.2709 439.835 46.7575 439.3 48.4613C438.766 50.1651 438.465 51.6517 438.398 52.9212C438.398 53.8232 438.482 54.5582 438.649 55.1261C439.083 56.5626 440.135 57.2809 441.806 57.2809C443.042 57.2809 444.194 56.713 445.263 55.5771C446.333 54.4413 447.168 53.1217 447.769 51.6183C448.37 50.115 448.855 48.7286 449.222 47.4591C449.59 46.1896 449.773 45.2709 449.773 44.703C449.773 43.9346 449.64 43.2665 449.373 42.6985C449.105 42.1306 448.805 41.6963 448.471 41.3956C448.137 41.095 447.836 40.7943 447.569 40.4936C447.301 40.193 447.168 39.8255 447.168 39.3912C447.168 38.6562 447.485 37.9714 448.12 37.3366C448.755 36.7019 449.439 36.3845 450.174 36.3845C450.809 36.3845 451.377 36.6852 451.878 37.2865C452.379 37.8879 452.647 38.8567 452.68 40.193C452.68 41.095 452.479 42.4814 452.079 44.3522C451.678 46.223 451.06 48.311 450.224 50.6161C449.389 52.9212 448.203 54.909 446.667 56.5793C445.13 58.2497 443.359 59.1016 441.355 59.135C439.217 59.135 437.513 58.5838 436.243 57.4813C435.007 56.4123 434.389 54.8254 434.389 52.7208C434.389 51.6851 434.523 50.6161 434.79 49.5137C435.057 48.4112 435.742 46.4569 436.845 43.6506C437.58 41.5126 437.947 40.1429 437.947 39.5415Z" fill="#0C0824"/>
<path d="M461.128 45.6226L460.668 45.7997C460.337 45.9178 459.865 46.0359 459.25 46.154C458.636 46.2721 457.951 46.3548 457.196 46.402H456.522V44.7723H457.196C458.306 44.7251 459.333 44.5479 460.278 44.2409C461.223 43.9338 461.884 43.6504 462.262 43.3906C462.64 43.1308 462.97 42.871 463.254 42.6112C463.301 42.5403 463.443 42.5049 463.679 42.5049C463.892 42.5049 464.092 42.5757 464.281 42.7174V53.3106L464.317 63.9392C464.482 64.1045 464.624 64.2108 464.742 64.2581C464.86 64.3053 465.143 64.3525 465.592 64.3998C466.041 64.447 466.773 64.4706 467.789 64.4706H468.71V66.1003H468.32C467.824 66.0295 465.946 65.9941 462.687 65.9941C459.475 65.9941 457.621 66.0295 457.125 66.1003H456.7V64.4706H457.621C458.14 64.4706 458.589 64.4706 458.967 64.4706C459.345 64.4706 459.64 64.4588 459.853 64.4352C460.065 64.4116 460.254 64.3761 460.42 64.3289C460.585 64.2817 460.679 64.2581 460.703 64.2581C460.727 64.2581 460.798 64.199 460.916 64.0809C461.034 63.9628 461.105 63.9156 461.128 63.9392V45.6226Z" fill="#0C0824"/>
<path d="M437.947 109.697C437.947 108.862 437.63 108.444 436.995 108.444C436.193 108.444 435.358 108.929 434.49 109.897C433.621 110.866 432.903 112.353 432.335 114.357C432.301 114.391 432.268 114.441 432.235 114.508C432.201 114.575 432.184 114.625 432.184 114.658C432.184 114.691 432.151 114.725 432.084 114.758C432.017 114.792 431.967 114.808 431.934 114.808C431.9 114.808 431.834 114.808 431.733 114.808C431.633 114.808 431.5 114.808 431.333 114.808H430.631C430.431 114.608 430.33 114.458 430.33 114.357C430.33 114.124 430.464 113.639 430.731 112.904C430.998 112.169 431.399 111.301 431.934 110.298C432.468 109.296 433.203 108.444 434.139 107.743C435.074 107.041 436.127 106.674 437.296 106.64C438.699 106.64 439.785 107.041 440.553 107.843C441.321 108.645 441.722 109.58 441.756 110.649C441.756 111.217 441.706 111.651 441.605 111.952C441.605 112.152 441.355 112.887 440.854 114.157C440.353 115.426 439.835 116.913 439.3 118.617C438.766 120.321 438.465 121.807 438.398 123.077C438.398 123.979 438.482 124.714 438.649 125.282C439.083 126.718 440.135 127.436 441.806 127.436C443.042 127.436 444.194 126.868 445.263 125.733C446.333 124.597 447.168 123.277 447.769 121.774C448.37 120.271 448.855 118.884 449.222 117.615C449.59 116.345 449.773 115.426 449.773 114.858C449.773 114.09 449.64 113.422 449.373 112.854C449.105 112.286 448.805 111.852 448.471 111.551C448.137 111.25 447.836 110.95 447.569 110.649C447.301 110.348 447.168 109.981 447.168 109.547C447.168 108.812 447.485 108.127 448.12 107.492C448.755 106.857 449.439 106.54 450.174 106.54C450.809 106.54 451.377 106.841 451.878 107.442C452.379 108.043 452.647 109.012 452.68 110.348C452.68 111.25 452.479 112.637 452.079 114.508C451.678 116.379 451.06 118.467 450.224 120.772C449.389 123.077 448.203 125.064 446.667 126.735C445.13 128.405 443.359 129.257 441.355 129.291C439.217 129.291 437.513 128.739 436.243 127.637C435.007 126.568 434.389 124.981 434.389 122.876C434.389 121.841 434.523 120.772 434.79 119.669C435.057 118.567 435.742 116.612 436.845 113.806C437.58 111.668 437.947 110.298 437.947 109.697Z" fill="#0C0824"/>
<path d="M457.444 121.057C456.806 121.057 456.298 120.844 455.92 120.419C455.542 119.994 455.353 119.474 455.353 118.86C455.353 117.183 455.979 115.731 457.231 114.503C458.483 113.274 460.042 112.66 461.908 112.66C464.057 112.66 465.852 113.322 467.293 114.644C468.733 115.967 469.466 117.679 469.489 119.782C469.489 120.797 469.253 121.766 468.781 122.687C468.308 123.608 467.741 124.411 467.08 125.096C466.419 125.781 465.474 126.655 464.246 127.718C463.396 128.45 462.215 129.536 460.703 130.977L458.613 132.961L461.305 132.996C465.013 132.996 466.986 132.937 467.222 132.819C467.387 132.772 467.671 131.721 468.072 129.666V129.56H469.489V129.666C469.466 129.737 469.312 130.812 469.029 132.89C468.745 134.969 468.568 136.055 468.497 136.15V136.256H455.353V135.583V135.158C455.353 134.992 455.424 134.815 455.566 134.626C455.708 134.437 456.062 134.024 456.629 133.386C457.314 132.63 457.904 131.969 458.4 131.402C458.613 131.166 459.014 130.729 459.605 130.091C460.195 129.454 460.597 129.017 460.809 128.78C461.022 128.544 461.364 128.155 461.837 127.611C462.309 127.068 462.64 126.667 462.829 126.407C463.018 126.147 463.289 125.793 463.644 125.344C463.998 124.895 464.246 124.517 464.388 124.21C464.529 123.903 464.706 123.561 464.919 123.183C465.132 122.805 465.285 122.427 465.38 122.049C465.474 121.671 465.557 121.317 465.628 120.986C465.698 120.655 465.734 120.266 465.734 119.817C465.734 118.329 465.332 117.042 464.529 115.955C463.726 114.869 462.581 114.326 461.093 114.326C460.313 114.326 459.628 114.526 459.038 114.928C458.447 115.329 458.034 115.719 457.798 116.097C457.562 116.475 457.444 116.699 457.444 116.77C457.444 116.794 457.503 116.806 457.621 116.806C458.046 116.806 458.483 116.971 458.932 117.302C459.38 117.632 459.605 118.175 459.605 118.931C459.605 119.522 459.416 120.018 459.038 120.419C458.66 120.821 458.129 121.033 457.444 121.057Z" fill="#0C0824"/>
<path d="M448.48 224.953C448.48 224.151 448.764 223.449 449.332 222.848C449.9 222.247 450.619 221.946 451.487 221.946C452.289 221.946 452.99 222.213 453.592 222.748C454.193 223.282 454.511 224.001 454.544 224.903C454.544 225.738 454.26 226.456 453.692 227.057C453.124 227.659 452.406 227.959 451.537 227.959C450.669 227.959 449.95 227.676 449.382 227.108C448.815 226.54 448.514 225.821 448.48 224.953ZM448.48 204.407C448.48 203.605 448.764 202.904 449.332 202.303C449.9 201.701 450.619 201.401 451.487 201.401C452.289 201.401 452.99 201.668 453.592 202.202C454.193 202.737 454.511 203.455 454.544 204.357C454.544 205.192 454.26 205.911 453.692 206.512C453.124 207.113 452.406 207.414 451.537 207.414C450.669 207.414 449.95 207.13 449.382 206.562C448.815 205.994 448.514 205.276 448.48 204.407ZM448.48 184.363C448.48 183.561 448.764 182.859 449.332 182.258C449.9 181.657 450.619 181.356 451.487 181.356C452.289 181.356 452.99 181.623 453.592 182.158C454.193 182.692 454.511 183.411 454.544 184.313C454.544 185.148 454.26 185.866 453.692 186.467C453.124 187.069 452.406 187.369 451.537 187.369C450.669 187.369 449.95 187.085 449.382 186.517C448.815 185.95 448.514 185.231 448.48 184.363Z" fill="#0C0824"/>
<path d="M436.173 277.57C436.173 276.734 435.856 276.317 435.221 276.317C434.419 276.317 433.584 276.801 432.716 277.77C431.847 278.739 431.129 280.225 430.561 282.23C430.527 282.263 430.494 282.313 430.461 282.38C430.427 282.447 430.411 282.497 430.411 282.531C430.411 282.564 430.377 282.597 430.31 282.631C430.243 282.664 430.193 282.681 430.16 282.681C430.127 282.681 430.06 282.681 429.96 282.681C429.859 282.681 429.726 282.681 429.559 282.681H428.857C428.657 282.48 428.556 282.33 428.556 282.23C428.556 281.996 428.69 281.512 428.957 280.777C429.225 280.042 429.625 279.173 430.16 278.171C430.694 277.169 431.429 276.317 432.365 275.615C433.3 274.914 434.353 274.546 435.522 274.513C436.925 274.513 438.011 274.914 438.779 275.715C439.547 276.517 439.948 277.453 439.982 278.522C439.982 279.09 439.932 279.524 439.831 279.825C439.831 280.025 439.581 280.76 439.08 282.029C438.579 283.299 438.061 284.786 437.526 286.489C436.992 288.193 436.691 289.68 436.624 290.949C436.624 291.851 436.708 292.586 436.875 293.154C437.309 294.591 438.361 295.309 440.032 295.309C441.268 295.309 442.421 294.741 443.49 293.605C444.559 292.469 445.394 291.15 445.995 289.646C446.596 288.143 447.081 286.757 447.448 285.487C447.816 284.218 448 283.299 448 282.731C448 281.963 447.866 281.295 447.599 280.727C447.331 280.159 447.031 279.724 446.697 279.424C446.363 279.123 446.062 278.822 445.795 278.522C445.527 278.221 445.394 277.854 445.394 277.419C445.394 276.684 445.711 275.999 446.346 275.365C446.981 274.73 447.665 274.413 448.4 274.413C449.035 274.413 449.603 274.713 450.104 275.315C450.605 275.916 450.873 276.885 450.906 278.221C450.906 279.123 450.706 280.509 450.305 282.38C449.904 284.251 449.286 286.339 448.451 288.644C447.615 290.949 446.429 292.937 444.893 294.607C443.356 296.278 441.585 297.13 439.581 297.163C437.443 297.163 435.739 296.612 434.47 295.509C433.233 294.44 432.615 292.854 432.615 290.749C432.615 289.713 432.749 288.644 433.016 287.542C433.284 286.439 433.968 284.485 435.071 281.679C435.806 279.541 436.173 278.171 436.173 277.57Z" fill="#0C0824"/>
<path d="M452.552 293.961C452.576 293.819 452.611 293.63 452.658 293.394C452.706 293.158 452.847 292.709 453.083 292.047C453.32 291.386 453.556 290.831 453.792 290.382C454.028 289.934 454.418 289.497 454.961 289.071C455.504 288.646 456.048 288.446 456.591 288.469C457.441 288.469 458.15 288.682 458.717 289.107C459.283 289.532 459.638 289.934 459.779 290.311C459.921 290.689 459.992 290.937 459.992 291.055C459.992 291.103 460.004 291.126 460.027 291.126L460.417 290.737C461.858 289.225 463.499 288.469 465.342 288.469C466.617 288.469 467.645 288.788 468.424 289.426C469.203 290.063 469.605 290.996 469.629 292.225C469.652 293.453 469.203 295.307 468.282 297.787C467.361 300.267 466.912 301.767 466.936 302.286C466.936 302.9 467.137 303.207 467.538 303.207C467.68 303.207 467.786 303.196 467.857 303.172C468.542 303.054 469.156 302.605 469.699 301.826C470.243 301.046 470.656 300.102 470.939 298.991C470.987 298.802 471.223 298.708 471.648 298.708C472.12 298.708 472.357 298.802 472.357 298.991C472.357 299.015 472.309 299.192 472.215 299.523C472.026 300.208 471.766 300.881 471.435 301.542C471.105 302.204 470.562 302.865 469.806 303.526C469.05 304.188 468.235 304.507 467.361 304.483C466.251 304.483 465.448 304.164 464.952 303.526C464.456 302.889 464.208 302.227 464.208 301.542C464.208 301.094 464.633 299.676 465.483 297.291C466.334 294.905 466.771 293.11 466.794 291.906C466.794 290.512 466.275 289.815 465.235 289.815H465.058C463.027 289.815 461.315 291.008 459.921 293.394L459.673 293.819L458.504 298.566C457.725 301.66 457.276 303.326 457.158 303.562C456.851 304.199 456.343 304.518 455.634 304.518C455.327 304.518 455.079 304.447 454.89 304.306C454.701 304.164 454.571 304.022 454.501 303.881C454.43 303.739 454.406 303.621 454.43 303.526C454.43 303.219 454.878 301.294 455.776 297.751C456.674 294.209 457.146 292.284 457.193 291.977C457.217 291.858 457.229 291.587 457.229 291.162C457.229 290.241 456.945 289.78 456.378 289.78C455.481 289.78 454.737 290.961 454.146 293.323C454.005 293.795 453.934 294.043 453.934 294.067C453.886 294.209 453.662 294.279 453.261 294.279H452.765C452.623 294.138 452.552 294.031 452.552 293.961Z" fill="#0C0824"/>
<path d="M475.576 25.2094V21.0001H492.964V111.15H488.755V25.2094H475.576Z" fill="#0C0824"/>
<path d="M488.755 304.93V218.99H492.964V309.14H475.576V304.93H488.755Z" fill="#0C0824"/>
<g clip-path="url(#clip1_91_47)">
<path d="M488.755 253.466V76.6875H492.964V253.466H488.755Z" fill="#0C0824"/>
</g>
<defs>
<clipPath id="clip0_91_47">
<rect width="33.4242" height="117.862" fill="white" transform="matrix(1 0 0 -1 394.08 224.001)"/>
</clipPath>
<clipPath id="clip1_91_47">
<rect width="33.4242" height="117.862" fill="white" transform="matrix(1 0 0 -1 475.576 224)"/>
</clipPath>
</defs>
</svg>
