<svg width="1288" height="745" viewBox="0 0 1288 745" fill="none" xmlns="http://www.w3.org/2000/svg">
<path d="M56.2949 392.125C55.3616 392.125 54.5949 391.983 53.9949 391.7C53.4116 391.417 52.9783 390.992 52.6949 390.425C52.4283 389.842 52.2949 389.117 52.2949 388.25V380.7H50.2949V378.75H52.2949V375.75H54.4949V378.75H58.0449V380.7H54.4949V388C54.4949 388.75 54.6533 389.292 54.9699 389.625C55.2866 389.958 55.8949 390.125 56.7949 390.125C57.2949 390.125 57.7949 390.1 58.2949 390.05V392C57.9783 392.033 57.6616 392.058 57.3449 392.075C57.0283 392.108 56.6783 392.125 56.2949 392.125ZM61.4297 392V374.5H63.6297V381.125C63.863 380.658 64.1797 380.225 64.5797 379.825C64.9797 379.425 65.463 379.108 66.0297 378.875C66.613 378.625 67.2714 378.5 68.0047 378.5C69.6714 378.5 70.9047 378.95 71.7047 379.85C72.5214 380.733 72.9297 382.033 72.9297 383.75V392H70.7297V384.25C70.7297 383.017 70.4714 382.083 69.9547 381.45C69.438 380.817 68.5714 380.5 67.3547 380.5C66.488 380.5 65.7797 380.683 65.2297 381.05C64.6797 381.417 64.2714 381.883 64.0047 382.45C63.7547 383.017 63.6297 383.617 63.6297 384.25V392H61.4297ZM82.3105 392.25C81.1939 392.25 80.1439 392.008 79.1605 391.525C78.1939 391.042 77.4105 390.3 76.8105 389.3C76.2272 388.3 75.9355 387.033 75.9355 385.5V385C75.9355 383.533 76.2189 382.325 76.7855 381.375C77.3522 380.408 78.1022 379.692 79.0355 379.225C79.9689 378.742 80.9772 378.5 82.0605 378.5C84.0105 378.5 85.5189 379.033 86.5855 380.1C87.6522 381.167 88.1855 382.675 88.1855 384.625V386.025H78.1355C78.1355 387.058 78.3439 387.883 78.7605 388.5C79.1939 389.117 79.7272 389.567 80.3605 389.85C81.0105 390.117 81.6605 390.25 82.3105 390.25C83.3105 390.25 84.0772 390.083 84.6105 389.75C85.1605 389.417 85.5522 388.958 85.7855 388.375H87.9355C87.6689 389.642 87.0105 390.608 85.9605 391.275C84.9272 391.925 83.7105 392.25 82.3105 392.25ZM82.1855 380.5C81.5022 380.5 80.8522 380.633 80.2355 380.9C79.6189 381.15 79.1105 381.55 78.7105 382.1C78.3272 382.65 78.1355 383.358 78.1355 384.225H86.1105C86.0939 383.308 85.9022 382.583 85.5355 382.05C85.1855 381.5 84.7189 381.108 84.1355 380.875C83.5522 380.625 82.9022 380.5 82.1855 380.5ZM97.5625 392V378.75H99.6125V381.25C99.8958 380.433 100.379 379.775 101.063 379.275C101.763 378.758 102.554 378.5 103.438 378.5C104.588 378.5 105.471 378.75 106.088 379.25C106.704 379.733 107.129 380.358 107.363 381.125C107.796 380.308 108.346 379.667 109.013 379.2C109.696 378.733 110.513 378.5 111.463 378.5C112.829 378.5 113.896 378.917 114.663 379.75C115.429 380.567 115.813 381.858 115.813 383.625V392H113.613V384.125C113.613 382.808 113.379 381.875 112.913 381.325C112.463 380.775 111.771 380.5 110.838 380.5C110.304 380.5 109.804 380.65 109.337 380.95C108.871 381.233 108.496 381.65 108.213 382.2C107.929 382.733 107.788 383.375 107.788 384.125V392H105.588V384.125C105.588 382.808 105.354 381.875 104.888 381.325C104.421 380.775 103.729 380.5 102.813 380.5C102.279 380.5 101.779 380.65 101.313 380.95C100.846 381.233 100.471 381.65 100.188 382.2C99.9042 382.733 99.7625 383.375 99.7625 384.125V392H97.5625ZM123.457 392.25C122.49 392.25 121.665 392.075 120.982 391.725C120.315 391.358 119.807 390.867 119.457 390.25C119.107 389.617 118.932 388.908 118.932 388.125C118.932 386.808 119.315 385.858 120.082 385.275C120.865 384.692 121.982 384.4 123.432 384.4H127.732V383.5C127.732 382.367 127.473 381.583 126.957 381.15C126.457 380.717 125.698 380.5 124.682 380.5C123.732 380.5 123.04 380.683 122.607 381.05C122.173 381.4 121.932 381.8 121.882 382.25H119.682C119.732 381.533 119.973 380.9 120.407 380.35C120.84 379.783 121.432 379.333 122.182 379C122.932 378.667 123.807 378.5 124.807 378.5C125.857 378.5 126.765 378.667 127.532 379C128.298 379.317 128.89 379.825 129.307 380.525C129.723 381.208 129.932 382.117 129.932 383.25V388.625C129.932 389.325 129.932 389.942 129.932 390.475C129.948 390.992 129.99 391.5 130.057 392H128.132C128.082 391.617 128.048 391.258 128.032 390.925C128.015 390.575 128.007 390.183 128.007 389.75C127.657 390.45 127.09 391.042 126.307 391.525C125.523 392.008 124.573 392.25 123.457 392.25ZM123.932 390.25C124.632 390.25 125.265 390.125 125.832 389.875C126.415 389.625 126.873 389.258 127.207 388.775C127.557 388.292 127.732 387.7 127.732 387V386.1H123.807C122.99 386.1 122.348 386.267 121.882 386.6C121.415 386.917 121.182 387.425 121.182 388.125C121.182 388.742 121.398 389.25 121.832 389.65C122.282 390.05 122.982 390.25 123.932 390.25ZM138.448 392.125C137.515 392.125 136.748 391.983 136.148 391.7C135.565 391.417 135.132 390.992 134.848 390.425C134.582 389.842 134.448 389.117 134.448 388.25V380.7H132.448V378.75H134.448V375.75H136.648V378.75H140.198V380.7H136.648V388C136.648 388.75 136.807 389.292 137.123 389.625C137.44 389.958 138.048 390.125 138.948 390.125C139.448 390.125 139.948 390.1 140.448 390.05V392C140.132 392.033 139.815 392.058 139.498 392.075C139.182 392.108 138.832 392.125 138.448 392.125ZM143.583 392V378.75H145.633V381.25C145.833 380.717 146.108 380.25 146.458 379.85C146.808 379.433 147.233 379.108 147.733 378.875C148.25 378.625 148.825 378.5 149.458 378.5C149.791 378.5 150.058 378.517 150.258 378.55C150.475 378.583 150.666 378.625 150.833 378.675V380.725C150.616 380.642 150.4 380.583 150.183 380.55C149.983 380.517 149.7 380.5 149.333 380.5C148.666 380.5 148.066 380.658 147.533 380.975C147 381.292 146.575 381.733 146.258 382.3C145.941 382.85 145.783 383.5 145.783 384.25V392H143.583ZM153.574 392V378.75H155.774V392H153.574ZM154.674 377C154.241 377 153.883 376.858 153.599 376.575C153.316 376.292 153.174 375.933 153.174 375.5C153.174 375.067 153.316 374.708 153.599 374.425C153.883 374.142 154.241 374 154.674 374C155.108 374 155.466 374.142 155.749 374.425C156.033 374.708 156.174 375.067 156.174 375.5C156.174 375.933 156.033 376.292 155.749 376.575C155.466 376.858 155.108 377 154.674 377ZM158.639 392L163.614 385.275L158.889 378.75H161.439L164.939 383.575L168.439 378.75H170.889L166.164 385.15L171.139 392H168.539L164.839 386.825L161.139 392H158.639ZM180.259 386V385.5C180.259 383.867 180.484 382.383 180.934 381.05C181.4 379.717 181.917 378.558 182.484 377.575C182.817 377.008 183.167 376.475 183.534 375.975C183.9 375.458 184.292 374.967 184.709 374.5H187.259C186.809 374.967 186.384 375.458 185.984 375.975C185.584 376.475 185.217 377.008 184.884 377.575C184.284 378.542 183.734 379.7 183.234 381.05C182.75 382.383 182.509 383.867 182.509 385.5V386C182.509 387.633 182.75 389.125 183.234 390.475C183.734 391.825 184.284 392.983 184.884 393.95C185.217 394.517 185.584 395.058 185.984 395.575C186.384 396.092 186.809 396.567 187.259 397H184.609C184.192 396.567 183.8 396.092 183.434 395.575C183.084 395.058 182.75 394.517 182.434 393.95C181.884 392.983 181.384 391.825 180.934 390.475C180.484 389.125 180.259 387.633 180.259 386ZM194.631 392.25C193.498 392.25 192.473 392.008 191.556 391.525C190.656 391.025 189.939 390.275 189.406 389.275C188.889 388.275 188.631 387.017 188.631 385.5V385C188.631 383.567 188.914 382.367 189.481 381.4C190.048 380.433 190.789 379.708 191.706 379.225C192.623 378.742 193.598 378.5 194.631 378.5C195.681 378.5 196.581 378.692 197.331 379.075C198.098 379.442 198.714 379.95 199.181 380.6C199.648 381.233 199.964 381.95 200.131 382.75H197.881C197.614 382.117 197.239 381.583 196.756 381.15C196.289 380.717 195.581 380.5 194.631 380.5C193.981 380.5 193.373 380.658 192.806 380.975C192.239 381.275 191.773 381.758 191.406 382.425C191.056 383.075 190.881 383.933 190.881 385V385.5C190.881 386.633 191.056 387.55 191.406 388.25C191.773 388.95 192.239 389.458 192.806 389.775C193.373 390.092 193.981 390.25 194.631 390.25C195.448 390.25 196.131 390.05 196.681 389.65C197.248 389.25 197.648 388.7 197.881 388H200.131C199.931 388.867 199.573 389.625 199.056 390.275C198.539 390.908 197.906 391.4 197.156 391.75C196.406 392.083 195.564 392.25 194.631 392.25ZM206.904 392.25C205.937 392.25 205.112 392.075 204.429 391.725C203.762 391.358 203.254 390.867 202.904 390.25C202.554 389.617 202.379 388.908 202.379 388.125C202.379 386.808 202.762 385.858 203.529 385.275C204.312 384.692 205.429 384.4 206.879 384.4H211.179V383.5C211.179 382.367 210.921 381.583 210.404 381.15C209.904 380.717 209.146 380.5 208.129 380.5C207.179 380.5 206.487 380.683 206.054 381.05C205.621 381.4 205.379 381.8 205.329 382.25H203.129C203.179 381.533 203.421 380.9 203.854 380.35C204.287 379.783 204.879 379.333 205.629 379C206.379 378.667 207.254 378.5 208.254 378.5C209.304 378.5 210.212 378.667 210.979 379C211.746 379.317 212.337 379.825 212.754 380.525C213.171 381.208 213.379 382.117 213.379 383.25V388.625C213.379 389.325 213.379 389.942 213.379 390.475C213.396 390.992 213.437 391.5 213.504 392H211.579C211.529 391.617 211.496 391.258 211.479 390.925C211.462 390.575 211.454 390.183 211.454 389.75C211.104 390.45 210.537 391.042 209.754 391.525C208.971 392.008 208.021 392.25 206.904 392.25ZM207.379 390.25C208.079 390.25 208.712 390.125 209.279 389.875C209.862 389.625 210.321 389.258 210.654 388.775C211.004 388.292 211.179 387.7 211.179 387V386.1H207.254C206.437 386.1 205.796 386.267 205.329 386.6C204.862 386.917 204.629 387.425 204.629 388.125C204.629 388.742 204.846 389.25 205.279 389.65C205.729 390.05 206.429 390.25 207.379 390.25ZM221.265 392.125C220.348 392.125 219.598 391.983 219.015 391.7C218.448 391.4 218.031 390.942 217.765 390.325C217.515 389.692 217.39 388.875 217.39 387.875V374.5H219.59V387.875C219.59 388.742 219.731 389.333 220.015 389.65C220.298 389.967 220.798 390.125 221.515 390.125C221.698 390.125 221.856 390.125 221.99 390.125C222.123 390.108 222.256 390.092 222.39 390.075V392.025C222.306 392.042 222.19 392.058 222.04 392.075C221.906 392.092 221.765 392.1 221.615 392.1C221.481 392.117 221.365 392.125 221.265 392.125ZM230.153 392.25C229.02 392.25 227.995 392.008 227.078 391.525C226.178 391.025 225.462 390.275 224.928 389.275C224.412 388.275 224.153 387.017 224.153 385.5V385C224.153 383.567 224.437 382.367 225.003 381.4C225.57 380.433 226.312 379.708 227.228 379.225C228.145 378.742 229.12 378.5 230.153 378.5C231.203 378.5 232.103 378.692 232.853 379.075C233.62 379.442 234.237 379.95 234.703 380.6C235.17 381.233 235.487 381.95 235.653 382.75H233.403C233.137 382.117 232.762 381.583 232.278 381.15C231.812 380.717 231.103 380.5 230.153 380.5C229.503 380.5 228.895 380.658 228.328 380.975C227.762 381.275 227.295 381.758 226.928 382.425C226.578 383.075 226.403 383.933 226.403 385V385.5C226.403 386.633 226.578 387.55 226.928 388.25C227.295 388.95 227.762 389.458 228.328 389.775C228.895 390.092 229.503 390.25 230.153 390.25C230.97 390.25 231.653 390.05 232.203 389.65C232.77 389.25 233.17 388.7 233.403 388H235.653C235.453 388.867 235.095 389.625 234.578 390.275C234.062 390.908 233.428 391.4 232.678 391.75C231.928 392.083 231.087 392.25 230.153 392.25ZM243.326 392.25C241.726 392.25 240.526 391.792 239.726 390.875C238.926 389.958 238.526 388.542 238.526 386.625V378.75H240.726V386.5C240.726 387.733 240.976 388.667 241.476 389.3C241.993 389.933 242.826 390.25 243.976 390.25C244.81 390.25 245.493 390.067 246.026 389.7C246.56 389.333 246.951 388.867 247.201 388.3C247.451 387.717 247.576 387.117 247.576 386.5V378.75H249.776V392H247.726V389.5C247.426 390.233 246.901 390.875 246.151 391.425C245.401 391.975 244.46 392.25 243.326 392.25ZM257.788 392.125C256.871 392.125 256.121 391.983 255.538 391.7C254.971 391.4 254.555 390.942 254.288 390.325C254.038 389.692 253.913 388.875 253.913 387.875V374.5H256.113V387.875C256.113 388.742 256.255 389.333 256.538 389.65C256.821 389.967 257.321 390.125 258.038 390.125C258.221 390.125 258.38 390.125 258.513 390.125C258.646 390.108 258.78 390.092 258.913 390.075V392.025C258.83 392.042 258.713 392.058 258.563 392.075C258.43 392.092 258.288 392.1 258.138 392.1C258.005 392.117 257.888 392.125 257.788 392.125ZM265.571 392.25C264.604 392.25 263.779 392.075 263.096 391.725C262.429 391.358 261.921 390.867 261.571 390.25C261.221 389.617 261.046 388.908 261.046 388.125C261.046 386.808 261.429 385.858 262.196 385.275C262.979 384.692 264.096 384.4 265.546 384.4H269.846V383.5C269.846 382.367 269.588 381.583 269.071 381.15C268.571 380.717 267.813 380.5 266.796 380.5C265.846 380.5 265.154 380.683 264.721 381.05C264.288 381.4 264.046 381.8 263.996 382.25H261.796C261.846 381.533 262.088 380.9 262.521 380.35C262.954 379.783 263.546 379.333 264.296 379C265.046 378.667 265.921 378.5 266.921 378.5C267.971 378.5 268.879 378.667 269.646 379C270.413 379.317 271.004 379.825 271.421 380.525C271.838 381.208 272.046 382.117 272.046 383.25V388.625C272.046 389.325 272.046 389.942 272.046 390.475C272.063 390.992 272.104 391.5 272.171 392H270.246C270.196 391.617 270.163 391.258 270.146 390.925C270.129 390.575 270.121 390.183 270.121 389.75C269.771 390.45 269.204 391.042 268.421 391.525C267.638 392.008 266.688 392.25 265.571 392.25ZM266.046 390.25C266.746 390.25 267.379 390.125 267.946 389.875C268.529 389.625 268.988 389.258 269.321 388.775C269.671 388.292 269.846 387.7 269.846 387V386.1H265.921C265.104 386.1 264.463 386.267 263.996 386.6C263.529 386.917 263.296 387.425 263.296 388.125C263.296 388.742 263.513 389.25 263.946 389.65C264.396 390.05 265.096 390.25 266.046 390.25ZM280.563 392.125C279.629 392.125 278.863 391.983 278.263 391.7C277.679 391.417 277.246 390.992 276.963 390.425C276.696 389.842 276.563 389.117 276.563 388.25V380.7H274.563V378.75H276.563V375.75H278.763V378.75H282.313V380.7H278.763V388C278.763 388.75 278.921 389.292 279.238 389.625C279.554 389.958 280.163 390.125 281.063 390.125C281.563 390.125 282.063 390.1 282.563 390.05V392C282.246 392.033 281.929 392.058 281.613 392.075C281.296 392.108 280.946 392.125 280.563 392.125ZM291.197 392.25C290.081 392.25 289.031 392.008 288.047 391.525C287.081 391.042 286.297 390.3 285.697 389.3C285.114 388.3 284.822 387.033 284.822 385.5V385C284.822 383.533 285.106 382.325 285.672 381.375C286.239 380.408 286.989 379.692 287.922 379.225C288.856 378.742 289.864 378.5 290.947 378.5C292.897 378.5 294.406 379.033 295.472 380.1C296.539 381.167 297.072 382.675 297.072 384.625V386.025H287.022C287.022 387.058 287.231 387.883 287.647 388.5C288.081 389.117 288.614 389.567 289.247 389.85C289.897 390.117 290.547 390.25 291.197 390.25C292.197 390.25 292.964 390.083 293.497 389.75C294.047 389.417 294.439 388.958 294.672 388.375H296.822C296.556 389.642 295.897 390.608 294.847 391.275C293.814 391.925 292.597 392.25 291.197 392.25ZM291.072 380.5C290.389 380.5 289.739 380.633 289.122 380.9C288.506 381.15 287.997 381.55 287.597 382.1C287.214 382.65 287.022 383.358 287.022 384.225H294.997C294.981 383.308 294.789 382.583 294.422 382.05C294.072 381.5 293.606 381.108 293.022 380.875C292.439 380.625 291.789 380.5 291.072 380.5ZM304.824 392.25C303.741 392.25 302.783 392 301.949 391.5C301.116 391 300.466 390.25 299.999 389.25C299.549 388.25 299.324 387 299.324 385.5V385C299.324 383.6 299.558 382.417 300.024 381.45C300.508 380.483 301.158 379.75 301.974 379.25C302.808 378.75 303.758 378.5 304.824 378.5C305.891 378.5 306.816 378.733 307.599 379.2C308.399 379.667 308.991 380.308 309.374 381.125V374.5H311.574V392H309.524V389.5C309.191 390.317 308.608 390.983 307.774 391.5C306.941 392 305.958 392.25 304.824 392.25ZM305.324 390.3C306.124 390.3 306.824 390.133 307.424 389.8C308.041 389.45 308.516 388.975 308.849 388.375C309.199 387.758 309.374 387.05 309.374 386.25V384.25C309.374 383.533 309.199 382.892 308.849 382.325C308.516 381.742 308.041 381.283 307.424 380.95C306.824 380.617 306.124 380.45 305.324 380.45C304.258 380.45 303.358 380.85 302.624 381.65C301.891 382.433 301.524 383.55 301.524 385V385.5C301.524 387.067 301.891 388.258 302.624 389.075C303.358 389.892 304.258 390.3 305.324 390.3ZM29.6128 422L25.9878 408.75H28.3878L30.9378 419L34.3878 408.75H36.3378L39.9128 419L42.4378 408.75H44.7378L41.1128 422H38.9128L35.3128 411.75L31.8128 422H29.6128ZM47.7271 422V408.75H49.9271V422H47.7271ZM48.8271 407C48.3937 407 48.0354 406.858 47.7521 406.575C47.4687 406.292 47.3271 405.933 47.3271 405.5C47.3271 405.067 47.4687 404.708 47.7521 404.425C48.0354 404.142 48.3937 404 48.8271 404C49.2604 404 49.6187 404.142 49.9021 404.425C50.1854 404.708 50.3271 405.067 50.3271 405.5C50.3271 405.933 50.1854 406.292 49.9021 406.575C49.6187 406.858 49.2604 407 48.8271 407ZM59.0415 422.125C58.1082 422.125 57.3415 421.983 56.7415 421.7C56.1582 421.417 55.7248 420.992 55.4415 420.425C55.1748 419.842 55.0415 419.117 55.0415 418.25V410.7H53.0415V408.75H55.0415V405.75H57.2415V408.75H60.7915V410.7H57.2415V418C57.2415 418.75 57.3998 419.292 57.7165 419.625C58.0332 419.958 58.6415 420.125 59.5415 420.125C60.0415 420.125 60.5415 420.1 61.0415 420.05V422C60.7248 422.033 60.4082 422.058 60.0915 422.075C59.7748 422.108 59.4248 422.125 59.0415 422.125ZM64.1763 422V404.5H66.3763V411.125C66.6096 410.658 66.9263 410.225 67.3263 409.825C67.7263 409.425 68.2096 409.108 68.7763 408.875C69.3596 408.625 70.0179 408.5 70.7513 408.5C72.4179 408.5 73.6513 408.95 74.4513 409.85C75.2679 410.733 75.6763 412.033 75.6763 413.75V422H73.4763V414.25C73.4763 413.017 73.2179 412.083 72.7013 411.45C72.1846 410.817 71.3179 410.5 70.1013 410.5C69.2346 410.5 68.5263 410.683 67.9763 411.05C67.4263 411.417 67.0179 411.883 66.7513 412.45C66.5013 413.017 66.3763 413.617 66.3763 414.25V422H64.1763ZM91.3071 422.25C90.1905 422.25 89.1405 422.008 88.1571 421.525C87.1905 421.042 86.4071 420.3 85.8071 419.3C85.2238 418.3 84.9321 417.033 84.9321 415.5V415C84.9321 413.533 85.2155 412.325 85.7821 411.375C86.3488 410.408 87.0988 409.692 88.0321 409.225C88.9655 408.742 89.9738 408.5 91.0571 408.5C93.0071 408.5 94.5155 409.033 95.5821 410.1C96.6488 411.167 97.1821 412.675 97.1821 414.625V416.025H87.1321C87.1321 417.058 87.3405 417.883 87.7571 418.5C88.1905 419.117 88.7238 419.567 89.3571 419.85C90.0071 420.117 90.6571 420.25 91.3071 420.25C92.3071 420.25 93.0738 420.083 93.6071 419.75C94.1571 419.417 94.5488 418.958 94.7821 418.375H96.9321C96.6655 419.642 96.0071 420.608 94.9571 421.275C93.9238 421.925 92.7071 422.25 91.3071 422.25ZM91.1821 410.5C90.4988 410.5 89.8488 410.633 89.2321 410.9C88.6155 411.15 88.1071 411.55 87.7071 412.1C87.3238 412.65 87.1321 413.358 87.1321 414.225H95.1071C95.0905 413.308 94.8988 412.583 94.5321 412.05C94.1821 411.5 93.7155 411.108 93.1321 410.875C92.5488 410.625 91.8988 410.5 91.1821 410.5ZM100.559 422V408.75H102.759V422H100.559ZM101.659 407C101.226 407 100.867 406.858 100.584 406.575C100.301 406.292 100.159 405.933 100.159 405.5C100.159 405.067 100.301 404.708 100.584 404.425C100.867 404.142 101.226 404 101.659 404C102.092 404 102.451 404.142 102.734 404.425C103.017 404.708 103.159 405.067 103.159 405.5C103.159 405.933 103.017 406.292 102.734 406.575C102.451 406.858 102.092 407 101.659 407ZM112.249 427.25C110.965 427.25 109.924 427.083 109.124 426.75C108.324 426.417 107.732 425.967 107.349 425.4C106.965 424.833 106.724 424.2 106.624 423.5H108.924C109.09 424.033 109.407 424.458 109.874 424.775C110.34 425.092 111.132 425.25 112.249 425.25C113.599 425.25 114.59 424.925 115.224 424.275C115.857 423.625 116.174 422.7 116.174 421.5V419.375C115.79 420.258 115.199 420.917 114.399 421.35C113.615 421.783 112.69 422 111.624 422C110.54 422 109.582 421.75 108.749 421.25C107.915 420.75 107.265 420.008 106.799 419.025C106.349 418.042 106.124 416.825 106.124 415.375V414.875C106.124 413.508 106.357 412.358 106.824 411.425C107.307 410.475 107.957 409.75 108.774 409.25C109.607 408.75 110.557 408.5 111.624 408.5C112.757 408.5 113.74 408.758 114.574 409.275C115.407 409.775 115.99 410.433 116.324 411.25V408.75H118.374V421.5C118.374 423.3 117.849 424.708 116.799 425.725C115.749 426.742 114.232 427.25 112.249 427.25ZM112.124 420.05C112.924 420.05 113.624 419.883 114.224 419.55C114.84 419.217 115.315 418.758 115.649 418.175C115.999 417.575 116.174 416.892 116.174 416.125V414.125C116.174 413.442 115.999 412.825 115.649 412.275C115.315 411.725 114.84 411.283 114.224 410.95C113.624 410.617 112.924 410.45 112.124 410.45C111.057 410.45 110.157 410.842 109.424 411.625C108.69 412.408 108.324 413.492 108.324 414.875V415.375C108.324 416.892 108.69 418.05 109.424 418.85C110.157 419.65 111.057 420.05 112.124 420.05ZM127.879 422.25C126.763 422.25 125.713 422.008 124.729 421.525C123.763 421.042 122.979 420.3 122.379 419.3C121.796 418.3 121.504 417.033 121.504 415.5V415C121.504 413.533 121.788 412.325 122.354 411.375C122.921 410.408 123.671 409.692 124.604 409.225C125.538 408.742 126.546 408.5 127.629 408.5C129.579 408.5 131.088 409.033 132.154 410.1C133.221 411.167 133.754 412.675 133.754 414.625V416.025H123.704C123.704 417.058 123.913 417.883 124.329 418.5C124.763 419.117 125.296 419.567 125.929 419.85C126.579 420.117 127.229 420.25 127.879 420.25C128.879 420.25 129.646 420.083 130.179 419.75C130.729 419.417 131.121 418.958 131.354 418.375H133.504C133.238 419.642 132.579 420.608 131.529 421.275C130.496 421.925 129.279 422.25 127.879 422.25ZM127.754 410.5C127.071 410.5 126.421 410.633 125.804 410.9C125.188 411.15 124.679 411.55 124.279 412.1C123.896 412.65 123.704 413.358 123.704 414.225H131.679C131.663 413.308 131.471 412.583 131.104 412.05C130.754 411.5 130.288 411.108 129.704 410.875C129.121 410.625 128.471 410.5 127.754 410.5ZM136.881 422V408.75H138.931V411.25C139.231 410.517 139.756 409.875 140.506 409.325C141.273 408.775 142.256 408.5 143.456 408.5C145.123 408.5 146.356 408.95 147.156 409.85C147.973 410.733 148.381 412.033 148.381 413.75V422H146.181V414.25C146.181 413.017 145.923 412.083 145.406 411.45C144.89 410.817 144.023 410.5 142.806 410.5C141.94 410.5 141.231 410.683 140.681 411.05C140.131 411.417 139.723 411.883 139.456 412.45C139.206 413.017 139.081 413.617 139.081 414.25V422H136.881ZM156.887 422.25C155.804 422.25 154.846 422 154.012 421.5C153.179 421 152.529 420.25 152.062 419.25C151.612 418.25 151.387 417 151.387 415.5V415C151.387 413.6 151.621 412.417 152.087 411.45C152.571 410.483 153.221 409.75 154.037 409.25C154.871 408.75 155.821 408.5 156.887 408.5C157.954 408.5 158.879 408.733 159.662 409.2C160.462 409.667 161.054 410.308 161.437 411.125V404.5H163.637V422H161.587V419.5C161.254 420.317 160.671 420.983 159.837 421.5C159.004 422 158.021 422.25 156.887 422.25ZM157.387 420.3C158.187 420.3 158.887 420.133 159.487 419.8C160.104 419.45 160.579 418.975 160.912 418.375C161.262 417.758 161.437 417.05 161.437 416.25V414.25C161.437 413.533 161.262 412.892 160.912 412.325C160.579 411.742 160.104 411.283 159.487 410.95C158.887 410.617 158.187 410.45 157.387 410.45C156.321 410.45 155.421 410.85 154.687 411.65C153.954 412.433 153.587 413.55 153.587 415V415.5C153.587 417.067 153.954 418.258 154.687 419.075C155.421 419.892 156.321 420.3 157.387 420.3ZM173.143 422.25C172.026 422.25 170.976 422.008 169.993 421.525C169.026 421.042 168.243 420.3 167.643 419.3C167.06 418.3 166.768 417.033 166.768 415.5V415C166.768 413.533 167.051 412.325 167.618 411.375C168.185 410.408 168.935 409.692 169.868 409.225C170.801 408.742 171.81 408.5 172.893 408.5C174.843 408.5 176.351 409.033 177.418 410.1C178.485 411.167 179.018 412.675 179.018 414.625V416.025H168.968C168.968 417.058 169.176 417.883 169.593 418.5C170.026 419.117 170.56 419.567 171.193 419.85C171.843 420.117 172.493 420.25 173.143 420.25C174.143 420.25 174.91 420.083 175.443 419.75C175.993 419.417 176.385 418.958 176.618 418.375H178.768C178.501 419.642 177.843 420.608 176.793 421.275C175.76 421.925 174.543 422.25 173.143 422.25ZM173.018 410.5C172.335 410.5 171.685 410.633 171.068 410.9C170.451 411.15 169.943 411.55 169.543 412.1C169.16 412.65 168.968 413.358 168.968 414.225H176.943C176.926 413.308 176.735 412.583 176.368 412.05C176.018 411.5 175.551 411.108 174.968 410.875C174.385 410.625 173.735 410.5 173.018 410.5ZM187.27 422.25C186.137 422.25 185.112 422.008 184.195 421.525C183.295 421.025 182.578 420.275 182.045 419.275C181.528 418.275 181.27 417.017 181.27 415.5V415C181.27 413.567 181.553 412.367 182.12 411.4C182.687 410.433 183.428 409.708 184.345 409.225C185.262 408.742 186.237 408.5 187.27 408.5C188.32 408.5 189.22 408.692 189.97 409.075C190.737 409.442 191.353 409.95 191.82 410.6C192.287 411.233 192.603 411.95 192.77 412.75H190.52C190.253 412.117 189.878 411.583 189.395 411.15C188.928 410.717 188.22 410.5 187.27 410.5C186.62 410.5 186.012 410.658 185.445 410.975C184.878 411.275 184.412 411.758 184.045 412.425C183.695 413.075 183.52 413.933 183.52 415V415.5C183.52 416.633 183.695 417.55 184.045 418.25C184.412 418.95 184.878 419.458 185.445 419.775C186.012 420.092 186.62 420.25 187.27 420.25C188.087 420.25 188.77 420.05 189.32 419.65C189.887 419.25 190.287 418.7 190.52 418H192.77C192.57 418.867 192.212 419.625 191.695 420.275C191.178 420.908 190.545 421.4 189.795 421.75C189.045 422.083 188.203 422.25 187.27 422.25ZM201.268 422.25C200.151 422.25 199.101 422.008 198.118 421.525C197.151 421.025 196.368 420.275 195.768 419.275C195.185 418.275 194.893 417.017 194.893 415.5V415C194.893 413.567 195.185 412.367 195.768 411.4C196.368 410.433 197.151 409.708 198.118 409.225C199.101 408.742 200.151 408.5 201.268 408.5C202.401 408.5 203.451 408.742 204.418 409.225C205.385 409.708 206.16 410.433 206.743 411.4C207.343 412.367 207.643 413.567 207.643 415V415.5C207.643 417.017 207.343 418.275 206.743 419.275C206.16 420.275 205.385 421.025 204.418 421.525C203.451 422.008 202.401 422.25 201.268 422.25ZM201.268 420.25C201.951 420.25 202.601 420.1 203.218 419.8C203.851 419.483 204.368 418.975 204.768 418.275C205.185 417.575 205.393 416.65 205.393 415.5V415C205.393 413.933 205.185 413.075 204.768 412.425C204.368 411.758 203.851 411.275 203.218 410.975C202.601 410.658 201.951 410.5 201.268 410.5C200.601 410.5 199.951 410.658 199.318 410.975C198.685 411.275 198.16 411.758 197.743 412.425C197.343 413.075 197.143 413.933 197.143 415V415.5C197.143 416.65 197.343 417.575 197.743 418.275C198.16 418.975 198.685 419.483 199.318 419.8C199.951 420.1 200.601 420.25 201.268 420.25ZM210.758 422V408.75H212.808V411.25C213.092 410.433 213.575 409.775 214.258 409.275C214.958 408.758 215.75 408.5 216.633 408.5C217.783 408.5 218.667 408.75 219.283 409.25C219.9 409.733 220.325 410.358 220.558 411.125C220.992 410.308 221.542 409.667 222.208 409.2C222.892 408.733 223.708 408.5 224.658 408.5C226.025 408.5 227.092 408.917 227.858 409.75C228.625 410.567 229.008 411.858 229.008 413.625V422H226.808V414.125C226.808 412.808 226.575 411.875 226.108 411.325C225.658 410.775 224.967 410.5 224.033 410.5C223.5 410.5 223 410.65 222.533 410.95C222.067 411.233 221.692 411.65 221.408 412.2C221.125 412.733 220.983 413.375 220.983 414.125V422H218.783V414.125C218.783 412.808 218.55 411.875 218.083 411.325C217.617 410.775 216.925 410.5 216.008 410.5C215.475 410.5 214.975 410.65 214.508 410.95C214.042 411.233 213.667 411.65 213.383 412.2C213.1 412.733 212.958 413.375 212.958 414.125V422H210.758ZM232.877 427V408.75H234.927V411.25C235.377 410.367 236.002 409.692 236.802 409.225C237.619 408.742 238.561 408.5 239.627 408.5C241.294 408.5 242.627 409.05 243.627 410.15C244.627 411.233 245.127 412.85 245.127 415V415.5C245.127 417 244.894 418.25 244.427 419.25C243.977 420.25 243.336 421 242.502 421.5C241.686 422 240.727 422.25 239.627 422.25C238.494 422.25 237.544 422 236.777 421.5C236.027 421 235.461 420.375 235.077 419.625V427H232.877ZM239.127 420.3C240.211 420.3 241.111 419.892 241.827 419.075C242.561 418.258 242.927 417.067 242.927 415.5V415C242.927 413.55 242.561 412.433 241.827 411.65C241.111 410.85 240.211 410.45 239.127 410.45C238.327 410.45 237.619 410.617 237.002 410.95C236.402 411.283 235.927 411.742 235.577 412.325C235.244 412.892 235.077 413.533 235.077 414.25V416.25C235.077 417.05 235.244 417.758 235.577 418.375C235.927 418.975 236.402 419.45 237.002 419.8C237.619 420.133 238.327 420.3 239.127 420.3ZM253.758 422.25C252.642 422.25 251.592 422.008 250.608 421.525C249.642 421.025 248.858 420.275 248.258 419.275C247.675 418.275 247.383 417.017 247.383 415.5V415C247.383 413.567 247.675 412.367 248.258 411.4C248.858 410.433 249.642 409.708 250.608 409.225C251.592 408.742 252.642 408.5 253.758 408.5C254.892 408.5 255.942 408.742 256.908 409.225C257.875 409.708 258.65 410.433 259.233 411.4C259.833 412.367 260.133 413.567 260.133 415V415.5C260.133 417.017 259.833 418.275 259.233 419.275C258.65 420.275 257.875 421.025 256.908 421.525C255.942 422.008 254.892 422.25 253.758 422.25ZM253.758 420.25C254.442 420.25 255.092 420.1 255.708 419.8C256.342 419.483 256.858 418.975 257.258 418.275C257.675 417.575 257.883 416.65 257.883 415.5V415C257.883 413.933 257.675 413.075 257.258 412.425C256.858 411.758 256.342 411.275 255.708 410.975C255.092 410.658 254.442 410.5 253.758 410.5C253.092 410.5 252.442 410.658 251.808 410.975C251.175 411.275 250.65 411.758 250.233 412.425C249.833 413.075 249.633 413.933 249.633 415V415.5C249.633 416.65 249.833 417.575 250.233 418.275C250.65 418.975 251.175 419.483 251.808 419.8C252.442 420.1 253.092 420.25 253.758 420.25ZM267.874 422.25C266.99 422.25 266.224 422.15 265.574 421.95C264.924 421.733 264.382 421.45 263.949 421.1C263.515 420.75 263.165 420.342 262.899 419.875C262.649 419.392 262.474 418.892 262.374 418.375H264.574C264.69 418.908 264.999 419.375 265.499 419.775C266.015 420.158 266.807 420.35 267.874 420.35C269.107 420.35 269.965 420.158 270.449 419.775C270.932 419.375 271.174 418.908 271.174 418.375C271.174 418.008 271.065 417.692 270.849 417.425C270.649 417.142 270.282 416.9 269.749 416.7C269.232 416.5 268.49 416.333 267.524 416.2C266.79 416.1 266.132 415.958 265.549 415.775C264.965 415.575 264.465 415.317 264.049 415C263.632 414.683 263.307 414.3 263.074 413.85C262.857 413.4 262.749 412.867 262.749 412.25C262.749 411.583 262.94 410.967 263.324 410.4C263.707 409.833 264.282 409.375 265.049 409.025C265.815 408.675 266.757 408.5 267.874 408.5C268.924 408.5 269.79 408.683 270.474 409.05C271.174 409.4 271.715 409.867 272.099 410.45C272.482 411.033 272.74 411.675 272.874 412.375H270.674C270.54 411.792 270.257 411.317 269.824 410.95C269.39 410.583 268.74 410.4 267.874 410.4C266.79 410.4 266.032 410.583 265.599 410.95C265.165 411.3 264.949 411.733 264.949 412.25C264.949 412.85 265.182 413.3 265.649 413.6C266.132 413.9 267.007 414.133 268.274 414.3C269.09 414.4 269.815 414.55 270.449 414.75C271.082 414.933 271.615 415.192 272.049 415.525C272.482 415.842 272.807 416.233 273.024 416.7C273.257 417.167 273.374 417.725 273.374 418.375C273.374 419.075 273.174 419.717 272.774 420.3C272.374 420.883 271.765 421.358 270.949 421.725C270.149 422.075 269.124 422.25 267.874 422.25ZM276.755 422V408.75H278.955V422H276.755ZM277.855 407C277.422 407 277.064 406.858 276.78 406.575C276.497 406.292 276.355 405.933 276.355 405.5C276.355 405.067 276.497 404.708 276.78 404.425C277.064 404.142 277.422 404 277.855 404C278.289 404 278.647 404.142 278.93 404.425C279.214 404.708 279.355 405.067 279.355 405.5C279.355 405.933 279.214 406.292 278.93 406.575C278.647 406.858 278.289 407 277.855 407ZM288.07 422.125C287.136 422.125 286.37 421.983 285.77 421.7C285.186 421.417 284.753 420.992 284.47 420.425C284.203 419.842 284.07 419.117 284.07 418.25V410.7H282.07V408.75H284.07V405.75H286.27V408.75H289.82V410.7H286.27V418C286.27 418.75 286.428 419.292 286.745 419.625C287.061 419.958 287.67 420.125 288.57 420.125C289.07 420.125 289.57 420.1 290.07 420.05V422C289.753 422.033 289.436 422.058 289.12 422.075C288.803 422.108 288.453 422.125 288.07 422.125ZM293.455 422V408.75H295.655V422H293.455ZM294.555 407C294.121 407 293.763 406.858 293.48 406.575C293.196 406.292 293.055 405.933 293.055 405.5C293.055 405.067 293.196 404.708 293.48 404.425C293.763 404.142 294.121 404 294.555 404C294.988 404 295.346 404.142 295.63 404.425C295.913 404.708 296.055 405.067 296.055 405.5C296.055 405.933 295.913 406.292 295.63 406.575C295.346 406.858 294.988 407 294.555 407ZM305.394 422.25C304.277 422.25 303.227 422.008 302.244 421.525C301.277 421.025 300.494 420.275 299.894 419.275C299.311 418.275 299.019 417.017 299.019 415.5V415C299.019 413.567 299.311 412.367 299.894 411.4C300.494 410.433 301.277 409.708 302.244 409.225C303.227 408.742 304.277 408.5 305.394 408.5C306.527 408.5 307.577 408.742 308.544 409.225C309.511 409.708 310.286 410.433 310.869 411.4C311.469 412.367 311.769 413.567 311.769 415V415.5C311.769 417.017 311.469 418.275 310.869 419.275C310.286 420.275 309.511 421.025 308.544 421.525C307.577 422.008 306.527 422.25 305.394 422.25ZM305.394 420.25C306.077 420.25 306.727 420.1 307.344 419.8C307.977 419.483 308.494 418.975 308.894 418.275C309.311 417.575 309.519 416.65 309.519 415.5V415C309.519 413.933 309.311 413.075 308.894 412.425C308.494 411.758 307.977 411.275 307.344 410.975C306.727 410.658 306.077 410.5 305.394 410.5C304.727 410.5 304.077 410.658 303.444 410.975C302.811 411.275 302.286 411.758 301.869 412.425C301.469 413.075 301.269 413.933 301.269 415V415.5C301.269 416.65 301.469 417.575 301.869 418.275C302.286 418.975 302.811 419.483 303.444 419.8C304.077 420.1 304.727 420.25 305.394 420.25ZM314.884 422V408.75H316.934V411.25C317.234 410.517 317.759 409.875 318.509 409.325C319.276 408.775 320.259 408.5 321.459 408.5C323.126 408.5 324.359 408.95 325.159 409.85C325.976 410.733 326.384 412.033 326.384 413.75V422H324.184V414.25C324.184 413.017 323.926 412.083 323.409 411.45C322.893 410.817 322.026 410.5 320.809 410.5C319.943 410.5 319.234 410.683 318.684 411.05C318.134 411.417 317.726 411.883 317.459 412.45C317.209 413.017 317.084 413.617 317.084 414.25V422H314.884ZM335.515 415.5V416C335.515 417.633 335.282 419.117 334.815 420.45C334.365 421.783 333.857 422.942 333.29 423.925C332.973 424.492 332.623 425.025 332.24 425.525C331.873 426.042 331.482 426.533 331.065 427H328.515C328.965 426.533 329.39 426.042 329.79 425.525C330.19 425.025 330.557 424.492 330.89 423.925C331.49 422.958 332.032 421.8 332.515 420.45C333.015 419.1 333.265 417.617 333.265 416V415.5C333.265 413.867 333.015 412.375 332.515 411.025C332.032 409.675 331.49 408.517 330.89 407.55C330.557 406.967 330.19 406.425 329.79 405.925C329.39 405.408 328.965 404.933 328.515 404.5H331.165C331.582 404.933 331.965 405.408 332.315 405.925C332.682 406.425 333.023 406.967 333.34 407.55C333.89 408.517 334.39 409.675 334.84 411.025C335.29 412.375 335.515 413.867 335.515 415.5Z" fill="#DEFF23"/>
<path d="M66.2803 524V510.75H68.4803V524H66.2803ZM67.3803 509C66.9469 509 66.5886 508.858 66.3053 508.575C66.0219 508.292 65.8803 507.933 65.8803 507.5C65.8803 507.067 66.0219 506.708 66.3053 506.425C66.5886 506.142 66.9469 506 67.3803 506C67.8136 506 68.1719 506.142 68.4553 506.425C68.7386 506.708 68.8803 507.067 68.8803 507.5C68.8803 507.933 68.7386 508.292 68.4553 508.575C68.1719 508.858 67.8136 509 67.3803 509ZM77.5947 524.125C76.6614 524.125 75.8947 523.983 75.2947 523.7C74.7114 523.417 74.2781 522.992 73.9947 522.425C73.7281 521.842 73.5947 521.117 73.5947 520.25V512.7H71.5947V510.75H73.5947V507.75H75.7947V510.75H79.3447V512.7H75.7947V520C75.7947 520.75 75.9531 521.292 76.2697 521.625C76.5864 521.958 77.1947 522.125 78.0947 522.125C78.5947 522.125 79.0947 522.1 79.5947 522.05V524C79.2781 524.033 78.9614 524.058 78.6447 524.075C78.3281 524.108 77.9781 524.125 77.5947 524.125ZM82.1045 513L83.1045 509.25V506.5H85.8545V509.25L83.3545 513H82.1045ZM94.8496 524.25C93.9663 524.25 93.1996 524.15 92.5496 523.95C91.8996 523.733 91.3579 523.45 90.9246 523.1C90.4913 522.75 90.1413 522.342 89.8746 521.875C89.6246 521.392 89.4496 520.892 89.3496 520.375H91.5496C91.6663 520.908 91.9746 521.375 92.4746 521.775C92.9913 522.158 93.7829 522.35 94.8496 522.35C96.0829 522.35 96.9413 522.158 97.4246 521.775C97.9079 521.375 98.1496 520.908 98.1496 520.375C98.1496 520.008 98.0413 519.692 97.8246 519.425C97.6246 519.142 97.2579 518.9 96.7246 518.7C96.2079 518.5 95.4663 518.333 94.4996 518.2C93.7663 518.1 93.1079 517.958 92.5246 517.775C91.9413 517.575 91.4413 517.317 91.0246 517C90.6079 516.683 90.2829 516.3 90.0496 515.85C89.8329 515.4 89.7246 514.867 89.7246 514.25C89.7246 513.583 89.9163 512.967 90.2996 512.4C90.6829 511.833 91.2579 511.375 92.0246 511.025C92.7913 510.675 93.7329 510.5 94.8496 510.5C95.8996 510.5 96.7663 510.683 97.4496 511.05C98.1496 511.4 98.6913 511.867 99.0746 512.45C99.4579 513.033 99.7163 513.675 99.8496 514.375H97.6496C97.5163 513.792 97.2329 513.317 96.7996 512.95C96.3663 512.583 95.7163 512.4 94.8496 512.4C93.7663 512.4 93.0079 512.583 92.5746 512.95C92.1413 513.3 91.9246 513.733 91.9246 514.25C91.9246 514.85 92.1579 515.3 92.6246 515.6C93.1079 515.9 93.9829 516.133 95.2496 516.3C96.0663 516.4 96.7913 516.55 97.4246 516.75C98.0579 516.933 98.5913 517.192 99.0246 517.525C99.4579 517.842 99.7829 518.233 99.9996 518.7C100.233 519.167 100.35 519.725 100.35 520.375C100.35 521.075 100.15 521.717 99.7496 522.3C99.3496 522.883 98.7413 523.358 97.9246 523.725C97.1246 524.075 96.0996 524.25 94.8496 524.25ZM115.231 524.25C114.115 524.25 113.065 524.008 112.081 523.525C111.115 523.042 110.331 522.3 109.731 521.3C109.148 520.3 108.856 519.033 108.856 517.5V517C108.856 515.533 109.14 514.325 109.706 513.375C110.273 512.408 111.023 511.692 111.956 511.225C112.89 510.742 113.898 510.5 114.981 510.5C116.931 510.5 118.44 511.033 119.506 512.1C120.573 513.167 121.106 514.675 121.106 516.625V518.025H111.056C111.056 519.058 111.265 519.883 111.681 520.5C112.115 521.117 112.648 521.567 113.281 521.85C113.931 522.117 114.581 522.25 115.231 522.25C116.231 522.25 116.998 522.083 117.531 521.75C118.081 521.417 118.473 520.958 118.706 520.375H120.856C120.59 521.642 119.931 522.608 118.881 523.275C117.848 523.925 116.631 524.25 115.231 524.25ZM115.106 512.5C114.423 512.5 113.773 512.633 113.156 512.9C112.54 513.15 112.031 513.55 111.631 514.1C111.248 514.65 111.056 515.358 111.056 516.225H119.031C119.015 515.308 118.823 514.583 118.456 514.05C118.106 513.5 117.64 513.108 117.056 512.875C116.473 512.625 115.823 512.5 115.106 512.5ZM124.483 524V510.75H126.683V524H124.483ZM125.583 509C125.15 509 124.792 508.858 124.508 508.575C124.225 508.292 124.083 507.933 124.083 507.5C124.083 507.067 124.225 506.708 124.508 506.425C124.792 506.142 125.15 506 125.583 506C126.017 506 126.375 506.142 126.658 506.425C126.942 506.708 127.083 507.067 127.083 507.5C127.083 507.933 126.942 508.292 126.658 508.575C126.375 508.858 126.017 509 125.583 509ZM136.173 529.25C134.89 529.25 133.848 529.083 133.048 528.75C132.248 528.417 131.656 527.967 131.273 527.4C130.89 526.833 130.648 526.2 130.548 525.5H132.848C133.015 526.033 133.331 526.458 133.798 526.775C134.265 527.092 135.056 527.25 136.173 527.25C137.523 527.25 138.515 526.925 139.148 526.275C139.781 525.625 140.098 524.7 140.098 523.5V521.375C139.715 522.258 139.123 522.917 138.323 523.35C137.54 523.783 136.615 524 135.548 524C134.465 524 133.506 523.75 132.673 523.25C131.84 522.75 131.19 522.008 130.723 521.025C130.273 520.042 130.048 518.825 130.048 517.375V516.875C130.048 515.508 130.281 514.358 130.748 513.425C131.231 512.475 131.881 511.75 132.698 511.25C133.531 510.75 134.481 510.5 135.548 510.5C136.681 510.5 137.665 510.758 138.498 511.275C139.331 511.775 139.915 512.433 140.248 513.25V510.75H142.298V523.5C142.298 525.3 141.773 526.708 140.723 527.725C139.673 528.742 138.156 529.25 136.173 529.25ZM136.048 522.05C136.848 522.05 137.548 521.883 138.148 521.55C138.765 521.217 139.24 520.758 139.573 520.175C139.923 519.575 140.098 518.892 140.098 518.125V516.125C140.098 515.442 139.923 514.825 139.573 514.275C139.24 513.725 138.765 513.283 138.148 512.95C137.548 512.617 136.848 512.45 136.048 512.45C134.981 512.45 134.081 512.842 133.348 513.625C132.615 514.408 132.248 515.492 132.248 516.875V517.375C132.248 518.892 132.615 520.05 133.348 520.85C134.081 521.65 134.981 522.05 136.048 522.05ZM151.804 524.25C150.687 524.25 149.637 524.008 148.654 523.525C147.687 523.042 146.904 522.3 146.304 521.3C145.72 520.3 145.429 519.033 145.429 517.5V517C145.429 515.533 145.712 514.325 146.279 513.375C146.845 512.408 147.595 511.692 148.529 511.225C149.462 510.742 150.47 510.5 151.554 510.5C153.504 510.5 155.012 511.033 156.079 512.1C157.145 513.167 157.679 514.675 157.679 516.625V518.025H147.629C147.629 519.058 147.837 519.883 148.254 520.5C148.687 521.117 149.22 521.567 149.854 521.85C150.504 522.117 151.154 522.25 151.804 522.25C152.804 522.25 153.57 522.083 154.104 521.75C154.654 521.417 155.045 520.958 155.279 520.375H157.429C157.162 521.642 156.504 522.608 155.454 523.275C154.42 523.925 153.204 524.25 151.804 524.25ZM151.679 512.5C150.995 512.5 150.345 512.633 149.729 512.9C149.112 513.15 148.604 513.55 148.204 514.1C147.82 514.65 147.629 515.358 147.629 516.225H155.604C155.587 515.308 155.395 514.583 155.029 514.05C154.679 513.5 154.212 513.108 153.629 512.875C153.045 512.625 152.395 512.5 151.679 512.5ZM160.806 524V510.75H162.856V513.25C163.156 512.517 163.681 511.875 164.431 511.325C165.197 510.775 166.181 510.5 167.381 510.5C169.047 510.5 170.281 510.95 171.081 511.85C171.897 512.733 172.306 514.033 172.306 515.75V524H170.106V516.25C170.106 515.017 169.847 514.083 169.331 513.45C168.814 512.817 167.947 512.5 166.731 512.5C165.864 512.5 165.156 512.683 164.606 513.05C164.056 513.417 163.647 513.883 163.381 514.45C163.131 515.017 163.006 515.617 163.006 516.25V524H160.806ZM179.698 524L174.198 510.75H176.648L180.948 521.75L184.848 510.75H187.198L182.198 524H179.698ZM192.706 524.25C191.739 524.25 190.914 524.075 190.231 523.725C189.564 523.358 189.056 522.867 188.706 522.25C188.356 521.617 188.181 520.908 188.181 520.125C188.181 518.808 188.564 517.858 189.331 517.275C190.114 516.692 191.231 516.4 192.681 516.4H196.981V515.5C196.981 514.367 196.722 513.583 196.206 513.15C195.706 512.717 194.947 512.5 193.931 512.5C192.981 512.5 192.289 512.683 191.856 513.05C191.422 513.4 191.181 513.8 191.131 514.25H188.931C188.981 513.533 189.222 512.9 189.656 512.35C190.089 511.783 190.681 511.333 191.431 511C192.181 510.667 193.056 510.5 194.056 510.5C195.106 510.5 196.014 510.667 196.781 511C197.547 511.317 198.139 511.825 198.556 512.525C198.972 513.208 199.181 514.117 199.181 515.25V520.625C199.181 521.325 199.181 521.942 199.181 522.475C199.197 522.992 199.239 523.5 199.306 524H197.381C197.331 523.617 197.297 523.258 197.281 522.925C197.264 522.575 197.256 522.183 197.256 521.75C196.906 522.45 196.339 523.042 195.556 523.525C194.772 524.008 193.822 524.25 192.706 524.25ZM193.181 522.25C193.881 522.25 194.514 522.125 195.081 521.875C195.664 521.625 196.122 521.258 196.456 520.775C196.806 520.292 196.981 519.7 196.981 519V518.1H193.056C192.239 518.1 191.597 518.267 191.131 518.6C190.664 518.917 190.431 519.425 190.431 520.125C190.431 520.742 190.647 521.25 191.081 521.65C191.531 522.05 192.231 522.25 193.181 522.25ZM207.066 524.125C206.15 524.125 205.4 523.983 204.816 523.7C204.25 523.4 203.833 522.942 203.566 522.325C203.316 521.692 203.191 520.875 203.191 519.875V506.5H205.391V519.875C205.391 520.742 205.533 521.333 205.816 521.65C206.1 521.967 206.6 522.125 207.316 522.125C207.5 522.125 207.658 522.125 207.791 522.125C207.925 522.108 208.058 522.092 208.191 522.075V524.025C208.108 524.042 207.991 524.058 207.841 524.075C207.708 524.092 207.566 524.1 207.416 524.1C207.283 524.117 207.166 524.125 207.066 524.125ZM215.749 524.25C214.149 524.25 212.949 523.792 212.149 522.875C211.349 521.958 210.949 520.542 210.949 518.625V510.75H213.149V518.5C213.149 519.733 213.399 520.667 213.899 521.3C214.416 521.933 215.249 522.25 216.399 522.25C217.233 522.25 217.916 522.067 218.449 521.7C218.983 521.333 219.374 520.867 219.624 520.3C219.874 519.717 219.999 519.117 219.999 518.5V510.75H222.199V524H220.149V521.5C219.849 522.233 219.324 522.875 218.574 523.425C217.824 523.975 216.883 524.25 215.749 524.25ZM231.711 524.25C230.594 524.25 229.544 524.008 228.561 523.525C227.594 523.042 226.811 522.3 226.211 521.3C225.628 520.3 225.336 519.033 225.336 517.5V517C225.336 515.533 225.619 514.325 226.186 513.375C226.753 512.408 227.503 511.692 228.436 511.225C229.369 510.742 230.378 510.5 231.461 510.5C233.411 510.5 234.919 511.033 235.986 512.1C237.053 513.167 237.586 514.675 237.586 516.625V518.025H227.536C227.536 519.058 227.744 519.883 228.161 520.5C228.594 521.117 229.128 521.567 229.761 521.85C230.411 522.117 231.061 522.25 231.711 522.25C232.711 522.25 233.478 522.083 234.011 521.75C234.561 521.417 234.953 520.958 235.186 520.375H237.336C237.069 521.642 236.411 522.608 235.361 523.275C234.328 523.925 233.111 524.25 231.711 524.25ZM231.586 512.5C230.903 512.5 230.253 512.633 229.636 512.9C229.019 513.15 228.511 513.55 228.111 514.1C227.728 514.65 227.536 515.358 227.536 516.225H235.511C235.494 515.308 235.303 514.583 234.936 514.05C234.586 513.5 234.119 513.108 233.536 512.875C232.953 512.625 232.303 512.5 231.586 512.5ZM245.338 524.25C244.455 524.25 243.688 524.15 243.038 523.95C242.388 523.733 241.846 523.45 241.413 523.1C240.98 522.75 240.63 522.342 240.363 521.875C240.113 521.392 239.938 520.892 239.838 520.375H242.038C242.155 520.908 242.463 521.375 242.963 521.775C243.48 522.158 244.271 522.35 245.338 522.35C246.571 522.35 247.43 522.158 247.913 521.775C248.396 521.375 248.638 520.908 248.638 520.375C248.638 520.008 248.53 519.692 248.313 519.425C248.113 519.142 247.746 518.9 247.213 518.7C246.696 518.5 245.955 518.333 244.988 518.2C244.255 518.1 243.596 517.958 243.013 517.775C242.43 517.575 241.93 517.317 241.513 517C241.096 516.683 240.771 516.3 240.538 515.85C240.321 515.4 240.213 514.867 240.213 514.25C240.213 513.583 240.405 512.967 240.788 512.4C241.171 511.833 241.746 511.375 242.513 511.025C243.28 510.675 244.221 510.5 245.338 510.5C246.388 510.5 247.255 510.683 247.938 511.05C248.638 511.4 249.18 511.867 249.563 512.45C249.946 513.033 250.205 513.675 250.338 514.375H248.138C248.005 513.792 247.721 513.317 247.288 512.95C246.855 512.583 246.205 512.4 245.338 512.4C244.255 512.4 243.496 512.583 243.063 512.95C242.63 513.3 242.413 513.733 242.413 514.25C242.413 514.85 242.646 515.3 243.113 515.6C243.596 515.9 244.471 516.133 245.738 516.3C246.555 516.4 247.28 516.55 247.913 516.75C248.546 516.933 249.08 517.192 249.513 517.525C249.946 517.842 250.271 518.233 250.488 518.7C250.721 519.167 250.838 519.725 250.838 520.375C250.838 521.075 250.638 521.717 250.238 522.3C249.838 522.883 249.23 523.358 248.413 523.725C247.613 524.075 246.588 524.25 245.338 524.25ZM71.3556 554.25C70.3889 554.25 69.5639 554.075 68.8806 553.725C68.2139 553.358 67.7056 552.867 67.3556 552.25C67.0056 551.617 66.8306 550.908 66.8306 550.125C66.8306 548.808 67.2139 547.858 67.9806 547.275C68.7639 546.692 69.8806 546.4 71.3306 546.4H75.6306V545.5C75.6306 544.367 75.3722 543.583 74.8556 543.15C74.3556 542.717 73.5972 542.5 72.5806 542.5C71.6306 542.5 70.9389 542.683 70.5056 543.05C70.0722 543.4 69.8306 543.8 69.7806 544.25H67.5806C67.6306 543.533 67.8722 542.9 68.3056 542.35C68.7389 541.783 69.3306 541.333 70.0806 541C70.8306 540.667 71.7056 540.5 72.7056 540.5C73.7556 540.5 74.6639 540.667 75.4306 541C76.1972 541.317 76.7889 541.825 77.2056 542.525C77.6222 543.208 77.8306 544.117 77.8306 545.25V550.625C77.8306 551.325 77.8306 551.942 77.8306 552.475C77.8472 552.992 77.8889 553.5 77.9556 554H76.0306C75.9806 553.617 75.9472 553.258 75.9306 552.925C75.9139 552.575 75.9056 552.183 75.9056 551.75C75.5556 552.45 74.9889 553.042 74.2056 553.525C73.4222 554.008 72.4722 554.25 71.3556 554.25ZM71.8306 552.25C72.5306 552.25 73.1639 552.125 73.7306 551.875C74.3139 551.625 74.7722 551.258 75.1056 550.775C75.4556 550.292 75.6306 549.7 75.6306 549V548.1H71.7056C70.8889 548.1 70.2472 548.267 69.7806 548.6C69.3139 548.917 69.0806 549.425 69.0806 550.125C69.0806 550.742 69.2972 551.25 69.7306 551.65C70.1806 552.05 70.8806 552.25 71.8306 552.25ZM81.7163 554V540.75H83.7663V543.25C84.0663 542.517 84.5913 541.875 85.3413 541.325C86.108 540.775 87.0913 540.5 88.2913 540.5C89.958 540.5 91.1913 540.95 91.9913 541.85C92.808 542.733 93.2163 544.033 93.2163 545.75V554H91.0163V546.25C91.0163 545.017 90.758 544.083 90.2413 543.45C89.7246 542.817 88.858 542.5 87.6413 542.5C86.7746 542.5 86.0663 542.683 85.5163 543.05C84.9663 543.417 84.558 543.883 84.2913 544.45C84.0413 545.017 83.9163 545.617 83.9163 546.25V554H81.7163ZM101.722 554.25C100.639 554.25 99.6805 554 98.8472 553.5C98.0138 553 97.3638 552.25 96.8972 551.25C96.4472 550.25 96.2222 549 96.2222 547.5V547C96.2222 545.6 96.4555 544.417 96.9222 543.45C97.4055 542.483 98.0555 541.75 98.8722 541.25C99.7055 540.75 100.656 540.5 101.722 540.5C102.789 540.5 103.714 540.733 104.497 541.2C105.297 541.667 105.889 542.308 106.272 543.125V536.5H108.472V554H106.422V551.5C106.089 552.317 105.506 552.983 104.672 553.5C103.839 554 102.856 554.25 101.722 554.25ZM102.222 552.3C103.022 552.3 103.722 552.133 104.322 551.8C104.939 551.45 105.414 550.975 105.747 550.375C106.097 549.758 106.272 549.05 106.272 548.25V546.25C106.272 545.533 106.097 544.892 105.747 544.325C105.414 543.742 104.939 543.283 104.322 542.95C103.722 542.617 103.022 542.45 102.222 542.45C101.156 542.45 100.256 542.85 99.5222 543.65C98.7888 544.433 98.4222 545.55 98.4222 547V547.5C98.4222 549.067 98.7888 550.258 99.5222 551.075C100.256 551.892 101.156 552.3 102.222 552.3ZM118.728 554V540.75H120.778V543.25C121.078 542.517 121.603 541.875 122.353 541.325C123.12 540.775 124.103 540.5 125.303 540.5C126.97 540.5 128.203 540.95 129.003 541.85C129.82 542.733 130.228 544.033 130.228 545.75V554H128.028V546.25C128.028 545.017 127.77 544.083 127.253 543.45C126.736 542.817 125.87 542.5 124.653 542.5C123.786 542.5 123.078 542.683 122.528 543.05C121.978 543.417 121.57 543.883 121.303 544.45C121.053 545.017 120.928 545.617 120.928 546.25V554H118.728ZM139.609 554.25C138.492 554.25 137.442 554.008 136.459 553.525C135.492 553.025 134.709 552.275 134.109 551.275C133.526 550.275 133.234 549.017 133.234 547.5V547C133.234 545.567 133.526 544.367 134.109 543.4C134.709 542.433 135.492 541.708 136.459 541.225C137.442 540.742 138.492 540.5 139.609 540.5C140.742 540.5 141.792 540.742 142.759 541.225C143.726 541.708 144.501 542.433 145.084 543.4C145.684 544.367 145.984 545.567 145.984 547V547.5C145.984 549.017 145.684 550.275 145.084 551.275C144.501 552.275 143.726 553.025 142.759 553.525C141.792 554.008 140.742 554.25 139.609 554.25ZM139.609 552.25C140.292 552.25 140.942 552.1 141.559 551.8C142.192 551.483 142.709 550.975 143.109 550.275C143.526 549.575 143.734 548.65 143.734 547.5V547C143.734 545.933 143.526 545.075 143.109 544.425C142.709 543.758 142.192 543.275 141.559 542.975C140.942 542.658 140.292 542.5 139.609 542.5C138.942 542.5 138.292 542.658 137.659 542.975C137.026 543.275 136.501 543.758 136.084 544.425C135.684 545.075 135.484 545.933 135.484 547V547.5C135.484 548.65 135.684 549.575 136.084 550.275C136.501 550.975 137.026 551.483 137.659 551.8C138.292 552.1 138.942 552.25 139.609 552.25ZM149.099 554V540.75H151.149V543.25C151.349 542.717 151.624 542.25 151.974 541.85C152.324 541.433 152.749 541.108 153.249 540.875C153.766 540.625 154.341 540.5 154.974 540.5C155.307 540.5 155.574 540.517 155.774 540.55C155.991 540.583 156.182 540.625 156.349 540.675V542.725C156.132 542.642 155.916 542.583 155.699 542.55C155.499 542.517 155.216 542.5 154.849 542.5C154.182 542.5 153.582 542.658 153.049 542.975C152.516 543.292 152.091 543.733 151.774 544.3C151.457 544.85 151.299 545.5 151.299 546.25V554H149.099ZM158.84 554V540.75H160.89V543.25C161.174 542.433 161.657 541.775 162.34 541.275C163.04 540.758 163.832 540.5 164.715 540.5C165.865 540.5 166.749 540.75 167.365 541.25C167.982 541.733 168.407 542.358 168.64 543.125C169.074 542.308 169.624 541.667 170.29 541.2C170.974 540.733 171.79 540.5 172.74 540.5C174.107 540.5 175.174 540.917 175.94 541.75C176.707 542.567 177.09 543.858 177.09 545.625V554H174.89V546.125C174.89 544.808 174.657 543.875 174.19 543.325C173.74 542.775 173.049 542.5 172.115 542.5C171.582 542.5 171.082 542.65 170.615 542.95C170.149 543.233 169.774 543.65 169.49 544.2C169.207 544.733 169.065 545.375 169.065 546.125V554H166.865V546.125C166.865 544.808 166.632 543.875 166.165 543.325C165.699 542.775 165.007 542.5 164.09 542.5C163.557 542.5 163.057 542.65 162.59 542.95C162.124 543.233 161.749 543.65 161.465 544.2C161.182 544.733 161.04 545.375 161.04 546.125V554H158.84ZM184.734 554.25C183.768 554.25 182.943 554.075 182.259 553.725C181.593 553.358 181.084 552.867 180.734 552.25C180.384 551.617 180.209 550.908 180.209 550.125C180.209 548.808 180.593 547.858 181.359 547.275C182.143 546.692 183.259 546.4 184.709 546.4H189.009V545.5C189.009 544.367 188.751 543.583 188.234 543.15C187.734 542.717 186.976 542.5 185.959 542.5C185.009 542.5 184.318 542.683 183.884 543.05C183.451 543.4 183.209 543.8 183.159 544.25H180.959C181.009 543.533 181.251 542.9 181.684 542.35C182.118 541.783 182.709 541.333 183.459 541C184.209 540.667 185.084 540.5 186.084 540.5C187.134 540.5 188.043 540.667 188.809 541C189.576 541.317 190.168 541.825 190.584 542.525C191.001 543.208 191.209 544.117 191.209 545.25V550.625C191.209 551.325 191.209 551.942 191.209 552.475C191.226 552.992 191.268 553.5 191.334 554H189.409C189.359 553.617 189.326 553.258 189.309 552.925C189.293 552.575 189.284 552.183 189.284 551.75C188.934 552.45 188.368 553.042 187.584 553.525C186.801 554.008 185.851 554.25 184.734 554.25ZM185.209 552.25C185.909 552.25 186.543 552.125 187.109 551.875C187.693 551.625 188.151 551.258 188.484 550.775C188.834 550.292 189.009 549.7 189.009 549V548.1H185.084C184.268 548.1 183.626 548.267 183.159 548.6C182.693 548.917 182.459 549.425 182.459 550.125C182.459 550.742 182.676 551.25 183.109 551.65C183.559 552.05 184.259 552.25 185.209 552.25ZM199.095 554.125C198.179 554.125 197.429 553.983 196.845 553.7C196.279 553.4 195.862 552.942 195.595 552.325C195.345 551.692 195.22 550.875 195.22 549.875V536.5H197.42V549.875C197.42 550.742 197.562 551.333 197.845 551.65C198.129 551.967 198.629 552.125 199.345 552.125C199.529 552.125 199.687 552.125 199.82 552.125C199.954 552.108 200.087 552.092 200.22 552.075V554.025C200.137 554.042 200.02 554.058 199.87 554.075C199.737 554.092 199.595 554.1 199.445 554.1C199.312 554.117 199.195 554.125 199.095 554.125ZM203.353 554V540.75H205.553V554H203.353ZM204.453 539C204.02 539 203.661 538.858 203.378 538.575C203.095 538.292 202.953 537.933 202.953 537.5C202.953 537.067 203.095 536.708 203.378 536.425C203.661 536.142 204.02 536 204.453 536C204.886 536 205.245 536.142 205.528 536.425C205.811 536.708 205.953 537.067 205.953 537.5C205.953 537.933 205.811 538.292 205.528 538.575C205.245 538.858 204.886 539 204.453 539ZM208.792 554V552.175L216.642 542.7H209.042V540.75H219.292V542.575L211.442 552.05H219.542V554H208.792ZM228.037 554.25C226.92 554.25 225.87 554.008 224.887 553.525C223.92 553.042 223.137 552.3 222.537 551.3C221.953 550.3 221.662 549.033 221.662 547.5V547C221.662 545.533 221.945 544.325 222.512 543.375C223.078 542.408 223.828 541.692 224.762 541.225C225.695 540.742 226.703 540.5 227.787 540.5C229.737 540.5 231.245 541.033 232.312 542.1C233.378 543.167 233.912 544.675 233.912 546.625V548.025H223.862C223.862 549.058 224.07 549.883 224.487 550.5C224.92 551.117 225.453 551.567 226.087 551.85C226.737 552.117 227.387 552.25 228.037 552.25C229.037 552.25 229.803 552.083 230.337 551.75C230.887 551.417 231.278 550.958 231.512 550.375H233.662C233.395 551.642 232.737 552.608 231.687 553.275C230.653 553.925 229.437 554.25 228.037 554.25ZM227.912 542.5C227.228 542.5 226.578 542.633 225.962 542.9C225.345 543.15 224.837 543.55 224.437 544.1C224.053 544.65 223.862 545.358 223.862 546.225H231.837C231.82 545.308 231.628 544.583 231.262 544.05C230.912 543.5 230.445 543.108 229.862 542.875C229.278 542.625 228.628 542.5 227.912 542.5ZM241.664 554.25C240.58 554.25 239.622 554 238.789 553.5C237.955 553 237.305 552.25 236.839 551.25C236.389 550.25 236.164 549 236.164 547.5V547C236.164 545.6 236.397 544.417 236.864 543.45C237.347 542.483 237.997 541.75 238.814 541.25C239.647 540.75 240.597 540.5 241.664 540.5C242.73 540.5 243.655 540.733 244.439 541.2C245.239 541.667 245.83 542.308 246.214 543.125V536.5H248.414V554H246.364V551.5C246.03 552.317 245.447 552.983 244.614 553.5C243.78 554 242.797 554.25 241.664 554.25ZM242.164 552.3C242.964 552.3 243.664 552.133 244.264 551.8C244.88 551.45 245.355 550.975 245.689 550.375C246.039 549.758 246.214 549.05 246.214 548.25V546.25C246.214 545.533 246.039 544.892 245.689 544.325C245.355 543.742 244.88 543.283 244.264 542.95C243.664 542.617 242.964 542.45 242.164 542.45C241.097 542.45 240.197 542.85 239.464 543.65C238.73 544.433 238.364 545.55 238.364 547V547.5C238.364 549.067 238.73 550.258 239.464 551.075C240.197 551.892 241.097 552.3 242.164 552.3ZM87.7046 584.25C86.5879 584.25 85.5379 584.008 84.5546 583.525C83.5879 583.042 82.8046 582.3 82.2046 581.3C81.6213 580.3 81.3296 579.033 81.3296 577.5V577C81.3296 575.533 81.6129 574.325 82.1796 573.375C82.7463 572.408 83.4963 571.692 84.4296 571.225C85.3629 570.742 86.3713 570.5 87.4546 570.5C89.4046 570.5 90.9129 571.033 91.9796 572.1C93.0463 573.167 93.5796 574.675 93.5796 576.625V578.025H83.5296C83.5296 579.058 83.7379 579.883 84.1546 580.5C84.5879 581.117 85.1213 581.567 85.7546 581.85C86.4046 582.117 87.0546 582.25 87.7046 582.25C88.7046 582.25 89.4713 582.083 90.0046 581.75C90.5546 581.417 90.9463 580.958 91.1796 580.375H93.3296C93.0629 581.642 92.4046 582.608 91.3546 583.275C90.3213 583.925 89.1046 584.25 87.7046 584.25ZM87.5796 572.5C86.8963 572.5 86.2463 572.633 85.6296 572.9C85.0129 573.15 84.5046 573.55 84.1046 574.1C83.7213 574.65 83.5296 575.358 83.5296 576.225H91.5046C91.4879 575.308 91.2963 574.583 90.9296 574.05C90.5796 573.5 90.1129 573.108 89.5296 572.875C88.9463 572.625 88.2963 572.5 87.5796 572.5ZM96.9565 584V570.75H99.1565V584H96.9565ZM98.0565 569C97.6232 569 97.2649 568.858 96.9815 568.575C96.6982 568.292 96.5565 567.933 96.5565 567.5C96.5565 567.067 96.6982 566.708 96.9815 566.425C97.2649 566.142 97.6232 566 98.0565 566C98.4899 566 98.8482 566.142 99.1315 566.425C99.4149 566.708 99.5565 567.067 99.5565 567.5C99.5565 567.933 99.4149 568.292 99.1315 568.575C98.8482 568.858 98.4899 569 98.0565 569ZM108.646 589.25C107.363 589.25 106.321 589.083 105.521 588.75C104.721 588.417 104.129 587.967 103.746 587.4C103.363 586.833 103.121 586.2 103.021 585.5H105.321C105.488 586.033 105.804 586.458 106.271 586.775C106.738 587.092 107.529 587.25 108.646 587.25C109.996 587.25 110.988 586.925 111.621 586.275C112.254 585.625 112.571 584.7 112.571 583.5V581.375C112.188 582.258 111.596 582.917 110.796 583.35C110.013 583.783 109.088 584 108.021 584C106.938 584 105.979 583.75 105.146 583.25C104.313 582.75 103.663 582.008 103.196 581.025C102.746 580.042 102.521 578.825 102.521 577.375V576.875C102.521 575.508 102.754 574.358 103.221 573.425C103.704 572.475 104.354 571.75 105.171 571.25C106.004 570.75 106.954 570.5 108.021 570.5C109.154 570.5 110.138 570.758 110.971 571.275C111.804 571.775 112.388 572.433 112.721 573.25V570.75H114.771V583.5C114.771 585.3 114.246 586.708 113.196 587.725C112.146 588.742 110.629 589.25 108.646 589.25ZM108.521 582.05C109.321 582.05 110.021 581.883 110.621 581.55C111.238 581.217 111.713 580.758 112.046 580.175C112.396 579.575 112.571 578.892 112.571 578.125V576.125C112.571 575.442 112.396 574.825 112.046 574.275C111.713 573.725 111.238 573.283 110.621 572.95C110.021 572.617 109.321 572.45 108.521 572.45C107.454 572.45 106.554 572.842 105.821 573.625C105.088 574.408 104.721 575.492 104.721 576.875V577.375C104.721 578.892 105.088 580.05 105.821 580.85C106.554 581.65 107.454 582.05 108.521 582.05ZM124.277 584.25C123.16 584.25 122.11 584.008 121.127 583.525C120.16 583.042 119.377 582.3 118.777 581.3C118.194 580.3 117.902 579.033 117.902 577.5V577C117.902 575.533 118.185 574.325 118.752 573.375C119.319 572.408 120.069 571.692 121.002 571.225C121.935 570.742 122.944 570.5 124.027 570.5C125.977 570.5 127.485 571.033 128.552 572.1C129.619 573.167 130.152 574.675 130.152 576.625V578.025H120.102C120.102 579.058 120.31 579.883 120.727 580.5C121.16 581.117 121.694 581.567 122.327 581.85C122.977 582.117 123.627 582.25 124.277 582.25C125.277 582.25 126.044 582.083 126.577 581.75C127.127 581.417 127.519 580.958 127.752 580.375H129.902C129.635 581.642 128.977 582.608 127.927 583.275C126.894 583.925 125.677 584.25 124.277 584.25ZM124.152 572.5C123.469 572.5 122.819 572.633 122.202 572.9C121.585 573.15 121.077 573.55 120.677 574.1C120.294 574.65 120.102 575.358 120.102 576.225H128.077C128.06 575.308 127.869 574.583 127.502 574.05C127.152 573.5 126.685 573.108 126.102 572.875C125.519 572.625 124.869 572.5 124.152 572.5ZM133.279 584V570.75H135.329V573.25C135.629 572.517 136.154 571.875 136.904 571.325C137.67 570.775 138.654 570.5 139.854 570.5C141.52 570.5 142.754 570.95 143.554 571.85C144.37 572.733 144.779 574.033 144.779 575.75V584H142.579V576.25C142.579 575.017 142.32 574.083 141.804 573.45C141.287 572.817 140.42 572.5 139.204 572.5C138.337 572.5 137.629 572.683 137.079 573.05C136.529 573.417 136.12 573.883 135.854 574.45C135.604 575.017 135.479 575.617 135.479 576.25V584H133.279ZM152.171 584L146.671 570.75H149.121L153.421 581.75L157.321 570.75H159.671L154.671 584H152.171ZM167.172 584.25C166.056 584.25 165.006 584.008 164.022 583.525C163.056 583.042 162.272 582.3 161.672 581.3C161.089 580.3 160.797 579.033 160.797 577.5V577C160.797 575.533 161.081 574.325 161.647 573.375C162.214 572.408 162.964 571.692 163.897 571.225C164.831 570.742 165.839 570.5 166.922 570.5C168.872 570.5 170.381 571.033 171.447 572.1C172.514 573.167 173.047 574.675 173.047 576.625V578.025H162.997C162.997 579.058 163.206 579.883 163.622 580.5C164.056 581.117 164.589 581.567 165.222 581.85C165.872 582.117 166.522 582.25 167.172 582.25C168.172 582.25 168.939 582.083 169.472 581.75C170.022 581.417 170.414 580.958 170.647 580.375H172.797C172.531 581.642 171.872 582.608 170.822 583.275C169.789 583.925 168.572 584.25 167.172 584.25ZM167.047 572.5C166.364 572.5 165.714 572.633 165.097 572.9C164.481 573.15 163.972 573.55 163.572 574.1C163.189 574.65 162.997 575.358 162.997 576.225H170.972C170.956 575.308 170.764 574.583 170.397 574.05C170.047 573.5 169.581 573.108 168.997 572.875C168.414 572.625 167.764 572.5 167.047 572.5ZM181.299 584.25C180.166 584.25 179.141 584.008 178.224 583.525C177.324 583.025 176.608 582.275 176.074 581.275C175.558 580.275 175.299 579.017 175.299 577.5V577C175.299 575.567 175.583 574.367 176.149 573.4C176.716 572.433 177.458 571.708 178.374 571.225C179.291 570.742 180.266 570.5 181.299 570.5C182.349 570.5 183.249 570.692 183.999 571.075C184.766 571.442 185.383 571.95 185.849 572.6C186.316 573.233 186.633 573.95 186.799 574.75H184.549C184.283 574.117 183.908 573.583 183.424 573.15C182.958 572.717 182.249 572.5 181.299 572.5C180.649 572.5 180.041 572.658 179.474 572.975C178.908 573.275 178.441 573.758 178.074 574.425C177.724 575.075 177.549 575.933 177.549 577V577.5C177.549 578.633 177.724 579.55 178.074 580.25C178.441 580.95 178.908 581.458 179.474 581.775C180.041 582.092 180.649 582.25 181.299 582.25C182.116 582.25 182.799 582.05 183.349 581.65C183.916 581.25 184.316 580.7 184.549 580H186.799C186.599 580.867 186.241 581.625 185.724 582.275C185.208 582.908 184.574 583.4 183.824 583.75C183.074 584.083 182.233 584.25 181.299 584.25ZM194.672 584.125C193.739 584.125 192.972 583.983 192.372 583.7C191.789 583.417 191.356 582.992 191.072 582.425C190.806 581.842 190.672 581.117 190.672 580.25V572.7H188.672V570.75H190.672V567.75H192.872V570.75H196.422V572.7H192.872V580C192.872 580.75 193.031 581.292 193.347 581.625C193.664 581.958 194.272 582.125 195.172 582.125C195.672 582.125 196.172 582.1 196.672 582.05V584C196.356 584.033 196.039 584.058 195.722 584.075C195.406 584.108 195.056 584.125 194.672 584.125ZM205.307 584.25C204.19 584.25 203.14 584.008 202.157 583.525C201.19 583.025 200.407 582.275 199.807 581.275C199.224 580.275 198.932 579.017 198.932 577.5V577C198.932 575.567 199.224 574.367 199.807 573.4C200.407 572.433 201.19 571.708 202.157 571.225C203.14 570.742 204.19 570.5 205.307 570.5C206.44 570.5 207.49 570.742 208.457 571.225C209.424 571.708 210.199 572.433 210.782 573.4C211.382 574.367 211.682 575.567 211.682 577V577.5C211.682 579.017 211.382 580.275 210.782 581.275C210.199 582.275 209.424 583.025 208.457 583.525C207.49 584.008 206.44 584.25 205.307 584.25ZM205.307 582.25C205.99 582.25 206.64 582.1 207.257 581.8C207.89 581.483 208.407 580.975 208.807 580.275C209.224 579.575 209.432 578.65 209.432 577.5V577C209.432 575.933 209.224 575.075 208.807 574.425C208.407 573.758 207.89 573.275 207.257 572.975C206.64 572.658 205.99 572.5 205.307 572.5C204.64 572.5 203.99 572.658 203.357 572.975C202.724 573.275 202.199 573.758 201.782 574.425C201.382 575.075 201.182 575.933 201.182 577V577.5C201.182 578.65 201.382 579.575 201.782 580.275C202.199 580.975 202.724 581.483 203.357 581.8C203.99 582.1 204.64 582.25 205.307 582.25ZM214.797 584V570.75H216.847V573.25C217.047 572.717 217.322 572.25 217.672 571.85C218.022 571.433 218.447 571.108 218.947 570.875C219.464 570.625 220.039 570.5 220.672 570.5C221.006 570.5 221.272 570.517 221.472 570.55C221.689 570.583 221.881 570.625 222.047 570.675V572.725C221.831 572.642 221.614 572.583 221.397 572.55C221.197 572.517 220.914 572.5 220.547 572.5C219.881 572.5 219.281 572.658 218.747 572.975C218.214 573.292 217.789 573.733 217.472 574.3C217.156 574.85 216.997 575.5 216.997 576.25V584H214.797ZM229.164 584.25C228.28 584.25 227.514 584.15 226.864 583.95C226.214 583.733 225.672 583.45 225.239 583.1C224.805 582.75 224.455 582.342 224.189 581.875C223.939 581.392 223.764 580.892 223.664 580.375H225.864C225.98 580.908 226.289 581.375 226.789 581.775C227.305 582.158 228.097 582.35 229.164 582.35C230.397 582.35 231.255 582.158 231.739 581.775C232.222 581.375 232.464 580.908 232.464 580.375C232.464 580.008 232.355 579.692 232.139 579.425C231.939 579.142 231.572 578.9 231.039 578.7C230.522 578.5 229.78 578.333 228.814 578.2C228.08 578.1 227.422 577.958 226.839 577.775C226.255 577.575 225.755 577.317 225.339 577C224.922 576.683 224.597 576.3 224.364 575.85C224.147 575.4 224.039 574.867 224.039 574.25C224.039 573.583 224.23 572.967 224.614 572.4C224.997 571.833 225.572 571.375 226.339 571.025C227.105 570.675 228.047 570.5 229.164 570.5C230.214 570.5 231.08 570.683 231.764 571.05C232.464 571.4 233.005 571.867 233.389 572.45C233.772 573.033 234.03 573.675 234.164 574.375H231.964C231.83 573.792 231.547 573.317 231.114 572.95C230.68 572.583 230.03 572.4 229.164 572.4C228.08 572.4 227.322 572.583 226.889 572.95C226.455 573.3 226.239 573.733 226.239 574.25C226.239 574.85 226.472 575.3 226.939 575.6C227.422 575.9 228.297 576.133 229.564 576.3C230.38 576.4 231.105 576.55 231.739 576.75C232.372 576.933 232.905 577.192 233.339 577.525C233.772 577.842 234.097 578.233 234.314 578.7C234.547 579.167 234.664 579.725 234.664 580.375C234.664 581.075 234.464 581.717 234.064 582.3C233.664 582.883 233.055 583.358 232.239 583.725C231.439 584.075 230.414 584.25 229.164 584.25Z" fill="#DEFF23"/>
<path d="M913.509 133.25C912.376 133.25 911.351 133.008 910.434 132.525C909.534 132.025 908.818 131.275 908.284 130.275C907.768 129.275 907.509 128.017 907.509 126.5V126C907.509 124.567 907.793 123.367 908.359 122.4C908.926 121.433 909.668 120.708 910.584 120.225C911.501 119.742 912.476 119.5 913.509 119.5C914.559 119.5 915.459 119.692 916.209 120.075C916.976 120.442 917.593 120.95 918.059 121.6C918.526 122.233 918.843 122.95 919.009 123.75H916.759C916.493 123.117 916.118 122.583 915.634 122.15C915.168 121.717 914.459 121.5 913.509 121.5C912.859 121.5 912.251 121.658 911.684 121.975C911.118 122.275 910.651 122.758 910.284 123.425C909.934 124.075 909.759 124.933 909.759 126V126.5C909.759 127.633 909.934 128.55 910.284 129.25C910.651 129.95 911.118 130.458 911.684 130.775C912.251 131.092 912.859 131.25 913.509 131.25C914.326 131.25 915.009 131.05 915.559 130.65C916.126 130.25 916.526 129.7 916.759 129H919.009C918.809 129.867 918.451 130.625 917.934 131.275C917.418 131.908 916.784 132.4 916.034 132.75C915.284 133.083 914.443 133.25 913.509 133.25ZM926.682 133.25C925.082 133.25 923.882 132.792 923.082 131.875C922.282 130.958 921.882 129.542 921.882 127.625V119.75H924.082V127.5C924.082 128.733 924.332 129.667 924.832 130.3C925.349 130.933 926.182 131.25 927.332 131.25C928.166 131.25 928.849 131.067 929.382 130.7C929.916 130.333 930.307 129.867 930.557 129.3C930.807 128.717 930.932 128.117 930.932 127.5V119.75H933.132V133H931.082V130.5C930.782 131.233 930.257 131.875 929.507 132.425C928.757 132.975 927.816 133.25 926.682 133.25ZM941.769 133.25C940.886 133.25 940.119 133.15 939.469 132.95C938.819 132.733 938.277 132.45 937.844 132.1C937.411 131.75 937.061 131.342 936.794 130.875C936.544 130.392 936.369 129.892 936.269 129.375H938.469C938.586 129.908 938.894 130.375 939.394 130.775C939.911 131.158 940.702 131.35 941.769 131.35C943.002 131.35 943.861 131.158 944.344 130.775C944.827 130.375 945.069 129.908 945.069 129.375C945.069 129.008 944.961 128.692 944.744 128.425C944.544 128.142 944.177 127.9 943.644 127.7C943.127 127.5 942.386 127.333 941.419 127.2C940.686 127.1 940.027 126.958 939.444 126.775C938.861 126.575 938.361 126.317 937.944 126C937.527 125.683 937.202 125.3 936.969 124.85C936.752 124.4 936.644 123.867 936.644 123.25C936.644 122.583 936.836 121.967 937.219 121.4C937.602 120.833 938.177 120.375 938.944 120.025C939.711 119.675 940.652 119.5 941.769 119.5C942.819 119.5 943.686 119.683 944.369 120.05C945.069 120.4 945.611 120.867 945.994 121.45C946.377 122.033 946.636 122.675 946.769 123.375H944.569C944.436 122.792 944.152 122.317 943.719 121.95C943.286 121.583 942.636 121.4 941.769 121.4C940.686 121.4 939.927 121.583 939.494 121.95C939.061 122.3 938.844 122.733 938.844 123.25C938.844 123.85 939.077 124.3 939.544 124.6C940.027 124.9 940.902 125.133 942.169 125.3C942.986 125.4 943.711 125.55 944.344 125.75C944.977 125.933 945.511 126.192 945.944 126.525C946.377 126.842 946.702 127.233 946.919 127.7C947.152 128.167 947.269 128.725 947.269 129.375C947.269 130.075 947.069 130.717 946.669 131.3C946.269 131.883 945.661 132.358 944.844 132.725C944.044 133.075 943.019 133.25 941.769 133.25ZM955.276 133.125C954.343 133.125 953.576 132.983 952.976 132.7C952.393 132.417 951.959 131.992 951.676 131.425C951.409 130.842 951.276 130.117 951.276 129.25V121.7H949.276V119.75H951.276V116.75H953.476V119.75H957.026V121.7H953.476V129C953.476 129.75 953.634 130.292 953.951 130.625C954.268 130.958 954.876 131.125 955.776 131.125C956.276 131.125 956.776 131.1 957.276 131.05V133C956.959 133.033 956.643 133.058 956.326 133.075C956.009 133.108 955.659 133.125 955.276 133.125ZM965.911 133.25C964.794 133.25 963.744 133.008 962.761 132.525C961.794 132.025 961.011 131.275 960.411 130.275C959.827 129.275 959.536 128.017 959.536 126.5V126C959.536 124.567 959.827 123.367 960.411 122.4C961.011 121.433 961.794 120.708 962.761 120.225C963.744 119.742 964.794 119.5 965.911 119.5C967.044 119.5 968.094 119.742 969.061 120.225C970.027 120.708 970.802 121.433 971.386 122.4C971.986 123.367 972.286 124.567 972.286 126V126.5C972.286 128.017 971.986 129.275 971.386 130.275C970.802 131.275 970.027 132.025 969.061 132.525C968.094 133.008 967.044 133.25 965.911 133.25ZM965.911 131.25C966.594 131.25 967.244 131.1 967.861 130.8C968.494 130.483 969.011 129.975 969.411 129.275C969.827 128.575 970.036 127.65 970.036 126.5V126C970.036 124.933 969.827 124.075 969.411 123.425C969.011 122.758 968.494 122.275 967.861 121.975C967.244 121.658 966.594 121.5 965.911 121.5C965.244 121.5 964.594 121.658 963.961 121.975C963.327 122.275 962.802 122.758 962.386 123.425C961.986 124.075 961.786 124.933 961.786 126V126.5C961.786 127.65 961.986 128.575 962.386 129.275C962.802 129.975 963.327 130.483 963.961 130.8C964.594 131.1 965.244 131.25 965.911 131.25ZM975.401 133V119.75H977.451V122.25C977.734 121.433 978.218 120.775 978.901 120.275C979.601 119.758 980.393 119.5 981.276 119.5C982.426 119.5 983.309 119.75 983.926 120.25C984.543 120.733 984.968 121.358 985.201 122.125C985.634 121.308 986.184 120.667 986.851 120.2C987.534 119.733 988.351 119.5 989.301 119.5C990.668 119.5 991.734 119.917 992.501 120.75C993.268 121.567 993.651 122.858 993.651 124.625V133H991.451V125.125C991.451 123.808 991.218 122.875 990.751 122.325C990.301 121.775 989.609 121.5 988.676 121.5C988.143 121.5 987.643 121.65 987.176 121.95C986.709 122.233 986.334 122.65 986.051 123.2C985.768 123.733 985.626 124.375 985.626 125.125V133H983.426V125.125C983.426 123.808 983.193 122.875 982.726 122.325C982.259 121.775 981.568 121.5 980.651 121.5C980.118 121.5 979.618 121.65 979.151 121.95C978.684 122.233 978.309 122.65 978.026 123.2C977.743 123.733 977.601 124.375 977.601 125.125V133H975.401ZM997.77 133V119.75H999.97V133H997.77ZM998.87 118C998.437 118 998.078 117.858 997.795 117.575C997.512 117.292 997.37 116.933 997.37 116.5C997.37 116.067 997.512 115.708 997.795 115.425C998.078 115.142 998.437 115 998.87 115C999.303 115 999.662 115.142 999.945 115.425C1000.23 115.708 1000.37 116.067 1000.37 116.5C1000.37 116.933 1000.23 117.292 999.945 117.575C999.662 117.858 999.303 118 998.87 118ZM1003.21 133V131.175L1011.06 121.7H1003.46V119.75H1013.71V121.575L1005.86 131.05H1013.96V133H1003.21ZM1022.45 133.25C1021.34 133.25 1020.29 133.008 1019.3 132.525C1018.34 132.042 1017.55 131.3 1016.95 130.3C1016.37 129.3 1016.08 128.033 1016.08 126.5V126C1016.08 124.533 1016.36 123.325 1016.93 122.375C1017.5 121.408 1018.25 120.692 1019.18 120.225C1020.11 119.742 1021.12 119.5 1022.2 119.5C1024.15 119.5 1025.66 120.033 1026.73 121.1C1027.8 122.167 1028.33 123.675 1028.33 125.625V127.025H1018.28C1018.28 128.058 1018.49 128.883 1018.9 129.5C1019.34 130.117 1019.87 130.567 1020.5 130.85C1021.15 131.117 1021.8 131.25 1022.45 131.25C1023.45 131.25 1024.22 131.083 1024.75 130.75C1025.3 130.417 1025.7 129.958 1025.93 129.375H1028.08C1027.81 130.642 1027.15 131.608 1026.1 132.275C1025.07 132.925 1023.85 133.25 1022.45 133.25ZM1022.33 121.5C1021.65 121.5 1021 121.633 1020.38 121.9C1019.76 122.15 1019.25 122.55 1018.85 123.1C1018.47 123.65 1018.28 124.358 1018.28 125.225H1026.25C1026.24 124.308 1026.05 123.583 1025.68 123.05C1025.33 122.5 1024.86 122.108 1024.28 121.875C1023.7 121.625 1023.05 121.5 1022.33 121.5ZM1040.08 133L1036.46 119.75H1038.86L1041.41 130L1044.86 119.75H1046.81L1050.38 130L1052.91 119.75H1055.21L1051.58 133H1049.38L1045.78 122.75L1042.28 133H1040.08ZM1057.94 133V115.5H1060.14V122.125C1060.38 121.658 1060.69 121.225 1061.09 120.825C1061.49 120.425 1061.98 120.108 1062.54 119.875C1063.13 119.625 1063.79 119.5 1064.52 119.5C1066.19 119.5 1067.42 119.95 1068.22 120.85C1069.04 121.733 1069.44 123.033 1069.44 124.75V133H1067.24V125.25C1067.24 124.017 1066.99 123.083 1066.47 122.45C1065.95 121.817 1065.09 121.5 1063.87 121.5C1063 121.5 1062.29 121.683 1061.74 122.05C1061.19 122.417 1060.79 122.883 1060.52 123.45C1060.27 124.017 1060.14 124.617 1060.14 125.25V133H1057.94ZM1077.1 133.25C1076.13 133.25 1075.31 133.075 1074.63 132.725C1073.96 132.358 1073.45 131.867 1073.1 131.25C1072.75 130.617 1072.58 129.908 1072.58 129.125C1072.58 127.808 1072.96 126.858 1073.73 126.275C1074.51 125.692 1075.63 125.4 1077.08 125.4H1081.38V124.5C1081.38 123.367 1081.12 122.583 1080.6 122.15C1080.1 121.717 1079.34 121.5 1078.33 121.5C1077.38 121.5 1076.68 121.683 1076.25 122.05C1075.82 122.4 1075.58 122.8 1075.53 123.25H1073.33C1073.38 122.533 1073.62 121.9 1074.05 121.35C1074.48 120.783 1075.08 120.333 1075.83 120C1076.58 119.667 1077.45 119.5 1078.45 119.5C1079.5 119.5 1080.41 119.667 1081.18 120C1081.94 120.317 1082.53 120.825 1082.95 121.525C1083.37 122.208 1083.58 123.117 1083.58 124.25V129.625C1083.58 130.325 1083.58 130.942 1083.58 131.475C1083.59 131.992 1083.63 132.5 1083.7 133H1081.78C1081.73 132.617 1081.69 132.258 1081.68 131.925C1081.66 131.575 1081.65 131.183 1081.65 130.75C1081.3 131.45 1080.73 132.042 1079.95 132.525C1079.17 133.008 1078.22 133.25 1077.1 133.25ZM1077.58 131.25C1078.28 131.25 1078.91 131.125 1079.48 130.875C1080.06 130.625 1080.52 130.258 1080.85 129.775C1081.2 129.292 1081.38 128.7 1081.38 128V127.1H1077.45C1076.63 127.1 1075.99 127.267 1075.53 127.6C1075.06 127.917 1074.83 128.425 1074.83 129.125C1074.83 129.742 1075.04 130.25 1075.48 130.65C1075.93 131.05 1076.63 131.25 1077.58 131.25ZM1092.09 133.125C1091.16 133.125 1090.39 132.983 1089.79 132.7C1089.21 132.417 1088.78 131.992 1088.49 131.425C1088.23 130.842 1088.09 130.117 1088.09 129.25V121.7H1086.09V119.75H1088.09V116.75H1090.29V119.75H1093.84V121.7H1090.29V129C1090.29 129.75 1090.45 130.292 1090.77 130.625C1091.08 130.958 1091.69 131.125 1092.59 131.125C1093.09 131.125 1093.59 131.1 1094.09 131.05V133C1093.78 133.033 1093.46 133.058 1093.14 133.075C1092.83 133.108 1092.48 133.125 1092.09 133.125ZM1105.23 138.25C1104.98 138.25 1104.73 138.225 1104.48 138.175V136.175C1104.73 136.225 1104.98 136.25 1105.23 136.25C1105.56 136.25 1105.84 136.167 1106.05 136C1106.29 135.85 1106.52 135.542 1106.75 135.075C1106.99 134.608 1107.27 133.917 1107.6 133L1101.98 119.75H1104.43L1108.73 130.5L1112.63 119.75H1114.98L1109.98 133C1109.51 134.25 1109.06 135.258 1108.63 136.025C1108.21 136.792 1107.74 137.35 1107.2 137.7C1106.69 138.067 1106.03 138.25 1105.23 138.25ZM1122.48 133.25C1121.36 133.25 1120.31 133.008 1119.33 132.525C1118.36 132.025 1117.58 131.275 1116.98 130.275C1116.39 129.275 1116.1 128.017 1116.1 126.5V126C1116.1 124.567 1116.39 123.367 1116.98 122.4C1117.58 121.433 1118.36 120.708 1119.33 120.225C1120.31 119.742 1121.36 119.5 1122.48 119.5C1123.61 119.5 1124.66 119.742 1125.63 120.225C1126.59 120.708 1127.37 121.433 1127.95 122.4C1128.55 123.367 1128.85 124.567 1128.85 126V126.5C1128.85 128.017 1128.55 129.275 1127.95 130.275C1127.37 131.275 1126.59 132.025 1125.63 132.525C1124.66 133.008 1123.61 133.25 1122.48 133.25ZM1122.48 131.25C1123.16 131.25 1123.81 131.1 1124.43 130.8C1125.06 130.483 1125.58 129.975 1125.98 129.275C1126.39 128.575 1126.6 127.65 1126.6 126.5V126C1126.6 124.933 1126.39 124.075 1125.98 123.425C1125.58 122.758 1125.06 122.275 1124.43 121.975C1123.81 121.658 1123.16 121.5 1122.48 121.5C1121.81 121.5 1121.16 121.658 1120.53 121.975C1119.89 122.275 1119.37 122.758 1118.95 123.425C1118.55 124.075 1118.35 124.933 1118.35 126V126.5C1118.35 127.65 1118.55 128.575 1118.95 129.275C1119.37 129.975 1119.89 130.483 1120.53 130.8C1121.16 131.1 1121.81 131.25 1122.48 131.25ZM1136.64 133.25C1135.04 133.25 1133.84 132.792 1133.04 131.875C1132.24 130.958 1131.84 129.542 1131.84 127.625V119.75H1134.04V127.5C1134.04 128.733 1134.29 129.667 1134.79 130.3C1135.31 130.933 1136.14 131.25 1137.29 131.25C1138.13 131.25 1138.81 131.067 1139.34 130.7C1139.88 130.333 1140.27 129.867 1140.52 129.3C1140.77 128.717 1140.89 128.117 1140.89 127.5V119.75H1143.09V133H1141.04V130.5C1140.74 131.233 1140.22 131.875 1139.47 132.425C1138.72 132.975 1137.78 133.25 1136.64 133.25ZM1157.98 133.25C1157.1 133.25 1156.33 133.15 1155.68 132.95C1155.03 132.733 1154.49 132.45 1154.05 132.1C1153.62 131.75 1153.27 131.342 1153 130.875C1152.75 130.392 1152.58 129.892 1152.48 129.375H1154.68C1154.8 129.908 1155.1 130.375 1155.6 130.775C1156.12 131.158 1156.91 131.35 1157.98 131.35C1159.21 131.35 1160.07 131.158 1160.55 130.775C1161.04 130.375 1161.28 129.908 1161.28 129.375C1161.28 129.008 1161.17 128.692 1160.95 128.425C1160.75 128.142 1160.39 127.9 1159.85 127.7C1159.34 127.5 1158.6 127.333 1157.63 127.2C1156.9 127.1 1156.24 126.958 1155.65 126.775C1155.07 126.575 1154.57 126.317 1154.15 126C1153.74 125.683 1153.41 125.3 1153.18 124.85C1152.96 124.4 1152.85 123.867 1152.85 123.25C1152.85 122.583 1153.05 121.967 1153.43 121.4C1153.81 120.833 1154.39 120.375 1155.15 120.025C1155.92 119.675 1156.86 119.5 1157.98 119.5C1159.03 119.5 1159.9 119.683 1160.58 120.05C1161.28 120.4 1161.82 120.867 1162.2 121.45C1162.59 122.033 1162.85 122.675 1162.98 123.375H1160.78C1160.65 122.792 1160.36 122.317 1159.93 121.95C1159.5 121.583 1158.85 121.4 1157.98 121.4C1156.9 121.4 1156.14 121.583 1155.7 121.95C1155.27 122.3 1155.05 122.733 1155.05 123.25C1155.05 123.85 1155.29 124.3 1155.75 124.6C1156.24 124.9 1157.11 125.133 1158.38 125.3C1159.2 125.4 1159.92 125.55 1160.55 125.75C1161.19 125.933 1161.72 126.192 1162.15 126.525C1162.59 126.842 1162.91 127.233 1163.13 127.7C1163.36 128.167 1163.48 128.725 1163.48 129.375C1163.48 130.075 1163.28 130.717 1162.88 131.3C1162.48 131.883 1161.87 132.358 1161.05 132.725C1160.25 133.075 1159.23 133.25 1157.98 133.25ZM1172.11 133.25C1171 133.25 1169.95 133.008 1168.96 132.525C1168 132.042 1167.21 131.3 1166.61 130.3C1166.03 129.3 1165.74 128.033 1165.74 126.5V126C1165.74 124.533 1166.02 123.325 1166.59 122.375C1167.15 121.408 1167.9 120.692 1168.84 120.225C1169.77 119.742 1170.78 119.5 1171.86 119.5C1173.81 119.5 1175.32 120.033 1176.39 121.1C1177.45 122.167 1177.99 123.675 1177.99 125.625V127.025H1167.94C1167.94 128.058 1168.15 128.883 1168.56 129.5C1169 130.117 1169.53 130.567 1170.16 130.85C1170.81 131.117 1171.46 131.25 1172.11 131.25C1173.11 131.25 1173.88 131.083 1174.41 130.75C1174.96 130.417 1175.35 129.958 1175.59 129.375H1177.74C1177.47 130.642 1176.81 131.608 1175.76 132.275C1174.73 132.925 1173.51 133.25 1172.11 133.25ZM1171.99 121.5C1171.3 121.5 1170.65 121.633 1170.04 121.9C1169.42 122.15 1168.91 122.55 1168.51 123.1C1168.13 123.65 1167.94 124.358 1167.94 125.225H1175.91C1175.9 124.308 1175.7 123.583 1175.34 123.05C1174.99 122.5 1174.52 122.108 1173.94 121.875C1173.35 121.625 1172.7 121.5 1171.99 121.5ZM1186.61 133.25C1185.5 133.25 1184.45 133.008 1183.46 132.525C1182.5 132.042 1181.71 131.3 1181.11 130.3C1180.53 129.3 1180.24 128.033 1180.24 126.5V126C1180.24 124.533 1180.52 123.325 1181.09 122.375C1181.66 121.408 1182.41 120.692 1183.34 120.225C1184.27 119.742 1185.28 119.5 1186.36 119.5C1188.31 119.5 1189.82 120.033 1190.89 121.1C1191.96 122.167 1192.49 123.675 1192.49 125.625V127.025H1182.44C1182.44 128.058 1182.65 128.883 1183.06 129.5C1183.5 130.117 1184.03 130.567 1184.66 130.85C1185.31 131.117 1185.96 131.25 1186.61 131.25C1187.61 131.25 1188.38 131.083 1188.91 130.75C1189.46 130.417 1189.86 129.958 1190.09 129.375H1192.24C1191.97 130.642 1191.31 131.608 1190.26 132.275C1189.23 132.925 1188.01 133.25 1186.61 133.25ZM1186.49 121.5C1185.81 121.5 1185.16 121.633 1184.54 121.9C1183.92 122.15 1183.41 122.55 1183.01 123.1C1182.63 123.65 1182.44 124.358 1182.44 125.225H1190.41C1190.4 124.308 1190.21 123.583 1189.84 123.05C1189.49 122.5 1189.02 122.108 1188.44 121.875C1187.86 121.625 1187.21 121.5 1186.49 121.5Z" fill="#DEFF23"/>
<path d="M294.02 544.5C292.916 544.489 292.011 545.375 292 546.48C291.989 547.584 292.875 548.489 293.98 548.5L294.02 544.5ZM432.278 590.981C433.372 590.827 434.134 589.816 433.981 588.722L431.479 570.897C431.325 569.803 430.314 569.041 429.22 569.194C428.126 569.348 427.364 570.359 427.518 571.453L429.741 587.297L413.897 589.521C412.803 589.675 412.041 590.686 412.194 591.78C412.348 592.874 413.359 593.636 414.453 593.482L432.278 590.981ZM294 546.5L293.98 548.5C343.134 548.996 398.698 566.4 430.796 590.597L432 589L433.204 587.403C400.302 562.6 343.866 545.004 294.02 544.5L294 546.5Z" fill="#DEFF23"/>
<path d="M300.075 441.584C299.017 441.267 297.902 441.867 297.584 442.925C297.267 443.983 297.867 445.098 298.925 445.416L300.075 441.584ZM492.337 438.791C492.774 437.777 492.306 436.6 491.291 436.163L474.759 429.043C473.744 428.607 472.568 429.075 472.131 430.089C471.694 431.104 472.162 432.28 473.177 432.717L487.872 439.046L481.543 453.741C481.107 454.756 481.575 455.932 482.589 456.369C483.604 456.806 484.78 456.338 485.217 455.323L492.337 438.791ZM299.5 443.5L298.925 445.416C321.705 452.25 357.437 455.751 393.535 455.125C429.621 454.498 466.406 449.741 491.24 439.858L490.5 438L489.76 436.142C465.594 445.759 429.379 450.502 393.465 451.125C357.563 451.749 322.295 448.25 300.075 441.584L299.5 443.5Z" fill="#DEFF23"/>
<path d="M1061.8 153.625C1061.32 152.632 1060.12 152.218 1059.13 152.702C1058.13 153.185 1057.72 154.382 1058.2 155.375L1061.8 153.625ZM1058.1 275.113C1058.43 276.164 1059.56 276.742 1060.61 276.404L1077.75 270.886C1078.8 270.548 1079.38 269.421 1079.04 268.369C1078.7 267.318 1077.57 266.74 1076.52 267.079L1061.29 271.983L1056.39 256.753C1056.05 255.702 1054.92 255.124 1053.87 255.463C1052.82 255.801 1052.24 256.928 1052.58 257.98L1058.1 275.113ZM1060 154.5L1058.2 155.375C1066.99 173.438 1069.5 198.173 1068.5 220.975C1067.51 243.808 1063.03 264.218 1058.22 273.587L1060 274.5L1061.78 275.413C1066.97 265.282 1071.49 244.192 1072.5 221.15C1073.5 198.077 1071.01 172.562 1061.8 153.625L1060 154.5Z" fill="#DEFF23"/>
</svg>
