<svg width="600" height="410" viewBox="0 0 600 410" fill="none" xmlns="http://www.w3.org/2000/svg">
<path d="M158.741 61.4422C158.464 60.282 157.298 59.5664 156.138 59.8438L137.231 64.365C136.071 64.6425 135.355 65.8079 135.633 66.9682C135.91 68.1284 137.075 68.844 138.236 68.5666L155.042 64.5477L159.061 81.3539C159.338 82.5141 160.504 83.2297 161.664 82.9523C162.824 82.6748 163.54 81.5094 163.262 80.3492L158.741 61.4422ZM106.24 144.025L108.081 145.155L158.481 63.0748L156.64 61.9446L154.8 60.8143L104.4 142.894L106.24 144.025Z" fill="#656AFF"/>
<path d="M454.87 271.08L505.27 189" stroke="#656AFF" stroke-width="4.32" stroke-linecap="round" stroke-dasharray="0.72 11.52"/>
<path d="M281.722 207.201C282.221 208.284 281.747 209.567 280.664 210.066L263.007 218.199C261.923 218.698 260.64 218.225 260.141 217.141C259.642 216.058 260.116 214.775 261.2 214.276L276.895 207.046L269.665 191.351C269.166 190.268 269.64 188.985 270.724 188.486C271.807 187.987 273.09 188.46 273.589 189.544L281.722 207.201ZM106.24 144.025L106.989 141.998L280.509 206.078L279.76 208.104L279.012 210.131L105.492 146.051L106.24 144.025Z" fill="#656AFF"/>
<path opacity="0.5" d="M454.872 270.256C455.371 271.34 454.897 272.623 453.814 273.122L436.157 281.255C435.073 281.754 433.79 281.28 433.291 280.197C432.792 279.113 433.266 277.83 434.35 277.331L450.045 270.102L442.815 254.407C442.316 253.323 442.79 252.04 443.874 251.541C444.957 251.042 446.24 251.516 446.739 252.599L454.872 270.256ZM105.87 143L106.618 140.974L453.658 269.134L452.91 271.16L452.162 273.186L105.122 145.026L105.87 143Z" fill="#656AFF"/>
<path d="M156.87 62L505.87 191" stroke="#656AFF" stroke-width="4.32" stroke-linecap="round" stroke-dasharray="0.72 11.52"/>
<path d="M94.3501 144C94.3501 137.638 99.5078 132.48 105.87 132.48C112.232 132.48 117.39 137.638 117.39 144C117.39 150.362 112.232 155.52 105.87 155.52C99.5078 155.52 94.3501 150.362 94.3501 144ZM507.559 187.653C508.303 188.586 508.15 189.945 507.217 190.689L492.02 202.812C491.088 203.556 489.729 203.403 488.985 202.47C488.241 201.538 488.394 200.179 489.326 199.435L502.835 188.659L492.058 175.15C491.314 174.218 491.467 172.859 492.4 172.115C493.332 171.371 494.691 171.524 495.435 172.456L507.559 187.653ZM105.87 144L106.112 141.854L506.112 186.854L505.87 189L505.629 191.146L105.629 146.146L105.87 144Z" fill="#E7EFF9"/>
<path d="M85 90.3356C85 89.9439 85.2099 89.2723 85.6296 88.3209C86.0493 87.3695 86.7209 86.3761 87.6444 85.3407C88.5678 84.3054 89.6031 83.8017 90.7504 83.8297C91.8977 83.8297 92.8211 84.1515 93.5207 84.7951C94.2203 85.4387 94.5841 86.3341 94.612 87.4814C94.5561 88.0131 94.5141 88.3069 94.4861 88.3629C94.4861 88.4468 94.2623 89.0904 93.8145 90.2937C93.3668 91.4969 92.9051 92.8541 92.4294 94.3651C91.9537 95.8762 91.7298 97.0794 91.7578 97.9749C91.7578 99.1781 91.9537 100.018 92.3454 100.493C92.7372 100.969 93.3248 101.221 94.1083 101.249C94.7519 101.249 95.3536 101.095 95.9132 100.787C96.4729 100.479 96.9066 100.158 97.2144 99.8217C97.5222 99.486 97.9 99.0242 98.3477 98.4366C98.3477 98.4086 98.4177 98.1288 98.5576 97.5971C98.6975 97.0655 98.8934 96.24 99.1452 95.1207C99.3971 94.0014 99.6629 92.966 99.9427 92.0146C101.006 87.8172 101.594 85.6206 101.706 85.4247C102.069 84.6691 102.671 84.2914 103.511 84.2914C103.874 84.2914 104.168 84.3893 104.392 84.5852C104.616 84.7811 104.77 84.949 104.854 85.0889C104.938 85.2288 104.966 85.3547 104.938 85.4667C104.938 85.8304 104.252 88.7686 102.881 94.2812C101.51 99.7938 100.726 102.816 100.53 103.348C99.7468 105.67 98.3897 107.517 96.4589 108.888C94.5281 110.259 92.5973 110.959 90.6665 110.987C89.4073 110.987 88.302 110.679 87.3505 110.063C86.3991 109.448 85.9234 108.524 85.9234 107.293C85.9234 106.677 86.0214 106.16 86.2172 105.74C86.4131 105.32 86.679 105.013 87.0147 104.817C87.3505 104.621 87.6304 104.481 87.8542 104.397C88.0781 104.313 88.3159 104.271 88.5678 104.271C89.799 104.271 90.4146 104.859 90.4146 106.034C90.4146 106.594 90.2467 107.083 89.911 107.503C89.5752 107.923 89.2534 108.203 88.9456 108.342C88.6377 108.482 88.4559 108.552 88.3999 108.552L88.274 108.594C88.3299 108.734 88.5958 108.902 89.0715 109.098C89.5472 109.294 90.0229 109.392 90.4986 109.392H90.8344C91.3101 109.392 91.6739 109.364 91.9257 109.308C92.8491 109.056 93.7026 108.524 94.4861 107.713C95.2696 106.901 95.8713 106.034 96.291 105.11C96.7107 104.187 97.0325 103.404 97.2564 102.76C97.4803 102.116 97.5922 101.697 97.5922 101.501L97.3403 101.669C97.1724 101.781 96.9066 101.934 96.5428 102.13C96.1791 102.326 95.8153 102.494 95.4515 102.634C94.8919 102.774 94.3462 102.844 93.8145 102.844C92.5273 102.844 91.394 102.536 90.4146 101.92C89.4352 101.305 88.7916 100.311 88.4838 98.9403C88.4559 98.7444 88.4419 98.3107 88.4419 97.6391C88.4419 96.0441 88.9316 93.9594 89.911 91.385C90.8903 88.8106 91.38 87.1736 91.38 86.474C91.38 86.446 91.38 86.4181 91.38 86.3901C91.38 86.1382 91.38 85.9703 91.38 85.8864C91.38 85.8024 91.3241 85.7045 91.2121 85.5926C91.1002 85.4806 90.9463 85.4247 90.7504 85.4247H90.5825C89.9389 85.4247 89.3513 85.6905 88.8196 86.2222C88.288 86.7539 87.8682 87.3275 87.5604 87.9431C87.2526 88.5587 87.0147 89.1464 86.8469 89.706C86.679 90.2657 86.567 90.5735 86.5111 90.6294C86.4551 90.6854 86.2312 90.7134 85.8395 90.7134H85.2518C85.0839 90.5455 85 90.4196 85 90.3356Z" fill="#656AFF"/>
<path d="M102.067 73.8397C102.067 73.6158 102.137 73.4199 102.277 73.252C102.417 73.0841 102.627 73.0002 102.906 73.0002C103.102 73.0002 103.27 73.0701 103.41 73.2101C103.55 73.322 103.69 73.5878 103.83 74.0076C104.11 75.0429 104.683 75.8404 105.551 76.4001C105.859 76.596 106.012 76.8478 106.012 77.1556C106.012 77.4075 105.97 77.5754 105.887 77.6593C105.803 77.7432 105.607 77.8692 105.299 78.0371C104.096 78.6527 103.046 79.5341 102.151 80.6814C102.095 80.7374 102.025 80.8213 101.941 80.9333C101.857 81.0452 101.787 81.1291 101.731 81.1851C101.675 81.2411 101.605 81.2691 101.521 81.2691C101.437 81.2691 101.339 81.2831 101.227 81.311C101.032 81.311 100.85 81.2411 100.682 81.1012C100.514 80.9613 100.416 80.7514 100.388 80.4716C100.388 79.9399 101.046 79.1144 102.361 77.9951H95.1832L88.0056 77.9531C87.6418 77.7013 87.46 77.4354 87.46 77.1556C87.46 76.9597 87.6418 76.6799 88.0056 76.3161H103.074C102.403 75.2528 102.067 74.4273 102.067 73.8397Z" fill="#656AFF"/>
<path d="M175.096 204.195C174.816 204.195 174.075 204.041 172.871 203.733C171.668 203.425 170.787 203.271 170.227 203.271C169.667 203.271 169.192 203.327 168.8 203.439C168.408 203.551 168.086 203.691 167.834 203.859C167.583 204.027 167.415 204.181 167.331 204.321C167.247 204.461 167.149 204.614 167.037 204.782L166.953 204.95C166.869 205.034 166.659 205.076 166.323 205.076C165.736 205.076 165.442 204.964 165.442 204.74C165.442 204.6 165.484 204.405 165.568 204.153C165.932 203.061 166.533 202.124 167.373 201.34C168.212 200.557 169.136 200.081 170.143 199.913C170.479 199.857 170.717 199.829 170.857 199.829C171.556 199.829 172.186 200.067 172.745 200.543C173.305 201.019 173.837 201.48 174.34 201.928C174.844 202.376 175.376 202.614 175.935 202.642C176.551 202.642 177.167 202.18 177.782 201.257C178.398 200.333 178.72 199.871 178.748 199.871C178.776 199.843 178.985 199.829 179.377 199.829H179.923C180.091 199.997 180.175 200.109 180.175 200.165C180.175 200.277 180.105 200.473 179.965 200.753C179.825 201.033 179.629 201.326 179.377 201.634C179.125 201.942 178.888 202.25 178.664 202.558C178.44 202.866 178.244 203.131 178.076 203.355L177.782 203.733C176.579 205.16 174.676 207.049 172.074 209.399C169.471 211.75 167.862 213.261 167.247 213.933L166.743 214.436L167.373 214.478C167.988 214.478 168.884 214.632 170.059 214.94C171.234 215.248 172.116 215.402 172.703 215.402C173.767 215.402 174.746 215.136 175.642 214.604C176.537 214.073 177.125 213.373 177.404 212.506C177.516 212.254 177.614 212.1 177.698 212.044C177.782 211.988 177.992 211.96 178.328 211.96C178.86 211.96 179.125 212.1 179.125 212.38C179.125 212.52 179.111 212.645 179.083 212.757C178.608 214.492 177.684 215.933 176.313 217.081C174.942 218.228 173.571 218.816 172.2 218.844C171.472 218.844 170.829 218.606 170.269 218.13C169.709 217.654 169.164 217.179 168.632 216.703C168.1 216.227 167.569 215.989 167.037 215.989C165.806 215.989 164.7 216.829 163.721 218.508C163.553 218.732 163.315 218.844 163.007 218.844H162.798H162.252C162.084 218.676 162 218.55 162 218.466C162 218.046 162.811 216.843 164.434 214.856C165.526 213.597 167.373 211.778 169.975 209.399C172.577 207.021 174.186 205.51 174.802 204.866C175.138 204.419 175.236 204.195 175.096 204.195Z" fill="#656AFF"/>
<path d="M177.955 189.839C177.955 189.616 178.025 189.42 178.164 189.252C178.304 189.084 178.514 189 178.794 189C178.99 189 179.158 189.07 179.298 189.21C179.438 189.322 179.578 189.588 179.717 190.007C179.997 191.043 180.571 191.84 181.438 192.4C181.746 192.596 181.9 192.848 181.9 193.155C181.9 193.407 181.858 193.575 181.774 193.659C181.69 193.743 181.494 193.869 181.187 194.037C179.983 194.652 178.934 195.534 178.039 196.681C177.983 196.737 177.913 196.821 177.829 196.933C177.745 197.045 177.675 197.129 177.619 197.185C177.563 197.241 177.493 197.269 177.409 197.269C177.325 197.269 177.227 197.283 177.115 197.311C176.919 197.311 176.737 197.241 176.569 197.101C176.402 196.961 176.304 196.751 176.276 196.471C176.276 195.94 176.933 195.114 178.248 193.995H171.071L163.893 193.953C163.53 193.701 163.348 193.435 163.348 193.155C163.348 192.959 163.53 192.68 163.893 192.316H178.962C178.29 191.253 177.955 190.427 177.955 189.839Z" fill="#656AFF"/>
<path d="M295 71.3354C295 70.9436 295.21 70.272 295.63 69.3206C296.049 68.3692 296.721 67.3758 297.644 66.3405C298.568 65.3051 299.603 64.8014 300.75 64.8294C301.898 64.8294 302.821 65.1512 303.521 65.7948C304.22 66.4384 304.584 67.3339 304.612 68.4812C304.556 69.0128 304.514 69.3066 304.486 69.3626C304.486 69.4466 304.262 70.0902 303.815 71.2934C303.367 72.4967 302.905 73.8538 302.429 75.3649C301.954 76.8759 301.73 78.0792 301.758 78.9746C301.758 80.1779 301.954 81.0174 302.345 81.4931C302.737 81.9688 303.325 82.2206 304.108 82.2486C304.752 82.2486 305.354 82.0947 305.913 81.7869C306.473 81.4791 306.907 81.1573 307.214 80.8215C307.522 80.4857 307.9 80.024 308.348 79.4364C308.348 79.4084 308.418 79.1286 308.558 78.5969C308.698 78.0652 308.893 77.2397 309.145 76.1204C309.397 75.0011 309.663 73.9658 309.943 73.0143C311.006 68.8169 311.594 66.6203 311.706 66.4244C312.069 65.6689 312.671 65.2911 313.511 65.2911C313.874 65.2911 314.168 65.3891 314.392 65.585C314.616 65.7808 314.77 65.9487 314.854 66.0886C314.938 66.2286 314.966 66.3545 314.938 66.4664C314.938 66.8302 314.252 69.7684 312.881 75.2809C311.51 80.7935 310.726 83.8156 310.53 84.3473C309.747 86.6699 308.39 88.5167 306.459 89.8879C304.528 91.259 302.597 91.9586 300.666 91.9866C299.407 91.9866 298.302 91.6788 297.351 91.0631C296.399 90.4475 295.923 89.5241 295.923 88.2929C295.923 87.6772 296.021 87.1596 296.217 86.7398C296.413 86.3201 296.679 86.0123 297.015 85.8164C297.351 85.6205 297.63 85.4806 297.854 85.3967C298.078 85.3127 298.316 85.2707 298.568 85.2707C299.799 85.2707 300.415 85.8584 300.415 87.0336C300.415 87.5933 300.247 88.083 299.911 88.5027C299.575 88.9225 299.253 89.2023 298.946 89.3422C298.638 89.4821 298.456 89.5521 298.4 89.5521L298.274 89.5941C298.33 89.734 298.596 89.9019 299.071 90.0977C299.547 90.2936 300.023 90.3916 300.499 90.3916H300.834C301.31 90.3916 301.674 90.3636 301.926 90.3076C302.849 90.0558 303.703 89.5241 304.486 88.7126C305.27 87.9011 305.871 87.0336 306.291 86.1102C306.711 85.1868 307.033 84.4033 307.256 83.7597C307.48 83.1161 307.592 82.6963 307.592 82.5005L307.34 82.6684C307.172 82.7803 306.907 82.9342 306.543 83.1301C306.179 83.3259 305.815 83.4938 305.452 83.6338C304.892 83.7737 304.346 83.8436 303.815 83.8436C302.527 83.8436 301.394 83.5358 300.415 82.9202C299.435 82.3046 298.792 81.3112 298.484 79.94C298.456 79.7442 298.442 79.3104 298.442 78.6389C298.442 77.0438 298.932 74.9591 299.911 72.3847C300.89 69.8103 301.38 68.1733 301.38 67.4738C301.38 67.4458 301.38 67.4178 301.38 67.3898C301.38 67.138 301.38 66.9701 301.38 66.8861C301.38 66.8022 301.324 66.7043 301.212 66.5923C301.1 66.4804 300.946 66.4244 300.75 66.4244H300.583C299.939 66.4244 299.351 66.6903 298.82 67.2219C298.288 67.7536 297.868 68.3273 297.56 68.9429C297.253 69.5585 297.015 70.1461 296.847 70.7058C296.679 71.2654 296.567 71.5732 296.511 71.6292C296.455 71.6852 296.231 71.7132 295.839 71.7132H295.252C295.084 71.5453 295 71.4193 295 71.3354Z" fill="#E7EFF9"/>
<path d="M312.066 54.8394C312.066 54.6156 312.136 54.4197 312.276 54.2518C312.416 54.0839 312.626 53.9999 312.905 53.9999C313.101 53.9999 313.269 54.0699 313.409 54.2098C313.549 54.3217 313.689 54.5876 313.829 55.0073C314.109 56.0427 314.682 56.8402 315.55 57.3998C315.858 57.5957 316.011 57.8476 316.011 58.1554C316.011 58.4072 315.969 58.5751 315.886 58.6591C315.802 58.743 315.606 58.8689 315.298 59.0368C314.095 59.6524 313.045 60.5339 312.15 61.6812C312.094 61.7371 312.024 61.8211 311.94 61.933C311.856 62.045 311.786 62.1289 311.73 62.1849C311.674 62.2408 311.604 62.2688 311.52 62.2688C311.436 62.2688 311.338 62.2828 311.226 62.3108C311.031 62.3108 310.849 62.2408 310.681 62.1009C310.513 61.961 310.415 61.7511 310.387 61.4713C310.387 60.9396 311.045 60.1142 312.36 58.9948H305.182L298.005 58.9529C297.641 58.701 297.459 58.4352 297.459 58.1554C297.459 57.9595 297.641 57.6797 298.005 57.3159H313.073C312.402 56.2526 312.066 55.4271 312.066 54.8394Z" fill="#E7EFF9"/>
<path d="M328.906 73.4343C328.906 73.4343 328.906 73.2524 328.906 72.8886C328.906 72.5248 329.102 72.245 329.494 72.0491H342.044V65.753L342.086 59.457C342.366 59.0932 342.632 58.9113 342.884 58.9113C343.247 58.9113 343.527 59.1212 343.723 59.5409V72.0491H356.231C356.651 72.273 356.861 72.5528 356.861 72.8886C356.861 73.2244 356.651 73.5042 356.231 73.7281H343.723V86.2363C343.499 86.6281 343.247 86.824 342.968 86.824H342.884H342.8C342.464 86.824 342.212 86.6281 342.044 86.2363V73.7281H329.494C329.102 73.5322 328.906 73.2524 328.906 72.8886V73.4343Z" fill="#E7EFF9"/>
<path d="M373.112 65.3753C372.357 65.3753 371.755 65.1234 371.307 64.6197C370.86 64.116 370.636 63.5004 370.636 62.7729C370.636 60.7861 371.377 59.0652 372.86 57.6101C374.343 56.155 376.19 55.4274 378.401 55.4274C380.947 55.4274 383.074 56.2109 384.781 57.778C386.488 59.345 387.355 61.3737 387.383 63.8642C387.383 65.0674 387.104 66.2147 386.544 67.3061C385.984 68.3974 385.313 69.3488 384.529 70.1603C383.746 70.9718 382.626 72.0071 381.171 73.2664C380.164 74.1338 378.765 75.421 376.974 77.128L374.497 79.4785L377.687 79.5205C382.081 79.5205 384.417 79.4505 384.697 79.3106C384.893 79.2546 385.229 78.0094 385.704 75.5749V75.449H387.383V75.5749C387.355 75.6589 387.173 76.9321 386.838 79.3946C386.502 81.857 386.292 83.1442 386.208 83.2562V83.3821H370.636V82.5846V82.0809C370.636 81.885 370.72 81.6751 370.888 81.4513C371.055 81.2274 371.475 80.7377 372.147 79.9822C372.958 79.0867 373.658 78.3032 374.246 77.6316C374.497 77.3518 374.973 76.8341 375.673 76.0786C376.372 75.3231 376.848 74.8054 377.1 74.5256C377.352 74.2457 377.757 73.784 378.317 73.1404C378.877 72.4968 379.268 72.0211 379.492 71.7133C379.716 71.4055 380.038 70.9858 380.458 70.4541C380.877 69.9224 381.171 69.4747 381.339 69.1109C381.507 68.7472 381.717 68.3414 381.969 67.8937C382.221 67.446 382.402 66.9982 382.514 66.5505C382.626 66.1028 382.724 65.6831 382.808 65.2913C382.892 64.8995 382.934 64.4378 382.934 63.9062C382.934 62.1433 382.458 60.6182 381.507 59.331C380.556 58.0438 379.198 57.4002 377.436 57.4002C376.512 57.4002 375.701 57.6381 375.001 58.1138C374.301 58.5895 373.812 59.0512 373.532 59.4989C373.252 59.9466 373.112 60.2125 373.112 60.2964C373.112 60.3244 373.182 60.3384 373.322 60.3384C373.826 60.3384 374.343 60.5343 374.875 60.926C375.407 61.3178 375.673 61.9614 375.673 62.8568C375.673 63.5564 375.449 64.144 375.001 64.6197C374.553 65.0954 373.924 65.3473 373.112 65.3753Z" fill="#E7EFF9"/>
<path d="M391.706 71.2518C391.902 70.0765 392.657 68.7194 393.972 67.1803C395.288 65.6413 396.911 64.8578 398.841 64.8298C399.821 64.8298 400.716 65.0816 401.528 65.5853C402.339 66.089 402.941 66.7186 403.333 67.4742C404.508 65.7112 405.921 64.8298 407.572 64.8298C408.607 64.8298 409.503 65.1376 410.258 65.7532C411.014 66.3688 411.406 67.1943 411.434 68.2297C411.434 69.0412 411.238 69.6988 410.846 70.2025C410.454 70.7061 410.076 71.014 409.713 71.1259C409.349 71.2378 409.027 71.2938 408.747 71.2938C408.216 71.2938 407.782 71.1399 407.446 70.8321C407.11 70.5243 406.942 70.1185 406.942 69.6148C406.942 68.3276 407.642 67.4462 409.041 66.9705C408.733 66.6067 408.174 66.4248 407.362 66.4248C406.998 66.4248 406.732 66.4528 406.565 66.5088C405.501 66.9565 404.718 67.8799 404.214 69.279C402.535 75.4632 401.696 79.073 401.696 80.1083C401.696 80.8918 401.919 81.4515 402.367 81.7873C402.815 82.1231 403.305 82.291 403.836 82.291C404.872 82.291 405.893 81.8292 406.9 80.9058C407.908 79.9824 408.593 78.8491 408.957 77.5059C409.041 77.2261 409.125 77.0722 409.209 77.0442C409.293 77.0162 409.517 76.9882 409.88 76.9603H410.048C410.468 76.9603 410.678 77.0722 410.678 77.2961C410.678 77.324 410.65 77.4779 410.594 77.7578C410.146 79.3528 409.279 80.7659 407.992 81.9971C406.704 83.2284 405.207 83.844 403.5 83.844C401.542 83.844 400.059 82.9625 399.051 81.1996C397.904 82.9346 396.589 83.802 395.106 83.802H394.854C393.483 83.802 392.503 83.4382 391.916 82.7107C391.328 81.9831 391.02 81.2136 390.992 80.4021C390.992 79.5067 391.258 78.7791 391.79 78.2195C392.321 77.6598 392.951 77.38 393.679 77.38C394.882 77.38 395.483 77.9676 395.483 79.1429C395.483 79.7026 395.316 80.1923 394.98 80.612C394.644 81.0317 394.322 81.3116 394.014 81.4515C393.707 81.5914 393.525 81.6613 393.469 81.6613L393.343 81.7033C393.343 81.7313 393.427 81.7873 393.595 81.8712C393.762 81.9552 393.986 82.0531 394.266 82.165C394.546 82.277 394.812 82.3189 395.064 82.291C396.071 82.291 396.938 81.6613 397.666 80.4021C397.918 79.9544 398.24 79.003 398.631 77.5479C399.023 76.0928 399.415 74.5817 399.807 73.0147C400.198 71.4477 400.422 70.5243 400.478 70.2444C400.618 69.4889 400.688 68.9432 400.688 68.6074C400.688 67.8239 400.478 67.2643 400.059 66.9285C399.639 66.5927 399.163 66.4248 398.631 66.4248C397.512 66.4248 396.463 66.8725 395.483 67.768C394.504 68.6634 393.818 69.8107 393.427 71.2098C393.371 71.4617 393.301 71.6016 393.217 71.6296C393.133 71.6576 392.909 71.6855 392.545 71.7135H391.958C391.79 71.5456 391.706 71.3917 391.706 71.2518Z" fill="#E7EFF9"/>
<path d="M408.027 54.8397C408.027 54.6158 408.097 54.4199 408.237 54.252C408.377 54.0841 408.587 54.0002 408.866 54.0002C409.062 54.0002 409.23 54.0701 409.37 54.2101C409.51 54.322 409.65 54.5878 409.79 55.0076C410.07 56.0429 410.643 56.8404 411.511 57.4001C411.819 57.596 411.972 57.8478 411.972 58.1556C411.972 58.4075 411.93 58.5754 411.846 58.6593C411.763 58.7432 411.567 58.8692 411.259 59.0371C410.056 59.6527 409.006 60.5341 408.111 61.6814C408.055 61.7374 407.985 61.8213 407.901 61.9333C407.817 62.0452 407.747 62.1291 407.691 62.1851C407.635 62.2411 407.565 62.2691 407.481 62.2691C407.397 62.2691 407.299 62.2831 407.187 62.311C406.992 62.311 406.81 62.2411 406.642 62.1012C406.474 61.9613 406.376 61.7514 406.348 61.4716C406.348 60.9399 407.005 60.1144 408.321 58.9951H401.143L393.966 58.9531C393.602 58.7013 393.42 58.4354 393.42 58.1556C393.42 57.9597 393.602 57.6799 393.966 57.3161H409.034C408.363 56.2528 408.027 55.4273 408.027 54.8397Z" fill="#E7EFF9"/>
</svg>
