<svg width="600" height="600" viewBox="0 0 600 600" fill="none" xmlns="http://www.w3.org/2000/svg">
<path d="M158.741 70.4422C158.463 69.2819 157.298 68.5663 156.138 68.8437L137.231 73.365C136.07 73.6424 135.355 74.8079 135.632 75.9681C135.91 77.1283 137.075 77.844 138.235 77.5665L155.042 73.5476L159.06 90.3538C159.338 91.514 160.503 92.2297 161.664 91.9522C162.824 91.6748 163.539 90.5093 163.262 89.3491L158.741 70.4422ZM108.081 154.155L158.481 72.0748L154.799 69.8143L104.399 151.894L108.081 154.155Z" fill="#656AFF"/>
<path d="M454.87 280.08L505.27 198" stroke="#656AFF" stroke-width="4.32" stroke-linecap="round" stroke-dasharray="0.72 11.52"/>
<path d="M281.722 216.201C282.221 217.284 281.747 218.567 280.664 219.066L263.007 227.199C261.923 227.698 260.64 227.225 260.141 226.141C259.642 225.058 260.116 223.775 261.199 223.276L276.894 216.046L269.665 200.351C269.166 199.268 269.64 197.985 270.723 197.486C271.807 196.987 273.09 197.46 273.589 198.544L281.722 216.201ZM106.988 150.998L280.508 215.078L279.012 219.131L105.492 155.051L106.988 150.998Z" fill="#656AFF"/>
<path opacity="0.5" d="M454.872 279.256C455.371 280.34 454.897 281.623 453.814 282.122L436.157 290.255C435.073 290.754 433.79 290.28 433.291 289.197C432.792 288.113 433.266 286.83 434.349 286.331L450.044 279.102L442.815 263.407C442.316 262.323 442.79 261.04 443.873 260.541C444.957 260.042 446.24 260.516 446.739 261.599L454.872 279.256ZM106.618 149.974L453.658 278.134L452.162 282.186L105.122 154.026L106.618 149.974Z" fill="#656AFF"/>
<path d="M156.87 71L505.87 200" stroke="#656AFF" stroke-width="4.32" stroke-linecap="round" stroke-dasharray="0.72 11.52"/>
<path d="M94 87.3364C94 86.8696 94.25 86.0696 94.7501 84.9362C95.2501 83.8028 96.0502 82.6193 97.1502 81.3859C98.2503 80.1525 99.4837 79.5524 100.851 79.5858C102.217 79.5858 103.317 79.9691 104.151 80.7359C104.984 81.5026 105.418 82.5693 105.451 83.9361C105.384 84.5695 105.334 84.9195 105.301 84.9862C105.301 85.0862 105.034 85.8529 104.501 87.2863C103.967 88.7198 103.417 90.3366 102.851 92.1367C102.284 93.9368 102.017 95.3703 102.051 96.437C102.051 97.8705 102.284 98.8705 102.751 99.4372C103.217 100.004 103.917 100.304 104.851 100.337C105.618 100.337 106.334 100.154 107.001 99.7873C107.668 99.4206 108.184 99.0372 108.551 98.6372C108.918 98.2372 109.368 97.6871 109.901 96.9871C109.901 96.9537 109.985 96.6204 110.151 95.987C110.318 95.3536 110.551 94.3702 110.851 93.0368C111.151 91.7033 111.468 90.4699 111.801 89.3365C113.068 84.3361 113.768 81.7193 113.901 81.4859C114.335 80.5859 115.052 80.1358 116.052 80.1358C116.485 80.1358 116.835 80.2525 117.102 80.4858C117.368 80.7192 117.552 80.9192 117.652 81.0859C117.752 81.2526 117.785 81.4026 117.752 81.5359C117.752 81.9693 116.935 85.4695 115.302 92.0367C113.668 98.6039 112.735 102.204 112.501 102.837C111.568 105.604 109.951 107.805 107.651 109.438C105.351 111.071 103.051 111.905 100.75 111.938C99.2504 111.938 97.9336 111.571 96.8002 110.838C95.6668 110.105 95.1001 109.005 95.1001 107.538C95.1001 106.804 95.2168 106.188 95.4501 105.688C95.6835 105.188 96.0001 104.821 96.4002 104.588C96.8002 104.354 97.1336 104.188 97.4003 104.088C97.6669 103.988 97.9503 103.938 98.2503 103.938C99.7171 103.938 100.45 104.638 100.45 106.038C100.45 106.704 100.25 107.288 99.8504 107.788C99.4504 108.288 99.067 108.621 98.7003 108.788C98.3337 108.955 98.117 109.038 98.0503 109.038L97.9003 109.088C97.967 109.255 98.2837 109.455 98.8504 109.688C99.4171 109.921 99.9838 110.038 100.55 110.038H100.951C101.517 110.038 101.951 110.005 102.251 109.938C103.351 109.638 104.367 109.005 105.301 108.038C106.234 107.071 106.951 106.038 107.451 104.938C107.951 103.838 108.334 102.904 108.601 102.137C108.868 101.371 109.001 100.871 109.001 100.637L108.701 100.837C108.501 100.971 108.184 101.154 107.751 101.387C107.318 101.621 106.884 101.821 106.451 101.987C105.784 102.154 105.134 102.237 104.501 102.237C102.967 102.237 101.617 101.871 100.45 101.137C99.2837 100.404 98.517 99.2206 98.1503 97.5871C98.117 97.3538 98.1003 96.8371 98.1003 96.037C98.1003 94.1369 98.6837 91.6533 99.8504 88.5864C101.017 85.5195 101.601 83.5694 101.601 82.736C101.601 82.7027 101.601 82.6693 101.601 82.636C101.601 82.336 101.601 82.136 101.601 82.036C101.601 81.936 101.534 81.8193 101.401 81.6859C101.267 81.5526 101.084 81.4859 100.851 81.4859H100.65C99.8838 81.4859 99.1837 81.8026 98.5503 82.436C97.917 83.0694 97.4169 83.7528 97.0502 84.4861C96.6835 85.2195 96.4002 85.9196 96.2002 86.5863C96.0001 87.253 95.8668 87.6197 95.8001 87.6864C95.7335 87.753 95.4668 87.7864 95.0001 87.7864H94.3C94.1 87.5864 94 87.4364 94 87.3364Z" fill="#656AFF"/>
<path d="M321.87 86.9363C321.87 86.4696 322.12 85.6696 322.62 84.5361C323.12 83.4027 323.92 82.2193 325.02 80.9859C326.12 79.7525 327.354 79.1524 328.72 79.1858C330.087 79.1858 331.187 79.5691 332.021 80.3358C332.854 81.1026 333.287 82.1693 333.321 83.5361C333.254 84.1695 333.204 84.5195 333.171 84.5862C333.171 84.6862 332.904 85.4529 332.371 86.8863C331.837 88.3198 331.287 89.9365 330.721 91.7367C330.154 93.5368 329.887 94.9703 329.92 96.037C329.92 97.4704 330.154 98.4705 330.621 99.0372C331.087 99.6039 331.787 99.904 332.721 99.9373C333.487 99.9373 334.204 99.7539 334.871 99.3872C335.538 99.0206 336.054 98.6372 336.421 98.2372C336.788 97.8371 337.238 97.2871 337.771 96.587C337.771 96.5537 337.854 96.2203 338.021 95.587C338.188 94.9536 338.421 93.9702 338.721 92.6367C339.021 91.3033 339.338 90.0699 339.671 88.9365C340.938 83.9361 341.638 81.3192 341.771 81.0859C342.205 80.1858 342.921 79.7358 343.922 79.7358C344.355 79.7358 344.705 79.8525 344.972 80.0858C345.238 80.3192 345.422 80.5192 345.522 80.6859C345.622 80.8525 345.655 81.0026 345.622 81.1359C345.622 81.5693 344.805 85.0695 343.171 91.6367C341.538 98.2038 340.605 101.804 340.371 102.437C339.438 105.204 337.821 107.405 335.521 109.038C333.221 110.671 330.921 111.505 328.62 111.538C327.12 111.538 325.803 111.171 324.67 110.438C323.537 109.705 322.97 108.605 322.97 107.138C322.97 106.404 323.087 105.788 323.32 105.288C323.553 104.788 323.87 104.421 324.27 104.188C324.67 103.954 325.003 103.788 325.27 103.688C325.537 103.588 325.82 103.538 326.12 103.538C327.587 103.538 328.32 104.238 328.32 105.638C328.32 106.304 328.12 106.888 327.72 107.388C327.32 107.888 326.937 108.221 326.57 108.388C326.204 108.555 325.987 108.638 325.92 108.638L325.77 108.688C325.837 108.855 326.154 109.055 326.72 109.288C327.287 109.521 327.854 109.638 328.42 109.638H328.82C329.387 109.638 329.82 109.605 330.12 109.538C331.221 109.238 332.237 108.605 333.171 107.638C334.104 106.671 334.821 105.638 335.321 104.538C335.821 103.438 336.204 102.504 336.471 101.737C336.738 100.971 336.871 100.471 336.871 100.237L336.571 100.437C336.371 100.571 336.054 100.754 335.621 100.987C335.188 101.221 334.754 101.421 334.321 101.587C333.654 101.754 333.004 101.837 332.371 101.837C330.837 101.837 329.487 101.471 328.32 100.737C327.154 100.004 326.387 98.8205 326.02 97.1871C325.987 96.9537 325.97 96.437 325.97 95.637C325.97 93.7368 326.554 91.2533 327.72 88.1864C328.887 85.1195 329.47 83.1694 329.47 82.336C329.47 82.3027 329.47 82.2693 329.47 82.236C329.47 81.936 329.47 81.7359 329.47 81.6359C329.47 81.5359 329.404 81.4193 329.27 81.2859C329.137 81.1526 328.954 81.0859 328.72 81.0859H328.52C327.754 81.0859 327.054 81.4026 326.42 82.036C325.787 82.6693 325.287 83.3527 324.92 84.0861C324.553 84.8195 324.27 85.5196 324.07 86.1863C323.87 86.853 323.737 87.2197 323.67 87.2864C323.603 87.353 323.337 87.3864 322.87 87.3864H322.17C321.97 87.1863 321.87 87.0363 321.87 86.9363Z" fill="#E7EFF9"/>
<path d="M197.471 217.2C197.138 217.2 196.254 217.017 194.821 216.65C193.387 216.284 192.337 216.1 191.671 216.1C191.004 216.1 190.437 216.167 189.97 216.3C189.504 216.434 189.12 216.6 188.82 216.8C188.52 217 188.32 217.184 188.22 217.35C188.12 217.517 188.004 217.7 187.87 217.9L187.77 218.1C187.67 218.2 187.42 218.25 187.02 218.25C186.32 218.25 185.97 218.117 185.97 217.85C185.97 217.684 186.02 217.45 186.12 217.15C186.554 215.85 187.27 214.734 188.27 213.8C189.27 212.867 190.371 212.3 191.571 212.1C191.971 212.033 192.254 212 192.421 212C193.254 212 194.004 212.283 194.671 212.85C195.338 213.417 195.971 213.967 196.571 214.5C197.171 215.034 197.804 215.317 198.471 215.35C199.204 215.35 199.938 214.8 200.671 213.7C201.405 212.6 201.788 212.05 201.821 212.05C201.855 212.017 202.105 212 202.571 212H203.221C203.421 212.2 203.521 212.333 203.521 212.4C203.521 212.533 203.438 212.767 203.271 213.1C203.105 213.433 202.871 213.783 202.571 214.15C202.271 214.517 201.988 214.884 201.721 215.25C201.455 215.617 201.221 215.934 201.021 216.2L200.671 216.65C199.238 218.35 196.971 220.601 193.871 223.401C190.771 226.201 188.854 228.001 188.12 228.801L187.52 229.401L188.27 229.451C189.004 229.451 190.07 229.635 191.471 230.001C192.871 230.368 193.921 230.551 194.621 230.551C195.888 230.551 197.054 230.235 198.121 229.601C199.188 228.968 199.888 228.135 200.221 227.101C200.355 226.801 200.471 226.618 200.571 226.551C200.671 226.484 200.921 226.451 201.321 226.451C201.955 226.451 202.271 226.618 202.271 226.951C202.271 227.118 202.255 227.268 202.221 227.401C201.655 229.468 200.555 231.185 198.921 232.552C197.288 233.918 195.654 234.618 194.021 234.652C193.154 234.652 192.387 234.368 191.721 233.802C191.054 233.235 190.404 232.668 189.77 232.101C189.137 231.535 188.504 231.251 187.87 231.251C186.404 231.251 185.087 232.251 183.92 234.252C183.72 234.518 183.437 234.652 183.07 234.652H182.82H182.17C181.97 234.452 181.87 234.302 181.87 234.202C181.87 233.702 182.837 232.268 184.77 229.901C186.07 228.401 188.27 226.234 191.371 223.401C194.471 220.567 196.388 218.767 197.121 218C197.521 217.467 197.638 217.2 197.471 217.2Z" fill="#656AFF"/>
<path d="M446.501 84.3849C446.168 84.3849 445.284 84.2015 443.851 83.8348C442.417 83.4682 441.367 83.2848 440.701 83.2848C440.034 83.2848 439.467 83.3515 439 83.4848C438.534 83.6182 438.15 83.7848 437.85 83.9849C437.55 84.1849 437.35 84.3682 437.25 84.5349C437.15 84.7016 437.034 84.8849 436.9 85.0849L436.8 85.285C436.7 85.385 436.45 85.435 436.05 85.435C435.35 85.435 435 85.3016 435 85.0349C435 84.8683 435.05 84.6349 435.15 84.3349C435.583 83.0348 436.3 81.918 437.3 80.9846C438.3 80.0512 439.4 79.4845 440.6 79.2845C441.001 79.2178 441.284 79.1845 441.451 79.1845C442.284 79.1845 443.034 79.4679 443.701 80.0346C444.367 80.6013 445.001 81.1513 445.601 81.6847C446.201 82.2181 446.834 82.5014 447.501 82.5348C448.234 82.5348 448.968 81.9847 449.701 80.8846C450.435 79.7845 450.818 79.2345 450.851 79.2345C450.885 79.2012 451.135 79.1845 451.601 79.1845H452.251C452.451 79.3845 452.551 79.5179 452.551 79.5845C452.551 79.7179 452.468 79.9512 452.301 80.2846C452.135 80.6179 451.901 80.968 451.601 81.3347C451.301 81.7014 451.018 82.0681 450.751 82.4347C450.485 82.8014 450.251 83.1181 450.051 83.3848L449.701 83.8348C448.268 85.535 446.001 87.7851 442.901 90.5853C439.8 93.3856 437.884 95.1857 437.15 95.9857L436.55 96.5858L437.3 96.6358C438.034 96.6358 439.1 96.8191 440.5 97.1858C441.901 97.5525 442.951 97.7359 443.651 97.7359C444.917 97.7359 446.084 97.4192 447.151 96.7858C448.218 96.1524 448.918 95.319 449.251 94.2856C449.384 93.9856 449.501 93.8023 449.601 93.7356C449.701 93.6689 449.951 93.6356 450.351 93.6356C450.985 93.6356 451.301 93.8023 451.301 94.1356C451.301 94.3023 451.285 94.4523 451.251 94.5856C450.685 96.6525 449.584 98.3693 447.951 99.736C446.318 101.103 444.684 101.803 443.051 101.836C442.184 101.836 441.417 101.553 440.751 100.986C440.084 100.419 439.434 99.8527 438.8 99.286C438.167 98.7193 437.534 98.4359 436.9 98.4359C435.433 98.4359 434.117 99.436 432.95 101.436C432.75 101.703 432.467 101.836 432.1 101.836H431.85H431.2C431 101.636 430.9 101.486 430.9 101.386C430.9 100.886 431.867 99.4527 433.8 97.0858C435.1 95.5857 437.3 93.4189 440.4 90.5853C443.501 87.7518 445.418 85.9517 446.151 85.1849C446.551 84.6516 446.668 84.3849 446.501 84.3849Z" fill="#E7EFF9"/>
<path d="M360.75 85.4707C360.75 85.4707 360.75 85.3018 360.75 84.964C360.75 84.6262 360.937 84.3663 361.31 84.1844H373.27V78.3378L373.31 72.4912C373.577 72.1534 373.83 71.9845 374.07 71.9845C374.417 71.9845 374.683 72.1794 374.87 72.5691V84.1844H386.79C387.19 84.3923 387.39 84.6521 387.39 84.964C387.39 85.2758 387.19 85.5356 386.79 85.7435H374.87V97.3588C374.657 97.7226 374.417 97.9045 374.15 97.9045H374.07H373.99C373.67 97.9045 373.43 97.7226 373.27 97.3588V85.7435H361.31C360.937 85.5616 360.75 85.3018 360.75 84.964V85.4707Z" fill="#E7EFF9"/>
<path d="M408.877 79.9591C407.969 79.9591 407.245 79.6564 406.707 79.0509C406.169 78.4453 405.9 77.7052 405.9 76.8306C405.9 74.4421 406.791 72.3732 408.574 70.6239C410.357 68.8746 412.577 68 415.235 68C418.296 68 420.853 68.9419 422.905 70.8258C424.957 72.7096 426 75.1486 426.034 78.1426C426.034 79.5891 425.697 80.9684 425.024 82.2803C424.352 83.5923 423.544 84.7361 422.602 85.7117C421.66 86.6872 420.315 87.9319 418.565 89.4457C417.354 90.4886 415.672 92.0361 413.519 94.0881L410.542 96.9139L414.377 96.9644C419.659 96.9644 422.468 96.8803 422.804 96.7121C423.04 96.6448 423.443 95.1478 424.015 92.2211V92.0697H426.034V92.2211C426 92.322 425.781 93.8526 425.378 96.813C424.974 99.7733 424.722 101.321 424.621 101.455V101.607H405.9V100.648V100.042C405.9 99.807 406.001 99.5547 406.203 99.2856C406.404 99.0164 406.909 98.4277 407.716 97.5194C408.692 96.4429 409.533 95.501 410.239 94.6936C410.542 94.3572 411.114 93.7349 411.955 92.8266C412.796 91.9183 413.368 91.296 413.671 90.9596C413.973 90.6232 414.461 90.0681 415.134 89.2944C415.807 88.5206 416.278 87.9487 416.547 87.5787C416.816 87.2087 417.203 86.704 417.708 86.0649C418.212 85.4257 418.565 84.8875 418.767 84.4501C418.969 84.0128 419.221 83.525 419.524 82.9868C419.827 82.4485 420.046 81.9103 420.18 81.372C420.315 80.8338 420.432 80.3292 420.533 79.8582C420.634 79.3873 420.685 78.8322 420.685 78.193C420.685 76.0737 420.113 74.2403 418.969 72.6928C417.825 71.1454 416.194 70.3716 414.074 70.3716C412.964 70.3716 411.989 70.6576 411.148 71.2295C410.307 71.8013 409.718 72.3564 409.382 72.8947C409.045 73.4329 408.877 73.7525 408.877 73.8534C408.877 73.8871 408.961 73.9039 409.129 73.9039C409.735 73.9039 410.357 74.1394 410.996 74.6103C411.635 75.0813 411.955 75.855 411.955 76.9315C411.955 77.7725 411.686 78.479 411.148 79.0509C410.609 79.6227 409.853 79.9255 408.877 79.9591Z" fill="#E7EFF9"/>
<path d="M94.3499 153C94.3499 146.638 99.5076 141.48 105.87 141.48C112.232 141.48 117.39 146.638 117.39 153C117.39 159.362 112.232 164.52 105.87 164.52C99.5076 164.52 94.3499 159.362 94.3499 153ZM507.558 196.653C508.302 197.586 508.149 198.945 507.217 199.689L492.02 211.812C491.088 212.556 489.729 212.403 488.985 211.47C488.241 210.538 488.394 209.179 489.326 208.435L502.834 197.659L492.058 184.15C491.314 183.218 491.467 181.859 492.4 181.115C493.332 180.371 494.691 180.524 495.435 181.456L507.558 196.653ZM106.111 150.854L506.111 195.854L505.628 200.146L105.628 155.146L106.111 150.854Z" fill="#E7EFF9"/>
<path d="M67 461.341C67 457.709 68.4328 454.443 71.2985 451.544C74.1641 448.645 77.2631 447.196 80.5952 447.196C82.4612 447.196 83.9274 447.596 84.9937 448.396C86.06 449.195 86.6098 450.245 86.6431 451.544C86.6431 452.511 86.3265 453.327 85.6934 453.994C85.0603 454.66 84.2606 455.01 83.2943 455.043C82.6611 455.043 82.1613 454.877 81.7948 454.543C81.4282 454.21 81.245 453.71 81.245 453.044C81.245 452.378 81.4282 451.811 81.7948 451.345C82.1613 450.878 82.5279 450.528 82.8944 450.295C83.2609 450.062 83.4942 449.962 83.5942 449.995H83.6441C83.6441 449.928 83.5442 449.828 83.3442 449.695C83.1443 449.562 82.7944 449.429 82.2946 449.295C81.7948 449.162 81.2283 449.095 80.5952 449.095C79.5956 449.095 78.6459 449.329 77.7462 449.795C77.0465 450.095 76.33 450.611 75.597 451.345C74.1308 452.811 73.0645 454.877 72.3981 457.542C71.7317 460.208 71.3818 462.141 71.3485 463.34C71.3485 464.873 71.7816 466.023 72.648 466.789C73.3811 467.589 74.3474 467.989 75.547 467.989H75.7469C79.4789 467.989 82.5612 466.573 84.9937 463.74C85.2936 463.407 85.4935 463.24 85.5934 463.24C85.7267 463.24 85.9433 463.39 86.2432 463.69C86.5431 463.99 86.7097 464.223 86.743 464.39C86.7764 464.557 86.6264 464.806 86.2932 465.14C85.96 465.473 85.4768 465.939 84.8437 466.539C84.2106 467.139 83.4609 467.639 82.5945 468.039C81.7281 468.439 80.6619 468.855 79.3956 469.288C78.1294 469.721 76.7965 469.905 75.397 469.838C72.8979 469.838 70.882 469.038 69.3492 467.439C67.8164 465.839 67.0333 463.807 67 461.341Z" fill="#E7EFF9"/>
<path d="M94.4699 456.36L94.0105 456.537C93.6807 456.655 93.2095 456.773 92.597 456.89C91.9845 457.008 91.3013 457.091 90.5474 457.138H89.876V455.512H90.5474C91.6547 455.465 92.6795 455.288 93.6218 454.982C94.5641 454.676 95.2238 454.393 95.6007 454.134C95.9776 453.875 96.3074 453.616 96.5901 453.357C96.6373 453.286 96.7786 453.251 97.0142 453.251C97.2262 453.251 97.4265 453.321 97.6149 453.463V464.029L97.6503 474.63C97.8152 474.795 97.9565 474.901 98.0743 474.948C98.1921 474.995 98.4748 475.042 98.9224 475.089C99.37 475.136 100.1 475.16 101.113 475.16H102.032V476.785H101.643C101.149 476.715 99.2758 476.679 96.0247 476.679C92.8208 476.679 90.9715 476.715 90.4767 476.785H90.0527V475.16H90.9715C91.4898 475.16 91.9374 475.16 92.3143 475.16C92.6912 475.16 92.9857 475.148 93.1977 475.125C93.4098 475.101 93.5982 475.066 93.7631 475.019C93.928 474.971 94.0223 474.948 94.0458 474.948C94.0694 474.948 94.1401 474.889 94.2579 474.771C94.3757 474.653 94.4463 474.606 94.4699 474.63V456.36Z" fill="#E7EFF9"/>
<path d="M115.758 450.295C115.758 449.462 115.441 449.045 114.808 449.045C114.008 449.045 113.175 449.528 112.309 450.495C111.443 451.461 110.726 452.944 110.16 454.943C110.126 454.977 110.093 455.027 110.06 455.093C110.027 455.16 110.01 455.21 110.01 455.243C110.01 455.276 109.977 455.31 109.91 455.343C109.843 455.376 109.793 455.393 109.76 455.393C109.727 455.393 109.66 455.393 109.56 455.393C109.46 455.393 109.327 455.393 109.16 455.393H108.46C108.26 455.193 108.161 455.043 108.161 454.943C108.161 454.71 108.294 454.227 108.56 453.494C108.827 452.761 109.227 451.894 109.76 450.895C110.293 449.895 111.026 449.045 111.959 448.346C112.892 447.646 113.942 447.279 115.108 447.246C116.508 447.246 117.591 447.646 118.357 448.445C119.123 449.245 119.523 450.178 119.557 451.245C119.557 451.811 119.507 452.244 119.407 452.544C119.407 452.744 119.157 453.477 118.657 454.743C118.157 456.009 117.641 457.492 117.107 459.192C116.574 460.891 116.274 462.374 116.208 463.64C116.208 464.54 116.291 465.273 116.458 465.839C116.891 467.272 117.94 467.989 119.606 467.989C120.839 467.989 121.989 467.422 123.055 466.289C124.122 465.156 124.955 463.84 125.554 462.341C126.154 460.841 126.637 459.458 127.004 458.192C127.37 456.926 127.554 456.009 127.554 455.443C127.554 454.677 127.42 454.01 127.154 453.444C126.887 452.877 126.587 452.444 126.254 452.144C125.921 451.844 125.621 451.544 125.354 451.245C125.088 450.945 124.955 450.578 124.955 450.145C124.955 449.412 125.271 448.729 125.904 448.096C126.537 447.463 127.22 447.146 127.954 447.146C128.587 447.146 129.153 447.446 129.653 448.046C130.153 448.645 130.419 449.612 130.453 450.945C130.453 451.844 130.253 453.227 129.853 455.093C129.453 456.959 128.837 459.042 128.004 461.341C127.17 463.64 125.988 465.623 124.455 467.289C122.922 468.955 121.156 469.805 119.157 469.838C117.024 469.838 115.325 469.288 114.058 468.189C112.826 467.122 112.209 465.539 112.209 463.44C112.209 462.407 112.342 461.341 112.609 460.241C112.876 459.142 113.559 457.192 114.658 454.393C115.391 452.261 115.758 450.895 115.758 450.295Z" fill="#E7EFF9"/>
<path d="M138.879 456.36L138.42 456.537C138.09 456.655 137.619 456.773 137.006 456.89C136.394 457.008 135.711 457.091 134.957 457.138H134.285V455.512H134.957C136.064 455.465 137.089 455.288 138.031 454.982C138.973 454.676 139.633 454.393 140.01 454.134C140.387 453.875 140.717 453.616 141 453.357C141.047 453.286 141.188 453.251 141.424 453.251C141.636 453.251 141.836 453.321 142.024 453.463V464.029L142.06 474.63C142.225 474.795 142.366 474.901 142.484 474.948C142.601 474.995 142.884 475.042 143.332 475.089C143.779 475.136 144.51 475.16 145.523 475.16H146.441V476.785H146.053C145.558 476.715 143.685 476.679 140.434 476.679C137.23 476.679 135.381 476.715 134.886 476.785H134.462V475.16H135.381C135.899 475.16 136.347 475.16 136.724 475.16C137.101 475.16 137.395 475.148 137.607 475.125C137.819 475.101 138.008 475.066 138.172 475.019C138.337 474.971 138.432 474.948 138.455 474.948C138.479 474.948 138.549 474.889 138.667 474.771C138.785 474.653 138.856 474.606 138.879 474.63V456.36Z" fill="#E7EFF9"/>
<path d="M165.43 457.442C165.43 457.442 165.43 457.226 165.43 456.793C165.43 456.36 165.664 456.026 166.13 455.793H181.075V448.296L181.125 440.798C181.458 440.365 181.775 440.149 182.074 440.149C182.508 440.149 182.841 440.398 183.074 440.898V455.793H197.969C198.469 456.06 198.719 456.393 198.719 456.793C198.719 457.193 198.469 457.526 197.969 457.792H183.074V472.687C182.808 473.154 182.508 473.387 182.174 473.387H182.074H181.974C181.575 473.387 181.275 473.154 181.075 472.687V457.792H166.13C165.664 457.559 165.43 457.226 165.43 456.793V457.442Z" fill="#E7EFF9"/>
<path d="M214.323 461.341C214.323 457.709 215.756 454.443 218.622 451.544C221.487 448.645 224.586 447.196 227.918 447.196C229.784 447.196 231.25 447.596 232.317 448.396C233.383 449.195 233.933 450.245 233.966 451.544C233.966 452.511 233.65 453.327 233.017 453.994C232.383 454.66 231.584 455.01 230.617 455.043C229.984 455.043 229.484 454.877 229.118 454.543C228.751 454.21 228.568 453.71 228.568 453.044C228.568 452.378 228.751 451.811 229.118 451.345C229.484 450.878 229.851 450.528 230.217 450.295C230.584 450.062 230.817 449.962 230.917 449.995H230.967C230.967 449.928 230.867 449.828 230.667 449.695C230.467 449.562 230.118 449.429 229.618 449.295C229.118 449.162 228.551 449.095 227.918 449.095C226.919 449.095 225.969 449.329 225.069 449.795C224.37 450.095 223.653 450.611 222.92 451.345C221.454 452.811 220.388 454.877 219.721 457.542C219.055 460.208 218.705 462.141 218.672 463.34C218.672 464.873 219.105 466.023 219.971 466.789C220.704 467.589 221.671 467.989 222.87 467.989H223.07C226.802 467.989 229.884 466.573 232.317 463.74C232.617 463.407 232.817 463.24 232.917 463.24C233.05 463.24 233.266 463.39 233.566 463.69C233.866 463.99 234.033 464.223 234.066 464.39C234.099 464.557 233.95 464.806 233.616 465.14C233.283 465.473 232.8 465.939 232.167 466.539C231.534 467.139 230.784 467.639 229.918 468.039C229.051 468.439 227.985 468.855 226.719 469.288C225.453 469.721 224.12 469.905 222.72 469.838C220.221 469.838 218.205 469.038 216.672 467.439C215.139 465.839 214.356 463.807 214.323 461.341Z" fill="#E7EFF9"/>
<path d="M238.118 461.626C237.482 461.626 236.975 461.414 236.598 460.99C236.221 460.566 236.033 460.047 236.033 459.435C236.033 457.762 236.657 456.313 237.906 455.088C239.154 453.863 240.709 453.251 242.57 453.251C244.714 453.251 246.505 453.91 247.942 455.23C249.379 456.549 250.109 458.257 250.133 460.354C250.133 461.367 249.897 462.332 249.426 463.251C248.955 464.17 248.389 464.971 247.73 465.654C247.07 466.337 246.128 467.209 244.903 468.269C244.055 468.999 242.877 470.083 241.369 471.52L239.284 473.499L241.97 473.534C245.668 473.534 247.635 473.476 247.871 473.358C248.036 473.311 248.319 472.262 248.719 470.213V470.107H250.133V470.213C250.109 470.283 249.956 471.355 249.673 473.428C249.391 475.502 249.214 476.585 249.143 476.679V476.785H236.033V476.114V475.69C236.033 475.525 236.104 475.348 236.245 475.16C236.386 474.971 236.74 474.559 237.305 473.923C237.988 473.169 238.577 472.51 239.072 471.944C239.284 471.709 239.685 471.273 240.273 470.637C240.862 470.001 241.263 469.565 241.475 469.329C241.687 469.094 242.029 468.705 242.5 468.163C242.971 467.621 243.301 467.221 243.489 466.962C243.678 466.702 243.949 466.349 244.302 465.901C244.655 465.454 244.903 465.077 245.044 464.771C245.185 464.464 245.362 464.123 245.574 463.746C245.786 463.369 245.939 462.992 246.033 462.615C246.128 462.238 246.21 461.885 246.281 461.555C246.352 461.225 246.387 460.836 246.387 460.389C246.387 458.905 245.986 457.621 245.185 456.537C244.384 455.453 243.242 454.912 241.758 454.912C240.98 454.912 240.297 455.112 239.708 455.512C239.119 455.913 238.707 456.301 238.471 456.678C238.236 457.055 238.118 457.279 238.118 457.35C238.118 457.373 238.177 457.385 238.295 457.385C238.719 457.385 239.154 457.55 239.602 457.88C240.05 458.21 240.273 458.752 240.273 459.505C240.273 460.094 240.085 460.589 239.708 460.99C239.331 461.39 238.801 461.602 238.118 461.626Z" fill="#E7EFF9"/>
<path d="M263.086 450.295C263.086 449.462 262.769 449.045 262.136 449.045C261.337 449.045 260.504 449.528 259.637 450.495C258.771 451.461 258.054 452.944 257.488 454.943C257.455 454.977 257.421 455.027 257.388 455.093C257.355 455.16 257.338 455.21 257.338 455.243C257.338 455.276 257.305 455.31 257.238 455.343C257.171 455.376 257.121 455.393 257.088 455.393C257.055 455.393 256.988 455.393 256.888 455.393C256.788 455.393 256.655 455.393 256.488 455.393H255.789C255.589 455.193 255.489 455.043 255.489 454.943C255.489 454.71 255.622 454.227 255.888 453.494C256.155 452.761 256.555 451.894 257.088 450.895C257.621 449.895 258.354 449.045 259.287 448.346C260.22 447.646 261.27 447.279 262.436 447.246C263.836 447.246 264.919 447.646 265.685 448.445C266.451 449.245 266.851 450.178 266.885 451.245C266.885 451.811 266.835 452.244 266.735 452.544C266.735 452.744 266.485 453.477 265.985 454.743C265.485 456.009 264.969 457.492 264.435 459.192C263.902 460.891 263.602 462.374 263.536 463.64C263.536 464.54 263.619 465.273 263.786 465.839C264.219 467.272 265.269 467.989 266.935 467.989C268.167 467.989 269.317 467.422 270.383 466.289C271.45 465.156 272.283 463.84 272.882 462.341C273.482 460.841 273.965 459.458 274.332 458.192C274.699 456.926 274.882 456.009 274.882 455.443C274.882 454.677 274.748 454.01 274.482 453.444C274.215 452.877 273.915 452.444 273.582 452.144C273.249 451.844 272.949 451.544 272.683 451.245C272.416 450.945 272.283 450.578 272.283 450.145C272.283 449.412 272.599 448.729 273.232 448.096C273.865 447.463 274.549 447.146 275.282 447.146C275.915 447.146 276.481 447.446 276.981 448.046C277.481 448.645 277.747 449.612 277.781 450.945C277.781 451.844 277.581 453.227 277.181 455.093C276.781 456.959 276.165 459.042 275.332 461.341C274.499 463.64 273.316 465.623 271.783 467.289C270.25 468.955 268.484 469.805 266.485 469.838C264.352 469.838 262.653 469.288 261.387 468.189C260.154 467.122 259.537 465.539 259.537 463.44C259.537 462.407 259.67 461.341 259.937 460.241C260.204 459.142 260.887 457.192 261.986 454.393C262.719 452.261 263.086 450.895 263.086 450.295Z" fill="#E7EFF9"/>
<path d="M282.532 461.626C281.896 461.626 281.39 461.414 281.013 460.99C280.636 460.566 280.447 460.047 280.447 459.435C280.447 457.762 281.072 456.313 282.32 455.088C283.569 453.863 285.124 453.251 286.985 453.251C289.129 453.251 290.919 453.91 292.356 455.23C293.793 456.549 294.523 458.257 294.547 460.354C294.547 461.367 294.311 462.332 293.84 463.251C293.369 464.17 292.804 464.971 292.144 465.654C291.484 466.337 290.542 467.209 289.317 468.269C288.469 468.999 287.291 470.083 285.783 471.52L283.698 473.499L286.384 473.534C290.083 473.534 292.05 473.476 292.285 473.358C292.45 473.311 292.733 472.262 293.134 470.213V470.107H294.547V470.213C294.523 470.283 294.37 471.355 294.088 473.428C293.805 475.502 293.628 476.585 293.558 476.679V476.785H280.447V476.114V475.69C280.447 475.525 280.518 475.348 280.659 475.16C280.801 474.971 281.154 474.559 281.719 473.923C282.403 473.169 282.992 472.51 283.486 471.944C283.698 471.709 284.099 471.273 284.688 470.637C285.277 470.001 285.677 469.565 285.889 469.329C286.101 469.094 286.443 468.705 286.914 468.163C287.385 467.621 287.715 467.221 287.904 466.962C288.092 466.702 288.363 466.349 288.716 465.901C289.07 465.454 289.317 465.077 289.458 464.771C289.6 464.464 289.776 464.123 289.988 463.746C290.2 463.369 290.354 462.992 290.448 462.615C290.542 462.238 290.625 461.885 290.695 461.555C290.766 461.225 290.801 460.836 290.801 460.389C290.801 458.905 290.401 457.621 289.6 456.537C288.799 455.453 287.656 454.912 286.172 454.912C285.395 454.912 284.711 455.112 284.122 455.512C283.533 455.913 283.121 456.301 282.886 456.678C282.65 457.055 282.532 457.279 282.532 457.35C282.532 457.373 282.591 457.385 282.709 457.385C283.133 457.385 283.569 457.55 284.016 457.88C284.464 458.21 284.688 458.752 284.688 459.505C284.688 460.094 284.499 460.589 284.122 460.99C283.745 461.39 283.215 461.602 282.532 461.626Z" fill="#E7EFF9"/>
<path d="M301.647 457.442C301.647 457.442 301.647 457.226 301.647 456.793C301.647 456.36 301.881 456.026 302.347 455.793H317.292V448.296L317.342 440.798C317.675 440.365 317.992 440.149 318.291 440.149C318.725 440.149 319.058 440.398 319.291 440.898V455.793H334.186C334.686 456.06 334.936 456.393 334.936 456.793C334.936 457.193 334.686 457.526 334.186 457.792H319.291V472.687C319.025 473.154 318.725 473.387 318.391 473.387H318.291H318.192C317.792 473.387 317.492 473.154 317.292 472.687V457.792H302.347C301.881 457.559 301.647 457.226 301.647 456.793V457.442Z" fill="#E7EFF9"/>
<path d="M341.633 466.29C341.633 465.49 341.917 464.79 342.483 464.19C343.049 463.591 343.766 463.291 344.632 463.291C345.432 463.291 346.132 463.557 346.732 464.09C347.331 464.623 347.648 465.34 347.681 466.24C347.681 467.073 347.398 467.789 346.831 468.389C346.265 468.989 345.549 469.289 344.682 469.289C343.816 469.289 343.099 469.005 342.533 468.439C341.967 467.872 341.667 467.156 341.633 466.29Z" fill="#E7EFF9"/>
<path d="M363.86 466.29C363.86 465.49 364.144 464.79 364.71 464.19C365.277 463.591 365.993 463.291 366.859 463.291C367.659 463.291 368.359 463.557 368.959 464.09C369.558 464.623 369.875 465.34 369.908 466.24C369.908 467.073 369.625 467.789 369.059 468.389C368.492 468.989 367.776 469.289 366.909 469.289C366.043 469.289 365.327 469.005 364.76 468.439C364.194 467.872 363.894 467.156 363.86 466.29Z" fill="#E7EFF9"/>
<path d="M386.083 466.29C386.083 465.49 386.366 464.79 386.932 464.19C387.499 463.591 388.215 463.291 389.082 463.291C389.881 463.291 390.581 463.557 391.181 464.09C391.781 464.623 392.097 465.34 392.13 466.24C392.13 467.073 391.847 467.789 391.281 468.389C390.714 468.989 389.998 469.289 389.132 469.289C388.265 469.289 387.549 469.005 386.982 468.439C386.416 467.872 386.116 467.156 386.083 466.29Z" fill="#E7EFF9"/>
<path d="M407.21 457.442C407.21 457.442 407.21 457.226 407.21 456.793C407.21 456.36 407.443 456.026 407.91 455.793H422.855V448.296L422.905 440.798C423.238 440.365 423.554 440.149 423.854 440.149C424.287 440.149 424.621 440.398 424.854 440.898V455.793H439.749C440.249 456.06 440.498 456.393 440.498 456.793C440.498 457.193 440.249 457.526 439.749 457.792H424.854V472.687C424.587 473.154 424.287 473.387 423.954 473.387H423.854H423.754C423.354 473.387 423.055 473.154 422.855 472.687V457.792H407.91C407.443 457.559 407.21 457.226 407.21 456.793V457.442Z" fill="#E7EFF9"/>
<path d="M444.997 461.341C444.997 457.709 446.43 454.443 449.295 451.544C452.161 448.645 455.26 447.196 458.592 447.196C460.458 447.196 461.924 447.596 462.99 448.396C464.057 449.195 464.607 450.245 464.64 451.544C464.64 452.511 464.323 453.327 463.69 453.994C463.057 454.66 462.257 455.01 461.291 455.043C460.658 455.043 460.158 454.877 459.792 454.543C459.425 454.21 459.242 453.71 459.242 453.044C459.242 452.378 459.425 451.811 459.792 451.345C460.158 450.878 460.525 450.528 460.891 450.295C461.258 450.062 461.491 449.962 461.591 449.995H461.641C461.641 449.928 461.541 449.828 461.341 449.695C461.141 449.562 460.791 449.429 460.291 449.295C459.792 449.162 459.225 449.095 458.592 449.095C457.592 449.095 456.643 449.329 455.743 449.795C455.043 450.095 454.327 450.611 453.594 451.345C452.128 452.811 451.061 454.877 450.395 457.542C449.728 460.208 449.379 462.141 449.345 463.34C449.345 464.873 449.778 466.023 450.645 466.789C451.378 467.589 452.344 467.989 453.544 467.989H453.744C457.476 467.989 460.558 466.573 462.99 463.74C463.29 463.407 463.49 463.24 463.59 463.24C463.724 463.24 463.94 463.39 464.24 463.69C464.54 463.99 464.707 464.223 464.74 464.39C464.773 464.557 464.623 464.806 464.29 465.14C463.957 465.473 463.474 465.939 462.841 466.539C462.207 467.139 461.458 467.639 460.591 468.039C459.725 468.439 458.659 468.855 457.392 469.288C456.126 469.721 454.793 469.905 453.394 469.838C450.895 469.838 448.879 469.038 447.346 467.439C445.813 465.839 445.03 463.807 444.997 461.341Z" fill="#E7EFF9"/>
<path d="M465.682 466.644C465.705 466.502 465.741 466.314 465.788 466.078C465.835 465.843 465.976 465.395 466.212 464.736C466.448 464.076 466.683 463.522 466.919 463.075C467.154 462.627 467.543 462.191 468.085 461.767C468.627 461.343 469.169 461.143 469.71 461.166C470.558 461.166 471.265 461.378 471.831 461.803C472.396 462.227 472.749 462.627 472.891 463.004C473.032 463.381 473.103 463.628 473.103 463.746C473.103 463.793 473.115 463.817 473.138 463.817L473.527 463.428C474.964 461.92 476.601 461.166 478.439 461.166C479.711 461.166 480.736 461.485 481.513 462.121C482.291 462.757 482.691 463.687 482.715 464.912C482.738 466.137 482.291 467.987 481.372 470.46C480.453 472.934 480.005 474.43 480.029 474.948C480.029 475.561 480.229 475.867 480.63 475.867C480.771 475.867 480.877 475.855 480.948 475.832C481.631 475.714 482.243 475.266 482.785 474.489C483.327 473.711 483.739 472.769 484.022 471.662C484.069 471.473 484.305 471.379 484.729 471.379C485.2 471.379 485.436 471.473 485.436 471.662C485.436 471.685 485.388 471.862 485.294 472.192C485.106 472.875 484.847 473.546 484.517 474.206C484.187 474.866 483.645 475.525 482.891 476.185C482.137 476.845 481.325 477.163 480.453 477.139C479.346 477.139 478.545 476.821 478.05 476.185C477.555 475.549 477.308 474.889 477.308 474.206C477.308 473.758 477.732 472.345 478.58 469.966C479.428 467.586 479.864 465.796 479.888 464.594C479.888 463.204 479.369 462.509 478.333 462.509H478.156C476.13 462.509 474.422 463.699 473.032 466.078L472.785 466.502L471.619 471.238C470.841 474.324 470.394 475.985 470.276 476.22C469.97 476.856 469.463 477.174 468.756 477.174C468.45 477.174 468.203 477.104 468.014 476.962C467.826 476.821 467.696 476.68 467.625 476.538C467.555 476.397 467.531 476.279 467.555 476.185C467.555 475.879 468.002 473.959 468.898 470.425C469.793 466.891 470.264 464.971 470.311 464.665C470.335 464.547 470.346 464.276 470.346 463.852C470.346 462.933 470.064 462.474 469.498 462.474C468.603 462.474 467.861 463.652 467.272 466.008C467.131 466.479 467.06 466.726 467.06 466.75C467.013 466.891 466.789 466.962 466.389 466.962H465.894C465.753 466.82 465.682 466.714 465.682 466.644Z" fill="#E7EFF9"/>
<path d="M497.293 450.295C497.293 449.462 496.977 449.045 496.344 449.045C495.544 449.045 494.711 449.528 493.845 450.495C492.978 451.461 492.262 452.944 491.695 454.943C491.662 454.977 491.629 455.027 491.595 455.093C491.562 455.16 491.545 455.21 491.545 455.243C491.545 455.276 491.512 455.31 491.445 455.343C491.379 455.376 491.329 455.393 491.295 455.393C491.262 455.393 491.196 455.393 491.096 455.393C490.996 455.393 490.862 455.393 490.696 455.393H489.996C489.796 455.193 489.696 455.043 489.696 454.943C489.696 454.71 489.829 454.227 490.096 453.494C490.362 452.761 490.762 451.894 491.295 450.895C491.829 449.895 492.562 449.045 493.495 448.346C494.428 447.646 495.477 447.279 496.644 447.246C498.043 447.246 499.126 447.646 499.892 448.445C500.659 449.245 501.059 450.178 501.092 451.245C501.092 451.811 501.042 452.244 500.942 452.544C500.942 452.744 500.692 453.477 500.192 454.743C499.693 456.009 499.176 457.492 498.643 459.192C498.11 460.891 497.81 462.374 497.743 463.64C497.743 464.54 497.827 465.273 497.993 465.839C498.426 467.272 499.476 467.989 501.142 467.989C502.375 467.989 503.525 467.422 504.591 466.289C505.657 465.156 506.49 463.84 507.09 462.341C507.69 460.841 508.173 459.458 508.539 458.192C508.906 456.926 509.089 456.009 509.089 455.443C509.089 454.677 508.956 454.01 508.689 453.444C508.423 452.877 508.123 452.444 507.79 452.144C507.456 451.844 507.157 451.544 506.89 451.245C506.623 450.945 506.49 450.578 506.49 450.145C506.49 449.412 506.807 448.729 507.44 448.096C508.073 447.463 508.756 447.146 509.489 447.146C510.122 447.146 510.689 447.446 511.188 448.046C511.688 448.645 511.955 449.612 511.988 450.945C511.988 451.844 511.788 453.227 511.388 455.093C510.989 456.959 510.372 459.042 509.539 461.341C508.706 463.64 507.523 465.623 505.99 467.289C504.458 468.955 502.691 469.805 500.692 469.838C498.56 469.838 496.86 469.288 495.594 468.189C494.361 467.122 493.745 465.539 493.745 463.44C493.745 462.407 493.878 461.341 494.144 460.241C494.411 459.142 495.094 457.192 496.194 454.393C496.927 452.261 497.293 450.895 497.293 450.295Z" fill="#E7EFF9"/>
<path d="M513.63 466.644C513.654 466.502 513.689 466.314 513.736 466.078C513.783 465.843 513.924 465.395 514.16 464.736C514.396 464.076 514.631 463.522 514.867 463.075C515.102 462.627 515.491 462.191 516.033 461.767C516.575 461.343 517.117 461.143 517.658 461.166C518.507 461.166 519.213 461.378 519.779 461.803C520.344 462.227 520.698 462.627 520.839 463.004C520.98 463.381 521.051 463.628 521.051 463.746C521.051 463.793 521.063 463.817 521.086 463.817L521.475 463.428C522.912 461.92 524.549 461.166 526.387 461.166C527.659 461.166 528.684 461.485 529.461 462.121C530.239 462.757 530.639 463.687 530.663 464.912C530.686 466.137 530.239 467.987 529.32 470.46C528.401 472.934 527.953 474.43 527.977 474.948C527.977 475.561 528.177 475.867 528.578 475.867C528.719 475.867 528.825 475.855 528.896 475.832C529.579 475.714 530.192 475.266 530.733 474.489C531.275 473.711 531.687 472.769 531.97 471.662C532.017 471.473 532.253 471.379 532.677 471.379C533.148 471.379 533.384 471.473 533.384 471.662C533.384 471.685 533.337 471.862 533.242 472.192C533.054 472.875 532.795 473.546 532.465 474.206C532.135 474.866 531.593 475.525 530.839 476.185C530.086 476.845 529.273 477.163 528.401 477.139C527.294 477.139 526.493 476.821 525.998 476.185C525.503 475.549 525.256 474.889 525.256 474.206C525.256 473.758 525.68 472.345 526.528 469.966C527.376 467.586 527.812 465.796 527.836 464.594C527.836 463.204 527.317 462.509 526.281 462.509H526.104C524.078 462.509 522.37 463.699 520.98 466.078L520.733 466.502L519.567 471.238C518.789 474.324 518.342 475.985 518.224 476.22C517.918 476.856 517.411 477.174 516.704 477.174C516.398 477.174 516.151 477.104 515.962 476.962C515.774 476.821 515.644 476.68 515.574 476.538C515.503 476.397 515.479 476.279 515.503 476.185C515.503 475.879 515.951 473.959 516.846 470.425C517.741 466.891 518.212 464.971 518.259 464.665C518.283 464.547 518.295 464.276 518.295 463.852C518.295 462.933 518.012 462.474 517.446 462.474C516.551 462.474 515.809 463.652 515.22 466.008C515.079 466.479 515.008 466.726 515.008 466.75C514.961 466.891 514.737 466.962 514.337 466.962H513.842C513.701 466.82 513.63 466.714 513.63 466.644Z" fill="#E7EFF9"/>
<path d="M233.331 420.04C232.099 420.04 231.099 419.88 230.331 419.56C229.563 419.24 228.995 418.808 228.627 418.264C228.259 417.72 228.027 417.112 227.931 416.44H230.139C230.299 416.952 230.603 417.36 231.051 417.664C231.499 417.968 232.259 418.12 233.331 418.12C234.627 418.12 235.579 417.808 236.187 417.184C236.795 416.56 237.099 415.672 237.099 414.52V412.48C236.731 413.328 236.163 413.96 235.395 414.376C234.643 414.792 233.755 415 232.731 415C231.691 415 230.771 414.76 229.971 414.28C229.171 413.8 228.547 413.088 228.099 412.144C227.667 411.2 227.451 410.032 227.451 408.64V408.16C227.451 406.848 227.675 405.744 228.123 404.848C228.587 403.936 229.211 403.24 229.995 402.76C230.795 402.28 231.707 402.04 232.731 402.04C233.819 402.04 234.763 402.288 235.563 402.784C236.363 403.264 236.923 403.896 237.243 404.68V402.28H239.211V414.52C239.211 416.248 238.707 417.6 237.699 418.576C236.691 419.552 235.235 420.04 233.331 420.04ZM233.211 413.128C233.979 413.128 234.651 412.968 235.227 412.648C235.819 412.328 236.275 411.888 236.595 411.328C236.931 410.752 237.099 410.096 237.099 409.36V407.44C237.099 406.784 236.931 406.192 236.595 405.664C236.275 405.136 235.819 404.712 235.227 404.392C234.651 404.072 233.979 403.912 233.211 403.912C232.187 403.912 231.323 404.288 230.619 405.04C229.915 405.792 229.563 406.832 229.563 408.16V408.64C229.563 410.096 229.915 411.208 230.619 411.976C231.323 412.744 232.187 413.128 233.211 413.128ZM248.337 415.24C247.265 415.24 246.257 415.008 245.313 414.544C244.385 414.08 243.633 413.368 243.057 412.408C242.497 411.448 242.217 410.232 242.217 408.76V408.28C242.217 406.872 242.489 405.712 243.033 404.8C243.577 403.872 244.297 403.184 245.193 402.736C246.089 402.272 247.057 402.04 248.097 402.04C249.969 402.04 251.417 402.552 252.441 403.576C253.465 404.6 253.977 406.048 253.977 407.92V409.264H244.329C244.329 410.256 244.529 411.048 244.929 411.64C245.345 412.232 245.857 412.664 246.465 412.936C247.089 413.192 247.713 413.32 248.337 413.32C249.297 413.32 250.033 413.16 250.545 412.84C251.073 412.52 251.449 412.08 251.673 411.52H253.737C253.481 412.736 252.849 413.664 251.841 414.304C250.849 414.928 249.681 415.24 248.337 415.24ZM248.217 403.96C247.561 403.96 246.937 404.088 246.345 404.344C245.753 404.584 245.265 404.968 244.881 405.496C244.513 406.024 244.329 406.704 244.329 407.536H251.985C251.969 406.656 251.785 405.96 251.433 405.448C251.097 404.92 250.649 404.544 250.089 404.32C249.529 404.08 248.905 403.96 248.217 403.96ZM256.979 415V402.28H258.947V404.68C259.235 403.976 259.739 403.36 260.459 402.832C261.195 402.304 262.139 402.04 263.291 402.04C264.891 402.04 266.075 402.472 266.843 403.336C267.627 404.184 268.019 405.432 268.019 407.08V415H265.907V407.56C265.907 406.376 265.659 405.48 265.163 404.872C264.667 404.264 263.835 403.96 262.667 403.96C261.835 403.96 261.155 404.136 260.627 404.488C260.099 404.84 259.707 405.288 259.451 405.832C259.211 406.376 259.091 406.952 259.091 407.56V415H256.979ZM277.024 415.24C275.952 415.24 274.944 415.008 274 414.544C273.072 414.08 272.32 413.368 271.744 412.408C271.184 411.448 270.904 410.232 270.904 408.76V408.28C270.904 406.872 271.176 405.712 271.72 404.8C272.264 403.872 272.984 403.184 273.88 402.736C274.776 402.272 275.744 402.04 276.784 402.04C278.656 402.04 280.104 402.552 281.128 403.576C282.152 404.6 282.664 406.048 282.664 407.92V409.264H273.016C273.016 410.256 273.216 411.048 273.616 411.64C274.032 412.232 274.544 412.664 275.152 412.936C275.776 413.192 276.4 413.32 277.024 413.32C277.984 413.32 278.72 413.16 279.232 412.84C279.76 412.52 280.136 412.08 280.36 411.52H282.424C282.168 412.736 281.536 413.664 280.528 414.304C279.536 414.928 278.368 415.24 277.024 415.24ZM276.904 403.96C276.248 403.96 275.624 404.088 275.032 404.344C274.44 404.584 273.952 404.968 273.568 405.496C273.2 406.024 273.016 406.704 273.016 407.536H280.672C280.656 406.656 280.472 405.96 280.12 405.448C279.784 404.92 279.336 404.544 278.776 404.32C278.216 404.08 277.592 403.96 276.904 403.96ZM285.666 415V402.28H287.634V404.68C287.826 404.168 288.09 403.72 288.426 403.336C288.762 402.936 289.17 402.624 289.65 402.4C290.146 402.16 290.698 402.04 291.306 402.04C291.626 402.04 291.882 402.056 292.074 402.088C292.282 402.12 292.466 402.16 292.626 402.208V404.176C292.418 404.096 292.21 404.04 292.002 404.008C291.81 403.976 291.538 403.96 291.186 403.96C290.546 403.96 289.97 404.112 289.458 404.416C288.946 404.72 288.538 405.144 288.234 405.688C287.93 406.216 287.778 406.84 287.778 407.56V415H285.666ZM298.407 415.24C297.479 415.24 296.687 415.072 296.031 414.736C295.391 414.384 294.903 413.912 294.567 413.32C294.231 412.712 294.063 412.032 294.063 411.28C294.063 410.016 294.431 409.104 295.167 408.544C295.919 407.984 296.991 407.704 298.383 407.704H302.511V406.84C302.511 405.752 302.263 405 301.767 404.584C301.287 404.168 300.559 403.96 299.583 403.96C298.671 403.96 298.007 404.136 297.591 404.488C297.175 404.824 296.943 405.208 296.895 405.64H294.783C294.831 404.952 295.063 404.344 295.479 403.816C295.895 403.272 296.463 402.84 297.183 402.52C297.903 402.2 298.743 402.04 299.703 402.04C300.711 402.04 301.583 402.2 302.319 402.52C303.055 402.824 303.623 403.312 304.023 403.984C304.423 404.64 304.623 405.512 304.623 406.6V411.76C304.623 412.432 304.623 413.024 304.623 413.536C304.639 414.032 304.679 414.52 304.743 415H302.895C302.847 414.632 302.815 414.288 302.799 413.968C302.783 413.632 302.775 413.256 302.775 412.84C302.439 413.512 301.895 414.08 301.143 414.544C300.391 415.008 299.479 415.24 298.407 415.24ZM298.863 413.32C299.535 413.32 300.143 413.2 300.687 412.96C301.247 412.72 301.687 412.368 302.007 411.904C302.343 411.44 302.511 410.872 302.511 410.2V409.336H298.743C297.959 409.336 297.343 409.496 296.895 409.816C296.447 410.12 296.223 410.608 296.223 411.28C296.223 411.872 296.431 412.36 296.847 412.744C297.279 413.128 297.951 413.32 298.863 413.32ZM312.194 415.12C311.314 415.12 310.594 414.984 310.034 414.712C309.49 414.424 309.09 413.984 308.834 413.392C308.594 412.784 308.474 412 308.474 411.04V398.2H310.586V411.04C310.586 411.872 310.722 412.44 310.994 412.744C311.266 413.048 311.746 413.2 312.434 413.2C312.61 413.2 312.762 413.2 312.89 413.2C313.018 413.184 313.146 413.168 313.274 413.152V415.024C313.194 415.04 313.082 415.056 312.938 415.072C312.81 415.088 312.674 415.096 312.53 415.096C312.402 415.112 312.29 415.12 312.194 415.12ZM322.761 415V404.152H320.961V402.28H322.761V402.04C322.761 401.144 322.897 400.408 323.169 399.832C323.441 399.24 323.857 398.8 324.417 398.512C324.993 398.224 325.721 398.08 326.601 398.08C326.841 398.08 327.113 398.088 327.417 398.104C327.721 398.104 328.049 398.12 328.401 398.152V400.072C328.161 400.04 327.897 400.024 327.609 400.024C327.337 400.008 327.081 400 326.841 400C326.105 400 325.593 400.152 325.305 400.456C325.017 400.744 324.873 401.272 324.873 402.04V402.28H328.161V404.152H324.873V415H322.761ZM335.852 415.24C334.78 415.24 333.772 415.008 332.828 414.544C331.9 414.064 331.148 413.344 330.572 412.384C330.012 411.424 329.732 410.216 329.732 408.76V408.28C329.732 406.904 330.012 405.752 330.572 404.824C331.148 403.896 331.9 403.2 332.828 402.736C333.772 402.272 334.78 402.04 335.852 402.04C336.94 402.04 337.948 402.272 338.876 402.736C339.804 403.2 340.548 403.896 341.108 404.824C341.684 405.752 341.972 406.904 341.972 408.28V408.76C341.972 410.216 341.684 411.424 341.108 412.384C340.548 413.344 339.804 414.064 338.876 414.544C337.948 415.008 336.94 415.24 335.852 415.24ZM335.852 413.32C336.508 413.32 337.132 413.176 337.724 412.888C338.332 412.584 338.828 412.096 339.212 411.424C339.612 410.752 339.812 409.864 339.812 408.76V408.28C339.812 407.256 339.612 406.432 339.212 405.808C338.828 405.168 338.332 404.704 337.724 404.416C337.132 404.112 336.508 403.96 335.852 403.96C335.212 403.96 334.588 404.112 333.98 404.416C333.372 404.704 332.868 405.168 332.468 405.808C332.084 406.432 331.892 407.256 331.892 408.28V408.76C331.892 409.864 332.084 410.752 332.468 411.424C332.868 412.096 333.372 412.584 333.98 412.888C334.588 413.176 335.212 413.32 335.852 413.32ZM344.963 415V402.28H346.931V404.68C347.123 404.168 347.387 403.72 347.723 403.336C348.059 402.936 348.467 402.624 348.947 402.4C349.443 402.16 349.995 402.04 350.603 402.04C350.923 402.04 351.179 402.056 351.371 402.088C351.579 402.12 351.763 402.16 351.923 402.208V404.176C351.715 404.096 351.507 404.04 351.299 404.008C351.107 403.976 350.835 403.96 350.483 403.96C349.843 403.96 349.267 404.112 348.755 404.416C348.243 404.72 347.835 405.144 347.531 405.688C347.227 406.216 347.075 406.84 347.075 407.56V415H344.963ZM354.315 415V402.28H356.283V404.68C356.555 403.896 357.019 403.264 357.675 402.784C358.347 402.288 359.107 402.04 359.955 402.04C361.059 402.04 361.907 402.28 362.499 402.76C363.091 403.224 363.499 403.824 363.723 404.56C364.139 403.776 364.667 403.16 365.307 402.712C365.963 402.264 366.747 402.04 367.659 402.04C368.971 402.04 369.995 402.44 370.731 403.24C371.467 404.024 371.835 405.264 371.835 406.96V415H369.723V407.44C369.723 406.176 369.499 405.28 369.051 404.752C368.619 404.224 367.955 403.96 367.059 403.96C366.547 403.96 366.067 404.104 365.619 404.392C365.171 404.664 364.811 405.064 364.539 405.592C364.267 406.104 364.131 406.72 364.131 407.44V415H362.019V407.44C362.019 406.176 361.795 405.28 361.347 404.752C360.899 404.224 360.235 403.96 359.355 403.96C358.843 403.96 358.363 404.104 357.915 404.392C357.467 404.664 357.107 405.064 356.835 405.592C356.563 406.104 356.427 406.72 356.427 407.44V415H354.315Z" fill="#656AFF"/>
<path d="M134.76 522L129.48 509.28H131.832L135.96 519.84L139.704 509.28H141.96L137.16 522H134.76ZM149.161 522.24C148.089 522.24 147.081 522.008 146.137 521.544C145.209 521.08 144.457 520.368 143.881 519.408C143.321 518.448 143.041 517.232 143.041 515.76V515.28C143.041 513.872 143.313 512.712 143.857 511.8C144.401 510.872 145.121 510.184 146.017 509.736C146.913 509.272 147.881 509.04 148.921 509.04C150.793 509.04 152.241 509.552 153.265 510.576C154.289 511.6 154.801 513.048 154.801 514.92V516.264H145.153C145.153 517.256 145.353 518.048 145.753 518.64C146.169 519.232 146.681 519.664 147.289 519.936C147.913 520.192 148.537 520.32 149.161 520.32C150.121 520.32 150.857 520.16 151.369 519.84C151.897 519.52 152.273 519.08 152.497 518.52H154.561C154.305 519.736 153.673 520.664 152.665 521.304C151.673 521.928 150.505 522.24 149.161 522.24ZM149.041 510.96C148.385 510.96 147.761 511.088 147.169 511.344C146.577 511.584 146.089 511.968 145.705 512.496C145.337 513.024 145.153 513.704 145.153 514.536H152.809C152.793 513.656 152.609 512.96 152.257 512.448C151.921 511.92 151.473 511.544 150.913 511.32C150.353 511.08 149.729 510.96 149.041 510.96ZM162.723 522.24C161.635 522.24 160.651 522.008 159.771 521.544C158.907 521.064 158.219 520.344 157.707 519.384C157.211 518.424 156.963 517.216 156.963 515.76V515.28C156.963 513.904 157.235 512.752 157.779 511.824C158.323 510.896 159.035 510.2 159.915 509.736C160.795 509.272 161.731 509.04 162.723 509.04C163.731 509.04 164.595 509.224 165.315 509.592C166.051 509.944 166.643 510.432 167.091 511.056C167.539 511.664 167.843 512.352 168.003 513.12H165.843C165.587 512.512 165.227 512 164.763 511.584C164.315 511.168 163.635 510.96 162.723 510.96C162.099 510.96 161.515 511.112 160.971 511.416C160.427 511.704 159.979 512.168 159.627 512.808C159.291 513.432 159.123 514.256 159.123 515.28V515.76C159.123 516.848 159.291 517.728 159.627 518.4C159.979 519.072 160.427 519.56 160.971 519.864C161.515 520.168 162.099 520.32 162.723 520.32C163.507 520.32 164.163 520.128 164.691 519.744C165.235 519.36 165.619 518.832 165.843 518.16H168.003C167.811 518.992 167.467 519.72 166.971 520.344C166.475 520.952 165.867 521.424 165.147 521.76C164.427 522.08 163.619 522.24 162.723 522.24ZM175.561 522.12C174.665 522.12 173.929 521.984 173.353 521.712C172.793 521.44 172.377 521.032 172.105 520.488C171.849 519.928 171.721 519.232 171.721 518.4V511.152H169.801V509.28H171.721V506.4H173.833V509.28H177.241V511.152H173.833V518.16C173.833 518.88 173.985 519.4 174.289 519.72C174.593 520.04 175.177 520.2 176.041 520.2C176.521 520.2 177.001 520.176 177.481 520.128V522C177.177 522.032 176.873 522.056 176.569 522.072C176.265 522.104 175.929 522.12 175.561 522.12ZM185.77 522.24C184.698 522.24 183.69 522.008 182.746 521.544C181.818 521.064 181.066 520.344 180.49 519.384C179.93 518.424 179.65 517.216 179.65 515.76V515.28C179.65 513.904 179.93 512.752 180.49 511.824C181.066 510.896 181.818 510.2 182.746 509.736C183.69 509.272 184.698 509.04 185.77 509.04C186.858 509.04 187.866 509.272 188.794 509.736C189.722 510.2 190.466 510.896 191.026 511.824C191.602 512.752 191.89 513.904 191.89 515.28V515.76C191.89 517.216 191.602 518.424 191.026 519.384C190.466 520.344 189.722 521.064 188.794 521.544C187.866 522.008 186.858 522.24 185.77 522.24ZM185.77 520.32C186.426 520.32 187.05 520.176 187.642 519.888C188.25 519.584 188.746 519.096 189.13 518.424C189.53 517.752 189.73 516.864 189.73 515.76V515.28C189.73 514.256 189.53 513.432 189.13 512.808C188.746 512.168 188.25 511.704 187.642 511.416C187.05 511.112 186.426 510.96 185.77 510.96C185.13 510.96 184.506 511.112 183.898 511.416C183.29 511.704 182.786 512.168 182.386 512.808C182.002 513.432 181.81 514.256 181.81 515.28V515.76C181.81 516.864 182.002 517.752 182.386 518.424C182.786 519.096 183.29 519.584 183.898 519.888C184.506 520.176 185.13 520.32 185.77 520.32ZM194.881 522V509.28H196.849V511.68C197.041 511.168 197.305 510.72 197.641 510.336C197.977 509.936 198.385 509.624 198.865 509.4C199.361 509.16 199.913 509.04 200.521 509.04C200.841 509.04 201.097 509.056 201.289 509.088C201.497 509.12 201.681 509.16 201.841 509.208V511.176C201.633 511.096 201.425 511.04 201.217 511.008C201.025 510.976 200.753 510.96 200.401 510.96C199.761 510.96 199.185 511.112 198.673 511.416C198.161 511.72 197.753 512.144 197.449 512.688C197.145 513.216 196.993 513.84 196.993 514.56V522H194.881ZM208.673 522.24C207.825 522.24 207.089 522.144 206.465 521.952C205.841 521.744 205.321 521.472 204.905 521.136C204.489 520.8 204.153 520.408 203.896 519.96C203.657 519.496 203.489 519.016 203.393 518.52H205.505C205.617 519.032 205.913 519.48 206.393 519.864C206.889 520.232 207.649 520.416 208.673 520.416C209.857 520.416 210.681 520.232 211.145 519.864C211.609 519.48 211.841 519.032 211.841 518.52C211.841 518.168 211.737 517.864 211.529 517.608C211.337 517.336 210.985 517.104 210.473 516.912C209.977 516.72 209.265 516.56 208.337 516.432C207.633 516.336 207.001 516.2 206.441 516.024C205.881 515.832 205.401 515.584 205.001 515.28C204.601 514.976 204.289 514.608 204.065 514.176C203.857 513.744 203.753 513.232 203.753 512.64C203.753 512 203.937 511.408 204.305 510.864C204.673 510.32 205.225 509.88 205.961 509.544C206.697 509.208 207.601 509.04 208.673 509.04C209.681 509.04 210.513 509.216 211.169 509.568C211.841 509.904 212.361 510.352 212.729 510.912C213.097 511.472 213.345 512.088 213.473 512.76H211.361C211.233 512.2 210.961 511.744 210.545 511.392C210.129 511.04 209.505 510.864 208.673 510.864C207.633 510.864 206.905 511.04 206.489 511.392C206.073 511.728 205.865 512.144 205.865 512.64C205.865 513.216 206.089 513.648 206.537 513.936C207.001 514.224 207.841 514.448 209.057 514.608C209.841 514.704 210.537 514.848 211.145 515.04C211.753 515.216 212.265 515.464 212.681 515.784C213.097 516.088 213.409 516.464 213.617 516.912C213.841 517.36 213.953 517.896 213.953 518.52C213.953 519.192 213.761 519.808 213.377 520.368C212.993 520.928 212.409 521.384 211.625 521.736C210.857 522.072 209.873 522.24 208.673 522.24ZM262.583 522.24C261.655 522.24 260.863 522.072 260.207 521.736C259.567 521.384 259.079 520.912 258.743 520.32C258.407 519.712 258.239 519.032 258.239 518.28C258.239 517.016 258.607 516.104 259.343 515.544C260.095 514.984 261.167 514.704 262.559 514.704H266.687V513.84C266.687 512.752 266.439 512 265.943 511.584C265.463 511.168 264.735 510.96 263.759 510.96C262.847 510.96 262.183 511.136 261.767 511.488C261.351 511.824 261.119 512.208 261.071 512.64H258.959C259.007 511.952 259.239 511.344 259.655 510.816C260.071 510.272 260.639 509.84 261.359 509.52C262.079 509.2 262.919 509.04 263.879 509.04C264.887 509.04 265.759 509.2 266.495 509.52C267.231 509.824 267.799 510.312 268.199 510.984C268.599 511.64 268.799 512.512 268.799 513.6V518.76C268.799 519.432 268.799 520.024 268.799 520.536C268.815 521.032 268.855 521.52 268.919 522H267.071C267.023 521.632 266.991 521.288 266.975 520.968C266.959 520.632 266.951 520.256 266.951 519.84C266.615 520.512 266.071 521.08 265.319 521.544C264.567 522.008 263.655 522.24 262.583 522.24ZM263.039 520.32C263.711 520.32 264.319 520.2 264.863 519.96C265.423 519.72 265.863 519.368 266.183 518.904C266.519 518.44 266.687 517.872 266.687 517.2V516.336H262.919C262.135 516.336 261.519 516.496 261.071 516.816C260.623 517.12 260.399 517.608 260.399 518.28C260.399 518.872 260.607 519.36 261.023 519.744C261.455 520.128 262.127 520.32 263.039 520.32ZM272.529 522V509.28H274.497V511.68C274.785 510.976 275.289 510.36 276.009 509.832C276.745 509.304 277.689 509.04 278.841 509.04C280.441 509.04 281.625 509.472 282.393 510.336C283.177 511.184 283.569 512.432 283.569 514.08V522H281.457V514.56C281.457 513.376 281.209 512.48 280.713 511.872C280.217 511.264 279.385 510.96 278.217 510.96C277.385 510.96 276.705 511.136 276.177 511.488C275.649 511.84 275.257 512.288 275.001 512.832C274.761 513.376 274.641 513.952 274.641 514.56V522H272.529ZM291.735 522.24C290.695 522.24 289.775 522 288.975 521.52C288.175 521.04 287.551 520.32 287.103 519.36C286.671 518.4 286.455 517.2 286.455 515.76V515.28C286.455 513.936 286.679 512.8 287.127 511.872C287.591 510.944 288.215 510.24 288.999 509.76C289.799 509.28 290.711 509.04 291.735 509.04C292.759 509.04 293.647 509.264 294.399 509.712C295.167 510.16 295.735 510.776 296.103 511.56V505.2H298.215V522H296.247V519.6C295.927 520.384 295.367 521.024 294.567 521.52C293.767 522 292.823 522.24 291.735 522.24ZM292.215 520.368C292.983 520.368 293.655 520.208 294.231 519.888C294.823 519.552 295.279 519.096 295.599 518.52C295.935 517.928 296.103 517.248 296.103 516.48V514.56C296.103 513.872 295.935 513.256 295.599 512.712C295.279 512.152 294.823 511.712 294.231 511.392C293.655 511.072 292.983 510.912 292.215 510.912C291.191 510.912 290.327 511.296 289.623 512.064C288.919 512.816 288.567 513.888 288.567 515.28V515.76C288.567 517.264 288.919 518.408 289.623 519.192C290.327 519.976 291.191 520.368 292.215 520.368ZM312.981 522.24C311.893 522.24 310.909 522.008 310.029 521.544C309.165 521.064 308.477 520.344 307.965 519.384C307.469 518.424 307.221 517.216 307.221 515.76V515.28C307.221 513.904 307.493 512.752 308.037 511.824C308.581 510.896 309.293 510.2 310.173 509.736C311.053 509.272 311.989 509.04 312.981 509.04C313.989 509.04 314.853 509.224 315.573 509.592C316.309 509.944 316.901 510.432 317.349 511.056C317.797 511.664 318.101 512.352 318.261 513.12H316.101C315.845 512.512 315.485 512 315.021 511.584C314.573 511.168 313.893 510.96 312.981 510.96C312.357 510.96 311.773 511.112 311.229 511.416C310.685 511.704 310.237 512.168 309.885 512.808C309.549 513.432 309.381 514.256 309.381 515.28V515.76C309.381 516.848 309.549 517.728 309.885 518.4C310.237 519.072 310.685 519.56 311.229 519.864C311.773 520.168 312.357 520.32 312.981 520.32C313.765 520.32 314.421 520.128 314.949 519.744C315.493 519.36 315.877 518.832 316.101 518.16H318.261C318.069 518.992 317.725 519.72 317.229 520.344C316.733 520.952 316.125 521.424 315.405 521.76C314.685 522.08 313.877 522.24 312.981 522.24ZM326.419 522.24C325.347 522.24 324.339 522.008 323.395 521.544C322.467 521.064 321.715 520.344 321.139 519.384C320.579 518.424 320.299 517.216 320.299 515.76V515.28C320.299 513.904 320.579 512.752 321.139 511.824C321.715 510.896 322.467 510.2 323.395 509.736C324.339 509.272 325.347 509.04 326.419 509.04C327.507 509.04 328.515 509.272 329.443 509.736C330.371 510.2 331.115 510.896 331.675 511.824C332.251 512.752 332.539 513.904 332.539 515.28V515.76C332.539 517.216 332.251 518.424 331.675 519.384C331.115 520.344 330.371 521.064 329.443 521.544C328.515 522.008 327.507 522.24 326.419 522.24ZM326.419 520.32C327.075 520.32 327.699 520.176 328.291 519.888C328.899 519.584 329.395 519.096 329.779 518.424C330.179 517.752 330.379 516.864 330.379 515.76V515.28C330.379 514.256 330.179 513.432 329.779 512.808C329.395 512.168 328.899 511.704 328.291 511.416C327.699 511.112 327.075 510.96 326.419 510.96C325.779 510.96 325.155 511.112 324.547 511.416C323.939 511.704 323.435 512.168 323.035 512.808C322.651 513.432 322.459 514.256 322.459 515.28V515.76C322.459 516.864 322.651 517.752 323.035 518.424C323.435 519.096 323.939 519.584 324.547 519.888C325.155 520.176 325.779 520.32 326.419 520.32ZM340.809 522.24C339.737 522.24 338.729 522.008 337.785 521.544C336.857 521.08 336.105 520.368 335.529 519.408C334.969 518.448 334.689 517.232 334.689 515.76V515.28C334.689 513.872 334.961 512.712 335.505 511.8C336.049 510.872 336.769 510.184 337.665 509.736C338.561 509.272 339.529 509.04 340.569 509.04C342.441 509.04 343.889 509.552 344.913 510.576C345.937 511.6 346.449 513.048 346.449 514.92V516.264H336.801C336.801 517.256 337.001 518.048 337.401 518.64C337.817 519.232 338.329 519.664 338.937 519.936C339.561 520.192 340.185 520.32 340.809 520.32C341.769 520.32 342.505 520.16 343.017 519.84C343.545 519.52 343.921 519.08 344.145 518.52H346.209C345.953 519.736 345.321 520.664 344.313 521.304C343.321 521.928 342.153 522.24 340.809 522.24ZM340.689 510.96C340.033 510.96 339.409 511.088 338.817 511.344C338.225 511.584 337.737 511.968 337.353 512.496C336.985 513.024 336.801 513.704 336.801 514.536H344.457C344.441 513.656 344.257 512.96 343.905 512.448C343.569 511.92 343.121 511.544 342.561 511.32C342.001 511.08 341.377 510.96 340.689 510.96ZM349.937 522V511.152H348.137V509.28H349.937V509.04C349.937 508.144 350.073 507.408 350.345 506.832C350.617 506.24 351.033 505.8 351.593 505.512C352.169 505.224 352.897 505.08 353.777 505.08C354.017 505.08 354.289 505.088 354.593 505.104C354.897 505.104 355.225 505.12 355.577 505.152V507.072C355.337 507.04 355.073 507.024 354.785 507.024C354.513 507.008 354.257 507 354.017 507C353.281 507 352.769 507.152 352.481 507.456C352.193 507.744 352.049 508.272 352.049 509.04V509.28H355.337V511.152H352.049V522H349.937ZM358.937 522V511.152H357.137V509.28H358.937V509.04C358.937 508.144 359.073 507.408 359.345 506.832C359.617 506.24 360.033 505.8 360.593 505.512C361.169 505.224 361.897 505.08 362.777 505.08C363.017 505.08 363.289 505.088 363.593 505.104C363.897 505.104 364.225 505.12 364.577 505.152V507.072C364.337 507.04 364.073 507.024 363.785 507.024C363.513 507.008 363.257 507 363.017 507C362.281 507 361.769 507.152 361.481 507.456C361.193 507.744 361.049 508.272 361.049 509.04V509.28H364.337V511.152H361.049V522H358.937ZM367.223 522V509.28H369.335V522H367.223ZM368.279 507.6C367.863 507.6 367.519 507.464 367.247 507.192C366.975 506.92 366.839 506.576 366.839 506.16C366.839 505.744 366.975 505.4 367.247 505.128C367.519 504.856 367.863 504.72 368.279 504.72C368.695 504.72 369.039 504.856 369.311 505.128C369.583 505.4 369.719 505.744 369.719 506.16C369.719 506.576 369.583 506.92 369.311 507.192C369.039 507.464 368.695 507.6 368.279 507.6ZM378.324 522.24C377.236 522.24 376.252 522.008 375.372 521.544C374.508 521.064 373.82 520.344 373.308 519.384C372.812 518.424 372.564 517.216 372.564 515.76V515.28C372.564 513.904 372.836 512.752 373.38 511.824C373.924 510.896 374.636 510.2 375.516 509.736C376.396 509.272 377.332 509.04 378.324 509.04C379.332 509.04 380.196 509.224 380.916 509.592C381.652 509.944 382.244 510.432 382.692 511.056C383.14 511.664 383.444 512.352 383.604 513.12H381.444C381.188 512.512 380.828 512 380.364 511.584C379.916 511.168 379.236 510.96 378.324 510.96C377.7 510.96 377.116 511.112 376.572 511.416C376.028 511.704 375.58 512.168 375.228 512.808C374.892 513.432 374.724 514.256 374.724 515.28V515.76C374.724 516.848 374.892 517.728 375.228 518.4C375.58 519.072 376.028 519.56 376.572 519.864C377.116 520.168 377.7 520.32 378.324 520.32C379.108 520.32 379.764 520.128 380.292 519.744C380.836 519.36 381.22 518.832 381.444 518.16H383.604C383.412 518.992 383.068 519.72 382.572 520.344C382.076 520.952 381.468 521.424 380.748 521.76C380.028 522.08 379.22 522.24 378.324 522.24ZM386.723 522V509.28H388.835V522H386.723ZM387.779 507.6C387.363 507.6 387.019 507.464 386.747 507.192C386.475 506.92 386.339 506.576 386.339 506.16C386.339 505.744 386.475 505.4 386.747 505.128C387.019 504.856 387.363 504.72 387.779 504.72C388.195 504.72 388.539 504.856 388.811 505.128C389.083 505.4 389.219 505.744 389.219 506.16C389.219 506.576 389.083 506.92 388.811 507.192C388.539 507.464 388.195 507.6 387.779 507.6ZM398.184 522.24C397.112 522.24 396.104 522.008 395.16 521.544C394.232 521.08 393.48 520.368 392.904 519.408C392.344 518.448 392.064 517.232 392.064 515.76V515.28C392.064 513.872 392.336 512.712 392.88 511.8C393.424 510.872 394.144 510.184 395.04 509.736C395.936 509.272 396.904 509.04 397.944 509.04C399.816 509.04 401.264 509.552 402.288 510.576C403.312 511.6 403.824 513.048 403.824 514.92V516.264H394.176C394.176 517.256 394.376 518.048 394.776 518.64C395.192 519.232 395.704 519.664 396.312 519.936C396.936 520.192 397.56 520.32 398.184 520.32C399.144 520.32 399.88 520.16 400.392 519.84C400.92 519.52 401.296 519.08 401.52 518.52H403.584C403.328 519.736 402.696 520.664 401.688 521.304C400.696 521.928 399.528 522.24 398.184 522.24ZM398.064 510.96C397.408 510.96 396.784 511.088 396.192 511.344C395.6 511.584 395.112 511.968 394.728 512.496C394.36 513.024 394.176 513.704 394.176 514.536H401.832C401.816 513.656 401.632 512.96 401.28 512.448C400.944 511.92 400.496 511.544 399.936 511.32C399.376 511.08 398.752 510.96 398.064 510.96ZM406.826 522V509.28H408.794V511.68C409.082 510.976 409.586 510.36 410.306 509.832C411.042 509.304 411.986 509.04 413.138 509.04C414.738 509.04 415.922 509.472 416.69 510.336C417.474 511.184 417.866 512.432 417.866 514.08V522H415.754V514.56C415.754 513.376 415.506 512.48 415.01 511.872C414.514 511.264 413.682 510.96 412.514 510.96C411.682 510.96 411.002 511.136 410.474 511.488C409.946 511.84 409.554 512.288 409.298 512.832C409.058 513.376 408.938 513.952 408.938 514.56V522H406.826ZM426.038 522.12C425.142 522.12 424.406 521.984 423.83 521.712C423.27 521.44 422.854 521.032 422.582 520.488C422.326 519.928 422.198 519.232 422.198 518.4V511.152H420.278V509.28H422.198V506.4H424.31V509.28H427.718V511.152H424.31V518.16C424.31 518.88 424.462 519.4 424.766 519.72C425.07 520.04 425.654 520.2 426.518 520.2C426.998 520.2 427.478 520.176 427.958 520.128V522C427.654 522.032 427.35 522.056 427.046 522.072C426.742 522.104 426.406 522.12 426.038 522.12ZM435.407 522.24C434.559 522.24 433.823 522.144 433.199 521.952C432.575 521.744 432.055 521.472 431.639 521.136C431.223 520.8 430.887 520.408 430.631 519.96C430.391 519.496 430.223 519.016 430.127 518.52H432.239C432.351 519.032 432.647 519.48 433.127 519.864C433.623 520.232 434.383 520.416 435.407 520.416C436.591 520.416 437.415 520.232 437.879 519.864C438.343 519.48 438.575 519.032 438.575 518.52C438.575 518.168 438.471 517.864 438.263 517.608C438.071 517.336 437.719 517.104 437.207 516.912C436.711 516.72 435.999 516.56 435.071 516.432C434.367 516.336 433.735 516.2 433.175 516.024C432.615 515.832 432.135 515.584 431.735 515.28C431.335 514.976 431.023 514.608 430.799 514.176C430.591 513.744 430.487 513.232 430.487 512.64C430.487 512 430.671 511.408 431.039 510.864C431.407 510.32 431.959 509.88 432.695 509.544C433.431 509.208 434.335 509.04 435.407 509.04C436.415 509.04 437.247 509.216 437.903 509.568C438.575 509.904 439.095 510.352 439.463 510.912C439.831 511.472 440.079 512.088 440.207 512.76H438.095C437.967 512.2 437.695 511.744 437.279 511.392C436.863 511.04 436.239 510.864 435.407 510.864C434.367 510.864 433.639 511.04 433.223 511.392C432.807 511.728 432.599 512.144 432.599 512.64C432.599 513.216 432.823 513.648 433.271 513.936C433.735 514.224 434.575 514.448 435.791 514.608C436.575 514.704 437.271 514.848 437.879 515.04C438.487 515.216 438.999 515.464 439.415 515.784C439.831 516.088 440.143 516.464 440.351 516.912C440.575 517.36 440.687 517.896 440.687 518.52C440.687 519.192 440.495 519.808 440.111 520.368C439.727 520.928 439.143 521.384 438.359 521.736C437.591 522.072 436.607 522.24 435.407 522.24Z" fill="#E7EFF9"/>
<path d="M230.865 510.87C230.865 510.375 230.677 510.128 230.301 510.128C229.826 510.128 229.331 510.415 228.817 510.988C228.303 511.562 227.877 512.443 227.541 513.63C227.521 513.65 227.501 513.679 227.481 513.719C227.462 513.758 227.452 513.788 227.452 513.808C227.452 513.828 227.432 513.847 227.392 513.867C227.353 513.887 227.323 513.897 227.303 513.897C227.284 513.897 227.244 513.897 227.185 513.897C227.125 513.897 227.046 513.897 226.947 513.897H226.532C226.413 513.778 226.354 513.689 226.354 513.63C226.354 513.491 226.433 513.204 226.591 512.769C226.749 512.334 226.987 511.819 227.303 511.226C227.62 510.632 228.055 510.128 228.609 509.712C229.163 509.297 229.786 509.079 230.479 509.059C231.31 509.059 231.953 509.297 232.408 509.772C232.863 510.246 233.1 510.8 233.12 511.434C233.12 511.77 233.091 512.027 233.031 512.205C233.031 512.324 232.883 512.759 232.586 513.511C232.289 514.263 231.983 515.143 231.666 516.152C231.349 517.161 231.171 518.042 231.132 518.794C231.132 519.328 231.181 519.763 231.28 520.1C231.537 520.95 232.161 521.376 233.15 521.376C233.882 521.376 234.565 521.039 235.198 520.367C235.831 519.694 236.325 518.912 236.682 518.022C237.038 517.132 237.325 516.311 237.542 515.559C237.76 514.807 237.869 514.263 237.869 513.927C237.869 513.472 237.79 513.076 237.631 512.739C237.473 512.403 237.295 512.146 237.097 511.968C236.899 511.79 236.721 511.612 236.563 511.434C236.405 511.256 236.325 511.038 236.325 510.781C236.325 510.345 236.513 509.94 236.889 509.564C237.265 509.188 237.671 509 238.106 509C238.482 509 238.818 509.178 239.115 509.534C239.412 509.89 239.57 510.464 239.59 511.256C239.59 511.79 239.471 512.611 239.234 513.719C238.997 514.827 238.631 516.063 238.136 517.429C237.641 518.794 236.939 519.971 236.029 520.96C235.119 521.95 234.07 522.454 232.883 522.474C231.617 522.474 230.608 522.147 229.856 521.494C229.124 520.861 228.758 519.922 228.758 518.675C228.758 518.062 228.837 517.429 228.995 516.776C229.153 516.123 229.559 514.965 230.212 513.303C230.647 512.037 230.865 511.226 230.865 510.87Z" fill="#E7EFF9"/>
<path d="M243.985 514.01C243.985 513.674 244.118 513.38 244.384 513.128C244.65 512.877 244.957 512.744 245.307 512.73C245.559 512.73 245.769 512.814 245.936 512.982C246.104 513.149 246.195 513.359 246.209 513.611C246.209 513.933 246.069 514.226 245.79 514.492C245.51 514.758 245.202 514.898 244.866 514.912C244.657 514.912 244.461 514.842 244.279 514.702C244.097 514.562 243.999 514.331 243.985 514.01ZM240.565 520.577C240.565 520.465 240.628 520.248 240.754 519.927C240.88 519.605 241.048 519.248 241.257 518.857C241.467 518.465 241.775 518.108 242.181 517.787C242.586 517.465 243.006 517.311 243.44 517.325C243.985 517.325 244.44 517.486 244.803 517.807C245.167 518.129 245.356 518.563 245.37 519.108C245.37 519.346 245.272 519.738 245.076 520.283C244.88 520.829 244.601 521.563 244.237 522.487C243.873 523.41 243.579 524.2 243.356 524.858C243.286 525.165 243.251 525.389 243.251 525.529C243.251 525.879 243.37 526.054 243.607 526.054C243.733 526.054 243.866 526.033 244.006 525.991C244.146 525.949 244.307 525.851 244.489 525.697C244.671 525.543 244.859 525.298 245.055 524.963C245.251 524.627 245.426 524.214 245.58 523.725C245.622 523.557 245.657 523.459 245.685 523.431C245.713 523.403 245.832 523.389 246.041 523.389C246.321 523.389 246.461 523.459 246.461 523.599C246.461 523.711 246.398 523.927 246.272 524.249C246.146 524.571 245.971 524.928 245.748 525.319C245.524 525.711 245.209 526.061 244.803 526.368C244.398 526.676 243.964 526.83 243.502 526.83C243.055 526.83 242.642 526.683 242.265 526.389C241.887 526.096 241.691 525.648 241.677 525.046C241.677 524.809 241.712 524.585 241.782 524.375C241.852 524.165 242.153 523.368 242.684 521.983C243.216 520.57 243.523 519.724 243.607 519.444C243.691 519.164 243.74 518.892 243.754 518.626C243.754 518.29 243.635 518.122 243.398 518.122H243.356C242.936 518.122 242.551 518.353 242.202 518.815C241.852 519.276 241.586 519.864 241.404 520.577C241.39 520.591 241.376 520.612 241.362 520.64C241.348 520.668 241.341 520.689 241.341 520.703C241.341 520.717 241.327 520.731 241.299 520.745C241.271 520.759 241.25 520.766 241.236 520.766C241.222 520.766 241.194 520.766 241.152 520.766C241.11 520.766 241.055 520.766 240.985 520.766H240.691C240.607 520.682 240.565 520.619 240.565 520.577Z" fill="#E7EFF9"/>
<path d="M452 517.429C452 515.272 452.851 513.333 454.552 511.612C456.254 509.89 458.094 509.03 460.072 509.03C461.18 509.03 462.051 509.267 462.684 509.742C463.317 510.217 463.644 510.84 463.664 511.612C463.664 512.185 463.476 512.67 463.1 513.066C462.724 513.462 462.249 513.669 461.675 513.689C461.299 513.689 461.002 513.59 460.785 513.392C460.567 513.194 460.458 512.898 460.458 512.502C460.458 512.106 460.567 511.77 460.785 511.493C461.002 511.216 461.22 511.008 461.438 510.87C461.655 510.731 461.794 510.672 461.853 510.692H461.883C461.883 510.652 461.823 510.593 461.705 510.514C461.586 510.434 461.378 510.355 461.082 510.276C460.785 510.197 460.448 510.157 460.072 510.157C459.479 510.157 458.915 510.296 458.381 510.573C457.965 510.751 457.54 511.058 457.105 511.493C456.234 512.364 455.601 513.59 455.205 515.173C454.81 516.756 454.602 517.903 454.582 518.616C454.582 519.526 454.839 520.208 455.354 520.663C455.789 521.138 456.363 521.376 457.075 521.376H457.194C459.41 521.376 461.24 520.535 462.684 518.853C462.862 518.655 462.981 518.556 463.04 518.556C463.119 518.556 463.248 518.645 463.426 518.823C463.604 519.002 463.703 519.14 463.723 519.239C463.743 519.338 463.654 519.486 463.456 519.684C463.258 519.882 462.971 520.159 462.595 520.515C462.219 520.871 461.774 521.168 461.26 521.405C460.745 521.643 460.112 521.89 459.36 522.147C458.608 522.405 457.817 522.513 456.986 522.474C455.502 522.474 454.305 521.999 453.395 521.049C452.485 520.1 452.02 518.893 452 517.429Z" fill="#E7EFF9"/>
<path d="M467.702 514.01C467.702 513.674 467.835 513.38 468.101 513.128C468.367 512.877 468.675 512.744 469.024 512.73C469.276 512.73 469.486 512.814 469.654 512.982C469.822 513.149 469.913 513.359 469.927 513.611C469.927 513.933 469.787 514.226 469.507 514.492C469.227 514.758 468.919 514.898 468.584 514.912C468.374 514.912 468.178 514.842 467.996 514.702C467.814 514.562 467.716 514.331 467.702 514.01ZM464.282 520.577C464.282 520.465 464.345 520.248 464.471 519.927C464.597 519.605 464.765 519.248 464.975 518.857C465.184 518.465 465.492 518.108 465.898 517.787C466.304 517.465 466.723 517.311 467.157 517.325C467.702 517.325 468.157 517.486 468.521 517.807C468.884 518.129 469.073 518.563 469.087 519.108C469.087 519.346 468.989 519.738 468.793 520.283C468.598 520.829 468.318 521.563 467.954 522.487C467.59 523.41 467.297 524.2 467.073 524.858C467.003 525.165 466.968 525.389 466.968 525.529C466.968 525.879 467.087 526.054 467.325 526.054C467.451 526.054 467.583 526.033 467.723 525.991C467.863 525.949 468.024 525.851 468.206 525.697C468.388 525.543 468.577 525.298 468.772 524.963C468.968 524.627 469.143 524.214 469.297 523.725C469.339 523.557 469.374 523.459 469.402 523.431C469.43 523.403 469.549 523.389 469.759 523.389C470.038 523.389 470.178 523.459 470.178 523.599C470.178 523.711 470.115 523.927 469.989 524.249C469.864 524.571 469.689 524.928 469.465 525.319C469.241 525.711 468.926 526.061 468.521 526.368C468.115 526.676 467.681 526.83 467.22 526.83C466.772 526.83 466.359 526.683 465.982 526.389C465.604 526.096 465.408 525.648 465.394 525.046C465.394 524.809 465.429 524.585 465.499 524.375C465.569 524.165 465.87 523.368 466.401 521.983C466.933 520.57 467.241 519.724 467.325 519.444C467.409 519.164 467.458 518.892 467.472 518.626C467.472 518.29 467.353 518.122 467.115 518.122H467.073C466.653 518.122 466.269 518.353 465.919 518.815C465.569 519.276 465.303 519.864 465.122 520.577C465.108 520.591 465.094 520.612 465.08 520.64C465.066 520.668 465.059 520.689 465.059 520.703C465.059 520.717 465.045 520.731 465.017 520.745C464.989 520.759 464.968 520.766 464.954 520.766C464.94 520.766 464.912 520.766 464.87 520.766C464.828 520.766 464.772 520.766 464.702 520.766H464.408C464.324 520.682 464.282 520.619 464.282 520.577Z" fill="#E7EFF9"/>
</svg>
