<svg width="1200" height="387" viewBox="0 0 1200 387" fill="none" xmlns="http://www.w3.org/2000/svg">
<path d="M210 44V344" stroke="#13065A" stroke-width="15" stroke-linecap="square"/>
<path d="M360 194L60 194" stroke="#13065A" stroke-width="15" stroke-linecap="square"/>
<path d="M285 64L135 323.808" stroke="#13065A" stroke-width="15" stroke-linecap="square"/>
<path d="M340 269L80.1924 119" stroke="#13065A" stroke-width="15" stroke-linecap="square"/>
<path d="M340 119L80.1924 269" stroke="#13065A" stroke-width="15" stroke-linecap="square"/>
<path d="M285 324L135 64.1924" stroke="#13065A" stroke-width="15" stroke-linecap="square"/>
<path d="M431.875 240.408C424.195 240.408 417.838 239.299 412.803 237.08C407.768 234.861 403.928 231.832 401.283 227.992C398.723 224.067 397.187 219.629 396.675 214.68H412.035C412.718 218.179 414.467 221.08 417.283 223.384C420.099 225.688 424.963 226.84 431.875 226.84C439.043 226.84 444.12 225.688 447.107 223.384C450.179 220.995 451.715 218.093 451.715 214.68C451.715 211.864 450.862 209.56 449.155 207.768C447.448 205.976 444.803 204.44 441.219 203.16C437.72 201.795 433.24 200.557 427.779 199.448C421.635 198.083 416.43 196.376 412.163 194.328C407.896 192.195 404.654 189.379 402.435 185.88C400.302 182.381 399.235 177.901 399.235 172.44C399.235 167.917 400.472 163.821 402.947 160.152C405.422 156.483 409.048 153.539 413.827 151.32C418.691 149.101 424.707 147.992 431.875 147.992C438.872 147.992 444.675 149.059 449.283 151.192C453.976 153.24 457.56 156.099 460.035 159.768C462.595 163.437 464.088 167.661 464.515 172.44H449.155C448.472 169.197 446.723 166.595 443.907 164.632C441.176 162.584 437.166 161.56 431.875 161.56C425.731 161.56 421.294 162.627 418.563 164.76C415.918 166.893 414.595 169.453 414.595 172.44C414.595 176.536 416.302 179.608 419.715 181.656C423.128 183.704 428.376 185.453 435.459 186.904C440.75 188.013 445.358 189.336 449.283 190.872C453.208 192.323 456.494 194.115 459.139 196.248C461.784 198.296 463.747 200.856 465.027 203.928C466.392 206.915 467.075 210.499 467.075 214.68C467.075 219.629 465.752 224.067 463.107 227.992C460.547 231.832 456.664 234.861 451.459 237.08C446.254 239.299 439.726 240.408 431.875 240.408ZM497.845 239V149.4H530.485C538.506 149.4 545.12 150.595 550.325 152.984C555.53 155.288 559.37 158.573 561.845 162.84C564.405 167.107 565.685 172.141 565.685 177.944C565.685 183.747 564.405 188.781 561.845 193.048C559.37 197.315 555.53 200.643 550.325 203.032C545.12 205.336 538.506 206.488 530.485 206.488H513.205V239H497.845ZM513.205 193.176H529.205C537.312 193.176 542.858 191.939 545.845 189.464C548.832 186.904 550.325 183.064 550.325 177.944C550.325 172.909 548.832 169.112 545.845 166.552C542.858 163.992 537.312 162.712 529.205 162.712H513.205V193.176ZM595.145 239V149.4H655.305V162.712H610.505V186.264H651.465V199.576H610.505V225.688H655.305V239H595.145ZM720.63 240.408C713.291 240.408 706.678 238.872 700.79 235.8C694.902 232.643 690.209 227.736 686.71 221.08C683.297 214.339 681.59 205.592 681.59 194.84V192.28C681.59 184.515 682.614 177.859 684.662 172.312C686.71 166.68 689.483 162.072 692.982 158.488C696.566 154.904 700.705 152.259 705.398 150.552C710.177 148.845 715.254 147.992 720.63 147.992C725.579 147.992 730.187 148.632 734.454 149.912C738.721 151.107 742.475 152.941 745.718 155.416C748.961 157.891 751.563 160.963 753.526 164.632C755.489 168.301 756.683 172.611 757.11 177.56H740.982C739.873 172.013 737.483 167.96 733.814 165.4C730.23 162.84 725.835 161.56 720.63 161.56C716.875 161.56 713.249 162.541 709.75 164.504C706.251 166.381 703.35 169.539 701.046 173.976C698.827 178.413 697.718 184.515 697.718 192.28V194.84C697.718 200.984 698.401 206.147 699.766 210.328C701.131 214.424 702.923 217.667 705.142 220.056C707.446 222.445 709.921 224.195 712.566 225.304C715.297 226.328 717.985 226.84 720.63 226.84C726.774 226.84 731.51 225.432 734.838 222.616C738.251 219.715 740.299 215.789 740.982 210.84H757.11C756.598 216.131 755.318 220.653 753.27 224.408C751.307 228.163 748.662 231.235 745.334 233.624C742.091 235.928 738.379 237.635 734.198 238.744C730.017 239.853 725.494 240.408 720.63 240.408ZM805.99 239V162.712H775.91V149.4H851.43V162.712H821.35V239H805.99ZM878.295 239V149.4H912.215C919.724 149.4 925.954 150.595 930.903 152.984C935.938 155.373 939.735 158.659 942.295 162.84C944.855 167.021 946.135 171.843 946.135 177.304C946.135 183.448 944.471 188.781 941.143 193.304C937.815 197.741 932.823 200.941 926.167 202.904L948.695 239H931.799L911.959 204.696H893.655V239H878.295ZM893.655 191.896H909.655C917.506 191.896 922.967 190.616 926.039 188.056C929.196 185.496 930.775 181.912 930.775 177.304C930.775 172.696 929.196 169.112 926.039 166.552C922.967 163.992 917.506 162.712 909.655 162.712H893.655V191.896ZM969.12 239L1003.04 149.4H1018.4L1052.32 239H1035.94L1028.38 218.776H992.032L984.48 239H969.12ZM997.024 205.464H1023.39L1010.34 168.6L997.024 205.464ZM1078.52 239V149.4H1093.88V225.688H1137.4V239H1078.52Z" fill="#13065A"/>
<path d="M393.4 283V266.2H404.2V268.168H395.656V273.376H403.48V275.344H395.656V281.032H404.2V283H393.4ZM406.248 283L411.024 276.544L406.488 270.28H408.936L412.296 274.912L415.656 270.28H418.008L413.472 276.424L418.248 283H415.752L412.2 278.032L408.648 283H406.248ZM420.764 287.8V270.28H422.732V272.68C423.164 271.832 423.764 271.184 424.532 270.736C425.316 270.272 426.22 270.04 427.244 270.04C428.844 270.04 430.124 270.568 431.084 271.624C432.044 272.664 432.524 274.216 432.524 276.28V276.76C432.524 278.2 432.3 279.4 431.852 280.36C431.42 281.32 430.804 282.04 430.004 282.52C429.22 283 428.3 283.24 427.244 283.24C426.156 283.24 425.244 283 424.508 282.52C423.788 282.04 423.244 281.44 422.876 280.72V287.8H420.764ZM426.764 281.368C427.804 281.368 428.668 280.976 429.356 280.192C430.06 279.408 430.412 278.264 430.412 276.76V276.28C430.412 274.888 430.06 273.816 429.356 273.064C428.668 272.296 427.804 271.912 426.764 271.912C425.996 271.912 425.316 272.072 424.724 272.392C424.148 272.712 423.692 273.152 423.356 273.712C423.036 274.256 422.876 274.872 422.876 275.56V277.48C422.876 278.248 423.036 278.928 423.356 279.52C423.692 280.096 424.148 280.552 424.724 280.888C425.316 281.208 425.996 281.368 426.764 281.368ZM439.369 283.12C438.489 283.12 437.769 282.984 437.209 282.712C436.665 282.424 436.265 281.984 436.009 281.392C435.769 280.784 435.649 280 435.649 279.04V266.2H437.761V279.04C437.761 279.872 437.897 280.44 438.169 280.744C438.441 281.048 438.921 281.2 439.609 281.2C439.785 281.2 439.937 281.2 440.065 281.2C440.193 281.184 440.321 281.168 440.449 281.152V283.024C440.369 283.04 440.257 283.056 440.113 283.072C439.985 283.088 439.849 283.096 439.705 283.096C439.577 283.112 439.465 283.12 439.369 283.12ZM448.263 283.24C447.191 283.24 446.183 283.008 445.239 282.544C444.311 282.064 443.559 281.344 442.983 280.384C442.423 279.424 442.143 278.216 442.143 276.76V276.28C442.143 274.904 442.423 273.752 442.983 272.824C443.559 271.896 444.311 271.2 445.239 270.736C446.183 270.272 447.191 270.04 448.263 270.04C449.351 270.04 450.359 270.272 451.287 270.736C452.215 271.2 452.959 271.896 453.519 272.824C454.095 273.752 454.383 274.904 454.383 276.28V276.76C454.383 278.216 454.095 279.424 453.519 280.384C452.959 281.344 452.215 282.064 451.287 282.544C450.359 283.008 449.351 283.24 448.263 283.24ZM448.263 281.32C448.919 281.32 449.543 281.176 450.135 280.888C450.743 280.584 451.239 280.096 451.623 279.424C452.023 278.752 452.223 277.864 452.223 276.76V276.28C452.223 275.256 452.023 274.432 451.623 273.808C451.239 273.168 450.743 272.704 450.135 272.416C449.543 272.112 448.919 271.96 448.263 271.96C447.623 271.96 446.999 272.112 446.391 272.416C445.783 272.704 445.279 273.168 444.879 273.808C444.495 274.432 444.303 275.256 444.303 276.28V276.76C444.303 277.864 444.495 278.752 444.879 279.424C445.279 280.096 445.783 280.584 446.391 280.888C446.999 281.176 447.623 281.32 448.263 281.32ZM457.373 283V270.28H459.341V272.68C459.533 272.168 459.797 271.72 460.133 271.336C460.469 270.936 460.877 270.624 461.357 270.4C461.853 270.16 462.405 270.04 463.013 270.04C463.333 270.04 463.589 270.056 463.781 270.088C463.989 270.12 464.173 270.16 464.333 270.208V272.176C464.125 272.096 463.917 272.04 463.709 272.008C463.517 271.976 463.245 271.96 462.893 271.96C462.253 271.96 461.677 272.112 461.165 272.416C460.653 272.72 460.245 273.144 459.941 273.688C459.637 274.216 459.485 274.84 459.485 275.56V283H457.373ZM471.77 283.24C470.698 283.24 469.69 283.008 468.746 282.544C467.818 282.08 467.066 281.368 466.49 280.408C465.93 279.448 465.65 278.232 465.65 276.76V276.28C465.65 274.872 465.922 273.712 466.466 272.8C467.01 271.872 467.73 271.184 468.626 270.736C469.522 270.272 470.49 270.04 471.53 270.04C473.402 270.04 474.85 270.552 475.874 271.576C476.898 272.6 477.41 274.048 477.41 275.92V277.264H467.762C467.762 278.256 467.962 279.048 468.362 279.64C468.778 280.232 469.29 280.664 469.898 280.936C470.522 281.192 471.146 281.32 471.77 281.32C472.73 281.32 473.466 281.16 473.978 280.84C474.506 280.52 474.882 280.08 475.106 279.52H477.17C476.914 280.736 476.282 281.664 475.274 282.304C474.282 282.928 473.114 283.24 471.77 283.24ZM471.65 271.96C470.994 271.96 470.37 272.088 469.778 272.344C469.186 272.584 468.698 272.968 468.314 273.496C467.946 274.024 467.762 274.704 467.762 275.536H475.418C475.402 274.656 475.218 273.96 474.866 273.448C474.53 272.92 474.082 272.544 473.522 272.32C472.962 272.08 472.338 271.96 471.65 271.96ZM491.092 283.12C490.196 283.12 489.46 282.984 488.884 282.712C488.324 282.44 487.908 282.032 487.636 281.488C487.38 280.928 487.252 280.232 487.252 279.4V272.152H485.332V270.28H487.252V267.4H489.364V270.28H492.772V272.152H489.364V279.16C489.364 279.88 489.516 280.4 489.82 280.72C490.124 281.04 490.708 281.2 491.572 281.2C492.052 281.2 492.532 281.176 493.012 281.128V283C492.708 283.032 492.404 283.056 492.1 283.072C491.796 283.104 491.46 283.12 491.092 283.12ZM496.022 283V266.2H498.134V272.56C498.358 272.112 498.662 271.696 499.046 271.312C499.43 270.928 499.894 270.624 500.438 270.4C500.998 270.16 501.63 270.04 502.334 270.04C503.934 270.04 505.118 270.472 505.886 271.336C506.67 272.184 507.062 273.432 507.062 275.08V283H504.95V275.56C504.95 274.376 504.702 273.48 504.206 272.872C503.71 272.264 502.878 271.96 501.71 271.96C500.878 271.96 500.198 272.136 499.67 272.488C499.142 272.84 498.75 273.288 498.494 273.832C498.254 274.376 498.134 274.952 498.134 275.56V283H496.022ZM516.067 283.24C514.995 283.24 513.987 283.008 513.043 282.544C512.115 282.08 511.363 281.368 510.787 280.408C510.227 279.448 509.947 278.232 509.947 276.76V276.28C509.947 274.872 510.219 273.712 510.763 272.8C511.307 271.872 512.027 271.184 512.923 270.736C513.819 270.272 514.787 270.04 515.827 270.04C517.699 270.04 519.147 270.552 520.171 271.576C521.195 272.6 521.707 274.048 521.707 275.92V277.264H512.059C512.059 278.256 512.259 279.048 512.659 279.64C513.075 280.232 513.587 280.664 514.195 280.936C514.819 281.192 515.443 281.32 516.067 281.32C517.027 281.32 517.763 281.16 518.275 280.84C518.803 280.52 519.179 280.08 519.403 279.52H521.467C521.211 280.736 520.579 281.664 519.571 282.304C518.579 282.928 517.411 283.24 516.067 283.24ZM515.947 271.96C515.291 271.96 514.667 272.088 514.075 272.344C513.483 272.584 512.995 272.968 512.611 273.496C512.243 274.024 512.059 274.704 512.059 275.536H519.715C519.699 274.656 519.515 273.96 519.163 273.448C518.827 272.92 518.379 272.544 517.819 272.32C517.259 272.08 516.635 271.96 515.947 271.96ZM532.989 283L529.509 270.28H531.813L534.261 280.12L537.573 270.28H539.445L542.877 280.12L545.301 270.28H547.509L544.029 283H541.917L538.461 273.16L535.101 283H532.989ZM555.184 283.24C554.112 283.24 553.104 283.008 552.16 282.544C551.232 282.064 550.48 281.344 549.904 280.384C549.344 279.424 549.064 278.216 549.064 276.76V276.28C549.064 274.904 549.344 273.752 549.904 272.824C550.48 271.896 551.232 271.2 552.16 270.736C553.104 270.272 554.112 270.04 555.184 270.04C556.272 270.04 557.28 270.272 558.208 270.736C559.136 271.2 559.88 271.896 560.44 272.824C561.016 273.752 561.304 274.904 561.304 276.28V276.76C561.304 278.216 561.016 279.424 560.44 280.384C559.88 281.344 559.136 282.064 558.208 282.544C557.28 283.008 556.272 283.24 555.184 283.24ZM555.184 281.32C555.84 281.32 556.464 281.176 557.056 280.888C557.664 280.584 558.16 280.096 558.544 279.424C558.944 278.752 559.144 277.864 559.144 276.76V276.28C559.144 275.256 558.944 274.432 558.544 273.808C558.16 273.168 557.664 272.704 557.056 272.416C556.464 272.112 555.84 271.96 555.184 271.96C554.544 271.96 553.92 272.112 553.312 272.416C552.704 272.704 552.2 273.168 551.8 273.808C551.416 274.432 551.224 275.256 551.224 276.28V276.76C551.224 277.864 551.416 278.752 551.8 279.424C552.2 280.096 552.704 280.584 553.312 280.888C553.92 281.176 554.544 281.32 555.184 281.32ZM564.295 283V270.28H566.263V272.68C566.455 272.168 566.719 271.72 567.055 271.336C567.391 270.936 567.799 270.624 568.279 270.4C568.775 270.16 569.327 270.04 569.935 270.04C570.255 270.04 570.511 270.056 570.703 270.088C570.911 270.12 571.095 270.16 571.255 270.208V272.176C571.047 272.096 570.839 272.04 570.631 272.008C570.439 271.976 570.167 271.96 569.815 271.96C569.175 271.96 568.599 272.112 568.087 272.416C567.575 272.72 567.167 273.144 566.863 273.688C566.559 274.216 566.407 274.84 566.407 275.56V283H564.295ZM577.487 283.12C576.607 283.12 575.887 282.984 575.327 282.712C574.783 282.424 574.383 281.984 574.127 281.392C573.887 280.784 573.767 280 573.767 279.04V266.2H575.879V279.04C575.879 279.872 576.015 280.44 576.287 280.744C576.559 281.048 577.039 281.2 577.727 281.2C577.903 281.2 578.055 281.2 578.183 281.2C578.311 281.184 578.439 281.168 578.567 281.152V283.024C578.487 283.04 578.375 283.056 578.231 283.072C578.103 283.088 577.967 283.096 577.823 283.096C577.695 283.112 577.583 283.12 577.487 283.12ZM585.54 283.24C584.5 283.24 583.58 283 582.78 282.52C581.98 282.04 581.356 281.32 580.908 280.36C580.476 279.4 580.26 278.2 580.26 276.76V276.28C580.26 274.936 580.484 273.8 580.932 272.872C581.396 271.944 582.02 271.24 582.804 270.76C583.604 270.28 584.516 270.04 585.54 270.04C586.564 270.04 587.452 270.264 588.204 270.712C588.972 271.16 589.54 271.776 589.908 272.56V266.2H592.02V283H590.052V280.6C589.732 281.384 589.172 282.024 588.372 282.52C587.572 283 586.628 283.24 585.54 283.24ZM586.02 281.368C586.788 281.368 587.46 281.208 588.036 280.888C588.628 280.552 589.084 280.096 589.404 279.52C589.74 278.928 589.908 278.248 589.908 277.48V275.56C589.908 274.872 589.74 274.256 589.404 273.712C589.084 273.152 588.628 272.712 588.036 272.392C587.46 272.072 586.788 271.912 586.02 271.912C584.996 271.912 584.132 272.296 583.428 273.064C582.724 273.816 582.372 274.888 582.372 276.28V276.76C582.372 278.264 582.724 279.408 583.428 280.192C584.132 280.976 584.996 281.368 586.02 281.368ZM607.145 283.24C606.073 283.24 605.065 283.008 604.121 282.544C603.193 282.064 602.441 281.344 601.865 280.384C601.305 279.424 601.025 278.216 601.025 276.76V276.28C601.025 274.904 601.305 273.752 601.865 272.824C602.441 271.896 603.193 271.2 604.121 270.736C605.065 270.272 606.073 270.04 607.145 270.04C608.233 270.04 609.241 270.272 610.169 270.736C611.097 271.2 611.841 271.896 612.401 272.824C612.977 273.752 613.265 274.904 613.265 276.28V276.76C613.265 278.216 612.977 279.424 612.401 280.384C611.841 281.344 611.097 282.064 610.169 282.544C609.241 283.008 608.233 283.24 607.145 283.24ZM607.145 281.32C607.801 281.32 608.425 281.176 609.017 280.888C609.625 280.584 610.121 280.096 610.505 279.424C610.905 278.752 611.105 277.864 611.105 276.76V276.28C611.105 275.256 610.905 274.432 610.505 273.808C610.121 273.168 609.625 272.704 609.017 272.416C608.425 272.112 607.801 271.96 607.145 271.96C606.505 271.96 605.881 272.112 605.273 272.416C604.665 272.704 604.161 273.168 603.761 273.808C603.377 274.432 603.185 275.256 603.185 276.28V276.76C603.185 277.864 603.377 278.752 603.761 279.424C604.161 280.096 604.665 280.584 605.273 280.888C605.881 281.176 606.505 281.32 607.145 281.32ZM616.742 283V272.152H614.942V270.28H616.742V270.04C616.742 269.144 616.878 268.408 617.15 267.832C617.422 267.24 617.838 266.8 618.398 266.512C618.974 266.224 619.702 266.08 620.582 266.08C620.822 266.08 621.094 266.088 621.398 266.104C621.702 266.104 622.03 266.12 622.382 266.152V268.072C622.142 268.04 621.878 268.024 621.59 268.024C621.318 268.008 621.062 268 620.822 268C620.086 268 619.574 268.152 619.286 268.456C618.998 268.744 618.854 269.272 618.854 270.04V270.28H622.142V272.152H618.854V283H616.742ZM630.787 283V270.28H632.755V272.68C633.027 271.896 633.491 271.264 634.147 270.784C634.819 270.288 635.579 270.04 636.427 270.04C637.531 270.04 638.379 270.28 638.971 270.76C639.563 271.224 639.971 271.824 640.195 272.56C640.611 271.776 641.139 271.16 641.779 270.712C642.435 270.264 643.219 270.04 644.131 270.04C645.443 270.04 646.467 270.44 647.203 271.24C647.939 272.024 648.307 273.264 648.307 274.96V283H646.195V275.44C646.195 274.176 645.971 273.28 645.523 272.752C645.091 272.224 644.427 271.96 643.531 271.96C643.019 271.96 642.539 272.104 642.091 272.392C641.643 272.664 641.283 273.064 641.011 273.592C640.739 274.104 640.603 274.72 640.603 275.44V283H638.491V275.44C638.491 274.176 638.267 273.28 637.819 272.752C637.371 272.224 636.707 271.96 635.827 271.96C635.315 271.96 634.835 272.104 634.387 272.392C633.939 272.664 633.579 273.064 633.307 273.592C633.035 274.104 632.899 274.72 632.899 275.44V283H630.787ZM655.646 283.24C654.718 283.24 653.926 283.072 653.27 282.736C652.63 282.384 652.142 281.912 651.806 281.32C651.47 280.712 651.302 280.032 651.302 279.28C651.302 278.016 651.67 277.104 652.406 276.544C653.158 275.984 654.23 275.704 655.622 275.704H659.75V274.84C659.75 273.752 659.502 273 659.006 272.584C658.526 272.168 657.798 271.96 656.822 271.96C655.91 271.96 655.246 272.136 654.83 272.488C654.414 272.824 654.182 273.208 654.134 273.64H652.022C652.07 272.952 652.302 272.344 652.718 271.816C653.134 271.272 653.702 270.84 654.422 270.52C655.142 270.2 655.982 270.04 656.942 270.04C657.95 270.04 658.822 270.2 659.558 270.52C660.294 270.824 660.862 271.312 661.262 271.984C661.662 272.64 661.862 273.512 661.862 274.6V279.76C661.862 280.432 661.862 281.024 661.862 281.536C661.878 282.032 661.918 282.52 661.982 283H660.134C660.086 282.632 660.054 282.288 660.038 281.968C660.022 281.632 660.014 281.256 660.014 280.84C659.678 281.512 659.134 282.08 658.382 282.544C657.63 283.008 656.718 283.24 655.646 283.24ZM656.102 281.32C656.774 281.32 657.382 281.2 657.926 280.96C658.486 280.72 658.926 280.368 659.246 279.904C659.582 279.44 659.75 278.872 659.75 278.2V277.336H655.982C655.198 277.336 654.582 277.496 654.134 277.816C653.686 278.12 653.462 278.608 653.462 279.28C653.462 279.872 653.67 280.36 654.086 280.744C654.518 281.128 655.19 281.32 656.102 281.32ZM670.038 283.12C669.142 283.12 668.406 282.984 667.83 282.712C667.27 282.44 666.854 282.032 666.582 281.488C666.326 280.928 666.198 280.232 666.198 279.4V272.152H664.278V270.28H666.198V267.4H668.31V270.28H671.718V272.152H668.31V279.16C668.31 279.88 668.462 280.4 668.766 280.72C669.07 281.04 669.654 281.2 670.518 281.2C670.998 281.2 671.478 281.176 671.958 281.128V283C671.654 283.032 671.35 283.056 671.046 283.072C670.742 283.104 670.406 283.12 670.038 283.12ZM674.967 283V270.28H676.935V272.68C677.127 272.168 677.391 271.72 677.727 271.336C678.063 270.936 678.471 270.624 678.951 270.4C679.447 270.16 679.999 270.04 680.607 270.04C680.927 270.04 681.183 270.056 681.375 270.088C681.583 270.12 681.767 270.16 681.927 270.208V272.176C681.719 272.096 681.511 272.04 681.303 272.008C681.111 271.976 680.839 271.96 680.487 271.96C679.847 271.96 679.271 272.112 678.759 272.416C678.247 272.72 677.839 273.144 677.535 273.688C677.231 274.216 677.079 274.84 677.079 275.56V283H674.967ZM684.558 283V270.28H686.67V283H684.558ZM685.614 268.6C685.198 268.6 684.854 268.464 684.582 268.192C684.31 267.92 684.174 267.576 684.174 267.16C684.174 266.744 684.31 266.4 684.582 266.128C684.854 265.856 685.198 265.72 685.614 265.72C686.03 265.72 686.374 265.856 686.646 266.128C686.918 266.4 687.054 266.744 687.054 267.16C687.054 267.576 686.918 267.92 686.646 268.192C686.374 268.464 686.03 268.6 685.614 268.6ZM695.66 283.24C694.572 283.24 693.588 283.008 692.708 282.544C691.844 282.064 691.156 281.344 690.644 280.384C690.148 279.424 689.9 278.216 689.9 276.76V276.28C689.9 274.904 690.172 273.752 690.716 272.824C691.26 271.896 691.972 271.2 692.852 270.736C693.732 270.272 694.668 270.04 695.66 270.04C696.668 270.04 697.532 270.224 698.252 270.592C698.988 270.944 699.58 271.432 700.028 272.056C700.476 272.664 700.78 273.352 700.94 274.12H698.78C698.524 273.512 698.164 273 697.7 272.584C697.252 272.168 696.572 271.96 695.66 271.96C695.036 271.96 694.452 272.112 693.908 272.416C693.364 272.704 692.916 273.168 692.564 273.808C692.228 274.432 692.06 275.256 692.06 276.28V276.76C692.06 277.848 692.228 278.728 692.564 279.4C692.916 280.072 693.364 280.56 693.908 280.864C694.452 281.168 695.036 281.32 695.66 281.32C696.444 281.32 697.1 281.128 697.628 280.744C698.172 280.36 698.556 279.832 698.78 279.16H700.94C700.748 279.992 700.404 280.72 699.908 281.344C699.412 281.952 698.804 282.424 698.084 282.76C697.364 283.08 696.556 283.24 695.66 283.24ZM709.098 283.24C708.026 283.24 707.018 283.008 706.074 282.544C705.146 282.08 704.394 281.368 703.818 280.408C703.258 279.448 702.978 278.232 702.978 276.76V276.28C702.978 274.872 703.25 273.712 703.794 272.8C704.338 271.872 705.058 271.184 705.954 270.736C706.85 270.272 707.818 270.04 708.858 270.04C710.73 270.04 712.178 270.552 713.202 271.576C714.226 272.6 714.738 274.048 714.738 275.92V277.264H705.09C705.09 278.256 705.29 279.048 705.69 279.64C706.106 280.232 706.618 280.664 707.226 280.936C707.85 281.192 708.474 281.32 709.098 281.32C710.058 281.32 710.794 281.16 711.306 280.84C711.834 280.52 712.21 280.08 712.434 279.52H714.498C714.242 280.736 713.61 281.664 712.602 282.304C711.61 282.928 710.442 283.24 709.098 283.24ZM708.978 271.96C708.322 271.96 707.698 272.088 707.106 272.344C706.514 272.584 706.026 272.968 705.642 273.496C705.274 274.024 705.09 274.704 705.09 275.536H712.746C712.73 274.656 712.546 273.96 712.194 273.448C711.858 272.92 711.41 272.544 710.85 272.32C710.29 272.08 709.666 271.96 708.978 271.96ZM722.18 283.24C721.332 283.24 720.596 283.144 719.972 282.952C719.348 282.744 718.828 282.472 718.412 282.136C717.996 281.8 717.66 281.408 717.404 280.96C717.164 280.496 716.996 280.016 716.9 279.52H719.012C719.124 280.032 719.42 280.48 719.9 280.864C720.396 281.232 721.156 281.416 722.18 281.416C723.364 281.416 724.188 281.232 724.652 280.864C725.116 280.48 725.348 280.032 725.348 279.52C725.348 279.168 725.244 278.864 725.036 278.608C724.844 278.336 724.492 278.104 723.98 277.912C723.484 277.72 722.772 277.56 721.844 277.432C721.14 277.336 720.508 277.2 719.948 277.024C719.388 276.832 718.908 276.584 718.508 276.28C718.108 275.976 717.796 275.608 717.572 275.176C717.364 274.744 717.26 274.232 717.26 273.64C717.26 273 717.444 272.408 717.812 271.864C718.18 271.32 718.732 270.88 719.468 270.544C720.204 270.208 721.108 270.04 722.18 270.04C723.188 270.04 724.02 270.216 724.676 270.568C725.348 270.904 725.868 271.352 726.236 271.912C726.604 272.472 726.852 273.088 726.98 273.76H724.868C724.74 273.2 724.468 272.744 724.052 272.392C723.636 272.04 723.012 271.864 722.18 271.864C721.14 271.864 720.412 272.04 719.996 272.392C719.58 272.728 719.372 273.144 719.372 273.64C719.372 274.216 719.596 274.648 720.044 274.936C720.508 275.224 721.348 275.448 722.564 275.608C723.348 275.704 724.044 275.848 724.652 276.04C725.26 276.216 725.772 276.464 726.188 276.784C726.604 277.088 726.916 277.464 727.124 277.912C727.348 278.36 727.46 278.896 727.46 279.52C727.46 280.192 727.268 280.808 726.884 281.368C726.5 281.928 725.916 282.384 725.132 282.736C724.364 283.072 723.38 283.24 722.18 283.24ZM732.147 283.24C731.843 283.24 731.563 283.16 731.307 283C731.051 282.856 730.843 282.656 730.683 282.4C730.539 282.144 730.467 281.864 730.467 281.56C730.467 281.08 730.627 280.68 730.947 280.36C731.283 280.04 731.683 279.88 732.147 279.88C732.611 279.88 733.003 280.04 733.323 280.36C733.659 280.68 733.827 281.08 733.827 281.56C733.827 281.864 733.747 282.144 733.587 282.4C733.443 282.656 733.243 282.856 732.987 283C732.747 283.16 732.467 283.24 732.147 283.24Z" fill="#13065A"/>
</svg>
