<svg width="1200" height="387" viewBox="0 0 1200 387" fill="none" xmlns="http://www.w3.org/2000/svg">
<path d="M210 44V344" stroke="#13065A" stroke-width="13.3333" stroke-linecap="square"/>
<path d="M360 194L60 194" stroke="#13065A" stroke-width="13.3333" stroke-linecap="square"/>
<path d="M285 64L135 323.808" stroke="#13065A" stroke-width="13.3333" stroke-linecap="square"/>
<path d="M340 269L80.1924 119" stroke="#13065A" stroke-width="13.3333" stroke-linecap="square"/>
<path d="M340 119L80.1924 269" stroke="#13065A" stroke-width="13.3333" stroke-linecap="square"/>
<path d="M285 324L135 64.1924" stroke="#13065A" stroke-width="13.3333" stroke-linecap="square"/>
<path d="M448.15 172.364C447.665 168.061 445.665 164.727 442.15 162.364C438.635 159.97 434.211 158.773 428.877 158.773C425.059 158.773 421.756 159.379 418.968 160.591C416.18 161.773 414.014 163.409 412.468 165.5C410.953 167.561 410.195 169.909 410.195 172.545C410.195 174.758 410.711 176.667 411.741 178.273C412.802 179.879 414.18 181.227 415.877 182.318C417.605 183.379 419.453 184.273 421.423 185C423.392 185.697 425.286 186.273 427.105 186.727L436.195 189.091C439.165 189.818 442.211 190.803 445.332 192.045C448.453 193.288 451.347 194.924 454.014 196.955C456.68 198.985 458.832 201.5 460.468 204.5C462.135 207.5 462.968 211.091 462.968 215.273C462.968 220.545 461.605 225.227 458.877 229.318C456.18 233.409 452.256 236.636 447.105 239C441.983 241.364 435.786 242.545 428.514 242.545C421.544 242.545 415.514 241.439 410.423 239.227C405.332 237.015 401.347 233.879 398.468 229.818C395.589 225.727 393.999 220.879 393.695 215.273H407.786C408.059 218.636 409.15 221.439 411.059 223.682C412.999 225.894 415.468 227.545 418.468 228.636C421.499 229.697 424.817 230.227 428.423 230.227C432.392 230.227 435.923 229.606 439.014 228.364C442.135 227.091 444.589 225.333 446.377 223.091C448.165 220.818 449.059 218.167 449.059 215.136C449.059 212.379 448.271 210.121 446.695 208.364C445.15 206.606 443.044 205.152 440.377 204C437.741 202.848 434.756 201.833 431.423 200.955L420.423 197.955C412.968 195.924 407.059 192.939 402.695 189C398.362 185.061 396.195 179.848 396.195 173.364C396.195 168 397.65 163.318 400.559 159.318C403.468 155.318 407.408 152.212 412.377 150C417.347 147.758 422.953 146.636 429.195 146.636C435.499 146.636 441.059 147.742 445.877 149.955C450.726 152.167 454.544 155.212 457.332 159.091C460.12 162.939 461.574 167.364 461.695 172.364H448.15ZM492.552 241V147.909H525.734C532.977 147.909 538.977 149.227 543.734 151.864C548.492 154.5 552.052 158.106 554.416 162.682C556.78 167.227 557.961 172.348 557.961 178.045C557.961 183.773 556.764 188.924 554.37 193.5C552.007 198.045 548.431 201.652 543.643 204.318C538.886 206.955 532.901 208.273 525.689 208.273H502.87V196.364H524.416C528.992 196.364 532.704 195.576 535.552 194C538.401 192.394 540.492 190.212 541.825 187.455C543.158 184.697 543.825 181.561 543.825 178.045C543.825 174.53 543.158 171.409 541.825 168.682C540.492 165.955 538.386 163.818 535.507 162.273C532.658 160.727 528.901 159.955 524.234 159.955H506.598V241H492.552ZM587.227 241V147.909H645.591V160H601.273V188.364H642.545V200.409H601.273V228.909H646.136V241H587.227ZM754.47 178.182H740.289C739.743 175.152 738.728 172.485 737.243 170.182C735.758 167.879 733.94 165.924 731.789 164.318C729.637 162.712 727.228 161.5 724.561 160.682C721.925 159.864 719.122 159.455 716.152 159.455C710.789 159.455 705.986 160.803 701.743 163.5C697.531 166.197 694.198 170.152 691.743 175.364C689.319 180.576 688.107 186.939 688.107 194.455C688.107 202.03 689.319 208.424 691.743 213.636C694.198 218.848 697.546 222.788 701.789 225.455C706.031 228.121 710.804 229.455 716.107 229.455C719.046 229.455 721.834 229.061 724.47 228.273C727.137 227.455 729.546 226.258 731.698 224.682C733.849 223.106 735.667 221.182 737.152 218.909C738.667 216.606 739.713 213.97 740.289 211L754.47 211.045C753.713 215.621 752.243 219.833 750.061 223.682C747.91 227.5 745.137 230.803 741.743 233.591C738.38 236.348 734.531 238.485 730.198 240C725.864 241.515 721.137 242.273 716.016 242.273C707.955 242.273 700.774 240.364 694.47 236.545C688.167 232.697 683.198 227.197 679.561 220.045C675.955 212.894 674.152 204.364 674.152 194.455C674.152 184.515 675.97 175.985 679.607 168.864C683.243 161.712 688.213 156.227 694.516 152.409C700.819 148.561 707.986 146.636 716.016 146.636C720.955 146.636 725.561 147.348 729.834 148.773C734.137 150.167 738.001 152.227 741.425 154.955C744.849 157.652 747.683 160.955 749.925 164.864C752.167 168.742 753.683 173.182 754.47 178.182ZM779.486 160V147.909H851.532V160H822.486V241H808.486V160H779.486ZM880.252 241V147.909H913.434C920.646 147.909 926.631 149.152 931.389 151.636C936.177 154.121 939.752 157.561 942.116 161.955C944.48 166.318 945.661 171.364 945.661 177.091C945.661 182.788 944.464 187.803 942.07 192.136C939.707 196.439 936.131 199.788 931.343 202.182C926.586 204.576 920.601 205.773 913.389 205.773H888.252V193.682H912.116C916.661 193.682 920.358 193.03 923.207 191.727C926.086 190.424 928.192 188.53 929.525 186.045C930.858 183.561 931.525 180.576 931.525 177.091C931.525 173.576 930.843 170.53 929.48 167.955C928.146 165.379 926.04 163.409 923.161 162.045C920.313 160.652 916.57 159.955 911.934 159.955H894.298V241H880.252ZM926.207 199L949.207 241H933.207L910.661 199H926.207ZM983.416 241H968.507L1002.01 147.909H1018.23L1051.73 241H1036.83L1010.51 164.818H1009.78L983.416 241ZM985.916 204.545H1034.28V216.364H985.916V204.545ZM1077.98 241V147.909H1092.02V228.909H1134.2V241H1077.98Z" fill="#13065A"/>
<path d="M392.918 283V265.545H403.861V267.812H395.551V273.131H403.29V275.389H395.551V280.733H403.963V283H392.918ZM409.185 269.909L412.075 275.006L414.989 269.909H417.776L413.694 276.455L417.81 283H415.023L412.075 278.108L409.134 283H406.339L410.413 276.455L406.39 269.909H409.185ZM420.393 287.909V269.909H422.881V272.031H423.094C423.242 271.759 423.455 271.443 423.734 271.085C424.012 270.727 424.398 270.415 424.893 270.148C425.387 269.875 426.04 269.739 426.853 269.739C427.91 269.739 428.853 270.006 429.683 270.54C430.512 271.074 431.163 271.844 431.634 272.849C432.112 273.855 432.35 275.065 432.35 276.48C432.35 277.895 432.114 279.108 431.643 280.119C431.171 281.125 430.523 281.901 429.7 282.446C428.876 282.986 427.935 283.256 426.879 283.256C426.083 283.256 425.433 283.122 424.927 282.855C424.427 282.588 424.035 282.276 423.751 281.918C423.467 281.56 423.248 281.241 423.094 280.963H422.941V287.909H420.393ZM422.89 276.455C422.89 277.375 423.023 278.182 423.29 278.875C423.558 279.568 423.944 280.111 424.45 280.503C424.955 280.889 425.575 281.082 426.308 281.082C427.069 281.082 427.705 280.881 428.217 280.477C428.728 280.068 429.114 279.514 429.376 278.815C429.643 278.116 429.776 277.33 429.776 276.455C429.776 275.591 429.646 274.815 429.384 274.128C429.129 273.44 428.742 272.898 428.225 272.5C427.714 272.102 427.075 271.903 426.308 271.903C425.569 271.903 424.944 272.094 424.433 272.474C423.927 272.855 423.543 273.386 423.282 274.068C423.021 274.75 422.89 275.545 422.89 276.455ZM437.754 265.545V283H435.205V265.545H437.754ZM446.696 283.264C445.469 283.264 444.398 282.983 443.483 282.42C442.568 281.858 441.858 281.071 441.352 280.06C440.847 279.048 440.594 277.866 440.594 276.514C440.594 275.156 440.847 273.969 441.352 272.952C441.858 271.935 442.568 271.145 443.483 270.582C444.398 270.02 445.469 269.739 446.696 269.739C447.923 269.739 448.994 270.02 449.909 270.582C450.824 271.145 451.534 271.935 452.04 272.952C452.545 273.969 452.798 275.156 452.798 276.514C452.798 277.866 452.545 279.048 452.04 280.06C451.534 281.071 450.824 281.858 449.909 282.42C448.994 282.983 447.923 283.264 446.696 283.264ZM446.705 281.125C447.5 281.125 448.159 280.915 448.682 280.494C449.205 280.074 449.591 279.514 449.841 278.815C450.097 278.116 450.224 277.347 450.224 276.506C450.224 275.67 450.097 274.903 449.841 274.205C449.591 273.5 449.205 272.935 448.682 272.509C448.159 272.082 447.5 271.869 446.705 271.869C445.903 271.869 445.239 272.082 444.71 272.509C444.188 272.935 443.798 273.5 443.543 274.205C443.293 274.903 443.168 275.67 443.168 276.506C443.168 277.347 443.293 278.116 443.543 278.815C443.798 279.514 444.188 280.074 444.71 280.494C445.239 280.915 445.903 281.125 446.705 281.125ZM455.643 283V269.909H458.106V271.989H458.242C458.481 271.284 458.901 270.73 459.504 270.327C460.112 269.918 460.799 269.713 461.566 269.713C461.725 269.713 461.913 269.719 462.129 269.73C462.35 269.741 462.523 269.756 462.648 269.773V272.21C462.546 272.182 462.364 272.151 462.103 272.116C461.842 272.077 461.58 272.057 461.319 272.057C460.717 272.057 460.18 272.185 459.708 272.44C459.242 272.69 458.873 273.04 458.6 273.489C458.327 273.932 458.191 274.437 458.191 275.006V283H455.643ZM470.027 283.264C468.737 283.264 467.626 282.989 466.695 282.438C465.768 281.881 465.053 281.099 464.547 280.094C464.047 279.082 463.797 277.898 463.797 276.54C463.797 275.199 464.047 274.017 464.547 272.994C465.053 271.972 465.757 271.173 466.661 270.599C467.57 270.026 468.632 269.739 469.848 269.739C470.587 269.739 471.303 269.861 471.996 270.105C472.689 270.349 473.311 270.733 473.862 271.256C474.413 271.778 474.848 272.457 475.166 273.293C475.484 274.122 475.643 275.131 475.643 276.318V277.222H465.237V275.312H473.146C473.146 274.642 473.01 274.048 472.737 273.531C472.464 273.009 472.081 272.597 471.587 272.295C471.098 271.994 470.524 271.844 469.865 271.844C469.149 271.844 468.524 272.02 467.99 272.372C467.462 272.719 467.053 273.173 466.763 273.736C466.479 274.293 466.337 274.898 466.337 275.551V277.043C466.337 277.918 466.49 278.662 466.797 279.276C467.109 279.889 467.544 280.358 468.101 280.682C468.658 281 469.308 281.159 470.053 281.159C470.536 281.159 470.976 281.091 471.374 280.955C471.771 280.812 472.115 280.602 472.405 280.324C472.695 280.045 472.916 279.702 473.07 279.293L475.482 279.727C475.288 280.437 474.942 281.06 474.442 281.594C473.947 282.122 473.325 282.534 472.575 282.83C471.831 283.119 470.982 283.264 470.027 283.264ZM490.933 269.909V271.955H483.783V269.909H490.933ZM485.7 266.773H488.249V279.156C488.249 279.651 488.322 280.023 488.47 280.273C488.618 280.517 488.808 280.685 489.041 280.776C489.28 280.861 489.538 280.903 489.817 280.903C490.021 280.903 490.2 280.889 490.354 280.861C490.507 280.832 490.626 280.81 490.712 280.793L491.172 282.898C491.024 282.955 490.814 283.011 490.541 283.068C490.268 283.131 489.928 283.165 489.518 283.17C488.848 283.182 488.223 283.062 487.643 282.812C487.064 282.562 486.595 282.176 486.237 281.653C485.879 281.131 485.7 280.474 485.7 279.685V266.773ZM496.582 275.227V283H494.033V265.545H496.548V272.04H496.71C497.016 271.335 497.485 270.776 498.116 270.361C498.746 269.946 499.57 269.739 500.587 269.739C501.485 269.739 502.269 269.923 502.94 270.293C503.616 270.662 504.138 271.213 504.508 271.946C504.883 272.673 505.07 273.582 505.07 274.673V283H502.522V274.98C502.522 274.02 502.275 273.276 501.781 272.747C501.286 272.213 500.599 271.946 499.718 271.946C499.116 271.946 498.576 272.074 498.099 272.33C497.627 272.585 497.255 272.96 496.982 273.455C496.715 273.943 496.582 274.534 496.582 275.227ZM514.113 283.264C512.823 283.264 511.712 282.989 510.781 282.438C509.854 281.881 509.138 281.099 508.633 280.094C508.133 279.082 507.883 277.898 507.883 276.54C507.883 275.199 508.133 274.017 508.633 272.994C509.138 271.972 509.843 271.173 510.746 270.599C511.656 270.026 512.718 269.739 513.934 269.739C514.673 269.739 515.388 269.861 516.082 270.105C516.775 270.349 517.397 270.733 517.948 271.256C518.499 271.778 518.934 272.457 519.252 273.293C519.57 274.122 519.729 275.131 519.729 276.318V277.222H509.323V275.312H517.232C517.232 274.642 517.096 274.048 516.823 273.531C516.55 273.009 516.167 272.597 515.673 272.295C515.184 271.994 514.61 271.844 513.951 271.844C513.235 271.844 512.61 272.02 512.076 272.372C511.548 272.719 511.138 273.173 510.849 273.736C510.565 274.293 510.423 274.898 510.423 275.551V277.043C510.423 277.918 510.576 278.662 510.883 279.276C511.195 279.889 511.63 280.358 512.187 280.682C512.744 281 513.394 281.159 514.138 281.159C514.621 281.159 515.062 281.091 515.46 280.955C515.857 280.812 516.201 280.602 516.491 280.324C516.781 280.045 517.002 279.702 517.156 279.293L519.567 279.727C519.374 280.437 519.028 281.06 518.528 281.594C518.033 282.122 517.411 282.534 516.661 282.83C515.917 283.119 515.067 283.264 514.113 283.264ZM531.746 283L527.894 269.909H530.528L533.093 279.523H533.221L535.795 269.909H538.428L540.985 279.48H541.113L543.661 269.909H546.295L542.451 283H539.852L537.192 273.548H536.996L534.337 283H531.746ZM553.829 283.264C552.602 283.264 551.531 282.983 550.616 282.42C549.701 281.858 548.991 281.071 548.485 280.06C547.979 279.048 547.727 277.866 547.727 276.514C547.727 275.156 547.979 273.969 548.485 272.952C548.991 271.935 549.701 271.145 550.616 270.582C551.531 270.02 552.602 269.739 553.829 269.739C555.056 269.739 556.127 270.02 557.042 270.582C557.957 271.145 558.667 271.935 559.173 272.952C559.678 273.969 559.931 275.156 559.931 276.514C559.931 277.866 559.678 279.048 559.173 280.06C558.667 281.071 557.957 281.858 557.042 282.42C556.127 282.983 555.056 283.264 553.829 283.264ZM553.837 281.125C554.633 281.125 555.292 280.915 555.815 280.494C556.337 280.074 556.724 279.514 556.974 278.815C557.229 278.116 557.357 277.347 557.357 276.506C557.357 275.67 557.229 274.903 556.974 274.205C556.724 273.5 556.337 272.935 555.815 272.509C555.292 272.082 554.633 271.869 553.837 271.869C553.036 271.869 552.371 272.082 551.843 272.509C551.32 272.935 550.931 273.5 550.675 274.205C550.425 274.903 550.3 275.67 550.3 276.506C550.3 277.347 550.425 278.116 550.675 278.815C550.931 279.514 551.32 280.074 551.843 280.494C552.371 280.915 553.036 281.125 553.837 281.125ZM562.776 283V269.909H565.239V271.989H565.375C565.614 271.284 566.034 270.73 566.636 270.327C567.244 269.918 567.932 269.713 568.699 269.713C568.858 269.713 569.045 269.719 569.261 269.73C569.483 269.741 569.656 269.756 569.781 269.773V272.21C569.679 272.182 569.497 272.151 569.236 272.116C568.974 272.077 568.713 272.057 568.452 272.057C567.849 272.057 567.313 272.185 566.841 272.44C566.375 272.69 566.006 273.04 565.733 273.489C565.46 273.932 565.324 274.437 565.324 275.006V283H562.776ZM574.535 265.545V283H571.987V265.545H574.535ZM582.864 283.256C581.807 283.256 580.864 282.986 580.034 282.446C579.21 281.901 578.563 281.125 578.091 280.119C577.625 279.108 577.392 277.895 577.392 276.48C577.392 275.065 577.628 273.855 578.099 272.849C578.577 271.844 579.23 271.074 580.06 270.54C580.889 270.006 581.83 269.739 582.881 269.739C583.693 269.739 584.347 269.875 584.841 270.148C585.341 270.415 585.727 270.727 586 271.085C586.278 271.443 586.494 271.759 586.648 272.031H586.801V265.545H589.349V283H586.861V280.963H586.648C586.494 281.241 586.273 281.56 585.983 281.918C585.699 282.276 585.307 282.588 584.807 282.855C584.307 283.122 583.659 283.256 582.864 283.256ZM583.426 281.082C584.159 281.082 584.778 280.889 585.284 280.503C585.795 280.111 586.182 279.568 586.443 278.875C586.71 278.182 586.844 277.375 586.844 276.455C586.844 275.545 586.713 274.75 586.452 274.068C586.19 273.386 585.807 272.855 585.301 272.474C584.795 272.094 584.17 271.903 583.426 271.903C582.659 271.903 582.02 272.102 581.509 272.5C580.997 272.898 580.611 273.44 580.349 274.128C580.094 274.815 579.966 275.591 579.966 276.455C579.966 277.33 580.097 278.116 580.358 278.815C580.619 279.514 581.006 280.068 581.517 280.477C582.034 280.881 582.67 281.082 583.426 281.082ZM604.852 283.264C603.625 283.264 602.554 282.983 601.639 282.42C600.724 281.858 600.014 281.071 599.509 280.06C599.003 279.048 598.75 277.866 598.75 276.514C598.75 275.156 599.003 273.969 599.509 272.952C600.014 271.935 600.724 271.145 601.639 270.582C602.554 270.02 603.625 269.739 604.852 269.739C606.08 269.739 607.151 270.02 608.065 270.582C608.98 271.145 609.69 271.935 610.196 272.952C610.702 273.969 610.955 275.156 610.955 276.514C610.955 277.866 610.702 279.048 610.196 280.06C609.69 281.071 608.98 281.858 608.065 282.42C607.151 282.983 606.08 283.264 604.852 283.264ZM604.861 281.125C605.656 281.125 606.315 280.915 606.838 280.494C607.361 280.074 607.747 279.514 607.997 278.815C608.253 278.116 608.381 277.347 608.381 276.506C608.381 275.67 608.253 274.903 607.997 274.205C607.747 273.5 607.361 272.935 606.838 272.509C606.315 272.082 605.656 271.869 604.861 271.869C604.06 271.869 603.395 272.082 602.866 272.509C602.344 272.935 601.955 273.5 601.699 274.205C601.449 274.903 601.324 275.67 601.324 276.506C601.324 277.347 601.449 278.116 601.699 278.815C601.955 279.514 602.344 280.074 602.866 280.494C603.395 280.915 604.06 281.125 604.861 281.125ZM620.029 269.909V271.955H612.631V269.909H620.029ZM614.66 283V268.392C614.66 267.574 614.839 266.895 615.197 266.355C615.555 265.81 616.029 265.403 616.62 265.136C617.211 264.864 617.853 264.727 618.546 264.727C619.058 264.727 619.495 264.77 619.859 264.855C620.222 264.935 620.492 265.009 620.668 265.077L620.072 267.139C619.952 267.105 619.799 267.065 619.612 267.02C619.424 266.969 619.197 266.943 618.93 266.943C618.31 266.943 617.867 267.097 617.6 267.403C617.339 267.71 617.208 268.153 617.208 268.733V283H614.66ZM629.01 283V269.909H631.456V272.04H631.618C631.891 271.318 632.337 270.756 632.956 270.352C633.575 269.943 634.317 269.739 635.18 269.739C636.055 269.739 636.788 269.943 637.379 270.352C637.976 270.761 638.416 271.324 638.7 272.04H638.837C639.149 271.341 639.646 270.784 640.328 270.369C641.01 269.949 641.822 269.739 642.766 269.739C643.953 269.739 644.922 270.111 645.672 270.855C646.428 271.599 646.805 272.722 646.805 274.222V283H644.257V274.46C644.257 273.574 644.016 272.932 643.533 272.534C643.05 272.136 642.473 271.938 641.803 271.938C640.973 271.938 640.328 272.193 639.868 272.705C639.408 273.21 639.178 273.861 639.178 274.656V283H636.638V274.298C636.638 273.588 636.416 273.017 635.973 272.585C635.53 272.153 634.953 271.938 634.243 271.938C633.76 271.938 633.314 272.065 632.905 272.321C632.501 272.571 632.175 272.92 631.925 273.369C631.68 273.818 631.558 274.338 631.558 274.929V283H629.01ZM654.031 283.29C653.201 283.29 652.451 283.136 651.781 282.83C651.11 282.517 650.579 282.065 650.187 281.474C649.8 280.884 649.607 280.159 649.607 279.301C649.607 278.562 649.749 277.955 650.033 277.477C650.317 277 650.701 276.622 651.184 276.344C651.667 276.065 652.207 275.855 652.803 275.713C653.4 275.571 654.008 275.463 654.627 275.389C655.411 275.298 656.048 275.224 656.536 275.168C657.025 275.105 657.38 275.006 657.602 274.869C657.823 274.733 657.934 274.511 657.934 274.205V274.145C657.934 273.401 657.724 272.824 657.303 272.415C656.888 272.006 656.269 271.801 655.445 271.801C654.587 271.801 653.911 271.991 653.417 272.372C652.928 272.747 652.59 273.165 652.403 273.625L650.008 273.08C650.292 272.284 650.707 271.642 651.252 271.153C651.803 270.659 652.437 270.301 653.153 270.08C653.869 269.852 654.621 269.739 655.411 269.739C655.934 269.739 656.488 269.801 657.073 269.926C657.664 270.045 658.215 270.267 658.727 270.591C659.244 270.915 659.667 271.378 659.996 271.98C660.326 272.577 660.491 273.352 660.491 274.307V283H658.002V281.21H657.9C657.735 281.54 657.488 281.864 657.158 282.182C656.829 282.5 656.406 282.764 655.888 282.974C655.371 283.185 654.752 283.29 654.031 283.29ZM654.585 281.244C655.289 281.244 655.891 281.105 656.391 280.827C656.897 280.548 657.281 280.185 657.542 279.736C657.809 279.281 657.942 278.795 657.942 278.278V276.591C657.852 276.682 657.675 276.767 657.414 276.847C657.158 276.92 656.866 276.986 656.536 277.043C656.207 277.094 655.886 277.142 655.573 277.188C655.261 277.227 654.999 277.261 654.789 277.29C654.295 277.352 653.843 277.457 653.434 277.605C653.031 277.753 652.707 277.966 652.462 278.244C652.224 278.517 652.104 278.881 652.104 279.335C652.104 279.966 652.337 280.443 652.803 280.767C653.269 281.085 653.863 281.244 654.585 281.244ZM669.996 269.909V271.955H662.845V269.909H669.996ZM664.763 266.773H667.311V279.156C667.311 279.651 667.385 280.023 667.533 280.273C667.68 280.517 667.871 280.685 668.104 280.776C668.342 280.861 668.601 280.903 668.879 280.903C669.084 280.903 669.263 280.889 669.416 280.861C669.57 280.832 669.689 280.81 669.774 280.793L670.234 282.898C670.087 282.955 669.876 283.011 669.604 283.068C669.331 283.131 668.99 283.165 668.581 283.17C667.911 283.182 667.286 283.062 666.706 282.812C666.126 282.562 665.658 282.176 665.3 281.653C664.942 281.131 664.763 280.474 664.763 279.685V266.773ZM672.815 283V269.909H675.278V271.989H675.414C675.653 271.284 676.073 270.73 676.675 270.327C677.283 269.918 677.971 269.713 678.738 269.713C678.897 269.713 679.085 269.719 679.3 269.73C679.522 269.741 679.695 269.756 679.82 269.773V272.21C679.718 272.182 679.536 272.151 679.275 272.116C679.013 272.077 678.752 272.057 678.491 272.057C677.888 272.057 677.352 272.185 676.88 272.44C676.414 272.69 676.045 273.04 675.772 273.489C675.499 273.932 675.363 274.437 675.363 275.006V283H672.815ZM682.026 283V269.909H684.574V283H682.026ZM683.312 267.889C682.869 267.889 682.489 267.741 682.17 267.446C681.858 267.145 681.702 266.787 681.702 266.372C681.702 265.952 681.858 265.594 682.17 265.298C682.489 264.997 682.869 264.847 683.312 264.847C683.756 264.847 684.134 264.997 684.446 265.298C684.764 265.594 684.923 265.952 684.923 266.372C684.923 266.787 684.764 267.145 684.446 267.446C684.134 267.741 683.756 267.889 683.312 267.889ZM693.516 283.264C692.249 283.264 691.158 282.977 690.244 282.403C689.335 281.824 688.636 281.026 688.147 280.009C687.658 278.991 687.414 277.827 687.414 276.514C687.414 275.185 687.664 274.011 688.164 272.994C688.664 271.972 689.369 271.173 690.278 270.599C691.187 270.026 692.258 269.739 693.491 269.739C694.485 269.739 695.371 269.923 696.15 270.293C696.928 270.656 697.556 271.168 698.033 271.827C698.516 272.486 698.803 273.256 698.894 274.136H696.414C696.278 273.523 695.965 272.994 695.477 272.551C694.994 272.108 694.346 271.886 693.533 271.886C692.823 271.886 692.201 272.074 691.667 272.449C691.138 272.818 690.727 273.347 690.431 274.034C690.136 274.716 689.988 275.523 689.988 276.455C689.988 277.409 690.133 278.233 690.423 278.926C690.712 279.619 691.121 280.156 691.65 280.537C692.184 280.918 692.812 281.108 693.533 281.108C694.016 281.108 694.454 281.02 694.846 280.844C695.244 280.662 695.576 280.403 695.843 280.068C696.116 279.733 696.306 279.33 696.414 278.858H698.894C698.803 279.705 698.528 280.46 698.067 281.125C697.607 281.79 696.991 282.312 696.218 282.693C695.451 283.074 694.55 283.264 693.516 283.264ZM707.261 283.264C705.972 283.264 704.861 282.989 703.929 282.438C703.003 281.881 702.287 281.099 701.781 280.094C701.281 279.082 701.031 277.898 701.031 276.54C701.031 275.199 701.281 274.017 701.781 272.994C702.287 271.972 702.991 271.173 703.895 270.599C704.804 270.026 705.866 269.739 707.082 269.739C707.821 269.739 708.537 269.861 709.23 270.105C709.923 270.349 710.545 270.733 711.097 271.256C711.648 271.778 712.082 272.457 712.401 273.293C712.719 274.122 712.878 275.131 712.878 276.318V277.222H702.472V275.312H710.381C710.381 274.642 710.244 274.048 709.972 273.531C709.699 273.009 709.315 272.597 708.821 272.295C708.332 271.994 707.759 271.844 707.099 271.844C706.384 271.844 705.759 272.02 705.224 272.372C704.696 272.719 704.287 273.173 703.997 273.736C703.713 274.293 703.571 274.898 703.571 275.551V277.043C703.571 277.918 703.724 278.662 704.031 279.276C704.344 279.889 704.778 280.358 705.335 280.682C705.892 281 706.543 281.159 707.287 281.159C707.77 281.159 708.21 281.091 708.608 280.955C709.006 280.812 709.349 280.602 709.639 280.324C709.929 280.045 710.151 279.702 710.304 279.293L712.716 279.727C712.523 280.437 712.176 281.06 711.676 281.594C711.182 282.122 710.56 282.534 709.81 282.83C709.065 283.119 708.216 283.264 707.261 283.264ZM725.515 273.105L723.205 273.514C723.109 273.219 722.955 272.937 722.745 272.67C722.54 272.403 722.262 272.185 721.91 272.014C721.558 271.844 721.117 271.759 720.589 271.759C719.867 271.759 719.265 271.92 718.782 272.244C718.299 272.562 718.058 272.974 718.058 273.48C718.058 273.918 718.219 274.27 718.543 274.537C718.867 274.804 719.39 275.023 720.112 275.193L722.191 275.67C723.396 275.949 724.293 276.378 724.884 276.957C725.475 277.537 725.771 278.29 725.771 279.216C725.771 280 725.543 280.699 725.089 281.312C724.64 281.92 724.012 282.398 723.205 282.744C722.404 283.091 721.475 283.264 720.418 283.264C718.952 283.264 717.756 282.952 716.83 282.327C715.904 281.696 715.336 280.801 715.126 279.642L717.589 279.267C717.742 279.909 718.058 280.395 718.535 280.724C719.012 281.048 719.634 281.21 720.401 281.21C721.237 281.21 721.904 281.037 722.404 280.69C722.904 280.338 723.154 279.909 723.154 279.403C723.154 278.994 723.001 278.651 722.694 278.372C722.393 278.094 721.93 277.884 721.305 277.741L719.089 277.256C717.867 276.977 716.964 276.534 716.379 275.926C715.799 275.318 715.509 274.548 715.509 273.616C715.509 272.844 715.725 272.168 716.157 271.588C716.589 271.009 717.185 270.557 717.947 270.233C718.708 269.903 719.58 269.739 720.563 269.739C721.978 269.739 723.092 270.045 723.904 270.659C724.717 271.267 725.254 272.082 725.515 273.105ZM730.251 283.162C729.786 283.162 729.385 282.997 729.05 282.668C728.714 282.332 728.547 281.929 728.547 281.457C728.547 280.991 728.714 280.594 729.05 280.264C729.385 279.929 729.786 279.761 730.251 279.761C730.717 279.761 731.118 279.929 731.453 280.264C731.788 280.594 731.956 280.991 731.956 281.457C731.956 281.77 731.876 282.057 731.717 282.318C731.564 282.574 731.359 282.778 731.104 282.932C730.848 283.085 730.564 283.162 730.251 283.162Z" fill="#13065A"/>
</svg>
