<svg width="600" height="410" viewBox="0 0 600 410" fill="none" xmlns="http://www.w3.org/2000/svg">
<path d="M313.33 206.84C313.33 213.202 308.172 218.36 301.81 218.36C295.448 218.36 290.29 213.202 290.29 206.84C290.29 200.478 295.448 195.32 301.81 195.32C308.172 195.32 313.33 200.478 313.33 206.84ZM212.589 64.4979C212.867 63.3377 214.032 62.6219 215.192 62.8992L234.1 67.4179C235.26 67.6952 235.976 68.8606 235.698 70.0209C235.421 71.1811 234.256 71.8969 233.095 71.6196L216.289 67.6029L212.272 84.4096C211.995 85.5699 210.829 86.2856 209.669 86.0084C208.509 85.7311 207.793 84.5657 208.07 83.4054L212.589 64.4979ZM301.81 206.84L299.97 207.971L212.85 66.1305L214.69 65L216.531 63.8695L303.651 205.71L301.81 206.84Z" fill="#656AFF"/>
<path d="M290.29 206.84C290.29 213.202 295.448 218.36 301.81 218.36C308.172 218.36 313.33 213.202 313.33 206.84C313.33 200.478 308.172 195.32 301.81 195.32C295.448 195.32 290.29 200.478 290.29 206.84ZM361.546 128.762C361.371 127.582 360.272 126.768 359.092 126.944L339.864 129.807C338.684 129.983 337.87 131.082 338.046 132.262C338.221 133.442 339.32 134.256 340.5 134.08L357.592 131.535L360.137 148.626C360.313 149.806 361.412 150.62 362.592 150.444C363.772 150.269 364.586 149.17 364.41 147.99L361.546 128.762ZM301.81 206.84L303.546 208.126L361.146 130.366L359.41 129.08L357.674 127.794L300.074 205.554L301.81 206.84Z" fill="#656AFF"/>
<path d="M313.33 206.84C313.33 200.478 308.172 195.32 301.81 195.32C295.448 195.32 290.29 200.478 290.29 206.84C290.29 213.202 295.448 218.36 301.81 218.36C308.172 218.36 313.33 213.202 313.33 206.84ZM212.733 237.607C212.228 238.688 212.696 239.973 213.777 240.477L231.393 248.698C232.474 249.203 233.759 248.735 234.264 247.654C234.768 246.573 234.301 245.288 233.22 244.784L217.561 237.476L224.868 221.817C225.373 220.736 224.905 219.451 223.824 218.946C222.743 218.442 221.458 218.909 220.954 219.99L212.733 237.607ZM301.81 206.84L301.072 204.81L213.952 236.49L214.69 238.52L215.428 240.55L302.548 208.87L301.81 206.84Z" fill="#656AFF"/>
<path d="M290.29 206.84C290.29 200.478 295.448 195.32 301.81 195.32C308.172 195.32 313.33 200.478 313.33 206.84C313.33 213.202 308.172 218.36 301.81 218.36C295.448 218.36 290.29 213.202 290.29 206.84ZM409.722 263.828C410.059 264.973 409.406 266.174 408.262 266.512L389.617 272.015C388.473 272.352 387.271 271.699 386.934 270.554C386.596 269.41 387.25 268.209 388.394 267.871L404.967 262.98L400.075 246.407C399.738 245.262 400.391 244.061 401.536 243.723C402.68 243.386 403.881 244.04 404.219 245.184L409.722 263.828ZM301.81 206.84L302.843 204.943L408.683 262.543L407.65 264.44L406.618 266.337L300.778 208.737L301.81 206.84Z" fill="#656AFF"/>
<path d="M179.38 88.4737C179.38 87.7741 179.114 87.4243 178.583 87.4243C177.911 87.4243 177.211 87.8301 176.484 88.6416C175.756 89.4531 175.155 90.6983 174.679 92.3773C174.651 92.4052 174.623 92.4472 174.595 92.5032C174.567 92.5591 174.553 92.6011 174.553 92.6291C174.553 92.6571 174.525 92.6851 174.469 92.7131C174.413 92.741 174.371 92.755 174.343 92.755C174.315 92.755 174.259 92.755 174.175 92.755C174.091 92.755 173.979 92.755 173.839 92.755H173.252C173.084 92.5871 173 92.4612 173 92.3773C173 92.1814 173.112 91.7756 173.336 91.16C173.56 90.5444 173.895 89.8168 174.343 88.9774C174.791 88.1379 175.407 87.4243 176.19 86.8367C176.974 86.2491 177.855 85.9413 178.834 85.9133C180.01 85.9133 180.919 86.2491 181.563 86.9206C182.206 87.5922 182.542 88.3757 182.57 89.2712C182.57 89.7469 182.528 90.1107 182.444 90.3625C182.444 90.5304 182.234 91.146 181.815 92.2094C181.395 93.2727 180.961 94.5179 180.513 95.945C180.066 97.3722 179.814 98.6174 179.758 99.6807C179.758 100.436 179.828 101.052 179.968 101.528C180.331 102.731 181.213 103.332 182.612 103.332C183.647 103.332 184.613 102.857 185.508 101.905C186.404 100.954 187.103 99.8486 187.607 98.5894C188.111 97.3302 188.516 96.1689 188.824 95.1056C189.132 94.0422 189.286 93.2727 189.286 92.797C189.286 92.1534 189.174 91.5937 188.95 91.118C188.726 90.6423 188.474 90.2786 188.195 90.0267C187.915 89.7749 187.663 89.523 187.439 89.2712C187.215 89.0193 187.103 88.7115 187.103 88.3478C187.103 87.7321 187.369 87.1585 187.901 86.6268C188.432 86.0952 189.006 85.8293 189.622 85.8293C190.153 85.8293 190.629 86.0812 191.049 86.5849C191.469 87.0885 191.692 87.9 191.72 89.0193C191.72 89.7749 191.552 90.9362 191.217 92.5032C190.881 94.0702 190.363 95.8191 189.664 97.7499C188.964 99.6807 187.971 101.346 186.684 102.745C185.396 104.144 183.913 104.858 182.234 104.885C180.443 104.885 179.016 104.424 177.953 103.5C176.918 102.605 176.4 101.276 176.4 99.5128C176.4 98.6454 176.512 97.7499 176.736 96.8265C176.96 95.9031 177.533 94.2661 178.457 91.9155C179.072 90.1247 179.38 88.9774 179.38 88.4737Z" fill="#656AFF"/>
<path d="M188.794 75.8394C188.794 75.6156 188.864 75.4197 189.004 75.2518C189.144 75.0839 189.354 74.9999 189.634 74.9999C189.83 74.9999 189.998 75.0699 190.138 75.2098C190.278 75.3217 190.417 75.5876 190.557 76.0073C190.837 77.0427 191.411 77.8402 192.278 78.3998C192.586 78.5957 192.74 78.8476 192.74 79.1554C192.74 79.4072 192.698 79.5751 192.614 79.6591C192.53 79.743 192.334 79.8689 192.026 80.0368C190.823 80.6524 189.774 81.5339 188.878 82.6812C188.822 82.7371 188.752 82.8211 188.669 82.933C188.585 83.045 188.515 83.1289 188.459 83.1849C188.403 83.2408 188.333 83.2688 188.249 83.2688C188.165 83.2688 188.067 83.2828 187.955 83.3108C187.759 83.3108 187.577 83.2408 187.409 83.1009C187.241 82.961 187.143 82.7511 187.115 82.4713C187.115 81.9396 187.773 81.1142 189.088 79.9948H181.911L174.733 79.9529C174.369 79.701 174.188 79.4352 174.188 79.1554C174.188 78.9595 174.369 78.6797 174.733 78.3159H189.802C189.13 77.2526 188.794 76.4271 188.794 75.8394Z" fill="#656AFF"/>
<path d="M376 108.336C376 107.944 376.21 107.272 376.63 106.321C377.049 105.369 377.721 104.376 378.644 103.341C379.568 102.305 380.603 101.802 381.75 101.83C382.898 101.83 383.821 102.151 384.521 102.795C385.22 103.439 385.584 104.334 385.612 105.481C385.556 106.013 385.514 106.307 385.486 106.363C385.486 106.447 385.262 107.09 384.815 108.294C384.367 109.497 383.905 110.854 383.429 112.365C382.954 113.876 382.73 115.079 382.758 115.975C382.758 117.178 382.954 118.018 383.345 118.493C383.737 118.969 384.325 119.221 385.108 119.249C385.752 119.249 386.354 119.095 386.913 118.787C387.473 118.479 387.907 118.158 388.214 117.822C388.522 117.486 388.9 117.024 389.348 116.437C389.348 116.409 389.418 116.129 389.558 115.597C389.698 115.065 389.893 114.24 390.145 113.121C390.397 112.001 390.663 110.966 390.943 110.015C392.006 105.817 392.594 103.621 392.706 103.425C393.069 102.669 393.671 102.291 394.511 102.291C394.874 102.291 395.168 102.389 395.392 102.585C395.616 102.781 395.77 102.949 395.854 103.089C395.938 103.229 395.966 103.355 395.938 103.467C395.938 103.83 395.252 106.769 393.881 112.281C392.51 117.794 391.726 120.816 391.53 121.348C390.747 123.67 389.39 125.517 387.459 126.888C385.528 128.259 383.597 128.959 381.666 128.987C380.407 128.987 379.302 128.679 378.351 128.063C377.399 127.448 376.923 126.524 376.923 125.293C376.923 124.677 377.021 124.16 377.217 123.74C377.413 123.32 377.679 123.013 378.015 122.817C378.351 122.621 378.63 122.481 378.854 122.397C379.078 122.313 379.316 122.271 379.568 122.271C380.799 122.271 381.415 122.859 381.415 124.034C381.415 124.594 381.247 125.083 380.911 125.503C380.575 125.923 380.253 126.203 379.946 126.342C379.638 126.482 379.456 126.552 379.4 126.552L379.274 126.594C379.33 126.734 379.596 126.902 380.071 127.098C380.547 127.294 381.023 127.392 381.499 127.392H381.834C382.31 127.392 382.674 127.364 382.926 127.308C383.849 127.056 384.703 126.524 385.486 125.713C386.27 124.901 386.871 124.034 387.291 123.11C387.711 122.187 388.033 121.404 388.256 120.76C388.48 120.116 388.592 119.697 388.592 119.501L388.34 119.669C388.172 119.781 387.907 119.934 387.543 120.13C387.179 120.326 386.815 120.494 386.452 120.634C385.892 120.774 385.346 120.844 384.815 120.844C383.527 120.844 382.394 120.536 381.415 119.92C380.435 119.305 379.792 118.311 379.484 116.94C379.456 116.744 379.442 116.311 379.442 115.639C379.442 114.044 379.932 111.959 380.911 109.385C381.89 106.811 382.38 105.174 382.38 104.474C382.38 104.446 382.38 104.418 382.38 104.39C382.38 104.138 382.38 103.97 382.38 103.886C382.38 103.802 382.324 103.705 382.212 103.593C382.1 103.481 381.946 103.425 381.75 103.425H381.583C380.939 103.425 380.351 103.691 379.82 104.222C379.288 104.754 378.868 105.327 378.56 105.943C378.253 106.559 378.015 107.146 377.847 107.706C377.679 108.266 377.567 108.573 377.511 108.629C377.455 108.685 377.231 108.713 376.839 108.713H376.252C376.084 108.545 376 108.42 376 108.336Z" fill="#656AFF"/>
<path d="M393.067 91.8397C393.067 91.6158 393.137 91.4199 393.277 91.252C393.417 91.0841 393.627 91.0002 393.906 91.0002C394.102 91.0002 394.27 91.0701 394.41 91.2101C394.55 91.322 394.69 91.5878 394.83 92.0076C395.11 93.0429 395.683 93.8404 396.551 94.4001C396.859 94.596 397.012 94.8478 397.012 95.1556C397.012 95.4075 396.97 95.5754 396.887 95.6593C396.803 95.7432 396.607 95.8692 396.299 96.0371C395.096 96.6527 394.046 97.5341 393.151 98.6814C393.095 98.7374 393.025 98.8213 392.941 98.9333C392.857 99.0452 392.787 99.1291 392.731 99.1851C392.675 99.2411 392.605 99.2691 392.521 99.2691C392.437 99.2691 392.339 99.2831 392.227 99.311C392.032 99.311 391.85 99.2411 391.682 99.1012C391.514 98.9613 391.416 98.7514 391.388 98.4716C391.388 97.9399 392.046 97.1144 393.361 95.9951H386.183L379.006 95.9531C378.642 95.7013 378.46 95.4354 378.46 95.1556C378.46 94.9597 378.642 94.6799 379.006 94.3161H394.074C393.403 93.2528 393.067 92.4273 393.067 91.8397Z" fill="#656AFF"/>
<path d="M171.714 241.251C171.909 240.076 172.665 238.719 173.98 237.18C175.295 235.641 176.918 234.857 178.849 234.829C179.829 234.829 180.724 235.081 181.535 235.585C182.347 236.089 182.949 236.718 183.34 237.474C184.516 235.711 185.929 234.829 187.58 234.829C188.615 234.829 189.511 235.137 190.266 235.753C191.022 236.368 191.413 237.194 191.441 238.229C191.441 239.041 191.245 239.698 190.854 240.202C190.462 240.706 190.084 241.014 189.72 241.126C189.357 241.237 189.035 241.293 188.755 241.293C188.223 241.293 187.79 241.14 187.454 240.832C187.118 240.524 186.95 240.118 186.95 239.614C186.95 238.327 187.65 237.446 189.049 236.97C188.741 236.606 188.181 236.424 187.37 236.424C187.006 236.424 186.74 236.452 186.572 236.508C185.509 236.956 184.725 237.88 184.222 239.279C182.543 245.463 181.703 249.073 181.703 250.108C181.703 250.891 181.927 251.451 182.375 251.787C182.823 252.123 183.312 252.291 183.844 252.291C184.879 252.291 185.901 251.829 186.908 250.905C187.916 249.982 188.601 248.849 188.965 247.506C189.049 247.226 189.133 247.072 189.217 247.044C189.301 247.016 189.525 246.988 189.888 246.96H190.056C190.476 246.96 190.686 247.072 190.686 247.296C190.686 247.324 190.658 247.478 190.602 247.757C190.154 249.352 189.287 250.766 187.999 251.997C186.712 253.228 185.215 253.844 183.508 253.844C181.549 253.844 180.066 252.962 179.059 251.199C177.912 252.934 176.597 253.802 175.113 253.802H174.862C173.49 253.802 172.511 253.438 171.923 252.71C171.336 251.983 171.028 251.213 171 250.402C171 249.506 171.266 248.779 171.798 248.219C172.329 247.659 172.959 247.38 173.686 247.38C174.89 247.38 175.491 247.967 175.491 249.143C175.491 249.702 175.323 250.192 174.988 250.612C174.652 251.031 174.33 251.311 174.022 251.451C173.714 251.591 173.532 251.661 173.476 251.661L173.351 251.703C173.351 251.731 173.434 251.787 173.602 251.871C173.77 251.955 173.994 252.053 174.274 252.165C174.554 252.277 174.82 252.319 175.071 252.291C176.079 252.291 176.946 251.661 177.674 250.402C177.926 249.954 178.248 249.003 178.639 247.548C179.031 246.092 179.423 244.581 179.815 243.014C180.206 241.447 180.43 240.524 180.486 240.244C180.626 239.489 180.696 238.943 180.696 238.607C180.696 237.824 180.486 237.264 180.066 236.928C179.647 236.592 179.171 236.424 178.639 236.424C177.52 236.424 176.471 236.872 175.491 237.768C174.512 238.663 173.826 239.81 173.434 241.209C173.379 241.461 173.309 241.601 173.225 241.629C173.141 241.657 172.917 241.685 172.553 241.713H171.965C171.798 241.545 171.714 241.391 171.714 241.251Z" fill="#656AFF"/>
<path d="M188.034 224.84C188.034 224.616 188.104 224.42 188.244 224.252C188.383 224.084 188.593 224 188.873 224C189.069 224 189.237 224.07 189.377 224.21C189.517 224.322 189.657 224.588 189.797 225.007C190.076 226.043 190.65 226.84 191.518 227.4C191.825 227.596 191.979 227.848 191.979 228.155C191.979 228.407 191.937 228.575 191.853 228.659C191.769 228.743 191.573 228.869 191.266 229.037C190.062 229.653 189.013 230.534 188.118 231.681C188.062 231.737 187.992 231.821 187.908 231.933C187.824 232.045 187.754 232.129 187.698 232.185C187.642 232.241 187.572 232.269 187.488 232.269C187.404 232.269 187.306 232.283 187.194 232.311C186.998 232.311 186.816 232.241 186.649 232.101C186.481 231.961 186.383 231.751 186.355 231.471C186.355 230.94 187.012 230.114 188.328 228.995H181.15L173.972 228.953C173.609 228.701 173.427 228.435 173.427 228.155C173.427 227.96 173.609 227.68 173.972 227.316H189.041C188.369 226.253 188.034 225.427 188.034 224.84Z" fill="#656AFF"/>
<path d="M438.096 239.195C437.816 239.195 437.075 239.041 435.871 238.733C434.668 238.425 433.787 238.271 433.227 238.271C432.667 238.271 432.192 238.327 431.8 238.439C431.408 238.551 431.086 238.691 430.834 238.859C430.583 239.027 430.415 239.181 430.331 239.321C430.247 239.461 430.149 239.614 430.037 239.782L429.953 239.95C429.869 240.034 429.659 240.076 429.323 240.076C428.736 240.076 428.442 239.964 428.442 239.74C428.442 239.6 428.484 239.405 428.568 239.153C428.932 238.061 429.533 237.124 430.373 236.34C431.212 235.557 432.136 235.081 433.143 234.913C433.479 234.857 433.717 234.829 433.857 234.829C434.556 234.829 435.186 235.067 435.745 235.543C436.305 236.019 436.837 236.48 437.34 236.928C437.844 237.376 438.376 237.614 438.935 237.642C439.551 237.642 440.167 237.18 440.782 236.257C441.398 235.333 441.72 234.871 441.748 234.871C441.776 234.843 441.985 234.829 442.377 234.829H442.923C443.091 234.997 443.175 235.109 443.175 235.165C443.175 235.277 443.105 235.473 442.965 235.753C442.825 236.033 442.629 236.326 442.377 236.634C442.125 236.942 441.888 237.25 441.664 237.558C441.44 237.866 441.244 238.131 441.076 238.355L440.782 238.733C439.579 240.16 437.676 242.049 435.074 244.399C432.471 246.75 430.862 248.261 430.247 248.933L429.743 249.436L430.373 249.478C430.988 249.478 431.884 249.632 433.059 249.94C434.234 250.248 435.116 250.402 435.703 250.402C436.767 250.402 437.746 250.136 438.642 249.604C439.537 249.073 440.125 248.373 440.404 247.506C440.516 247.254 440.614 247.1 440.698 247.044C440.782 246.988 440.992 246.96 441.328 246.96C441.86 246.96 442.125 247.1 442.125 247.38C442.125 247.52 442.111 247.645 442.083 247.757C441.608 249.492 440.684 250.933 439.313 252.081C437.942 253.228 436.571 253.816 435.2 253.844C434.472 253.844 433.829 253.606 433.269 253.13C432.709 252.654 432.164 252.179 431.632 251.703C431.1 251.227 430.569 250.989 430.037 250.989C428.806 250.989 427.7 251.829 426.721 253.508C426.553 253.732 426.315 253.844 426.007 253.844H425.798H425.252C425.084 253.676 425 253.55 425 253.466C425 253.046 425.811 251.843 427.434 249.856C428.526 248.597 430.373 246.778 432.975 244.399C435.577 242.021 437.186 240.51 437.802 239.866C438.138 239.419 438.236 239.195 438.096 239.195Z" fill="#656AFF"/>
<path d="M440.955 224.839C440.955 224.616 441.025 224.42 441.164 224.252C441.304 224.084 441.514 224 441.794 224C441.99 224 442.158 224.07 442.298 224.21C442.438 224.322 442.578 224.588 442.717 225.007C442.997 226.043 443.571 226.84 444.438 227.4C444.746 227.596 444.9 227.848 444.9 228.155C444.9 228.407 444.858 228.575 444.774 228.659C444.69 228.743 444.494 228.869 444.187 229.037C442.983 229.652 441.934 230.534 441.039 231.681C440.983 231.737 440.913 231.821 440.829 231.933C440.745 232.045 440.675 232.129 440.619 232.185C440.563 232.241 440.493 232.269 440.409 232.269C440.325 232.269 440.227 232.283 440.115 232.311C439.919 232.311 439.737 232.241 439.569 232.101C439.402 231.961 439.304 231.751 439.276 231.471C439.276 230.94 439.933 230.114 441.248 228.995H434.071L426.893 228.953C426.53 228.701 426.348 228.435 426.348 228.155C426.348 227.959 426.53 227.68 426.893 227.316H441.962C441.29 226.253 440.955 225.427 440.955 224.839Z" fill="#656AFF"/>
</svg>
