<svg width="600" height="600" viewBox="0 0 600 600" fill="none" xmlns="http://www.w3.org/2000/svg">
<g clip-path="url(#clip0_49_97)">
<path d="M313.807 404.406C313.807 411.475 308.076 417.206 301.007 417.206C293.938 417.206 288.207 411.475 288.207 404.406C288.207 397.337 293.938 391.606 301.007 391.606C308.076 391.606 313.807 397.337 313.807 404.406ZM201.873 246.248C202.181 244.959 203.476 244.163 204.765 244.472L225.773 249.492C227.062 249.801 227.858 251.095 227.55 252.385C227.242 253.674 225.947 254.469 224.658 254.161L205.983 249.698L201.52 268.372C201.212 269.661 199.918 270.457 198.628 270.148C197.339 269.84 196.544 268.545 196.852 267.256L201.873 246.248ZM298.962 405.662L202.162 248.062L206.252 245.55L303.052 403.15L298.962 405.662Z" fill="#656AFF"/>
<path d="M288.207 404.406C288.207 411.475 293.938 417.206 301.007 417.206C308.076 417.206 313.807 411.475 313.807 404.406C313.807 397.337 308.076 391.606 301.007 391.606C293.938 391.606 288.207 397.337 288.207 404.406ZM367.381 317.652C367.186 316.341 365.965 315.437 364.654 315.632L343.289 318.814C341.978 319.009 341.074 320.23 341.269 321.541C341.464 322.852 342.685 323.757 343.996 323.562L362.987 320.733L365.815 339.724C366.01 341.035 367.232 341.939 368.543 341.744C369.854 341.549 370.758 340.328 370.563 339.017L367.381 317.652ZM302.936 405.834L366.936 319.434L363.079 316.577L299.079 402.977L302.936 405.834Z" fill="#656AFF"/>
<path d="M313.807 404.406C313.807 397.337 308.076 391.606 301.007 391.606C293.938 391.606 288.207 397.337 288.207 404.406C288.207 411.475 293.938 417.206 301.007 417.206C308.076 417.206 313.807 411.475 313.807 404.406ZM202.032 438.591C201.472 439.792 201.991 441.22 203.192 441.781L222.766 450.915C223.967 451.475 225.395 450.956 225.955 449.755C226.516 448.554 225.997 447.126 224.796 446.565L207.397 438.446L215.516 421.047C216.077 419.846 215.557 418.418 214.356 417.857C213.155 417.297 211.727 417.816 211.167 419.017L202.032 438.591ZM300.187 402.15L203.387 437.35L205.027 441.861L301.827 406.661L300.187 402.15Z" fill="#656AFF"/>
<path d="M288.207 404.406C288.207 397.337 293.938 391.606 301.007 391.606C308.076 391.606 313.807 397.337 313.807 404.406C313.807 411.475 308.076 417.206 301.007 417.206C293.938 417.206 288.207 411.475 288.207 404.406ZM420.909 467.726C421.284 468.998 420.558 470.332 419.286 470.708L398.57 476.822C397.299 477.197 395.964 476.471 395.589 475.2C395.214 473.928 395.94 472.594 397.211 472.219L415.626 466.783L410.191 448.369C409.815 447.097 410.542 445.763 411.813 445.388C413.084 445.012 414.419 445.739 414.794 447.01L420.909 467.726ZM302.154 402.298L419.754 466.298L417.46 470.514L299.86 406.514L302.154 402.298Z" fill="#656AFF"/>
<path d="M193.452 295.547C193.452 294.621 193.1 294.158 192.397 294.158C191.508 294.158 190.582 294.695 189.619 295.769C188.655 296.843 187.859 298.491 187.229 300.714C187.192 300.751 187.155 300.806 187.118 300.88C187.081 300.954 187.063 301.01 187.063 301.047C187.063 301.084 187.026 301.121 186.952 301.158C186.878 301.195 186.822 301.214 186.785 301.214C186.748 301.214 186.674 301.214 186.563 301.214C186.452 301.214 186.303 301.214 186.118 301.214H185.34C185.118 300.991 185.007 300.825 185.007 300.714C185.007 300.454 185.155 299.917 185.452 299.102C185.748 298.288 186.192 297.325 186.785 296.213C187.378 295.102 188.193 294.158 189.23 293.38C190.267 292.602 191.433 292.195 192.73 292.157C194.286 292.157 195.489 292.602 196.341 293.491C197.193 294.38 197.638 295.417 197.675 296.602C197.675 297.232 197.619 297.713 197.508 298.047C197.508 298.269 197.23 299.084 196.675 300.491C196.119 301.899 195.545 303.547 194.952 305.436C194.36 307.325 194.026 308.974 193.952 310.381C193.952 311.381 194.045 312.196 194.23 312.826C194.712 314.418 195.878 315.215 197.73 315.215C199.101 315.215 200.379 314.585 201.564 313.326C202.749 312.066 203.675 310.603 204.342 308.936C205.009 307.27 205.546 305.733 205.953 304.325C206.361 302.918 206.564 301.899 206.564 301.269C206.564 300.417 206.416 299.677 206.12 299.047C205.823 298.417 205.49 297.936 205.12 297.602C204.749 297.269 204.416 296.936 204.12 296.602C203.823 296.269 203.675 295.861 203.675 295.38C203.675 294.565 204.027 293.806 204.731 293.102C205.435 292.398 206.194 292.046 207.009 292.046C207.712 292.046 208.342 292.38 208.898 293.046C209.453 293.713 209.75 294.787 209.787 296.269C209.787 297.269 209.564 298.806 209.12 300.88C208.676 302.955 207.99 305.27 207.064 307.825C206.138 310.381 204.823 312.585 203.12 314.437C201.416 316.289 199.453 317.233 197.23 317.27C194.86 317.27 192.971 316.659 191.563 315.437C190.193 314.252 189.507 312.492 189.507 310.159C189.507 309.011 189.656 307.825 189.952 306.603C190.248 305.381 191.008 303.214 192.23 300.103C193.045 297.732 193.452 296.213 193.452 295.547Z" fill="#656AFF"/>
<path d="M164.352 451.747C164.611 450.191 165.611 448.395 167.352 446.358C169.093 444.321 171.241 443.283 173.797 443.246C175.093 443.246 176.278 443.58 177.353 444.246C178.427 444.913 179.223 445.747 179.742 446.747C181.297 444.413 183.168 443.246 185.353 443.246C186.724 443.246 187.909 443.654 188.909 444.469C189.909 445.284 190.428 446.376 190.465 447.747C190.465 448.821 190.205 449.691 189.687 450.358C189.168 451.025 188.668 451.432 188.187 451.58C187.705 451.728 187.279 451.803 186.909 451.803C186.205 451.803 185.631 451.599 185.186 451.191C184.742 450.784 184.52 450.247 184.52 449.58C184.52 447.876 185.446 446.71 187.298 446.08C186.89 445.598 186.15 445.358 185.075 445.358C184.594 445.358 184.242 445.395 184.02 445.469C182.612 446.061 181.575 447.284 180.908 449.136C178.686 457.322 177.575 462.1 177.575 463.47C177.575 464.507 177.871 465.248 178.464 465.692C179.056 466.137 179.705 466.359 180.408 466.359C181.779 466.359 183.131 465.748 184.464 464.526C185.798 463.303 186.705 461.803 187.187 460.025C187.298 459.655 187.409 459.451 187.52 459.414C187.631 459.377 187.927 459.34 188.409 459.303H188.631C189.187 459.303 189.465 459.451 189.465 459.748C189.465 459.785 189.428 459.988 189.353 460.359C188.761 462.47 187.613 464.341 185.909 465.97C184.205 467.6 182.223 468.415 179.964 468.415C177.371 468.415 175.408 467.248 174.075 464.915C172.556 467.211 170.815 468.359 168.852 468.359H168.519C166.704 468.359 165.407 467.878 164.629 466.915C163.852 465.952 163.444 464.933 163.407 463.859C163.407 462.674 163.759 461.711 164.463 460.97C165.166 460.229 166 459.859 166.963 459.859C168.556 459.859 169.352 460.637 169.352 462.192C169.352 462.933 169.13 463.581 168.685 464.137C168.241 464.692 167.815 465.063 167.407 465.248C167 465.433 166.759 465.526 166.685 465.526L166.518 465.581C166.518 465.618 166.63 465.692 166.852 465.804C167.074 465.915 167.37 466.044 167.741 466.193C168.111 466.341 168.463 466.396 168.796 466.359C170.13 466.359 171.278 465.526 172.241 463.859C172.574 463.266 173 462.007 173.519 460.081C174.038 458.155 174.556 456.155 175.075 454.081C175.593 452.006 175.89 450.784 175.964 450.414C176.149 449.414 176.241 448.691 176.241 448.247C176.241 447.21 175.964 446.469 175.408 446.024C174.852 445.58 174.223 445.358 173.519 445.358C172.037 445.358 170.648 445.95 169.352 447.136C168.056 448.321 167.148 449.839 166.63 451.691C166.555 452.025 166.463 452.21 166.352 452.247C166.241 452.284 165.944 452.321 165.463 452.358H164.685C164.463 452.136 164.352 451.932 164.352 451.747Z" fill="#656AFF"/>
<path d="M381.007 291.06C381.007 290.541 381.285 289.652 381.84 288.393C382.396 287.133 383.285 285.818 384.507 284.448C385.73 283.078 387.1 282.411 388.619 282.448C390.137 282.448 391.36 282.874 392.286 283.726C393.212 284.578 393.693 285.763 393.73 287.282C393.656 287.985 393.601 288.374 393.564 288.448C393.564 288.559 393.267 289.411 392.675 291.004C392.082 292.597 391.471 294.393 390.841 296.393C390.211 298.393 389.915 299.986 389.952 301.171C389.952 302.764 390.211 303.875 390.73 304.505C391.249 305.135 392.026 305.468 393.064 305.505C393.915 305.505 394.712 305.301 395.453 304.894C396.193 304.487 396.768 304.061 397.175 303.616C397.582 303.172 398.082 302.56 398.675 301.783C398.675 301.746 398.768 301.375 398.953 300.671C399.138 299.968 399.397 298.875 399.731 297.393C400.064 295.912 400.416 294.541 400.786 293.282C402.194 287.726 402.972 284.818 403.12 284.559C403.601 283.559 404.398 283.059 405.509 283.059C405.99 283.059 406.379 283.189 406.676 283.448C406.972 283.707 407.176 283.929 407.287 284.115C407.398 284.3 407.435 284.467 407.398 284.615C407.398 285.096 406.49 288.985 404.676 296.282C402.861 303.579 401.823 307.579 401.564 308.283C400.527 311.357 398.731 313.802 396.175 315.617C393.619 317.432 391.063 318.358 388.508 318.395C386.841 318.395 385.378 317.988 384.118 317.173C382.859 316.358 382.229 315.135 382.229 313.506C382.229 312.691 382.359 312.006 382.618 311.45C382.878 310.894 383.229 310.487 383.674 310.228C384.118 309.968 384.489 309.783 384.785 309.672C385.081 309.561 385.396 309.505 385.73 309.505C387.359 309.505 388.174 310.283 388.174 311.839C388.174 312.58 387.952 313.228 387.508 313.784C387.063 314.339 386.637 314.71 386.23 314.895C385.822 315.08 385.581 315.172 385.507 315.172L385.341 315.228C385.415 315.413 385.767 315.635 386.396 315.895C387.026 316.154 387.656 316.284 388.285 316.284H388.73C389.36 316.284 389.841 316.247 390.174 316.173C391.397 315.839 392.526 315.135 393.564 314.061C394.601 312.987 395.397 311.839 395.953 310.617C396.508 309.394 396.934 308.357 397.231 307.505C397.527 306.653 397.675 306.098 397.675 305.838L397.342 306.061C397.119 306.209 396.768 306.413 396.286 306.672C395.804 306.931 395.323 307.153 394.841 307.339C394.101 307.524 393.378 307.616 392.675 307.616C390.971 307.616 389.471 307.209 388.174 306.394C386.878 305.579 386.026 304.264 385.619 302.449C385.581 302.19 385.563 301.616 385.563 300.727C385.563 298.616 386.211 295.856 387.508 292.449C388.804 289.041 389.452 286.874 389.452 285.948C389.452 285.911 389.452 285.874 389.452 285.837C389.452 285.504 389.452 285.281 389.452 285.17C389.452 285.059 389.378 284.93 389.23 284.781C389.082 284.633 388.878 284.559 388.619 284.559H388.397C387.545 284.559 386.767 284.911 386.063 285.615C385.359 286.319 384.804 287.078 384.396 287.893C383.989 288.708 383.674 289.485 383.452 290.226C383.229 290.967 383.081 291.374 383.007 291.449C382.933 291.523 382.637 291.56 382.118 291.56H381.34C381.118 291.337 381.007 291.171 381.007 291.06Z" fill="#656AFF"/>
<path d="M447.942 432.224C447.571 432.224 446.59 432.021 444.997 431.613C443.404 431.206 442.237 431.002 441.497 431.002C440.756 431.002 440.126 431.076 439.608 431.224C439.089 431.372 438.663 431.558 438.33 431.78C437.996 432.002 437.774 432.206 437.663 432.391C437.552 432.576 437.422 432.78 437.274 433.002L437.163 433.224C437.052 433.336 436.774 433.391 436.33 433.391C435.552 433.391 435.163 433.243 435.163 432.947C435.163 432.761 435.218 432.502 435.33 432.169C435.811 430.724 436.607 429.483 437.719 428.446C438.83 427.409 440.052 426.78 441.386 426.557C441.83 426.483 442.145 426.446 442.33 426.446C443.256 426.446 444.089 426.761 444.83 427.391C445.571 428.02 446.275 428.632 446.941 429.224C447.608 429.817 448.312 430.132 449.053 430.169C449.868 430.169 450.682 429.557 451.497 428.335C452.312 427.113 452.738 426.502 452.775 426.502C452.812 426.465 453.09 426.446 453.609 426.446H454.331C454.553 426.668 454.664 426.817 454.664 426.891C454.664 427.039 454.572 427.298 454.386 427.668C454.201 428.039 453.942 428.428 453.609 428.835C453.275 429.243 452.96 429.65 452.664 430.058C452.368 430.465 452.109 430.817 451.886 431.113L451.497 431.613C449.905 433.502 447.386 436.002 443.941 439.114C440.497 442.225 438.367 444.225 437.552 445.114L436.885 445.781L437.719 445.836C438.533 445.836 439.719 446.04 441.274 446.448C442.83 446.855 443.997 447.059 444.775 447.059C446.182 447.059 447.479 446.707 448.664 446.003C449.849 445.299 450.627 444.373 450.997 443.225C451.145 442.892 451.275 442.688 451.386 442.614C451.497 442.54 451.775 442.503 452.22 442.503C452.923 442.503 453.275 442.688 453.275 443.058C453.275 443.244 453.257 443.41 453.22 443.559C452.59 445.855 451.368 447.763 449.553 449.281C447.738 450.8 445.923 451.578 444.108 451.615C443.145 451.615 442.293 451.3 441.552 450.67C440.811 450.04 440.089 449.411 439.385 448.781C438.682 448.151 437.978 447.837 437.274 447.837C435.644 447.837 434.181 448.948 432.885 451.17C432.663 451.467 432.348 451.615 431.94 451.615H431.663H430.94C430.718 451.392 430.607 451.226 430.607 451.115C430.607 450.559 431.681 448.966 433.829 446.337C435.274 444.67 437.719 442.262 441.163 439.114C444.608 435.965 446.738 433.965 447.553 433.113C447.997 432.521 448.127 432.224 447.942 432.224Z" fill="#656AFF"/>
<path d="M203.502 156.551C203.502 157.032 203.39 157.384 203.168 157.606H202.168C197.39 157.606 194.056 156.384 192.167 153.939C191.982 153.68 191.834 153.458 191.723 153.272C191.612 153.087 191.519 152.884 191.445 152.661C191.371 152.439 191.297 152.198 191.223 151.939C191.149 151.68 191.112 151.402 191.112 151.106C191.112 150.809 191.093 150.402 191.056 149.883C191.019 149.365 191.001 148.865 191.001 148.383C191.001 147.902 191.001 147.216 191.001 146.328C191.001 145.439 191.001 144.568 191.001 143.716C191.001 142.938 191.001 141.957 191.001 140.772C190.964 137.475 190.871 135.623 190.723 135.216C190.686 135.179 190.667 135.142 190.667 135.104C190.149 133.771 189.223 132.734 187.889 131.993C186.556 131.252 185.241 130.882 183.945 130.882C183.537 130.882 183.278 130.826 183.167 130.715C183.056 130.604 183 130.308 183 129.826C183 129.345 183.056 129.048 183.167 128.937C183.278 128.826 183.537 128.771 183.945 128.771C185.204 128.771 186.5 128.4 187.834 127.659C189.167 126.919 190.112 125.882 190.667 124.548C190.852 124.141 190.945 123.548 190.945 122.77C190.945 121.992 190.964 119.177 191.001 114.325V111.547C191.001 109.51 191.112 108.084 191.334 107.269C191.556 106.454 192.093 105.676 192.945 104.936C193.908 103.973 195.39 103.195 197.39 102.602C198.76 102.306 199.742 102.139 200.335 102.102C200.409 102.102 200.649 102.102 201.057 102.102C201.464 102.102 201.798 102.084 202.057 102.046H203.168C203.39 102.269 203.502 102.602 203.502 103.047C203.502 103.528 203.446 103.824 203.335 103.936C203.261 104.047 202.964 104.102 202.446 104.102C200.483 104.213 198.946 104.658 197.834 105.436C196.723 106.213 196.057 106.991 195.834 107.769C195.649 108.251 195.556 110.992 195.556 115.992V120.548C195.556 122.289 195.501 123.474 195.39 124.104C195.279 124.733 194.964 125.456 194.445 126.27C193.297 127.863 191.686 128.956 189.612 129.549L188.834 129.826L189.612 130.104C190.278 130.326 190.945 130.604 191.612 130.937C192.278 131.271 193.056 131.901 193.945 132.827C194.834 133.753 195.353 134.845 195.501 136.105C195.538 136.327 195.556 138.845 195.556 143.661C195.556 148.661 195.649 151.402 195.834 151.883C196.205 152.884 197.001 153.717 198.223 154.384C199.446 155.05 200.853 155.439 202.446 155.55C202.964 155.55 203.261 155.606 203.335 155.717C203.446 155.828 203.502 156.106 203.502 156.551Z" fill="#E7EFF9"/>
<path d="M216.78 122.604C216.78 121.678 216.428 121.215 215.725 121.215C214.836 121.215 213.91 121.752 212.947 122.826C211.984 123.9 211.187 125.548 210.558 127.771C210.521 127.808 210.484 127.863 210.446 127.937C210.409 128.011 210.391 128.067 210.391 128.104C210.391 128.141 210.354 128.178 210.28 128.215C210.206 128.252 210.15 128.271 210.113 128.271C210.076 128.271 210.002 128.271 209.891 128.271C209.78 128.271 209.632 128.271 209.446 128.271H208.669C208.446 128.048 208.335 127.882 208.335 127.771C208.335 127.511 208.483 126.974 208.78 126.159C209.076 125.345 209.52 124.381 210.113 123.27C210.706 122.159 211.521 121.215 212.558 120.437C213.595 119.659 214.762 119.251 216.058 119.214C217.614 119.214 218.817 119.659 219.669 120.548C220.521 121.437 220.966 122.474 221.003 123.659C221.003 124.289 220.947 124.77 220.836 125.104C220.836 125.326 220.558 126.141 220.003 127.548C219.447 128.956 218.873 130.604 218.28 132.493C217.688 134.382 217.354 136.03 217.28 137.438C217.28 138.438 217.373 139.253 217.558 139.883C218.04 141.475 219.206 142.272 221.058 142.272C222.429 142.272 223.707 141.642 224.892 140.383C226.077 139.123 227.003 137.66 227.67 135.993C228.337 134.327 228.874 132.79 229.281 131.382C229.689 129.974 229.892 128.956 229.892 128.326C229.892 127.474 229.744 126.733 229.448 126.104C229.152 125.474 228.818 124.993 228.448 124.659C228.077 124.326 227.744 123.993 227.448 123.659C227.151 123.326 227.003 122.918 227.003 122.437C227.003 121.622 227.355 120.863 228.059 120.159C228.763 119.455 229.522 119.103 230.337 119.103C231.041 119.103 231.67 119.437 232.226 120.103C232.781 120.77 233.078 121.844 233.115 123.326C233.115 124.326 232.893 125.863 232.448 127.937C232.004 130.012 231.318 132.327 230.392 134.882C229.466 137.438 228.151 139.642 226.448 141.494C224.744 143.346 222.781 144.29 220.558 144.327C218.188 144.327 216.299 143.716 214.891 142.494C213.521 141.309 212.836 139.549 212.836 137.216C212.836 136.068 212.984 134.882 213.28 133.66C213.576 132.438 214.336 130.271 215.558 127.159C216.373 124.789 216.78 123.27 216.78 122.604Z" fill="#E7EFF9"/>
<path d="M238.449 141.772C238.449 141.772 238.449 141.309 238.449 140.383C238.449 139.457 238.745 138.66 239.338 137.994C239.93 137.327 240.727 136.993 241.727 136.993C242.764 136.993 243.69 137.456 244.505 138.382C245.32 139.308 245.746 140.938 245.783 143.272C245.783 144.568 245.616 145.827 245.283 147.05C244.949 148.272 244.56 149.328 244.116 150.217C243.671 151.106 243.19 151.865 242.671 152.495C242.153 153.124 241.708 153.624 241.338 153.995C240.967 154.365 240.727 154.532 240.616 154.495C240.467 154.495 240.227 154.328 239.893 153.995C239.56 153.661 239.393 153.421 239.393 153.272C239.393 153.124 239.597 152.828 240.004 152.384C240.412 151.939 240.875 151.383 241.393 150.717C241.912 150.05 242.393 149.124 242.838 147.939C243.282 146.753 243.579 145.402 243.727 143.883V143.216L243.671 143.272C243.597 143.309 243.505 143.346 243.394 143.383C243.282 143.42 243.171 143.475 243.06 143.55C242.949 143.624 242.782 143.661 242.56 143.661C242.338 143.661 242.116 143.679 241.893 143.716C240.893 143.716 240.078 143.401 239.449 142.772L238.449 141.772Z" fill="#E7EFF9"/>
<path d="M261.712 127.659C261.971 126.104 262.971 124.307 264.712 122.27C266.453 120.233 268.601 119.196 271.157 119.159C272.453 119.159 273.638 119.492 274.713 120.159C275.787 120.826 276.583 121.659 277.102 122.659C278.657 120.326 280.528 119.159 282.713 119.159C284.084 119.159 285.269 119.566 286.269 120.381C287.269 121.196 287.788 122.289 287.825 123.659C287.825 124.733 287.565 125.604 287.047 126.27C286.528 126.937 286.028 127.345 285.547 127.493C285.065 127.641 284.639 127.715 284.269 127.715C283.565 127.715 282.991 127.511 282.546 127.104C282.102 126.696 281.88 126.159 281.88 125.493C281.88 123.789 282.806 122.622 284.658 121.992C284.25 121.511 283.51 121.27 282.435 121.27C281.954 121.27 281.602 121.307 281.38 121.381C279.972 121.974 278.935 123.196 278.268 125.048C276.046 133.234 274.935 138.012 274.935 139.383C274.935 140.42 275.231 141.16 275.824 141.605C276.416 142.049 277.065 142.272 277.768 142.272C279.139 142.272 280.491 141.66 281.824 140.438C283.158 139.216 284.065 137.716 284.547 135.938C284.658 135.567 284.769 135.364 284.88 135.327C284.991 135.29 285.287 135.253 285.769 135.216H285.991C286.547 135.216 286.825 135.364 286.825 135.66C286.825 135.697 286.788 135.901 286.713 136.271C286.121 138.382 284.973 140.253 283.269 141.883C281.565 143.512 279.583 144.327 277.324 144.327C274.731 144.327 272.768 143.161 271.435 140.827C269.916 143.124 268.175 144.272 266.212 144.272H265.879C264.064 144.272 262.767 143.79 261.989 142.827C261.212 141.864 260.804 140.846 260.767 139.771C260.767 138.586 261.119 137.623 261.823 136.882C262.526 136.142 263.36 135.771 264.323 135.771C265.916 135.771 266.712 136.549 266.712 138.105C266.712 138.845 266.49 139.494 266.045 140.049C265.601 140.605 265.175 140.975 264.767 141.16C264.36 141.346 264.119 141.438 264.045 141.438L263.878 141.494C263.878 141.531 263.99 141.605 264.212 141.716C264.434 141.827 264.73 141.957 265.101 142.105C265.471 142.253 265.823 142.309 266.156 142.272C267.49 142.272 268.638 141.438 269.601 139.771C269.934 139.179 270.36 137.919 270.879 135.993C271.398 134.067 271.916 132.067 272.435 129.993C272.953 127.919 273.249 126.696 273.324 126.326C273.509 125.326 273.601 124.604 273.601 124.159C273.601 123.122 273.324 122.381 272.768 121.937C272.212 121.492 271.583 121.27 270.879 121.27C269.397 121.27 268.008 121.863 266.712 123.048C265.416 124.233 264.508 125.752 263.99 127.604C263.915 127.937 263.823 128.122 263.712 128.159C263.601 128.197 263.304 128.234 262.823 128.271H262.045C261.823 128.048 261.712 127.845 261.712 127.659Z" fill="#E7EFF9"/>
<path d="M294.936 141.772C294.936 141.772 294.936 141.309 294.936 140.383C294.936 139.457 295.232 138.66 295.825 137.994C296.418 137.327 297.214 136.993 298.214 136.993C299.251 136.993 300.177 137.456 300.992 138.382C301.807 139.308 302.233 140.938 302.27 143.272C302.27 144.568 302.103 145.827 301.77 147.05C301.437 148.272 301.048 149.328 300.603 150.217C300.159 151.106 299.677 151.865 299.159 152.495C298.64 153.124 298.196 153.624 297.825 153.995C297.455 154.365 297.214 154.532 297.103 154.495C296.955 154.495 296.714 154.328 296.381 153.995C296.047 153.661 295.881 153.421 295.881 153.272C295.881 153.124 296.084 152.828 296.492 152.384C296.899 151.939 297.362 151.383 297.881 150.717C298.399 150.05 298.881 149.124 299.325 147.939C299.77 146.753 300.066 145.402 300.214 143.883V143.216L300.159 143.272C300.085 143.309 299.992 143.346 299.881 143.383C299.77 143.42 299.659 143.475 299.547 143.55C299.436 143.624 299.27 143.661 299.047 143.661C298.825 143.661 298.603 143.679 298.381 143.716C297.381 143.716 296.566 143.401 295.936 142.772L294.936 141.772Z" fill="#E7EFF9"/>
<path d="M316.471 127.771C316.471 127.252 316.749 126.363 317.304 125.104C317.86 123.844 318.749 122.529 319.971 121.159C321.194 119.789 322.564 119.122 324.083 119.159C325.601 119.159 326.824 119.585 327.75 120.437C328.676 121.289 329.157 122.474 329.194 123.993C329.12 124.696 329.064 125.085 329.027 125.159C329.027 125.27 328.731 126.122 328.138 127.715C327.546 129.308 326.935 131.104 326.305 133.104C325.675 135.104 325.379 136.697 325.416 137.882C325.416 139.475 325.675 140.586 326.194 141.216C326.712 141.846 327.49 142.179 328.527 142.216C329.379 142.216 330.176 142.012 330.916 141.605C331.657 141.198 332.231 140.772 332.639 140.327C333.046 139.883 333.546 139.271 334.139 138.494C334.139 138.457 334.232 138.086 334.417 137.382C334.602 136.679 334.861 135.586 335.195 134.104C335.528 132.623 335.88 131.252 336.25 129.993C337.658 124.437 338.436 121.529 338.584 121.27C339.065 120.27 339.862 119.77 340.973 119.77C341.454 119.77 341.843 119.9 342.14 120.159C342.436 120.418 342.64 120.64 342.751 120.826C342.862 121.011 342.899 121.178 342.862 121.326C342.862 121.807 341.954 125.696 340.139 132.993C338.324 140.29 337.287 144.29 337.028 144.994C335.991 148.068 334.194 150.513 331.639 152.328C329.083 154.143 326.527 155.069 323.972 155.106C322.305 155.106 320.842 154.699 319.582 153.884C318.323 153.069 317.693 151.846 317.693 150.217C317.693 149.402 317.823 148.717 318.082 148.161C318.341 147.605 318.693 147.198 319.138 146.939C319.582 146.679 319.953 146.494 320.249 146.383C320.545 146.272 320.86 146.216 321.194 146.216C322.823 146.216 323.638 146.994 323.638 148.55C323.638 149.291 323.416 149.939 322.971 150.495C322.527 151.05 322.101 151.42 321.694 151.606C321.286 151.791 321.045 151.883 320.971 151.883L320.805 151.939C320.879 152.124 321.231 152.346 321.86 152.606C322.49 152.865 323.12 152.995 323.749 152.995H324.194C324.823 152.995 325.305 152.958 325.638 152.884C326.861 152.55 327.99 151.846 329.027 150.772C330.065 149.698 330.861 148.55 331.416 147.328C331.972 146.105 332.398 145.068 332.694 144.216C332.991 143.364 333.139 142.809 333.139 142.549L332.805 142.772C332.583 142.92 332.231 143.124 331.75 143.383C331.268 143.642 330.787 143.864 330.305 144.05C329.565 144.235 328.842 144.327 328.138 144.327C326.435 144.327 324.935 143.92 323.638 143.105C322.342 142.29 321.49 140.975 321.082 139.16C321.045 138.901 321.027 138.327 321.027 137.438C321.027 135.327 321.675 132.567 322.971 129.16C324.268 125.752 324.916 123.585 324.916 122.659C324.916 122.622 324.916 122.585 324.916 122.548C324.916 122.215 324.916 121.992 324.916 121.881C324.916 121.77 324.842 121.641 324.694 121.492C324.546 121.344 324.342 121.27 324.083 121.27H323.86C323.008 121.27 322.231 121.622 321.527 122.326C320.823 123.03 320.268 123.789 319.86 124.604C319.453 125.419 319.138 126.196 318.916 126.937C318.693 127.678 318.545 128.085 318.471 128.16C318.397 128.234 318.101 128.271 317.582 128.271H316.804C316.582 128.048 316.471 127.882 316.471 127.771Z" fill="#E7EFF9"/>
<path d="M346.862 141.772C346.862 141.772 346.862 141.309 346.862 140.383C346.862 139.457 347.158 138.66 347.751 137.994C348.344 137.327 349.14 136.993 350.14 136.993C351.177 136.993 352.103 137.456 352.918 138.382C353.733 139.308 354.159 140.938 354.196 143.272C354.196 144.568 354.029 145.827 353.696 147.05C353.363 148.272 352.974 149.328 352.529 150.217C352.085 151.106 351.603 151.865 351.085 152.495C350.566 153.124 350.122 153.624 349.751 153.995C349.381 154.365 349.14 154.532 349.029 154.495C348.881 154.495 348.64 154.328 348.307 153.995C347.973 153.661 347.807 153.421 347.807 153.272C347.807 153.124 348.01 152.828 348.418 152.384C348.825 151.939 349.288 151.383 349.807 150.717C350.325 150.05 350.807 149.124 351.251 147.939C351.696 146.753 351.992 145.402 352.14 143.883V143.216L352.085 143.272C352.011 143.309 351.918 143.346 351.807 143.383C351.696 143.42 351.585 143.475 351.474 143.55C351.362 143.624 351.196 143.661 350.973 143.661C350.751 143.661 350.529 143.679 350.307 143.716C349.307 143.716 348.492 143.401 347.862 142.772L346.862 141.772Z" fill="#E7EFF9"/>
<path d="M386.515 124.937C386.145 124.937 385.163 124.733 383.57 124.326C381.978 123.918 380.811 123.715 380.07 123.715C379.329 123.715 378.7 123.789 378.181 123.937C377.663 124.085 377.237 124.27 376.903 124.493C376.57 124.715 376.348 124.919 376.236 125.104C376.125 125.289 375.996 125.493 375.848 125.715L375.736 125.937C375.625 126.048 375.348 126.104 374.903 126.104C374.125 126.104 373.736 125.956 373.736 125.659C373.736 125.474 373.792 125.215 373.903 124.882C374.385 123.437 375.181 122.196 376.292 121.159C377.403 120.122 378.626 119.492 379.959 119.27C380.403 119.196 380.718 119.159 380.904 119.159C381.83 119.159 382.663 119.474 383.404 120.103C384.144 120.733 384.848 121.344 385.515 121.937C386.182 122.529 386.885 122.844 387.626 122.881C388.441 122.881 389.256 122.27 390.071 121.048C390.886 119.826 391.312 119.214 391.349 119.214C391.386 119.177 391.664 119.159 392.182 119.159H392.904C393.127 119.381 393.238 119.529 393.238 119.603C393.238 119.751 393.145 120.011 392.96 120.381C392.775 120.752 392.515 121.14 392.182 121.548C391.849 121.955 391.534 122.363 391.238 122.77C390.941 123.178 390.682 123.53 390.46 123.826L390.071 124.326C388.478 126.215 385.959 128.715 382.515 131.826C379.07 134.938 376.94 136.938 376.125 137.827L375.459 138.494L376.292 138.549C377.107 138.549 378.292 138.753 379.848 139.16C381.404 139.568 382.57 139.771 383.348 139.771C384.756 139.771 386.052 139.42 387.237 138.716C388.423 138.012 389.2 137.086 389.571 135.938C389.719 135.605 389.849 135.401 389.96 135.327C390.071 135.253 390.349 135.216 390.793 135.216C391.497 135.216 391.849 135.401 391.849 135.771C391.849 135.956 391.83 136.123 391.793 136.271C391.164 138.568 389.941 140.475 388.126 141.994C386.311 143.513 384.496 144.29 382.681 144.327C381.718 144.327 380.866 144.013 380.126 143.383C379.385 142.753 378.663 142.124 377.959 141.494C377.255 140.864 376.551 140.549 375.848 140.549C374.218 140.549 372.755 141.661 371.458 143.883C371.236 144.179 370.921 144.327 370.514 144.327H370.236H369.514C369.292 144.105 369.18 143.938 369.18 143.827C369.18 143.272 370.255 141.679 372.403 139.049C373.847 137.382 376.292 134.975 379.737 131.826C383.181 128.678 385.311 126.678 386.126 125.826C386.571 125.233 386.7 124.937 386.515 124.937Z" fill="#E7EFF9"/>
<path d="M396.683 103.102C396.683 102.584 396.738 102.287 396.849 102.213C396.96 102.139 397.331 102.084 397.96 102.046C401.035 102.046 403.405 102.509 405.072 103.435C406.739 104.361 407.906 105.38 408.572 106.491C408.906 107.269 409.091 107.917 409.128 108.436C409.165 108.954 409.202 111.436 409.239 115.881C409.276 121.029 409.313 123.696 409.35 123.881C409.832 125.548 410.795 126.771 412.239 127.548C413.684 128.326 415.017 128.734 416.24 128.771C416.647 128.771 416.906 128.826 417.017 128.937C417.129 129.048 417.184 129.345 417.184 129.826C417.184 130.308 417.129 130.604 417.017 130.715C416.906 130.826 416.647 130.882 416.24 130.882C414.869 130.882 413.536 131.271 412.239 132.049C410.943 132.827 410.072 133.808 409.628 134.993C409.443 135.512 409.332 136.179 409.295 136.994C409.258 137.808 409.239 140.568 409.239 145.272V148.105C409.239 150.143 409.128 151.569 408.906 152.384C408.684 153.198 408.146 153.976 407.295 154.717C405.294 156.643 402.202 157.606 398.016 157.606C397.349 157.606 396.96 157.551 396.849 157.439C396.738 157.328 396.683 157.014 396.683 156.495C396.683 156.273 396.683 156.143 396.683 156.106C396.683 156.069 396.701 155.976 396.738 155.828C396.775 155.68 396.831 155.606 396.905 155.606C396.979 155.606 397.127 155.587 397.349 155.55C397.868 155.55 398.442 155.495 399.072 155.384C399.701 155.273 400.405 155.087 401.183 154.828C401.961 154.569 402.646 154.143 403.239 153.55C403.831 152.958 404.276 152.254 404.572 151.439C404.609 151.254 404.646 148.624 404.683 143.55L404.739 135.993C405.22 133.882 406.517 132.197 408.628 130.937C409.924 130.308 410.85 129.937 411.406 129.826C410.48 129.567 409.554 129.197 408.628 128.715C406.591 127.456 405.331 125.937 404.85 124.159L404.739 123.604L404.683 116.048C404.646 110.973 404.609 108.343 404.572 108.158C404.128 106.676 403.146 105.639 401.627 105.047C400.109 104.454 398.683 104.139 397.349 104.102C397.016 104.102 396.831 104.047 396.794 103.936C396.757 103.824 396.72 103.547 396.683 103.102Z" fill="#E7EFF9"/>
</g>
<defs>
<clipPath id="clip0_49_97">
<rect width="600" height="600" fill="white"/>
</clipPath>
</defs>
</svg>
