<svg width="1200" height="600" viewBox="0 0 1200 600" fill="none" xmlns="http://www.w3.org/2000/svg">
<path d="M1018 149L990.713 144.161L1000.17 170.212L1018 149ZM668.819 278.256L998.514 158.624L996.877 154.112L667.181 273.744L668.819 278.256Z" fill="#E7EFF9"/>
<path d="M183 451L210.277 455.895L200.878 429.825L183 451ZM204.134 445.932L330.814 400.258L329.186 395.742L202.506 441.416L204.134 445.932Z" fill="#E7EFF9"/>
<path d="M309.2 401C309.2 408.069 314.931 413.8 322 413.8C329.069 413.8 334.8 408.069 334.8 401C334.8 393.931 329.069 388.2 322 388.2C314.931 388.2 309.2 393.931 309.2 401ZM672.173 276.018C672.736 274.818 672.218 273.389 671.018 272.827L651.457 263.665C650.257 263.103 648.828 263.62 648.266 264.821C647.703 266.021 648.221 267.45 649.421 268.012L666.809 276.155L658.665 293.543C658.103 294.743 658.62 296.172 659.821 296.734C661.021 297.297 662.45 296.779 663.012 295.579L672.173 276.018ZM322.817 403.257L670.817 277.257L669.183 272.743L321.183 398.743L322.817 403.257Z" fill="#656AFF"/>
<path d="M441.644 298.801C441.904 297.245 442.904 295.449 444.645 293.411C446.386 291.374 448.534 290.337 451.09 290.3C452.386 290.3 453.571 290.633 454.645 291.3C455.72 291.967 456.516 292.8 457.034 293.8C458.59 291.467 460.461 290.3 462.646 290.3C464.016 290.3 465.202 290.707 466.202 291.522C467.202 292.337 467.72 293.43 467.758 294.8C467.758 295.874 467.498 296.745 466.98 297.412C466.461 298.078 465.961 298.486 465.48 298.634C464.998 298.782 464.572 298.856 464.202 298.856C463.498 298.856 462.924 298.652 462.479 298.245C462.035 297.838 461.813 297.3 461.813 296.634C461.813 294.93 462.739 293.763 464.591 293.134C464.183 292.652 463.442 292.411 462.368 292.411C461.887 292.411 461.535 292.448 461.313 292.522C459.905 293.115 458.868 294.337 458.201 296.189C455.979 304.375 454.868 309.153 454.868 310.524C454.868 311.561 455.164 312.302 455.757 312.746C456.349 313.191 456.997 313.413 457.701 313.413C459.072 313.413 460.424 312.802 461.757 311.579C463.09 310.357 463.998 308.857 464.479 307.079C464.591 306.709 464.702 306.505 464.813 306.468C464.924 306.431 465.22 306.394 465.702 306.357H465.924C466.48 306.357 466.757 306.505 466.757 306.801C466.757 306.838 466.72 307.042 466.646 307.412C466.054 309.524 464.905 311.394 463.202 313.024C461.498 314.654 459.516 315.469 457.257 315.469C454.664 315.469 452.701 314.302 451.367 311.968C449.849 314.265 448.108 315.413 446.145 315.413H445.811C443.996 315.413 442.7 314.931 441.922 313.968C441.144 313.005 440.737 311.987 440.7 310.913C440.7 309.727 441.052 308.764 441.756 308.024C442.459 307.283 443.293 306.912 444.256 306.912C445.848 306.912 446.645 307.69 446.645 309.246C446.645 309.987 446.423 310.635 445.978 311.19C445.534 311.746 445.108 312.116 444.7 312.302C444.293 312.487 444.052 312.579 443.978 312.579L443.811 312.635C443.811 312.672 443.922 312.746 444.145 312.857C444.367 312.968 444.663 313.098 445.034 313.246C445.404 313.394 445.756 313.45 446.089 313.413C447.423 313.413 448.571 312.579 449.534 310.913C449.867 310.32 450.293 309.061 450.812 307.135C451.33 305.208 451.849 303.208 452.367 301.134C452.886 299.06 453.182 297.838 453.256 297.467C453.442 296.467 453.534 295.745 453.534 295.3C453.534 294.263 453.256 293.522 452.701 293.078C452.145 292.633 451.516 292.411 450.812 292.411C449.33 292.411 447.941 293.004 446.645 294.189C445.348 295.374 444.441 296.893 443.922 298.745C443.848 299.078 443.756 299.264 443.645 299.301C443.533 299.338 443.237 299.375 442.756 299.412H441.978C441.756 299.19 441.644 298.986 441.644 298.801Z" fill="#656AFF"/>
<path d="M780.065 299.226C780.065 297.744 779.564 296.465 778.564 295.391C777.563 294.316 776.118 293.778 774.228 293.778C772.894 293.778 771.745 294.019 770.781 294.501C769.669 295.205 769.113 296.169 769.113 297.392C769.076 297.577 769.076 297.818 769.113 298.114C769.15 298.411 769.447 298.856 770.003 299.449C770.559 300.042 771.356 300.505 772.393 300.838C773.06 301.024 773.876 301.19 774.839 301.339C775.803 301.487 776.618 301.654 777.285 301.839C777.952 302.024 778.545 302.265 779.064 302.562C779.694 302.858 780.306 303.229 780.898 303.674C781.491 304.118 782.084 304.878 782.677 305.953C783.27 307.027 783.585 308.176 783.622 309.399C783.622 311.697 782.918 313.587 781.51 315.07C780.102 316.552 777.823 317.312 774.672 317.349H774.228C772.301 317.349 770.522 316.682 768.891 315.347L768.446 315.737L767.946 316.237C767.724 316.459 767.501 316.663 767.279 316.848L766.667 317.404H766.223H766C765.889 317.404 765.722 317.293 765.5 317.071V312.679V309.455C765.5 308.677 765.537 308.213 765.611 308.065C765.685 307.917 765.871 307.824 766.167 307.787H766.667C767.112 307.787 767.409 307.861 767.557 308.01C767.705 308.158 767.798 308.38 767.835 308.677C767.872 308.973 768.002 309.473 768.224 310.178C768.446 310.882 768.798 311.66 769.28 312.512C770.577 314.402 772.375 315.347 774.672 315.347C778.267 315.347 780.065 313.902 780.065 311.011C780.065 309.937 779.731 309.066 779.064 308.399C778.323 307.509 776.785 306.842 774.45 306.397C772.115 305.953 770.577 305.527 769.836 305.119C768.502 304.489 767.446 303.636 766.667 302.562C765.889 301.487 765.5 300.338 765.5 299.115C765.5 297.67 765.815 296.447 766.445 295.446C767.075 294.446 767.872 293.704 768.835 293.223C769.799 292.741 770.725 292.407 771.615 292.222C772.504 292.037 773.32 291.944 774.061 291.944H774.672C776.155 291.944 777.452 292.222 778.564 292.778L779.398 293.223L779.898 292.833C780.268 292.5 780.676 292.185 781.121 291.888H781.566H781.788C781.899 291.888 782.066 292 782.288 292.222V299.56L781.955 299.893H780.398C780.176 299.671 780.065 299.449 780.065 299.226Z" fill="#E7EFF9"/>
<path d="M787.569 325.02H788.348C789.793 325.02 790.664 324.761 790.96 324.242V323.797C790.96 323.538 790.96 323.186 790.96 322.741C790.96 322.296 790.96 321.74 790.96 321.073C790.96 320.406 790.979 319.684 791.016 318.905C791.053 318.127 791.053 317.312 791.016 316.459C790.979 315.607 790.979 314.699 791.016 313.735C791.053 312.772 791.053 311.827 791.016 310.9C791.016 309.64 791.016 308.325 791.016 306.953C791.016 305.582 791.016 304.359 791.016 303.284C791.016 302.21 791.016 301.228 791.016 300.338C791.016 299.449 790.997 298.726 790.96 298.17C790.923 297.614 790.923 297.318 790.96 297.281C790.849 296.577 790.59 296.113 790.182 295.891C789.774 295.669 788.941 295.502 787.681 295.391H786.68V294.112C786.68 293.26 786.717 292.833 786.791 292.833L787.347 292.778C787.718 292.741 788.255 292.704 788.959 292.667C789.663 292.63 790.349 292.593 791.016 292.556C791.646 292.518 792.332 292.481 793.073 292.444C793.814 292.407 794.37 292.352 794.741 292.278C795.111 292.203 795.315 292.185 795.352 292.222H795.519V293.667L795.574 295.113L796.019 294.724C798.206 293.093 800.763 292.278 803.691 292.278C806.692 292.278 809.25 293.464 811.362 295.835C813.474 298.207 814.549 301.191 814.586 304.785C814.586 308.528 813.382 311.567 810.973 313.902C808.564 316.237 805.84 317.404 802.801 317.404C800.281 317.404 798.057 316.589 796.13 314.958L795.686 314.569V319.294V322.408C795.686 323.408 795.723 324.02 795.797 324.242C795.871 324.464 796.075 324.668 796.408 324.853C797.186 324.965 798.094 325.02 799.132 325.02H800.022V327.577H799.577L798.243 327.522C797.39 327.485 796.464 327.466 795.463 327.466C794.463 327.466 793.758 327.448 793.351 327.411C789.534 327.411 787.458 327.466 787.125 327.577H786.68V325.02H787.569ZM809.138 304.674C809.138 301.932 808.508 299.541 807.248 297.503C805.988 295.465 804.413 294.446 802.523 294.446C799.892 294.446 797.613 295.65 795.686 298.059V311.345C797.168 314.013 799.243 315.348 801.912 315.348C803.802 315.348 805.469 314.347 806.915 312.346C808.36 310.344 809.101 307.787 809.138 304.674Z" fill="#E7EFF9"/>
<path d="M824.092 299.838C824.092 299.838 823.685 299.838 822.869 299.838C822.054 299.838 821.368 299.56 820.812 299.004C820.257 298.448 819.979 297.725 819.979 296.836C819.979 295.539 820.609 294.39 821.869 293.389C823.129 292.389 825.371 291.888 828.595 291.888C831.3 291.888 833.487 292.481 835.155 293.667C836.822 294.853 837.934 296.261 838.49 297.892C838.675 298.411 838.768 298.985 838.768 299.615C838.768 300.245 838.787 302.376 838.824 306.008V309.9C838.824 311.679 838.916 312.901 839.102 313.569C839.287 314.236 839.676 314.569 840.269 314.569C840.825 314.569 841.196 314.273 841.381 313.68C841.566 313.087 841.659 312.105 841.659 310.733V308.732H843.882V310.9C843.845 312.383 843.79 313.254 843.716 313.513C843.382 314.625 842.734 315.496 841.77 316.126C840.806 316.756 839.787 317.089 838.712 317.126C837.638 317.163 836.767 316.83 836.1 316.126C835.433 315.422 834.988 314.643 834.766 313.791V313.569L834.654 313.735C834.58 313.847 834.488 313.958 834.376 314.069C834.265 314.18 834.117 314.347 833.932 314.569C833.746 314.792 833.524 314.995 833.265 315.181C833.005 315.366 832.727 315.588 832.431 315.848C832.134 316.107 831.801 316.311 831.43 316.459C831.06 316.608 830.652 316.756 830.207 316.904C829.762 317.052 829.281 317.163 828.762 317.238C828.243 317.312 827.669 317.367 827.039 317.404C824.815 317.404 822.814 316.83 821.035 315.681C819.256 314.532 818.366 312.92 818.366 310.845C818.366 310.066 818.496 309.325 818.756 308.621C819.015 307.917 819.515 307.157 820.257 306.342C820.998 305.527 821.887 304.841 822.925 304.285C823.963 303.729 825.408 303.21 827.261 302.728C829.114 302.247 831.152 301.969 833.376 301.895H834.154V300.672C834.154 299.412 834.043 298.485 833.821 297.892C833.005 295.261 831.208 293.945 828.428 293.945C827.761 293.945 827.131 293.964 826.538 294.001C825.945 294.038 825.482 294.112 825.148 294.223C824.815 294.334 824.667 294.39 824.704 294.39C825.519 294.946 825.927 295.761 825.927 296.836C825.927 297.762 825.63 298.485 825.037 299.004L824.092 299.838ZM823.481 310.9C823.481 312.049 823.925 313.068 824.815 313.958C825.704 314.847 826.798 315.31 828.095 315.347C829.503 315.347 830.745 314.921 831.819 314.069C832.894 313.216 833.617 312.105 833.987 310.733C834.061 310.474 834.117 309.251 834.154 307.065C834.154 304.915 834.136 303.84 834.098 303.84C833.802 303.84 833.413 303.859 832.931 303.896C832.449 303.933 831.615 304.1 830.43 304.396C829.244 304.693 828.169 305.063 827.205 305.508C826.242 305.953 825.389 306.638 824.648 307.565C823.907 308.491 823.518 309.603 823.481 310.9Z" fill="#E7EFF9"/>
<path d="M846.551 314.236H847.329C848.774 314.236 849.645 313.976 849.942 313.457V313.013C849.942 312.679 849.942 312.253 849.942 311.734C849.942 311.215 849.942 310.641 849.942 310.011C849.942 309.381 849.96 308.658 849.997 307.843C850.034 307.027 850.034 306.249 849.997 305.508C849.997 304.359 849.997 303.136 849.997 301.839C849.997 300.542 849.979 299.449 849.942 298.559V297.281C849.83 296.576 849.571 296.113 849.163 295.891C848.756 295.668 847.922 295.502 846.662 295.39H845.661V294.112C845.661 293.26 845.698 292.833 845.772 292.833L846.328 292.778C846.699 292.741 847.218 292.704 847.885 292.667C848.552 292.63 849.237 292.592 849.942 292.555C850.572 292.518 851.239 292.481 851.943 292.444C852.647 292.407 853.184 292.352 853.555 292.277C853.926 292.203 854.129 292.185 854.166 292.222H854.333V294.445C854.333 295.854 854.352 296.558 854.389 296.558C854.426 296.558 854.519 296.465 854.667 296.28C854.815 296.095 855.037 295.817 855.334 295.446C855.63 295.075 855.982 294.742 856.39 294.445C856.798 294.149 857.335 293.797 858.002 293.389C858.669 292.982 859.373 292.685 860.115 292.5C860.856 292.314 861.801 292.222 862.95 292.222C867.175 292.37 869.528 294.464 870.01 298.504C870.047 298.763 870.065 301.339 870.065 306.231V311.011C870.065 312.42 870.102 313.253 870.176 313.513C870.251 313.772 870.454 313.958 870.788 314.069C871.566 314.18 872.474 314.236 873.512 314.236H874.401V316.793H873.957L872.622 316.737C871.77 316.7 870.844 316.682 869.843 316.682C868.842 316.682 868.138 316.663 867.73 316.626C863.913 316.626 861.838 316.682 861.504 316.793H861.06V314.236H861.949C864.21 314.236 865.34 313.939 865.34 313.346C865.377 313.272 865.396 310.715 865.396 305.675C865.359 300.672 865.322 298.022 865.284 297.725C865.062 296.688 864.692 295.909 864.173 295.39C863.654 294.872 863.209 294.557 862.839 294.445C862.468 294.334 861.986 294.297 861.393 294.334C859.725 294.334 858.262 294.964 857.002 296.224C856.001 297.225 855.371 298.244 855.111 299.282C854.852 300.319 854.704 301.857 854.667 303.896V307.454V310.789C854.667 311.901 854.685 312.642 854.722 313.013C854.759 313.383 854.815 313.624 854.889 313.735C854.963 313.846 855.13 313.958 855.389 314.069C856.168 314.18 857.076 314.236 858.113 314.236H859.003V316.793H858.558L857.279 316.737C856.39 316.7 855.445 316.682 854.444 316.682C853.444 316.682 852.74 316.663 852.332 316.626C848.515 316.626 846.439 316.682 846.106 316.793H845.661V314.236H846.551Z" fill="#E7EFF9"/>
<path d="M899.306 329.634C899.306 330.116 899.195 330.468 898.972 330.69H897.972C893.191 330.69 889.855 329.467 887.965 327.021C887.78 326.762 887.632 326.539 887.521 326.354C887.409 326.169 887.317 325.965 887.243 325.743C887.169 325.52 887.094 325.279 887.02 325.02C886.946 324.761 886.909 324.483 886.909 324.186C886.909 323.89 886.891 323.482 886.854 322.963C886.816 322.444 886.798 321.944 886.798 321.462C886.798 320.98 886.798 320.295 886.798 319.405C886.798 318.516 886.798 317.645 886.798 316.793C886.798 316.014 886.798 315.032 886.798 313.846C886.761 310.548 886.668 308.695 886.52 308.287C886.483 308.25 886.464 308.213 886.464 308.176C885.946 306.842 885.019 305.804 883.685 305.063C882.351 304.322 881.035 303.951 879.738 303.951C879.33 303.951 879.071 303.896 878.96 303.785C878.849 303.673 878.793 303.377 878.793 302.895C878.793 302.413 878.849 302.117 878.96 302.006C879.071 301.894 879.33 301.839 879.738 301.839C880.998 301.839 882.295 301.468 883.629 300.727C884.963 299.986 885.909 298.948 886.464 297.614C886.65 297.206 886.742 296.613 886.742 295.835C886.742 295.057 886.761 292.24 886.798 287.385V284.606C886.798 282.568 886.909 281.141 887.132 280.325C887.354 279.51 887.891 278.732 888.744 277.991C889.707 277.027 891.19 276.249 893.191 275.656C894.562 275.359 895.544 275.193 896.137 275.156C896.211 275.156 896.452 275.156 896.86 275.156C897.267 275.156 897.601 275.137 897.86 275.1H898.972C899.195 275.322 899.306 275.656 899.306 276.101C899.306 276.582 899.25 276.879 899.139 276.99C899.065 277.101 898.768 277.157 898.25 277.157C896.285 277.268 894.747 277.713 893.636 278.491C892.524 279.269 891.857 280.047 891.634 280.826C891.449 281.308 891.356 284.05 891.356 289.053V293.611C891.356 295.353 891.301 296.539 891.19 297.169C891.078 297.799 890.763 298.522 890.245 299.337C889.096 300.931 887.484 302.024 885.408 302.617L884.63 302.895L885.408 303.173C886.075 303.395 886.742 303.673 887.409 304.007C888.077 304.34 888.855 304.97 889.744 305.897C890.634 306.823 891.153 307.917 891.301 309.177C891.338 309.399 891.356 311.919 891.356 316.737C891.356 321.74 891.449 324.483 891.634 324.964C892.005 325.965 892.802 326.799 894.025 327.466C895.248 328.133 896.656 328.522 898.25 328.633C898.768 328.633 899.065 328.689 899.139 328.8C899.25 328.911 899.306 329.189 899.306 329.634Z" fill="#E7EFF9"/>
<path d="M905.865 300.727C906.125 299.171 907.125 297.373 908.867 295.335C910.609 293.297 912.759 292.259 915.316 292.222C916.613 292.222 917.799 292.555 918.874 293.223C919.948 293.89 920.745 294.723 921.264 295.724C922.82 293.389 924.692 292.222 926.879 292.222C928.25 292.222 929.436 292.63 930.436 293.445C931.437 294.26 931.956 295.354 931.993 296.725C931.993 297.799 931.733 298.67 931.215 299.337C930.696 300.005 930.195 300.412 929.714 300.56C929.232 300.709 928.806 300.783 928.435 300.783C927.731 300.783 927.157 300.579 926.712 300.171C926.267 299.764 926.045 299.226 926.045 298.559C926.045 296.854 926.971 295.687 928.824 295.057C928.417 294.575 927.675 294.334 926.601 294.334C926.119 294.334 925.767 294.371 925.544 294.446C924.136 295.038 923.098 296.261 922.431 298.114C920.208 306.305 919.096 311.086 919.096 312.457C919.096 313.494 919.392 314.236 919.985 314.68C920.578 315.125 921.227 315.347 921.931 315.347C923.302 315.347 924.655 314.736 925.989 313.513C927.323 312.29 928.231 310.789 928.713 309.01C928.824 308.64 928.935 308.436 929.047 308.399C929.158 308.362 929.454 308.325 929.936 308.287H930.158C930.714 308.287 930.992 308.436 930.992 308.732C930.992 308.769 930.955 308.973 930.881 309.344C930.288 311.456 929.139 313.328 927.434 314.958C925.73 316.589 923.747 317.404 921.486 317.404C918.892 317.404 916.928 316.237 915.594 313.902C914.074 316.2 912.332 317.349 910.368 317.349H910.035C908.219 317.349 906.922 316.867 906.143 315.903C905.365 314.94 904.957 313.921 904.92 312.846C904.92 311.66 905.272 310.696 905.977 309.955C906.681 309.214 907.515 308.843 908.478 308.843C910.072 308.843 910.869 309.622 910.869 311.178C910.869 311.919 910.646 312.568 910.201 313.124C909.757 313.68 909.331 314.05 908.923 314.236C908.515 314.421 908.274 314.514 908.2 314.514L908.033 314.569C908.033 314.606 908.145 314.68 908.367 314.792C908.589 314.903 908.886 315.032 909.256 315.181C909.627 315.329 909.979 315.385 910.313 315.347C911.647 315.347 912.796 314.514 913.759 312.846C914.093 312.253 914.519 310.993 915.038 309.066C915.557 307.139 916.076 305.137 916.594 303.062C917.113 300.987 917.41 299.764 917.484 299.393C917.669 298.392 917.762 297.67 917.762 297.225C917.762 296.187 917.484 295.446 916.928 295.001C916.372 294.557 915.742 294.334 915.038 294.334C913.555 294.334 912.166 294.927 910.869 296.113C909.571 297.299 908.663 298.819 908.145 300.672C908.071 301.005 907.978 301.19 907.867 301.228C907.756 301.265 907.459 301.302 906.977 301.339H906.199C905.977 301.116 905.865 300.913 905.865 300.727Z" fill="#E7EFF9"/>
<path d="M938.386 276.156C938.386 275.637 938.441 275.341 938.553 275.267C938.664 275.193 939.034 275.137 939.664 275.1C942.74 275.1 945.112 275.563 946.78 276.49C948.448 277.416 949.615 278.435 950.282 279.547C950.616 280.325 950.801 280.974 950.838 281.493C950.875 282.012 950.912 284.495 950.949 288.942C950.986 294.093 951.023 296.762 951.06 296.947C951.542 298.615 952.506 299.838 953.951 300.616C955.396 301.394 956.731 301.802 957.954 301.839C958.361 301.839 958.621 301.894 958.732 302.006C958.843 302.117 958.899 302.413 958.899 302.895C958.899 303.377 958.843 303.673 958.732 303.785C958.621 303.896 958.361 303.951 957.954 303.951C956.582 303.951 955.248 304.34 953.951 305.119C952.654 305.897 951.783 306.879 951.338 308.065C951.153 308.584 951.042 309.251 951.005 310.066C950.968 310.882 950.949 313.643 950.949 318.349V321.184C950.949 323.223 950.838 324.649 950.616 325.465C950.393 326.28 949.856 327.058 949.003 327.799C947.002 329.727 943.908 330.69 939.72 330.69C939.053 330.69 938.664 330.635 938.553 330.523C938.441 330.412 938.386 330.097 938.386 329.578C938.386 329.356 938.386 329.226 938.386 329.189C938.386 329.152 938.404 329.06 938.441 328.911C938.478 328.763 938.534 328.689 938.608 328.689C938.682 328.689 938.83 328.67 939.053 328.633C939.572 328.633 940.146 328.578 940.776 328.467C941.406 328.355 942.11 328.17 942.889 327.911C943.667 327.651 944.352 327.225 944.945 326.632C945.538 326.039 945.983 325.335 946.28 324.52C946.317 324.334 946.354 321.703 946.391 316.626L946.446 309.066C946.928 306.953 948.225 305.267 950.338 304.007C951.635 303.377 952.561 303.006 953.117 302.895C952.191 302.636 951.264 302.265 950.338 301.783C948.299 300.523 947.039 299.004 946.558 297.225L946.446 296.669L946.391 289.109C946.354 284.031 946.317 281.4 946.28 281.215C945.835 279.732 944.853 278.695 943.333 278.102C941.814 277.509 940.387 277.194 939.053 277.157C938.719 277.157 938.534 277.101 938.497 276.99C938.46 276.879 938.423 276.601 938.386 276.156Z" fill="#E7EFF9"/>
</svg>
