<svg width="600" height="501" viewBox="0 0 600 501" fill="none" xmlns="http://www.w3.org/2000/svg">
<path opacity="0.5" d="M325.86 157.148L106.546 117.23L255.981 354.602L475.295 394.52L325.86 157.148Z" fill="#656AFF"/>
<path d="M115.19 275.497L138.676 267.103L134.203 291.64L115.19 275.497ZM494.368 344.627L470.881 353.022L475.355 328.485L494.368 344.627ZM134.702 276.859L475.63 339.016L474.856 343.266L133.927 281.109L134.702 276.859Z" fill="#656AFF"/>
<path d="M379.953 443.051L357.874 431.448L378.962 418.129L379.953 443.051ZM137.737 59.5467L159.815 71.1499L138.727 84.4686L137.737 59.5467ZM367.745 427.768L146.291 77.1364L149.944 74.8295L371.398 425.461L367.745 427.768Z" fill="#656AFF"/>
<path d="M305.62 304.572C307.615 310.613 304.333 317.128 298.292 319.122C292.25 321.116 285.736 317.835 283.741 311.794C281.747 305.752 285.028 299.237 291.07 297.243C297.112 295.249 303.626 298.53 305.62 304.572ZM191.156 146.891C191.419 145.727 192.576 144.998 193.74 145.261L212.699 149.556C213.863 149.819 214.592 150.976 214.329 152.14C214.065 153.303 212.908 154.033 211.745 153.769L194.892 149.952L191.075 166.805C190.811 167.968 189.654 168.698 188.491 168.434C187.327 168.171 186.598 167.014 186.861 165.851L191.156 146.891ZM292.854 309.335L191.435 148.52L195.089 146.216L296.508 307.03L292.854 309.335Z" fill="#0C0824"/>
<path d="M283.862 312.138C281.868 306.097 285.149 299.582 291.19 297.588C297.232 295.594 303.747 298.875 305.741 304.916C307.735 310.958 304.454 317.473 298.412 319.467C292.371 321.461 285.856 318.18 283.862 312.138ZM415.138 328.819C415.817 329.8 415.573 331.145 414.592 331.825L398.612 342.895C397.631 343.574 396.286 343.33 395.606 342.349C394.927 341.368 395.171 340.023 396.152 339.343L410.357 329.503L400.517 315.299C399.837 314.318 400.082 312.973 401.062 312.293C402.043 311.614 403.389 311.858 404.068 312.839L415.138 328.819ZM295.187 306.402L413.748 327.924L412.976 332.174L294.416 310.653L295.187 306.402Z" fill="#0C0824"/>
<path d="M255.275 186.7C255.275 185.867 254.958 185.45 254.325 185.45C253.525 185.45 252.692 185.933 251.825 186.9C250.958 187.867 250.241 189.35 249.675 191.35C249.641 191.384 249.608 191.434 249.575 191.5C249.541 191.567 249.525 191.617 249.525 191.651C249.525 191.684 249.491 191.717 249.425 191.751C249.358 191.784 249.308 191.801 249.275 191.801C249.241 191.801 249.175 191.801 249.075 191.801C248.975 191.801 248.841 191.801 248.675 191.801H247.975C247.775 191.601 247.675 191.45 247.675 191.35C247.675 191.117 247.808 190.634 248.075 189.9C248.341 189.167 248.741 188.3 249.275 187.3C249.808 186.3 250.541 185.45 251.475 184.75C252.408 184.05 253.458 183.683 254.625 183.65C256.025 183.65 257.109 184.05 257.875 184.85C258.642 185.65 259.042 186.583 259.075 187.65C259.075 188.217 259.025 188.65 258.925 188.95C258.925 189.15 258.675 189.884 258.175 191.15C257.675 192.417 257.159 193.901 256.625 195.601C256.092 197.301 255.792 198.784 255.725 200.051C255.725 200.951 255.808 201.685 255.975 202.251C256.409 203.685 257.459 204.401 259.125 204.401C260.359 204.401 261.509 203.835 262.576 202.701C263.642 201.568 264.476 200.251 265.076 198.751C265.676 197.251 266.159 195.867 266.526 194.601C266.893 193.334 267.076 192.417 267.076 191.851C267.076 191.084 266.943 190.417 266.676 189.85C266.409 189.284 266.109 188.85 265.776 188.55C265.443 188.25 265.143 187.95 264.876 187.65C264.609 187.35 264.476 186.983 264.476 186.55C264.476 185.817 264.792 185.133 265.426 184.5C266.059 183.867 266.743 183.55 267.476 183.55C268.109 183.55 268.676 183.85 269.176 184.45C269.676 185.05 269.943 186.017 269.976 187.35C269.976 188.25 269.776 189.634 269.376 191.5C268.976 193.367 268.359 195.451 267.526 197.751C266.693 200.051 265.509 202.035 263.976 203.701C262.442 205.368 260.676 206.218 258.675 206.252C256.542 206.252 254.842 205.702 253.575 204.601C252.342 203.535 251.725 201.951 251.725 199.851C251.725 198.818 251.858 197.751 252.125 196.651C252.392 195.551 253.075 193.601 254.175 190.8C254.908 188.667 255.275 187.3 255.275 186.7Z" fill="#0C0824"/>
<path d="M352.376 285.95C352.042 285.95 351.159 285.767 349.726 285.4C348.292 285.033 347.242 284.85 346.575 284.85C345.909 284.85 345.342 284.917 344.875 285.05C344.408 285.183 344.025 285.35 343.725 285.55C343.425 285.75 343.225 285.934 343.125 286.1C343.025 286.267 342.908 286.45 342.775 286.65L342.675 286.85C342.575 286.95 342.325 287 341.925 287C341.225 287 340.875 286.867 340.875 286.6C340.875 286.434 340.925 286.2 341.025 285.9C341.458 284.6 342.175 283.483 343.175 282.55C344.175 281.617 345.275 281.05 346.475 280.85C346.875 280.783 347.159 280.75 347.325 280.75C348.159 280.75 348.909 281.033 349.576 281.6C350.242 282.167 350.876 282.717 351.476 283.25C352.076 283.783 352.709 284.067 353.376 284.1C354.109 284.1 354.843 283.55 355.576 282.45C356.309 281.35 356.693 280.8 356.726 280.8C356.759 280.766 357.009 280.75 357.476 280.75H358.126C358.326 280.95 358.426 281.083 358.426 281.15C358.426 281.283 358.343 281.517 358.176 281.85C358.01 282.183 357.776 282.533 357.476 282.9C357.176 283.267 356.893 283.633 356.626 284C356.359 284.367 356.126 284.683 355.926 284.95L355.576 285.4C354.143 287.1 351.876 289.35 348.775 292.151C345.675 294.951 343.758 296.751 343.025 297.551L342.425 298.151L343.175 298.201C343.908 298.201 344.975 298.384 346.375 298.751C347.775 299.118 348.825 299.301 349.526 299.301C350.792 299.301 351.959 298.984 353.026 298.351C354.093 297.718 354.793 296.884 355.126 295.851C355.259 295.551 355.376 295.368 355.476 295.301C355.576 295.234 355.826 295.201 356.226 295.201C356.859 295.201 357.176 295.368 357.176 295.701C357.176 295.868 357.159 296.018 357.126 296.151C356.559 298.218 355.459 299.935 353.826 301.301C352.192 302.668 350.559 303.368 348.925 303.401C348.059 303.401 347.292 303.118 346.625 302.551C345.959 301.985 345.309 301.418 344.675 300.851C344.042 300.285 343.408 300.001 342.775 300.001C341.308 300.001 339.992 301.001 338.825 303.001C338.625 303.268 338.341 303.401 337.975 303.401H337.725H337.075C336.875 303.201 336.775 303.051 336.775 302.951C336.775 302.451 337.741 301.018 339.675 298.651C340.975 297.151 343.175 294.984 346.275 292.151C349.376 289.317 351.292 287.517 352.026 286.75C352.426 286.217 352.542 285.95 352.376 285.95Z" fill="#0C0824"/>
<path d="M368.726 106.583C368.726 107.017 368.626 107.334 368.426 107.534H367.526C363.226 107.534 360.225 106.433 358.525 104.233C358.359 104 358.225 103.8 358.125 103.633C358.025 103.467 357.942 103.283 357.875 103.083C357.808 102.883 357.742 102.667 357.675 102.433C357.608 102.2 357.575 101.95 357.575 101.683C357.575 101.416 357.558 101.05 357.525 100.583C357.492 100.116 357.475 99.6663 357.475 99.233C357.475 98.7996 357.475 98.1829 357.475 97.3828C357.475 96.5828 357.475 95.7994 357.475 95.0326C357.475 94.3326 357.475 93.4492 357.475 92.3824C357.442 89.4156 357.358 87.7488 357.225 87.3821C357.192 87.3487 357.175 87.3154 357.175 87.2821C356.708 86.082 355.875 85.1486 354.675 84.4819C353.475 83.8151 352.291 83.4818 351.125 83.4818C350.758 83.4818 350.525 83.4318 350.425 83.3318C350.325 83.2318 350.275 82.9651 350.275 82.5317C350.275 82.0984 350.325 81.8317 350.425 81.7317C350.525 81.6317 350.758 81.5816 351.125 81.5816C352.258 81.5816 353.425 81.2483 354.625 80.5816C355.825 79.9149 356.675 78.9815 357.175 77.7814C357.342 77.4147 357.425 76.8813 357.425 76.1812C357.425 75.4812 357.442 72.9477 357.475 68.5807V66.0805C357.475 64.247 357.575 62.9636 357.775 62.2302C357.975 61.4968 358.459 60.7968 359.225 60.1301C360.092 59.2633 361.425 58.5633 363.226 58.0299C364.459 57.7632 365.342 57.6132 365.876 57.5799C365.942 57.5799 366.159 57.5799 366.526 57.5799C366.892 57.5799 367.193 57.5632 367.426 57.5299H368.426C368.626 57.7299 368.726 58.0299 368.726 58.4299C368.726 58.8633 368.676 59.13 368.576 59.23C368.509 59.33 368.243 59.38 367.776 59.38C366.009 59.48 364.626 59.88 363.626 60.5801C362.626 61.2801 362.025 61.9802 361.825 62.6802C361.659 63.1136 361.575 65.5805 361.575 70.0808V74.1811C361.575 75.7479 361.525 76.8146 361.425 77.3813C361.325 77.948 361.042 78.5981 360.575 79.3315C359.542 80.7649 358.092 81.7483 356.225 82.2817L355.525 82.5317L356.225 82.7817C356.825 82.9818 357.425 83.2318 358.025 83.5318C358.625 83.8318 359.325 84.3985 360.125 85.2319C360.925 86.0653 361.392 87.0487 361.525 88.1821C361.559 88.3822 361.575 90.649 361.575 94.9826C361.575 99.483 361.659 101.95 361.825 102.383C362.159 103.283 362.876 104.033 363.976 104.633C365.076 105.233 366.342 105.583 367.776 105.683C368.243 105.683 368.509 105.733 368.576 105.833C368.676 105.933 368.726 106.183 368.726 106.583Z" fill="#656AFF"/>
<path d="M380.677 76.0312C380.677 75.1978 380.36 74.7811 379.727 74.7811C378.927 74.7811 378.093 75.2645 377.227 76.2312C376.36 77.1979 375.643 78.6814 375.076 80.6815C375.043 80.7149 375.01 80.7649 374.976 80.8315C374.943 80.8982 374.926 80.9482 374.926 80.9816C374.926 81.0149 374.893 81.0482 374.826 81.0816C374.76 81.1149 374.71 81.1316 374.676 81.1316C374.643 81.1316 374.576 81.1316 374.476 81.1316C374.376 81.1316 374.243 81.1316 374.076 81.1316H373.376C373.176 80.9316 373.076 80.7815 373.076 80.6815C373.076 80.4482 373.21 79.9648 373.476 79.2314C373.743 78.498 374.143 77.6313 374.676 76.6312C375.21 75.6312 375.943 74.7811 376.877 74.081C377.81 73.381 378.86 73.0143 380.027 72.981C381.427 72.981 382.51 73.381 383.277 74.1811C384.044 74.9811 384.444 75.9145 384.477 76.9813C384.477 77.548 384.427 77.9813 384.327 78.2814C384.327 78.4814 384.077 79.2148 383.577 80.4815C383.077 81.7483 382.56 83.2317 382.027 84.9319C381.494 86.632 381.194 88.1154 381.127 89.3822C381.127 90.2822 381.21 91.0156 381.377 91.5823C381.81 93.0158 382.86 93.7325 384.527 93.7325C385.761 93.7325 386.911 93.1658 387.977 92.0324C389.044 90.899 389.878 89.5822 390.478 88.0821C391.078 86.582 391.561 85.1985 391.928 83.9318C392.294 82.665 392.478 81.7483 392.478 81.1816C392.478 80.4149 392.344 79.7481 392.078 79.1814C391.811 78.6147 391.511 78.1814 391.178 77.8813C390.844 77.5813 390.544 77.2813 390.278 76.9813C390.011 76.6812 389.878 76.3145 389.878 75.8812C389.878 75.1478 390.194 74.4644 390.828 73.831C391.461 73.1977 392.144 72.881 392.878 72.881C393.511 72.881 394.078 73.181 394.578 73.781C395.078 74.3811 395.345 75.3478 395.378 76.6812C395.378 77.5813 395.178 78.9647 394.778 80.8315C394.378 82.6984 393.761 84.7818 392.928 87.082C392.094 89.3822 390.911 91.3657 389.378 93.0325C387.844 94.6992 386.077 95.5493 384.077 95.5826C381.944 95.5826 380.243 95.0326 378.977 93.9325C377.743 92.8658 377.127 91.2823 377.127 89.1822C377.127 88.1488 377.26 87.082 377.527 85.9819C377.793 84.8818 378.477 82.9317 379.577 80.1315C380.31 77.998 380.677 76.6312 380.677 76.0312Z" fill="#656AFF"/>
<path d="M400.178 93.2825C400.178 93.2825 400.178 92.8658 400.178 92.0324C400.178 91.199 400.445 90.4823 400.979 89.8823C401.512 89.2822 402.229 88.9822 403.129 88.9822C404.062 88.9822 404.895 89.3989 405.629 90.2323C406.362 91.0657 406.746 92.5325 406.779 94.6326C406.779 95.7994 406.629 96.9328 406.329 98.0329C406.029 99.133 405.679 100.083 405.279 100.883C404.879 101.683 404.445 102.367 403.979 102.933C403.512 103.5 403.112 103.95 402.779 104.283C402.445 104.617 402.229 104.767 402.129 104.733C401.995 104.733 401.779 104.583 401.479 104.283C401.179 103.983 401.029 103.767 401.029 103.633C401.029 103.5 401.212 103.233 401.579 102.833C401.945 102.433 402.362 101.933 402.829 101.333C403.295 100.733 403.729 99.8997 404.129 98.8329C404.529 97.7662 404.795 96.5494 404.929 95.1827V94.5826L404.879 94.6326C404.812 94.666 404.729 94.6993 404.629 94.7326C404.529 94.766 404.429 94.816 404.329 94.8826C404.229 94.9493 404.079 94.9826 403.879 94.9826C403.679 94.9826 403.479 94.9993 403.279 95.0327C402.379 95.0327 401.645 94.7493 401.079 94.1826L400.178 93.2825Z" fill="#656AFF"/>
<path d="M435.338 78.1313C435.005 78.1313 434.121 77.948 432.688 77.5813C431.254 77.2146 430.204 77.0313 429.538 77.0313C428.871 77.0313 428.304 77.0979 427.838 77.2313C427.371 77.3646 426.987 77.5313 426.687 77.7313C426.387 77.9313 426.187 78.1147 426.087 78.2814C425.987 78.448 425.871 78.6314 425.737 78.8314L425.637 79.0314C425.537 79.1314 425.287 79.1814 424.887 79.1814C424.187 79.1814 423.837 79.0481 423.837 78.7814C423.837 78.6147 423.887 78.3814 423.987 78.0813C424.421 76.7812 425.137 75.6645 426.137 74.7311C427.137 73.7977 428.238 73.231 429.438 73.031C429.838 72.9643 430.121 72.931 430.288 72.931C431.121 72.931 431.871 73.2143 432.538 73.781C433.205 74.3477 433.838 74.8978 434.438 75.4311C435.038 75.9645 435.671 76.2479 436.338 76.2812C437.072 76.2812 437.805 75.7312 438.538 74.6311C439.272 73.531 439.655 72.981 439.688 72.981C439.722 72.9476 439.972 72.931 440.438 72.931H441.089C441.289 73.131 441.389 73.2643 441.389 73.331C441.389 73.4643 441.305 73.6977 441.139 74.031C440.972 74.3644 440.738 74.7144 440.438 75.0811C440.138 75.4478 439.855 75.8145 439.588 76.1812C439.322 76.5479 439.088 76.8646 438.888 77.1313L438.538 77.5813C437.105 79.2814 434.838 81.5316 431.738 84.3318C428.638 87.132 426.721 88.9321 425.987 89.7322L425.387 90.3323L426.137 90.3823C426.871 90.3823 427.938 90.5656 429.338 90.9323C430.738 91.299 431.788 91.4823 432.488 91.4823C433.755 91.4823 434.921 91.1656 435.988 90.5323C437.055 89.8989 437.755 89.0655 438.088 88.0321C438.222 87.7321 438.338 87.5487 438.438 87.482C438.538 87.4154 438.788 87.382 439.188 87.382C439.822 87.382 440.138 87.5487 440.138 87.8821C440.138 88.0488 440.122 88.1988 440.088 88.3321C439.522 90.3989 438.422 92.1157 436.788 93.4825C435.155 94.8493 433.521 95.5493 431.888 95.5826C431.021 95.5826 430.254 95.2993 429.588 94.7326C428.921 94.1659 428.271 93.5992 427.638 93.0325C427.004 92.4657 426.371 92.1824 425.737 92.1824C424.271 92.1824 422.954 93.1825 421.787 95.1826C421.587 95.4493 421.304 95.5826 420.937 95.5826H420.687H420.037C419.837 95.3826 419.737 95.2326 419.737 95.1326C419.737 94.6326 420.704 93.1991 422.637 90.8323C423.937 89.3322 426.137 87.1654 429.238 84.3318C432.338 81.4983 434.255 79.6981 434.988 78.9314C435.388 78.398 435.505 78.1313 435.338 78.1313Z" fill="#656AFF"/>
<path d="M444.489 58.4799C444.489 58.0132 444.539 57.7465 444.639 57.6799C444.739 57.6132 445.072 57.5632 445.639 57.5299C448.406 57.5299 450.539 57.9466 452.04 58.78C453.54 59.6134 454.59 60.5301 455.19 61.5302C455.49 62.2302 455.657 62.8136 455.69 63.2803C455.723 63.747 455.757 65.9805 455.79 69.9808C455.823 74.6145 455.857 77.0146 455.89 77.1813C456.323 78.6814 457.19 79.7815 458.49 80.4816C459.79 81.1816 460.99 81.5483 462.09 81.5816C462.457 81.5816 462.69 81.6317 462.79 81.7317C462.89 81.8317 462.94 82.0984 462.94 82.5317C462.94 82.9651 462.89 83.2318 462.79 83.3318C462.69 83.4318 462.457 83.4818 462.09 83.4818C460.857 83.4818 459.657 83.8318 458.49 84.5319C457.323 85.2319 456.54 86.1153 456.14 87.1821C455.973 87.6488 455.873 88.2488 455.84 88.9822C455.807 89.7156 455.79 92.1991 455.79 96.4327V98.9829C455.79 100.816 455.69 102.1 455.49 102.833C455.29 103.567 454.806 104.267 454.04 104.933C452.24 106.667 449.456 107.534 445.689 107.534C445.089 107.534 444.739 107.484 444.639 107.384C444.539 107.284 444.489 107 444.489 106.533C444.489 106.333 444.489 106.217 444.489 106.183C444.489 106.15 444.506 106.067 444.539 105.933C444.572 105.8 444.622 105.733 444.689 105.733C444.756 105.733 444.889 105.717 445.089 105.683C445.556 105.683 446.072 105.633 446.639 105.533C447.206 105.433 447.839 105.267 448.539 105.033C449.239 104.8 449.856 104.417 450.389 103.883C450.923 103.35 451.323 102.717 451.59 101.983C451.623 101.816 451.656 99.4496 451.69 94.8826L451.74 88.0821C452.173 86.182 453.34 84.6652 455.24 83.5318C456.407 82.9651 457.24 82.6317 457.74 82.5317C456.907 82.2984 456.073 81.965 455.24 81.5316C453.406 80.3982 452.273 79.0315 451.84 77.4313L451.74 76.9313L451.69 70.1308C451.656 65.5638 451.623 63.197 451.59 63.0303C451.19 61.6968 450.306 60.7634 448.939 60.2301C447.573 59.6967 446.289 59.4133 445.089 59.38C444.789 59.38 444.622 59.33 444.589 59.23C444.556 59.13 444.522 58.88 444.489 58.4799Z" fill="#656AFF"/>
<path d="M260.783 79.2437C260.783 77.9095 260.332 76.7588 259.432 75.7915C258.531 74.8243 257.231 74.3406 255.529 74.3406C254.329 74.3406 253.295 74.5574 252.428 74.991C251.427 75.6248 250.927 76.492 250.927 77.5926C250.893 77.7594 250.893 77.9762 250.927 78.2431C250.96 78.5099 251.227 78.9101 251.727 79.4438C252.227 79.9775 252.945 80.3944 253.878 80.6946C254.479 80.8614 255.213 81.0114 256.08 81.1449C256.947 81.2783 257.681 81.4284 258.281 81.5951C258.882 81.7619 259.415 81.9787 259.882 82.2455C260.449 82.5124 261 82.8459 261.533 83.2462C262.067 83.6464 262.601 84.3302 263.134 85.2975C263.668 86.2647 263.951 87.2987 263.985 88.3994C263.985 90.4673 263.351 92.1684 262.084 93.5026C260.816 94.8367 258.765 95.5205 255.93 95.5539H255.529C253.795 95.5539 252.194 94.9535 250.726 93.7527L250.326 94.1029L249.876 94.5532C249.676 94.7534 249.476 94.9368 249.276 95.1036L248.725 95.6039H248.325H248.125C248.025 95.6039 247.875 95.5038 247.675 95.3037V91.3512V88.4494C247.675 87.749 247.708 87.3321 247.775 87.1986C247.841 87.0652 248.008 86.9818 248.275 86.9485H248.725C249.125 86.9485 249.392 87.0152 249.526 87.1486C249.659 87.282 249.743 87.4821 249.776 87.749C249.809 88.0158 249.926 88.4661 250.126 89.0998C250.326 89.7336 250.643 90.434 251.077 91.2011C252.244 92.9022 253.862 93.7527 255.93 93.7527C259.165 93.7527 260.783 92.4519 260.783 89.8503C260.783 88.883 260.483 88.0992 259.882 87.4988C259.215 86.6983 257.831 86.098 255.73 85.6977C253.628 85.2975 252.244 84.9139 251.577 84.547C250.376 83.98 249.426 83.2128 248.725 82.2455C248.025 81.2783 247.675 80.2443 247.675 79.1436C247.675 77.8428 247.958 76.7421 248.525 75.8416C249.092 74.941 249.809 74.2739 250.676 73.8403C251.544 73.4067 252.377 73.1065 253.178 72.9397C253.978 72.773 254.712 72.6896 255.379 72.6896H255.93C257.264 72.6896 258.431 72.9397 259.432 73.4401L260.182 73.8403L260.633 73.4901C260.966 73.1899 261.333 72.9064 261.733 72.6396H262.134H262.334C262.434 72.6396 262.584 72.7396 262.784 72.9397V79.5439L262.484 79.844H261.083C260.883 79.6439 260.783 79.4438 260.783 79.2437Z" fill="#656AFF"/>
<path d="M267.537 102.458H268.237C269.538 102.458 270.322 102.225 270.589 101.758V101.358C270.589 101.124 270.589 100.807 270.589 100.407C270.589 100.007 270.589 99.5064 270.589 98.906C270.589 98.3056 270.606 97.6552 270.639 96.9548C270.672 96.2543 270.672 95.5205 270.639 94.7534C270.606 93.9863 270.606 93.1691 270.639 92.3019C270.672 91.4347 270.672 90.5841 270.639 89.7503C270.639 88.6162 270.639 87.4322 270.639 86.1981C270.639 84.964 270.639 83.8633 270.639 82.896C270.639 81.9287 270.639 81.0449 270.639 80.2444C270.639 79.4439 270.622 78.7934 270.589 78.2931C270.555 77.7928 270.555 77.526 270.589 77.4926C270.489 76.8589 270.255 76.442 269.888 76.2419C269.522 76.0417 268.771 75.8916 267.637 75.7916H266.736V74.6409C266.736 73.8737 266.77 73.4901 266.837 73.4901L267.337 73.4401C267.67 73.4068 268.154 73.3734 268.788 73.34C269.421 73.3067 270.039 73.2733 270.639 73.24C271.206 73.2066 271.823 73.1733 272.49 73.1399C273.157 73.1066 273.657 73.0565 273.991 72.9898C274.325 72.9231 274.508 72.9064 274.541 72.9398H274.691V74.2406L274.741 75.5414L275.142 75.1912C277.11 73.7236 279.411 72.9898 282.046 72.9898C284.748 72.9898 287.049 74.0572 288.95 76.1918C290.851 78.3265 291.819 81.0115 291.852 84.2468C291.852 87.6156 290.768 90.3507 288.6 92.452C286.432 94.5533 283.981 95.6039 281.246 95.6039C278.977 95.6039 276.976 94.8701 275.242 93.4026L274.842 93.0523V97.305V100.107C274.842 101.007 274.875 101.558 274.942 101.758C275.008 101.958 275.192 102.141 275.492 102.308C276.192 102.408 277.01 102.458 277.943 102.458H278.744V104.76H278.344L277.143 104.71C276.376 104.676 275.542 104.66 274.641 104.66C273.741 104.66 273.107 104.643 272.74 104.61C269.305 104.61 267.437 104.66 267.137 104.76H266.736V102.458H267.537ZM286.949 84.1468C286.949 81.6786 286.382 79.5272 285.248 77.6928C284.114 75.8583 282.696 74.941 280.995 74.941C278.627 74.941 276.576 76.0251 274.842 78.1931V90.1505C276.176 92.552 278.044 93.7528 280.445 93.7528C282.146 93.7528 283.647 92.8522 284.948 91.0511C286.249 89.25 286.916 86.9485 286.949 84.1468Z" fill="#656AFF"/>
<path d="M300.408 79.794C300.408 79.794 300.041 79.794 299.307 79.794C298.573 79.794 297.956 79.5439 297.456 79.0435C296.955 78.5432 296.705 77.8928 296.705 77.0923C296.705 75.9249 297.272 74.891 298.406 73.9904C299.54 73.0898 301.558 72.6396 304.46 72.6396C306.895 72.6396 308.863 73.1732 310.364 74.2406C311.865 75.3079 312.865 76.5753 313.366 78.0429C313.532 78.5099 313.616 79.0269 313.616 79.5939C313.616 80.1609 313.632 82.0788 313.666 85.3475V88.8497C313.666 90.4507 313.749 91.5514 313.916 92.1517C314.083 92.7521 314.433 93.0523 314.967 93.0523C315.467 93.0523 315.8 92.7855 315.967 92.2518C316.134 91.7181 316.217 90.8342 316.217 89.6001V87.799H318.219V89.7502C318.185 91.0844 318.135 91.8682 318.069 92.1017C317.768 93.1023 317.185 93.8861 316.317 94.4532C315.45 95.0202 314.533 95.3204 313.566 95.3537C312.598 95.3871 311.815 95.0869 311.214 94.4532C310.614 93.8194 310.214 93.119 310.014 92.3519V92.1517L309.913 92.3018C309.847 92.4019 309.763 92.5019 309.663 92.602C309.563 92.7021 309.43 92.8522 309.263 93.0523C309.096 93.2524 308.896 93.4359 308.663 93.6026C308.429 93.7694 308.179 93.9695 307.912 94.203C307.645 94.4365 307.345 94.6199 307.012 94.7534C306.678 94.8868 306.311 95.0202 305.911 95.1536C305.511 95.287 305.077 95.3871 304.61 95.4538C304.143 95.5205 303.626 95.5705 303.059 95.6039C301.058 95.6039 299.257 95.0869 297.656 94.0529C296.055 93.0189 295.254 91.568 295.254 89.7002C295.254 88.9998 295.371 88.3327 295.605 87.6989C295.838 87.0652 296.288 86.3815 296.955 85.6477C297.622 84.9139 298.423 84.2968 299.357 83.7965C300.291 83.2962 301.592 82.8292 303.259 82.3956C304.927 81.962 306.762 81.7119 308.763 81.6452H309.463V80.5445C309.463 79.4104 309.363 78.5766 309.163 78.0429C308.429 75.6748 306.812 74.4907 304.31 74.4907C303.71 74.4907 303.143 74.5074 302.609 74.5407C302.075 74.5741 301.658 74.6408 301.358 74.7409C301.058 74.8409 300.925 74.891 300.958 74.891C301.692 75.3913 302.059 76.1251 302.059 77.0923C302.059 77.9262 301.792 78.5766 301.258 79.0435L300.408 79.794ZM299.857 89.7502C299.857 90.7842 300.257 91.7014 301.058 92.5019C301.858 93.3024 302.842 93.7194 304.01 93.7527C305.277 93.7527 306.395 93.3692 307.362 92.602C308.329 91.8349 308.98 90.8342 309.313 89.6001C309.38 89.3667 309.43 88.266 309.463 86.2981C309.463 84.3635 309.447 83.3963 309.413 83.3963C309.146 83.3963 308.796 83.4129 308.363 83.4463C307.929 83.4797 307.178 83.6297 306.111 83.8966C305.044 84.1634 304.077 84.497 303.209 84.8972C302.342 85.2975 301.575 85.9145 300.908 86.7484C300.241 87.5822 299.891 88.5828 299.857 89.7502Z" fill="#656AFF"/>
<path d="M320.62 92.752H321.321C322.621 92.752 323.405 92.5186 323.672 92.0516V91.6513C323.672 91.3512 323.672 90.9676 323.672 90.5006C323.672 90.0337 323.672 89.5167 323.672 88.9497C323.672 88.3826 323.689 87.7322 323.722 86.9984C323.755 86.2647 323.755 85.5642 323.722 84.8971C323.722 83.8632 323.722 82.7625 323.722 81.5951C323.722 80.4277 323.705 79.4437 323.672 78.6432V77.4925C323.572 76.8588 323.338 76.4419 322.972 76.2417C322.605 76.0416 321.854 75.8915 320.72 75.7914H319.82V74.6407C319.82 73.8736 319.853 73.49 319.92 73.49L320.42 73.44C320.753 73.4066 321.22 73.3733 321.821 73.3399C322.421 73.3066 323.038 73.2732 323.672 73.2399C324.239 73.2065 324.839 73.1731 325.473 73.1398C326.107 73.1064 326.59 73.0564 326.924 72.9897C327.258 72.923 327.441 72.9063 327.474 72.9397H327.624V74.9409C327.624 76.2084 327.641 76.8421 327.674 76.8421C327.708 76.8421 327.791 76.7587 327.925 76.5919C328.058 76.4252 328.258 76.175 328.525 75.8415C328.792 75.5079 329.109 75.2078 329.476 74.9409C329.842 74.6741 330.326 74.3572 330.927 73.9903C331.527 73.6234 332.161 73.3566 332.828 73.1898C333.495 73.0231 334.345 72.9397 335.379 72.9397C339.182 73.0731 341.3 74.9576 341.733 78.5932C341.767 78.8267 341.783 81.1448 341.783 85.5475V89.8502C341.783 91.1177 341.817 91.8681 341.883 92.1016C341.95 92.3351 342.134 92.5019 342.434 92.6019C343.134 92.702 343.951 92.752 344.885 92.752H345.686V95.0535H345.285L344.085 95.0034C343.318 94.9701 342.484 94.9534 341.583 94.9534C340.683 94.9534 340.049 94.9367 339.682 94.9034C336.246 94.9034 334.379 94.9534 334.078 95.0535H333.678V92.752H334.479C336.513 92.752 337.531 92.4852 337.531 91.9515C337.564 91.8848 337.581 89.5834 337.581 85.0472C337.547 80.5444 337.514 78.1596 337.481 77.8928C337.28 76.9588 336.947 76.2584 336.48 75.7914C336.013 75.3245 335.613 75.041 335.279 74.9409C334.946 74.8409 334.512 74.8075 333.978 74.8409C332.477 74.8409 331.16 75.4079 330.026 76.5419C329.125 77.4425 328.558 78.3597 328.325 79.2936C328.091 80.2276 327.958 81.6117 327.925 83.4462V86.6482V89.6501C327.925 90.6507 327.941 91.3178 327.975 91.6513C328.008 91.9849 328.058 92.2017 328.125 92.3017C328.191 92.4018 328.342 92.5019 328.575 92.6019C329.275 92.702 330.093 92.752 331.027 92.752H331.827V95.0535H331.427L330.276 95.0034C329.476 94.9701 328.625 94.9534 327.725 94.9534C326.824 94.9534 326.19 94.9367 325.823 94.9034C322.388 94.9034 320.52 94.9534 320.22 95.0535H319.82V92.752H320.62Z" fill="#656AFF"/>
</svg>
