<svg width="600" height="501" viewBox="0 0 600 501" fill="none" xmlns="http://www.w3.org/2000/svg">
<path d="M569.1 121.4L544.158 121.361L556.596 142.981L569.1 121.4ZM406.471 217.452L553.327 132.966L551.172 129.222L404.317 213.707L406.471 217.452Z" fill="#656AFF"/>
<path d="M30 430.1L54.9415 430.037L42.4167 408.469L30 430.1ZM146.05 360.213L45.7265 418.47L47.8959 422.206L148.219 363.949L146.05 360.213Z" fill="#656AFF"/>
<path d="M280.974 279.674C280.974 286.036 286.131 291.194 292.494 291.194C298.856 291.194 304.014 286.036 304.014 279.674C304.014 273.312 298.856 268.154 292.494 268.154C286.131 268.154 280.974 273.312 280.974 279.674ZM407.477 216.154C407.794 215.004 407.118 213.814 405.968 213.497L387.228 208.33C386.078 208.013 384.889 208.688 384.571 209.838C384.254 210.988 384.929 212.177 386.079 212.494L402.738 217.088L398.144 233.746C397.827 234.896 398.502 236.085 399.652 236.402C400.802 236.72 401.992 236.044 402.309 234.894L407.477 216.154ZM293.56 281.552L406.461 217.458L404.328 213.701L291.427 277.796L293.56 281.552Z" fill="#0C0824"/>
<path d="M304.014 279.674C304.014 273.312 298.856 268.154 292.494 268.154C286.131 268.154 280.974 273.312 280.974 279.674C280.974 286.036 286.131 291.194 292.494 291.194C298.856 291.194 304.014 286.036 304.014 279.674ZM143.642 362.158C143.323 363.308 143.996 364.498 145.146 364.817L163.88 370.01C165.029 370.328 166.219 369.655 166.538 368.505C166.857 367.356 166.183 366.165 165.034 365.847L148.382 361.231L152.997 344.579C153.316 343.429 152.643 342.239 151.493 341.92C150.343 341.601 149.153 342.275 148.834 343.425L143.642 362.158ZM291.43 277.794L144.659 360.855L146.787 364.615L293.558 281.554L291.43 277.794Z" fill="#0C0824"/>
<path d="M313.451 223.555C313.684 222.154 314.585 220.536 316.152 218.702C317.72 216.867 319.654 215.933 321.956 215.9C323.123 215.9 324.191 216.2 325.158 216.801C326.125 217.401 326.842 218.151 327.309 219.052C328.71 216.951 330.394 215.9 332.362 215.9C333.596 215.9 334.664 216.267 335.564 217.001C336.465 217.734 336.932 218.718 336.965 219.952C336.965 220.92 336.732 221.704 336.265 222.304C335.798 222.904 335.348 223.271 334.914 223.405C334.48 223.538 334.097 223.605 333.763 223.605C333.129 223.605 332.612 223.421 332.212 223.054C331.812 222.688 331.612 222.204 331.612 221.604C331.612 220.069 332.446 219.019 334.113 218.452C333.747 218.018 333.079 217.801 332.112 217.801C331.679 217.801 331.362 217.834 331.162 217.901C329.894 218.435 328.96 219.536 328.36 221.203C326.359 228.575 325.358 232.877 325.358 234.111C325.358 235.045 325.625 235.712 326.158 236.113C326.692 236.513 327.276 236.713 327.91 236.713C329.144 236.713 330.361 236.163 331.562 235.062C332.763 233.961 333.58 232.61 334.013 231.009C334.113 230.676 334.213 230.492 334.314 230.459C334.414 230.426 334.68 230.392 335.114 230.359H335.314C335.814 230.359 336.065 230.492 336.065 230.759C336.065 230.793 336.031 230.976 335.965 231.31C335.431 233.211 334.397 234.895 332.863 236.363C331.328 237.83 329.544 238.564 327.509 238.564C325.175 238.564 323.407 237.513 322.206 235.412C320.838 237.48 319.271 238.514 317.503 238.514H317.203C315.569 238.514 314.401 238.08 313.701 237.213C313 236.346 312.633 235.429 312.6 234.462C312.6 233.394 312.917 232.527 313.551 231.86C314.184 231.193 314.935 230.859 315.802 230.859C317.236 230.859 317.953 231.56 317.953 232.961C317.953 233.628 317.753 234.211 317.353 234.712C316.953 235.212 316.569 235.546 316.202 235.712C315.835 235.879 315.619 235.962 315.552 235.962L315.402 236.012C315.402 236.046 315.502 236.113 315.702 236.213C315.902 236.313 316.169 236.429 316.502 236.563C316.836 236.696 317.153 236.746 317.453 236.713C318.654 236.713 319.688 235.962 320.555 234.462C320.855 233.928 321.239 232.794 321.706 231.059C322.173 229.325 322.64 227.524 323.107 225.656C323.574 223.788 323.84 222.688 323.907 222.354C324.074 221.453 324.157 220.803 324.157 220.403C324.157 219.469 323.907 218.802 323.407 218.402C322.906 218.001 322.339 217.801 321.706 217.801C320.372 217.801 319.121 218.335 317.953 219.402C316.786 220.469 315.969 221.837 315.502 223.505C315.435 223.805 315.352 223.972 315.252 224.005C315.152 224.038 314.885 224.072 314.451 224.105H313.751C313.551 223.905 313.451 223.721 313.451 223.555Z" fill="#0C0824"/>
<path d="M199.708 93.7136C199.708 92.3795 199.258 91.2288 198.357 90.2615C197.457 89.2942 196.156 88.8106 194.455 88.8106C193.254 88.8106 192.22 89.0274 191.353 89.461C190.352 90.0947 189.852 90.9619 189.852 92.0626C189.819 92.2294 189.819 92.4462 189.852 92.713C189.885 92.9799 190.152 93.3801 190.653 93.9138C191.153 94.4474 191.87 94.8644 192.804 95.1646C193.404 95.3313 194.138 95.4814 195.005 95.6148C195.872 95.7482 196.606 95.8983 197.207 96.0651C197.807 96.2319 198.341 96.4487 198.808 96.7155C199.375 96.9824 199.925 97.3159 200.459 97.7161C200.992 98.1164 201.526 98.8002 202.06 99.7674C202.593 100.735 202.877 101.769 202.91 102.869C202.91 104.937 202.276 106.638 201.009 107.973C199.742 109.307 197.69 109.99 194.855 110.024H194.455C192.72 110.024 191.119 109.423 189.652 108.223L189.252 108.573L188.801 109.023C188.601 109.223 188.401 109.407 188.201 109.574L187.651 110.074H187.25H187.05C186.95 110.074 186.8 109.974 186.6 109.774V105.821V102.919C186.6 102.219 186.633 101.802 186.7 101.669C186.767 101.535 186.934 101.452 187.2 101.418H187.651C188.051 101.418 188.318 101.485 188.451 101.619C188.585 101.752 188.668 101.952 188.701 102.219C188.735 102.486 188.851 102.936 189.052 103.57C189.252 104.204 189.569 104.904 190.002 105.671C191.17 107.372 192.787 108.223 194.855 108.223C198.091 108.223 199.708 106.922 199.708 104.32C199.708 103.353 199.408 102.569 198.808 101.969C198.141 101.168 196.756 100.568 194.655 100.168C192.554 99.7674 191.17 99.3838 190.502 99.017C189.302 98.4499 188.351 97.6828 187.651 96.7155C186.95 95.7482 186.6 94.7143 186.6 93.6136C186.6 92.3128 186.884 91.2121 187.451 90.3115C188.018 89.411 188.735 88.7439 189.602 88.3103C190.469 87.8767 191.303 87.5765 192.103 87.4097C192.904 87.2429 193.638 87.1596 194.305 87.1596H194.855C196.189 87.1596 197.357 87.4097 198.357 87.91L199.108 88.3103L199.558 87.9601C199.892 87.6599 200.259 87.3764 200.659 87.1095H201.059H201.259C201.359 87.1095 201.509 87.2096 201.709 87.4097V94.0138L201.409 94.314H200.008C199.808 94.1139 199.708 93.9138 199.708 93.7136Z" fill="#656AFF"/>
<path d="M206.462 116.928H207.163C208.464 116.928 209.247 116.695 209.514 116.228V115.827C209.514 115.594 209.514 115.277 209.514 114.877C209.514 114.477 209.514 113.976 209.514 113.376C209.514 112.776 209.531 112.125 209.564 111.425C209.598 110.724 209.598 109.991 209.564 109.223C209.531 108.456 209.531 107.639 209.564 106.772C209.598 105.905 209.598 105.054 209.564 104.22C209.564 103.086 209.564 101.902 209.564 100.668C209.564 99.4339 209.564 98.3332 209.564 97.366C209.564 96.3987 209.564 95.5148 209.564 94.7143C209.564 93.9138 209.548 93.2634 209.514 92.7631C209.481 92.2628 209.481 91.996 209.514 91.9626C209.414 91.3289 209.181 90.912 208.814 90.7118C208.447 90.5117 207.696 90.3616 206.562 90.2615H205.662V89.1108C205.662 88.3437 205.695 87.9601 205.762 87.9601L206.262 87.9101C206.596 87.8767 207.079 87.8434 207.713 87.81C208.347 87.7767 208.964 87.7433 209.564 87.71C210.131 87.6766 210.748 87.6432 211.415 87.6099C212.083 87.5765 212.583 87.5265 212.916 87.4598C213.25 87.3931 213.433 87.3764 213.467 87.4098H213.617V88.7106L213.667 90.0114L214.067 89.6612C216.035 88.1936 218.336 87.4598 220.971 87.4598C223.673 87.4598 225.975 88.5271 227.876 90.6618C229.777 92.7965 230.744 95.4815 230.778 98.7168C230.778 102.086 229.694 104.821 227.526 106.922C225.358 109.023 222.906 110.074 220.171 110.074C217.903 110.074 215.902 109.34 214.167 107.873L213.767 107.522V111.775V114.577C213.767 115.477 213.8 116.028 213.867 116.228C213.934 116.428 214.117 116.611 214.417 116.778C215.118 116.878 215.935 116.928 216.869 116.928H217.669V119.23H217.269L216.068 119.18C215.301 119.146 214.467 119.13 213.567 119.13C212.666 119.13 212.033 119.113 211.666 119.08C208.23 119.08 206.362 119.13 206.062 119.23H205.662V116.928H206.462ZM225.875 98.6168C225.875 96.1486 225.307 93.9972 224.173 92.1627C223.039 90.3283 221.622 89.411 219.921 89.411C217.553 89.411 215.501 90.495 213.767 92.663V104.621C215.101 107.022 216.969 108.223 219.37 108.223C221.072 108.223 222.572 107.322 223.873 105.521C225.174 103.72 225.841 101.419 225.875 98.6168Z" fill="#656AFF"/>
<path d="M239.333 94.264C239.333 94.264 238.966 94.264 238.232 94.264C237.499 94.264 236.881 94.0138 236.381 93.5135C235.881 93.0132 235.631 92.3628 235.631 91.5623C235.631 90.3949 236.198 89.3609 237.332 88.4604C238.466 87.5598 240.484 87.1095 243.386 87.1095C245.82 87.1095 247.788 87.6432 249.289 88.7105C250.79 89.7779 251.791 91.0453 252.291 92.5129C252.458 92.9799 252.541 93.4968 252.541 94.0639C252.541 94.6309 252.558 96.5487 252.591 99.8175V103.32C252.591 104.921 252.675 106.021 252.841 106.622C253.008 107.222 253.358 107.522 253.892 107.522C254.392 107.522 254.726 107.255 254.893 106.722C255.059 106.188 255.143 105.304 255.143 104.07V102.269H257.144V104.22C257.111 105.554 257.061 106.338 256.994 106.572C256.694 107.572 256.11 108.356 255.243 108.923C254.376 109.49 253.458 109.79 252.491 109.824C251.524 109.857 250.74 109.557 250.14 108.923C249.539 108.289 249.139 107.589 248.939 106.822V106.622L248.839 106.772C248.772 106.872 248.689 106.972 248.589 107.072C248.489 107.172 248.355 107.322 248.189 107.522C248.022 107.722 247.822 107.906 247.588 108.073C247.355 108.239 247.105 108.439 246.838 108.673C246.571 108.906 246.271 109.09 245.937 109.223C245.604 109.357 245.237 109.49 244.836 109.624C244.436 109.757 244.003 109.857 243.536 109.924C243.069 109.99 242.552 110.04 241.985 110.074C239.983 110.074 238.182 109.557 236.581 108.523C234.98 107.489 234.18 106.038 234.18 104.17C234.18 103.47 234.297 102.803 234.53 102.169C234.763 101.535 235.214 100.851 235.881 100.118C236.548 99.3838 237.348 98.7668 238.282 98.2665C239.216 97.7662 240.517 97.2992 242.185 96.8656C243.852 96.432 245.687 96.1819 247.688 96.1151H248.389V95.0145C248.389 93.8804 248.289 93.0466 248.088 92.5129C247.355 90.1448 245.737 88.9607 243.235 88.9607C242.635 88.9607 242.068 88.9774 241.534 89.0107C241.001 89.0441 240.584 89.1108 240.284 89.2108C239.983 89.3109 239.85 89.3609 239.883 89.3609C240.617 89.8612 240.984 90.595 240.984 91.5623C240.984 92.3962 240.717 93.0466 240.184 93.5135L239.333 94.264ZM238.783 104.22C238.783 105.254 239.183 106.171 239.983 106.972C240.784 107.772 241.768 108.189 242.935 108.223C244.203 108.223 245.32 107.839 246.287 107.072C247.255 106.305 247.905 105.304 248.239 104.07C248.305 103.837 248.355 102.736 248.389 100.768C248.389 98.8335 248.372 97.8662 248.339 97.8662C248.072 97.8662 247.722 97.8829 247.288 97.9163C246.854 97.9496 246.104 98.0997 245.037 98.3665C243.969 98.6334 243.002 98.9669 242.135 99.3672C241.268 99.7674 240.5 100.384 239.833 101.218C239.166 102.052 238.816 103.053 238.783 104.22Z" fill="#656AFF"/>
<path d="M259.546 107.222H260.246C261.547 107.222 262.331 106.989 262.597 106.522V106.121C262.597 105.821 262.597 105.438 262.597 104.971C262.597 104.504 262.597 103.987 262.597 103.42C262.597 102.853 262.614 102.202 262.647 101.468C262.681 100.735 262.681 100.034 262.647 99.3671C262.647 98.3331 262.647 97.2324 262.647 96.065C262.647 94.8976 262.631 93.9137 262.597 93.1132V91.9625C262.497 91.3288 262.264 90.9118 261.897 90.7117C261.53 90.5116 260.78 90.3615 259.646 90.2614H258.745V89.1107C258.745 88.3436 258.778 87.96 258.845 87.96L259.345 87.91C259.679 87.8766 260.146 87.8432 260.746 87.8099C261.347 87.7765 261.964 87.7432 262.597 87.7098C263.164 87.6765 263.765 87.6431 264.399 87.6098C265.032 87.5764 265.516 87.5264 265.849 87.4597C266.183 87.393 266.366 87.3763 266.4 87.4096H266.55V89.4109C266.55 90.6783 266.567 91.3121 266.6 91.3121C266.633 91.3121 266.717 91.2287 266.85 91.0619C266.983 90.8951 267.184 90.645 267.45 90.3115C267.717 89.9779 268.034 89.6777 268.401 89.4109C268.768 89.1441 269.252 88.8272 269.852 88.4603C270.452 88.0934 271.086 87.8266 271.753 87.6598C272.42 87.493 273.271 87.4096 274.305 87.4096C278.107 87.5431 280.225 89.4276 280.659 93.0632C280.692 93.2966 280.709 95.6148 280.709 100.018V104.32C280.709 105.588 280.742 106.338 280.809 106.572C280.875 106.805 281.059 106.972 281.359 107.072C282.06 107.172 282.877 107.222 283.811 107.222H284.611V109.523H284.211L283.01 109.473C282.243 109.44 281.409 109.423 280.509 109.423C279.608 109.423 278.974 109.407 278.607 109.373C275.172 109.373 273.304 109.423 273.004 109.523H272.604V107.222H273.404C275.439 107.222 276.456 106.955 276.456 106.422C276.489 106.355 276.506 104.053 276.506 99.5172C276.473 95.0144 276.439 92.6296 276.406 92.3627C276.206 91.4288 275.872 90.7284 275.405 90.2614C274.938 89.7945 274.538 89.511 274.205 89.4109C273.871 89.3108 273.438 89.2775 272.904 89.3108C271.403 89.3108 270.085 89.8778 268.951 91.0119C268.051 91.9124 267.484 92.8297 267.25 93.7636C267.017 94.6975 266.883 96.0817 266.85 97.9162V101.118V104.12C266.85 105.121 266.867 105.788 266.9 106.121C266.933 106.455 266.983 106.672 267.05 106.772C267.117 106.872 267.267 106.972 267.5 107.072C268.201 107.172 269.018 107.222 269.952 107.222H270.753V109.523H270.352L269.202 109.473C268.401 109.44 267.551 109.423 266.65 109.423C265.749 109.423 265.116 109.407 264.749 109.373C261.313 109.373 259.445 109.423 259.145 109.523H258.745V107.222H259.546Z" fill="#656AFF"/>
<path d="M307.025 121.081C307.025 121.514 306.925 121.831 306.725 122.031H305.824C301.522 122.031 298.52 120.931 296.819 118.729C296.652 118.496 296.519 118.296 296.419 118.129C296.319 117.962 296.235 117.779 296.168 117.578C296.102 117.378 296.035 117.162 295.968 116.928C295.902 116.695 295.868 116.444 295.868 116.178C295.868 115.911 295.852 115.544 295.818 115.077C295.785 114.61 295.768 114.16 295.768 113.726C295.768 113.292 295.768 112.675 295.768 111.875C295.768 111.074 295.768 110.291 295.768 109.523C295.768 108.823 295.768 107.939 295.768 106.872C295.735 103.903 295.651 102.236 295.518 101.869C295.485 101.835 295.468 101.802 295.468 101.769C295.001 100.568 294.167 99.6339 292.966 98.9669C291.766 98.2998 290.582 97.9662 289.414 97.9662C289.047 97.9662 288.814 97.9162 288.714 97.8161C288.614 97.7161 288.564 97.4493 288.564 97.0156C288.564 96.582 288.614 96.3152 288.714 96.2151C288.814 96.1151 289.047 96.0651 289.414 96.0651C290.548 96.0651 291.716 95.7315 292.916 95.0644C294.117 94.3973 294.968 93.4634 295.468 92.2627C295.635 91.8958 295.718 91.3621 295.718 90.6617C295.718 89.9612 295.735 87.4263 295.768 83.0569V80.5554C295.768 78.7209 295.868 77.4368 296.068 76.703C296.268 75.9692 296.752 75.2687 297.519 74.6017C298.386 73.7345 299.721 73.034 301.522 72.5004C302.756 72.2335 303.64 72.0834 304.173 72.0501C304.24 72.0501 304.457 72.0501 304.824 72.0501C305.191 72.0501 305.491 72.0334 305.724 72H306.725C306.925 72.2002 307.025 72.5004 307.025 72.9006C307.025 73.3342 306.975 73.601 306.875 73.7011C306.808 73.8012 306.542 73.8512 306.075 73.8512C304.307 73.9513 302.923 74.3515 301.922 75.0519C300.921 75.7524 300.321 76.4528 300.121 77.1533C299.954 77.5869 299.871 80.0551 299.871 84.5579V88.6604C299.871 90.2281 299.821 91.2954 299.721 91.8624C299.621 92.4295 299.337 93.0799 298.87 93.8136C297.836 95.2479 296.385 96.2318 294.517 96.7655L293.817 97.0156L294.517 97.2658C295.118 97.4659 295.718 97.7161 296.319 98.0163C296.919 98.3165 297.619 98.8835 298.42 99.7173C299.22 100.551 299.687 101.535 299.821 102.669C299.854 102.869 299.871 105.137 299.871 109.473C299.871 113.976 299.954 116.444 300.121 116.878C300.454 117.779 301.172 118.529 302.272 119.129C303.373 119.73 304.64 120.08 306.075 120.18C306.542 120.18 306.808 120.23 306.875 120.33C306.975 120.43 307.025 120.68 307.025 121.081Z" fill="#656AFF"/>
<path d="M312.929 95.0645C313.162 93.6636 314.063 92.0459 315.631 90.2115C317.198 88.377 319.133 87.4431 321.434 87.4097C322.602 87.4097 323.669 87.7099 324.636 88.3103C325.603 88.9107 326.321 89.6611 326.787 90.5617C328.188 88.4604 329.873 87.4097 331.841 87.4097C333.075 87.4097 334.142 87.7766 335.043 88.5104C335.943 89.2442 336.41 90.2281 336.444 91.4622C336.444 92.4295 336.21 93.2133 335.743 93.8137C335.276 94.4141 334.826 94.781 334.392 94.9144C333.959 95.0478 333.575 95.1145 333.242 95.1145C332.608 95.1145 332.091 94.9311 331.691 94.5642C331.29 94.1973 331.09 93.7136 331.09 93.1133C331.09 91.579 331.924 90.5283 333.592 89.9613C333.225 89.5277 332.558 89.3109 331.59 89.3109C331.157 89.3109 330.84 89.3443 330.64 89.411C329.372 89.9446 328.439 91.0453 327.838 92.713C325.837 100.084 324.836 104.387 324.836 105.621C324.836 106.555 325.103 107.222 325.637 107.622C326.17 108.023 326.754 108.223 327.388 108.223C328.622 108.223 329.839 107.672 331.04 106.572C332.241 105.471 333.058 104.12 333.492 102.519C333.592 102.186 333.692 102.002 333.792 101.969C333.892 101.935 334.159 101.902 334.592 101.869H334.792C335.293 101.869 335.543 102.002 335.543 102.269C335.543 102.302 335.51 102.486 335.443 102.819C334.909 104.721 333.875 106.405 332.341 107.872C330.807 109.34 329.022 110.074 326.988 110.074C324.653 110.074 322.885 109.023 321.684 106.922C320.317 108.99 318.749 110.024 316.981 110.024H316.681C315.047 110.024 313.879 109.59 313.179 108.723C312.479 107.856 312.112 106.939 312.078 105.971C312.078 104.904 312.395 104.037 313.029 103.37C313.663 102.703 314.413 102.369 315.28 102.369C316.715 102.369 317.432 103.069 317.432 104.47C317.432 105.137 317.232 105.721 316.831 106.221C316.431 106.722 316.047 107.055 315.681 107.222C315.314 107.389 315.097 107.472 315.03 107.472L314.88 107.522C314.88 107.556 314.98 107.622 315.18 107.722C315.38 107.822 315.647 107.939 315.981 108.073C316.314 108.206 316.631 108.256 316.931 108.223C318.132 108.223 319.166 107.472 320.033 105.971C320.333 105.438 320.717 104.304 321.184 102.569C321.651 100.835 322.118 99.0336 322.585 97.1658C323.052 95.298 323.319 94.1973 323.385 93.8637C323.552 92.9632 323.636 92.3128 323.636 91.9125C323.636 90.9786 323.385 90.3115 322.885 89.9113C322.385 89.511 321.818 89.3109 321.184 89.3109C319.85 89.3109 318.599 89.8446 317.432 90.9119C316.264 91.9792 315.447 93.3468 314.98 95.0145C314.913 95.3146 314.83 95.4814 314.73 95.5148C314.63 95.5481 314.363 95.5815 313.929 95.6148H313.229C313.029 95.4147 312.929 95.2313 312.929 95.0645Z" fill="#656AFF"/>
<path d="M393.497 72.9506C393.497 72.4837 393.547 72.2168 393.647 72.1501C393.747 72.0834 394.081 72.0334 394.648 72C397.416 72 399.551 72.417 401.052 73.2508C402.553 74.0847 403.603 75.0019 404.204 76.0025C404.504 76.703 404.671 77.2867 404.704 77.7536C404.738 78.2206 404.771 80.4553 404.804 84.4578C404.838 89.094 404.871 91.4955 404.904 91.6623C405.338 93.1632 406.205 94.2639 407.506 94.9644C408.807 95.6648 410.007 96.0317 411.108 96.0651C411.475 96.0651 411.709 96.1151 411.809 96.2151C411.909 96.3152 411.959 96.582 411.959 97.0156C411.959 97.4493 411.909 97.7161 411.809 97.8161C411.709 97.9162 411.475 97.9662 411.108 97.9662C409.874 97.9662 408.673 98.3165 407.506 99.0169C406.339 99.7173 405.555 100.601 405.154 101.669C404.988 102.136 404.888 102.736 404.854 103.47C404.821 104.203 404.804 106.688 404.804 110.924V113.476C404.804 115.31 404.704 116.595 404.504 117.328C404.304 118.062 403.82 118.763 403.053 119.43C401.252 121.164 398.467 122.031 394.698 122.031C394.098 122.031 393.747 121.981 393.647 121.881C393.547 121.781 393.497 121.498 393.497 121.031C393.497 120.831 393.497 120.714 393.497 120.68C393.497 120.647 393.514 120.564 393.547 120.43C393.581 120.297 393.631 120.23 393.697 120.23C393.764 120.23 393.897 120.213 394.098 120.18C394.565 120.18 395.082 120.13 395.649 120.03C396.216 119.93 396.849 119.763 397.55 119.53C398.25 119.296 398.867 118.913 399.401 118.379C399.935 117.845 400.335 117.212 400.602 116.478C400.635 116.311 400.668 113.943 400.702 109.373L400.752 102.569C401.185 100.668 402.353 99.1503 404.254 98.0163C405.421 97.4493 406.255 97.1157 406.755 97.0156C405.922 96.7822 405.088 96.4486 404.254 96.015C402.419 94.881 401.285 93.5135 400.852 91.9125L400.752 91.4122L400.702 84.6079C400.668 80.0384 400.635 77.6702 400.602 77.5035C400.201 76.1693 399.317 75.2354 397.95 74.7017C396.582 74.1681 395.298 73.8846 394.098 73.8512C393.797 73.8512 393.631 73.8012 393.597 73.7011C393.564 73.601 393.531 73.3509 393.497 72.9506Z" fill="#656AFF"/>
<path d="M342.452 107.653C342.452 107.653 342.452 107.236 342.452 106.403C342.452 105.569 342.719 104.853 343.252 104.253C343.785 103.653 344.502 103.353 345.402 103.353C346.336 103.353 347.169 103.769 347.902 104.603C348.636 105.436 349.019 106.903 349.053 109.003C349.053 110.17 348.903 111.303 348.603 112.403C348.302 113.503 347.952 114.453 347.552 115.253C347.152 116.054 346.719 116.737 346.252 117.304C345.786 117.87 345.386 118.32 345.052 118.654C344.719 118.987 344.502 119.137 344.402 119.104C344.269 119.104 344.052 118.954 343.752 118.654C343.452 118.354 343.302 118.137 343.302 118.004C343.302 117.87 343.485 117.604 343.852 117.204C344.219 116.804 344.636 116.304 345.102 115.703C345.569 115.103 346.002 114.27 346.402 113.203C346.802 112.137 347.069 110.92 347.202 109.553V108.953L347.152 109.003C347.086 109.036 347.002 109.07 346.902 109.103C346.802 109.136 346.702 109.186 346.602 109.253C346.502 109.32 346.352 109.353 346.152 109.353C345.952 109.353 345.752 109.37 345.552 109.403C344.652 109.403 343.919 109.12 343.352 108.553L342.452 107.653Z" fill="#656AFF"/>
<path d="M361.833 95.052C361.833 94.5853 362.084 93.7852 362.584 92.6518C363.084 91.5184 363.884 90.335 364.984 89.1015C366.084 87.8681 367.317 87.2681 368.684 87.3014C370.051 87.3014 371.151 87.6848 371.984 88.4515C372.818 89.2182 373.251 90.285 373.284 91.6517C373.218 92.2851 373.168 92.6351 373.134 92.7018C373.134 92.8018 372.868 93.5685 372.334 95.002C371.801 96.4354 371.251 98.0522 370.684 99.8523C370.117 101.652 369.851 103.086 369.884 104.153C369.884 105.586 370.117 106.586 370.584 107.153C371.051 107.72 371.751 108.02 372.684 108.053C373.451 108.053 374.168 107.87 374.834 107.503C375.501 107.136 376.018 106.753 376.385 106.353C376.751 105.953 377.201 105.403 377.735 104.703C377.735 104.669 377.818 104.336 377.985 103.703C378.151 103.069 378.385 102.086 378.685 100.752C378.985 99.419 379.301 98.1856 379.635 97.0521C380.902 92.0518 381.602 89.4349 381.735 89.2016C382.168 88.3015 382.885 87.8515 383.885 87.8515C384.318 87.8515 384.669 87.9681 384.935 88.2015C385.202 88.4348 385.385 88.6348 385.485 88.8015C385.585 88.9682 385.619 89.1182 385.585 89.2516C385.585 89.6849 384.769 93.1852 383.135 99.7523C381.502 106.319 380.568 109.92 380.335 110.553C379.401 113.32 377.785 115.52 375.485 117.154C373.184 118.787 370.884 119.62 368.584 119.654C367.084 119.654 365.767 119.287 364.634 118.554C363.5 117.82 362.934 116.72 362.934 115.253C362.934 114.52 363.05 113.903 363.284 113.403C363.517 112.903 363.834 112.537 364.234 112.303C364.634 112.07 364.967 111.903 365.234 111.803C365.5 111.703 365.784 111.653 366.084 111.653C367.551 111.653 368.284 112.353 368.284 113.753C368.284 114.42 368.084 115.003 367.684 115.504C367.284 116.004 366.901 116.337 366.534 116.504C366.167 116.67 365.95 116.754 365.884 116.754L365.734 116.804C365.8 116.97 366.117 117.17 366.684 117.404C367.251 117.637 367.817 117.754 368.384 117.754H368.784C369.351 117.754 369.784 117.72 370.084 117.654C371.184 117.354 372.201 116.72 373.134 115.754C374.068 114.787 374.784 113.753 375.284 112.653C375.785 111.553 376.168 110.62 376.435 109.853C376.701 109.086 376.835 108.586 376.835 108.353L376.535 108.553C376.335 108.686 376.018 108.87 375.585 109.103C375.151 109.336 374.718 109.536 374.284 109.703C373.618 109.87 372.968 109.953 372.334 109.953C370.801 109.953 369.451 109.586 368.284 108.853C367.117 108.12 366.35 106.936 365.984 105.303C365.95 105.069 365.934 104.553 365.934 103.753C365.934 101.852 366.517 99.369 367.684 96.3021C368.851 93.2352 369.434 91.285 369.434 90.4516C369.434 90.4183 369.434 90.385 369.434 90.3516C369.434 90.0516 369.434 89.8516 369.434 89.7516C369.434 89.6516 369.367 89.5349 369.234 89.4016C369.101 89.2682 368.917 89.2016 368.684 89.2016H368.484C367.717 89.2016 367.017 89.5182 366.384 90.1516C365.75 90.785 365.25 91.4684 364.884 92.2018C364.517 92.9352 364.234 93.6352 364.034 94.3019C363.834 94.9686 363.7 95.3353 363.634 95.402C363.567 95.4687 363.3 95.502 362.834 95.502H362.134C361.934 95.302 361.833 95.152 361.833 95.052Z" fill="#656AFF"/>
<path d="M205.5 278.552C205.5 278.085 205.75 277.285 206.25 276.152C206.75 275.018 207.55 273.835 208.65 272.601C209.75 271.368 210.984 270.768 212.351 270.801C213.717 270.801 214.817 271.185 215.651 271.951C216.484 272.718 216.918 273.785 216.951 275.152C216.884 275.785 216.834 276.135 216.801 276.202C216.801 276.302 216.534 277.068 216.001 278.502C215.467 279.935 214.917 281.552 214.351 283.352C213.784 285.152 213.517 286.586 213.551 287.653C213.551 289.086 213.784 290.086 214.251 290.653C214.717 291.219 215.417 291.519 216.351 291.553C217.118 291.553 217.834 291.369 218.501 291.003C219.168 290.636 219.684 290.253 220.051 289.853C220.418 289.453 220.868 288.903 221.401 288.203C221.401 288.169 221.485 287.836 221.651 287.203C221.818 286.569 222.051 285.586 222.351 284.252C222.651 282.919 222.968 281.685 223.301 280.552C224.568 275.552 225.268 272.935 225.401 272.701C225.835 271.801 226.552 271.351 227.552 271.351C227.985 271.351 228.335 271.468 228.602 271.701C228.868 271.935 229.052 272.135 229.152 272.301C229.252 272.468 229.285 272.618 229.252 272.751C229.252 273.185 228.435 276.685 226.802 283.252C225.168 289.819 224.235 293.42 224.001 294.053C223.068 296.82 221.451 299.02 219.151 300.654C216.851 302.287 214.551 303.12 212.25 303.154C210.75 303.154 209.434 302.787 208.3 302.054C207.167 301.32 206.6 300.22 206.6 298.753C206.6 298.02 206.717 297.403 206.95 296.903C207.183 296.403 207.5 296.036 207.9 295.803C208.3 295.57 208.634 295.403 208.9 295.303C209.167 295.203 209.45 295.153 209.75 295.153C211.217 295.153 211.95 295.853 211.95 297.253C211.95 297.92 211.75 298.503 211.35 299.003C210.95 299.503 210.567 299.837 210.2 300.003C209.834 300.17 209.617 300.253 209.55 300.253L209.4 300.303C209.467 300.47 209.784 300.67 210.35 300.904C210.917 301.137 211.484 301.254 212.05 301.254H212.451C213.017 301.254 213.451 301.22 213.751 301.154C214.851 300.854 215.867 300.22 216.801 299.253C217.734 298.287 218.451 297.253 218.951 296.153C219.451 295.053 219.834 294.12 220.101 293.353C220.368 292.586 220.501 292.086 220.501 291.853L220.201 292.053C220.001 292.186 219.684 292.37 219.251 292.603C218.818 292.836 218.384 293.036 217.951 293.203C217.284 293.37 216.634 293.453 216.001 293.453C214.467 293.453 213.117 293.086 211.95 292.353C210.784 291.619 210.017 290.436 209.65 288.803C209.617 288.569 209.6 288.053 209.6 287.253C209.6 285.352 210.184 282.869 211.35 279.802C212.517 276.735 213.101 274.785 213.101 273.952C213.101 273.918 213.101 273.885 213.101 273.852C213.101 273.551 213.101 273.351 213.101 273.251C213.101 273.151 213.034 273.035 212.901 272.901C212.767 272.768 212.584 272.701 212.351 272.701H212.15C211.384 272.701 210.684 273.018 210.05 273.652C209.417 274.285 208.917 274.968 208.55 275.702C208.184 276.435 207.9 277.135 207.7 277.802C207.5 278.469 207.367 278.835 207.3 278.902C207.233 278.969 206.967 279.002 206.5 279.002H205.8C205.6 278.802 205.5 278.652 205.5 278.552Z" fill="#0C0824"/>
</svg>
