<svg width="600" height="501" viewBox="0 0 600 501" fill="none" xmlns="http://www.w3.org/2000/svg">
<path opacity="0.5" d="M325.315 156.018L106 116.101L255.435 353.473L474.75 393.39L325.315 156.018Z" fill="#656AFF"/>
<path d="M114.644 274.367L138.131 265.973L133.657 290.51L114.644 274.367ZM493.822 343.498L470.335 351.892L474.809 327.355L493.822 343.498ZM133.769 277.854L134.156 275.729L475.084 337.886L474.697 340.011L474.31 342.136L133.381 279.979L133.769 277.854Z" fill="#656AFF"/>
<path d="M379.406 441.921L357.328 430.318L378.416 416.999L379.406 441.921ZM137.19 58.4168L159.269 70.02L138.181 83.3387L137.19 58.4168ZM369.026 425.485L367.199 426.638L145.745 76.0065L147.571 74.8531L149.398 73.6996L370.852 424.331L369.026 425.485Z" fill="#656AFF"/>
<path d="M305.074 303.442C307.068 309.483 303.787 315.998 297.746 317.992C291.704 319.986 285.19 316.705 283.195 310.664C281.201 304.622 284.482 298.107 290.524 296.113C296.566 294.119 303.08 297.4 305.074 303.442ZM190.61 145.761C190.873 144.597 192.03 143.868 193.194 144.131L212.153 148.426C213.317 148.689 214.046 149.846 213.783 151.01C213.519 152.173 212.362 152.903 211.199 152.639L194.346 148.822L190.529 165.675C190.265 166.838 189.108 167.568 187.945 167.304C186.781 167.041 186.052 165.884 186.315 164.721L190.61 145.761ZM294.135 307.053L292.308 308.205L190.889 147.39L192.716 146.238L194.543 145.086L295.962 305.9L294.135 307.053Z" fill="#00001D"/>
<path d="M283.316 311.008C281.322 304.967 284.603 298.452 290.644 296.458C296.686 294.464 303.201 297.745 305.195 303.787C307.189 309.828 303.908 316.343 297.866 318.337C291.825 320.331 285.31 317.05 283.316 311.008ZM414.592 327.689C415.271 328.67 415.027 330.015 414.046 330.695L398.066 341.765C397.085 342.444 395.74 342.2 395.06 341.219C394.381 340.239 394.625 338.893 395.606 338.214L409.811 328.374L399.971 314.169C399.291 313.188 399.536 311.843 400.516 311.163C401.497 310.484 402.843 310.728 403.522 311.709L414.592 327.689ZM294.255 307.397L294.641 305.272L413.202 326.794L412.816 328.919L412.43 331.044L293.87 309.523L294.255 307.397Z" fill="#00001D"/>
<path d="M275.451 89.0868C275.451 87.9675 275.074 87.0021 274.318 86.1906C273.562 85.3791 272.471 84.9733 271.044 84.9733C270.037 84.9733 269.169 85.1552 268.442 85.519C267.602 86.0507 267.182 86.7782 267.182 87.7016C267.154 87.8415 267.154 88.0234 267.182 88.2473C267.21 88.4712 267.434 88.8069 267.854 89.2547C268.274 89.7024 268.875 90.0522 269.659 90.304C270.163 90.4439 270.778 90.5699 271.506 90.6818C272.233 90.7937 272.849 90.9196 273.353 91.0595C273.856 91.1995 274.304 91.3813 274.696 91.6052C275.171 91.8291 275.633 92.1089 276.081 92.4447C276.529 92.7805 276.976 93.3541 277.424 94.1656C277.872 94.9771 278.11 95.8446 278.138 96.768C278.138 98.5029 277.606 99.93 276.543 101.049C275.479 102.169 273.758 102.742 271.38 102.77H271.044C269.589 102.77 268.246 102.267 267.015 101.259L266.679 101.553L266.301 101.931C266.133 102.099 265.965 102.253 265.797 102.393L265.336 102.812H265H264.832C264.748 102.812 264.622 102.728 264.454 102.56V99.2445V96.81C264.454 96.2223 264.482 95.8726 264.538 95.7606C264.594 95.6487 264.734 95.5787 264.958 95.5508H265.336C265.671 95.5508 265.895 95.6067 266.007 95.7187C266.119 95.8306 266.189 95.9985 266.217 96.2223C266.245 96.4462 266.343 96.824 266.511 97.3556C266.679 97.8873 266.945 98.4749 267.308 99.1185C268.288 100.546 269.645 101.259 271.38 101.259C274.094 101.259 275.451 100.168 275.451 97.9853C275.451 97.1738 275.199 96.5162 274.696 96.0125C274.136 95.3409 272.975 94.8372 271.212 94.5014C269.449 94.1656 268.288 93.8438 267.728 93.536C266.721 93.0603 265.923 92.4167 265.336 91.6052C264.748 90.7937 264.454 89.9263 264.454 89.0028C264.454 87.9115 264.692 86.9881 265.168 86.2325C265.643 85.477 266.245 84.9174 266.973 84.5536C267.7 84.1898 268.4 83.938 269.071 83.7981C269.743 83.6581 270.358 83.5882 270.918 83.5882H271.38C272.499 83.5882 273.479 83.7981 274.318 84.2178L274.948 84.5536L275.325 84.2598C275.605 84.0079 275.913 83.7701 276.249 83.5462H276.585H276.752C276.836 83.5462 276.962 83.6302 277.13 83.7981V89.3386L276.878 89.5905H275.703C275.535 89.4226 275.451 89.2547 275.451 89.0868Z" fill="#656AFF"/>
<path d="M281.118 108.563H281.706C282.797 108.563 283.454 108.367 283.678 107.975V107.639C283.678 107.444 283.678 107.178 283.678 106.842C283.678 106.506 283.678 106.086 283.678 105.583C283.678 105.079 283.692 104.533 283.72 103.946C283.748 103.358 283.748 102.742 283.72 102.099C283.692 101.455 283.692 100.77 283.72 100.042C283.748 99.3146 283.748 98.601 283.72 97.9015C283.72 96.9501 283.72 95.9567 283.72 94.9213C283.72 93.886 283.72 92.9625 283.72 92.151C283.72 91.3395 283.72 90.598 283.72 89.9264C283.72 89.2548 283.706 88.7092 283.678 88.2894C283.65 87.8697 283.65 87.6458 283.678 87.6178C283.594 87.0862 283.398 86.7364 283.091 86.5685C282.783 86.4006 282.153 86.2747 281.202 86.1907H280.446V85.2253C280.446 84.5817 280.474 84.2599 280.53 84.2599L280.95 84.218C281.23 84.19 281.636 84.162 282.167 84.134C282.699 84.106 283.217 84.078 283.72 84.0501C284.196 84.0221 284.714 83.9941 285.273 83.9661C285.833 83.9381 286.253 83.8962 286.533 83.8402C286.812 83.7842 286.966 83.7702 286.994 83.7982H287.12V84.8895L287.162 85.9809L287.498 85.687C289.149 84.4558 291.08 83.8402 293.29 83.8402C295.557 83.8402 297.488 84.7356 299.083 86.5265C300.678 88.3174 301.489 90.57 301.517 93.2843C301.517 96.1106 300.608 98.4052 298.789 100.168C296.97 101.931 294.913 102.812 292.619 102.812C290.716 102.812 289.037 102.197 287.582 100.966L287.246 100.672V104.24V106.59C287.246 107.346 287.274 107.807 287.33 107.975C287.386 108.143 287.54 108.297 287.792 108.437C288.379 108.521 289.065 108.563 289.848 108.563H290.52V110.494H290.184L289.177 110.452C288.533 110.424 287.834 110.41 287.078 110.41C286.323 110.41 285.791 110.396 285.483 110.368C282.601 110.368 281.034 110.41 280.782 110.494H280.446V108.563H281.118ZM297.404 93.2004C297.404 91.1297 296.928 89.3248 295.977 87.7857C295.025 86.2467 293.836 85.4772 292.409 85.4772C290.422 85.4772 288.701 86.3866 287.246 88.2055V98.2373C288.365 100.252 289.932 101.259 291.947 101.259C293.374 101.259 294.633 100.504 295.725 98.9928C296.816 97.4817 297.376 95.5509 297.404 93.2004Z" fill="#656AFF"/>
<path d="M308.694 89.5485C308.694 89.5485 308.387 89.5485 307.771 89.5485C307.155 89.5485 306.638 89.3386 306.218 88.9189C305.798 88.4991 305.588 87.9535 305.588 87.2819C305.588 86.3025 306.064 85.435 307.015 84.6795C307.967 83.924 309.66 83.5462 312.094 83.5462C314.137 83.5462 315.788 83.9939 317.047 84.8894C318.306 85.7848 319.146 86.8482 319.566 88.0794C319.706 88.4712 319.776 88.9049 319.776 89.3806C319.776 89.8563 319.79 91.4653 319.818 94.2076V97.1458C319.818 98.4889 319.887 99.4124 320.027 99.9161C320.167 100.42 320.461 100.672 320.909 100.672C321.329 100.672 321.608 100.448 321.748 100C321.888 99.5523 321.958 98.8107 321.958 97.7754V96.2643H323.637V97.9013C323.609 99.0206 323.567 99.6782 323.511 99.8741C323.259 100.714 322.77 101.371 322.042 101.847C321.315 102.323 320.545 102.574 319.734 102.602C318.922 102.63 318.264 102.379 317.761 101.847C317.257 101.315 316.921 100.728 316.753 100.084V99.9161L316.669 100.042C316.613 100.126 316.544 100.21 316.46 100.294C316.376 100.378 316.264 100.504 316.124 100.672C315.984 100.839 315.816 100.993 315.62 101.133C315.424 101.273 315.214 101.441 314.991 101.637C314.767 101.833 314.515 101.987 314.235 102.099C313.955 102.211 313.647 102.323 313.312 102.434C312.976 102.546 312.612 102.63 312.22 102.686C311.828 102.742 311.395 102.784 310.919 102.812C309.24 102.812 307.729 102.379 306.386 101.511C305.043 100.644 304.371 99.4264 304.371 97.8593C304.371 97.2717 304.469 96.712 304.665 96.1804C304.861 95.6487 305.239 95.0751 305.798 94.4594C306.358 93.8438 307.029 93.3261 307.813 92.9064C308.596 92.4867 309.688 92.0949 311.087 91.7311C312.486 91.3674 314.025 91.1575 315.704 91.1015H316.292V90.1781C316.292 89.2267 316.208 88.5271 316.04 88.0794C315.424 86.0926 314.067 85.0992 311.968 85.0992C311.465 85.0992 310.989 85.1132 310.541 85.1412C310.094 85.1692 309.744 85.2252 309.492 85.3091C309.24 85.3931 309.128 85.435 309.156 85.435C309.772 85.8548 310.08 86.4704 310.08 87.2819C310.08 87.9815 309.856 88.5271 309.408 88.9189L308.694 89.5485ZM308.233 97.9013C308.233 98.7688 308.568 99.5383 309.24 100.21C309.912 100.881 310.737 101.231 311.717 101.259C312.78 101.259 313.717 100.937 314.529 100.294C315.34 99.6502 315.886 98.8107 316.166 97.7754C316.222 97.5795 316.264 96.6561 316.292 95.0051C316.292 93.3821 316.278 92.5706 316.25 92.5706C316.026 92.5706 315.732 92.5846 315.368 92.6126C315.004 92.6406 314.375 92.7665 313.479 92.9904C312.584 93.2142 311.773 93.494 311.045 93.8298C310.317 94.1656 309.674 94.6833 309.114 95.3829C308.554 96.0824 308.261 96.9219 308.233 97.9013Z" fill="#656AFF"/>
<path d="M325.652 100.42H326.24C327.331 100.42 327.989 100.224 328.212 99.8321V99.4964C328.212 99.2445 328.212 98.9227 328.212 98.531C328.212 98.1392 328.212 97.7055 328.212 97.2298C328.212 96.7541 328.226 96.2084 328.254 95.5928C328.282 94.9772 328.282 94.3895 328.254 93.8299C328.254 92.9624 328.254 92.039 328.254 91.0596C328.254 90.0802 328.24 89.2547 328.212 88.5831V87.6177C328.129 87.0861 327.933 86.7363 327.625 86.5684C327.317 86.4005 326.687 86.2746 325.736 86.1906H324.98V85.2252C324.98 84.5816 325.008 84.2598 325.064 84.2598L325.484 84.2178C325.764 84.1899 326.156 84.1619 326.659 84.1339C327.163 84.1059 327.681 84.0779 328.212 84.0499C328.688 84.022 329.192 83.994 329.724 83.966C330.255 83.938 330.661 83.896 330.941 83.8401C331.221 83.7841 331.375 83.7701 331.402 83.7981H331.528V85.4771C331.528 86.5404 331.542 87.0721 331.57 87.0721C331.598 87.0721 331.668 87.0021 331.78 86.8622C331.892 86.7223 332.06 86.5124 332.284 86.2326C332.508 85.9528 332.774 85.7009 333.081 85.4771C333.389 85.2532 333.795 84.9874 334.299 84.6796C334.802 84.3717 335.334 84.1479 335.894 84.008C336.453 83.8681 337.167 83.7981 338.034 83.7981C341.224 83.91 343.001 85.491 343.365 88.5412C343.393 88.737 343.407 90.6818 343.407 94.3755V97.9853C343.407 99.0486 343.435 99.6782 343.491 99.8741C343.547 100.07 343.701 100.21 343.953 100.294C344.54 100.378 345.226 100.42 346.009 100.42H346.681V102.351H346.345L345.338 102.309C344.694 102.281 343.995 102.267 343.239 102.267C342.484 102.267 341.952 102.253 341.644 102.225C338.762 102.225 337.195 102.267 336.943 102.351H336.607V100.42H337.279C338.986 100.42 339.839 100.196 339.839 99.7482C339.867 99.6922 339.881 97.7614 339.881 93.9558C339.853 90.1781 339.825 88.1774 339.797 87.9535C339.629 87.17 339.35 86.5824 338.958 86.1906C338.566 85.7989 338.23 85.561 337.95 85.4771C337.671 85.3931 337.307 85.3651 336.859 85.3931C335.6 85.3931 334.495 85.8688 333.543 86.8202C332.788 87.5758 332.312 88.3453 332.116 89.1288C331.92 89.9123 331.808 91.0736 331.78 92.6126V95.299V97.8174C331.78 98.6569 331.794 99.2165 331.822 99.4964C331.85 99.7762 331.892 99.9581 331.948 100.042C332.004 100.126 332.13 100.21 332.326 100.294C332.914 100.378 333.599 100.42 334.383 100.42H335.054V102.351H334.718L333.753 102.309C333.081 102.281 332.368 102.267 331.612 102.267C330.857 102.267 330.325 102.253 330.017 102.225C327.135 102.225 325.568 102.267 325.316 102.351H324.98V100.42H325.652Z" fill="#656AFF"/>
<path d="M365.484 112.046C365.484 112.41 365.401 112.676 365.233 112.844H364.477C360.867 112.844 358.349 111.921 356.922 110.074C356.782 109.878 356.67 109.71 356.586 109.57C356.502 109.43 356.432 109.276 356.376 109.108C356.32 108.94 356.264 108.759 356.208 108.563C356.152 108.367 356.124 108.157 356.124 107.933C356.124 107.709 356.11 107.401 356.082 107.01C356.054 106.618 356.04 106.24 356.04 105.876C356.04 105.513 356.04 104.995 356.04 104.323C356.04 103.652 356.04 102.994 356.04 102.351C356.04 101.763 356.04 101.021 356.04 100.126C356.012 97.6354 355.942 96.2363 355.83 95.9285C355.802 95.9005 355.788 95.8725 355.788 95.8445C355.397 94.8372 354.697 94.0537 353.69 93.494C352.682 92.9343 351.689 92.6545 350.71 92.6545C350.402 92.6545 350.206 92.6125 350.122 92.5286C350.038 92.4447 349.996 92.2208 349.996 91.857C349.996 91.4932 350.038 91.2694 350.122 91.1854C350.206 91.1015 350.402 91.0595 350.71 91.0595C351.661 91.0595 352.64 90.7797 353.648 90.22C354.655 89.6604 355.369 88.8769 355.788 87.8695C355.928 87.5617 355.998 87.114 355.998 86.5263C355.998 85.9387 356.012 83.812 356.04 80.1463V78.0476C356.04 76.5085 356.124 75.4312 356.292 74.8156C356.46 74.2 356.866 73.6123 357.509 73.0527C358.237 72.3251 359.356 71.7375 360.867 71.2898C361.903 71.0659 362.644 70.94 363.092 70.912C363.148 70.912 363.33 70.912 363.638 70.912C363.945 70.912 364.197 70.898 364.393 70.87H365.233C365.401 71.0379 365.484 71.2898 365.484 71.6256C365.484 71.9893 365.443 72.2132 365.359 72.2972C365.303 72.3811 365.079 72.4231 364.687 72.4231C363.204 72.507 362.043 72.8428 361.203 73.4304C360.364 74.0181 359.86 74.6057 359.692 75.1934C359.552 75.5571 359.482 77.6278 359.482 81.4055V84.8474C359.482 86.1625 359.44 87.058 359.356 87.5337C359.272 88.0094 359.034 88.5551 358.643 89.1707C357.775 90.3739 356.558 91.1994 354.991 91.6471L354.403 91.857L354.991 92.0669C355.495 92.2348 355.998 92.4447 356.502 92.6965C357.006 92.9483 357.593 93.424 358.265 94.1236C358.937 94.8232 359.328 95.6487 359.44 96.6001C359.468 96.768 359.482 98.6708 359.482 102.309C359.482 106.086 359.552 108.157 359.692 108.521C359.972 109.276 360.574 109.906 361.497 110.41C362.42 110.913 363.484 111.207 364.687 111.291C365.079 111.291 365.303 111.333 365.359 111.417C365.443 111.501 365.484 111.711 365.484 112.046Z" fill="#656AFF"/>
<path d="M375.832 86.4004C375.832 85.7009 375.566 85.3511 375.035 85.3511C374.363 85.3511 373.664 85.7568 372.936 86.5683C372.208 87.3798 371.607 88.6251 371.131 90.304C371.103 90.332 371.075 90.374 371.047 90.4299C371.019 90.4859 371.005 90.5279 371.005 90.5559C371.005 90.5838 370.977 90.6118 370.921 90.6398C370.865 90.6678 370.823 90.6818 370.795 90.6818C370.767 90.6818 370.711 90.6818 370.627 90.6818C370.543 90.6818 370.432 90.6818 370.292 90.6818H369.704C369.536 90.5139 369.452 90.388 369.452 90.304C369.452 90.1081 369.564 89.7024 369.788 89.0868C370.012 88.4712 370.348 87.7436 370.795 86.9041C371.243 86.0646 371.859 85.3511 372.642 84.7635C373.426 84.1758 374.307 83.868 375.287 83.84C376.462 83.84 377.371 84.1758 378.015 84.8474C378.658 85.519 378.994 86.3025 379.022 87.1979C379.022 87.6736 378.98 88.0374 378.896 88.2893C378.896 88.4572 378.686 89.0728 378.267 90.1361C377.847 91.1995 377.413 92.4447 376.965 93.8718C376.518 95.2989 376.266 96.5441 376.21 97.6075C376.21 98.363 376.28 98.9786 376.42 99.4543C376.784 100.658 377.665 101.259 379.064 101.259C380.1 101.259 381.065 100.784 381.96 99.8321C382.856 98.8807 383.555 97.7754 384.059 96.5162C384.563 95.2569 384.969 94.0957 385.276 93.0323C385.584 91.969 385.738 91.1995 385.738 90.7238C385.738 90.0802 385.626 89.5205 385.402 89.0448C385.178 88.5691 384.927 88.2053 384.647 87.9535C384.367 87.7016 384.115 87.4498 383.891 87.1979C383.667 86.9461 383.555 86.6383 383.555 86.2745C383.555 85.6589 383.821 85.0853 384.353 84.5536C384.885 84.0219 385.458 83.7561 386.074 83.7561C386.606 83.7561 387.081 84.0079 387.501 84.5116C387.921 85.0153 388.145 85.8268 388.173 86.9461C388.173 87.7016 388.005 88.8629 387.669 90.4299C387.333 91.997 386.815 93.7459 386.116 95.6767C385.416 97.6075 384.423 99.2725 383.136 100.672C381.848 102.071 380.365 102.784 378.686 102.812C376.896 102.812 375.468 102.351 374.405 101.427C373.37 100.532 372.852 99.2025 372.852 97.4396C372.852 96.5721 372.964 95.6767 373.188 94.7533C373.412 93.8298 373.985 92.1928 374.909 89.8423C375.524 88.0514 375.832 86.9041 375.832 86.4004Z" fill="#656AFF"/>
<path d="M385.247 73.7664C385.247 73.5426 385.317 73.3467 385.456 73.1788C385.596 73.0109 385.806 72.927 386.086 72.927C386.282 72.927 386.45 72.9969 386.59 73.1368C386.73 73.2488 386.87 73.5146 387.009 73.9343C387.289 74.9697 387.863 75.7672 388.73 76.3268C389.038 76.5227 389.192 76.7746 389.192 77.0824C389.192 77.3342 389.15 77.5021 389.066 77.5861C388.982 77.67 388.786 77.7959 388.479 77.9638C387.275 78.5794 386.226 79.4609 385.331 80.6082C385.275 80.6641 385.205 80.7481 385.121 80.86C385.037 80.972 384.967 81.0559 384.911 81.1119C384.855 81.1678 384.785 81.1958 384.701 81.1958C384.617 81.1958 384.519 81.2098 384.407 81.2378C384.211 81.2378 384.029 81.1678 383.861 81.0279C383.694 80.888 383.596 80.6781 383.568 80.3983C383.568 79.8666 384.225 79.0412 385.54 77.9219H378.363L371.185 77.8799C370.822 77.628 370.64 77.3622 370.64 77.0824C370.64 76.8865 370.822 76.6067 371.185 76.2429H386.254C385.582 75.1796 385.247 74.3541 385.247 73.7664Z" fill="#656AFF"/>
<path d="M393.684 100.882C393.684 100.882 393.684 100.532 393.684 99.8324C393.684 99.1328 393.907 98.5312 394.355 98.0275C394.803 97.5238 395.405 97.2719 396.16 97.2719C396.944 97.2719 397.643 97.6217 398.259 98.3213C398.874 99.0209 399.196 100.252 399.224 102.015C399.224 102.994 399.098 103.946 398.846 104.869C398.595 105.793 398.301 106.59 397.965 107.262C397.629 107.933 397.265 108.507 396.874 108.983C396.482 109.458 396.146 109.836 395.866 110.116C395.586 110.396 395.405 110.522 395.321 110.494C395.209 110.494 395.027 110.368 394.775 110.116C394.523 109.864 394.397 109.682 394.397 109.57C394.397 109.458 394.551 109.235 394.859 108.899C395.167 108.563 395.516 108.143 395.908 107.64C396.3 107.136 396.664 106.436 397 105.541C397.335 104.645 397.559 103.624 397.671 102.477V101.973L397.629 102.015C397.573 102.043 397.503 102.071 397.419 102.099C397.335 102.127 397.251 102.169 397.167 102.225C397.083 102.281 396.958 102.309 396.79 102.309C396.622 102.309 396.454 102.323 396.286 102.351C395.53 102.351 394.915 102.113 394.439 101.637L393.684 100.882Z" fill="#656AFF"/>
<path d="M424.373 88.1636C424.093 88.1636 423.352 88.0097 422.149 87.7019C420.945 87.3941 420.064 87.2402 419.504 87.2402C418.945 87.2402 418.469 87.2961 418.077 87.4081C417.685 87.52 417.364 87.6599 417.112 87.8278C416.86 87.9957 416.692 88.1496 416.608 88.2895C416.524 88.4294 416.426 88.5833 416.314 88.7512L416.23 88.9191C416.146 89.0031 415.936 89.045 415.601 89.045C415.013 89.045 414.719 88.9331 414.719 88.7093C414.719 88.5693 414.761 88.3735 414.845 88.1216C415.209 87.0303 415.811 86.0929 416.65 85.3094C417.489 84.5258 418.413 84.0501 419.42 83.8822C419.756 83.8263 419.994 83.7983 420.134 83.7983C420.833 83.7983 421.463 84.0362 422.023 84.5119C422.582 84.9876 423.114 85.4493 423.618 85.897C424.121 86.3447 424.653 86.5826 425.213 86.6106C425.828 86.6106 426.444 86.1488 427.06 85.2254C427.675 84.302 427.997 83.8403 428.025 83.8403C428.053 83.8123 428.263 83.7983 428.655 83.7983H429.2C429.368 83.9662 429.452 84.0781 429.452 84.1341C429.452 84.246 429.382 84.4419 429.242 84.7217C429.102 85.0016 428.906 85.2954 428.655 85.6032C428.403 85.911 428.165 86.2188 427.941 86.5266C427.717 86.8344 427.521 87.1002 427.353 87.3241L427.06 87.7019C425.856 89.129 423.953 91.0178 421.351 93.3684C418.749 95.7189 417.14 97.23 416.524 97.9015L416.02 98.4052L416.65 98.4472C417.266 98.4472 418.161 98.6011 419.336 98.9089C420.512 99.2167 421.393 99.3706 421.981 99.3706C423.044 99.3706 424.023 99.1048 424.919 98.5731C425.814 98.0415 426.402 97.3419 426.682 96.4744C426.794 96.2226 426.892 96.0687 426.976 96.0127C427.06 95.9568 427.269 95.9288 427.605 95.9288C428.137 95.9288 428.403 96.0687 428.403 96.3485C428.403 96.4884 428.389 96.6143 428.361 96.7263C427.885 98.4612 426.962 99.9023 425.59 101.05C424.219 102.197 422.848 102.785 421.477 102.812C420.749 102.812 420.106 102.575 419.546 102.099C418.987 101.623 418.441 101.148 417.909 100.672C417.378 100.196 416.846 99.9583 416.314 99.9583C415.083 99.9583 413.978 100.798 412.998 102.477C412.83 102.701 412.593 102.812 412.285 102.812H412.075H411.529C411.361 102.645 411.277 102.519 411.277 102.435C411.277 102.015 412.089 100.812 413.712 98.825C414.803 97.5658 416.65 95.7469 419.252 93.3684C421.855 90.9898 423.464 89.4788 424.079 88.8352C424.415 88.3875 424.513 88.1636 424.373 88.1636Z" fill="#656AFF"/>
<path d="M427.233 73.8082C427.233 73.5843 427.303 73.3884 427.443 73.2205C427.583 73.0526 427.793 72.9687 428.073 72.9687C428.269 72.9687 428.437 73.0387 428.577 73.1786C428.716 73.2905 428.856 73.5563 428.996 73.9761C429.276 75.0114 429.85 75.8089 430.717 76.3686C431.025 76.5645 431.179 76.8163 431.179 77.1241C431.179 77.376 431.137 77.5439 431.053 77.6278C430.969 77.7118 430.773 77.8377 430.465 78.0056C429.262 78.6212 428.213 79.5026 427.317 80.6499C427.261 80.7059 427.191 80.7898 427.107 80.9018C427.024 81.0137 426.954 81.0977 426.898 81.1536C426.842 81.2096 426.772 81.2376 426.688 81.2376C426.604 81.2376 426.506 81.2516 426.394 81.2795C426.198 81.2795 426.016 81.2096 425.848 81.0697C425.68 80.9298 425.582 80.7199 425.554 80.4401C425.554 79.9084 426.212 79.0829 427.527 77.9636H420.35L413.172 77.9216C412.808 77.6698 412.626 77.4039 412.626 77.1241C412.626 76.9282 412.808 76.6484 413.172 76.2846H428.241C427.569 75.2213 427.233 74.3958 427.233 73.8082Z" fill="#656AFF"/>
<path d="M435.124 71.6675C435.124 71.2758 435.166 71.0519 435.25 70.996C435.334 70.94 435.614 70.898 436.089 70.87C438.412 70.87 440.203 71.2198 441.462 71.9194C442.721 72.619 443.603 73.3885 444.106 74.228C444.358 74.8156 444.498 75.3053 444.526 75.697C444.554 76.0888 444.582 77.9636 444.61 81.3216C444.638 85.2111 444.666 87.2259 444.694 87.3658C445.058 88.625 445.785 89.5484 446.877 90.1361C447.968 90.7237 448.975 91.0315 449.899 91.0595C450.207 91.0595 450.403 91.1015 450.486 91.1854C450.57 91.2694 450.612 91.4932 450.612 91.857C450.612 92.2208 450.57 92.4447 450.486 92.5286C450.403 92.6125 450.207 92.6545 449.899 92.6545C448.863 92.6545 447.856 92.9483 446.877 93.536C445.897 94.1236 445.24 94.8651 444.904 95.7606C444.764 96.1524 444.68 96.656 444.652 97.2717C444.624 97.8873 444.61 99.972 444.61 103.526V105.666C444.61 107.205 444.526 108.283 444.358 108.898C444.19 109.514 443.785 110.102 443.141 110.661C441.63 112.116 439.293 112.844 436.131 112.844C435.628 112.844 435.334 112.802 435.25 112.718C435.166 112.634 435.124 112.396 435.124 112.005C435.124 111.837 435.124 111.739 435.124 111.711C435.124 111.683 435.138 111.613 435.166 111.501C435.194 111.389 435.236 111.333 435.292 111.333C435.348 111.333 435.46 111.319 435.628 111.291C436.019 111.291 436.453 111.249 436.929 111.165C437.405 111.081 437.936 110.941 438.524 110.745C439.112 110.549 439.629 110.228 440.077 109.78C440.525 109.332 440.86 108.801 441.084 108.185C441.112 108.045 441.14 106.058 441.168 102.225L441.21 96.5161C441.574 94.9211 442.553 93.6479 444.148 92.6965C445.128 92.2208 445.827 91.941 446.247 91.857C445.548 91.6611 444.848 91.3813 444.148 91.0175C442.609 90.0661 441.658 88.9188 441.294 87.5757L441.21 87.1559L441.168 81.4475C441.14 77.6139 441.112 75.6271 441.084 75.4872C440.749 74.3679 440.007 73.5844 438.86 73.1366C437.712 72.6889 436.635 72.4511 435.628 72.4231C435.376 72.4231 435.236 72.3811 435.208 72.2972C435.18 72.2132 435.152 72.0033 435.124 71.6675Z" fill="#656AFF"/>
<path d="M352.55 280.065C352.27 280.065 351.529 279.911 350.325 279.603C349.122 279.295 348.241 279.142 347.681 279.142C347.121 279.142 346.646 279.197 346.254 279.309C345.862 279.421 345.54 279.561 345.288 279.729C345.037 279.897 344.869 280.051 344.785 280.191C344.701 280.331 344.603 280.485 344.491 280.653L344.407 280.82C344.323 280.904 344.113 280.946 343.777 280.946C343.19 280.946 342.896 280.834 342.896 280.611C342.896 280.471 342.938 280.275 343.022 280.023C343.386 278.932 343.987 277.994 344.827 277.211C345.666 276.427 346.59 275.952 347.597 275.784C347.933 275.728 348.171 275.7 348.311 275.7C349.01 275.7 349.64 275.938 350.199 276.413C350.759 276.889 351.291 277.351 351.794 277.798C352.298 278.246 352.83 278.484 353.389 278.512C354.005 278.512 354.621 278.05 355.236 277.127C355.852 276.203 356.174 275.742 356.202 275.742C356.23 275.714 356.44 275.7 356.831 275.7H357.377C357.545 275.868 357.629 275.979 357.629 276.035C357.629 276.147 357.559 276.343 357.419 276.623C357.279 276.903 357.083 277.197 356.831 277.505C356.579 277.812 356.342 278.12 356.118 278.428C355.894 278.736 355.698 279.002 355.53 279.225L355.236 279.603C354.033 281.03 352.13 282.919 349.528 285.27C346.925 287.62 345.316 289.131 344.701 289.803L344.197 290.307L344.827 290.349C345.442 290.349 346.338 290.502 347.513 290.81C348.688 291.118 349.57 291.272 350.157 291.272C351.221 291.272 352.2 291.006 353.096 290.474C353.991 289.943 354.579 289.243 354.859 288.376C354.97 288.124 355.068 287.97 355.152 287.914C355.236 287.858 355.446 287.83 355.782 287.83C356.314 287.83 356.579 287.97 356.579 288.25C356.579 288.39 356.565 288.516 356.538 288.628C356.062 290.363 355.138 291.804 353.767 292.951C352.396 294.098 351.025 294.686 349.654 294.714C348.926 294.714 348.283 294.476 347.723 294C347.163 293.525 346.618 293.049 346.086 292.573C345.554 292.097 345.023 291.86 344.491 291.86C343.26 291.86 342.154 292.699 341.175 294.378C341.007 294.602 340.769 294.714 340.461 294.714H340.252H339.706C339.538 294.546 339.454 294.42 339.454 294.336C339.454 293.916 340.266 292.713 341.889 290.726C342.98 289.467 344.827 287.648 347.429 285.27C350.032 282.891 351.641 281.38 352.256 280.737C352.592 280.289 352.69 280.065 352.55 280.065Z" fill="#00001D"/>
<path d="M355.409 265.71C355.409 265.486 355.479 265.29 355.619 265.122C355.758 264.954 355.968 264.87 356.248 264.87C356.444 264.87 356.612 264.94 356.752 265.08C356.892 265.192 357.032 265.458 357.172 265.878C357.451 266.913 358.025 267.711 358.893 268.27C359.2 268.466 359.354 268.718 359.354 269.026C359.354 269.278 359.312 269.445 359.228 269.529C359.144 269.613 358.948 269.739 358.641 269.907C357.437 270.523 356.388 271.404 355.493 272.552C355.437 272.608 355.367 272.691 355.283 272.803C355.199 272.915 355.129 272.999 355.073 273.055C355.017 273.111 354.947 273.139 354.863 273.139C354.779 273.139 354.681 273.153 354.569 273.181C354.373 273.181 354.191 273.111 354.024 272.971C353.856 272.831 353.758 272.621 353.73 272.342C353.73 271.81 354.387 270.985 355.703 269.865H348.525L341.347 269.823C340.984 269.571 340.802 269.306 340.802 269.026C340.802 268.83 340.984 268.55 341.347 268.186H356.416C355.744 267.123 355.409 266.297 355.409 265.71Z" fill="#00001D"/>
<path d="M269.834 209.344C269.834 208.644 269.568 208.294 269.037 208.294C268.365 208.294 267.665 208.7 266.938 209.512C266.21 210.323 265.609 211.568 265.133 213.247C265.105 213.275 265.077 213.317 265.049 213.373C265.021 213.429 265.007 213.471 265.007 213.499C265.007 213.527 264.979 213.555 264.923 213.583C264.867 213.611 264.825 213.625 264.797 213.625C264.769 213.625 264.713 213.625 264.629 213.625C264.545 213.625 264.433 213.625 264.294 213.625H263.706C263.538 213.457 263.454 213.331 263.454 213.247C263.454 213.051 263.566 212.646 263.79 212.03C264.014 211.415 264.35 210.687 264.797 209.847C265.245 209.008 265.861 208.294 266.644 207.707C267.428 207.119 268.309 206.811 269.288 206.783C270.464 206.783 271.373 207.119 272.017 207.791C272.66 208.462 272.996 209.246 273.024 210.141C273.024 210.617 272.982 210.981 272.898 211.233C272.898 211.401 272.688 212.016 272.269 213.079C271.849 214.143 271.415 215.388 270.967 216.815C270.52 218.242 270.268 219.488 270.212 220.551C270.212 221.306 270.282 221.922 270.422 222.398C270.786 223.601 271.667 224.203 273.066 224.203C274.101 224.203 275.067 223.727 275.962 222.775C276.858 221.824 277.557 220.719 278.061 219.46C278.565 218.2 278.97 217.039 279.278 215.976C279.586 214.912 279.74 214.143 279.74 213.667C279.74 213.024 279.628 212.464 279.404 211.988C279.18 211.512 278.928 211.149 278.649 210.897C278.369 210.645 278.117 210.393 277.893 210.141C277.669 209.889 277.557 209.582 277.557 209.218C277.557 208.602 277.823 208.029 278.355 207.497C278.887 206.965 279.46 206.699 280.076 206.699C280.607 206.699 281.083 206.951 281.503 207.455C281.923 207.959 282.147 208.77 282.174 209.889C282.174 210.645 282.007 211.806 281.671 213.373C281.335 214.94 280.817 216.689 280.118 218.62C279.418 220.551 278.425 222.216 277.138 223.615C275.85 225.014 274.367 225.728 272.688 225.756C270.897 225.756 269.47 225.294 268.407 224.37C267.372 223.475 266.854 222.146 266.854 220.383C266.854 219.515 266.966 218.62 267.19 217.697C267.414 216.773 267.987 215.136 268.911 212.786C269.526 210.995 269.834 209.847 269.834 209.344Z" fill="#00001D"/>
<path d="M279.249 196.71C279.249 196.486 279.318 196.29 279.458 196.122C279.598 195.954 279.808 195.87 280.088 195.87C280.284 195.87 280.452 195.94 280.592 196.08C280.732 196.192 280.872 196.458 281.011 196.877C281.291 197.913 281.865 198.71 282.732 199.27C283.04 199.466 283.194 199.718 283.194 200.025C283.194 200.277 283.152 200.445 283.068 200.529C282.984 200.613 282.788 200.739 282.481 200.907C281.277 201.523 280.228 202.404 279.332 203.551C279.277 203.607 279.207 203.691 279.123 203.803C279.039 203.915 278.969 203.999 278.913 204.055C278.857 204.111 278.787 204.139 278.703 204.139C278.619 204.139 278.521 204.153 278.409 204.181C278.213 204.181 278.031 204.111 277.863 203.971C277.696 203.831 277.598 203.621 277.57 203.341C277.57 202.81 278.227 201.984 279.542 200.865H272.365L265.187 200.823C264.823 200.571 264.642 200.305 264.642 200.025C264.642 199.83 264.823 199.55 265.187 199.186H280.256C279.584 198.123 279.249 197.297 279.249 196.71Z" fill="#00001D"/>
</svg>
