<svg width="600" height="501" viewBox="0 0 600 501" fill="none" xmlns="http://www.w3.org/2000/svg">
<path d="M569.099 101.4L544.158 101.361L556.595 122.981L569.099 101.4ZM405.394 195.58L406.471 197.452L553.326 112.966L552.249 111.094L551.172 109.222L404.316 193.707L405.394 195.58Z" fill="#656AFF"/>
<path d="M29.9995 410.1L54.941 410.037L42.4162 388.469L29.9995 410.1ZM147.134 342.081L146.049 340.213L45.726 398.47L46.8107 400.338L47.8953 402.206L148.218 343.949L147.134 342.081Z" fill="#656AFF"/>
<path d="M280.973 259.674C280.973 266.036 286.131 271.194 292.493 271.194C298.855 271.194 304.013 266.036 304.013 259.674C304.013 253.312 298.855 248.154 292.493 248.154C286.131 248.154 280.973 253.312 280.973 259.674ZM407.476 196.154C407.793 195.004 407.118 193.814 405.968 193.497L387.227 188.33C386.077 188.013 384.888 188.688 384.571 189.838C384.254 190.988 384.929 192.177 386.079 192.494L402.737 197.088L398.144 213.746C397.827 214.896 398.502 216.085 399.652 216.402C400.802 216.72 401.991 216.044 402.308 214.894L407.476 196.154ZM292.493 259.674L293.56 261.552L406.46 197.458L405.394 195.58L404.327 193.701L291.427 257.796L292.493 259.674Z" fill="#00001D"/>
<path d="M304.013 259.674C304.013 253.312 298.855 248.154 292.493 248.154C286.131 248.154 280.973 253.312 280.973 259.674C280.973 266.036 286.131 271.194 292.493 271.194C298.855 271.194 304.013 266.036 304.013 259.674ZM143.641 342.158C143.322 343.308 143.996 344.498 145.145 344.817L163.879 350.01C165.029 350.328 166.219 349.655 166.538 348.505C166.856 347.356 166.183 346.165 165.033 345.847L148.381 341.231L152.997 324.579C153.316 323.429 152.642 322.239 151.492 321.92C150.343 321.602 149.153 322.275 148.834 323.425L143.641 342.158ZM292.493 259.674L291.429 257.794L144.659 340.856L145.722 342.735L146.786 344.615L293.557 261.554L292.493 259.674Z" fill="#00001D"/>
<path d="M216.997 109.217C216.997 108.097 216.619 107.132 215.864 106.32C215.108 105.509 214.017 105.103 212.59 105.103C211.583 105.103 210.715 105.285 209.988 105.649C209.148 106.181 208.728 106.908 208.728 107.832C208.7 107.971 208.7 108.153 208.728 108.377C208.756 108.601 208.98 108.937 209.4 109.385C209.82 109.832 210.421 110.182 211.205 110.434C211.708 110.574 212.324 110.7 213.052 110.812C213.779 110.924 214.395 111.05 214.898 111.189C215.402 111.329 215.85 111.511 216.242 111.735C216.717 111.959 217.179 112.239 217.627 112.575C218.075 112.91 218.522 113.484 218.97 114.296C219.418 115.107 219.656 115.974 219.684 116.898C219.684 118.633 219.152 120.06 218.088 121.179C217.025 122.299 215.304 122.872 212.926 122.9H212.59C211.135 122.9 209.792 122.396 208.56 121.389L208.225 121.683L207.847 122.061C207.679 122.229 207.511 122.382 207.343 122.522L206.881 122.942H206.546H206.378C206.294 122.942 206.168 122.858 206 122.69V119.374V116.94C206 116.352 206.028 116.002 206.084 115.891C206.14 115.779 206.28 115.709 206.504 115.681H206.881C207.217 115.681 207.441 115.737 207.553 115.849C207.665 115.96 207.735 116.128 207.763 116.352C207.791 116.576 207.889 116.954 208.057 117.486C208.225 118.017 208.49 118.605 208.854 119.248C209.834 120.676 211.191 121.389 212.926 121.389C215.64 121.389 216.997 120.298 216.997 118.115C216.997 117.304 216.745 116.646 216.242 116.142C215.682 115.471 214.521 114.967 212.758 114.631C210.995 114.296 209.834 113.974 209.274 113.666C208.267 113.19 207.469 112.547 206.881 111.735C206.294 110.924 206 110.056 206 109.133C206 108.041 206.238 107.118 206.714 106.362C207.189 105.607 207.791 105.047 208.518 104.683C209.246 104.32 209.946 104.068 210.617 103.928C211.289 103.788 211.904 103.718 212.464 103.718H212.926C214.045 103.718 215.024 103.928 215.864 104.348L216.493 104.683L216.871 104.39C217.151 104.138 217.459 103.9 217.795 103.676H218.13H218.298C218.382 103.676 218.508 103.76 218.676 103.928V109.469L218.424 109.72H217.249C217.081 109.552 216.997 109.385 216.997 109.217Z" fill="#656AFF"/>
<path d="M222.664 128.692H223.251C224.343 128.692 225 128.497 225.224 128.105V127.769C225.224 127.573 225.224 127.307 225.224 126.972C225.224 126.636 225.224 126.216 225.224 125.712C225.224 125.209 225.238 124.663 225.266 124.075C225.294 123.488 225.294 122.872 225.266 122.228C225.238 121.585 225.238 120.899 225.266 120.172C225.294 119.444 225.294 118.731 225.266 118.031C225.266 117.08 225.266 116.086 225.266 115.051C225.266 114.016 225.266 113.092 225.266 112.281C225.266 111.469 225.266 110.728 225.266 110.056C225.266 109.384 225.252 108.839 225.224 108.419C225.196 107.999 225.196 107.775 225.224 107.747C225.14 107.216 224.944 106.866 224.637 106.698C224.329 106.53 223.699 106.404 222.748 106.32H221.992V105.355C221.992 104.711 222.02 104.39 222.076 104.39L222.496 104.348C222.776 104.32 223.181 104.292 223.713 104.264C224.245 104.236 224.762 104.208 225.266 104.18C225.742 104.152 226.26 104.124 226.819 104.096C227.379 104.068 227.799 104.026 228.078 103.97C228.358 103.914 228.512 103.9 228.54 103.928H228.666V105.019L228.708 106.111L229.044 105.817C230.695 104.585 232.626 103.97 234.836 103.97C237.103 103.97 239.034 104.865 240.629 106.656C242.224 108.447 243.035 110.7 243.063 113.414C243.063 116.24 242.154 118.535 240.335 120.298C238.516 122.061 236.459 122.942 234.165 122.942C232.262 122.942 230.583 122.326 229.128 121.095L228.792 120.801V124.369V126.72C228.792 127.475 228.82 127.937 228.876 128.105C228.932 128.273 229.086 128.427 229.338 128.567C229.925 128.651 230.611 128.692 231.394 128.692H232.066V130.623H231.73L230.723 130.581C230.079 130.553 229.38 130.539 228.624 130.539C227.869 130.539 227.337 130.525 227.029 130.497C224.147 130.497 222.58 130.539 222.328 130.623H221.992V128.692H222.664ZM238.95 113.33C238.95 111.259 238.474 109.454 237.523 107.915C236.571 106.376 235.382 105.607 233.955 105.607C231.968 105.607 230.247 106.516 228.792 108.335V118.367C229.911 120.382 231.478 121.389 233.493 121.389C234.92 121.389 236.179 120.633 237.271 119.122C238.362 117.611 238.922 115.681 238.95 113.33Z" fill="#656AFF"/>
<path d="M250.24 109.678C250.24 109.678 249.933 109.678 249.317 109.678C248.701 109.678 248.184 109.469 247.764 109.049C247.344 108.629 247.134 108.083 247.134 107.412C247.134 106.432 247.61 105.565 248.561 104.809C249.513 104.054 251.206 103.676 253.64 103.676C255.683 103.676 257.334 104.124 258.593 105.019C259.852 105.915 260.692 106.978 261.112 108.209C261.251 108.601 261.321 109.035 261.321 109.51C261.321 109.986 261.335 111.595 261.363 114.337V117.276C261.363 118.619 261.433 119.542 261.573 120.046C261.713 120.55 262.007 120.801 262.455 120.801C262.874 120.801 263.154 120.578 263.294 120.13C263.434 119.682 263.504 118.941 263.504 117.905V116.394H265.183V118.031C265.155 119.15 265.113 119.808 265.057 120.004C264.805 120.843 264.316 121.501 263.588 121.977C262.86 122.452 262.091 122.704 261.279 122.732C260.468 122.76 259.81 122.508 259.307 121.977C258.803 121.445 258.467 120.857 258.299 120.214V120.046L258.215 120.172C258.159 120.256 258.089 120.34 258.005 120.424C257.922 120.508 257.81 120.634 257.67 120.801C257.53 120.969 257.362 121.123 257.166 121.263C256.97 121.403 256.76 121.571 256.536 121.767C256.313 121.963 256.061 122.117 255.781 122.229C255.501 122.341 255.193 122.452 254.857 122.564C254.522 122.676 254.158 122.76 253.766 122.816C253.374 122.872 252.941 122.914 252.465 122.942C250.786 122.942 249.275 122.508 247.932 121.641C246.589 120.773 245.917 119.556 245.917 117.989C245.917 117.402 246.015 116.842 246.211 116.31C246.407 115.779 246.784 115.205 247.344 114.589C247.904 113.974 248.575 113.456 249.359 113.036C250.142 112.617 251.234 112.225 252.633 111.861C254.032 111.497 255.571 111.287 257.25 111.231H257.838V110.308C257.838 109.357 257.754 108.657 257.586 108.209C256.97 106.223 255.613 105.229 253.514 105.229C253.011 105.229 252.535 105.243 252.087 105.271C251.639 105.299 251.29 105.355 251.038 105.439C250.786 105.523 250.674 105.565 250.702 105.565C251.318 105.985 251.625 106.6 251.625 107.412C251.625 108.111 251.402 108.657 250.954 109.049L250.24 109.678ZM249.779 118.031C249.779 118.899 250.114 119.668 250.786 120.34C251.458 121.011 252.283 121.361 253.262 121.389C254.326 121.389 255.263 121.067 256.075 120.424C256.886 119.78 257.432 118.941 257.712 117.905C257.768 117.709 257.81 116.786 257.838 115.135C257.838 113.512 257.824 112.7 257.796 112.7C257.572 112.7 257.278 112.714 256.914 112.742C256.55 112.77 255.921 112.896 255.025 113.12C254.13 113.344 253.318 113.624 252.591 113.96C251.863 114.296 251.22 114.813 250.66 115.513C250.1 116.212 249.807 117.052 249.779 118.031Z" fill="#656AFF"/>
<path d="M267.198 120.549H267.786C268.877 120.549 269.535 120.354 269.758 119.962V119.626C269.758 119.374 269.758 119.052 269.758 118.661C269.758 118.269 269.758 117.835 269.758 117.359C269.758 116.884 269.772 116.338 269.8 115.722C269.828 115.107 269.828 114.519 269.8 113.96C269.8 113.092 269.8 112.169 269.8 111.189C269.8 110.21 269.786 109.384 269.758 108.713V107.747C269.674 107.216 269.479 106.866 269.171 106.698C268.863 106.53 268.233 106.404 267.282 106.32H266.526V105.355C266.526 104.711 266.554 104.389 266.61 104.389L267.03 104.347C267.31 104.319 267.702 104.292 268.205 104.264C268.709 104.236 269.227 104.208 269.758 104.18C270.234 104.152 270.738 104.124 271.269 104.096C271.801 104.068 272.207 104.026 272.487 103.97C272.766 103.914 272.92 103.9 272.948 103.928H273.074V105.607C273.074 106.67 273.088 107.202 273.116 107.202C273.144 107.202 273.214 107.132 273.326 106.992C273.438 106.852 273.606 106.642 273.83 106.362C274.054 106.082 274.32 105.831 274.627 105.607C274.935 105.383 275.341 105.117 275.845 104.809C276.348 104.501 276.88 104.278 277.44 104.138C277.999 103.998 278.713 103.928 279.58 103.928C282.77 104.04 284.547 105.621 284.911 108.671C284.939 108.867 284.953 110.811 284.953 114.505V118.115C284.953 119.178 284.981 119.808 285.037 120.004C285.093 120.2 285.247 120.34 285.499 120.424C286.086 120.507 286.772 120.549 287.555 120.549H288.227V122.48H287.891L286.884 122.438C286.24 122.41 285.541 122.396 284.785 122.396C284.03 122.396 283.498 122.382 283.19 122.354C280.308 122.354 278.741 122.396 278.489 122.48H278.153V120.549H278.825C280.532 120.549 281.385 120.326 281.385 119.878C281.413 119.822 281.427 117.891 281.427 114.085C281.399 110.308 281.371 108.307 281.343 108.083C281.175 107.3 280.895 106.712 280.504 106.32C280.112 105.928 279.776 105.691 279.496 105.607C279.216 105.523 278.853 105.495 278.405 105.523C277.146 105.523 276.04 105.998 275.089 106.95C274.334 107.705 273.858 108.475 273.662 109.258C273.466 110.042 273.354 111.203 273.326 112.742V115.429V117.947C273.326 118.787 273.34 119.346 273.368 119.626C273.396 119.906 273.438 120.088 273.494 120.172C273.55 120.256 273.676 120.34 273.872 120.424C274.459 120.507 275.145 120.549 275.929 120.549H276.6V122.48H276.264L275.299 122.438C274.627 122.41 273.914 122.396 273.158 122.396C272.403 122.396 271.871 122.382 271.563 122.354C268.681 122.354 267.114 122.396 266.862 122.48H266.526V120.549H267.198Z" fill="#656AFF"/>
<path d="M307.031 132.176C307.031 132.54 306.947 132.806 306.78 132.974H306.024C302.414 132.974 299.896 132.05 298.469 130.204C298.329 130.008 298.217 129.84 298.133 129.7C298.049 129.56 297.979 129.406 297.923 129.238C297.867 129.07 297.811 128.888 297.755 128.693C297.699 128.497 297.671 128.287 297.671 128.063C297.671 127.839 297.657 127.531 297.629 127.139C297.601 126.748 297.587 126.37 297.587 126.006C297.587 125.642 297.587 125.125 297.587 124.453C297.587 123.782 297.587 123.124 297.587 122.48C297.587 121.893 297.587 121.151 297.587 120.256C297.559 117.765 297.489 116.366 297.377 116.058C297.349 116.03 297.335 116.002 297.335 115.974C296.944 114.967 296.244 114.184 295.237 113.624C294.229 113.064 293.236 112.784 292.257 112.784C291.949 112.784 291.753 112.742 291.669 112.658C291.585 112.575 291.543 112.351 291.543 111.987C291.543 111.623 291.585 111.399 291.669 111.315C291.753 111.231 291.949 111.189 292.257 111.189C293.208 111.189 294.187 110.91 295.195 110.35C296.202 109.79 296.916 109.007 297.335 107.999C297.475 107.692 297.545 107.244 297.545 106.656C297.545 106.069 297.559 103.942 297.587 100.276V98.1775C297.587 96.6384 297.671 95.5611 297.839 94.9455C298.007 94.3299 298.413 93.7422 299.056 93.1826C299.784 92.455 300.903 91.8674 302.414 91.4197C303.45 91.1958 304.191 91.0699 304.639 91.0419C304.695 91.0419 304.877 91.0419 305.185 91.0419C305.492 91.0419 305.744 91.0279 305.94 90.9999H306.78C306.947 91.1678 307.031 91.4197 307.031 91.7555C307.031 92.1192 306.989 92.3431 306.905 92.427C306.849 92.511 306.626 92.553 306.234 92.553C304.751 92.6369 303.589 92.9727 302.75 93.5603C301.911 94.148 301.407 94.7356 301.239 95.3232C301.099 95.687 301.029 97.7577 301.029 101.535V104.977C301.029 106.292 300.987 107.188 300.903 107.664C300.819 108.139 300.581 108.685 300.19 109.301C299.322 110.504 298.105 111.329 296.538 111.777L295.95 111.987L296.538 112.197C297.042 112.365 297.545 112.575 298.049 112.826C298.553 113.078 299.14 113.554 299.812 114.253C300.483 114.953 300.875 115.779 300.987 116.73C301.015 116.898 301.029 118.801 301.029 122.438C301.029 126.216 301.099 128.287 301.239 128.651C301.519 129.406 302.12 130.036 303.044 130.539C303.967 131.043 305.031 131.337 306.234 131.421C306.626 131.421 306.849 131.463 306.905 131.547C306.989 131.631 307.031 131.841 307.031 132.176Z" fill="#656AFF"/>
<path d="M311.985 110.35C312.181 109.175 312.936 107.818 314.252 106.278C315.567 104.739 317.19 103.956 319.121 103.928C320.1 103.928 320.995 104.18 321.807 104.683C322.618 105.187 323.22 105.817 323.612 106.572C324.787 104.809 326.2 103.928 327.851 103.928C328.887 103.928 329.782 104.236 330.538 104.851C331.293 105.467 331.685 106.292 331.713 107.328C331.713 108.139 331.517 108.797 331.125 109.301C330.733 109.804 330.356 110.112 329.992 110.224C329.628 110.336 329.306 110.392 329.026 110.392C328.495 110.392 328.061 110.238 327.725 109.93C327.389 109.622 327.222 109.217 327.222 108.713C327.222 107.426 327.921 106.544 329.32 106.069C329.012 105.705 328.453 105.523 327.641 105.523C327.278 105.523 327.012 105.551 326.844 105.607C325.78 106.055 324.997 106.978 324.493 108.377C322.814 114.561 321.975 118.171 321.975 119.206C321.975 119.99 322.199 120.55 322.646 120.885C323.094 121.221 323.584 121.389 324.116 121.389C325.151 121.389 326.172 120.927 327.18 120.004C328.187 119.081 328.873 117.947 329.236 116.604C329.32 116.324 329.404 116.17 329.488 116.142C329.572 116.114 329.796 116.086 330.16 116.058H330.328C330.747 116.058 330.957 116.17 330.957 116.394C330.957 116.422 330.929 116.576 330.873 116.856C330.426 118.451 329.558 119.864 328.271 121.095C326.984 122.327 325.487 122.942 323.78 122.942C321.821 122.942 320.338 122.061 319.33 120.298C318.183 122.033 316.868 122.9 315.385 122.9H315.133C313.762 122.9 312.783 122.536 312.195 121.809C311.607 121.081 311.299 120.312 311.271 119.5C311.271 118.605 311.537 117.877 312.069 117.318C312.601 116.758 313.23 116.478 313.958 116.478C315.161 116.478 315.763 117.066 315.763 118.241C315.763 118.801 315.595 119.29 315.259 119.71C314.923 120.13 314.601 120.41 314.294 120.55C313.986 120.69 313.804 120.759 313.748 120.759L313.622 120.801C313.622 120.829 313.706 120.885 313.874 120.969C314.042 121.053 314.266 121.151 314.545 121.263C314.825 121.375 315.091 121.417 315.343 121.389C316.35 121.389 317.218 120.759 317.945 119.5C318.197 119.053 318.519 118.101 318.911 116.646C319.303 115.191 319.694 113.68 320.086 112.113C320.478 110.546 320.702 109.622 320.758 109.343C320.898 108.587 320.967 108.041 320.967 107.706C320.967 106.922 320.758 106.362 320.338 106.027C319.918 105.691 319.442 105.523 318.911 105.523C317.791 105.523 316.742 105.971 315.763 106.866C314.783 107.762 314.098 108.909 313.706 110.308C313.65 110.56 313.58 110.7 313.496 110.728C313.412 110.756 313.188 110.784 312.825 110.812H312.237C312.069 110.644 311.985 110.49 311.985 110.35Z" fill="#656AFF"/>
<path d="M328.303 93.9381C328.303 93.7142 328.373 93.5183 328.513 93.3504C328.653 93.1825 328.863 93.0986 329.143 93.0986C329.339 93.0986 329.506 93.1685 329.646 93.3085C329.786 93.4204 329.926 93.6862 330.066 94.106C330.346 95.1413 330.92 95.9388 331.787 96.4985C332.095 96.6943 332.249 96.9462 332.249 97.254C332.249 97.5058 332.207 97.6737 332.123 97.7577C332.039 97.8416 331.843 97.9676 331.535 98.1355C330.332 98.7511 329.283 99.6325 328.387 100.78C328.331 100.836 328.261 100.92 328.177 101.032C328.093 101.144 328.023 101.228 327.967 101.284C327.911 101.339 327.842 101.367 327.758 101.367C327.674 101.367 327.576 101.381 327.464 101.409C327.268 101.409 327.086 101.339 326.918 101.2C326.75 101.06 326.652 100.85 326.624 100.57C326.624 100.038 327.282 99.2128 328.597 98.0935H321.419L314.242 98.0515C313.878 97.7997 313.696 97.5338 313.696 97.254C313.696 97.0581 313.878 96.7783 314.242 96.4145H329.311C328.639 95.3512 328.303 94.5257 328.303 93.9381Z" fill="#656AFF"/>
<path d="M337.084 121.012C337.084 121.012 337.084 120.662 337.084 119.962C337.084 119.263 337.308 118.661 337.756 118.157C338.203 117.654 338.805 117.402 339.56 117.402C340.344 117.402 341.044 117.752 341.659 118.451C342.275 119.151 342.597 120.382 342.625 122.145C342.625 123.124 342.499 124.076 342.247 124.999C341.995 125.923 341.701 126.72 341.365 127.392C341.03 128.063 340.666 128.637 340.274 129.113C339.882 129.588 339.546 129.966 339.267 130.246C338.987 130.526 338.805 130.652 338.721 130.624C338.609 130.624 338.427 130.498 338.175 130.246C337.923 129.994 337.798 129.812 337.798 129.7C337.798 129.588 337.951 129.364 338.259 129.029C338.567 128.693 338.917 128.273 339.309 127.769C339.7 127.266 340.064 126.566 340.4 125.671C340.736 124.775 340.96 123.754 341.072 122.607V122.103L341.03 122.145C340.974 122.173 340.904 122.201 340.82 122.229C340.736 122.257 340.652 122.299 340.568 122.355C340.484 122.411 340.358 122.439 340.19 122.439C340.022 122.439 339.854 122.453 339.686 122.481C338.931 122.481 338.315 122.243 337.84 121.767L337.084 121.012Z" fill="#656AFF"/>
<path d="M353.568 110.434C353.568 110.042 353.778 109.371 354.198 108.419C354.618 107.468 355.289 106.474 356.213 105.439C357.136 104.404 358.172 103.9 359.319 103.928C360.466 103.928 361.39 104.25 362.089 104.893C362.789 105.537 363.152 106.433 363.18 107.58C363.124 108.111 363.082 108.405 363.054 108.461C363.054 108.545 362.831 109.189 362.383 110.392C361.935 111.595 361.473 112.952 360.998 114.464C360.522 115.975 360.298 117.178 360.326 118.073C360.326 119.277 360.522 120.116 360.914 120.592C361.306 121.067 361.893 121.319 362.677 121.347C363.32 121.347 363.922 121.193 364.482 120.886C365.041 120.578 365.475 120.256 365.783 119.92C366.091 119.584 366.468 119.123 366.916 118.535C366.916 118.507 366.986 118.227 367.126 117.696C367.266 117.164 367.462 116.338 367.714 115.219C367.965 114.1 368.231 113.064 368.511 112.113C369.574 107.916 370.162 105.719 370.274 105.523C370.638 104.768 371.239 104.39 372.079 104.39C372.443 104.39 372.736 104.488 372.96 104.684C373.184 104.879 373.338 105.047 373.422 105.187C373.506 105.327 373.534 105.453 373.506 105.565C373.506 105.929 372.82 108.867 371.449 114.38C370.078 119.892 369.295 122.914 369.099 123.446C368.315 125.769 366.958 127.615 365.027 128.987C363.096 130.358 361.166 131.057 359.235 131.085C357.976 131.085 356.87 130.777 355.919 130.162C354.967 129.546 354.492 128.623 354.492 127.391C354.492 126.776 354.59 126.258 354.786 125.838C354.981 125.419 355.247 125.111 355.583 124.915C355.919 124.719 356.199 124.579 356.423 124.495C356.646 124.411 356.884 124.369 357.136 124.369C358.367 124.369 358.983 124.957 358.983 126.132C358.983 126.692 358.815 127.182 358.479 127.601C358.144 128.021 357.822 128.301 357.514 128.441C357.206 128.581 357.024 128.651 356.968 128.651L356.842 128.693C356.898 128.833 357.164 129 357.64 129.196C358.116 129.392 358.591 129.49 359.067 129.49H359.403C359.878 129.49 360.242 129.462 360.494 129.406C361.417 129.154 362.271 128.623 363.054 127.811C363.838 127 364.44 126.132 364.859 125.209C365.279 124.285 365.601 123.502 365.825 122.858C366.049 122.215 366.161 121.795 366.161 121.599L365.909 121.767C365.741 121.879 365.475 122.033 365.111 122.229C364.747 122.425 364.384 122.592 364.02 122.732C363.46 122.872 362.915 122.942 362.383 122.942C361.096 122.942 359.962 122.634 358.983 122.019C358.004 121.403 357.36 120.41 357.052 119.039C357.024 118.843 357.01 118.409 357.01 117.737C357.01 116.142 357.5 114.058 358.479 111.483C359.459 108.909 359.948 107.272 359.948 106.572C359.948 106.544 359.948 106.516 359.948 106.488C359.948 106.237 359.948 106.069 359.948 105.985C359.948 105.901 359.892 105.803 359.781 105.691C359.669 105.579 359.515 105.523 359.319 105.523H359.151C358.507 105.523 357.92 105.789 357.388 106.321C356.856 106.852 356.437 107.426 356.129 108.042C355.821 108.657 355.583 109.245 355.415 109.804C355.247 110.364 355.135 110.672 355.079 110.728C355.023 110.784 354.8 110.812 354.408 110.812H353.82C353.652 110.644 353.568 110.518 353.568 110.434Z" fill="#656AFF"/>
<path d="M370.634 93.9381C370.634 93.7142 370.704 93.5183 370.844 93.3504C370.984 93.1825 371.194 93.0986 371.474 93.0986C371.67 93.0986 371.838 93.1685 371.977 93.3085C372.117 93.4204 372.257 93.6862 372.397 94.106C372.677 95.1413 373.251 95.9388 374.118 96.4985C374.426 96.6943 374.58 96.9462 374.58 97.254C374.58 97.5058 374.538 97.6737 374.454 97.7577C374.37 97.8416 374.174 97.9676 373.866 98.1355C372.663 98.7511 371.614 99.6325 370.718 100.78C370.662 100.836 370.592 100.92 370.508 101.032C370.424 101.144 370.354 101.228 370.298 101.284C370.243 101.339 370.173 101.367 370.089 101.367C370.005 101.367 369.907 101.381 369.795 101.409C369.599 101.409 369.417 101.339 369.249 101.2C369.081 101.06 368.983 100.85 368.955 100.57C368.955 100.038 369.613 99.2128 370.928 98.0935H363.751L356.573 98.0515C356.209 97.7997 356.027 97.5338 356.027 97.254C356.027 97.0581 356.209 96.7783 356.573 96.4145H371.642C370.97 95.3512 370.634 94.5257 370.634 93.9381Z" fill="#656AFF"/>
<path d="M378.524 91.7974C378.524 91.4057 378.566 91.1818 378.65 91.1258C378.734 91.0699 379.014 91.0279 379.49 90.9999C381.812 90.9999 383.603 91.3497 384.862 92.0493C386.122 92.7488 387.003 93.5184 387.507 94.3578C387.759 94.9455 387.899 95.4352 387.927 95.8269C387.955 96.2187 387.983 98.0935 388.011 101.451C388.039 105.341 388.066 107.356 388.094 107.496C388.458 108.755 389.186 109.678 390.277 110.266C391.368 110.854 392.376 111.161 393.299 111.189C393.607 111.189 393.803 111.231 393.887 111.315C393.971 111.399 394.013 111.623 394.013 111.987C394.013 112.351 393.971 112.575 393.887 112.658C393.803 112.742 393.607 112.784 393.299 112.784C392.264 112.784 391.257 113.078 390.277 113.666C389.298 114.253 388.64 114.995 388.304 115.89C388.164 116.282 388.08 116.786 388.053 117.402C388.025 118.017 388.011 120.102 388.011 123.656V125.796C388.011 127.335 387.927 128.413 387.759 129.028C387.591 129.644 387.185 130.232 386.541 130.791C385.03 132.246 382.694 132.974 379.532 132.974C379.028 132.974 378.734 132.932 378.65 132.848C378.566 132.764 378.524 132.526 378.524 132.134C378.524 131.967 378.524 131.869 378.524 131.841C378.524 131.813 378.538 131.743 378.566 131.631C378.594 131.519 378.636 131.463 378.692 131.463C378.748 131.463 378.86 131.449 379.028 131.421C379.42 131.421 379.854 131.379 380.329 131.295C380.805 131.211 381.337 131.071 381.924 130.875C382.512 130.679 383.03 130.358 383.477 129.91C383.925 129.462 384.261 128.93 384.485 128.315C384.513 128.175 384.541 126.188 384.569 122.354L384.611 116.646C384.974 115.051 385.954 113.778 387.549 112.826C388.528 112.351 389.228 112.071 389.648 111.987C388.948 111.791 388.248 111.511 387.549 111.147C386.01 110.196 385.058 109.049 384.695 107.706L384.611 107.286L384.569 101.577C384.541 97.7437 384.513 95.757 384.485 95.6171C384.149 94.4978 383.407 93.7142 382.26 93.2665C381.113 92.8188 380.035 92.5809 379.028 92.553C378.776 92.553 378.636 92.511 378.608 92.427C378.58 92.3431 378.552 92.1332 378.524 91.7974Z" fill="#656AFF"/>
<path d="M320.714 196.251C320.909 195.076 321.665 193.719 322.98 192.18C324.295 190.641 325.918 189.857 327.849 189.829C328.829 189.829 329.724 190.081 330.535 190.585C331.347 191.089 331.949 191.718 332.34 192.474C333.516 190.711 334.929 189.829 336.58 189.829C337.615 189.829 338.511 190.137 339.266 190.753C340.022 191.368 340.413 192.194 340.441 193.229C340.441 194.041 340.245 194.698 339.854 195.202C339.462 195.706 339.084 196.013 338.72 196.125C338.357 196.237 338.035 196.293 337.755 196.293C337.223 196.293 336.79 196.139 336.454 195.832C336.118 195.524 335.95 195.118 335.95 194.614C335.95 193.327 336.65 192.446 338.049 191.97C337.741 191.606 337.181 191.424 336.37 191.424C336.006 191.424 335.74 191.452 335.572 191.508C334.509 191.956 333.725 192.879 333.222 194.279C331.543 200.463 330.703 204.072 330.703 205.108C330.703 205.891 330.927 206.451 331.375 206.787C331.823 207.123 332.312 207.29 332.844 207.29C333.879 207.29 334.901 206.829 335.908 205.905C336.916 204.982 337.601 203.849 337.965 202.505C338.049 202.226 338.133 202.072 338.217 202.044C338.301 202.016 338.525 201.988 338.888 201.96H339.056C339.476 201.96 339.686 202.072 339.686 202.296C339.686 202.324 339.658 202.477 339.602 202.757C339.154 204.352 338.287 205.765 336.999 206.997C335.712 208.228 334.215 208.844 332.508 208.844C330.549 208.844 329.066 207.962 328.059 206.199C326.912 207.934 325.597 208.802 324.113 208.802H323.862C322.49 208.802 321.511 208.438 320.923 207.71C320.336 206.983 320.028 206.213 320 205.402C320 204.506 320.266 203.779 320.798 203.219C321.329 202.659 321.959 202.38 322.686 202.38C323.89 202.38 324.491 202.967 324.491 204.142C324.491 204.702 324.323 205.192 323.988 205.612C323.652 206.031 323.33 206.311 323.022 206.451C322.714 206.591 322.532 206.661 322.476 206.661L322.351 206.703C322.351 206.731 322.434 206.787 322.602 206.871C322.77 206.955 322.994 207.053 323.274 207.165C323.554 207.276 323.82 207.318 324.071 207.29C325.079 207.29 325.946 206.661 326.674 205.402C326.926 204.954 327.248 204.003 327.639 202.547C328.031 201.092 328.423 199.581 328.815 198.014C329.206 196.447 329.43 195.524 329.486 195.244C329.626 194.488 329.696 193.943 329.696 193.607C329.696 192.823 329.486 192.264 329.066 191.928C328.647 191.592 328.171 191.424 327.639 191.424C326.52 191.424 325.471 191.872 324.491 192.767C323.512 193.663 322.826 194.81 322.434 196.209C322.379 196.461 322.309 196.601 322.225 196.629C322.141 196.657 321.917 196.685 321.553 196.713H320.965C320.798 196.545 320.714 196.391 320.714 196.251Z" fill="#00001D"/>
<path d="M337.034 179.839C337.034 179.616 337.104 179.42 337.244 179.252C337.383 179.084 337.593 179 337.873 179C338.069 179 338.237 179.07 338.377 179.21C338.517 179.322 338.657 179.588 338.797 180.007C339.076 181.043 339.65 181.84 340.518 182.4C340.825 182.596 340.979 182.848 340.979 183.155C340.979 183.407 340.937 183.575 340.853 183.659C340.769 183.743 340.573 183.869 340.266 184.037C339.062 184.652 338.013 185.534 337.118 186.681C337.062 186.737 336.992 186.821 336.908 186.933C336.824 187.045 336.754 187.129 336.698 187.185C336.642 187.241 336.572 187.269 336.488 187.269C336.404 187.269 336.306 187.283 336.194 187.311C335.998 187.311 335.816 187.241 335.649 187.101C335.481 186.961 335.383 186.751 335.355 186.471C335.355 185.94 336.012 185.114 337.328 183.995H330.15L322.972 183.953C322.609 183.701 322.427 183.435 322.427 183.155C322.427 182.959 322.609 182.68 322.972 182.316H338.041C337.369 181.253 337.034 180.427 337.034 179.839Z" fill="#00001D"/>
<path d="M195 265.336C195 264.944 195.21 264.272 195.63 263.321C196.049 262.369 196.721 261.376 197.644 260.341C198.568 259.305 199.603 258.802 200.75 258.83C201.898 258.83 202.821 259.151 203.521 259.795C204.22 260.439 204.584 261.334 204.612 262.481C204.556 263.013 204.514 263.307 204.486 263.363C204.486 263.447 204.262 264.09 203.815 265.294C203.367 266.497 202.905 267.854 202.429 269.365C201.954 270.876 201.73 272.079 201.758 272.975C201.758 274.178 201.954 275.018 202.345 275.493C202.737 275.969 203.325 276.221 204.108 276.249C204.752 276.249 205.354 276.095 205.913 275.787C206.473 275.479 206.907 275.158 207.214 274.822C207.522 274.486 207.9 274.024 208.348 273.437C208.348 273.409 208.418 273.129 208.558 272.597C208.698 272.065 208.893 271.24 209.145 270.121C209.397 269.001 209.663 267.966 209.943 267.015C211.006 262.817 211.594 260.621 211.706 260.425C212.069 259.669 212.671 259.291 213.511 259.291C213.874 259.291 214.168 259.389 214.392 259.585C214.616 259.781 214.77 259.949 214.854 260.089C214.938 260.229 214.966 260.355 214.938 260.467C214.938 260.83 214.252 263.769 212.881 269.281C211.51 274.794 210.726 277.816 210.53 278.348C209.747 280.67 208.39 282.517 206.459 283.888C204.528 285.259 202.597 285.959 200.666 285.987C199.407 285.987 198.302 285.679 197.351 285.063C196.399 284.448 195.923 283.524 195.923 282.293C195.923 281.677 196.021 281.16 196.217 280.74C196.413 280.32 196.679 280.013 197.015 279.817C197.351 279.621 197.63 279.481 197.854 279.397C198.078 279.313 198.316 279.271 198.568 279.271C199.799 279.271 200.415 279.859 200.415 281.034C200.415 281.594 200.247 282.083 199.911 282.503C199.575 282.923 199.253 283.203 198.946 283.342C198.638 283.482 198.456 283.552 198.4 283.552L198.274 283.594C198.33 283.734 198.596 283.902 199.071 284.098C199.547 284.294 200.023 284.392 200.499 284.392H200.834C201.31 284.392 201.674 284.364 201.926 284.308C202.849 284.056 203.703 283.524 204.486 282.713C205.27 281.901 205.871 281.034 206.291 280.11C206.711 279.187 207.033 278.404 207.256 277.76C207.48 277.116 207.592 276.697 207.592 276.501L207.34 276.669C207.172 276.781 206.907 276.934 206.543 277.13C206.179 277.326 205.815 277.494 205.452 277.634C204.892 277.774 204.346 277.844 203.815 277.844C202.527 277.844 201.394 277.536 200.415 276.92C199.435 276.305 198.792 275.311 198.484 273.94C198.456 273.744 198.442 273.311 198.442 272.639C198.442 271.044 198.932 268.959 199.911 266.385C200.89 263.811 201.38 262.174 201.38 261.474C201.38 261.446 201.38 261.418 201.38 261.39C201.38 261.138 201.38 260.97 201.38 260.886C201.38 260.802 201.324 260.705 201.212 260.593C201.1 260.481 200.946 260.425 200.75 260.425H200.583C199.939 260.425 199.351 260.691 198.82 261.222C198.288 261.754 197.868 262.327 197.56 262.943C197.253 263.559 197.015 264.146 196.847 264.706C196.679 265.266 196.567 265.573 196.511 265.629C196.455 265.685 196.231 265.713 195.839 265.713H195.252C195.084 265.545 195 265.42 195 265.336Z" fill="#00001D"/>
<path d="M212.067 248.84C212.067 248.616 212.137 248.42 212.277 248.252C212.417 248.084 212.627 248 212.906 248C213.102 248 213.27 248.07 213.41 248.21C213.55 248.322 213.69 248.588 213.83 249.008C214.11 250.043 214.683 250.84 215.551 251.4C215.859 251.596 216.012 251.848 216.012 252.156C216.012 252.407 215.97 252.575 215.887 252.659C215.803 252.743 215.607 252.869 215.299 253.037C214.096 253.653 213.046 254.534 212.151 255.681C212.095 255.737 212.025 255.821 211.941 255.933C211.857 256.045 211.787 256.129 211.731 256.185C211.675 256.241 211.605 256.269 211.521 256.269C211.437 256.269 211.339 256.283 211.227 256.311C211.032 256.311 210.85 256.241 210.682 256.101C210.514 255.961 210.416 255.751 210.388 255.472C210.388 254.94 211.046 254.114 212.361 252.995H205.183L198.006 252.953C197.642 252.701 197.46 252.435 197.46 252.156C197.46 251.96 197.642 251.68 198.006 251.316H213.074C212.403 250.253 212.067 249.427 212.067 248.84Z" fill="#00001D"/>
</svg>
