<svg width="353" height="164" viewBox="0 0 353 164" fill="none" xmlns="http://www.w3.org/2000/svg">
<path d="M23.9541 25.25C23.0708 25.25 22.3041 25.15 21.6541 24.95C21.0041 24.7333 20.4624 24.45 20.0291 24.1C19.5958 23.75 19.2458 23.3417 18.9791 22.875C18.7291 22.3917 18.5541 21.8917 18.4541 21.375H20.6541C20.7708 21.9083 21.0791 22.375 21.5791 22.775C22.0958 23.1583 22.8874 23.35 23.9541 23.35C25.1874 23.35 26.0458 23.1583 26.5291 22.775C27.0124 22.375 27.2541 21.9083 27.2541 21.375C27.2541 21.0083 27.1458 20.6917 26.9291 20.425C26.7291 20.1417 26.3624 19.9 25.8291 19.7C25.3124 19.5 24.5708 19.3333 23.6041 19.2C22.8708 19.1 22.2124 18.9583 21.6291 18.775C21.0458 18.575 20.5458 18.3167 20.1291 18C19.7124 17.6833 19.3874 17.3 19.1541 16.85C18.9374 16.4 18.8291 15.8667 18.8291 15.25C18.8291 14.5833 19.0208 13.9667 19.4041 13.4C19.7874 12.8333 20.3624 12.375 21.1291 12.025C21.8958 11.675 22.8374 11.5 23.9541 11.5C25.0041 11.5 25.8708 11.6833 26.5541 12.05C27.2541 12.4 27.7958 12.8667 28.1791 13.45C28.5624 14.0333 28.8208 14.675 28.9541 15.375H26.7541C26.6208 14.7917 26.3374 14.3167 25.9041 13.95C25.4708 13.5833 24.8208 13.4 23.9541 13.4C22.8708 13.4 22.1124 13.5833 21.6791 13.95C21.2458 14.3 21.0291 14.7333 21.0291 15.25C21.0291 15.85 21.2624 16.3 21.7291 16.6C22.2124 16.9 23.0874 17.1333 24.3541 17.3C25.1708 17.4 25.8958 17.55 26.5291 17.75C27.1624 17.9333 27.6958 18.1917 28.1291 18.525C28.5624 18.8417 28.8874 19.2333 29.1041 19.7C29.3374 20.1667 29.4541 20.725 29.4541 21.375C29.4541 22.075 29.2541 22.7167 28.8541 23.3C28.4541 23.8833 27.8458 24.3583 27.0291 24.725C26.2291 25.075 25.2041 25.25 23.9541 25.25ZM37.4609 25.125C36.5276 25.125 35.7609 24.9833 35.1609 24.7C34.5776 24.4167 34.1443 23.9917 33.8609 23.425C33.5943 22.8417 33.4609 22.1167 33.4609 21.25V13.7H31.4609V11.75H33.4609V8.75H35.6609V11.75H39.2109V13.7H35.6609V21C35.6609 21.75 35.8193 22.2917 36.1359 22.625C36.4526 22.9583 37.0609 23.125 37.9609 23.125C38.4609 23.125 38.9609 23.1 39.4609 23.05V25C39.1443 25.0333 38.8276 25.0583 38.5109 25.075C38.1943 25.1083 37.8443 25.125 37.4609 25.125ZM46.3707 25.25C45.404 25.25 44.579 25.075 43.8957 24.725C43.229 24.3583 42.7207 23.8667 42.3707 23.25C42.0207 22.6167 41.8457 21.9083 41.8457 21.125C41.8457 19.8083 42.229 18.8583 42.9957 18.275C43.779 17.6917 44.8957 17.4 46.3457 17.4H50.6457V16.5C50.6457 15.3667 50.3874 14.5833 49.8707 14.15C49.3707 13.7167 48.6124 13.5 47.5957 13.5C46.6457 13.5 45.954 13.6833 45.5207 14.05C45.0874 14.4 44.8457 14.8 44.7957 15.25H42.5957C42.6457 14.5333 42.8874 13.9 43.3207 13.35C43.754 12.7833 44.3457 12.3333 45.0957 12C45.8457 11.6667 46.7207 11.5 47.7207 11.5C48.7707 11.5 49.679 11.6667 50.4457 12C51.2124 12.3167 51.804 12.825 52.2207 13.525C52.6374 14.2083 52.8457 15.1167 52.8457 16.25V21.625C52.8457 22.325 52.8457 22.9417 52.8457 23.475C52.8624 23.9917 52.904 24.5 52.9707 25H51.0457C50.9957 24.6167 50.9624 24.2583 50.9457 23.925C50.929 23.575 50.9207 23.1833 50.9207 22.75C50.5707 23.45 50.004 24.0417 49.2207 24.525C48.4374 25.0083 47.4874 25.25 46.3707 25.25ZM46.8457 23.25C47.5457 23.25 48.179 23.125 48.7457 22.875C49.329 22.625 49.7874 22.2583 50.1207 21.775C50.4707 21.2917 50.6457 20.7 50.6457 20V19.1H46.7207C45.904 19.1 45.2624 19.2667 44.7957 19.6C44.329 19.9167 44.0957 20.425 44.0957 21.125C44.0957 21.7417 44.3124 22.25 44.7457 22.65C45.1957 23.05 45.8957 23.25 46.8457 23.25ZM56.7314 25V11.75H58.7814V14.25C58.9814 13.7167 59.2564 13.25 59.6064 12.85C59.9564 12.4333 60.3814 12.1083 60.8814 11.875C61.3981 11.625 61.9731 11.5 62.6064 11.5C62.9398 11.5 63.2064 11.5167 63.4064 11.55C63.6231 11.5833 63.8148 11.625 63.9814 11.675V13.725C63.7648 13.6417 63.5481 13.5833 63.3314 13.55C63.1314 13.5167 62.8481 13.5 62.4814 13.5C61.8148 13.5 61.2148 13.6583 60.6814 13.975C60.1481 14.2917 59.7231 14.7333 59.4064 15.3C59.0898 15.85 58.9314 16.5 58.9314 17.25V25H56.7314ZM71.8359 25.125C70.9026 25.125 70.1359 24.9833 69.5359 24.7C68.9526 24.4167 68.5193 23.9917 68.2359 23.425C67.9693 22.8417 67.8359 22.1167 67.8359 21.25V13.7H65.8359V11.75H67.8359V8.75H70.0359V11.75H73.5859V13.7H70.0359V21C70.0359 21.75 70.1943 22.2917 70.5109 22.625C70.8276 22.9583 71.4359 23.125 72.3359 23.125C72.8359 23.125 73.3359 23.1 73.8359 23.05V25C73.5193 25.0333 73.2026 25.0583 72.8859 25.075C72.5693 25.1083 72.2193 25.125 71.8359 25.125ZM83.2207 25V7.5H85.4207V14.125C85.654 13.6583 85.9707 13.225 86.3707 12.825C86.7707 12.425 87.254 12.1083 87.8207 11.875C88.404 11.625 89.0624 11.5 89.7957 11.5C91.4624 11.5 92.6957 11.95 93.4957 12.85C94.3124 13.7333 94.7207 15.0333 94.7207 16.75V25H92.5207V17.25C92.5207 16.0167 92.2624 15.0833 91.7457 14.45C91.229 13.8167 90.3624 13.5 89.1457 13.5C88.279 13.5 87.5707 13.6833 87.0207 14.05C86.4707 14.4167 86.0624 14.8833 85.7957 15.45C85.5457 16.0167 85.4207 16.6167 85.4207 17.25V25H83.2207ZM104.102 25.25C102.985 25.25 101.935 25.0083 100.952 24.525C99.9849 24.0417 99.2016 23.3 98.6016 22.3C98.0182 21.3 97.7266 20.0333 97.7266 18.5V18C97.7266 16.5333 98.0099 15.325 98.5766 14.375C99.1432 13.4083 99.8932 12.6917 100.827 12.225C101.76 11.7417 102.768 11.5 103.852 11.5C105.802 11.5 107.31 12.0333 108.377 13.1C109.443 14.1667 109.977 15.675 109.977 17.625V19.025H99.9266C99.9266 20.0583 100.135 20.8833 100.552 21.5C100.985 22.1167 101.518 22.5667 102.152 22.85C102.802 23.1167 103.452 23.25 104.102 23.25C105.102 23.25 105.868 23.0833 106.402 22.75C106.952 22.4167 107.343 21.9583 107.577 21.375H109.727C109.46 22.6417 108.802 23.6083 107.752 24.275C106.718 24.925 105.502 25.25 104.102 25.25ZM103.977 13.5C103.293 13.5 102.643 13.6333 102.027 13.9C101.41 14.15 100.902 14.55 100.502 15.1C100.118 15.65 99.9266 16.3583 99.9266 17.225H107.902C107.885 16.3083 107.693 15.5833 107.327 15.05C106.977 14.5 106.51 14.1083 105.927 13.875C105.343 13.625 104.693 13.5 103.977 13.5ZM113.104 25V11.75H115.154V14.25C115.354 13.7167 115.629 13.25 115.979 12.85C116.329 12.4333 116.754 12.1083 117.254 11.875C117.77 11.625 118.345 11.5 118.979 11.5C119.312 11.5 119.579 11.5167 119.779 11.55C119.995 11.5833 120.187 11.625 120.354 11.675V13.725C120.137 13.6417 119.92 13.5833 119.704 13.55C119.504 13.5167 119.22 13.5 118.854 13.5C118.187 13.5 117.587 13.6583 117.054 13.975C116.52 14.2917 116.095 14.7333 115.779 15.3C115.462 15.85 115.304 16.5 115.304 17.25V25H113.104ZM128.101 25.25C126.984 25.25 125.934 25.0083 124.951 24.525C123.984 24.0417 123.201 23.3 122.601 22.3C122.017 21.3 121.726 20.0333 121.726 18.5V18C121.726 16.5333 122.009 15.325 122.576 14.375C123.142 13.4083 123.892 12.6917 124.826 12.225C125.759 11.7417 126.767 11.5 127.851 11.5C129.801 11.5 131.309 12.0333 132.376 13.1C133.442 14.1667 133.976 15.675 133.976 17.625V19.025H123.926C123.926 20.0583 124.134 20.8833 124.551 21.5C124.984 22.1167 125.517 22.5667 126.151 22.85C126.801 23.1167 127.451 23.25 128.101 23.25C129.101 23.25 129.867 23.0833 130.401 22.75C130.951 22.4167 131.342 21.9583 131.576 21.375H133.726C133.459 22.6417 132.801 23.6083 131.751 24.275C130.717 24.925 129.501 25.25 128.101 25.25ZM127.976 13.5C127.292 13.5 126.642 13.6333 126.026 13.9C125.409 14.15 124.901 14.55 124.501 15.1C124.117 15.65 123.926 16.3583 123.926 17.225H131.901C131.884 16.3083 131.692 15.5833 131.326 15.05C130.976 14.5 130.509 14.1083 129.926 13.875C129.342 13.625 128.692 13.5 127.976 13.5ZM143.603 25V11.75H145.803V25H143.603ZM144.703 10C144.269 10 143.911 9.85833 143.628 9.575C143.344 9.29167 143.203 8.93333 143.203 8.5C143.203 8.06667 143.344 7.70833 143.628 7.425C143.911 7.14167 144.269 7 144.703 7C145.136 7 145.494 7.14167 145.778 7.425C146.061 7.70833 146.203 8.06667 146.203 8.5C146.203 8.93333 146.061 9.29167 145.778 9.575C145.494 9.85833 145.136 10 144.703 10ZM150.792 25V13.7H148.917V11.75H150.792V11.5C150.792 10.5667 150.934 9.8 151.217 9.2C151.5 8.58333 151.934 8.125 152.517 7.825C153.117 7.525 153.875 7.375 154.792 7.375C155.042 7.375 155.325 7.38333 155.642 7.4C155.959 7.4 156.3 7.41667 156.667 7.45V9.45C156.417 9.41667 156.142 9.4 155.842 9.4C155.559 9.38333 155.292 9.375 155.042 9.375C154.275 9.375 153.742 9.53333 153.442 9.85C153.142 10.15 152.992 10.7 152.992 11.5V11.75H156.417V13.7H152.992V25H150.792ZM167.173 30.25C166.923 30.25 166.673 30.225 166.423 30.175V28.175C166.673 28.225 166.923 28.25 167.173 28.25C167.506 28.25 167.781 28.1667 167.998 28C168.231 27.85 168.465 27.5417 168.698 27.075C168.931 26.6083 169.215 25.9167 169.548 25L163.923 11.75H166.373L170.673 22.5L174.573 11.75H176.923L171.923 25C171.456 26.25 171.006 27.2583 170.573 28.025C170.156 28.7917 169.681 29.35 169.148 29.7C168.631 30.0667 167.973 30.25 167.173 30.25ZM184.424 25.25C183.307 25.25 182.257 25.0083 181.274 24.525C180.307 24.025 179.524 23.275 178.924 22.275C178.34 21.275 178.049 20.0167 178.049 18.5V18C178.049 16.5667 178.34 15.3667 178.924 14.4C179.524 13.4333 180.307 12.7083 181.274 12.225C182.257 11.7417 183.307 11.5 184.424 11.5C185.557 11.5 186.607 11.7417 187.574 12.225C188.54 12.7083 189.315 13.4333 189.899 14.4C190.499 15.3667 190.799 16.5667 190.799 18V18.5C190.799 20.0167 190.499 21.275 189.899 22.275C189.315 23.275 188.54 24.025 187.574 24.525C186.607 25.0083 185.557 25.25 184.424 25.25ZM184.424 23.25C185.107 23.25 185.757 23.1 186.374 22.8C187.007 22.4833 187.524 21.975 187.924 21.275C188.34 20.575 188.549 19.65 188.549 18.5V18C188.549 16.9333 188.34 16.075 187.924 15.425C187.524 14.7583 187.007 14.275 186.374 13.975C185.757 13.6583 185.107 13.5 184.424 13.5C183.757 13.5 183.107 13.6583 182.474 13.975C181.84 14.275 181.315 14.7583 180.899 15.425C180.499 16.075 180.299 16.9333 180.299 18V18.5C180.299 19.65 180.499 20.575 180.899 21.275C181.315 21.975 181.84 22.4833 182.474 22.8C183.107 23.1 183.757 23.25 184.424 23.25ZM198.589 25.25C196.989 25.25 195.789 24.7917 194.989 23.875C194.189 22.9583 193.789 21.5417 193.789 19.625V11.75H195.989V19.5C195.989 20.7333 196.239 21.6667 196.739 22.3C197.256 22.9333 198.089 23.25 199.239 23.25C200.072 23.25 200.756 23.0667 201.289 22.7C201.822 22.3333 202.214 21.8667 202.464 21.3C202.714 20.7167 202.839 20.1167 202.839 19.5V11.75H205.039V25H202.989V22.5C202.689 23.2333 202.164 23.875 201.414 24.425C200.664 24.975 199.722 25.25 198.589 25.25ZM208.676 12.5V7.5H210.926V12.5H208.676ZM214.544 25V11.75H216.594V14.25C216.794 13.7167 217.069 13.25 217.419 12.85C217.769 12.4333 218.194 12.1083 218.694 11.875C219.211 11.625 219.786 11.5 220.419 11.5C220.752 11.5 221.019 11.5167 221.219 11.55C221.436 11.5833 221.627 11.625 221.794 11.675V13.725C221.577 13.6417 221.361 13.5833 221.144 13.55C220.944 13.5167 220.661 13.5 220.294 13.5C219.627 13.5 219.027 13.6583 218.494 13.975C217.961 14.2917 217.536 14.7333 217.219 15.3C216.902 15.85 216.744 16.5 216.744 17.25V25H214.544ZM229.541 25.25C228.424 25.25 227.374 25.0083 226.391 24.525C225.424 24.0417 224.641 23.3 224.041 22.3C223.458 21.3 223.166 20.0333 223.166 18.5V18C223.166 16.5333 223.449 15.325 224.016 14.375C224.583 13.4083 225.333 12.6917 226.266 12.225C227.199 11.7417 228.208 11.5 229.291 11.5C231.241 11.5 232.749 12.0333 233.816 13.1C234.883 14.1667 235.416 15.675 235.416 17.625V19.025H225.366C225.366 20.0583 225.574 20.8833 225.991 21.5C226.424 22.1167 226.958 22.5667 227.591 22.85C228.241 23.1167 228.891 23.25 229.541 23.25C230.541 23.25 231.308 23.0833 231.841 22.75C232.391 22.4167 232.783 21.9583 233.016 21.375H235.166C234.899 22.6417 234.241 23.6083 233.191 24.275C232.158 24.925 230.941 25.25 229.541 25.25ZM229.416 13.5C228.733 13.5 228.083 13.6333 227.466 13.9C226.849 14.15 226.341 14.55 225.941 15.1C225.558 15.65 225.366 16.3583 225.366 17.225H233.341C233.324 16.3083 233.133 15.5833 232.766 15.05C232.416 14.5 231.949 14.1083 231.366 13.875C230.783 13.625 230.133 13.5 229.416 13.5ZM244.793 25V11.75H246.843V14.25C247.143 13.5167 247.668 12.875 248.418 12.325C249.185 11.775 250.168 11.5 251.368 11.5C253.035 11.5 254.268 11.95 255.068 12.85C255.885 13.7333 256.293 15.0333 256.293 16.75V25H254.093V17.25C254.093 16.0167 253.835 15.0833 253.318 14.45C252.801 13.8167 251.935 13.5 250.718 13.5C249.851 13.5 249.143 13.6833 248.593 14.05C248.043 14.4167 247.635 14.8833 247.368 15.45C247.118 16.0167 246.993 16.6167 246.993 17.25V25H244.793ZM265.674 25.25C264.557 25.25 263.507 25.0083 262.524 24.525C261.557 24.0417 260.774 23.3 260.174 22.3C259.59 21.3 259.299 20.0333 259.299 18.5V18C259.299 16.5333 259.582 15.325 260.149 14.375C260.715 13.4083 261.465 12.6917 262.399 12.225C263.332 11.7417 264.34 11.5 265.424 11.5C267.374 11.5 268.882 12.0333 269.949 13.1C271.015 14.1667 271.549 15.675 271.549 17.625V19.025H261.499C261.499 20.0583 261.707 20.8833 262.124 21.5C262.557 22.1167 263.09 22.5667 263.724 22.85C264.374 23.1167 265.024 23.25 265.674 23.25C266.674 23.25 267.44 23.0833 267.974 22.75C268.524 22.4167 268.915 21.9583 269.149 21.375H271.299C271.032 22.6417 270.374 23.6083 269.324 24.275C268.29 24.925 267.074 25.25 265.674 25.25ZM265.549 13.5C264.865 13.5 264.215 13.6333 263.599 13.9C262.982 14.15 262.474 14.55 262.074 15.1C261.69 15.65 261.499 16.3583 261.499 17.225H269.474C269.457 16.3083 269.265 15.5833 268.899 15.05C268.549 14.5 268.082 14.1083 267.499 13.875C266.915 13.625 266.265 13.5 265.549 13.5ZM276.807 25L273.182 11.75H275.582L278.132 22L281.582 11.75H283.532L287.107 22L289.632 11.75H291.932L288.307 25H286.107L282.507 14.75L279.007 25H276.807ZM15 55.125C14.0667 55.125 13.3 54.9833 12.7 54.7C12.1167 54.4167 11.6833 53.9917 11.4 53.425C11.1333 52.8417 11 52.1167 11 51.25V43.7H9V41.75H11V38.75H13.2V41.75H16.75V43.7H13.2V51C13.2 51.75 13.3583 52.2917 13.675 52.625C13.9917 52.9583 14.6 53.125 15.5 53.125C16 53.125 16.5 53.1 17 53.05V55C16.6833 55.0333 16.3667 55.0583 16.05 55.075C15.7333 55.1083 15.3833 55.125 15 55.125ZM25.6348 55.25C24.5181 55.25 23.4681 55.0083 22.4848 54.525C21.5181 54.025 20.7348 53.275 20.1348 52.275C19.5514 51.275 19.2598 50.0167 19.2598 48.5V48C19.2598 46.5667 19.5514 45.3667 20.1348 44.4C20.7348 43.4333 21.5181 42.7083 22.4848 42.225C23.4681 41.7417 24.5181 41.5 25.6348 41.5C26.7681 41.5 27.8181 41.7417 28.7848 42.225C29.7514 42.7083 30.5264 43.4333 31.1098 44.4C31.7098 45.3667 32.0098 46.5667 32.0098 48V48.5C32.0098 50.0167 31.7098 51.275 31.1098 52.275C30.5264 53.275 29.7514 54.025 28.7848 54.525C27.8181 55.0083 26.7681 55.25 25.6348 55.25ZM25.6348 53.25C26.3181 53.25 26.9681 53.1 27.5848 52.8C28.2181 52.4833 28.7348 51.975 29.1348 51.275C29.5514 50.575 29.7598 49.65 29.7598 48.5V48C29.7598 46.9333 29.5514 46.075 29.1348 45.425C28.7348 44.7583 28.2181 44.275 27.5848 43.975C26.9681 43.6583 26.3181 43.5 25.6348 43.5C24.9681 43.5 24.3181 43.6583 23.6848 43.975C23.0514 44.275 22.5264 44.7583 22.1098 45.425C21.7098 46.075 21.5098 46.9333 21.5098 48V48.5C21.5098 49.65 21.7098 50.575 22.1098 51.275C22.5264 51.975 23.0514 52.4833 23.6848 52.8C24.3181 53.1 24.9681 53.25 25.6348 53.25ZM45.375 55.125C44.4583 55.125 43.7083 54.9833 43.125 54.7C42.5583 54.4 42.1417 53.9417 41.875 53.325C41.625 52.6917 41.5 51.875 41.5 50.875V37.5H43.7V50.875C43.7 51.7417 43.8417 52.3333 44.125 52.65C44.4083 52.9667 44.9083 53.125 45.625 53.125C45.8083 53.125 45.9667 53.125 46.1 53.125C46.2333 53.1083 46.3667 53.0917 46.5 53.075V55.025C46.4167 55.0417 46.3 55.0583 46.15 55.075C46.0167 55.0917 45.875 55.1 45.725 55.1C45.5917 55.1167 45.475 55.125 45.375 55.125ZM49.6328 55V41.75H51.8328V55H49.6328ZM50.7328 40C50.2995 40 49.9411 39.8583 49.6578 39.575C49.3745 39.2917 49.2328 38.9333 49.2328 38.5C49.2328 38.0667 49.3745 37.7083 49.6578 37.425C49.9411 37.1417 50.2995 37 50.7328 37C51.1661 37 51.5245 37.1417 51.8078 37.425C52.0911 37.7083 52.2328 38.0667 52.2328 38.5C52.2328 38.9333 52.0911 39.2917 51.8078 39.575C51.5245 39.8583 51.1661 40 50.7328 40ZM56.0723 55V41.75H58.1223V44.25C58.4223 43.5167 58.9473 42.875 59.6973 42.325C60.4639 41.775 61.4473 41.5 62.6473 41.5C64.3139 41.5 65.5473 41.95 66.3473 42.85C67.1639 43.7333 67.5723 45.0333 67.5723 46.75V55H65.3723V47.25C65.3723 46.0167 65.1139 45.0833 64.5973 44.45C64.0806 43.8167 63.2139 43.5 61.9973 43.5C61.1306 43.5 60.4223 43.6833 59.8723 44.05C59.3223 44.4167 58.9139 44.8833 58.6473 45.45C58.3973 46.0167 58.2723 46.6167 58.2723 47.25V55H56.0723ZM76.9531 55.25C75.8365 55.25 74.7865 55.0083 73.8031 54.525C72.8365 54.0417 72.0531 53.3 71.4531 52.3C70.8698 51.3 70.5781 50.0333 70.5781 48.5V48C70.5781 46.5333 70.8615 45.325 71.4281 44.375C71.9948 43.4083 72.7448 42.6917 73.6781 42.225C74.6115 41.7417 75.6198 41.5 76.7031 41.5C78.6531 41.5 80.1615 42.0333 81.2281 43.1C82.2948 44.1667 82.8281 45.675 82.8281 47.625V49.025H72.7781C72.7781 50.0583 72.9865 50.8833 73.4031 51.5C73.8365 52.1167 74.3698 52.5667 75.0031 52.85C75.6531 53.1167 76.3031 53.25 76.9531 53.25C77.9531 53.25 78.7198 53.0833 79.2531 52.75C79.8031 52.4167 80.1948 51.9583 80.4281 51.375H82.5781C82.3115 52.6417 81.6531 53.6083 80.6031 54.275C79.5698 54.925 78.3531 55.25 76.9531 55.25ZM76.8281 43.5C76.1448 43.5 75.4948 43.6333 74.8781 43.9C74.2615 44.15 73.7531 44.55 73.3531 45.1C72.9698 45.65 72.7781 46.3583 72.7781 47.225H80.7531C80.7365 46.3083 80.5448 45.5833 80.1781 45.05C79.8281 44.5 79.3615 44.1083 78.7781 43.875C78.1948 43.625 77.5448 43.5 76.8281 43.5ZM89.7301 55.25C88.7634 55.25 87.9384 55.075 87.2551 54.725C86.5884 54.3583 86.0801 53.8667 85.7301 53.25C85.3801 52.6167 85.2051 51.9083 85.2051 51.125C85.2051 49.8083 85.5884 48.8583 86.3551 48.275C87.1384 47.6917 88.2551 47.4 89.7051 47.4H94.0051V46.5C94.0051 45.3667 93.7467 44.5833 93.2301 44.15C92.7301 43.7167 91.9717 43.5 90.9551 43.5C90.0051 43.5 89.3134 43.6833 88.8801 44.05C88.4467 44.4 88.2051 44.8 88.1551 45.25H85.9551C86.0051 44.5333 86.2467 43.9 86.6801 43.35C87.1134 42.7833 87.7051 42.3333 88.4551 42C89.2051 41.6667 90.0801 41.5 91.0801 41.5C92.1301 41.5 93.0384 41.6667 93.8051 42C94.5717 42.3167 95.1634 42.825 95.5801 43.525C95.9967 44.2083 96.2051 45.1167 96.2051 46.25V51.625C96.2051 52.325 96.2051 52.9417 96.2051 53.475C96.2217 53.9917 96.2634 54.5 96.3301 55H94.4051C94.3551 54.6167 94.3217 54.2583 94.3051 53.925C94.2884 53.575 94.2801 53.1833 94.2801 52.75C93.9301 53.45 93.3634 54.0417 92.5801 54.525C91.7967 55.0083 90.8467 55.25 89.7301 55.25ZM90.2051 53.25C90.9051 53.25 91.5384 53.125 92.1051 52.875C92.6884 52.625 93.1467 52.2583 93.4801 51.775C93.8301 51.2917 94.0051 50.7 94.0051 50V49.1H90.0801C89.2634 49.1 88.6217 49.2667 88.1551 49.6C87.6884 49.9167 87.4551 50.425 87.4551 51.125C87.4551 51.7417 87.6717 52.25 88.1051 52.65C88.5551 53.05 89.2551 53.25 90.2051 53.25ZM100.091 55V41.75H102.141V44.25C102.341 43.7167 102.616 43.25 102.966 42.85C103.316 42.4333 103.741 42.1083 104.241 41.875C104.757 41.625 105.332 41.5 105.966 41.5C106.299 41.5 106.566 41.5167 106.766 41.55C106.982 41.5833 107.174 41.625 107.341 41.675V43.725C107.124 43.6417 106.907 43.5833 106.691 43.55C106.491 43.5167 106.207 43.5 105.841 43.5C105.174 43.5 104.574 43.6583 104.041 43.975C103.507 44.2917 103.082 44.7333 102.766 45.3C102.449 45.85 102.291 46.5 102.291 47.25V55H100.091ZM119.857 55.25C118.89 55.25 118.065 55.075 117.382 54.725C116.715 54.3583 116.207 53.8667 115.857 53.25C115.507 52.6167 115.332 51.9083 115.332 51.125C115.332 49.8083 115.715 48.8583 116.482 48.275C117.265 47.6917 118.382 47.4 119.832 47.4H124.132V46.5C124.132 45.3667 123.874 44.5833 123.357 44.15C122.857 43.7167 122.099 43.5 121.082 43.5C120.132 43.5 119.44 43.6833 119.007 44.05C118.574 44.4 118.332 44.8 118.282 45.25H116.082C116.132 44.5333 116.374 43.9 116.807 43.35C117.24 42.7833 117.832 42.3333 118.582 42C119.332 41.6667 120.207 41.5 121.207 41.5C122.257 41.5 123.165 41.6667 123.932 42C124.699 42.3167 125.29 42.825 125.707 43.525C126.124 44.2083 126.332 45.1167 126.332 46.25V51.625C126.332 52.325 126.332 52.9417 126.332 53.475C126.349 53.9917 126.39 54.5 126.457 55H124.532C124.482 54.6167 124.449 54.2583 124.432 53.925C124.415 53.575 124.407 53.1833 124.407 52.75C124.057 53.45 123.49 54.0417 122.707 54.525C121.924 55.0083 120.974 55.25 119.857 55.25ZM120.332 53.25C121.032 53.25 121.665 53.125 122.232 52.875C122.815 52.625 123.274 52.2583 123.607 51.775C123.957 51.2917 124.132 50.7 124.132 50V49.1H120.207C119.39 49.1 118.749 49.2667 118.282 49.6C117.815 49.9167 117.582 50.425 117.582 51.125C117.582 51.7417 117.799 52.25 118.232 52.65C118.682 53.05 119.382 53.25 120.332 53.25ZM134.218 55.125C133.301 55.125 132.551 54.9833 131.968 54.7C131.401 54.4 130.984 53.9417 130.718 53.325C130.468 52.6917 130.343 51.875 130.343 50.875V37.5H132.543V50.875C132.543 51.7417 132.684 52.3333 132.968 52.65C133.251 52.9667 133.751 53.125 134.468 53.125C134.651 53.125 134.809 53.125 134.943 53.125C135.076 53.1083 135.209 53.0917 135.343 53.075V55.025C135.259 55.0417 135.143 55.0583 134.993 55.075C134.859 55.0917 134.718 55.1 134.568 55.1C134.434 55.1167 134.318 55.125 134.218 55.125ZM143.231 60.25C141.948 60.25 140.906 60.0833 140.106 59.75C139.306 59.4167 138.715 58.9667 138.331 58.4C137.948 57.8333 137.706 57.2 137.606 56.5H139.906C140.073 57.0333 140.39 57.4583 140.856 57.775C141.323 58.0917 142.115 58.25 143.231 58.25C144.581 58.25 145.573 57.925 146.206 57.275C146.84 56.625 147.156 55.7 147.156 54.5V52.375C146.773 53.2583 146.181 53.9167 145.381 54.35C144.598 54.7833 143.673 55 142.606 55C141.523 55 140.565 54.75 139.731 54.25C138.898 53.75 138.248 53.0083 137.781 52.025C137.331 51.0417 137.106 49.825 137.106 48.375V47.875C137.106 46.5083 137.34 45.3583 137.806 44.425C138.29 43.475 138.94 42.75 139.756 42.25C140.59 41.75 141.54 41.5 142.606 41.5C143.74 41.5 144.723 41.7583 145.556 42.275C146.39 42.775 146.973 43.4333 147.306 44.25V41.75H149.356V54.5C149.356 56.3 148.831 57.7083 147.781 58.725C146.731 59.7417 145.215 60.25 143.231 60.25ZM143.106 53.05C143.906 53.05 144.606 52.8833 145.206 52.55C145.823 52.2167 146.298 51.7583 146.631 51.175C146.981 50.575 147.156 49.8917 147.156 49.125V47.125C147.156 46.4417 146.981 45.825 146.631 45.275C146.298 44.725 145.823 44.2833 145.206 43.95C144.606 43.6167 143.906 43.45 143.106 43.45C142.04 43.45 141.14 43.8417 140.406 44.625C139.673 45.4083 139.306 46.4917 139.306 47.875V48.375C139.306 49.8917 139.673 51.05 140.406 51.85C141.14 52.65 142.04 53.05 143.106 53.05ZM158.862 55.25C157.746 55.25 156.696 55.0083 155.712 54.525C154.746 54.0417 153.962 53.3 153.362 52.3C152.779 51.3 152.487 50.0333 152.487 48.5V48C152.487 46.5333 152.771 45.325 153.337 44.375C153.904 43.4083 154.654 42.6917 155.587 42.225C156.521 41.7417 157.529 41.5 158.612 41.5C160.562 41.5 162.071 42.0333 163.137 43.1C164.204 44.1667 164.737 45.675 164.737 47.625V49.025H154.687C154.687 50.0583 154.896 50.8833 155.312 51.5C155.746 52.1167 156.279 52.5667 156.912 52.85C157.562 53.1167 158.212 53.25 158.862 53.25C159.862 53.25 160.629 53.0833 161.162 52.75C161.712 52.4167 162.104 51.9583 162.337 51.375H164.487C164.221 52.6417 163.562 53.6083 162.512 54.275C161.479 54.925 160.262 55.25 158.862 55.25ZM158.737 43.5C158.054 43.5 157.404 43.6333 156.787 43.9C156.171 44.15 155.662 44.55 155.262 45.1C154.879 45.65 154.687 46.3583 154.687 47.225H162.662C162.646 46.3083 162.454 45.5833 162.087 45.05C161.737 44.5 161.271 44.1083 160.687 43.875C160.104 43.625 159.454 43.5 158.737 43.5ZM174.614 55.25C173.481 55.25 172.498 55 171.664 54.5C170.831 53.9833 170.248 53.3167 169.914 52.5V55H167.864V37.5H170.064V44.125C170.448 43.3083 171.031 42.6667 171.814 42.2C172.614 41.7333 173.548 41.5 174.614 41.5C176.264 41.5 177.589 42.05 178.589 43.15C179.606 44.2333 180.114 45.85 180.114 48V48.5C180.114 50 179.881 51.25 179.414 52.25C178.964 53.25 178.323 54 177.489 54.5C176.673 55 175.714 55.25 174.614 55.25ZM174.114 53.3C175.198 53.3 176.098 52.8917 176.814 52.075C177.548 51.2583 177.914 50.0667 177.914 48.5V48C177.914 46.55 177.548 45.4333 176.814 44.65C176.098 43.85 175.198 43.45 174.114 43.45C173.314 43.45 172.606 43.6167 171.989 43.95C171.389 44.2833 170.914 44.7417 170.564 45.325C170.231 45.8917 170.064 46.5333 170.064 47.25V49.25C170.064 50.05 170.231 50.7583 170.564 51.375C170.914 51.975 171.389 52.45 171.989 52.8C172.606 53.1333 173.314 53.3 174.114 53.3ZM183.245 55V41.75H185.295V44.25C185.495 43.7167 185.77 43.25 186.12 42.85C186.47 42.4333 186.895 42.1083 187.395 41.875C187.912 41.625 188.487 41.5 189.12 41.5C189.453 41.5 189.72 41.5167 189.92 41.55C190.137 41.5833 190.328 41.625 190.495 41.675V43.725C190.278 43.6417 190.062 43.5833 189.845 43.55C189.645 43.5167 189.362 43.5 188.995 43.5C188.328 43.5 187.728 43.6583 187.195 43.975C186.662 44.2917 186.237 44.7333 185.92 45.3C185.603 45.85 185.445 46.5 185.445 47.25V55H183.245ZM196.517 55.25C195.551 55.25 194.726 55.075 194.042 54.725C193.376 54.3583 192.867 53.8667 192.517 53.25C192.167 52.6167 191.992 51.9083 191.992 51.125C191.992 49.8083 192.376 48.8583 193.142 48.275C193.926 47.6917 195.042 47.4 196.492 47.4H200.792V46.5C200.792 45.3667 200.534 44.5833 200.017 44.15C199.517 43.7167 198.759 43.5 197.742 43.5C196.792 43.5 196.101 43.6833 195.667 44.05C195.234 44.4 194.992 44.8 194.942 45.25H192.742C192.792 44.5333 193.034 43.9 193.467 43.35C193.901 42.7833 194.492 42.3333 195.242 42C195.992 41.6667 196.867 41.5 197.867 41.5C198.917 41.5 199.826 41.6667 200.592 42C201.359 42.3167 201.951 42.825 202.367 43.525C202.784 44.2083 202.992 45.1167 202.992 46.25V51.625C202.992 52.325 202.992 52.9417 202.992 53.475C203.009 53.9917 203.051 54.5 203.117 55H201.192C201.142 54.6167 201.109 54.2583 201.092 53.925C201.076 53.575 201.067 53.1833 201.067 52.75C200.717 53.45 200.151 54.0417 199.367 54.525C198.584 55.0083 197.634 55.25 196.517 55.25ZM196.992 53.25C197.692 53.25 198.326 53.125 198.892 52.875C199.476 52.625 199.934 52.2583 200.267 51.775C200.617 51.2917 200.792 50.7 200.792 50V49.1H196.867C196.051 49.1 195.409 49.2667 194.942 49.6C194.476 49.9167 194.242 50.425 194.242 51.125C194.242 51.7417 194.459 52.25 194.892 52.65C195.342 53.05 196.042 53.25 196.992 53.25ZM218.628 55.25C217.511 55.25 216.461 55.0083 215.478 54.525C214.511 54.025 213.728 53.275 213.128 52.275C212.545 51.275 212.253 50.0167 212.253 48.5V48C212.253 46.5667 212.545 45.3667 213.128 44.4C213.728 43.4333 214.511 42.7083 215.478 42.225C216.461 41.7417 217.511 41.5 218.628 41.5C219.761 41.5 220.811 41.7417 221.778 42.225C222.745 42.7083 223.52 43.4333 224.103 44.4C224.703 45.3667 225.003 46.5667 225.003 48V48.5C225.003 50.0167 224.703 51.275 224.103 52.275C223.52 53.275 222.745 54.025 221.778 54.525C220.811 55.0083 219.761 55.25 218.628 55.25ZM218.628 53.25C219.311 53.25 219.961 53.1 220.578 52.8C221.211 52.4833 221.728 51.975 222.128 51.275C222.545 50.575 222.753 49.65 222.753 48.5V48C222.753 46.9333 222.545 46.075 222.128 45.425C221.728 44.7583 221.211 44.275 220.578 43.975C219.961 43.6583 219.311 43.5 218.628 43.5C217.961 43.5 217.311 43.6583 216.678 43.975C216.045 44.275 215.52 44.7583 215.103 45.425C214.703 46.075 214.503 46.9333 214.503 48V48.5C214.503 49.65 214.703 50.575 215.103 51.275C215.52 51.975 216.045 52.4833 216.678 52.8C217.311 53.1 217.961 53.25 218.628 53.25ZM228.118 55V41.75H230.168V44.25C230.368 43.7167 230.643 43.25 230.993 42.85C231.343 42.4333 231.768 42.1083 232.268 41.875C232.785 41.625 233.36 41.5 233.993 41.5C234.326 41.5 234.593 41.5167 234.793 41.55C235.01 41.5833 235.201 41.625 235.368 41.675V43.725C235.151 43.6417 234.935 43.5833 234.718 43.55C234.518 43.5167 234.235 43.5 233.868 43.5C233.201 43.5 232.601 43.6583 232.068 43.975C231.535 44.2917 231.11 44.7333 230.793 45.3C230.476 45.85 230.318 46.5 230.318 47.25V55H228.118ZM244.109 55V41.75H246.159V44.25C246.459 43.5167 246.984 42.875 247.734 42.325C248.501 41.775 249.484 41.5 250.684 41.5C252.351 41.5 253.584 41.95 254.384 42.85C255.201 43.7333 255.609 45.0333 255.609 46.75V55H253.409V47.25C253.409 46.0167 253.151 45.0833 252.634 44.45C252.118 43.8167 251.251 43.5 250.034 43.5C249.168 43.5 248.459 43.6833 247.909 44.05C247.359 44.4167 246.951 44.8833 246.684 45.45C246.434 46.0167 246.309 46.6167 246.309 47.25V55H244.109ZM264.99 55.25C263.874 55.25 262.824 55.0083 261.84 54.525C260.874 54.0417 260.09 53.3 259.49 52.3C258.907 51.3 258.615 50.0333 258.615 48.5V48C258.615 46.5333 258.899 45.325 259.465 44.375C260.032 43.4083 260.782 42.6917 261.715 42.225C262.649 41.7417 263.657 41.5 264.74 41.5C266.69 41.5 268.199 42.0333 269.265 43.1C270.332 44.1667 270.865 45.675 270.865 47.625V49.025H260.815C260.815 50.0583 261.024 50.8833 261.44 51.5C261.874 52.1167 262.407 52.5667 263.04 52.85C263.69 53.1167 264.34 53.25 264.99 53.25C265.99 53.25 266.757 53.0833 267.29 52.75C267.84 52.4167 268.232 51.9583 268.465 51.375H270.615C270.349 52.6417 269.69 53.6083 268.64 54.275C267.607 54.925 266.39 55.25 264.99 55.25ZM264.865 43.5C264.182 43.5 263.532 43.6333 262.915 43.9C262.299 44.15 261.79 44.55 261.39 45.1C261.007 45.65 260.815 46.3583 260.815 47.225H268.79C268.774 46.3083 268.582 45.5833 268.215 45.05C267.865 44.5 267.399 44.1083 266.815 43.875C266.232 43.625 265.582 43.5 264.865 43.5ZM279.492 55.25C278.376 55.25 277.326 55.0083 276.342 54.525C275.376 54.0417 274.592 53.3 273.992 52.3C273.409 51.3 273.117 50.0333 273.117 48.5V48C273.117 46.5333 273.401 45.325 273.967 44.375C274.534 43.4083 275.284 42.6917 276.217 42.225C277.151 41.7417 278.159 41.5 279.242 41.5C281.192 41.5 282.701 42.0333 283.767 43.1C284.834 44.1667 285.367 45.675 285.367 47.625V49.025H275.317C275.317 50.0583 275.526 50.8833 275.942 51.5C276.376 52.1167 276.909 52.5667 277.542 52.85C278.192 53.1167 278.842 53.25 279.492 53.25C280.492 53.25 281.259 53.0833 281.792 52.75C282.342 52.4167 282.734 51.9583 282.967 51.375H285.117C284.851 52.6417 284.192 53.6083 283.142 54.275C282.109 54.925 280.892 55.25 279.492 55.25ZM279.367 43.5C278.684 43.5 278.034 43.6333 277.417 43.9C276.801 44.15 276.292 44.55 275.892 45.1C275.509 45.65 275.317 46.3583 275.317 47.225H283.292C283.276 46.3083 283.084 45.5833 282.717 45.05C282.367 44.5 281.901 44.1083 281.317 43.875C280.734 43.625 280.084 43.5 279.367 43.5ZM293.119 55.25C292.036 55.25 291.077 55 290.244 54.5C289.411 54 288.761 53.25 288.294 52.25C287.844 51.25 287.619 50 287.619 48.5V48C287.619 46.6 287.852 45.4167 288.319 44.45C288.802 43.4833 289.452 42.75 290.269 42.25C291.102 41.75 292.052 41.5 293.119 41.5C294.186 41.5 295.111 41.7333 295.894 42.2C296.694 42.6667 297.286 43.3083 297.669 44.125V37.5H299.869V55H297.819V52.5C297.486 53.3167 296.902 53.9833 296.069 54.5C295.236 55 294.252 55.25 293.119 55.25ZM293.619 53.3C294.419 53.3 295.119 53.1333 295.719 52.8C296.336 52.45 296.811 51.975 297.144 51.375C297.494 50.7583 297.669 50.05 297.669 49.25V47.25C297.669 46.5333 297.494 45.8917 297.144 45.325C296.811 44.7417 296.336 44.2833 295.719 43.95C295.119 43.6167 294.419 43.45 293.619 43.45C292.552 43.45 291.652 43.85 290.919 44.65C290.186 45.4333 289.819 46.55 289.819 48V48.5C289.819 50.0667 290.186 51.2583 290.919 52.075C291.652 52.8917 292.552 53.3 293.619 53.3ZM85.9581 85.25C84.9914 85.25 84.1664 85.075 83.4831 84.725C82.8164 84.3583 82.3081 83.8667 81.9581 83.25C81.6081 82.6167 81.4331 81.9083 81.4331 81.125C81.4331 79.8083 81.8164 78.8583 82.5831 78.275C83.3664 77.6917 84.4831 77.4 85.9331 77.4H90.2331V76.5C90.2331 75.3667 89.9748 74.5833 89.4581 74.15C88.9581 73.7167 88.1998 73.5 87.1831 73.5C86.2331 73.5 85.5414 73.6833 85.1081 74.05C84.6748 74.4 84.4331 74.8 84.3831 75.25H82.1831C82.2331 74.5333 82.4748 73.9 82.9081 73.35C83.3414 72.7833 83.9331 72.3333 84.6831 72C85.4331 71.6667 86.3081 71.5 87.3081 71.5C88.3581 71.5 89.2664 71.6667 90.0331 72C90.7998 72.3167 91.3914 72.825 91.8081 73.525C92.2248 74.2083 92.4331 75.1167 92.4331 76.25V81.625C92.4331 82.325 92.4331 82.9417 92.4331 83.475C92.4498 83.9917 92.4914 84.5 92.5581 85H90.6331C90.5831 84.6167 90.5498 84.2583 90.5331 83.925C90.5164 83.575 90.5081 83.1833 90.5081 82.75C90.1581 83.45 89.5914 84.0417 88.8081 84.525C88.0248 85.0083 87.0748 85.25 85.9581 85.25ZM86.4331 83.25C87.1331 83.25 87.7664 83.125 88.3331 82.875C88.9164 82.625 89.3748 82.2583 89.7081 81.775C90.0581 81.2917 90.2331 80.7 90.2331 80V79.1H86.3081C85.4914 79.1 84.8498 79.2667 84.3831 79.6C83.9164 79.9167 83.6831 80.425 83.6831 81.125C83.6831 81.7417 83.8998 82.25 84.3331 82.65C84.7831 83.05 85.4831 83.25 86.4331 83.25ZM102.569 85V71.75H104.619V74.25C104.819 73.7167 105.094 73.25 105.444 72.85C105.794 72.4333 106.219 72.1083 106.719 71.875C107.236 71.625 107.811 71.5 108.444 71.5C108.777 71.5 109.044 71.5167 109.244 71.55C109.461 71.5833 109.652 71.625 109.819 71.675V73.725C109.602 73.6417 109.386 73.5833 109.169 73.55C108.969 73.5167 108.686 73.5 108.319 73.5C107.652 73.5 107.052 73.6583 106.519 73.975C105.986 74.2917 105.561 74.7333 105.244 75.3C104.927 75.85 104.769 76.5 104.769 77.25V85H102.569ZM117.566 85.25C116.449 85.25 115.399 85.0083 114.416 84.525C113.449 84.0417 112.666 83.3 112.066 82.3C111.483 81.3 111.191 80.0333 111.191 78.5V78C111.191 76.5333 111.474 75.325 112.041 74.375C112.608 73.4083 113.358 72.6917 114.291 72.225C115.224 71.7417 116.233 71.5 117.316 71.5C119.266 71.5 120.774 72.0333 121.841 73.1C122.908 74.1667 123.441 75.675 123.441 77.625V79.025H113.391C113.391 80.0583 113.599 80.8833 114.016 81.5C114.449 82.1167 114.983 82.5667 115.616 82.85C116.266 83.1167 116.916 83.25 117.566 83.25C118.566 83.25 119.333 83.0833 119.866 82.75C120.416 82.4167 120.808 81.9583 121.041 81.375H123.191C122.924 82.6417 122.266 83.6083 121.216 84.275C120.183 84.925 118.966 85.25 117.566 85.25ZM117.441 73.5C116.758 73.5 116.108 73.6333 115.491 73.9C114.874 74.15 114.366 74.55 113.966 75.1C113.583 75.65 113.391 76.3583 113.391 77.225H121.366C121.349 76.3083 121.158 75.5833 120.791 75.05C120.441 74.5 119.974 74.1083 119.391 73.875C118.808 73.625 118.158 73.5 117.441 73.5ZM127.074 85V73.7H125.199V71.75H127.074V71.5C127.074 70.5667 127.215 69.8 127.499 69.2C127.782 68.5833 128.215 68.125 128.799 67.825C129.399 67.525 130.157 67.375 131.074 67.375C131.324 67.375 131.607 67.3833 131.924 67.4C132.24 67.4 132.582 67.4167 132.949 67.45V69.45C132.699 69.4167 132.424 69.4 132.124 69.4C131.84 69.3833 131.574 69.375 131.324 69.375C130.557 69.375 130.024 69.5333 129.724 69.85C129.424 70.15 129.274 70.7 129.274 71.5V71.75H132.699V73.7H129.274V85H127.074ZM135.455 85V71.75H137.505V74.25C137.705 73.7167 137.98 73.25 138.33 72.85C138.68 72.4333 139.105 72.1083 139.605 71.875C140.121 71.625 140.696 71.5 141.33 71.5C141.663 71.5 141.93 71.5167 142.13 71.55C142.346 71.5833 142.538 71.625 142.705 71.675V73.725C142.488 73.6417 142.271 73.5833 142.055 73.55C141.855 73.5167 141.571 73.5 141.205 73.5C140.538 73.5 139.938 73.6583 139.405 73.975C138.871 74.2917 138.446 74.7333 138.13 75.3C137.813 75.85 137.655 76.5 137.655 77.25V85H135.455ZM150.452 85.25C149.335 85.25 148.285 85.0083 147.302 84.525C146.335 84.0417 145.552 83.3 144.952 82.3C144.368 81.3 144.077 80.0333 144.077 78.5V78C144.077 76.5333 144.36 75.325 144.927 74.375C145.493 73.4083 146.243 72.6917 147.177 72.225C148.11 71.7417 149.118 71.5 150.202 71.5C152.152 71.5 153.66 72.0333 154.727 73.1C155.793 74.1667 156.327 75.675 156.327 77.625V79.025H146.277C146.277 80.0583 146.485 80.8833 146.902 81.5C147.335 82.1167 147.868 82.5667 148.502 82.85C149.152 83.1167 149.802 83.25 150.452 83.25C151.452 83.25 152.218 83.0833 152.752 82.75C153.302 82.4167 153.693 81.9583 153.927 81.375H156.077C155.81 82.6417 155.152 83.6083 154.102 84.275C153.068 84.925 151.852 85.25 150.452 85.25ZM150.327 73.5C149.643 73.5 148.993 73.6333 148.377 73.9C147.76 74.15 147.252 74.55 146.852 75.1C146.468 75.65 146.277 76.3583 146.277 77.225H154.252C154.235 76.3083 154.043 75.5833 153.677 75.05C153.327 74.5 152.86 74.1083 152.277 73.875C151.693 73.625 151.043 73.5 150.327 73.5ZM164.079 85.25C163.195 85.25 162.429 85.15 161.779 84.95C161.129 84.7333 160.587 84.45 160.154 84.1C159.72 83.75 159.37 83.3417 159.104 82.875C158.854 82.3917 158.679 81.8917 158.579 81.375H160.779C160.895 81.9083 161.204 82.375 161.704 82.775C162.22 83.1583 163.012 83.35 164.079 83.35C165.312 83.35 166.17 83.1583 166.654 82.775C167.137 82.375 167.379 81.9083 167.379 81.375C167.379 81.0083 167.27 80.6917 167.054 80.425C166.854 80.1417 166.487 79.9 165.954 79.7C165.437 79.5 164.695 79.3333 163.729 79.2C162.995 79.1 162.337 78.9583 161.754 78.775C161.17 78.575 160.67 78.3167 160.254 78C159.837 77.6833 159.512 77.3 159.279 76.85C159.062 76.4 158.954 75.8667 158.954 75.25C158.954 74.5833 159.145 73.9667 159.529 73.4C159.912 72.8333 160.487 72.375 161.254 72.025C162.02 71.675 162.962 71.5 164.079 71.5C165.129 71.5 165.995 71.6833 166.679 72.05C167.379 72.4 167.92 72.8667 168.304 73.45C168.687 74.0333 168.945 74.675 169.079 75.375H166.879C166.745 74.7917 166.462 74.3167 166.029 73.95C165.595 73.5833 164.945 73.4 164.079 73.4C162.995 73.4 162.237 73.5833 161.804 73.95C161.37 74.3 161.154 74.7333 161.154 75.25C161.154 75.85 161.387 76.3 161.854 76.6C162.337 76.9 163.212 77.1333 164.479 77.3C165.295 77.4 166.02 77.55 166.654 77.75C167.287 77.9333 167.82 78.1917 168.254 78.525C168.687 78.8417 169.012 79.2333 169.229 79.7C169.462 80.1667 169.579 80.725 169.579 81.375C169.579 82.075 169.379 82.7167 168.979 83.3C168.579 83.8833 167.97 84.3583 167.154 84.725C166.354 85.075 165.329 85.25 164.079 85.25ZM172.71 85V67.5H174.91V74.125C175.144 73.6583 175.46 73.225 175.86 72.825C176.26 72.425 176.744 72.1083 177.31 71.875C177.894 71.625 178.552 71.5 179.285 71.5C180.952 71.5 182.185 71.95 182.985 72.85C183.802 73.7333 184.21 75.0333 184.21 76.75V85H182.01V77.25C182.01 76.0167 181.752 75.0833 181.235 74.45C180.719 73.8167 179.852 73.5 178.635 73.5C177.769 73.5 177.06 73.6833 176.51 74.05C175.96 74.4167 175.552 74.8833 175.285 75.45C175.035 76.0167 174.91 76.6167 174.91 77.25V85H172.71ZM193.591 85.25C192.475 85.25 191.425 85.0083 190.441 84.525C189.475 84.0417 188.691 83.3 188.091 82.3C187.508 81.3 187.216 80.0333 187.216 78.5V78C187.216 76.5333 187.5 75.325 188.066 74.375C188.633 73.4083 189.383 72.6917 190.316 72.225C191.25 71.7417 192.258 71.5 193.341 71.5C195.291 71.5 196.8 72.0333 197.866 73.1C198.933 74.1667 199.466 75.675 199.466 77.625V79.025H189.416C189.416 80.0583 189.625 80.8833 190.041 81.5C190.475 82.1167 191.008 82.5667 191.641 82.85C192.291 83.1167 192.941 83.25 193.591 83.25C194.591 83.25 195.358 83.0833 195.891 82.75C196.441 82.4167 196.833 81.9583 197.066 81.375H199.216C198.95 82.6417 198.291 83.6083 197.241 84.275C196.208 84.925 194.991 85.25 193.591 85.25ZM193.466 73.5C192.783 73.5 192.133 73.6333 191.516 73.9C190.9 74.15 190.391 74.55 189.991 75.1C189.608 75.65 189.416 76.3583 189.416 77.225H197.391C197.375 76.3083 197.183 75.5833 196.816 75.05C196.466 74.5 196 74.1083 195.416 73.875C194.833 73.625 194.183 73.5 193.466 73.5ZM202.593 85V71.75H204.643V74.25C204.843 73.7167 205.118 73.25 205.468 72.85C205.818 72.4333 206.243 72.1083 206.743 71.875C207.26 71.625 207.835 71.5 208.468 71.5C208.802 71.5 209.068 71.5167 209.268 71.55C209.485 71.5833 209.677 71.625 209.843 71.675V73.725C209.627 73.6417 209.41 73.5833 209.193 73.55C208.993 73.5167 208.71 73.5 208.343 73.5C207.677 73.5 207.077 73.6583 206.543 73.975C206.01 74.2917 205.585 74.7333 205.268 75.3C204.952 75.85 204.793 76.5 204.793 77.25V85H202.593ZM211.082 85.25C210.765 85.25 210.473 85.1667 210.207 85C209.94 84.85 209.723 84.6417 209.557 84.375C209.407 84.1083 209.332 83.8167 209.332 83.5C209.332 83 209.498 82.5833 209.832 82.25C210.182 81.9167 210.598 81.75 211.082 81.75C211.565 81.75 211.973 81.9167 212.307 82.25C212.657 82.5833 212.832 83 212.832 83.5C212.832 83.8167 212.748 84.1083 212.582 84.375C212.432 84.6417 212.223 84.85 211.957 85C211.707 85.1667 211.415 85.25 211.082 85.25ZM218.577 85.25C218.26 85.25 217.968 85.1667 217.702 85C217.435 84.85 217.218 84.6417 217.052 84.375C216.902 84.1083 216.827 83.8167 216.827 83.5C216.827 83 216.993 82.5833 217.327 82.25C217.677 81.9167 218.093 81.75 218.577 81.75C219.06 81.75 219.468 81.9167 219.802 82.25C220.152 82.5833 220.327 83 220.327 83.5C220.327 83.8167 220.243 84.1083 220.077 84.375C219.927 84.6417 219.718 84.85 219.452 85C219.202 85.1667 218.91 85.25 218.577 85.25ZM226.072 85.25C225.755 85.25 225.463 85.1667 225.197 85C224.93 84.85 224.713 84.6417 224.547 84.375C224.397 84.1083 224.322 83.8167 224.322 83.5C224.322 83 224.488 82.5833 224.822 82.25C225.172 81.9167 225.588 81.75 226.072 81.75C226.555 81.75 226.963 81.9167 227.297 82.25C227.647 82.5833 227.822 83 227.822 83.5C227.822 83.8167 227.738 84.1083 227.572 84.375C227.422 84.6417 227.213 84.85 226.947 85C226.697 85.1667 226.405 85.25 226.072 85.25Z" fill="#E7EFF9"/>
<path d="M156.014 104.769C155.61 104.209 154.829 104.082 154.269 104.486C153.709 104.89 153.582 105.671 153.986 106.231L156.014 104.769ZM347.148 146.494C347.421 145.86 347.128 145.125 346.494 144.852L336.162 140.402C335.528 140.129 334.792 140.422 334.519 141.056C334.246 141.69 334.539 142.425 335.173 142.698L344.358 146.654L340.402 155.838C340.129 156.472 340.422 157.208 341.056 157.481C341.69 157.754 342.425 157.461 342.698 156.827L347.148 146.494ZM155 105.5L153.986 106.231C173.021 132.626 208.918 147.712 245.985 153.796C283.074 159.883 321.692 157.019 346.462 147.161L346 146L345.538 144.839C321.308 154.481 283.176 157.367 246.39 151.329C209.582 145.288 174.479 130.374 156.014 104.769L155 105.5Z" fill="#E7EFF9"/>
</svg>
