<svg width="353" height="160" viewBox="0 0 353 160" fill="none" xmlns="http://www.w3.org/2000/svg">
<path d="M123.099 31.25C122.782 31.25 122.49 31.1667 122.224 31C121.957 30.85 121.74 30.6417 121.574 30.375C121.424 30.1083 121.349 29.8167 121.349 29.5C121.349 29 121.515 28.5833 121.849 28.25C122.199 27.9167 122.615 27.75 123.099 27.75C123.582 27.75 123.99 27.9167 124.324 28.25C124.674 28.5833 124.849 29 124.849 29.5C124.849 29.8167 124.765 30.1083 124.599 30.375C124.449 30.6417 124.24 30.85 123.974 31C123.724 31.1667 123.432 31.25 123.099 31.25ZM130.594 31.25C130.277 31.25 129.985 31.1667 129.719 31C129.452 30.85 129.235 30.6417 129.069 30.375C128.919 30.1083 128.844 29.8167 128.844 29.5C128.844 29 129.01 28.5833 129.344 28.25C129.694 27.9167 130.11 27.75 130.594 27.75C131.077 27.75 131.485 27.9167 131.819 28.25C132.169 28.5833 132.344 29 132.344 29.5C132.344 29.8167 132.26 30.1083 132.094 30.375C131.944 30.6417 131.735 30.85 131.469 31C131.219 31.1667 130.927 31.25 130.594 31.25ZM138.089 31.25C137.772 31.25 137.481 31.1667 137.214 31C136.947 30.85 136.731 30.6417 136.564 30.375C136.414 30.1083 136.339 29.8167 136.339 29.5C136.339 29 136.506 28.5833 136.839 28.25C137.189 27.9167 137.606 27.75 138.089 27.75C138.572 27.75 138.981 27.9167 139.314 28.25C139.664 28.5833 139.839 29 139.839 29.5C139.839 29.8167 139.756 30.1083 139.589 30.375C139.439 30.6417 139.231 30.85 138.964 31C138.714 31.1667 138.422 31.25 138.089 31.25ZM148.846 31.25C147.729 31.25 146.679 31.0083 145.696 30.525C144.729 30.025 143.946 29.275 143.346 28.275C142.762 27.275 142.471 26.0167 142.471 24.5V24C142.471 22.5667 142.762 21.3667 143.346 20.4C143.946 19.4333 144.729 18.7083 145.696 18.225C146.679 17.7417 147.729 17.5 148.846 17.5C149.979 17.5 151.029 17.7417 151.996 18.225C152.962 18.7083 153.737 19.4333 154.321 20.4C154.921 21.3667 155.221 22.5667 155.221 24V24.5C155.221 26.0167 154.921 27.275 154.321 28.275C153.737 29.275 152.962 30.025 151.996 30.525C151.029 31.0083 149.979 31.25 148.846 31.25ZM148.846 29.25C149.529 29.25 150.179 29.1 150.796 28.8C151.429 28.4833 151.946 27.975 152.346 27.275C152.762 26.575 152.971 25.65 152.971 24.5V24C152.971 22.9333 152.762 22.075 152.346 21.425C151.946 20.7583 151.429 20.275 150.796 19.975C150.179 19.6583 149.529 19.5 148.846 19.5C148.179 19.5 147.529 19.6583 146.896 19.975C146.262 20.275 145.737 20.7583 145.321 21.425C144.921 22.075 144.721 22.9333 144.721 24V24.5C144.721 25.65 144.921 26.575 145.321 27.275C145.737 27.975 146.262 28.4833 146.896 28.8C147.529 29.1 148.179 29.25 148.846 29.25ZM158.336 31V17.75H160.386V20.25C160.586 19.7167 160.861 19.25 161.211 18.85C161.561 18.4333 161.986 18.1083 162.486 17.875C163.003 17.625 163.578 17.5 164.211 17.5C164.544 17.5 164.811 17.5167 165.011 17.55C165.228 17.5833 165.419 17.625 165.586 17.675V19.725C165.369 19.6417 165.153 19.5833 164.936 19.55C164.736 19.5167 164.453 19.5 164.086 19.5C163.419 19.5 162.819 19.6583 162.286 19.975C161.753 20.2917 161.328 20.7333 161.011 21.3C160.694 21.85 160.536 22.5 160.536 23.25V31H158.336ZM174.327 31V13.5H176.527V20.125C176.76 19.6583 177.077 19.225 177.477 18.825C177.877 18.425 178.36 18.1083 178.927 17.875C179.51 17.625 180.169 17.5 180.902 17.5C182.569 17.5 183.802 17.95 184.602 18.85C185.419 19.7333 185.827 21.0333 185.827 22.75V31H183.627V23.25C183.627 22.0167 183.369 21.0833 182.852 20.45C182.335 19.8167 181.469 19.5 180.252 19.5C179.385 19.5 178.677 19.6833 178.127 20.05C177.577 20.4167 177.169 20.8833 176.902 21.45C176.652 22.0167 176.527 22.6167 176.527 23.25V31H174.327ZM195.208 31.25C194.091 31.25 193.041 31.0083 192.058 30.525C191.091 30.0417 190.308 29.3 189.708 28.3C189.125 27.3 188.833 26.0333 188.833 24.5V24C188.833 22.5333 189.116 21.325 189.683 20.375C190.25 19.4083 191 18.6917 191.933 18.225C192.866 17.7417 193.875 17.5 194.958 17.5C196.908 17.5 198.416 18.0333 199.483 19.1C200.55 20.1667 201.083 21.675 201.083 23.625V25.025H191.033C191.033 26.0583 191.241 26.8833 191.658 27.5C192.091 28.1167 192.625 28.5667 193.258 28.85C193.908 29.1167 194.558 29.25 195.208 29.25C196.208 29.25 196.975 29.0833 197.508 28.75C198.058 28.4167 198.45 27.9583 198.683 27.375H200.833C200.566 28.6417 199.908 29.6083 198.858 30.275C197.825 30.925 196.608 31.25 195.208 31.25ZM195.083 19.5C194.4 19.5 193.75 19.6333 193.133 19.9C192.516 20.15 192.008 20.55 191.608 21.1C191.225 21.65 191.033 22.3583 191.033 23.225H199.008C198.991 22.3083 198.8 21.5833 198.433 21.05C198.083 20.5 197.616 20.1083 197.033 19.875C196.45 19.625 195.8 19.5 195.083 19.5ZM204.21 31V17.75H206.26V20.25C206.46 19.7167 206.735 19.25 207.085 18.85C207.435 18.4333 207.86 18.1083 208.36 17.875C208.877 17.625 209.452 17.5 210.085 17.5C210.418 17.5 210.685 17.5167 210.885 17.55C211.102 17.5833 211.293 17.625 211.46 17.675V19.725C211.243 19.6417 211.027 19.5833 210.81 19.55C210.61 19.5167 210.327 19.5 209.96 19.5C209.293 19.5 208.693 19.6583 208.16 19.975C207.627 20.2917 207.202 20.7333 206.885 21.3C206.568 21.85 206.41 22.5 206.41 23.25V31H204.21ZM219.207 31.25C218.09 31.25 217.04 31.0083 216.057 30.525C215.09 30.0417 214.307 29.3 213.707 28.3C213.124 27.3 212.832 26.0333 212.832 24.5V24C212.832 22.5333 213.115 21.325 213.682 20.375C214.249 19.4083 214.999 18.6917 215.932 18.225C216.865 17.7417 217.874 17.5 218.957 17.5C220.907 17.5 222.415 18.0333 223.482 19.1C224.549 20.1667 225.082 21.675 225.082 23.625V25.025H215.032C215.032 26.0583 215.24 26.8833 215.657 27.5C216.09 28.1167 216.624 28.5667 217.257 28.85C217.907 29.1167 218.557 29.25 219.207 29.25C220.207 29.25 220.974 29.0833 221.507 28.75C222.057 28.4167 222.449 27.9583 222.682 27.375H224.832C224.565 28.6417 223.907 29.6083 222.857 30.275C221.824 30.925 220.607 31.25 219.207 31.25ZM219.082 19.5C218.399 19.5 217.749 19.6333 217.132 19.9C216.515 20.15 216.007 20.55 215.607 21.1C215.224 21.65 215.032 22.3583 215.032 23.225H223.007C222.99 22.3083 222.799 21.5833 222.432 21.05C222.082 20.5 221.615 20.1083 221.032 19.875C220.449 19.625 219.799 19.5 219.082 19.5ZM234.709 31V17.75H236.909V31H234.709ZM235.809 16C235.376 16 235.017 15.8583 234.734 15.575C234.451 15.2917 234.309 14.9333 234.309 14.5C234.309 14.0667 234.451 13.7083 234.734 13.425C235.017 13.1417 235.376 13 235.809 13C236.242 13 236.601 13.1417 236.884 13.425C237.167 13.7083 237.309 14.0667 237.309 14.5C237.309 14.9333 237.167 15.2917 236.884 15.575C236.601 15.8583 236.242 16 235.809 16ZM241.898 31V19.7H240.023V17.75H241.898V17.5C241.898 16.5667 242.04 15.8 242.323 15.2C242.607 14.5833 243.04 14.125 243.623 13.825C244.223 13.525 244.982 13.375 245.898 13.375C246.148 13.375 246.432 13.3833 246.748 13.4C247.065 13.4 247.407 13.4167 247.773 13.45V15.45C247.523 15.4167 247.248 15.4 246.948 15.4C246.665 15.3833 246.398 15.375 246.148 15.375C245.382 15.375 244.848 15.5333 244.548 15.85C244.248 16.15 244.098 16.7 244.098 17.5V17.75H247.523V19.7H244.098V31H241.898ZM258.279 36.25C258.029 36.25 257.779 36.225 257.529 36.175V34.175C257.779 34.225 258.029 34.25 258.279 34.25C258.613 34.25 258.888 34.1667 259.104 34C259.338 33.85 259.571 33.5417 259.804 33.075C260.038 32.6083 260.321 31.9167 260.654 31L255.029 17.75H257.479L261.779 28.5L265.679 17.75H268.029L263.029 31C262.563 32.25 262.113 33.2583 261.679 34.025C261.263 34.7917 260.788 35.35 260.254 35.7C259.738 36.0667 259.079 36.25 258.279 36.25ZM275.53 31.25C274.414 31.25 273.364 31.0083 272.38 30.525C271.414 30.025 270.63 29.275 270.03 28.275C269.447 27.275 269.155 26.0167 269.155 24.5V24C269.155 22.5667 269.447 21.3667 270.03 20.4C270.63 19.4333 271.414 18.7083 272.38 18.225C273.364 17.7417 274.414 17.5 275.53 17.5C276.664 17.5 277.714 17.7417 278.68 18.225C279.647 18.7083 280.422 19.4333 281.005 20.4C281.605 21.3667 281.905 22.5667 281.905 24V24.5C281.905 26.0167 281.605 27.275 281.005 28.275C280.422 29.275 279.647 30.025 278.68 30.525C277.714 31.0083 276.664 31.25 275.53 31.25ZM275.53 29.25C276.214 29.25 276.864 29.1 277.48 28.8C278.114 28.4833 278.63 27.975 279.03 27.275C279.447 26.575 279.655 25.65 279.655 24.5V24C279.655 22.9333 279.447 22.075 279.03 21.425C278.63 20.7583 278.114 20.275 277.48 19.975C276.864 19.6583 276.214 19.5 275.53 19.5C274.864 19.5 274.214 19.6583 273.58 19.975C272.947 20.275 272.422 20.7583 272.005 21.425C271.605 22.075 271.405 22.9333 271.405 24V24.5C271.405 25.65 271.605 26.575 272.005 27.275C272.422 27.975 272.947 28.4833 273.58 28.8C274.214 29.1 274.864 29.25 275.53 29.25ZM289.696 31.25C288.096 31.25 286.896 30.7917 286.096 29.875C285.296 28.9583 284.896 27.5417 284.896 25.625V17.75H287.096V25.5C287.096 26.7333 287.346 27.6667 287.846 28.3C288.362 28.9333 289.196 29.25 290.346 29.25C291.179 29.25 291.862 29.0667 292.396 28.7C292.929 28.3333 293.321 27.8667 293.571 27.3C293.821 26.7167 293.946 26.1167 293.946 25.5V17.75H296.146V31H294.096V28.5C293.796 29.2333 293.271 29.875 292.521 30.425C291.771 30.975 290.829 31.25 289.696 31.25ZM299.532 20L300.532 16.25V13.5H303.282V16.25L300.782 20H299.532ZM307.652 31V17.75H309.702V20.25C309.902 19.7167 310.177 19.25 310.527 18.85C310.877 18.4333 311.302 18.1083 311.802 17.875C312.319 17.625 312.894 17.5 313.527 17.5C313.861 17.5 314.127 17.5167 314.327 17.55C314.544 17.5833 314.736 17.625 314.902 17.675V19.725C314.686 19.6417 314.469 19.5833 314.252 19.55C314.052 19.5167 313.769 19.5 313.402 19.5C312.736 19.5 312.136 19.6583 311.602 19.975C311.069 20.2917 310.644 20.7333 310.327 21.3C310.011 21.85 309.852 22.5 309.852 23.25V31H307.652ZM322.649 31.25C321.533 31.25 320.483 31.0083 319.499 30.525C318.533 30.0417 317.749 29.3 317.149 28.3C316.566 27.3 316.274 26.0333 316.274 24.5V24C316.274 22.5333 316.558 21.325 317.124 20.375C317.691 19.4083 318.441 18.6917 319.374 18.225C320.308 17.7417 321.316 17.5 322.399 17.5C324.349 17.5 325.858 18.0333 326.924 19.1C327.991 20.1667 328.524 21.675 328.524 23.625V25.025H318.474C318.474 26.0583 318.683 26.8833 319.099 27.5C319.533 28.1167 320.066 28.5667 320.699 28.85C321.349 29.1167 321.999 29.25 322.649 29.25C323.649 29.25 324.416 29.0833 324.949 28.75C325.499 28.4167 325.891 27.9583 326.124 27.375H328.274C328.008 28.6417 327.349 29.6083 326.299 30.275C325.266 30.925 324.049 31.25 322.649 31.25ZM322.524 19.5C321.841 19.5 321.191 19.6333 320.574 19.9C319.958 20.15 319.449 20.55 319.049 21.1C318.666 21.65 318.474 22.3583 318.474 23.225H326.449C326.433 22.3083 326.241 21.5833 325.874 21.05C325.524 20.5 325.058 20.1083 324.474 19.875C323.891 19.625 323.241 19.5 322.524 19.5ZM107.961 61.25C106.994 61.25 106.169 61.075 105.486 60.725C104.819 60.3583 104.311 59.8667 103.961 59.25C103.611 58.6167 103.436 57.9083 103.436 57.125C103.436 55.8083 103.819 54.8583 104.586 54.275C105.369 53.6917 106.486 53.4 107.936 53.4H112.236V52.5C112.236 51.3667 111.977 50.5833 111.461 50.15C110.961 49.7167 110.202 49.5 109.186 49.5C108.236 49.5 107.544 49.6833 107.111 50.05C106.677 50.4 106.436 50.8 106.386 51.25H104.186C104.236 50.5333 104.477 49.9 104.911 49.35C105.344 48.7833 105.936 48.3333 106.686 48C107.436 47.6667 108.311 47.5 109.311 47.5C110.361 47.5 111.269 47.6667 112.036 48C112.802 48.3167 113.394 48.825 113.811 49.525C114.227 50.2083 114.436 51.1167 114.436 52.25V57.625C114.436 58.325 114.436 58.9417 114.436 59.475C114.452 59.9917 114.494 60.5 114.561 61H112.636C112.586 60.6167 112.552 60.2583 112.536 59.925C112.519 59.575 112.511 59.1833 112.511 58.75C112.161 59.45 111.594 60.0417 110.811 60.525C110.027 61.0083 109.077 61.25 107.961 61.25ZM108.436 59.25C109.136 59.25 109.769 59.125 110.336 58.875C110.919 58.625 111.377 58.2583 111.711 57.775C112.061 57.2917 112.236 56.7 112.236 56V55.1H108.311C107.494 55.1 106.852 55.2667 106.386 55.6C105.919 55.9167 105.686 56.425 105.686 57.125C105.686 57.7417 105.902 58.25 106.336 58.65C106.786 59.05 107.486 59.25 108.436 59.25ZM122.321 61.125C121.405 61.125 120.655 60.9833 120.071 60.7C119.505 60.4 119.088 59.9417 118.821 59.325C118.571 58.6917 118.446 57.875 118.446 56.875V43.5H120.646V56.875C120.646 57.7417 120.788 58.3333 121.071 58.65C121.355 58.9667 121.855 59.125 122.571 59.125C122.755 59.125 122.913 59.125 123.046 59.125C123.18 59.1083 123.313 59.0917 123.446 59.075V61.025C123.363 61.0417 123.246 61.0583 123.096 61.075C122.963 61.0917 122.821 61.1 122.671 61.1C122.538 61.1167 122.421 61.125 122.321 61.125ZM126.329 61V47.75H128.379V50.25C128.579 49.7167 128.854 49.25 129.204 48.85C129.554 48.4333 129.979 48.1083 130.479 47.875C130.996 47.625 131.571 47.5 132.204 47.5C132.537 47.5 132.804 47.5167 133.004 47.55C133.221 47.5833 133.412 47.625 133.579 47.675V49.725C133.362 49.6417 133.146 49.5833 132.929 49.55C132.729 49.5167 132.446 49.5 132.079 49.5C131.412 49.5 130.812 49.6583 130.279 49.975C129.746 50.2917 129.321 50.7333 129.004 51.3C128.687 51.85 128.529 52.5 128.529 53.25V61H126.329ZM141.326 61.25C140.21 61.25 139.16 61.0083 138.176 60.525C137.21 60.0417 136.426 59.3 135.826 58.3C135.243 57.3 134.951 56.0333 134.951 54.5V54C134.951 52.5333 135.235 51.325 135.801 50.375C136.368 49.4083 137.118 48.6917 138.051 48.225C138.985 47.7417 139.993 47.5 141.076 47.5C143.026 47.5 144.535 48.0333 145.601 49.1C146.668 50.1667 147.201 51.675 147.201 53.625V55.025H137.151C137.151 56.0583 137.36 56.8833 137.776 57.5C138.21 58.1167 138.743 58.5667 139.376 58.85C140.026 59.1167 140.676 59.25 141.326 59.25C142.326 59.25 143.093 59.0833 143.626 58.75C144.176 58.4167 144.568 57.9583 144.801 57.375H146.951C146.685 58.6417 146.026 59.6083 144.976 60.275C143.943 60.925 142.726 61.25 141.326 61.25ZM141.201 49.5C140.518 49.5 139.868 49.6333 139.251 49.9C138.635 50.15 138.126 50.55 137.726 51.1C137.343 51.65 137.151 52.3583 137.151 53.225H145.126C145.11 52.3083 144.918 51.5833 144.551 51.05C144.201 50.5 143.735 50.1083 143.151 49.875C142.568 49.625 141.918 49.5 141.201 49.5ZM154.103 61.25C153.136 61.25 152.311 61.075 151.628 60.725C150.961 60.3583 150.453 59.8667 150.103 59.25C149.753 58.6167 149.578 57.9083 149.578 57.125C149.578 55.8083 149.961 54.8583 150.728 54.275C151.511 53.6917 152.628 53.4 154.078 53.4H158.378V52.5C158.378 51.3667 158.12 50.5833 157.603 50.15C157.103 49.7167 156.345 49.5 155.328 49.5C154.378 49.5 153.686 49.6833 153.253 50.05C152.82 50.4 152.578 50.8 152.528 51.25H150.328C150.378 50.5333 150.62 49.9 151.053 49.35C151.486 48.7833 152.078 48.3333 152.828 48C153.578 47.6667 154.453 47.5 155.453 47.5C156.503 47.5 157.411 47.6667 158.178 48C158.945 48.3167 159.536 48.825 159.953 49.525C160.37 50.2083 160.578 51.1167 160.578 52.25V57.625C160.578 58.325 160.578 58.9417 160.578 59.475C160.595 59.9917 160.636 60.5 160.703 61H158.778C158.728 60.6167 158.695 60.2583 158.678 59.925C158.661 59.575 158.653 59.1833 158.653 58.75C158.303 59.45 157.736 60.0417 156.953 60.525C156.17 61.0083 155.22 61.25 154.103 61.25ZM154.578 59.25C155.278 59.25 155.911 59.125 156.478 58.875C157.061 58.625 157.52 58.2583 157.853 57.775C158.203 57.2917 158.378 56.7 158.378 56V55.1H154.453C153.636 55.1 152.995 55.2667 152.528 55.6C152.061 55.9167 151.828 56.425 151.828 57.125C151.828 57.7417 152.045 58.25 152.478 58.65C152.928 59.05 153.628 59.25 154.578 59.25ZM169.089 61.25C168.006 61.25 167.047 61 166.214 60.5C165.381 60 164.731 59.25 164.264 58.25C163.814 57.25 163.589 56 163.589 54.5V54C163.589 52.6 163.822 51.4167 164.289 50.45C164.772 49.4833 165.422 48.75 166.239 48.25C167.072 47.75 168.022 47.5 169.089 47.5C170.156 47.5 171.081 47.7333 171.864 48.2C172.664 48.6667 173.256 49.3083 173.639 50.125V43.5H175.839V61H173.789V58.5C173.456 59.3167 172.872 59.9833 172.039 60.5C171.206 61 170.222 61.25 169.089 61.25ZM169.589 59.3C170.389 59.3 171.089 59.1333 171.689 58.8C172.306 58.45 172.781 57.975 173.114 57.375C173.464 56.7583 173.639 56.05 173.639 55.25V53.25C173.639 52.5333 173.464 51.8917 173.114 51.325C172.781 50.7417 172.306 50.2833 171.689 49.95C171.089 49.6167 170.389 49.45 169.589 49.45C168.522 49.45 167.622 49.85 166.889 50.65C166.156 51.4333 165.789 52.55 165.789 54V54.5C165.789 56.0667 166.156 57.2583 166.889 58.075C167.622 58.8917 168.522 59.3 169.589 59.3ZM181.595 66.25C181.345 66.25 181.095 66.225 180.845 66.175V64.175C181.095 64.225 181.345 64.25 181.595 64.25C181.928 64.25 182.203 64.1667 182.42 64C182.653 63.85 182.886 63.5417 183.12 63.075C183.353 62.6083 183.636 61.9167 183.97 61L178.345 47.75H180.795L185.095 58.5L188.995 47.75H191.345L186.345 61C185.878 62.25 185.428 63.2583 184.995 64.025C184.578 64.7917 184.103 65.35 183.57 65.7C183.053 66.0667 182.395 66.25 181.595 66.25ZM200.834 61V49.7H198.959V47.75H200.834V47.5C200.834 46.5667 200.976 45.8 201.259 45.2C201.542 44.5833 201.976 44.125 202.559 43.825C203.159 43.525 203.917 43.375 204.834 43.375C205.084 43.375 205.367 43.3833 205.684 43.4C206.001 43.4 206.342 43.4167 206.709 43.45V45.45C206.459 45.4167 206.184 45.4 205.884 45.4C205.601 45.3833 205.334 45.375 205.084 45.375C204.317 45.375 203.784 45.5333 203.484 45.85C203.184 46.15 203.034 46.7 203.034 47.5V47.75H206.459V49.7H203.034V61H200.834ZM212.502 61.25C211.535 61.25 210.71 61.075 210.027 60.725C209.36 60.3583 208.852 59.8667 208.502 59.25C208.152 58.6167 207.977 57.9083 207.977 57.125C207.977 55.8083 208.36 54.8583 209.127 54.275C209.91 53.6917 211.027 53.4 212.477 53.4H216.777V52.5C216.777 51.3667 216.518 50.5833 216.002 50.15C215.502 49.7167 214.743 49.5 213.727 49.5C212.777 49.5 212.085 49.6833 211.652 50.05C211.218 50.4 210.977 50.8 210.927 51.25H208.727C208.777 50.5333 209.018 49.9 209.452 49.35C209.885 48.7833 210.477 48.3333 211.227 48C211.977 47.6667 212.852 47.5 213.852 47.5C214.902 47.5 215.81 47.6667 216.577 48C217.343 48.3167 217.935 48.825 218.352 49.525C218.768 50.2083 218.977 51.1167 218.977 52.25V57.625C218.977 58.325 218.977 58.9417 218.977 59.475C218.993 59.9917 219.035 60.5 219.102 61H217.177C217.127 60.6167 217.093 60.2583 217.077 59.925C217.06 59.575 217.052 59.1833 217.052 58.75C216.702 59.45 216.135 60.0417 215.352 60.525C214.568 61.0083 213.618 61.25 212.502 61.25ZM212.977 59.25C213.677 59.25 214.31 59.125 214.877 58.875C215.46 58.625 215.918 58.2583 216.252 57.775C216.602 57.2917 216.777 56.7 216.777 56V55.1H212.852C212.035 55.1 211.393 55.2667 210.927 55.6C210.46 55.9167 210.227 56.425 210.227 57.125C210.227 57.7417 210.443 58.25 210.877 58.65C211.327 59.05 212.027 59.25 212.977 59.25ZM222.862 61V47.75H224.912V50.25C225.196 49.4333 225.679 48.775 226.362 48.275C227.062 47.7583 227.854 47.5 228.737 47.5C229.887 47.5 230.771 47.75 231.387 48.25C232.004 48.7333 232.429 49.3583 232.662 50.125C233.096 49.3083 233.646 48.6667 234.312 48.2C234.996 47.7333 235.812 47.5 236.762 47.5C238.129 47.5 239.196 47.9167 239.962 48.75C240.729 49.5667 241.112 50.8583 241.112 52.625V61H238.912V53.125C238.912 51.8083 238.679 50.875 238.212 50.325C237.762 49.775 237.071 49.5 236.137 49.5C235.604 49.5 235.104 49.65 234.637 49.95C234.171 50.2333 233.796 50.65 233.512 51.2C233.229 51.7333 233.087 52.375 233.087 53.125V61H230.887V53.125C230.887 51.8083 230.654 50.875 230.187 50.325C229.721 49.775 229.029 49.5 228.112 49.5C227.579 49.5 227.079 49.65 226.612 49.95C226.146 50.2333 225.771 50.65 225.487 51.2C225.204 51.7333 225.062 52.375 225.062 53.125V61H222.862ZM245.231 61V47.75H247.431V61H245.231ZM246.331 46C245.898 46 245.54 45.8583 245.256 45.575C244.973 45.2917 244.831 44.9333 244.831 44.5C244.831 44.0667 244.973 43.7083 245.256 43.425C245.54 43.1417 245.898 43 246.331 43C246.765 43 247.123 43.1417 247.406 43.425C247.69 43.7083 247.831 44.0667 247.831 44.5C247.831 44.9333 247.69 45.2917 247.406 45.575C247.123 45.8583 246.765 46 246.331 46ZM255.671 61.125C254.754 61.125 254.004 60.9833 253.421 60.7C252.854 60.4 252.438 59.9417 252.171 59.325C251.921 58.6917 251.796 57.875 251.796 56.875V43.5H253.996V56.875C253.996 57.7417 254.138 58.3333 254.421 58.65C254.704 58.9667 255.204 59.125 255.921 59.125C256.104 59.125 256.263 59.125 256.396 59.125C256.529 59.1083 256.663 59.0917 256.796 59.075V61.025C256.713 61.0417 256.596 61.0583 256.446 61.075C256.313 61.0917 256.171 61.1 256.021 61.1C255.888 61.1167 255.771 61.125 255.671 61.125ZM259.929 61V47.75H262.129V61H259.929ZM261.029 46C260.595 46 260.237 45.8583 259.954 45.575C259.67 45.2917 259.529 44.9333 259.529 44.5C259.529 44.0667 259.67 43.7083 259.954 43.425C260.237 43.1417 260.595 43 261.029 43C261.462 43 261.82 43.1417 262.104 43.425C262.387 43.7083 262.529 44.0667 262.529 44.5C262.529 44.9333 262.387 45.2917 262.104 45.575C261.82 45.8583 261.462 46 261.029 46ZM270.143 61.25C269.176 61.25 268.351 61.075 267.668 60.725C267.001 60.3583 266.493 59.8667 266.143 59.25C265.793 58.6167 265.618 57.9083 265.618 57.125C265.618 55.8083 266.001 54.8583 266.768 54.275C267.551 53.6917 268.668 53.4 270.118 53.4H274.418V52.5C274.418 51.3667 274.16 50.5833 273.643 50.15C273.143 49.7167 272.385 49.5 271.368 49.5C270.418 49.5 269.726 49.6833 269.293 50.05C268.86 50.4 268.618 50.8 268.568 51.25H266.368C266.418 50.5333 266.66 49.9 267.093 49.35C267.526 48.7833 268.118 48.3333 268.868 48C269.618 47.6667 270.493 47.5 271.493 47.5C272.543 47.5 273.451 47.6667 274.218 48C274.985 48.3167 275.576 48.825 275.993 49.525C276.41 50.2083 276.618 51.1167 276.618 52.25V57.625C276.618 58.325 276.618 58.9417 276.618 59.475C276.635 59.9917 276.676 60.5 276.743 61H274.818C274.768 60.6167 274.735 60.2583 274.718 59.925C274.701 59.575 274.693 59.1833 274.693 58.75C274.343 59.45 273.776 60.0417 272.993 60.525C272.21 61.0083 271.26 61.25 270.143 61.25ZM270.618 59.25C271.318 59.25 271.951 59.125 272.518 58.875C273.101 58.625 273.56 58.2583 273.893 57.775C274.243 57.2917 274.418 56.7 274.418 56V55.1H270.493C269.676 55.1 269.035 55.2667 268.568 55.6C268.101 55.9167 267.868 56.425 267.868 57.125C267.868 57.7417 268.085 58.25 268.518 58.65C268.968 59.05 269.668 59.25 270.618 59.25ZM280.504 61V47.75H282.554V50.25C282.754 49.7167 283.029 49.25 283.379 48.85C283.729 48.4333 284.154 48.1083 284.654 47.875C285.171 47.625 285.746 47.5 286.379 47.5C286.712 47.5 286.979 47.5167 287.179 47.55C287.396 47.5833 287.587 47.625 287.754 47.675V49.725C287.537 49.6417 287.321 49.5833 287.104 49.55C286.904 49.5167 286.621 49.5 286.254 49.5C285.587 49.5 284.987 49.6583 284.454 49.975C283.921 50.2917 283.496 50.7333 283.179 51.3C282.862 51.85 282.704 52.5 282.704 53.25V61H280.504ZM298.87 61L295.245 47.75H297.645L300.195 58L303.645 47.75H305.595L309.17 58L311.695 47.75H313.995L310.37 61H308.17L304.57 50.75L301.07 61H298.87ZM316.984 61V47.75H319.184V61H316.984ZM318.084 46C317.651 46 317.293 45.8583 317.009 45.575C316.726 45.2917 316.584 44.9333 316.584 44.5C316.584 44.0667 316.726 43.7083 317.009 43.425C317.293 43.1417 317.651 43 318.084 43C318.518 43 318.876 43.1417 319.159 43.425C319.443 43.7083 319.584 44.0667 319.584 44.5C319.584 44.9333 319.443 45.2917 319.159 45.575C318.876 45.8583 318.518 46 318.084 46ZM328.299 61.125C327.365 61.125 326.599 60.9833 325.999 60.7C325.415 60.4167 324.982 59.9917 324.699 59.425C324.432 58.8417 324.299 58.1167 324.299 57.25V49.7H322.299V47.75H324.299V44.75H326.499V47.75H330.049V49.7H326.499V57C326.499 57.75 326.657 58.2917 326.974 58.625C327.29 58.9583 327.899 59.125 328.799 59.125C329.299 59.125 329.799 59.1 330.299 59.05V61C329.982 61.0333 329.665 61.0583 329.349 61.075C329.032 61.1083 328.682 61.125 328.299 61.125ZM333.434 61V43.5H335.634V50.125C335.867 49.6583 336.184 49.225 336.584 48.825C336.984 48.425 337.467 48.1083 338.034 47.875C338.617 47.625 339.275 47.5 340.009 47.5C341.675 47.5 342.909 47.95 343.709 48.85C344.525 49.7333 344.934 51.0333 344.934 52.75V61H342.734V53.25C342.734 52.0167 342.475 51.0833 341.959 50.45C341.442 49.8167 340.575 49.5 339.359 49.5C338.492 49.5 337.784 49.6833 337.234 50.05C336.684 50.4167 336.275 50.8833 336.009 51.45C335.759 52.0167 335.634 52.6167 335.634 53.25V61H333.434ZM152.92 91.125C151.987 91.125 151.22 90.9833 150.62 90.7C150.037 90.4167 149.604 89.9917 149.32 89.425C149.054 88.8417 148.92 88.1167 148.92 87.25V79.7H146.92V77.75H148.92V74.75H151.12V77.75H154.67V79.7H151.12V87C151.12 87.75 151.279 88.2917 151.595 88.625C151.912 88.9583 152.52 89.125 153.42 89.125C153.92 89.125 154.42 89.1 154.92 89.05V91C154.604 91.0333 154.287 91.0583 153.97 91.075C153.654 91.1083 153.304 91.125 152.92 91.125ZM158.055 91V73.5H160.255V80.125C160.489 79.6583 160.805 79.225 161.205 78.825C161.605 78.425 162.089 78.1083 162.655 77.875C163.239 77.625 163.897 77.5 164.63 77.5C166.297 77.5 167.53 77.95 168.33 78.85C169.147 79.7333 169.555 81.0333 169.555 82.75V91H167.355V83.25C167.355 82.0167 167.097 81.0833 166.58 80.45C166.064 79.8167 165.197 79.5 163.98 79.5C163.114 79.5 162.405 79.6833 161.855 80.05C161.305 80.4167 160.897 80.8833 160.63 81.45C160.38 82.0167 160.255 82.6167 160.255 83.25V91H158.055ZM178.936 91.25C177.819 91.25 176.769 91.0083 175.786 90.525C174.819 90.0417 174.036 89.3 173.436 88.3C172.853 87.3 172.561 86.0333 172.561 84.5V84C172.561 82.5333 172.844 81.325 173.411 80.375C173.978 79.4083 174.728 78.6917 175.661 78.225C176.594 77.7417 177.603 77.5 178.686 77.5C180.636 77.5 182.144 78.0333 183.211 79.1C184.278 80.1667 184.811 81.675 184.811 83.625V85.025H174.761C174.761 86.0583 174.969 86.8833 175.386 87.5C175.819 88.1167 176.353 88.5667 176.986 88.85C177.636 89.1167 178.286 89.25 178.936 89.25C179.936 89.25 180.703 89.0833 181.236 88.75C181.786 88.4167 182.178 87.9583 182.411 87.375H184.561C184.294 88.6417 183.636 89.6083 182.586 90.275C181.553 90.925 180.336 91.25 178.936 91.25ZM178.811 79.5C178.128 79.5 177.478 79.6333 176.861 79.9C176.244 80.15 175.736 80.55 175.336 81.1C174.953 81.65 174.761 82.3583 174.761 83.225H182.736C182.719 82.3083 182.528 81.5833 182.161 81.05C181.811 80.5 181.344 80.1083 180.761 79.875C180.178 79.625 179.528 79.5 178.811 79.5ZM199.313 91.25C198.18 91.25 197.155 91.0083 196.238 90.525C195.338 90.025 194.621 89.275 194.088 88.275C193.571 87.275 193.313 86.0167 193.313 84.5V84C193.313 82.5667 193.596 81.3667 194.163 80.4C194.73 79.4333 195.471 78.7083 196.388 78.225C197.305 77.7417 198.28 77.5 199.313 77.5C200.363 77.5 201.263 77.6917 202.013 78.075C202.78 78.4417 203.396 78.95 203.863 79.6C204.33 80.2333 204.646 80.95 204.813 81.75H202.563C202.296 81.1167 201.921 80.5833 201.438 80.15C200.971 79.7167 200.263 79.5 199.313 79.5C198.663 79.5 198.055 79.6583 197.488 79.975C196.921 80.275 196.455 80.7583 196.088 81.425C195.738 82.075 195.563 82.9333 195.563 84V84.5C195.563 85.6333 195.738 86.55 196.088 87.25C196.455 87.95 196.921 88.4583 197.488 88.775C198.055 89.0917 198.663 89.25 199.313 89.25C200.13 89.25 200.813 89.05 201.363 88.65C201.93 88.25 202.33 87.7 202.563 87H204.813C204.613 87.8667 204.255 88.625 203.738 89.275C203.221 89.9083 202.588 90.4 201.838 90.75C201.088 91.0833 200.246 91.25 199.313 91.25ZM213.311 91.25C212.194 91.25 211.144 91.0083 210.161 90.525C209.194 90.025 208.411 89.275 207.811 88.275C207.228 87.275 206.936 86.0167 206.936 84.5V84C206.936 82.5667 207.228 81.3667 207.811 80.4C208.411 79.4333 209.194 78.7083 210.161 78.225C211.144 77.7417 212.194 77.5 213.311 77.5C214.444 77.5 215.494 77.7417 216.461 78.225C217.428 78.7083 218.203 79.4333 218.786 80.4C219.386 81.3667 219.686 82.5667 219.686 84V84.5C219.686 86.0167 219.386 87.275 218.786 88.275C218.203 89.275 217.428 90.025 216.461 90.525C215.494 91.0083 214.444 91.25 213.311 91.25ZM213.311 89.25C213.994 89.25 214.644 89.1 215.261 88.8C215.894 88.4833 216.411 87.975 216.811 87.275C217.228 86.575 217.436 85.65 217.436 84.5V84C217.436 82.9333 217.228 82.075 216.811 81.425C216.411 80.7583 215.894 80.275 215.261 79.975C214.644 79.6583 213.994 79.5 213.311 79.5C212.644 79.5 211.994 79.6583 211.361 79.975C210.728 80.275 210.203 80.7583 209.786 81.425C209.386 82.075 209.186 82.9333 209.186 84V84.5C209.186 85.65 209.386 86.575 209.786 87.275C210.203 87.975 210.728 88.4833 211.361 88.8C211.994 89.1 212.644 89.25 213.311 89.25ZM222.801 91V77.75H224.851V80.25C225.151 79.5167 225.676 78.875 226.426 78.325C227.193 77.775 228.176 77.5 229.376 77.5C231.043 77.5 232.276 77.95 233.076 78.85C233.893 79.7333 234.301 81.0333 234.301 82.75V91H232.101V83.25C232.101 82.0167 231.843 81.0833 231.326 80.45C230.81 79.8167 229.943 79.5 228.726 79.5C227.86 79.5 227.151 79.6833 226.601 80.05C226.051 80.4167 225.643 80.8833 225.376 81.45C225.126 82.0167 225.001 82.6167 225.001 83.25V91H222.801ZM243.307 91.25C242.174 91.25 241.149 91.0083 240.232 90.525C239.332 90.025 238.615 89.275 238.082 88.275C237.565 87.275 237.307 86.0167 237.307 84.5V84C237.307 82.5667 237.59 81.3667 238.157 80.4C238.724 79.4333 239.465 78.7083 240.382 78.225C241.299 77.7417 242.274 77.5 243.307 77.5C244.357 77.5 245.257 77.6917 246.007 78.075C246.774 78.4417 247.39 78.95 247.857 79.6C248.324 80.2333 248.64 80.95 248.807 81.75H246.557C246.29 81.1167 245.915 80.5833 245.432 80.15C244.965 79.7167 244.257 79.5 243.307 79.5C242.657 79.5 242.049 79.6583 241.482 79.975C240.915 80.275 240.449 80.7583 240.082 81.425C239.732 82.075 239.557 82.9333 239.557 84V84.5C239.557 85.6333 239.732 86.55 240.082 87.25C240.449 87.95 240.915 88.4583 241.482 88.775C242.049 89.0917 242.657 89.25 243.307 89.25C244.124 89.25 244.807 89.05 245.357 88.65C245.924 88.25 246.324 87.7 246.557 87H248.807C248.607 87.8667 248.249 88.625 247.732 89.275C247.215 89.9083 246.582 90.4 245.832 90.75C245.082 91.0833 244.24 91.25 243.307 91.25ZM257.305 91.25C256.189 91.25 255.139 91.0083 254.155 90.525C253.189 90.0417 252.405 89.3 251.805 88.3C251.222 87.3 250.93 86.0333 250.93 84.5V84C250.93 82.5333 251.214 81.325 251.78 80.375C252.347 79.4083 253.097 78.6917 254.03 78.225C254.964 77.7417 255.972 77.5 257.055 77.5C259.005 77.5 260.514 78.0333 261.58 79.1C262.647 80.1667 263.18 81.675 263.18 83.625V85.025H253.13C253.13 86.0583 253.339 86.8833 253.755 87.5C254.189 88.1167 254.722 88.5667 255.355 88.85C256.005 89.1167 256.655 89.25 257.305 89.25C258.305 89.25 259.072 89.0833 259.605 88.75C260.155 88.4167 260.547 87.9583 260.78 87.375H262.93C262.664 88.6417 262.005 89.6083 260.955 90.275C259.922 90.925 258.705 91.25 257.305 91.25ZM257.18 79.5C256.497 79.5 255.847 79.6333 255.23 79.9C254.614 80.15 254.105 80.55 253.705 81.1C253.322 81.65 253.13 82.3583 253.13 83.225H261.105C261.089 82.3083 260.897 81.5833 260.53 81.05C260.18 80.5 259.714 80.1083 259.13 79.875C258.547 79.625 257.897 79.5 257.18 79.5ZM266.307 96V77.75H268.357V80.25C268.807 79.3667 269.432 78.6917 270.232 78.225C271.049 77.7417 271.99 77.5 273.057 77.5C274.724 77.5 276.057 78.05 277.057 79.15C278.057 80.2333 278.557 81.85 278.557 84V84.5C278.557 86 278.324 87.25 277.857 88.25C277.407 89.25 276.765 90 275.932 90.5C275.115 91 274.157 91.25 273.057 91.25C271.924 91.25 270.974 91 270.207 90.5C269.457 90 268.89 89.375 268.507 88.625V96H266.307ZM272.557 89.3C273.64 89.3 274.54 88.8917 275.257 88.075C275.99 87.2583 276.357 86.0667 276.357 84.5V84C276.357 82.55 275.99 81.4333 275.257 80.65C274.54 79.85 273.64 79.45 272.557 79.45C271.757 79.45 271.049 79.6167 270.432 79.95C269.832 80.2833 269.357 80.7417 269.007 81.325C268.674 81.8917 268.507 82.5333 268.507 83.25V85.25C268.507 86.05 268.674 86.7583 269.007 87.375C269.357 87.975 269.832 88.45 270.432 88.8C271.049 89.1333 271.757 89.3 272.557 89.3ZM286.563 91.125C285.63 91.125 284.863 90.9833 284.263 90.7C283.68 90.4167 283.246 89.9917 282.963 89.425C282.696 88.8417 282.563 88.1167 282.563 87.25V79.7H280.563V77.75H282.563V74.75H284.763V77.75H288.313V79.7H284.763V87C284.763 87.75 284.921 88.2917 285.238 88.625C285.555 88.9583 286.163 89.125 287.063 89.125C287.563 89.125 288.063 89.1 288.563 89.05V91C288.246 91.0333 287.93 91.0583 287.613 91.075C287.296 91.1083 286.946 91.125 286.563 91.125ZM296.323 91.25C295.439 91.25 294.673 91.15 294.023 90.95C293.373 90.7333 292.831 90.45 292.398 90.1C291.964 89.75 291.614 89.3417 291.348 88.875C291.098 88.3917 290.923 87.8917 290.823 87.375H293.023C293.139 87.9083 293.448 88.375 293.948 88.775C294.464 89.1583 295.256 89.35 296.323 89.35C297.556 89.35 298.414 89.1583 298.898 88.775C299.381 88.375 299.623 87.9083 299.623 87.375C299.623 87.0083 299.514 86.6917 299.298 86.425C299.098 86.1417 298.731 85.9 298.198 85.7C297.681 85.5 296.939 85.3333 295.973 85.2C295.239 85.1 294.581 84.9583 293.998 84.775C293.414 84.575 292.914 84.3167 292.498 84C292.081 83.6833 291.756 83.3 291.523 82.85C291.306 82.4 291.198 81.8667 291.198 81.25C291.198 80.5833 291.389 79.9667 291.773 79.4C292.156 78.8333 292.731 78.375 293.498 78.025C294.264 77.675 295.206 77.5 296.323 77.5C297.373 77.5 298.239 77.6833 298.923 78.05C299.623 78.4 300.164 78.8667 300.548 79.45C300.931 80.0333 301.189 80.675 301.323 81.375H299.123C298.989 80.7917 298.706 80.3167 298.273 79.95C297.839 79.5833 297.189 79.4 296.323 79.4C295.239 79.4 294.481 79.5833 294.048 79.95C293.614 80.3 293.398 80.7333 293.398 81.25C293.398 81.85 293.631 82.3 294.098 82.6C294.581 82.9 295.456 83.1333 296.723 83.3C297.539 83.4 298.264 83.55 298.898 83.75C299.531 83.9333 300.064 84.1917 300.498 84.525C300.931 84.8417 301.256 85.2333 301.473 85.7C301.706 86.1667 301.823 86.725 301.823 87.375C301.823 88.075 301.623 88.7167 301.223 89.3C300.823 89.8833 300.214 90.3583 299.398 90.725C298.598 91.075 297.573 91.25 296.323 91.25Z" fill="#E7EFF9"/>
<path d="M195.209 107.032C195.743 106.595 196.53 106.674 196.968 107.209C197.405 107.743 197.326 108.53 196.791 108.968L195.209 107.032ZM3.92164 136.851C3.5725 136.255 3.77227 135.49 4.36783 135.141L14.073 129.451C14.6686 129.102 15.4344 129.302 15.7836 129.897C16.1327 130.493 15.933 131.259 15.3374 131.608L6.71053 136.665L11.7679 145.292C12.1171 145.887 11.9173 146.653 11.3217 147.002C10.7262 147.352 9.96035 147.152 9.61121 146.556L3.92164 136.851ZM196 108L196.791 108.968C179.276 123.294 146.377 134.335 110.439 139.845C74.4599 145.361 35.152 145.376 4.6845 137.428L5 136.219L5.3155 135.009C35.348 142.843 74.2901 142.858 110.061 137.374C145.873 131.883 178.224 120.925 195.209 107.032L196 108Z" fill="#E7EFF9"/>
</svg>
