<svg width="1200" height="600" viewBox="0 0 1200 600" fill="none" xmlns="http://www.w3.org/2000/svg">
<path d="M725.667 450C725.667 452.946 728.054 455.333 731 455.333C733.946 455.333 736.333 452.946 736.333 450C736.333 447.054 733.946 444.667 731 444.667C728.054 444.667 725.667 447.054 725.667 450ZM907.707 450.707C908.098 450.317 908.098 449.683 907.707 449.293L901.343 442.929C900.953 442.538 900.319 442.538 899.929 442.929C899.538 443.319 899.538 443.953 899.929 444.343L905.586 450L899.929 455.657C899.538 456.047 899.538 456.681 899.929 457.071C900.319 457.462 900.953 457.462 901.343 457.071L907.707 450.707ZM731 451H907V449H731V451Z" fill="#656AFF"/>
<path d="M731 455.333C733.946 455.333 736.333 452.946 736.333 450C736.333 447.054 733.946 444.667 731 444.667C728.054 444.667 725.667 447.054 725.667 450C725.667 452.946 728.054 455.333 731 455.333ZM731.707 109.293C731.317 108.902 730.683 108.902 730.293 109.293L723.929 115.657C723.538 116.047 723.538 116.681 723.929 117.071C724.319 117.462 724.953 117.462 725.343 117.071L731 111.414L736.657 117.071C737.047 117.462 737.681 117.462 738.071 117.071C738.462 116.681 738.462 116.047 738.071 115.657L731.707 109.293ZM732 450L732 110L730 110L730 450L732 450Z" fill="#656AFF"/>
<path d="M803.253 469.25C803.253 468.125 802.826 467.563 801.971 467.563C800.892 467.563 799.768 468.215 798.599 469.519C797.429 470.824 796.463 472.825 795.698 475.523C795.653 475.568 795.608 475.635 795.563 475.725C795.518 475.815 795.496 475.883 795.496 475.928C795.496 475.973 795.451 476.017 795.361 476.062C795.271 476.107 795.203 476.13 795.159 476.13C795.114 476.13 795.024 476.13 794.889 476.13C794.754 476.13 794.574 476.13 794.349 476.13H793.405C793.135 475.86 793 475.658 793 475.523C793 475.208 793.18 474.556 793.54 473.567C793.899 472.577 794.439 471.408 795.159 470.059C795.878 468.71 796.867 467.563 798.126 466.619C799.386 465.675 800.802 465.18 802.376 465.135C804.265 465.135 805.726 465.675 806.761 466.754C807.795 467.833 808.334 469.092 808.379 470.531C808.379 471.296 808.312 471.88 808.177 472.285C808.177 472.555 807.84 473.544 807.165 475.253C806.491 476.962 805.794 478.963 805.074 481.256C804.355 483.55 803.95 485.551 803.86 487.26C803.86 488.474 803.972 489.463 804.197 490.228C804.782 492.161 806.198 493.128 808.447 493.128C810.111 493.128 811.662 492.364 813.101 490.835C814.54 489.306 815.664 487.53 816.474 485.506C817.283 483.482 817.935 481.616 818.43 479.907C818.925 478.198 819.172 476.962 819.172 476.197C819.172 475.163 818.992 474.264 818.632 473.499C818.273 472.735 817.868 472.15 817.418 471.745C816.969 471.341 816.564 470.936 816.204 470.531C815.844 470.127 815.664 469.632 815.664 469.047C815.664 468.058 816.092 467.136 816.946 466.282C817.8 465.427 818.722 465 819.712 465C820.566 465 821.331 465.405 822.005 466.214C822.68 467.024 823.039 468.328 823.084 470.127C823.084 471.341 822.815 473.207 822.275 475.725C821.735 478.243 820.903 481.054 819.779 484.157C818.655 487.26 817.058 489.935 814.99 492.184C812.921 494.432 810.538 495.579 807.84 495.624C804.962 495.624 802.668 494.882 800.96 493.398C799.296 491.959 798.464 489.823 798.464 486.99C798.464 485.596 798.644 484.157 799.003 482.673C799.363 481.189 800.285 478.558 801.769 474.781C802.758 471.903 803.253 470.059 803.253 469.25Z" fill="#656AFF"/>
<path d="M834.457 477.435L833.837 477.674C833.391 477.833 832.756 477.992 831.929 478.151C831.102 478.31 830.18 478.421 829.163 478.485H828.257V476.291H829.163C830.657 476.227 832.04 475.989 833.312 475.575C834.584 475.162 835.474 474.781 835.983 474.431C836.491 474.081 836.936 473.731 837.318 473.382C837.381 473.286 837.572 473.239 837.89 473.239C838.176 473.239 838.447 473.334 838.701 473.525V487.784L838.749 502.091C838.971 502.313 839.162 502.457 839.321 502.52C839.48 502.584 839.861 502.647 840.465 502.711C841.069 502.774 842.055 502.806 843.422 502.806H844.662V505H844.138C843.47 504.905 840.942 504.857 836.555 504.857C832.231 504.857 829.735 504.905 829.068 505H828.495V502.806H829.735C830.435 502.806 831.039 502.806 831.547 502.806C832.056 502.806 832.454 502.79 832.74 502.759C833.026 502.727 833.28 502.679 833.503 502.616C833.725 502.552 833.852 502.52 833.884 502.52C833.916 502.52 834.011 502.441 834.17 502.282C834.329 502.123 834.425 502.059 834.457 502.091V477.435Z" fill="#656AFF"/>
<path d="M667.253 264.25C667.253 263.125 666.826 262.563 665.971 262.563C664.892 262.563 663.768 263.215 662.599 264.519C661.429 265.824 660.463 267.825 659.698 270.523C659.653 270.568 659.608 270.635 659.563 270.725C659.518 270.815 659.496 270.883 659.496 270.928C659.496 270.973 659.451 271.017 659.361 271.062C659.271 271.107 659.203 271.13 659.159 271.13C659.114 271.13 659.024 271.13 658.889 271.13C658.754 271.13 658.574 271.13 658.349 271.13H657.405C657.135 270.86 657 270.658 657 270.523C657 270.208 657.18 269.556 657.54 268.567C657.899 267.577 658.439 266.408 659.159 265.059C659.878 263.71 660.867 262.563 662.126 261.619C663.386 260.675 664.802 260.18 666.376 260.135C668.265 260.135 669.726 260.675 670.761 261.754C671.795 262.833 672.334 264.092 672.379 265.531C672.379 266.296 672.312 266.88 672.177 267.285C672.177 267.555 671.84 268.544 671.165 270.253C670.491 271.962 669.794 273.963 669.074 276.256C668.355 278.55 667.95 280.551 667.86 282.26C667.86 283.474 667.972 284.463 668.197 285.228C668.782 287.161 670.198 288.128 672.447 288.128C674.111 288.128 675.662 287.364 677.101 285.835C678.54 284.306 679.664 282.53 680.474 280.506C681.283 278.482 681.935 276.616 682.43 274.907C682.925 273.198 683.172 271.962 683.172 271.197C683.172 270.163 682.992 269.264 682.632 268.499C682.273 267.735 681.868 267.15 681.418 266.745C680.969 266.341 680.564 265.936 680.204 265.531C679.844 265.127 679.664 264.632 679.664 264.047C679.664 263.058 680.092 262.136 680.946 261.282C681.8 260.427 682.722 260 683.712 260C684.566 260 685.331 260.405 686.005 261.214C686.68 262.024 687.039 263.328 687.084 265.127C687.084 266.341 686.815 268.207 686.275 270.725C685.735 273.243 684.903 276.054 683.779 279.157C682.655 282.26 681.058 284.935 678.99 287.184C676.921 289.432 674.538 290.579 671.84 290.624C668.962 290.624 666.668 289.882 664.96 288.398C663.296 286.959 662.464 284.823 662.464 281.99C662.464 280.596 662.644 279.157 663.003 277.673C663.363 276.189 664.285 273.558 665.769 269.781C666.758 266.903 667.253 265.059 667.253 264.25Z" fill="#656AFF"/>
<path d="M693.497 279.541C692.638 279.541 691.955 279.255 691.446 278.683C690.937 278.11 690.683 277.411 690.683 276.584C690.683 274.327 691.525 272.372 693.21 270.718C694.895 269.065 696.994 268.239 699.505 268.239C702.399 268.239 704.815 269.129 706.754 270.909C708.694 272.69 709.679 274.995 709.711 277.824C709.711 279.191 709.393 280.495 708.757 281.735C708.121 282.975 707.358 284.056 706.468 284.978C705.578 285.9 704.306 287.076 702.653 288.507C701.508 289.492 699.919 290.955 697.884 292.894L695.07 295.565L698.695 295.613C703.686 295.613 706.341 295.533 706.659 295.374C706.881 295.311 707.263 293.896 707.803 291.13V290.987H709.711V291.13C709.679 291.225 709.473 292.672 709.091 295.469C708.71 298.267 708.471 299.73 708.376 299.857V300H690.683V299.094V298.522C690.683 298.299 690.778 298.061 690.969 297.806C691.16 297.552 691.637 296.996 692.4 296.137C693.322 295.12 694.117 294.23 694.784 293.467C695.07 293.149 695.611 292.56 696.406 291.702C697.2 290.844 697.741 290.255 698.027 289.937C698.313 289.62 698.774 289.095 699.41 288.364C700.046 287.632 700.491 287.092 700.745 286.742C701 286.393 701.365 285.916 701.842 285.312C702.319 284.707 702.653 284.199 702.844 283.785C703.035 283.372 703.273 282.911 703.559 282.402C703.845 281.894 704.052 281.385 704.179 280.876C704.306 280.368 704.418 279.891 704.513 279.446C704.608 279.001 704.656 278.476 704.656 277.872C704.656 275.869 704.115 274.136 703.035 272.674C701.954 271.211 700.412 270.48 698.409 270.48C697.359 270.48 696.437 270.75 695.643 271.291C694.848 271.831 694.291 272.356 693.973 272.865C693.656 273.373 693.497 273.675 693.497 273.771C693.497 273.802 693.576 273.818 693.735 273.818C694.307 273.818 694.895 274.041 695.5 274.486C696.104 274.931 696.406 275.662 696.406 276.68C696.406 277.475 696.151 278.142 695.643 278.683C695.134 279.223 694.419 279.509 693.497 279.541Z" fill="#656AFF"/>
</svg>
