<svg width="1200" height="600" viewBox="0 0 1200 600" fill="none" xmlns="http://www.w3.org/2000/svg">
<path d="M725.667 450C725.667 452.946 728.054 455.333 731 455.333C733.946 455.333 736.333 452.946 736.333 450C736.333 447.054 733.946 444.667 731 444.667C728.054 444.667 725.667 447.054 725.667 450ZM907.707 450.707C908.098 450.317 908.098 449.683 907.707 449.293L901.343 442.929C900.953 442.538 900.319 442.538 899.929 442.929C899.538 443.319 899.538 443.953 899.929 444.343L905.586 450L899.929 455.657C899.538 456.047 899.538 456.681 899.929 457.071C900.319 457.462 900.953 457.462 901.343 457.071L907.707 450.707ZM731 450V451H907V450V449H731V450Z" fill="#656AFF"/>
<path d="M731 455.333C733.946 455.333 736.333 452.946 736.333 450C736.333 447.054 733.946 444.667 731 444.667C728.054 444.667 725.667 447.054 725.667 450C725.667 452.946 728.054 455.333 731 455.333ZM731.707 109.293C731.317 108.902 730.683 108.902 730.293 109.293L723.929 115.657C723.538 116.047 723.538 116.681 723.929 117.071C724.319 117.462 724.953 117.462 725.343 117.071L731 111.414L736.657 117.071C737.047 117.462 737.681 117.462 738.071 117.071C738.462 116.681 738.462 116.047 738.071 115.657L731.707 109.293ZM731 450L732 450L732 110L731 110L730 110L730 450L731 450Z" fill="#656AFF"/>
<path d="M809.38 476.644C809.38 475.945 809.114 475.595 808.583 475.595C807.911 475.595 807.211 476.001 806.484 476.812C805.756 477.624 805.155 478.869 804.679 480.548C804.651 480.576 804.623 480.618 804.595 480.674C804.567 480.73 804.553 480.772 804.553 480.8C804.553 480.828 804.525 480.856 804.469 480.884C804.413 480.912 804.371 480.926 804.343 480.926C804.315 480.926 804.259 480.926 804.175 480.926C804.091 480.926 803.979 480.926 803.839 480.926H803.252C803.084 480.758 803 480.632 803 480.548C803 480.352 803.112 479.946 803.336 479.331C803.56 478.715 803.895 477.988 804.343 477.148C804.791 476.309 805.407 475.595 806.19 475.007C806.974 474.42 807.855 474.112 808.834 474.084C810.01 474.084 810.919 474.42 811.563 475.091C812.206 475.763 812.542 476.546 812.57 477.442C812.57 477.918 812.528 478.281 812.444 478.533C812.444 478.701 812.234 479.317 811.815 480.38C811.395 481.443 810.961 482.689 810.513 484.116C810.066 485.543 809.814 486.788 809.758 487.851C809.758 488.607 809.828 489.223 809.968 489.698C810.331 490.901 811.213 491.503 812.612 491.503C813.647 491.503 814.613 491.027 815.508 490.076C816.404 489.125 817.103 488.019 817.607 486.76C818.111 485.501 818.516 484.34 818.824 483.276C819.132 482.213 819.286 481.443 819.286 480.968C819.286 480.324 819.174 479.764 818.95 479.289C818.726 478.813 818.474 478.449 818.195 478.197C817.915 477.946 817.663 477.694 817.439 477.442C817.215 477.19 817.103 476.882 817.103 476.518C817.103 475.903 817.369 475.329 817.901 474.797C818.432 474.266 819.006 474 819.622 474C820.153 474 820.629 474.252 821.049 474.756C821.469 475.259 821.692 476.071 821.72 477.19C821.72 477.946 821.552 479.107 821.217 480.674C820.881 482.241 820.363 483.99 819.664 485.921C818.964 487.851 817.971 489.516 816.684 490.915C815.396 492.315 813.913 493.028 812.234 493.056C810.443 493.056 809.016 492.594 807.953 491.671C806.918 490.776 806.4 489.446 806.4 487.683C806.4 486.816 806.512 485.921 806.736 484.997C806.96 484.074 807.533 482.437 808.457 480.086C809.072 478.295 809.38 477.148 809.38 476.644Z" fill="#656AFF"/>
<path d="M828.797 481.738L828.411 481.887C828.134 481.985 827.738 482.084 827.224 482.183C826.71 482.282 826.136 482.351 825.503 482.391H824.939V481.026H825.503C826.433 480.986 827.293 480.838 828.085 480.581C828.876 480.324 829.43 480.086 829.746 479.869C830.063 479.651 830.34 479.433 830.577 479.216C830.617 479.156 830.736 479.127 830.933 479.127C831.111 479.127 831.28 479.186 831.438 479.305V488.178L831.468 497.08C831.606 497.219 831.725 497.308 831.824 497.347C831.923 497.387 832.16 497.427 832.536 497.466C832.912 497.506 833.525 497.526 834.376 497.526H835.147V498.891H834.821C834.405 498.831 832.833 498.802 830.103 498.802C827.412 498.802 825.859 498.831 825.443 498.891H825.087V497.526H825.859C826.294 497.526 826.67 497.526 826.987 497.526C827.303 497.526 827.55 497.516 827.728 497.496C827.907 497.476 828.065 497.446 828.203 497.407C828.342 497.367 828.421 497.347 828.441 497.347C828.46 497.347 828.52 497.298 828.619 497.199C828.718 497.1 828.777 497.061 828.797 497.08V481.738Z" fill="#656AFF"/>
<path d="M680.38 270.754C680.38 270.054 680.114 269.704 679.583 269.704C678.911 269.704 678.211 270.11 677.484 270.922C676.756 271.733 676.155 272.978 675.679 274.657C675.651 274.685 675.623 274.727 675.595 274.783C675.567 274.839 675.553 274.881 675.553 274.909C675.553 274.937 675.525 274.965 675.469 274.993C675.413 275.021 675.371 275.035 675.343 275.035C675.315 275.035 675.259 275.035 675.175 275.035C675.091 275.035 674.979 275.035 674.839 275.035H674.252C674.084 274.867 674 274.741 674 274.657C674 274.461 674.112 274.056 674.336 273.44C674.56 272.824 674.895 272.097 675.343 271.257C675.791 270.418 676.407 269.704 677.19 269.117C677.974 268.529 678.855 268.221 679.834 268.193C681.01 268.193 681.919 268.529 682.563 269.201C683.206 269.872 683.542 270.656 683.57 271.551C683.57 272.027 683.528 272.391 683.444 272.643C683.444 272.81 683.234 273.426 682.815 274.489C682.395 275.553 681.961 276.798 681.513 278.225C681.066 279.652 680.814 280.897 680.758 281.961C680.758 282.716 680.828 283.332 680.968 283.808C681.331 285.011 682.213 285.612 683.612 285.612C684.647 285.612 685.613 285.137 686.508 284.185C687.404 283.234 688.103 282.129 688.607 280.869C689.111 279.61 689.516 278.449 689.824 277.386C690.132 276.322 690.286 275.553 690.286 275.077C690.286 274.433 690.174 273.874 689.95 273.398C689.726 272.922 689.474 272.559 689.195 272.307C688.915 272.055 688.663 271.803 688.439 271.551C688.215 271.299 688.103 270.992 688.103 270.628C688.103 270.012 688.369 269.439 688.901 268.907C689.432 268.375 690.006 268.109 690.622 268.109C691.153 268.109 691.629 268.361 692.049 268.865C692.469 269.369 692.692 270.18 692.72 271.299C692.72 272.055 692.552 273.216 692.217 274.783C691.881 276.35 691.363 278.099 690.664 280.03C689.964 281.961 688.971 283.626 687.684 285.025C686.396 286.424 684.913 287.138 683.234 287.166C681.443 287.166 680.016 286.704 678.953 285.78C677.918 284.885 677.4 283.556 677.4 281.793C677.4 280.925 677.512 280.03 677.736 279.107C677.96 278.183 678.533 276.546 679.457 274.196C680.072 272.405 680.38 271.257 680.38 270.754Z" fill="#656AFF"/>
<path d="M696.71 280.269C696.176 280.269 695.751 280.091 695.434 279.735C695.118 279.379 694.959 278.944 694.959 278.429C694.959 277.025 695.484 275.808 696.532 274.779C697.581 273.75 698.887 273.236 700.449 273.236C702.25 273.236 703.753 273.79 704.96 274.898C706.167 276.006 706.78 277.44 706.8 279.201C706.8 280.052 706.602 280.863 706.207 281.634C705.811 282.406 705.336 283.078 704.782 283.652C704.228 284.226 703.437 284.958 702.408 285.848C701.696 286.461 700.707 287.372 699.44 288.578L697.69 290.24L699.945 290.27C703.051 290.27 704.703 290.22 704.901 290.121C705.039 290.082 705.277 289.202 705.613 287.48V287.391H706.8V287.48C706.78 287.54 706.652 288.44 706.414 290.181C706.177 291.922 706.028 292.832 705.969 292.911V293H694.959V292.436V292.08C694.959 291.942 695.019 291.793 695.138 291.635C695.256 291.477 695.553 291.13 696.028 290.596C696.602 289.963 697.096 289.409 697.512 288.934C697.69 288.737 698.026 288.371 698.521 287.836C699.015 287.302 699.351 286.936 699.53 286.738C699.708 286.541 699.994 286.214 700.39 285.759C700.786 285.304 701.063 284.968 701.221 284.75C701.379 284.533 701.607 284.236 701.904 283.86C702.2 283.484 702.408 283.167 702.527 282.91C702.645 282.653 702.794 282.366 702.972 282.05C703.15 281.733 703.279 281.417 703.358 281.1C703.437 280.784 703.506 280.487 703.565 280.21C703.625 279.933 703.654 279.606 703.654 279.231C703.654 277.984 703.318 276.906 702.645 275.996C701.973 275.086 701.013 274.631 699.767 274.631C699.114 274.631 698.54 274.799 698.046 275.135C697.551 275.472 697.205 275.798 697.007 276.115C696.809 276.431 696.71 276.619 696.71 276.678C696.71 276.698 696.76 276.708 696.859 276.708C697.215 276.708 697.581 276.847 697.957 277.124C698.333 277.401 698.521 277.856 698.521 278.489C698.521 278.983 698.362 279.399 698.046 279.735C697.729 280.071 697.284 280.249 696.71 280.269Z" fill="#656AFF"/>
</svg>
