<svg width="1200" height="600" viewBox="0 0 1200 600" fill="none" xmlns="http://www.w3.org/2000/svg">
<path d="M709.667 450C709.667 461.782 719.218 471.333 731 471.333C742.782 471.333 752.333 461.782 752.333 450C752.333 438.218 742.782 428.667 731 428.667C719.218 428.667 709.667 438.218 709.667 450ZM910.812 108.788C910.143 106.683 907.894 105.519 905.788 106.188L871.48 117.092C869.374 117.761 868.21 120.011 868.879 122.116C869.548 124.221 871.797 125.386 873.903 124.716L904.4 115.024L914.092 145.52C914.761 147.626 917.011 148.79 919.116 148.121C921.221 147.452 922.386 145.203 921.716 143.097L910.812 108.788ZM734.552 451.839L910.552 111.839L903.448 108.161L727.448 448.161L734.552 451.839Z" fill="#656AFF"/>
<path d="M903.565 226.302C903.565 225.164 903.125 224.595 902.244 224.595C901.132 224.595 899.974 225.255 898.769 226.575C897.564 227.895 896.568 229.921 895.78 232.652C895.734 232.698 895.688 232.766 895.641 232.857C895.595 232.948 895.572 233.016 895.572 233.062C895.572 233.107 895.525 233.153 895.433 233.198C895.34 233.244 895.271 233.267 895.224 233.267C895.178 233.267 895.085 233.267 894.946 233.267C894.807 233.267 894.622 233.267 894.39 233.267H893.417C893.139 232.993 893 232.789 893 232.652C893 232.333 893.185 231.673 893.556 230.672C893.927 229.67 894.483 228.487 895.224 227.121C895.966 225.756 896.985 224.595 898.283 223.639C899.58 222.683 901.04 222.182 902.661 222.137C904.608 222.137 906.114 222.683 907.179 223.775C908.245 224.868 908.801 226.142 908.848 227.599C908.848 228.373 908.778 228.965 908.639 229.374C908.639 229.648 908.291 230.649 907.596 232.379C906.901 234.109 906.183 236.134 905.442 238.456C904.7 240.778 904.283 242.803 904.191 244.533C904.191 245.762 904.306 246.764 904.538 247.537C905.141 249.495 906.6 250.474 908.917 250.474C910.632 250.474 912.23 249.7 913.713 248.152C915.196 246.604 916.354 244.806 917.188 242.758C918.022 240.709 918.694 238.82 919.204 237.09C919.714 235.36 919.969 234.109 919.969 233.335C919.969 232.288 919.783 231.377 919.413 230.604C919.042 229.83 918.625 229.238 918.161 228.828C917.698 228.419 917.281 228.009 916.91 227.599C916.54 227.189 916.354 226.689 916.354 226.097C916.354 225.095 916.794 224.162 917.675 223.297C918.555 222.432 919.505 222 920.525 222C921.405 222 922.193 222.41 922.888 223.229C923.583 224.048 923.954 225.369 924 227.189C924 228.419 923.722 230.308 923.166 232.857C922.61 235.406 921.753 238.251 920.594 241.392C919.436 244.533 917.791 247.242 915.659 249.518C913.528 251.794 911.072 252.954 908.291 253C905.326 253 902.963 252.249 901.202 250.747C899.487 249.29 898.63 247.128 898.63 244.26C898.63 242.849 898.815 241.392 899.186 239.89C899.557 238.388 900.507 235.725 902.036 231.901C903.055 228.988 903.565 227.121 903.565 226.302Z" fill="#656AFF"/>
</svg>
