<svg width="1200" height="600" viewBox="0 0 1200 600" fill="none" xmlns="http://www.w3.org/2000/svg">
<path d="M172.657 242.312C171.409 242.312 170.297 242.072 169.321 241.592C168.345 241.112 167.577 240.384 167.017 239.408C166.457 238.432 166.177 237.216 166.177 235.76V235.28C166.177 233.936 166.465 232.792 167.041 231.848C167.633 230.904 168.417 230.192 169.393 229.712C170.385 229.216 171.473 228.968 172.657 228.968C173.937 228.968 175.009 229.192 175.873 229.64C176.737 230.072 177.401 230.656 177.865 231.392C178.329 232.128 178.593 232.944 178.657 233.84H174.841C174.729 233.264 174.497 232.824 174.145 232.52C173.809 232.2 173.313 232.04 172.657 232.04C172.145 232.04 171.681 232.16 171.265 232.4C170.865 232.64 170.545 233 170.305 233.48C170.081 233.944 169.969 234.544 169.969 235.28V235.76C169.969 236.544 170.081 237.192 170.305 237.704C170.529 238.216 170.841 238.6 171.241 238.856C171.641 239.096 172.113 239.216 172.657 239.216C173.217 239.216 173.689 239.072 174.073 238.784C174.473 238.48 174.729 238.032 174.841 237.44H178.657C178.593 238.432 178.305 239.296 177.793 240.032C177.281 240.768 176.585 241.336 175.705 241.736C174.841 242.12 173.825 242.312 172.657 242.312ZM186.462 242.312C185.278 242.312 184.19 242.08 183.198 241.616C182.222 241.152 181.438 240.432 180.846 239.456C180.27 238.464 179.982 237.232 179.982 235.76V235.28C179.982 233.904 180.27 232.752 180.846 231.824C181.438 230.88 182.222 230.168 183.198 229.688C184.19 229.208 185.278 228.968 186.462 228.968C187.662 228.968 188.75 229.208 189.726 229.688C190.702 230.168 191.478 230.88 192.054 231.824C192.646 232.752 192.942 233.904 192.942 235.28V235.76C192.942 237.216 192.646 238.432 192.054 239.408C191.478 240.368 190.702 241.096 189.726 241.592C188.75 242.072 187.662 242.312 186.462 242.312ZM186.462 239.24C187.038 239.24 187.526 239.104 187.926 238.832C188.326 238.544 188.63 238.136 188.838 237.608C189.046 237.08 189.15 236.464 189.15 235.76V235.28C189.15 234.64 189.046 234.08 188.838 233.6C188.63 233.12 188.326 232.744 187.926 232.472C187.526 232.184 187.038 232.04 186.462 232.04C185.886 232.04 185.398 232.184 184.998 232.472C184.598 232.744 184.294 233.12 184.086 233.6C183.878 234.08 183.774 234.64 183.774 235.28V235.76C183.774 236.496 183.878 237.128 184.086 237.656C184.294 238.168 184.598 238.56 184.998 238.832C185.398 239.104 185.886 239.24 186.462 239.24ZM194.852 242V229.28H198.332V231.104C198.62 230.544 199.068 230.048 199.676 229.616C200.284 229.184 201.036 228.968 201.932 228.968C202.94 228.968 203.716 229.16 204.26 229.544C204.82 229.928 205.228 230.448 205.484 231.104C205.804 230.496 206.3 229.992 206.972 229.592C207.644 229.176 208.436 228.968 209.348 228.968C210.724 228.968 211.772 229.36 212.492 230.144C213.212 230.912 213.572 232.064 213.572 233.6V242H209.876V234.512C209.876 233.616 209.732 232.984 209.444 232.616C209.172 232.232 208.724 232.04 208.1 232.04C207.732 232.04 207.388 232.144 207.068 232.352C206.764 232.544 206.516 232.824 206.324 233.192C206.148 233.56 206.06 234 206.06 234.512V242H202.364V234.512C202.364 233.616 202.22 232.984 201.932 232.616C201.66 232.232 201.212 232.04 200.588 232.04C200.204 232.04 199.86 232.144 199.556 232.352C199.252 232.544 199.004 232.824 198.812 233.192C198.636 233.56 198.548 234 198.548 234.512V242H194.852ZM215.852 246.8V229.28H219.26V231.008C219.596 230.496 220.092 230.032 220.748 229.616C221.42 229.184 222.244 228.968 223.22 228.968C225.012 228.968 226.372 229.496 227.3 230.552C228.228 231.608 228.692 233.184 228.692 235.28V235.76C228.692 237.2 228.468 238.408 228.02 239.384C227.572 240.344 226.94 241.072 226.124 241.568C225.308 242.064 224.34 242.312 223.22 242.312C222.5 242.312 221.812 242.152 221.156 241.832C220.516 241.496 219.98 241.016 219.548 240.392V246.8H215.852ZM222.332 239.264C223.068 239.264 223.676 238.968 224.156 238.376C224.652 237.768 224.9 236.896 224.9 235.76V235.28C224.9 234.176 224.66 233.36 224.18 232.832C223.716 232.288 223.1 232.016 222.332 232.016C221.82 232.016 221.348 232.128 220.916 232.352C220.5 232.56 220.164 232.88 219.908 233.312C219.668 233.744 219.548 234.28 219.548 234.92V236.12C219.548 236.776 219.668 237.344 219.908 237.824C220.164 238.288 220.5 238.648 220.916 238.904C221.348 239.144 221.82 239.264 222.332 239.264ZM236.618 242.312C235.434 242.312 234.346 242.08 233.354 241.616C232.378 241.152 231.594 240.432 231.002 239.456C230.426 238.464 230.138 237.232 230.138 235.76V235.28C230.138 233.904 230.426 232.752 231.002 231.824C231.594 230.88 232.378 230.168 233.354 229.688C234.346 229.208 235.434 228.968 236.618 228.968C237.818 228.968 238.906 229.208 239.882 229.688C240.858 230.168 241.634 230.88 242.21 231.824C242.802 232.752 243.098 233.904 243.098 235.28V235.76C243.098 237.216 242.802 238.432 242.21 239.408C241.634 240.368 240.858 241.096 239.882 241.592C238.906 242.072 237.818 242.312 236.618 242.312ZM236.618 239.24C237.194 239.24 237.682 239.104 238.082 238.832C238.482 238.544 238.786 238.136 238.994 237.608C239.202 237.08 239.306 236.464 239.306 235.76V235.28C239.306 234.64 239.202 234.08 238.994 233.6C238.786 233.12 238.482 232.744 238.082 232.472C237.682 232.184 237.194 232.04 236.618 232.04C236.042 232.04 235.554 232.184 235.154 232.472C234.754 232.744 234.45 233.12 234.242 233.6C234.034 234.08 233.93 234.64 233.93 235.28V235.76C233.93 236.496 234.034 237.128 234.242 237.656C234.45 238.168 234.754 238.56 235.154 238.832C235.554 239.104 236.042 239.24 236.618 239.24ZM245.009 242V229.28H248.417V231.008C248.737 230.432 249.233 229.952 249.905 229.568C250.593 229.168 251.505 228.968 252.641 228.968C254.161 228.968 255.305 229.376 256.073 230.192C256.857 231.008 257.249 232.184 257.249 233.72V242H253.553V234.56C253.553 233.728 253.369 233.104 253.001 232.688C252.649 232.256 252.065 232.04 251.249 232.04C250.657 232.04 250.169 232.16 249.785 232.4C249.417 232.624 249.145 232.928 248.969 233.312C248.793 233.68 248.705 234.096 248.705 234.56V242H245.009ZM265.66 242.312C264.412 242.312 263.292 242.08 262.3 241.616C261.308 241.136 260.516 240.408 259.924 239.432C259.348 238.456 259.06 237.232 259.06 235.76V235.28C259.06 233.872 259.34 232.704 259.9 231.776C260.46 230.848 261.22 230.152 262.18 229.688C263.156 229.208 264.236 228.968 265.42 228.968C267.516 228.968 269.1 229.512 270.172 230.6C271.244 231.672 271.78 233.232 271.78 235.28V236.624H262.852C262.884 237.248 263.028 237.768 263.284 238.184C263.556 238.6 263.9 238.904 264.316 239.096C264.732 239.272 265.18 239.36 265.66 239.36C266.364 239.36 266.916 239.256 267.316 239.048C267.732 238.824 268.004 238.528 268.132 238.16H271.54C271.284 239.552 270.652 240.592 269.644 241.28C268.636 241.968 267.308 242.312 265.66 242.312ZM265.54 231.92C265.092 231.92 264.668 231.992 264.268 232.136C263.868 232.28 263.54 232.52 263.284 232.856C263.044 233.176 262.908 233.616 262.876 234.176H268.156C268.156 233.584 268.036 233.128 267.796 232.808C267.556 232.472 267.236 232.24 266.836 232.112C266.452 231.984 266.02 231.92 265.54 231.92ZM273.696 242V229.28H277.104V231.008C277.424 230.432 277.92 229.952 278.592 229.568C279.28 229.168 280.192 228.968 281.328 228.968C282.848 228.968 283.992 229.376 284.76 230.192C285.544 231.008 285.936 232.184 285.936 233.72V242H282.24V234.56C282.24 233.728 282.056 233.104 281.688 232.688C281.336 232.256 280.752 232.04 279.936 232.04C279.344 232.04 278.856 232.16 278.472 232.4C278.104 232.624 277.832 232.928 277.656 233.312C277.48 233.68 277.392 234.096 277.392 234.56V242H273.696ZM293.627 242.144C292.571 242.144 291.707 242.008 291.035 241.736C290.363 241.448 289.867 240.984 289.547 240.344C289.227 239.688 289.067 238.8 289.067 237.68V232.304H287.507V229.28H289.067V226.4H292.763V229.28H295.667V232.304H292.763V237.08C292.763 237.8 292.875 238.312 293.099 238.616C293.339 238.92 293.795 239.072 294.467 239.072C294.947 239.072 295.427 239.048 295.907 239V242C295.603 242.048 295.283 242.08 294.947 242.096C294.611 242.128 294.171 242.144 293.627 242.144ZM303.357 242.312C302.317 242.312 301.421 242.208 300.669 242C299.933 241.776 299.325 241.48 298.845 241.112C298.365 240.728 298.005 240.288 297.765 239.792C297.525 239.28 297.389 238.736 297.357 238.16H301.053C301.149 238.512 301.357 238.824 301.677 239.096C301.997 239.352 302.557 239.48 303.357 239.48C304.173 239.48 304.757 239.368 305.109 239.144C305.461 238.92 305.637 238.624 305.637 238.256C305.637 238.064 305.557 237.896 305.397 237.752C305.253 237.592 304.973 237.448 304.557 237.32C304.157 237.192 303.573 237.064 302.805 236.936C302.101 236.824 301.437 236.68 300.813 236.504C300.205 236.328 299.669 236.096 299.205 235.808C298.741 235.504 298.373 235.12 298.101 234.656C297.845 234.192 297.717 233.608 297.717 232.904C297.717 232.152 297.941 231.48 298.389 230.888C298.837 230.296 299.485 229.832 300.333 229.496C301.181 229.144 302.189 228.968 303.357 228.968C304.685 228.968 305.733 229.176 306.501 229.592C307.285 229.992 307.861 230.512 308.229 231.152C308.597 231.776 308.813 232.432 308.877 233.12H305.157C305.061 232.72 304.853 232.4 304.533 232.16C304.229 231.92 303.837 231.8 303.357 231.8C302.621 231.8 302.109 231.912 301.821 232.136C301.549 232.36 301.413 232.632 301.413 232.952C301.413 233.272 301.637 233.528 302.085 233.72C302.533 233.896 303.245 234.048 304.221 234.176C304.925 234.272 305.581 234.408 306.189 234.584C306.813 234.76 307.357 235.008 307.821 235.328C308.301 235.632 308.677 236.024 308.949 236.504C309.221 236.968 309.357 237.536 309.357 238.208C309.357 239.008 309.125 239.72 308.661 240.344C308.213 240.968 307.541 241.456 306.645 241.808C305.765 242.144 304.669 242.312 303.357 242.312ZM317.026 236.264V234.296H332.626V236.264H317.026ZM341.518 242V225.2H343.63V235.136L349.486 229.28H352.078L346.798 234.536L352.558 242H349.87L345.286 236L343.63 237.56V242H341.518ZM355.328 242V229.28H357.44V242H355.328ZM356.384 227.6C355.968 227.6 355.624 227.464 355.352 227.192C355.08 226.92 354.944 226.576 354.944 226.16C354.944 225.744 355.08 225.4 355.352 225.128C355.624 224.856 355.968 224.72 356.384 224.72C356.8 224.72 357.144 224.856 357.416 225.128C357.688 225.4 357.824 225.744 357.824 226.16C357.824 226.576 357.688 226.92 357.416 227.192C357.144 227.464 356.8 227.6 356.384 227.6ZM361.51 242V229.28H363.478V231.68C363.766 230.976 364.27 230.36 364.99 229.832C365.726 229.304 366.67 229.04 367.822 229.04C369.422 229.04 370.606 229.472 371.374 230.336C372.158 231.184 372.55 232.432 372.55 234.08V242H370.438V234.56C370.438 233.376 370.19 232.48 369.694 231.872C369.198 231.264 368.366 230.96 367.198 230.96C366.366 230.96 365.686 231.136 365.158 231.488C364.63 231.84 364.238 232.288 363.982 232.832C363.742 233.376 363.622 233.952 363.622 234.56V242H361.51ZM380.715 242.24C379.675 242.24 378.755 242 377.955 241.52C377.155 241.04 376.531 240.32 376.083 239.36C375.651 238.4 375.435 237.2 375.435 235.76V235.28C375.435 233.936 375.659 232.8 376.107 231.872C376.571 230.944 377.195 230.24 377.979 229.76C378.779 229.28 379.691 229.04 380.715 229.04C381.739 229.04 382.627 229.264 383.379 229.712C384.147 230.16 384.715 230.776 385.083 231.56V225.2H387.195V242H385.227V239.6C384.907 240.384 384.347 241.024 383.547 241.52C382.747 242 381.803 242.24 380.715 242.24ZM381.195 240.368C381.963 240.368 382.635 240.208 383.211 239.888C383.803 239.552 384.259 239.096 384.579 238.52C384.915 237.928 385.083 237.248 385.083 236.48V234.56C385.083 233.872 384.915 233.256 384.579 232.712C384.259 232.152 383.803 231.712 383.211 231.392C382.635 231.072 381.963 230.912 381.195 230.912C380.171 230.912 379.307 231.296 378.603 232.064C377.899 232.816 377.547 233.888 377.547 235.28V235.76C377.547 237.264 377.899 238.408 378.603 239.192C379.307 239.976 380.171 240.368 381.195 240.368ZM394.665 242.24C393.737 242.24 392.945 242.072 392.289 241.736C391.649 241.384 391.161 240.912 390.825 240.32C390.489 239.712 390.321 239.032 390.321 238.28C390.321 237.016 390.689 236.104 391.425 235.544C392.177 234.984 393.249 234.704 394.641 234.704H398.769V233.84C398.769 232.752 398.521 232 398.025 231.584C397.545 231.168 396.817 230.96 395.841 230.96C394.929 230.96 394.265 231.136 393.849 231.488C393.433 231.824 393.201 232.208 393.153 232.64H391.041C391.089 231.952 391.321 231.344 391.737 230.816C392.153 230.272 392.721 229.84 393.441 229.52C394.161 229.2 395.001 229.04 395.961 229.04C396.969 229.04 397.841 229.2 398.577 229.52C399.313 229.824 399.881 230.312 400.281 230.984C400.681 231.64 400.881 232.512 400.881 233.6V238.76C400.881 239.432 400.881 240.024 400.881 240.536C400.897 241.032 400.937 241.52 401.001 242H399.153C399.105 241.632 399.073 241.288 399.057 240.968C399.041 240.632 399.033 240.256 399.033 239.84C398.697 240.512 398.153 241.08 397.401 241.544C396.649 242.008 395.737 242.24 394.665 242.24ZM395.121 240.32C395.793 240.32 396.401 240.2 396.945 239.96C397.505 239.72 397.945 239.368 398.265 238.904C398.601 238.44 398.769 237.872 398.769 237.2V236.336H395.001C394.217 236.336 393.601 236.496 393.153 236.816C392.705 237.12 392.481 237.608 392.481 238.28C392.481 238.872 392.689 239.36 393.105 239.744C393.537 240.128 394.209 240.32 395.121 240.32ZM414.451 242.12C413.571 242.12 412.851 241.984 412.291 241.712C411.747 241.424 411.347 240.984 411.091 240.392C410.851 239.784 410.731 239 410.731 238.04V225.2H412.843V238.04C412.843 238.872 412.979 239.44 413.251 239.744C413.523 240.048 414.003 240.2 414.691 240.2C414.867 240.2 415.019 240.2 415.147 240.2C415.275 240.184 415.403 240.168 415.531 240.152V242.024C415.451 242.04 415.339 242.056 415.195 242.072C415.067 242.088 414.931 242.096 414.787 242.096C414.659 242.112 414.547 242.12 414.451 242.12ZM418.539 242V229.28H420.651V242H418.539ZM419.595 227.6C419.179 227.6 418.835 227.464 418.563 227.192C418.291 226.92 418.155 226.576 418.155 226.16C418.155 225.744 418.291 225.4 418.563 225.128C418.835 224.856 419.179 224.72 419.595 224.72C420.011 224.72 420.355 224.856 420.627 225.128C420.899 225.4 421.035 225.744 421.035 226.16C421.035 226.576 420.899 226.92 420.627 227.192C420.355 227.464 420.011 227.6 419.595 227.6ZM424.721 242V225.2H426.833V235.136L432.689 229.28H435.281L430.001 234.536L435.761 242H433.073L428.489 236L426.833 237.56V242H424.721ZM443.102 242.24C442.03 242.24 441.022 242.008 440.078 241.544C439.15 241.08 438.398 240.368 437.822 239.408C437.262 238.448 436.982 237.232 436.982 235.76V235.28C436.982 233.872 437.254 232.712 437.798 231.8C438.342 230.872 439.062 230.184 439.958 229.736C440.854 229.272 441.822 229.04 442.862 229.04C444.734 229.04 446.182 229.552 447.206 230.576C448.23 231.6 448.742 233.048 448.742 234.92V236.264H439.094C439.094 237.256 439.294 238.048 439.694 238.64C440.11 239.232 440.622 239.664 441.23 239.936C441.854 240.192 442.478 240.32 443.102 240.32C444.062 240.32 444.798 240.16 445.31 239.84C445.838 239.52 446.214 239.08 446.438 238.52H448.502C448.246 239.736 447.614 240.664 446.606 241.304C445.614 241.928 444.446 242.24 443.102 242.24ZM442.982 230.96C442.326 230.96 441.702 231.088 441.11 231.344C440.518 231.584 440.03 231.968 439.646 232.496C439.278 233.024 439.094 233.704 439.094 234.536H446.75C446.734 233.656 446.55 232.96 446.198 232.448C445.862 231.92 445.414 231.544 444.854 231.32C444.294 231.08 443.67 230.96 442.982 230.96ZM462.664 242.24C461.576 242.24 460.592 242.008 459.712 241.544C458.848 241.064 458.16 240.344 457.648 239.384C457.152 238.424 456.904 237.216 456.904 235.76V235.28C456.904 233.904 457.176 232.752 457.72 231.824C458.264 230.896 458.976 230.2 459.856 229.736C460.736 229.272 461.672 229.04 462.664 229.04C463.672 229.04 464.536 229.224 465.256 229.592C465.992 229.944 466.584 230.432 467.032 231.056C467.48 231.664 467.784 232.352 467.944 233.12H465.784C465.528 232.512 465.168 232 464.704 231.584C464.256 231.168 463.576 230.96 462.664 230.96C462.04 230.96 461.456 231.112 460.912 231.416C460.368 231.704 459.92 232.168 459.568 232.808C459.232 233.432 459.064 234.256 459.064 235.28V235.76C459.064 236.848 459.232 237.728 459.568 238.4C459.92 239.072 460.368 239.56 460.912 239.864C461.456 240.168 462.04 240.32 462.664 240.32C463.448 240.32 464.104 240.128 464.632 239.744C465.176 239.36 465.56 238.832 465.784 238.16H467.944C467.752 238.992 467.408 239.72 466.912 240.344C466.416 240.952 465.808 241.424 465.088 241.76C464.368 242.08 463.56 242.24 462.664 242.24ZM476.102 242.24C475.03 242.24 474.022 242.008 473.078 241.544C472.15 241.064 471.398 240.344 470.822 239.384C470.262 238.424 469.982 237.216 469.982 235.76V235.28C469.982 233.904 470.262 232.752 470.822 231.824C471.398 230.896 472.15 230.2 473.078 229.736C474.022 229.272 475.03 229.04 476.102 229.04C477.19 229.04 478.198 229.272 479.126 229.736C480.054 230.2 480.798 230.896 481.358 231.824C481.934 232.752 482.222 233.904 482.222 235.28V235.76C482.222 237.216 481.934 238.424 481.358 239.384C480.798 240.344 480.054 241.064 479.126 241.544C478.198 242.008 477.19 242.24 476.102 242.24ZM476.102 240.32C476.758 240.32 477.382 240.176 477.974 239.888C478.582 239.584 479.078 239.096 479.462 238.424C479.862 237.752 480.062 236.864 480.062 235.76V235.28C480.062 234.256 479.862 233.432 479.462 232.808C479.078 232.168 478.582 231.704 477.974 231.416C477.382 231.112 476.758 230.96 476.102 230.96C475.462 230.96 474.838 231.112 474.23 231.416C473.622 231.704 473.118 232.168 472.718 232.808C472.334 233.432 472.142 234.256 472.142 235.28V235.76C472.142 236.864 472.334 237.752 472.718 238.424C473.118 239.096 473.622 239.584 474.23 239.888C474.838 240.176 475.462 240.32 476.102 240.32ZM490.493 242.24C489.421 242.24 488.413 242.008 487.469 241.544C486.541 241.064 485.789 240.344 485.213 239.384C484.653 238.424 484.373 237.216 484.373 235.76V235.28C484.373 233.904 484.653 232.752 485.213 231.824C485.789 230.896 486.541 230.2 487.469 229.736C488.413 229.272 489.421 229.04 490.493 229.04C491.581 229.04 492.589 229.272 493.517 229.736C494.445 230.2 495.189 230.896 495.749 231.824C496.325 232.752 496.613 233.904 496.613 235.28V235.76C496.613 237.216 496.325 238.424 495.749 239.384C495.189 240.344 494.445 241.064 493.517 241.544C492.589 242.008 491.581 242.24 490.493 242.24ZM490.493 240.32C491.149 240.32 491.773 240.176 492.365 239.888C492.973 239.584 493.469 239.096 493.853 238.424C494.253 237.752 494.453 236.864 494.453 235.76V235.28C494.453 234.256 494.253 233.432 493.853 232.808C493.469 232.168 492.973 231.704 492.365 231.416C491.773 231.112 491.149 230.96 490.493 230.96C489.853 230.96 489.229 231.112 488.621 231.416C488.013 231.704 487.509 232.168 487.109 232.808C486.725 233.432 486.533 234.256 486.533 235.28V235.76C486.533 236.864 486.725 237.752 487.109 238.424C487.509 239.096 488.013 239.584 488.621 239.888C489.229 240.176 489.853 240.32 490.493 240.32ZM499.604 242V229.28H501.572V231.68C501.764 231.168 502.028 230.72 502.364 230.336C502.7 229.936 503.108 229.624 503.588 229.4C504.084 229.16 504.636 229.04 505.244 229.04C505.564 229.04 505.82 229.056 506.012 229.088C506.22 229.12 506.404 229.16 506.564 229.208V231.176C506.356 231.096 506.148 231.04 505.94 231.008C505.748 230.976 505.476 230.96 505.124 230.96C504.484 230.96 503.908 231.112 503.396 231.416C502.884 231.72 502.476 232.144 502.172 232.688C501.868 233.216 501.716 233.84 501.716 234.56V242H499.604ZM513.161 242.24C512.121 242.24 511.201 242 510.401 241.52C509.601 241.04 508.977 240.32 508.529 239.36C508.097 238.4 507.881 237.2 507.881 235.76V235.28C507.881 233.936 508.105 232.8 508.553 231.872C509.017 230.944 509.641 230.24 510.425 229.76C511.225 229.28 512.137 229.04 513.161 229.04C514.185 229.04 515.073 229.264 515.825 229.712C516.593 230.16 517.161 230.776 517.529 231.56V225.2H519.641V242H517.673V239.6C517.353 240.384 516.793 241.024 515.993 241.52C515.193 242 514.249 242.24 513.161 242.24ZM513.641 240.368C514.409 240.368 515.081 240.208 515.657 239.888C516.249 239.552 516.705 239.096 517.025 238.52C517.361 237.928 517.529 237.248 517.529 236.48V234.56C517.529 233.872 517.361 233.256 517.025 232.712C516.705 232.152 516.249 231.712 515.657 231.392C515.081 231.072 514.409 230.912 513.641 230.912C512.617 230.912 511.753 231.296 511.049 232.064C510.345 232.816 509.993 233.888 509.993 235.28V235.76C509.993 237.264 510.345 238.408 511.049 239.192C511.753 239.976 512.617 240.368 513.641 240.368ZM523.726 242V229.28H525.838V242H523.726ZM524.782 227.6C524.366 227.6 524.022 227.464 523.75 227.192C523.478 226.92 523.342 226.576 523.342 226.16C523.342 225.744 523.478 225.4 523.75 225.128C524.022 224.856 524.366 224.72 524.782 224.72C525.198 224.72 525.542 224.856 525.814 225.128C526.086 225.4 526.222 225.744 526.222 226.16C526.222 226.576 526.086 226.92 525.814 227.192C525.542 227.464 525.198 227.6 524.782 227.6ZM529.908 242V229.28H531.876V231.68C532.164 230.976 532.668 230.36 533.388 229.832C534.124 229.304 535.068 229.04 536.22 229.04C537.82 229.04 539.004 229.472 539.772 230.336C540.556 231.184 540.948 232.432 540.948 234.08V242H538.836V234.56C538.836 233.376 538.588 232.48 538.092 231.872C537.596 231.264 536.764 230.96 535.596 230.96C534.764 230.96 534.084 231.136 533.556 231.488C533.028 231.84 532.636 232.288 532.38 232.832C532.14 233.376 532.02 233.952 532.02 234.56V242H529.908ZM548.298 242.24C547.37 242.24 546.578 242.072 545.922 241.736C545.282 241.384 544.794 240.912 544.458 240.32C544.122 239.712 543.954 239.032 543.954 238.28C543.954 237.016 544.322 236.104 545.058 235.544C545.81 234.984 546.882 234.704 548.274 234.704H552.402V233.84C552.402 232.752 552.154 232 551.658 231.584C551.178 231.168 550.45 230.96 549.474 230.96C548.562 230.96 547.898 231.136 547.482 231.488C547.066 231.824 546.834 232.208 546.786 232.64H544.674C544.722 231.952 544.954 231.344 545.37 230.816C545.786 230.272 546.354 229.84 547.074 229.52C547.794 229.2 548.634 229.04 549.594 229.04C550.602 229.04 551.474 229.2 552.21 229.52C552.946 229.824 553.514 230.312 553.914 230.984C554.314 231.64 554.514 232.512 554.514 233.6V238.76C554.514 239.432 554.514 240.024 554.514 240.536C554.53 241.032 554.57 241.52 554.634 242H552.786C552.738 241.632 552.706 241.288 552.69 240.968C552.674 240.632 552.666 240.256 552.666 239.84C552.33 240.512 551.786 241.08 551.034 241.544C550.282 242.008 549.37 242.24 548.298 242.24ZM548.754 240.32C549.426 240.32 550.034 240.2 550.578 239.96C551.138 239.72 551.578 239.368 551.898 238.904C552.234 238.44 552.402 237.872 552.402 237.2V236.336H548.634C547.85 236.336 547.234 236.496 546.786 236.816C546.338 237.12 546.114 237.608 546.114 238.28C546.114 238.872 546.322 239.36 546.738 239.744C547.17 240.128 547.842 240.32 548.754 240.32ZM562.69 242.12C561.794 242.12 561.058 241.984 560.482 241.712C559.922 241.44 559.506 241.032 559.234 240.488C558.978 239.928 558.85 239.232 558.85 238.4V231.152H556.93V229.28H558.85V226.4H560.962V229.28H564.37V231.152H560.962V238.16C560.962 238.88 561.114 239.4 561.418 239.72C561.722 240.04 562.306 240.2 563.17 240.2C563.65 240.2 564.13 240.176 564.61 240.128V242C564.306 242.032 564.002 242.056 563.698 242.072C563.394 242.104 563.058 242.12 562.69 242.12ZM572.899 242.24C571.827 242.24 570.819 242.008 569.875 241.544C568.947 241.08 568.195 240.368 567.619 239.408C567.059 238.448 566.779 237.232 566.779 235.76V235.28C566.779 233.872 567.051 232.712 567.595 231.8C568.139 230.872 568.859 230.184 569.755 229.736C570.651 229.272 571.619 229.04 572.659 229.04C574.531 229.04 575.979 229.552 577.003 230.576C578.027 231.6 578.539 233.048 578.539 234.92V236.264H568.891C568.891 237.256 569.091 238.048 569.491 238.64C569.907 239.232 570.419 239.664 571.027 239.936C571.651 240.192 572.275 240.32 572.899 240.32C573.859 240.32 574.595 240.16 575.107 239.84C575.635 239.52 576.011 239.08 576.235 238.52H578.299C578.043 239.736 577.411 240.664 576.403 241.304C575.411 241.928 574.243 242.24 572.899 242.24ZM572.779 230.96C572.123 230.96 571.499 231.088 570.907 231.344C570.315 231.584 569.827 231.968 569.443 232.496C569.075 233.024 568.891 233.704 568.891 234.536H576.547C576.531 233.656 576.347 232.96 575.995 232.448C575.659 231.92 575.211 231.544 574.651 231.32C574.091 231.08 573.467 230.96 572.779 230.96ZM585.981 242.24C585.133 242.24 584.397 242.144 583.773 241.952C583.149 241.744 582.629 241.472 582.213 241.136C581.797 240.8 581.461 240.408 581.205 239.96C580.965 239.496 580.797 239.016 580.701 238.52H582.813C582.925 239.032 583.221 239.48 583.701 239.864C584.197 240.232 584.957 240.416 585.981 240.416C587.165 240.416 587.989 240.232 588.453 239.864C588.917 239.48 589.149 239.032 589.149 238.52C589.149 238.168 589.045 237.864 588.837 237.608C588.645 237.336 588.293 237.104 587.781 236.912C587.285 236.72 586.573 236.56 585.645 236.432C584.941 236.336 584.309 236.2 583.749 236.024C583.189 235.832 582.709 235.584 582.309 235.28C581.909 234.976 581.597 234.608 581.373 234.176C581.165 233.744 581.061 233.232 581.061 232.64C581.061 232 581.245 231.408 581.613 230.864C581.981 230.32 582.533 229.88 583.269 229.544C584.005 229.208 584.909 229.04 585.981 229.04C586.989 229.04 587.821 229.216 588.477 229.568C589.149 229.904 589.669 230.352 590.037 230.912C590.405 231.472 590.653 232.088 590.781 232.76H588.669C588.541 232.2 588.269 231.744 587.853 231.392C587.437 231.04 586.813 230.864 585.981 230.864C584.941 230.864 584.213 231.04 583.797 231.392C583.381 231.728 583.173 232.144 583.173 232.64C583.173 233.216 583.397 233.648 583.845 233.936C584.309 234.224 585.149 234.448 586.365 234.608C587.149 234.704 587.845 234.848 588.453 235.04C589.061 235.216 589.573 235.464 589.989 235.784C590.405 236.088 590.717 236.464 590.925 236.912C591.149 237.36 591.261 237.896 591.261 238.52C591.261 239.192 591.069 239.808 590.685 240.368C590.301 240.928 589.717 241.384 588.933 241.736C588.165 242.072 587.181 242.24 585.981 242.24ZM593.668 245.6L594.628 242V239.36H597.268V242L594.868 245.6H593.668ZM595.948 232.4C595.644 232.4 595.364 232.328 595.108 232.184C594.852 232.024 594.644 231.816 594.484 231.56C594.34 231.304 594.268 231.024 594.268 230.72C594.268 230.24 594.428 229.84 594.748 229.52C595.084 229.2 595.484 229.04 595.948 229.04C596.412 229.04 596.804 229.2 597.124 229.52C597.46 229.84 597.628 230.24 597.628 230.72C597.628 231.024 597.548 231.304 597.388 231.56C597.244 231.816 597.044 232.024 596.788 232.184C596.548 232.328 596.268 232.4 595.948 232.4ZM230.803 280.12C229.907 280.12 229.171 279.984 228.595 279.712C228.035 279.44 227.619 279.032 227.347 278.488C227.091 277.928 226.963 277.232 226.963 276.4V269.152H225.043V267.28H226.963V264.4H229.075V267.28H232.483V269.152H229.075V276.16C229.075 276.88 229.227 277.4 229.531 277.72C229.835 278.04 230.419 278.2 231.283 278.2C231.763 278.2 232.243 278.176 232.723 278.128V280C232.419 280.032 232.115 280.056 231.811 280.072C231.507 280.104 231.171 280.12 230.803 280.12ZM235.733 280V263.2H237.845V269.56C238.069 269.112 238.373 268.696 238.757 268.312C239.141 267.928 239.605 267.624 240.148 267.4C240.709 267.16 241.341 267.04 242.045 267.04C243.645 267.04 244.829 267.472 245.597 268.336C246.381 269.184 246.773 270.432 246.773 272.08V280H244.661V272.56C244.661 271.376 244.413 270.48 243.917 269.872C243.421 269.264 242.589 268.96 241.421 268.96C240.589 268.96 239.909 269.136 239.381 269.488C238.853 269.84 238.461 270.288 238.205 270.832C237.965 271.376 237.845 271.952 237.845 272.56V280H235.733ZM255.778 280.24C254.706 280.24 253.698 280.008 252.754 279.544C251.826 279.08 251.074 278.368 250.498 277.408C249.938 276.448 249.658 275.232 249.658 273.76V273.28C249.658 271.872 249.93 270.712 250.474 269.8C251.018 268.872 251.738 268.184 252.634 267.736C253.53 267.272 254.498 267.04 255.538 267.04C257.41 267.04 258.858 267.552 259.882 268.576C260.906 269.6 261.418 271.048 261.418 272.92V274.264H251.77C251.77 275.256 251.97 276.048 252.37 276.64C252.786 277.232 253.298 277.664 253.906 277.936C254.53 278.192 255.154 278.32 255.778 278.32C256.738 278.32 257.474 278.16 257.986 277.84C258.514 277.52 258.89 277.08 259.114 276.52H261.178C260.922 277.736 260.29 278.664 259.282 279.304C258.29 279.928 257.122 280.24 255.778 280.24ZM255.658 268.96C255.002 268.96 254.378 269.088 253.786 269.344C253.194 269.584 252.706 269.968 252.322 270.496C251.954 271.024 251.77 271.704 251.77 272.536H259.426C259.41 271.656 259.226 270.96 258.874 270.448C258.538 269.92 258.09 269.544 257.53 269.32C256.97 269.08 256.346 268.96 255.658 268.96ZM274.26 280.12C273.38 280.12 272.66 279.984 272.1 279.712C271.556 279.424 271.156 278.984 270.9 278.392C270.66 277.784 270.54 277 270.54 276.04V263.2H272.652V276.04C272.652 276.872 272.788 277.44 273.06 277.744C273.332 278.048 273.812 278.2 274.5 278.2C274.676 278.2 274.828 278.2 274.956 278.2C275.084 278.184 275.212 278.168 275.34 278.152V280.024C275.26 280.04 275.148 280.056 275.004 280.072C274.876 280.088 274.74 280.096 274.596 280.096C274.468 280.112 274.356 280.12 274.26 280.12ZM283.153 280.24C282.081 280.24 281.073 280.008 280.129 279.544C279.201 279.08 278.449 278.368 277.873 277.408C277.313 276.448 277.033 275.232 277.033 273.76V273.28C277.033 271.872 277.305 270.712 277.849 269.8C278.393 268.872 279.113 268.184 280.009 267.736C280.905 267.272 281.873 267.04 282.913 267.04C284.785 267.04 286.233 267.552 287.257 268.576C288.281 269.6 288.793 271.048 288.793 272.92V274.264H279.145C279.145 275.256 279.345 276.048 279.745 276.64C280.161 277.232 280.673 277.664 281.281 277.936C281.905 278.192 282.529 278.32 283.153 278.32C284.113 278.32 284.849 278.16 285.361 277.84C285.889 277.52 286.265 277.08 286.489 276.52H288.553C288.297 277.736 287.665 278.664 286.657 279.304C285.665 279.928 284.497 280.24 283.153 280.24ZM283.033 268.96C282.377 268.96 281.753 269.088 281.161 269.344C280.569 269.584 280.081 269.968 279.697 270.496C279.329 271.024 279.145 271.704 279.145 272.536H286.801C286.785 271.656 286.601 270.96 286.249 270.448C285.913 269.92 285.465 269.544 284.905 269.32C284.345 269.08 283.721 268.96 283.033 268.96ZM291.795 280V267.28H293.763V269.68C294.051 268.976 294.555 268.36 295.275 267.832C296.011 267.304 296.955 267.04 298.107 267.04C299.707 267.04 300.891 267.472 301.659 268.336C302.443 269.184 302.835 270.432 302.835 272.08V280H300.723V272.56C300.723 271.376 300.475 270.48 299.979 269.872C299.483 269.264 298.651 268.96 297.483 268.96C296.651 268.96 295.971 269.136 295.443 269.488C294.915 269.84 294.523 270.288 294.267 270.832C294.027 271.376 293.907 271.952 293.907 272.56V280H291.795ZM311.601 285.04C310.369 285.04 309.369 284.88 308.601 284.56C307.833 284.24 307.265 283.808 306.897 283.264C306.529 282.72 306.297 282.112 306.201 281.44H308.409C308.569 281.952 308.873 282.36 309.321 282.664C309.769 282.968 310.529 283.12 311.601 283.12C312.897 283.12 313.849 282.808 314.457 282.184C315.065 281.56 315.369 280.672 315.369 279.52V277.48C315.001 278.328 314.433 278.96 313.665 279.376C312.913 279.792 312.025 280 311.001 280C309.961 280 309.041 279.76 308.241 279.28C307.441 278.8 306.817 278.088 306.369 277.144C305.937 276.2 305.721 275.032 305.721 273.64V273.16C305.721 271.848 305.945 270.744 306.393 269.848C306.857 268.936 307.481 268.24 308.265 267.76C309.065 267.28 309.977 267.04 311.001 267.04C312.089 267.04 313.033 267.288 313.833 267.784C314.633 268.264 315.193 268.896 315.513 269.68V267.28H317.481V279.52C317.481 281.248 316.977 282.6 315.969 283.576C314.961 284.552 313.505 285.04 311.601 285.04ZM311.481 278.128C312.249 278.128 312.921 277.968 313.497 277.648C314.089 277.328 314.545 276.888 314.865 276.328C315.201 275.752 315.369 275.096 315.369 274.36V272.44C315.369 271.784 315.201 271.192 314.865 270.664C314.545 270.136 314.089 269.712 313.497 269.392C312.921 269.072 312.249 268.912 311.481 268.912C310.457 268.912 309.593 269.288 308.889 270.04C308.185 270.792 307.833 271.832 307.833 273.16V273.64C307.833 275.096 308.185 276.208 308.889 276.976C309.593 277.744 310.457 278.128 311.481 278.128ZM326.006 280.12C325.11 280.12 324.374 279.984 323.798 279.712C323.238 279.44 322.822 279.032 322.55 278.488C322.294 277.928 322.166 277.232 322.166 276.4V269.152H320.246V267.28H322.166V264.4H324.278V267.28H327.686V269.152H324.278V276.16C324.278 276.88 324.43 277.4 324.734 277.72C325.038 278.04 325.622 278.2 326.486 278.2C326.966 278.2 327.446 278.176 327.926 278.128V280C327.622 280.032 327.318 280.056 327.014 280.072C326.71 280.104 326.374 280.12 326.006 280.12ZM330.936 280V263.2H333.048V269.56C333.272 269.112 333.576 268.696 333.96 268.312C334.344 267.928 334.808 267.624 335.352 267.4C335.912 267.16 336.544 267.04 337.248 267.04C338.848 267.04 340.032 267.472 340.8 268.336C341.584 269.184 341.976 270.432 341.976 272.08V280H339.864V272.56C339.864 271.376 339.616 270.48 339.12 269.872C338.624 269.264 337.792 268.96 336.624 268.96C335.792 268.96 335.112 269.136 334.584 269.488C334.056 269.84 333.664 270.288 333.408 270.832C333.168 271.376 333.048 271.952 333.048 272.56V280H330.936ZM351.941 280V267.28H354.053V280H351.941ZM352.997 265.6C352.581 265.6 352.237 265.464 351.965 265.192C351.693 264.92 351.557 264.576 351.557 264.16C351.557 263.744 351.693 263.4 351.965 263.128C352.237 262.856 352.581 262.72 352.997 262.72C353.413 262.72 353.757 262.856 354.029 263.128C354.301 263.4 354.437 263.744 354.437 264.16C354.437 264.576 354.301 264.92 354.029 265.192C353.757 265.464 353.413 265.6 352.997 265.6ZM358.123 280V267.28H360.091V269.68C360.379 268.976 360.883 268.36 361.603 267.832C362.339 267.304 363.283 267.04 364.435 267.04C366.035 267.04 367.219 267.472 367.987 268.336C368.771 269.184 369.163 270.432 369.163 272.08V280H367.051V272.56C367.051 271.376 366.803 270.48 366.307 269.872C365.811 269.264 364.979 268.96 363.811 268.96C362.979 268.96 362.299 269.136 361.771 269.488C361.243 269.84 360.851 270.288 360.595 270.832C360.355 271.376 360.235 271.952 360.235 272.56V280H358.123ZM384.169 280.24C383.097 280.24 382.089 280.008 381.145 279.544C380.217 279.08 379.465 278.368 378.889 277.408C378.329 276.448 378.049 275.232 378.049 273.76V273.28C378.049 271.872 378.321 270.712 378.865 269.8C379.409 268.872 380.129 268.184 381.025 267.736C381.921 267.272 382.889 267.04 383.929 267.04C385.801 267.04 387.249 267.552 388.273 268.576C389.297 269.6 389.809 271.048 389.809 272.92V274.264H380.161C380.161 275.256 380.361 276.048 380.761 276.64C381.177 277.232 381.689 277.664 382.297 277.936C382.921 278.192 383.545 278.32 384.169 278.32C385.129 278.32 385.865 278.16 386.377 277.84C386.905 277.52 387.281 277.08 387.505 276.52H389.569C389.313 277.736 388.681 278.664 387.673 279.304C386.681 279.928 385.513 280.24 384.169 280.24ZM384.049 268.96C383.393 268.96 382.769 269.088 382.177 269.344C381.585 269.584 381.097 269.968 380.713 270.496C380.345 271.024 380.161 271.704 380.161 272.536H387.817C387.801 271.656 387.617 270.96 387.265 270.448C386.929 269.92 386.481 269.544 385.921 269.32C385.361 269.08 384.737 268.96 384.049 268.96ZM396.435 280.24C395.507 280.24 394.715 280.072 394.059 279.736C393.419 279.384 392.931 278.912 392.595 278.32C392.259 277.712 392.091 277.032 392.091 276.28C392.091 275.016 392.459 274.104 393.195 273.544C393.947 272.984 395.019 272.704 396.411 272.704H400.539V271.84C400.539 270.752 400.291 270 399.795 269.584C399.315 269.168 398.587 268.96 397.611 268.96C396.699 268.96 396.035 269.136 395.619 269.488C395.203 269.824 394.971 270.208 394.923 270.64H392.811C392.859 269.952 393.091 269.344 393.507 268.816C393.923 268.272 394.491 267.84 395.211 267.52C395.931 267.2 396.771 267.04 397.731 267.04C398.739 267.04 399.611 267.2 400.347 267.52C401.083 267.824 401.651 268.312 402.051 268.984C402.451 269.64 402.651 270.512 402.651 271.6V276.76C402.651 277.432 402.651 278.024 402.651 278.536C402.667 279.032 402.707 279.52 402.771 280H400.923C400.875 279.632 400.843 279.288 400.827 278.968C400.811 278.632 400.803 278.256 400.803 277.84C400.467 278.512 399.923 279.08 399.171 279.544C398.419 280.008 397.507 280.24 396.435 280.24ZM396.891 278.32C397.563 278.32 398.171 278.2 398.715 277.96C399.275 277.72 399.715 277.368 400.035 276.904C400.371 276.44 400.539 275.872 400.539 275.2V274.336H396.771C395.987 274.336 395.371 274.496 394.923 274.816C394.475 275.12 394.251 275.608 394.251 276.28C394.251 276.872 394.459 277.36 394.875 277.744C395.307 278.128 395.979 278.32 396.891 278.32ZM411.301 280.24C410.213 280.24 409.229 280.008 408.349 279.544C407.485 279.064 406.797 278.344 406.285 277.384C405.789 276.424 405.541 275.216 405.541 273.76V273.28C405.541 271.904 405.813 270.752 406.357 269.824C406.901 268.896 407.613 268.2 408.493 267.736C409.373 267.272 410.309 267.04 411.301 267.04C412.309 267.04 413.173 267.224 413.893 267.592C414.629 267.944 415.221 268.432 415.669 269.056C416.117 269.664 416.421 270.352 416.581 271.12H414.421C414.165 270.512 413.805 270 413.341 269.584C412.893 269.168 412.213 268.96 411.301 268.96C410.677 268.96 410.093 269.112 409.549 269.416C409.005 269.704 408.557 270.168 408.205 270.808C407.869 271.432 407.701 272.256 407.701 273.28V273.76C407.701 274.848 407.869 275.728 408.205 276.4C408.557 277.072 409.005 277.56 409.549 277.864C410.093 278.168 410.677 278.32 411.301 278.32C412.085 278.32 412.741 278.128 413.269 277.744C413.813 277.36 414.197 276.832 414.421 276.16H416.581C416.389 276.992 416.045 277.72 415.549 278.344C415.053 278.952 414.445 279.424 413.725 279.76C413.005 280.08 412.197 280.24 411.301 280.24ZM419.459 280V263.2H421.571V269.56C421.795 269.112 422.099 268.696 422.483 268.312C422.867 267.928 423.331 267.624 423.875 267.4C424.435 267.16 425.067 267.04 425.771 267.04C427.371 267.04 428.555 267.472 429.323 268.336C430.107 269.184 430.499 270.432 430.499 272.08V280H428.387V272.56C428.387 271.376 428.139 270.48 427.643 269.872C427.147 269.264 426.315 268.96 425.147 268.96C424.315 268.96 423.635 269.136 423.107 269.488C422.579 269.84 422.187 270.288 421.931 270.832C421.691 271.376 421.571 271.952 421.571 272.56V280H419.459ZM444.665 280.24C443.625 280.24 442.705 280 441.905 279.52C441.105 279.04 440.481 278.32 440.033 277.36C439.601 276.4 439.385 275.2 439.385 273.76V273.28C439.385 271.936 439.609 270.8 440.057 269.872C440.521 268.944 441.145 268.24 441.929 267.76C442.729 267.28 443.641 267.04 444.665 267.04C445.689 267.04 446.577 267.264 447.329 267.712C448.097 268.16 448.665 268.776 449.033 269.56V263.2H451.145V280H449.177V277.6C448.857 278.384 448.297 279.024 447.497 279.52C446.697 280 445.753 280.24 444.665 280.24ZM445.145 278.368C445.913 278.368 446.585 278.208 447.161 277.888C447.753 277.552 448.209 277.096 448.529 276.52C448.865 275.928 449.033 275.248 449.033 274.48V272.56C449.033 271.872 448.865 271.256 448.529 270.712C448.209 270.152 447.753 269.712 447.161 269.392C446.585 269.072 445.913 268.912 445.145 268.912C444.121 268.912 443.257 269.296 442.553 270.064C441.849 270.816 441.497 271.888 441.497 273.28V273.76C441.497 275.264 441.849 276.408 442.553 277.192C443.257 277.976 444.121 278.368 445.145 278.368ZM455.23 280V267.28H457.342V280H455.23ZM456.286 265.6C455.87 265.6 455.526 265.464 455.254 265.192C454.982 264.92 454.846 264.576 454.846 264.16C454.846 263.744 454.982 263.4 455.254 263.128C455.526 262.856 455.87 262.72 456.286 262.72C456.702 262.72 457.046 262.856 457.318 263.128C457.59 263.4 457.726 263.744 457.726 264.16C457.726 264.576 457.59 264.92 457.318 265.192C457.046 265.464 456.702 265.6 456.286 265.6ZM461.412 280V267.28H463.38V269.68C463.572 269.168 463.836 268.72 464.172 268.336C464.508 267.936 464.916 267.624 465.396 267.4C465.892 267.16 466.444 267.04 467.052 267.04C467.372 267.04 467.628 267.056 467.82 267.088C468.028 267.12 468.212 267.16 468.372 267.208V269.176C468.164 269.096 467.956 269.04 467.748 269.008C467.556 268.976 467.284 268.96 466.932 268.96C466.292 268.96 465.716 269.112 465.204 269.416C464.692 269.72 464.284 270.144 463.98 270.688C463.676 271.216 463.524 271.84 463.524 272.56V280H461.412ZM475.809 280.24C474.737 280.24 473.729 280.008 472.785 279.544C471.857 279.08 471.105 278.368 470.529 277.408C469.969 276.448 469.689 275.232 469.689 273.76V273.28C469.689 271.872 469.961 270.712 470.505 269.8C471.049 268.872 471.769 268.184 472.665 267.736C473.561 267.272 474.529 267.04 475.569 267.04C477.441 267.04 478.889 267.552 479.913 268.576C480.937 269.6 481.449 271.048 481.449 272.92V274.264H471.801C471.801 275.256 472.001 276.048 472.401 276.64C472.817 277.232 473.329 277.664 473.937 277.936C474.561 278.192 475.185 278.32 475.809 278.32C476.769 278.32 477.505 278.16 478.017 277.84C478.545 277.52 478.921 277.08 479.145 276.52H481.209C480.953 277.736 480.321 278.664 479.313 279.304C478.321 279.928 477.153 280.24 475.809 280.24ZM475.689 268.96C475.033 268.96 474.409 269.088 473.817 269.344C473.225 269.584 472.737 269.968 472.353 270.496C471.985 271.024 471.801 271.704 471.801 272.536H479.457C479.441 271.656 479.257 270.96 478.905 270.448C478.569 269.92 478.121 269.544 477.561 269.32C477.001 269.08 476.377 268.96 475.689 268.96ZM489.371 280.24C488.283 280.24 487.299 280.008 486.419 279.544C485.555 279.064 484.867 278.344 484.355 277.384C483.859 276.424 483.611 275.216 483.611 273.76V273.28C483.611 271.904 483.883 270.752 484.427 269.824C484.971 268.896 485.683 268.2 486.563 267.736C487.443 267.272 488.379 267.04 489.371 267.04C490.379 267.04 491.243 267.224 491.963 267.592C492.699 267.944 493.291 268.432 493.739 269.056C494.187 269.664 494.491 270.352 494.651 271.12H492.491C492.235 270.512 491.875 270 491.411 269.584C490.963 269.168 490.283 268.96 489.371 268.96C488.747 268.96 488.163 269.112 487.619 269.416C487.075 269.704 486.627 270.168 486.275 270.808C485.939 271.432 485.771 272.256 485.771 273.28V273.76C485.771 274.848 485.939 275.728 486.275 276.4C486.627 277.072 487.075 277.56 487.619 277.864C488.163 278.168 488.747 278.32 489.371 278.32C490.155 278.32 490.811 278.128 491.339 277.744C491.883 277.36 492.267 276.832 492.491 276.16H494.651C494.459 276.992 494.115 277.72 493.619 278.344C493.123 278.952 492.515 279.424 491.795 279.76C491.075 280.08 490.267 280.24 489.371 280.24ZM502.209 280.12C501.313 280.12 500.577 279.984 500.001 279.712C499.441 279.44 499.025 279.032 498.753 278.488C498.497 277.928 498.369 277.232 498.369 276.4V269.152H496.449V267.28H498.369V264.4H500.481V267.28H503.889V269.152H500.481V276.16C500.481 276.88 500.633 277.4 500.937 277.72C501.241 278.04 501.825 278.2 502.689 278.2C503.169 278.2 503.649 278.176 504.129 278.128V280C503.825 280.032 503.521 280.056 503.217 280.072C502.913 280.104 502.577 280.12 502.209 280.12ZM507.379 280V267.28H509.491V280H507.379ZM508.435 265.6C508.019 265.6 507.675 265.464 507.403 265.192C507.131 264.92 506.995 264.576 506.995 264.16C506.995 263.744 507.131 263.4 507.403 263.128C507.675 262.856 508.019 262.72 508.435 262.72C508.851 262.72 509.195 262.856 509.467 263.128C509.739 263.4 509.875 263.744 509.875 264.16C509.875 264.576 509.739 264.92 509.467 265.192C509.195 265.464 508.851 265.6 508.435 265.6ZM518.841 280.24C517.769 280.24 516.761 280.008 515.817 279.544C514.889 279.064 514.137 278.344 513.561 277.384C513.001 276.424 512.721 275.216 512.721 273.76V273.28C512.721 271.904 513.001 270.752 513.561 269.824C514.137 268.896 514.889 268.2 515.817 267.736C516.761 267.272 517.769 267.04 518.841 267.04C519.929 267.04 520.937 267.272 521.865 267.736C522.793 268.2 523.537 268.896 524.097 269.824C524.673 270.752 524.961 271.904 524.961 273.28V273.76C524.961 275.216 524.673 276.424 524.097 277.384C523.537 278.344 522.793 279.064 521.865 279.544C520.937 280.008 519.929 280.24 518.841 280.24ZM518.841 278.32C519.497 278.32 520.121 278.176 520.713 277.888C521.321 277.584 521.817 277.096 522.201 276.424C522.601 275.752 522.801 274.864 522.801 273.76V273.28C522.801 272.256 522.601 271.432 522.201 270.808C521.817 270.168 521.321 269.704 520.713 269.416C520.121 269.112 519.497 268.96 518.841 268.96C518.201 268.96 517.577 269.112 516.969 269.416C516.361 269.704 515.857 270.168 515.457 270.808C515.073 271.432 514.881 272.256 514.881 273.28V273.76C514.881 274.864 515.073 275.752 515.457 276.424C515.857 277.096 516.361 277.584 516.969 277.888C517.577 278.176 518.201 278.32 518.841 278.32ZM527.951 280V267.28H529.919V269.68C530.207 268.976 530.711 268.36 531.431 267.832C532.167 267.304 533.111 267.04 534.263 267.04C535.863 267.04 537.047 267.472 537.815 268.336C538.599 269.184 538.991 270.432 538.991 272.08V280H536.879V272.56C536.879 271.376 536.631 270.48 536.135 269.872C535.639 269.264 534.807 268.96 533.639 268.96C532.807 268.96 532.127 269.136 531.599 269.488C531.071 269.84 530.679 270.288 530.423 270.832C530.183 271.376 530.063 271.952 530.063 272.56V280H527.951Z" fill="#00001D"/>
<path d="M301.888 299.541C301.635 299.05 301.032 298.858 300.541 299.111C300.05 299.365 299.858 299.968 300.112 300.459L301.888 299.541ZM764.74 489.673C765.111 489.265 765.082 488.632 764.673 488.26L758.017 482.203C757.608 481.831 756.976 481.861 756.604 482.269C756.232 482.678 756.262 483.31 756.671 483.682L762.587 489.066L757.203 494.983C756.831 495.392 756.861 496.024 757.269 496.396C757.678 496.768 758.31 496.738 758.682 496.329L764.74 489.673ZM301 300L300.112 300.459C336.824 371.537 418.381 420.525 507.827 450.932C597.309 481.351 694.918 493.255 764.047 489.999L764 489L763.953 488.001C695.082 491.245 597.723 479.379 508.471 449.038C419.184 418.685 338.241 369.923 301.888 299.541L301 300Z" fill="#00001D"/>
<path d="M333.145 299.236C332.723 298.879 332.092 298.933 331.736 299.355C331.38 299.777 331.433 300.408 331.855 300.764L333.145 299.236ZM664.977 311.636C665.095 311.096 664.754 310.563 664.214 310.445L655.424 308.515C654.884 308.397 654.351 308.738 654.232 309.278C654.114 309.817 654.455 310.35 654.995 310.469L662.809 312.184L661.094 319.998C660.976 320.537 661.317 321.071 661.856 321.189C662.396 321.307 662.929 320.966 663.047 320.427L664.977 311.636ZM332.5 300L331.855 300.764C367.34 330.713 427.19 348.497 489.728 351.369C552.28 354.241 617.757 342.207 664.539 312.264L664 311.421L663.461 310.579C617.14 340.227 552.116 352.232 489.82 349.371C427.508 346.509 368.16 328.787 333.145 299.236L332.5 300Z" fill="#00001D"/>
</svg>
