<svg width="1200" height="600" viewBox="0 0 1200 600" fill="none" xmlns="http://www.w3.org/2000/svg">
<path d="M203.409 461.38C203.105 461.38 202.825 461.3 202.569 461.14C202.313 460.996 202.105 460.796 201.945 460.54C201.801 460.284 201.729 460.004 201.729 459.7C201.729 459.22 201.889 458.82 202.209 458.5C202.545 458.18 202.945 458.02 203.409 458.02C203.873 458.02 204.265 458.18 204.585 458.5C204.921 458.82 205.089 459.22 205.089 459.7C205.089 460.004 205.009 460.284 204.849 460.54C204.705 460.796 204.505 460.996 204.249 461.14C204.009 461.3 203.729 461.38 203.409 461.38ZM210.604 461.38C210.3 461.38 210.02 461.3 209.764 461.14C209.508 460.996 209.3 460.796 209.14 460.54C208.996 460.284 208.924 460.004 208.924 459.7C208.924 459.22 209.084 458.82 209.404 458.5C209.74 458.18 210.14 458.02 210.604 458.02C211.068 458.02 211.46 458.18 211.78 458.5C212.116 458.82 212.284 459.22 212.284 459.7C212.284 460.004 212.204 460.284 212.044 460.54C211.9 460.796 211.7 460.996 211.444 461.14C211.204 461.3 210.924 461.38 210.604 461.38ZM217.799 461.38C217.495 461.38 217.215 461.3 216.959 461.14C216.703 460.996 216.495 460.796 216.335 460.54C216.191 460.284 216.119 460.004 216.119 459.7C216.119 459.22 216.279 458.82 216.599 458.5C216.935 458.18 217.335 458.02 217.799 458.02C218.263 458.02 218.655 458.18 218.975 458.5C219.311 458.82 219.479 459.22 219.479 459.7C219.479 460.004 219.399 460.284 219.239 460.54C219.095 460.796 218.895 460.996 218.639 461.14C218.399 461.3 218.119 461.38 217.799 461.38ZM229.795 461.38C228.707 461.38 227.763 461.14 226.963 460.66C226.163 460.164 225.603 459.524 225.283 458.74V461.14H223.315V444.34H225.427V450.7C225.795 449.916 226.355 449.3 227.107 448.852C227.875 448.404 228.771 448.18 229.795 448.18C231.379 448.18 232.651 448.708 233.611 449.764C234.587 450.804 235.075 452.356 235.075 454.42V454.9C235.075 456.34 234.851 457.54 234.403 458.5C233.971 459.46 233.355 460.18 232.555 460.66C231.771 461.14 230.851 461.38 229.795 461.38ZM229.315 459.508C230.355 459.508 231.219 459.116 231.907 458.332C232.611 457.548 232.963 456.404 232.963 454.9V454.42C232.963 453.028 232.611 451.956 231.907 451.204C231.219 450.436 230.355 450.052 229.315 450.052C228.547 450.052 227.867 450.212 227.275 450.532C226.699 450.852 226.243 451.292 225.907 451.852C225.587 452.396 225.427 453.012 225.427 453.7V455.62C225.427 456.388 225.587 457.068 225.907 457.66C226.243 458.236 226.699 458.692 227.275 459.028C227.867 459.348 228.547 459.508 229.315 459.508ZM242.568 461.38C241.032 461.38 239.88 460.94 239.112 460.06C238.344 459.18 237.96 457.82 237.96 455.98V448.42H240.072V455.86C240.072 457.044 240.312 457.94 240.792 458.548C241.288 459.156 242.088 459.46 243.192 459.46C243.992 459.46 244.648 459.284 245.16 458.932C245.672 458.58 246.048 458.132 246.288 457.588C246.528 457.028 246.648 456.452 246.648 455.86V448.42H248.76V461.14H246.792V458.74C246.504 459.444 246 460.06 245.28 460.588C244.56 461.116 243.656 461.38 242.568 461.38ZM257.291 461.26C256.395 461.26 255.659 461.124 255.083 460.852C254.523 460.58 254.107 460.172 253.835 459.628C253.579 459.068 253.451 458.372 253.451 457.54V450.292H251.531V448.42H253.451V445.54H255.563V448.42H258.971V450.292H255.563V457.3C255.563 458.02 255.715 458.54 256.019 458.86C256.323 459.18 256.907 459.34 257.771 459.34C258.251 459.34 258.731 459.316 259.211 459.268V461.14C258.907 461.172 258.603 461.196 258.299 461.212C257.995 461.244 257.659 461.26 257.291 461.26ZM270.501 461.14L267.021 448.42H269.325L271.773 458.26L275.085 448.42H276.957L280.389 458.26L282.813 448.42H285.021L281.541 461.14H279.429L275.973 451.3L272.613 461.14H270.501ZM292.696 461.38C291.624 461.38 290.616 461.148 289.672 460.684C288.744 460.22 287.992 459.508 287.416 458.548C286.856 457.588 286.576 456.372 286.576 454.9V454.42C286.576 453.012 286.848 451.852 287.392 450.94C287.936 450.012 288.656 449.324 289.552 448.876C290.448 448.412 291.416 448.18 292.456 448.18C294.328 448.18 295.776 448.692 296.8 449.716C297.824 450.74 298.336 452.188 298.336 454.06V455.404H288.688C288.688 456.396 288.888 457.188 289.288 457.78C289.704 458.372 290.216 458.804 290.824 459.076C291.448 459.332 292.072 459.46 292.696 459.46C293.656 459.46 294.392 459.3 294.904 458.98C295.432 458.66 295.808 458.22 296.032 457.66H298.096C297.84 458.876 297.208 459.804 296.2 460.444C295.208 461.068 294.04 461.38 292.696 461.38ZM292.576 450.1C291.92 450.1 291.296 450.228 290.704 450.484C290.112 450.724 289.624 451.108 289.24 451.636C288.872 452.164 288.688 452.844 288.688 453.676H296.344C296.328 452.796 296.144 452.1 295.792 451.588C295.456 451.06 295.008 450.684 294.448 450.46C293.888 450.22 293.264 450.1 292.576 450.1ZM312.258 461.38C311.17 461.38 310.186 461.148 309.306 460.684C308.442 460.204 307.754 459.484 307.242 458.524C306.746 457.564 306.498 456.356 306.498 454.9V454.42C306.498 453.044 306.77 451.892 307.314 450.964C307.858 450.036 308.57 449.34 309.45 448.876C310.33 448.412 311.266 448.18 312.258 448.18C313.266 448.18 314.13 448.364 314.85 448.732C315.586 449.084 316.178 449.572 316.626 450.196C317.074 450.804 317.378 451.492 317.538 452.26H315.378C315.122 451.652 314.762 451.14 314.298 450.724C313.85 450.308 313.17 450.1 312.258 450.1C311.634 450.1 311.05 450.252 310.506 450.556C309.962 450.844 309.514 451.308 309.162 451.948C308.826 452.572 308.658 453.396 308.658 454.42V454.9C308.658 455.988 308.826 456.868 309.162 457.54C309.514 458.212 309.962 458.7 310.506 459.004C311.05 459.308 311.634 459.46 312.258 459.46C313.042 459.46 313.698 459.268 314.226 458.884C314.77 458.5 315.154 457.972 315.378 457.3H317.538C317.346 458.132 317.002 458.86 316.506 459.484C316.01 460.092 315.402 460.564 314.682 460.9C313.962 461.22 313.154 461.38 312.258 461.38ZM324.04 461.38C323.112 461.38 322.32 461.212 321.664 460.876C321.024 460.524 320.536 460.052 320.2 459.46C319.864 458.852 319.696 458.172 319.696 457.42C319.696 456.156 320.064 455.244 320.8 454.684C321.552 454.124 322.624 453.844 324.016 453.844H328.144V452.98C328.144 451.892 327.896 451.14 327.4 450.724C326.92 450.308 326.192 450.1 325.216 450.1C324.304 450.1 323.64 450.276 323.224 450.628C322.808 450.964 322.576 451.348 322.528 451.78H320.416C320.464 451.092 320.696 450.484 321.112 449.956C321.528 449.412 322.096 448.98 322.816 448.66C323.536 448.34 324.376 448.18 325.336 448.18C326.344 448.18 327.216 448.34 327.952 448.66C328.688 448.964 329.256 449.452 329.656 450.124C330.056 450.78 330.256 451.652 330.256 452.74V457.9C330.256 458.572 330.256 459.164 330.256 459.676C330.272 460.172 330.312 460.66 330.376 461.14H328.528C328.48 460.772 328.448 460.428 328.432 460.108C328.416 459.772 328.408 459.396 328.408 458.98C328.072 459.652 327.528 460.22 326.776 460.684C326.024 461.148 325.112 461.38 324.04 461.38ZM324.496 459.46C325.168 459.46 325.776 459.34 326.32 459.1C326.88 458.86 327.32 458.508 327.64 458.044C327.976 457.58 328.144 457.012 328.144 456.34V455.476H324.376C323.592 455.476 322.976 455.636 322.528 455.956C322.08 456.26 321.856 456.748 321.856 457.42C321.856 458.012 322.064 458.5 322.48 458.884C322.912 459.268 323.584 459.46 324.496 459.46ZM333.986 461.14V448.42H335.954V450.82C336.242 450.116 336.746 449.5 337.466 448.972C338.202 448.444 339.146 448.18 340.298 448.18C341.898 448.18 343.082 448.612 343.85 449.476C344.634 450.324 345.026 451.572 345.026 453.22V461.14H342.914V453.7C342.914 452.516 342.666 451.62 342.17 451.012C341.674 450.404 340.842 450.1 339.674 450.1C338.842 450.1 338.162 450.276 337.634 450.628C337.106 450.98 336.714 451.428 336.458 451.972C336.218 452.516 336.098 453.092 336.098 453.7V461.14H333.986ZM358.376 461.38C357.448 461.38 356.656 461.212 356 460.876C355.36 460.524 354.872 460.052 354.536 459.46C354.2 458.852 354.032 458.172 354.032 457.42C354.032 456.156 354.4 455.244 355.136 454.684C355.888 454.124 356.96 453.844 358.352 453.844H362.48V452.98C362.48 451.892 362.232 451.14 361.736 450.724C361.256 450.308 360.528 450.1 359.552 450.1C358.64 450.1 357.976 450.276 357.56 450.628C357.144 450.964 356.912 451.348 356.864 451.78H354.752C354.8 451.092 355.032 450.484 355.448 449.956C355.864 449.412 356.432 448.98 357.152 448.66C357.872 448.34 358.712 448.18 359.672 448.18C360.68 448.18 361.552 448.34 362.288 448.66C363.024 448.964 363.592 449.452 363.992 450.124C364.392 450.78 364.592 451.652 364.592 452.74V457.9C364.592 458.572 364.592 459.164 364.592 459.676C364.608 460.172 364.648 460.66 364.712 461.14H362.864C362.816 460.772 362.784 460.428 362.768 460.108C362.752 459.772 362.744 459.396 362.744 458.98C362.408 459.652 361.864 460.22 361.112 460.684C360.36 461.148 359.448 461.38 358.376 461.38ZM358.832 459.46C359.504 459.46 360.112 459.34 360.656 459.1C361.216 458.86 361.656 458.508 361.976 458.044C362.312 457.58 362.48 457.012 362.48 456.34V455.476H358.712C357.928 455.476 357.312 455.636 356.864 455.956C356.416 456.26 356.192 456.748 356.192 457.42C356.192 458.012 356.4 458.5 356.816 458.884C357.248 459.268 357.92 459.46 358.832 459.46ZM372.162 461.26C371.282 461.26 370.562 461.124 370.002 460.852C369.458 460.564 369.058 460.124 368.802 459.532C368.562 458.924 368.442 458.14 368.442 457.18V444.34H370.554V457.18C370.554 458.012 370.69 458.58 370.962 458.884C371.234 459.188 371.714 459.34 372.402 459.34C372.578 459.34 372.73 459.34 372.858 459.34C372.986 459.324 373.114 459.308 373.242 459.292V461.164C373.162 461.18 373.05 461.196 372.906 461.212C372.778 461.228 372.642 461.236 372.498 461.236C372.37 461.252 372.258 461.26 372.162 461.26ZM380.45 461.38C379.602 461.38 378.866 461.284 378.242 461.092C377.618 460.884 377.098 460.612 376.682 460.276C376.266 459.94 375.93 459.548 375.674 459.1C375.434 458.636 375.266 458.156 375.17 457.66H377.282C377.394 458.172 377.69 458.62 378.17 459.004C378.666 459.372 379.426 459.556 380.45 459.556C381.634 459.556 382.458 459.372 382.922 459.004C383.386 458.62 383.618 458.172 383.618 457.66C383.618 457.308 383.514 457.004 383.306 456.748C383.114 456.476 382.762 456.244 382.25 456.052C381.754 455.86 381.042 455.7 380.114 455.572C379.41 455.476 378.778 455.34 378.218 455.164C377.658 454.972 377.178 454.724 376.778 454.42C376.378 454.116 376.066 453.748 375.842 453.316C375.634 452.884 375.53 452.372 375.53 451.78C375.53 451.14 375.714 450.548 376.082 450.004C376.45 449.46 377.002 449.02 377.738 448.684C378.474 448.348 379.378 448.18 380.45 448.18C381.458 448.18 382.29 448.356 382.946 448.708C383.618 449.044 384.138 449.492 384.506 450.052C384.874 450.612 385.122 451.228 385.25 451.9H383.138C383.01 451.34 382.738 450.884 382.322 450.532C381.906 450.18 381.282 450.004 380.45 450.004C379.41 450.004 378.682 450.18 378.266 450.532C377.85 450.868 377.642 451.284 377.642 451.78C377.642 452.356 377.866 452.788 378.314 453.076C378.778 453.364 379.618 453.588 380.834 453.748C381.618 453.844 382.314 453.988 382.922 454.18C383.53 454.356 384.042 454.604 384.458 454.924C384.874 455.228 385.186 455.604 385.394 456.052C385.618 456.5 385.73 457.036 385.73 457.66C385.73 458.332 385.538 458.948 385.154 459.508C384.77 460.068 384.186 460.524 383.402 460.876C382.634 461.212 381.65 461.38 380.45 461.38ZM394.016 461.38C392.944 461.38 391.936 461.148 390.992 460.684C390.064 460.204 389.312 459.484 388.736 458.524C388.176 457.564 387.896 456.356 387.896 454.9V454.42C387.896 453.044 388.176 451.892 388.736 450.964C389.312 450.036 390.064 449.34 390.992 448.876C391.936 448.412 392.944 448.18 394.016 448.18C395.104 448.18 396.112 448.412 397.04 448.876C397.968 449.34 398.712 450.036 399.272 450.964C399.848 451.892 400.136 453.044 400.136 454.42V454.9C400.136 456.356 399.848 457.564 399.272 458.524C398.712 459.484 397.968 460.204 397.04 460.684C396.112 461.148 395.104 461.38 394.016 461.38ZM394.016 459.46C394.672 459.46 395.296 459.316 395.888 459.028C396.496 458.724 396.992 458.236 397.376 457.564C397.776 456.892 397.976 456.004 397.976 454.9V454.42C397.976 453.396 397.776 452.572 397.376 451.948C396.992 451.308 396.496 450.844 395.888 450.556C395.296 450.252 394.672 450.1 394.016 450.1C393.376 450.1 392.752 450.252 392.144 450.556C391.536 450.844 391.032 451.308 390.632 451.948C390.248 452.572 390.056 453.396 390.056 454.42V454.9C390.056 456.004 390.248 456.892 390.632 457.564C391.032 458.236 391.536 458.724 392.144 459.028C392.752 459.316 393.376 459.46 394.016 459.46ZM414.167 466.18C412.935 466.18 411.935 466.02 411.167 465.7C410.399 465.38 409.831 464.948 409.463 464.404C409.095 463.86 408.863 463.252 408.767 462.58H410.975C411.135 463.092 411.439 463.5 411.887 463.804C412.335 464.108 413.095 464.26 414.167 464.26C415.463 464.26 416.415 463.948 417.023 463.324C417.631 462.7 417.935 461.812 417.935 460.66V458.62C417.567 459.468 416.999 460.1 416.231 460.516C415.479 460.932 414.591 461.14 413.567 461.14C412.527 461.14 411.607 460.9 410.807 460.42C410.007 459.94 409.383 459.228 408.935 458.284C408.503 457.34 408.287 456.172 408.287 454.78V454.3C408.287 452.988 408.511 451.884 408.959 450.988C409.423 450.076 410.047 449.38 410.831 448.9C411.631 448.42 412.543 448.18 413.567 448.18C414.655 448.18 415.599 448.428 416.399 448.924C417.199 449.404 417.759 450.036 418.079 450.82V448.42H420.047V460.66C420.047 462.388 419.543 463.74 418.535 464.716C417.527 465.692 416.071 466.18 414.167 466.18ZM414.047 459.268C414.815 459.268 415.487 459.108 416.063 458.788C416.655 458.468 417.111 458.028 417.431 457.468C417.767 456.892 417.935 456.236 417.935 455.5V453.58C417.935 452.924 417.767 452.332 417.431 451.804C417.111 451.276 416.655 450.852 416.063 450.532C415.487 450.212 414.815 450.052 414.047 450.052C413.023 450.052 412.159 450.428 411.455 451.18C410.751 451.932 410.399 452.972 410.399 454.3V454.78C410.399 456.236 410.751 457.348 411.455 458.116C412.159 458.884 413.023 459.268 414.047 459.268ZM429.173 461.38C428.101 461.38 427.093 461.148 426.149 460.684C425.221 460.204 424.469 459.484 423.893 458.524C423.333 457.564 423.053 456.356 423.053 454.9V454.42C423.053 453.044 423.333 451.892 423.893 450.964C424.469 450.036 425.221 449.34 426.149 448.876C427.093 448.412 428.101 448.18 429.173 448.18C430.261 448.18 431.269 448.412 432.197 448.876C433.125 449.34 433.869 450.036 434.429 450.964C435.005 451.892 435.293 453.044 435.293 454.42V454.9C435.293 456.356 435.005 457.564 434.429 458.524C433.869 459.484 433.125 460.204 432.197 460.684C431.269 461.148 430.261 461.38 429.173 461.38ZM429.173 459.46C429.829 459.46 430.453 459.316 431.045 459.028C431.653 458.724 432.149 458.236 432.533 457.564C432.933 456.892 433.133 456.004 433.133 454.9V454.42C433.133 453.396 432.933 452.572 432.533 451.948C432.149 451.308 431.653 450.844 431.045 450.556C430.453 450.252 429.829 450.1 429.173 450.1C428.533 450.1 427.909 450.252 427.301 450.556C426.693 450.844 426.189 451.308 425.789 451.948C425.405 452.572 425.213 453.396 425.213 454.42V454.9C425.213 456.004 425.405 456.892 425.789 457.564C426.189 458.236 426.693 458.724 427.301 459.028C427.909 459.316 428.533 459.46 429.173 459.46ZM448.963 461.26C448.067 461.26 447.331 461.124 446.755 460.852C446.195 460.58 445.779 460.172 445.507 459.628C445.251 459.068 445.123 458.372 445.123 457.54V450.292H443.203V448.42H445.123V445.54H447.235V448.42H450.643V450.292H447.235V457.3C447.235 458.02 447.387 458.54 447.691 458.86C447.995 459.18 448.579 459.34 449.443 459.34C449.923 459.34 450.403 459.316 450.883 459.268V461.14C450.579 461.172 450.275 461.196 449.971 461.212C449.667 461.244 449.331 461.26 448.963 461.26ZM459.173 461.38C458.101 461.38 457.093 461.148 456.149 460.684C455.221 460.204 454.469 459.484 453.893 458.524C453.333 457.564 453.053 456.356 453.053 454.9V454.42C453.053 453.044 453.333 451.892 453.893 450.964C454.469 450.036 455.221 449.34 456.149 448.876C457.093 448.412 458.101 448.18 459.173 448.18C460.261 448.18 461.269 448.412 462.197 448.876C463.125 449.34 463.869 450.036 464.429 450.964C465.005 451.892 465.293 453.044 465.293 454.42V454.9C465.293 456.356 465.005 457.564 464.429 458.524C463.869 459.484 463.125 460.204 462.197 460.684C461.269 461.148 460.261 461.38 459.173 461.38ZM459.173 459.46C459.829 459.46 460.453 459.316 461.045 459.028C461.653 458.724 462.149 458.236 462.533 457.564C462.933 456.892 463.133 456.004 463.133 454.9V454.42C463.133 453.396 462.933 452.572 462.533 451.948C462.149 451.308 461.653 450.844 461.045 450.556C460.453 450.252 459.829 450.1 459.173 450.1C458.533 450.1 457.909 450.252 457.301 450.556C456.693 450.844 456.189 451.308 455.789 451.948C455.405 452.572 455.213 453.396 455.213 454.42V454.9C455.213 456.004 455.405 456.892 455.789 457.564C456.189 458.236 456.693 458.724 457.301 459.028C457.909 459.316 458.533 459.46 459.173 459.46ZM477.907 461.38C476.979 461.38 476.187 461.212 475.531 460.876C474.891 460.524 474.403 460.052 474.067 459.46C473.731 458.852 473.563 458.172 473.563 457.42C473.563 456.156 473.931 455.244 474.667 454.684C475.419 454.124 476.491 453.844 477.883 453.844H482.011V452.98C482.011 451.892 481.763 451.14 481.267 450.724C480.787 450.308 480.059 450.1 479.083 450.1C478.171 450.1 477.507 450.276 477.091 450.628C476.675 450.964 476.443 451.348 476.395 451.78H474.283C474.331 451.092 474.563 450.484 474.979 449.956C475.395 449.412 475.963 448.98 476.683 448.66C477.403 448.34 478.243 448.18 479.203 448.18C480.211 448.18 481.083 448.34 481.819 448.66C482.555 448.964 483.123 449.452 483.523 450.124C483.923 450.78 484.123 451.652 484.123 452.74V457.9C484.123 458.572 484.123 459.164 484.123 459.676C484.139 460.172 484.179 460.66 484.243 461.14H482.395C482.347 460.772 482.315 460.428 482.299 460.108C482.283 459.772 482.275 459.396 482.275 458.98C481.939 459.652 481.395 460.22 480.643 460.684C479.891 461.148 478.979 461.38 477.907 461.38ZM478.363 459.46C479.035 459.46 479.643 459.34 480.187 459.1C480.747 458.86 481.187 458.508 481.507 458.044C481.843 457.58 482.011 457.012 482.011 456.34V455.476H478.243C477.459 455.476 476.843 455.636 476.395 455.956C475.947 456.26 475.723 456.748 475.723 457.42C475.723 458.012 475.931 458.5 476.347 458.884C476.779 459.268 477.451 459.46 478.363 459.46ZM492.294 461.38C491.446 461.38 490.71 461.284 490.086 461.092C489.462 460.884 488.942 460.612 488.526 460.276C488.11 459.94 487.774 459.548 487.518 459.1C487.278 458.636 487.11 458.156 487.014 457.66H489.126C489.238 458.172 489.534 458.62 490.014 459.004C490.51 459.372 491.27 459.556 492.294 459.556C493.478 459.556 494.302 459.372 494.766 459.004C495.23 458.62 495.462 458.172 495.462 457.66C495.462 457.308 495.358 457.004 495.15 456.748C494.958 456.476 494.606 456.244 494.094 456.052C493.598 455.86 492.886 455.7 491.958 455.572C491.254 455.476 490.622 455.34 490.062 455.164C489.502 454.972 489.022 454.724 488.622 454.42C488.222 454.116 487.91 453.748 487.686 453.316C487.478 452.884 487.374 452.372 487.374 451.78C487.374 451.14 487.558 450.548 487.926 450.004C488.294 449.46 488.846 449.02 489.582 448.684C490.318 448.348 491.222 448.18 492.294 448.18C493.302 448.18 494.134 448.356 494.79 448.708C495.462 449.044 495.982 449.492 496.35 450.052C496.718 450.612 496.966 451.228 497.094 451.9H494.982C494.854 451.34 494.582 450.884 494.166 450.532C493.75 450.18 493.126 450.004 492.294 450.004C491.254 450.004 490.526 450.18 490.11 450.532C489.694 450.868 489.486 451.284 489.486 451.78C489.486 452.356 489.71 452.788 490.158 453.076C490.622 453.364 491.462 453.588 492.678 453.748C493.462 453.844 494.158 453.988 494.766 454.18C495.374 454.356 495.886 454.604 496.302 454.924C496.718 455.228 497.03 455.604 497.238 456.052C497.462 456.5 497.574 457.036 497.574 457.66C497.574 458.332 497.382 458.948 496.998 459.508C496.614 460.068 496.03 460.524 495.246 460.876C494.478 461.212 493.494 461.38 492.294 461.38ZM506.58 461.14V448.42H508.548V450.82C508.82 450.036 509.284 449.404 509.94 448.924C510.612 448.428 511.372 448.18 512.22 448.18C513.324 448.18 514.172 448.42 514.764 448.9C515.356 449.364 515.764 449.964 515.988 450.7C516.404 449.916 516.932 449.3 517.572 448.852C518.228 448.404 519.012 448.18 519.924 448.18C521.236 448.18 522.26 448.58 522.996 449.38C523.732 450.164 524.1 451.404 524.1 453.1V461.14H521.988V453.58C521.988 452.316 521.764 451.42 521.316 450.892C520.884 450.364 520.22 450.1 519.324 450.1C518.812 450.1 518.332 450.244 517.884 450.532C517.436 450.804 517.076 451.204 516.804 451.732C516.532 452.244 516.396 452.86 516.396 453.58V461.14H514.284V453.58C514.284 452.316 514.06 451.42 513.612 450.892C513.164 450.364 512.5 450.1 511.62 450.1C511.108 450.1 510.628 450.244 510.18 450.532C509.732 450.804 509.372 451.204 509.1 451.732C508.828 452.244 508.692 452.86 508.692 453.58V461.14H506.58ZM531.439 461.38C530.511 461.38 529.719 461.212 529.063 460.876C528.423 460.524 527.935 460.052 527.599 459.46C527.263 458.852 527.095 458.172 527.095 457.42C527.095 456.156 527.463 455.244 528.199 454.684C528.951 454.124 530.023 453.844 531.415 453.844H535.543V452.98C535.543 451.892 535.295 451.14 534.799 450.724C534.319 450.308 533.591 450.1 532.615 450.1C531.703 450.1 531.039 450.276 530.623 450.628C530.207 450.964 529.975 451.348 529.927 451.78H527.815C527.863 451.092 528.095 450.484 528.511 449.956C528.927 449.412 529.495 448.98 530.215 448.66C530.935 448.34 531.775 448.18 532.735 448.18C533.743 448.18 534.615 448.34 535.351 448.66C536.087 448.964 536.655 449.452 537.055 450.124C537.455 450.78 537.655 451.652 537.655 452.74V457.9C537.655 458.572 537.655 459.164 537.655 459.676C537.671 460.172 537.711 460.66 537.775 461.14H535.927C535.879 460.772 535.847 460.428 535.831 460.108C535.815 459.772 535.807 459.396 535.807 458.98C535.471 459.652 534.927 460.22 534.175 460.684C533.423 461.148 532.511 461.38 531.439 461.38ZM531.895 459.46C532.567 459.46 533.175 459.34 533.719 459.1C534.279 458.86 534.719 458.508 535.039 458.044C535.375 457.58 535.543 457.012 535.543 456.34V455.476H531.775C530.991 455.476 530.375 455.636 529.927 455.956C529.479 456.26 529.255 456.748 529.255 457.42C529.255 458.012 529.463 458.5 529.879 458.884C530.311 459.268 530.983 459.46 531.895 459.46ZM541.385 461.14V448.42H543.353V450.82C543.641 450.116 544.145 449.5 544.865 448.972C545.601 448.444 546.545 448.18 547.697 448.18C549.297 448.18 550.481 448.612 551.249 449.476C552.033 450.324 552.425 451.572 552.425 453.22V461.14H550.313V453.7C550.313 452.516 550.065 451.62 549.569 451.012C549.073 450.404 548.241 450.1 547.073 450.1C546.241 450.1 545.561 450.276 545.033 450.628C544.505 450.98 544.113 451.428 543.857 451.972C543.617 452.516 543.497 453.092 543.497 453.7V461.14H541.385ZM557.362 466.18C557.122 466.18 556.882 466.156 556.642 466.108V464.188C556.882 464.236 557.122 464.26 557.362 464.26C557.682 464.26 557.946 464.18 558.154 464.02C558.378 463.876 558.602 463.58 558.826 463.132C559.05 462.684 559.322 462.02 559.642 461.14L554.242 448.42H556.594L560.722 458.74L564.466 448.42H566.722L561.922 461.14C561.474 462.34 561.042 463.308 560.626 464.044C560.226 464.78 559.77 465.316 559.258 465.652C558.762 466.004 558.13 466.18 557.362 466.18ZM200.602 499.38C199.562 499.38 198.642 499.14 197.842 498.66C197.042 498.18 196.418 497.46 195.97 496.5C195.538 495.54 195.322 494.34 195.322 492.9V492.42C195.322 491.076 195.546 489.94 195.994 489.012C196.458 488.084 197.082 487.38 197.866 486.9C198.666 486.42 199.578 486.18 200.602 486.18C201.626 486.18 202.514 486.404 203.266 486.852C204.034 487.3 204.602 487.916 204.97 488.7V482.34H207.082V499.14H205.114V496.74C204.794 497.524 204.234 498.164 203.434 498.66C202.634 499.14 201.69 499.38 200.602 499.38ZM201.082 497.508C201.85 497.508 202.522 497.348 203.098 497.028C203.69 496.692 204.146 496.236 204.466 495.66C204.802 495.068 204.97 494.388 204.97 493.62V491.7C204.97 491.012 204.802 490.396 204.466 489.852C204.146 489.292 203.69 488.852 203.098 488.532C202.522 488.212 201.85 488.052 201.082 488.052C200.058 488.052 199.194 488.436 198.49 489.204C197.786 489.956 197.434 491.028 197.434 492.42V492.9C197.434 494.404 197.786 495.548 198.49 496.332C199.194 497.116 200.058 497.508 201.082 497.508ZM211.168 499.14V486.42H213.28V499.14H211.168ZM212.224 484.74C211.808 484.74 211.464 484.604 211.192 484.332C210.92 484.06 210.784 483.716 210.784 483.3C210.784 482.884 210.92 482.54 211.192 482.268C211.464 481.996 211.808 481.86 212.224 481.86C212.64 481.86 212.984 481.996 213.256 482.268C213.528 482.54 213.664 482.884 213.664 483.3C213.664 483.716 213.528 484.06 213.256 484.332C212.984 484.604 212.64 484.74 212.224 484.74ZM217.35 499.14V486.42H219.318V488.82C219.59 488.036 220.054 487.404 220.71 486.924C221.382 486.428 222.142 486.18 222.99 486.18C224.094 486.18 224.942 486.42 225.534 486.9C226.126 487.364 226.534 487.964 226.758 488.7C227.174 487.916 227.702 487.3 228.342 486.852C228.998 486.404 229.782 486.18 230.694 486.18C232.006 486.18 233.03 486.58 233.766 487.38C234.502 488.164 234.87 489.404 234.87 491.1V499.14H232.758V491.58C232.758 490.316 232.534 489.42 232.086 488.892C231.654 488.364 230.99 488.1 230.094 488.1C229.582 488.1 229.102 488.244 228.654 488.532C228.206 488.804 227.846 489.204 227.574 489.732C227.302 490.244 227.166 490.86 227.166 491.58V499.14H225.054V491.58C225.054 490.316 224.83 489.42 224.382 488.892C223.934 488.364 223.27 488.1 222.39 488.1C221.878 488.1 221.398 488.244 220.95 488.532C220.502 488.804 220.142 489.204 219.87 489.732C219.598 490.244 219.462 490.86 219.462 491.58V499.14H217.35ZM243.864 499.38C242.792 499.38 241.784 499.148 240.84 498.684C239.912 498.22 239.16 497.508 238.584 496.548C238.024 495.588 237.744 494.372 237.744 492.9V492.42C237.744 491.012 238.016 489.852 238.56 488.94C239.104 488.012 239.824 487.324 240.72 486.876C241.616 486.412 242.584 486.18 243.624 486.18C245.496 486.18 246.944 486.692 247.968 487.716C248.992 488.74 249.504 490.188 249.504 492.06V493.404H239.856C239.856 494.396 240.056 495.188 240.456 495.78C240.872 496.372 241.384 496.804 241.992 497.076C242.616 497.332 243.24 497.46 243.864 497.46C244.824 497.46 245.56 497.3 246.072 496.98C246.6 496.66 246.976 496.22 247.2 495.66H249.264C249.008 496.876 248.376 497.804 247.368 498.444C246.376 499.068 245.208 499.38 243.864 499.38ZM243.744 488.1C243.088 488.1 242.464 488.228 241.872 488.484C241.28 488.724 240.792 489.108 240.408 489.636C240.04 490.164 239.856 490.844 239.856 491.676H247.512C247.496 490.796 247.312 490.1 246.96 489.588C246.624 489.06 246.176 488.684 245.616 488.46C245.056 488.22 244.432 488.1 243.744 488.1ZM252.506 499.14V486.42H254.474V488.82C254.762 488.116 255.266 487.5 255.986 486.972C256.722 486.444 257.666 486.18 258.818 486.18C260.418 486.18 261.602 486.612 262.37 487.476C263.154 488.324 263.546 489.572 263.546 491.22V499.14H261.434V491.7C261.434 490.516 261.186 489.62 260.69 489.012C260.194 488.404 259.362 488.1 258.194 488.1C257.362 488.1 256.682 488.276 256.154 488.628C255.626 488.98 255.234 489.428 254.978 489.972C254.738 490.516 254.618 491.092 254.618 491.7V499.14H252.506ZM271.712 499.38C270.864 499.38 270.128 499.284 269.504 499.092C268.88 498.884 268.36 498.612 267.944 498.276C267.528 497.94 267.192 497.548 266.936 497.1C266.696 496.636 266.528 496.156 266.432 495.66H268.544C268.656 496.172 268.952 496.62 269.432 497.004C269.928 497.372 270.688 497.556 271.712 497.556C272.896 497.556 273.72 497.372 274.184 497.004C274.648 496.62 274.88 496.172 274.88 495.66C274.88 495.308 274.776 495.004 274.568 494.748C274.376 494.476 274.024 494.244 273.512 494.052C273.016 493.86 272.304 493.7 271.376 493.572C270.672 493.476 270.04 493.34 269.48 493.164C268.92 492.972 268.44 492.724 268.04 492.42C267.64 492.116 267.328 491.748 267.104 491.316C266.896 490.884 266.792 490.372 266.792 489.78C266.792 489.14 266.976 488.548 267.344 488.004C267.712 487.46 268.264 487.02 269 486.684C269.736 486.348 270.64 486.18 271.712 486.18C272.72 486.18 273.552 486.356 274.208 486.708C274.88 487.044 275.4 487.492 275.768 488.052C276.136 488.612 276.384 489.228 276.512 489.9H274.4C274.272 489.34 274 488.884 273.584 488.532C273.168 488.18 272.544 488.004 271.712 488.004C270.672 488.004 269.944 488.18 269.528 488.532C269.112 488.868 268.904 489.284 268.904 489.78C268.904 490.356 269.128 490.788 269.576 491.076C270.04 491.364 270.88 491.588 272.096 491.748C272.88 491.844 273.576 491.988 274.184 492.18C274.792 492.356 275.304 492.604 275.72 492.924C276.136 493.228 276.448 493.604 276.656 494.052C276.88 494.5 276.992 495.036 276.992 495.66C276.992 496.332 276.8 496.948 276.416 497.508C276.032 498.068 275.448 498.524 274.664 498.876C273.896 499.212 272.912 499.38 271.712 499.38ZM280.238 499.14V486.42H282.35V499.14H280.238ZM281.294 484.74C280.878 484.74 280.534 484.604 280.262 484.332C279.99 484.06 279.854 483.716 279.854 483.3C279.854 482.884 279.99 482.54 280.262 482.268C280.534 481.996 280.878 481.86 281.294 481.86C281.71 481.86 282.054 481.996 282.326 482.268C282.598 482.54 282.734 482.884 282.734 483.3C282.734 483.716 282.598 484.06 282.326 484.332C282.054 484.604 281.71 484.74 281.294 484.74ZM291.7 499.38C290.628 499.38 289.62 499.148 288.676 498.684C287.748 498.204 286.996 497.484 286.42 496.524C285.86 495.564 285.58 494.356 285.58 492.9V492.42C285.58 491.044 285.86 489.892 286.42 488.964C286.996 488.036 287.748 487.34 288.676 486.876C289.62 486.412 290.628 486.18 291.7 486.18C292.788 486.18 293.796 486.412 294.724 486.876C295.652 487.34 296.396 488.036 296.956 488.964C297.532 489.892 297.82 491.044 297.82 492.42V492.9C297.82 494.356 297.532 495.564 296.956 496.524C296.396 497.484 295.652 498.204 294.724 498.684C293.796 499.148 292.788 499.38 291.7 499.38ZM291.7 497.46C292.356 497.46 292.98 497.316 293.572 497.028C294.18 496.724 294.676 496.236 295.06 495.564C295.46 494.892 295.66 494.004 295.66 492.9V492.42C295.66 491.396 295.46 490.572 295.06 489.948C294.676 489.308 294.18 488.844 293.572 488.556C292.98 488.252 292.356 488.1 291.7 488.1C291.06 488.1 290.436 488.252 289.828 488.556C289.22 488.844 288.716 489.308 288.316 489.948C287.932 490.572 287.74 491.396 287.74 492.42V492.9C287.74 494.004 287.932 494.892 288.316 495.564C288.716 496.236 289.22 496.724 289.828 497.028C290.436 497.316 291.06 497.46 291.7 497.46ZM300.811 499.14V486.42H302.779V488.82C303.067 488.116 303.571 487.5 304.291 486.972C305.027 486.444 305.971 486.18 307.123 486.18C308.723 486.18 309.907 486.612 310.675 487.476C311.459 488.324 311.851 489.572 311.851 491.22V499.14H309.739V491.7C309.739 490.516 309.491 489.62 308.995 489.012C308.499 488.404 307.667 488.1 306.499 488.1C305.667 488.1 304.987 488.276 304.459 488.628C303.931 488.98 303.539 489.428 303.283 489.972C303.043 490.516 302.923 491.092 302.923 491.7V499.14H300.811ZM320.016 499.38C319.168 499.38 318.432 499.284 317.808 499.092C317.184 498.884 316.664 498.612 316.248 498.276C315.832 497.94 315.496 497.548 315.24 497.1C315 496.636 314.832 496.156 314.736 495.66H316.848C316.96 496.172 317.256 496.62 317.736 497.004C318.232 497.372 318.992 497.556 320.016 497.556C321.2 497.556 322.024 497.372 322.488 497.004C322.952 496.62 323.184 496.172 323.184 495.66C323.184 495.308 323.08 495.004 322.872 494.748C322.68 494.476 322.328 494.244 321.816 494.052C321.32 493.86 320.608 493.7 319.68 493.572C318.976 493.476 318.344 493.34 317.784 493.164C317.224 492.972 316.744 492.724 316.344 492.42C315.944 492.116 315.632 491.748 315.408 491.316C315.2 490.884 315.096 490.372 315.096 489.78C315.096 489.14 315.28 488.548 315.648 488.004C316.016 487.46 316.568 487.02 317.304 486.684C318.04 486.348 318.944 486.18 320.016 486.18C321.024 486.18 321.856 486.356 322.512 486.708C323.184 487.044 323.704 487.492 324.072 488.052C324.44 488.612 324.688 489.228 324.816 489.9H322.704C322.576 489.34 322.304 488.884 321.888 488.532C321.472 488.18 320.848 488.004 320.016 488.004C318.976 488.004 318.248 488.18 317.832 488.532C317.416 488.868 317.208 489.284 317.208 489.78C317.208 490.356 317.432 490.788 317.88 491.076C318.344 491.364 319.184 491.588 320.4 491.748C321.184 491.844 321.88 491.988 322.488 492.18C323.096 492.356 323.608 492.604 324.024 492.924C324.44 493.228 324.752 493.604 324.96 494.052C325.184 494.5 325.296 495.036 325.296 495.66C325.296 496.332 325.104 496.948 324.72 497.508C324.336 498.068 323.752 498.524 322.968 498.876C322.2 499.212 321.216 499.38 320.016 499.38ZM337.927 499.38C336.999 499.38 336.207 499.212 335.551 498.876C334.911 498.524 334.423 498.052 334.087 497.46C333.751 496.852 333.583 496.172 333.583 495.42C333.583 494.156 333.951 493.244 334.687 492.684C335.439 492.124 336.511 491.844 337.903 491.844H342.031V490.98C342.031 489.892 341.783 489.14 341.287 488.724C340.807 488.308 340.079 488.1 339.103 488.1C338.191 488.1 337.527 488.276 337.111 488.628C336.695 488.964 336.463 489.348 336.415 489.78H334.303C334.351 489.092 334.583 488.484 334.999 487.956C335.415 487.412 335.983 486.98 336.703 486.66C337.423 486.34 338.263 486.18 339.223 486.18C340.231 486.18 341.103 486.34 341.839 486.66C342.575 486.964 343.143 487.452 343.543 488.124C343.943 488.78 344.143 489.652 344.143 490.74V495.9C344.143 496.572 344.143 497.164 344.143 497.676C344.159 498.172 344.199 498.66 344.263 499.14H342.415C342.367 498.772 342.335 498.428 342.319 498.108C342.303 497.772 342.295 497.396 342.295 496.98C341.959 497.652 341.415 498.22 340.663 498.684C339.911 499.148 338.999 499.38 337.927 499.38ZM338.383 497.46C339.055 497.46 339.663 497.34 340.207 497.1C340.767 496.86 341.207 496.508 341.527 496.044C341.863 495.58 342.031 495.012 342.031 494.34V493.476H338.263C337.479 493.476 336.863 493.636 336.415 493.956C335.967 494.26 335.743 494.748 335.743 495.42C335.743 496.012 335.951 496.5 336.367 496.884C336.799 497.268 337.471 497.46 338.383 497.46ZM352.313 499.38C351.465 499.38 350.729 499.284 350.105 499.092C349.481 498.884 348.961 498.612 348.545 498.276C348.129 497.94 347.793 497.548 347.537 497.1C347.297 496.636 347.129 496.156 347.033 495.66H349.145C349.257 496.172 349.553 496.62 350.033 497.004C350.529 497.372 351.289 497.556 352.313 497.556C353.497 497.556 354.321 497.372 354.785 497.004C355.249 496.62 355.481 496.172 355.481 495.66C355.481 495.308 355.377 495.004 355.169 494.748C354.977 494.476 354.625 494.244 354.113 494.052C353.617 493.86 352.905 493.7 351.977 493.572C351.273 493.476 350.641 493.34 350.081 493.164C349.521 492.972 349.041 492.724 348.641 492.42C348.241 492.116 347.929 491.748 347.705 491.316C347.497 490.884 347.393 490.372 347.393 489.78C347.393 489.14 347.577 488.548 347.945 488.004C348.313 487.46 348.865 487.02 349.601 486.684C350.337 486.348 351.241 486.18 352.313 486.18C353.321 486.18 354.153 486.356 354.809 486.708C355.481 487.044 356.001 487.492 356.369 488.052C356.737 488.612 356.985 489.228 357.113 489.9H355.001C354.873 489.34 354.601 488.884 354.185 488.532C353.769 488.18 353.145 488.004 352.313 488.004C351.273 488.004 350.545 488.18 350.129 488.532C349.713 488.868 349.505 489.284 349.505 489.78C349.505 490.356 349.729 490.788 350.177 491.076C350.641 491.364 351.481 491.588 352.697 491.748C353.481 491.844 354.177 491.988 354.785 492.18C355.393 492.356 355.905 492.604 356.321 492.924C356.737 493.228 357.049 493.604 357.257 494.052C357.481 494.5 357.593 495.036 357.593 495.66C357.593 496.332 357.401 496.948 357.017 497.508C356.633 498.068 356.049 498.524 355.265 498.876C354.497 499.212 353.513 499.38 352.313 499.38ZM368.88 499.14L365.4 486.42H367.704L370.152 496.26L373.464 486.42H375.336L378.768 496.26L381.192 486.42H383.4L379.92 499.14H377.808L374.352 489.3L370.992 499.14H368.88ZM391.075 499.38C390.003 499.38 388.995 499.148 388.051 498.684C387.123 498.22 386.371 497.508 385.795 496.548C385.235 495.588 384.955 494.372 384.955 492.9V492.42C384.955 491.012 385.227 489.852 385.771 488.94C386.315 488.012 387.035 487.324 387.931 486.876C388.827 486.412 389.795 486.18 390.835 486.18C392.707 486.18 394.155 486.692 395.179 487.716C396.203 488.74 396.715 490.188 396.715 492.06V493.404H387.067C387.067 494.396 387.267 495.188 387.667 495.78C388.083 496.372 388.595 496.804 389.203 497.076C389.827 497.332 390.451 497.46 391.075 497.46C392.035 497.46 392.771 497.3 393.283 496.98C393.811 496.66 394.187 496.22 394.411 495.66H396.475C396.219 496.876 395.587 497.804 394.579 498.444C393.587 499.068 392.419 499.38 391.075 499.38ZM390.955 488.1C390.299 488.1 389.675 488.228 389.083 488.484C388.491 488.724 388.003 489.108 387.619 489.636C387.251 490.164 387.067 490.844 387.067 491.676H394.723C394.707 490.796 394.523 490.1 394.171 489.588C393.835 489.06 393.387 488.684 392.827 488.46C392.267 488.22 391.643 488.1 390.955 488.1ZM407.997 499.14L404.517 486.42H406.821L409.269 496.26L412.581 486.42H414.453L417.885 496.26L420.309 486.42H422.517L419.037 499.14H416.925L413.469 489.3L410.109 499.14H407.997ZM428.302 499.38C427.374 499.38 426.582 499.212 425.926 498.876C425.286 498.524 424.798 498.052 424.462 497.46C424.126 496.852 423.958 496.172 423.958 495.42C423.958 494.156 424.326 493.244 425.062 492.684C425.814 492.124 426.886 491.844 428.278 491.844H432.406V490.98C432.406 489.892 432.158 489.14 431.662 488.724C431.182 488.308 430.454 488.1 429.478 488.1C428.566 488.1 427.902 488.276 427.486 488.628C427.07 488.964 426.838 489.348 426.79 489.78H424.678C424.726 489.092 424.958 488.484 425.374 487.956C425.79 487.412 426.358 486.98 427.078 486.66C427.798 486.34 428.638 486.18 429.598 486.18C430.606 486.18 431.478 486.34 432.214 486.66C432.95 486.964 433.518 487.452 433.918 488.124C434.318 488.78 434.518 489.652 434.518 490.74V495.9C434.518 496.572 434.518 497.164 434.518 497.676C434.534 498.172 434.574 498.66 434.638 499.14H432.79C432.742 498.772 432.71 498.428 432.694 498.108C432.678 497.772 432.67 497.396 432.67 496.98C432.334 497.652 431.79 498.22 431.038 498.684C430.286 499.148 429.374 499.38 428.302 499.38ZM428.758 497.46C429.43 497.46 430.038 497.34 430.582 497.1C431.142 496.86 431.582 496.508 431.902 496.044C432.238 495.58 432.406 495.012 432.406 494.34V493.476H428.638C427.854 493.476 427.238 493.636 426.79 493.956C426.342 494.26 426.118 494.748 426.118 495.42C426.118 496.012 426.326 496.5 426.742 496.884C427.174 497.268 427.846 497.46 428.758 497.46ZM438.248 499.14V486.42H440.216V488.82C440.504 488.116 441.008 487.5 441.728 486.972C442.464 486.444 443.408 486.18 444.56 486.18C446.16 486.18 447.344 486.612 448.112 487.476C448.896 488.324 449.288 489.572 449.288 491.22V499.14H447.176V491.7C447.176 490.516 446.928 489.62 446.432 489.012C445.936 488.404 445.104 488.1 443.936 488.1C443.104 488.1 442.424 488.276 441.896 488.628C441.368 488.98 440.976 489.428 440.72 489.972C440.48 490.516 440.36 491.092 440.36 491.7V499.14H438.248ZM457.459 499.26C456.563 499.26 455.827 499.124 455.251 498.852C454.691 498.58 454.275 498.172 454.003 497.628C453.747 497.068 453.619 496.372 453.619 495.54V488.292H451.699V486.42H453.619V483.54H455.731V486.42H459.139V488.292H455.731V495.3C455.731 496.02 455.883 496.54 456.187 496.86C456.491 497.18 457.075 497.34 457.939 497.34C458.419 497.34 458.899 497.316 459.379 497.268V499.14C459.075 499.172 458.771 499.196 458.467 499.212C458.163 499.244 457.827 499.26 457.459 499.26ZM468.629 493.38V492.9C468.629 491.332 468.845 489.908 469.277 488.628C469.725 487.348 470.221 486.236 470.765 485.292C471.085 484.748 471.421 484.236 471.773 483.756C472.125 483.26 472.501 482.788 472.901 482.34H475.349C474.917 482.788 474.509 483.26 474.125 483.756C473.741 484.236 473.389 484.748 473.069 485.292C472.493 486.22 471.965 487.332 471.485 488.628C471.021 489.908 470.789 491.332 470.789 492.9V493.38C470.789 494.948 471.021 496.38 471.485 497.676C471.965 498.972 472.493 500.084 473.069 501.012C473.389 501.556 473.741 502.076 474.125 502.572C474.509 503.068 474.917 503.524 475.349 503.94H472.805C472.405 503.524 472.029 503.068 471.677 502.572C471.341 502.076 471.021 501.556 470.717 501.012C470.189 500.084 469.709 498.972 469.277 497.676C468.845 496.38 468.629 494.948 468.629 493.38ZM482.426 499.38C481.338 499.38 480.354 499.148 479.474 498.684C478.61 498.204 477.922 497.484 477.41 496.524C476.914 495.564 476.666 494.356 476.666 492.9V492.42C476.666 491.044 476.938 489.892 477.482 488.964C478.026 488.036 478.738 487.34 479.618 486.876C480.498 486.412 481.434 486.18 482.426 486.18C483.434 486.18 484.298 486.364 485.018 486.732C485.754 487.084 486.346 487.572 486.794 488.196C487.242 488.804 487.546 489.492 487.706 490.26H485.546C485.29 489.652 484.93 489.14 484.466 488.724C484.018 488.308 483.338 488.1 482.426 488.1C481.802 488.1 481.218 488.252 480.674 488.556C480.13 488.844 479.682 489.308 479.33 489.948C478.994 490.572 478.826 491.396 478.826 492.42V492.9C478.826 493.988 478.994 494.868 479.33 495.54C479.682 496.212 480.13 496.7 480.674 497.004C481.218 497.308 481.802 497.46 482.426 497.46C483.21 497.46 483.866 497.268 484.394 496.884C484.938 496.5 485.322 495.972 485.546 495.3H487.706C487.514 496.132 487.17 496.86 486.674 497.484C486.178 498.092 485.57 498.564 484.85 498.9C484.13 499.22 483.322 499.38 482.426 499.38ZM494.208 499.38C493.28 499.38 492.488 499.212 491.832 498.876C491.192 498.524 490.704 498.052 490.368 497.46C490.032 496.852 489.864 496.172 489.864 495.42C489.864 494.156 490.232 493.244 490.968 492.684C491.72 492.124 492.792 491.844 494.184 491.844H498.312V490.98C498.312 489.892 498.064 489.14 497.568 488.724C497.088 488.308 496.36 488.1 495.384 488.1C494.472 488.1 493.808 488.276 493.392 488.628C492.976 488.964 492.744 489.348 492.696 489.78H490.584C490.632 489.092 490.864 488.484 491.28 487.956C491.696 487.412 492.264 486.98 492.984 486.66C493.704 486.34 494.544 486.18 495.504 486.18C496.512 486.18 497.384 486.34 498.12 486.66C498.856 486.964 499.424 487.452 499.824 488.124C500.224 488.78 500.424 489.652 500.424 490.74V495.9C500.424 496.572 500.424 497.164 500.424 497.676C500.44 498.172 500.48 498.66 500.544 499.14H498.696C498.648 498.772 498.616 498.428 498.6 498.108C498.584 497.772 498.576 497.396 498.576 496.98C498.24 497.652 497.696 498.22 496.944 498.684C496.192 499.148 495.28 499.38 494.208 499.38ZM494.664 497.46C495.336 497.46 495.944 497.34 496.488 497.1C497.048 496.86 497.488 496.508 497.808 496.044C498.144 495.58 498.312 495.012 498.312 494.34V493.476H494.544C493.76 493.476 493.144 493.636 492.696 493.956C492.248 494.26 492.024 494.748 492.024 495.42C492.024 496.012 492.232 496.5 492.648 496.884C493.08 497.268 493.752 497.46 494.664 497.46ZM507.994 499.26C507.114 499.26 506.394 499.124 505.834 498.852C505.29 498.564 504.89 498.124 504.634 497.532C504.394 496.924 504.274 496.14 504.274 495.18V482.34H506.386V495.18C506.386 496.012 506.522 496.58 506.794 496.884C507.066 497.188 507.546 497.34 508.234 497.34C508.41 497.34 508.562 497.34 508.69 497.34C508.818 497.324 508.946 497.308 509.074 497.292V499.164C508.994 499.18 508.882 499.196 508.738 499.212C508.61 499.228 508.474 499.236 508.33 499.236C508.202 499.252 508.09 499.26 507.994 499.26ZM515.682 499.26C514.802 499.26 514.082 499.124 513.522 498.852C512.978 498.564 512.578 498.124 512.322 497.532C512.082 496.924 511.962 496.14 511.962 495.18V482.34H514.074V495.18C514.074 496.012 514.21 496.58 514.482 496.884C514.754 497.188 515.234 497.34 515.922 497.34C516.098 497.34 516.25 497.34 516.378 497.34C516.506 497.324 516.634 497.308 516.762 497.292V499.164C516.682 499.18 516.57 499.196 516.426 499.212C516.298 499.228 516.162 499.236 516.018 499.236C515.89 499.252 515.778 499.26 515.682 499.26ZM525.769 499.14V486.42H527.881V499.14H525.769ZM526.825 484.74C526.409 484.74 526.065 484.604 525.793 484.332C525.521 484.06 525.385 483.716 525.385 483.3C525.385 482.884 525.521 482.54 525.793 482.268C526.065 481.996 526.409 481.86 526.825 481.86C527.241 481.86 527.585 481.996 527.857 482.268C528.129 482.54 528.265 482.884 528.265 483.3C528.265 483.716 528.129 484.06 527.857 484.332C527.585 484.604 527.241 484.74 526.825 484.74ZM536.631 499.26C535.735 499.26 534.999 499.124 534.423 498.852C533.863 498.58 533.447 498.172 533.175 497.628C532.919 497.068 532.791 496.372 532.791 495.54V488.292H530.871V486.42H532.791V483.54H534.903V486.42H538.311V488.292H534.903V495.3C534.903 496.02 535.055 496.54 535.359 496.86C535.663 497.18 536.247 497.34 537.111 497.34C537.591 497.34 538.071 497.316 538.551 497.268V499.14C538.247 499.172 537.943 499.196 537.639 499.212C537.335 499.244 536.999 499.26 536.631 499.26ZM570.601 492.9V493.38C570.601 494.948 570.377 496.372 569.929 497.652C569.497 498.932 569.009 500.044 568.465 500.988C568.161 501.532 567.825 502.044 567.457 502.524C567.105 503.02 566.729 503.492 566.329 503.94H563.881C564.313 503.492 564.721 503.02 565.105 502.524C565.489 502.044 565.841 501.532 566.161 500.988C566.737 500.06 567.257 498.948 567.721 497.652C568.201 496.356 568.441 494.932 568.441 493.38V492.9C568.441 491.332 568.201 489.9 567.721 488.604C567.257 487.308 566.737 486.196 566.161 485.268C565.841 484.708 565.489 484.188 565.105 483.708C564.721 483.212 564.313 482.756 563.881 482.34H566.425C566.825 482.756 567.193 483.212 567.529 483.708C567.881 484.188 568.209 484.708 568.513 485.268C569.041 486.196 569.521 487.308 569.953 488.604C570.385 489.9 570.601 491.332 570.601 492.9Z" fill="#00001D"/>
<path d="M312.38 242.219C312.38 241.519 312.114 241.169 311.583 241.169C310.911 241.169 310.211 241.575 309.484 242.386C308.756 243.198 308.155 244.443 307.679 246.122C307.651 246.15 307.623 246.192 307.595 246.248C307.567 246.304 307.553 246.346 307.553 246.374C307.553 246.402 307.525 246.43 307.469 246.458C307.413 246.486 307.371 246.5 307.343 246.5C307.315 246.5 307.259 246.5 307.175 246.5C307.091 246.5 306.979 246.5 306.839 246.5H306.252C306.084 246.332 306 246.206 306 246.122C306 245.926 306.112 245.521 306.336 244.905C306.56 244.289 306.895 243.562 307.343 242.722C307.791 241.883 308.407 241.169 309.19 240.582C309.974 239.994 310.855 239.686 311.834 239.658C313.01 239.658 313.919 239.994 314.563 240.666C315.206 241.337 315.542 242.121 315.57 243.016C315.57 243.492 315.528 243.856 315.444 244.107C315.444 244.275 315.234 244.891 314.815 245.954C314.395 247.018 313.961 248.263 313.513 249.69C313.066 251.117 312.814 252.362 312.758 253.426C312.758 254.181 312.828 254.797 312.968 255.272C313.331 256.476 314.213 257.077 315.612 257.077C316.647 257.077 317.613 256.602 318.508 255.65C319.404 254.699 320.103 253.593 320.607 252.334C321.111 251.075 321.516 249.914 321.824 248.85C322.132 247.787 322.286 247.018 322.286 246.542C322.286 245.898 322.174 245.339 321.95 244.863C321.726 244.387 321.474 244.023 321.195 243.772C320.915 243.52 320.663 243.268 320.439 243.016C320.215 242.764 320.103 242.456 320.103 242.093C320.103 241.477 320.369 240.903 320.901 240.372C321.432 239.84 322.006 239.574 322.622 239.574C323.153 239.574 323.629 239.826 324.049 240.33C324.469 240.833 324.692 241.645 324.72 242.764C324.72 243.52 324.552 244.681 324.217 246.248C323.881 247.815 323.363 249.564 322.664 251.495C321.964 253.426 320.971 255.091 319.684 256.49C318.396 257.889 316.913 258.602 315.234 258.63C313.443 258.63 312.016 258.169 310.953 257.245C309.918 256.35 309.4 255.021 309.4 253.258C309.4 252.39 309.512 251.495 309.736 250.571C309.96 249.648 310.533 248.011 311.457 245.66C312.072 243.87 312.38 242.722 312.38 242.219Z" fill="#00001D"/>
<path d="M321.796 229.584C321.796 229.361 321.866 229.165 322.006 228.997C322.146 228.829 322.356 228.745 322.635 228.745C322.831 228.745 322.999 228.815 323.139 228.955C323.279 229.067 323.419 229.333 323.559 229.752C323.839 230.788 324.412 231.585 325.28 232.145C325.588 232.341 325.741 232.593 325.741 232.9C325.741 233.152 325.699 233.32 325.616 233.404C325.532 233.488 325.336 233.614 325.028 233.782C323.825 234.397 322.775 235.279 321.88 236.426C321.824 236.482 321.754 236.566 321.67 236.678C321.586 236.79 321.516 236.874 321.46 236.93C321.404 236.986 321.334 237.014 321.25 237.014C321.166 237.014 321.068 237.028 320.956 237.056C320.761 237.056 320.579 236.986 320.411 236.846C320.243 236.706 320.145 236.496 320.117 236.216C320.117 235.685 320.775 234.859 322.09 233.74H314.912L307.735 233.698C307.371 233.446 307.189 233.18 307.189 232.9C307.189 232.704 307.371 232.425 307.735 232.061H322.803C322.132 230.998 321.796 230.172 321.796 229.584Z" fill="#00001D"/>
<path d="M340.969 243.604C340.969 243.24 341.165 242.96 341.556 242.764H368.294C368.714 242.988 368.923 243.268 368.923 243.604C368.923 243.912 368.728 244.177 368.336 244.401L354.988 244.443H341.64C341.193 244.303 340.969 244.023 340.969 243.604ZM340.969 251.747C340.969 251.327 341.193 251.047 341.64 250.907H368.336C368.728 251.187 368.923 251.467 368.923 251.747C368.923 252.11 368.714 252.39 368.294 252.586H341.556C341.165 252.39 340.969 252.11 340.969 251.747Z" fill="#00001D"/>
<path d="M396.352 202.511V127H410.917V130.526H399.877V202.511H396.352Z" fill="#00001D"/>
<path d="M396.352 368.35V292.839H399.877V364.824H410.917V368.35H396.352Z" fill="#00001D"/>
<g clip-path="url(#clip0_119_659)">
<path d="M396.352 321.717V173.645H399.877V321.717H396.352Z" fill="#00001D"/>
</g>
<path d="M419.706 142.53C419.706 141.831 419.44 141.481 418.908 141.481C418.237 141.481 417.537 141.886 416.81 142.698C416.082 143.509 415.48 144.755 415.005 146.434C414.977 146.462 414.949 146.504 414.921 146.56C414.893 146.616 414.879 146.658 414.879 146.685C414.879 146.713 414.851 146.741 414.795 146.769C414.739 146.797 414.697 146.811 414.669 146.811C414.641 146.811 414.585 146.811 414.501 146.811C414.417 146.811 414.305 146.811 414.165 146.811H413.578C413.41 146.644 413.326 146.518 413.326 146.434C413.326 146.238 413.438 145.832 413.661 145.216C413.885 144.601 414.221 143.873 414.669 143.034C415.117 142.194 415.732 141.481 416.516 140.893C417.299 140.305 418.181 139.998 419.16 139.97C420.335 139.97 421.245 140.305 421.888 140.977C422.532 141.649 422.868 142.432 422.896 143.328C422.896 143.803 422.854 144.167 422.77 144.419C422.77 144.587 422.56 145.202 422.14 146.266C421.72 147.329 421.287 148.574 420.839 150.001C420.391 151.429 420.139 152.674 420.083 153.737C420.083 154.493 420.153 155.108 420.293 155.584C420.657 156.787 421.539 157.389 422.938 157.389C423.973 157.389 424.938 156.913 425.834 155.962C426.729 155.01 427.429 153.905 427.933 152.646C428.436 151.387 428.842 150.225 429.15 149.162C429.458 148.099 429.612 147.329 429.612 146.853C429.612 146.21 429.5 145.65 429.276 145.174C429.052 144.699 428.8 144.335 428.52 144.083C428.24 143.831 427.989 143.579 427.765 143.328C427.541 143.076 427.429 142.768 427.429 142.404C427.429 141.789 427.695 141.215 428.226 140.683C428.758 140.152 429.332 139.886 429.947 139.886C430.479 139.886 430.955 140.138 431.374 140.641C431.794 141.145 432.018 141.956 432.046 143.076C432.046 143.831 431.878 144.993 431.542 146.56C431.207 148.127 430.689 149.876 429.989 151.806C429.29 153.737 428.296 155.402 427.009 156.801C425.722 158.2 424.239 158.914 422.56 158.942C420.769 158.942 419.342 158.48 418.279 157.557C417.243 156.661 416.726 155.332 416.726 153.569C416.726 152.702 416.838 151.806 417.061 150.883C417.285 149.959 417.859 148.322 418.782 145.972C419.398 144.181 419.706 143.034 419.706 142.53Z" fill="#00001D"/>
<path d="M439.123 147.624L438.737 147.772C438.46 147.871 438.065 147.97 437.55 148.069C437.036 148.168 436.462 148.237 435.829 148.277H435.265V146.912H435.829C436.759 146.872 437.619 146.724 438.411 146.466C439.202 146.209 439.756 145.972 440.073 145.754C440.389 145.537 440.666 145.319 440.903 145.101C440.943 145.042 441.062 145.012 441.26 145.012C441.438 145.012 441.606 145.072 441.764 145.19V154.063L441.794 162.966C441.932 163.105 442.051 163.194 442.15 163.233C442.249 163.273 442.486 163.312 442.862 163.352C443.238 163.391 443.851 163.411 444.702 163.411H445.474V164.776H445.147C444.732 164.717 443.159 164.687 440.429 164.687C437.738 164.687 436.185 164.717 435.77 164.776H435.414V163.411H436.185C436.62 163.411 436.996 163.411 437.313 163.411C437.629 163.411 437.877 163.401 438.055 163.381C438.233 163.362 438.391 163.332 438.529 163.292C438.668 163.253 438.747 163.233 438.767 163.233C438.787 163.233 438.846 163.184 438.945 163.085C439.044 162.986 439.103 162.946 439.123 162.966V147.624Z" fill="#00001D"/>
<path d="M419.706 201.294C419.706 200.594 419.44 200.244 418.908 200.244C418.237 200.244 417.537 200.65 416.81 201.462C416.082 202.273 415.48 203.518 415.005 205.197C414.977 205.225 414.949 205.267 414.921 205.323C414.893 205.379 414.879 205.421 414.879 205.449C414.879 205.477 414.851 205.505 414.795 205.533C414.739 205.561 414.697 205.575 414.669 205.575C414.641 205.575 414.585 205.575 414.501 205.575C414.417 205.575 414.305 205.575 414.165 205.575H413.578C413.41 205.407 413.326 205.281 413.326 205.197C413.326 205.001 413.438 204.596 413.661 203.98C413.885 203.364 414.221 202.637 414.669 201.797C415.117 200.958 415.732 200.244 416.516 199.657C417.299 199.069 418.181 198.761 419.16 198.733C420.335 198.733 421.245 199.069 421.888 199.741C422.532 200.412 422.868 201.196 422.896 202.091C422.896 202.567 422.854 202.931 422.77 203.183C422.77 203.35 422.56 203.966 422.14 205.029C421.72 206.093 421.287 207.338 420.839 208.765C420.391 210.192 420.139 211.437 420.083 212.501C420.083 213.256 420.153 213.872 420.293 214.348C420.657 215.551 421.539 216.153 422.938 216.153C423.973 216.153 424.938 215.677 425.834 214.725C426.729 213.774 427.429 212.669 427.933 211.409C428.436 210.15 428.842 208.989 429.15 207.926C429.458 206.862 429.612 206.093 429.612 205.617C429.612 204.973 429.5 204.414 429.276 203.938C429.052 203.462 428.8 203.099 428.52 202.847C428.24 202.595 427.989 202.343 427.765 202.091C427.541 201.839 427.429 201.532 427.429 201.168C427.429 200.552 427.695 199.979 428.226 199.447C428.758 198.915 429.332 198.649 429.947 198.649C430.479 198.649 430.955 198.901 431.374 199.405C431.794 199.909 432.018 200.72 432.046 201.839C432.046 202.595 431.878 203.756 431.542 205.323C431.207 206.89 430.689 208.639 429.989 210.57C429.29 212.501 428.296 214.166 427.009 215.565C425.722 216.964 424.239 217.678 422.56 217.706C420.769 217.706 419.342 217.244 418.279 216.32C417.243 215.425 416.726 214.096 416.726 212.333C416.726 211.465 416.838 210.57 417.061 209.647C417.285 208.723 417.859 207.086 418.782 204.736C419.398 202.945 419.706 201.797 419.706 201.294Z" fill="#00001D"/>
<path d="M436.036 210.809C435.502 210.809 435.077 210.631 434.76 210.275C434.443 209.919 434.285 209.484 434.285 208.969C434.285 207.565 434.809 206.348 435.858 205.319C436.906 204.29 438.212 203.776 439.775 203.776C441.575 203.776 443.079 204.33 444.286 205.438C445.493 206.546 446.106 207.98 446.126 209.741C446.126 210.591 445.928 211.403 445.532 212.174C445.137 212.946 444.662 213.618 444.108 214.192C443.554 214.766 442.762 215.498 441.734 216.388C441.022 217.001 440.032 217.911 438.766 219.118L437.015 220.78L439.271 220.81C442.377 220.81 444.029 220.76 444.226 220.661C444.365 220.622 444.602 219.741 444.939 218.02V217.931H446.126V218.02C446.106 218.08 445.977 218.98 445.74 220.721C445.503 222.462 445.354 223.372 445.295 223.451V223.54H434.285V222.976V222.62C434.285 222.481 434.345 222.333 434.463 222.175C434.582 222.017 434.879 221.67 435.353 221.136C435.927 220.503 436.422 219.949 436.837 219.474C437.015 219.277 437.352 218.911 437.846 218.376C438.341 217.842 438.677 217.476 438.855 217.278C439.033 217.081 439.32 216.754 439.716 216.299C440.111 215.844 440.388 215.508 440.547 215.29C440.705 215.072 440.932 214.776 441.229 214.4C441.526 214.024 441.734 213.707 441.852 213.45C441.971 213.193 442.12 212.906 442.298 212.59C442.476 212.273 442.604 211.957 442.683 211.64C442.762 211.323 442.832 211.027 442.891 210.75C442.95 210.473 442.98 210.146 442.98 209.77C442.98 208.524 442.644 207.446 441.971 206.536C441.298 205.626 440.339 205.171 439.093 205.171C438.44 205.171 437.866 205.339 437.371 205.675C436.877 206.012 436.531 206.338 436.333 206.655C436.135 206.971 436.036 207.159 436.036 207.218C436.036 207.238 436.085 207.248 436.184 207.248C436.541 207.248 436.906 207.387 437.282 207.663C437.658 207.94 437.846 208.395 437.846 209.029C437.846 209.523 437.688 209.939 437.371 210.275C437.055 210.611 436.61 210.789 436.036 210.809Z" fill="#00001D"/>
<path d="M428.529 297.834C428.529 297.162 428.767 296.575 429.242 296.071C429.718 295.567 430.32 295.315 431.047 295.315C431.719 295.315 432.306 295.539 432.81 295.987C433.314 296.435 433.58 297.036 433.608 297.792C433.608 298.491 433.37 299.093 432.894 299.597C432.418 300.1 431.817 300.352 431.089 300.352C430.362 300.352 429.76 300.114 429.284 299.639C428.809 299.163 428.557 298.561 428.529 297.834ZM428.529 280.624C428.529 279.953 428.767 279.365 429.242 278.862C429.718 278.358 430.32 278.106 431.047 278.106C431.719 278.106 432.306 278.33 432.81 278.778C433.314 279.225 433.58 279.827 433.608 280.582C433.608 281.282 433.37 281.884 432.894 282.387C432.418 282.891 431.817 283.143 431.089 283.143C430.362 283.143 429.76 282.905 429.284 282.429C428.809 281.954 428.557 281.352 428.529 280.624ZM428.529 263.835C428.529 263.163 428.767 262.576 429.242 262.072C429.718 261.568 430.32 261.316 431.047 261.316C431.719 261.316 432.306 261.54 432.81 261.988C433.314 262.436 433.58 263.037 433.608 263.793C433.608 264.492 433.37 265.094 432.894 265.598C432.418 266.101 431.817 266.353 431.089 266.353C430.362 266.353 429.76 266.115 429.284 265.64C428.809 265.164 428.557 264.562 428.529 263.835Z" fill="#00001D"/>
<path d="M418.22 341.906C418.22 341.207 417.954 340.857 417.422 340.857C416.751 340.857 416.051 341.263 415.324 342.074C414.596 342.886 413.995 344.131 413.519 345.81C413.491 345.838 413.463 345.88 413.435 345.936C413.407 345.992 413.393 346.034 413.393 346.062C413.393 346.09 413.365 346.118 413.309 346.146C413.253 346.174 413.211 346.188 413.183 346.188C413.155 346.188 413.099 346.188 413.015 346.188C412.931 346.188 412.819 346.188 412.679 346.188H412.092C411.924 346.02 411.84 345.894 411.84 345.81C411.84 345.614 411.952 345.208 412.176 344.593C412.399 343.977 412.735 343.25 413.183 342.41C413.631 341.571 414.246 340.857 415.03 340.269C415.813 339.682 416.695 339.374 417.674 339.346C418.849 339.346 419.759 339.682 420.403 340.353C421.046 341.025 421.382 341.808 421.41 342.704C421.41 343.18 421.368 343.543 421.284 343.795C421.284 343.963 421.074 344.579 420.654 345.642C420.235 346.705 419.801 347.951 419.353 349.378C418.905 350.805 418.654 352.05 418.598 353.113C418.598 353.869 418.668 354.485 418.808 354.96C419.171 356.164 420.053 356.765 421.452 356.765C422.487 356.765 423.453 356.289 424.348 355.338C425.244 354.387 425.943 353.281 426.447 352.022C426.95 350.763 427.356 349.602 427.664 348.538C427.972 347.475 428.126 346.705 428.126 346.23C428.126 345.586 428.014 345.026 427.79 344.551C427.566 344.075 427.314 343.711 427.034 343.459C426.755 343.208 426.503 342.956 426.279 342.704C426.055 342.452 425.943 342.144 425.943 341.78C425.943 341.165 426.209 340.591 426.741 340.06C427.272 339.528 427.846 339.262 428.462 339.262C428.993 339.262 429.469 339.514 429.889 340.018C430.308 340.521 430.532 341.333 430.56 342.452C430.56 343.208 430.392 344.369 430.057 345.936C429.721 347.503 429.203 349.252 428.504 351.183C427.804 353.113 426.811 354.778 425.523 356.178C424.236 357.577 422.753 358.29 421.074 358.318C419.283 358.318 417.856 357.857 416.793 356.933C415.757 356.038 415.24 354.708 415.24 352.946C415.24 352.078 415.352 351.183 415.576 350.259C415.799 349.336 416.373 347.699 417.296 345.348C417.912 343.557 418.22 342.41 418.22 341.906Z" fill="#00001D"/>
<path d="M431.939 355.636C431.959 355.517 431.988 355.359 432.028 355.161C432.068 354.963 432.186 354.587 432.384 354.033C432.582 353.479 432.78 353.014 432.978 352.639C433.175 352.263 433.502 351.897 433.957 351.541C434.412 351.184 434.867 351.016 435.322 351.036C436.034 351.036 436.628 351.214 437.103 351.57C437.577 351.926 437.874 352.263 437.993 352.579C438.111 352.896 438.171 353.103 438.171 353.202C438.171 353.242 438.181 353.262 438.201 353.262L438.527 352.935C439.734 351.669 441.109 351.036 442.652 351.036C443.72 351.036 444.581 351.303 445.234 351.837C445.886 352.371 446.223 353.153 446.243 354.182C446.262 355.21 445.886 356.763 445.115 358.841C444.343 360.918 443.967 362.174 443.987 362.61C443.987 363.124 444.155 363.381 444.492 363.381C444.61 363.381 444.699 363.371 444.759 363.351C445.333 363.253 445.847 362.877 446.302 362.224C446.757 361.571 447.103 360.78 447.341 359.85C447.38 359.691 447.578 359.612 447.934 359.612C448.33 359.612 448.528 359.691 448.528 359.85C448.528 359.87 448.488 360.018 448.409 360.295C448.251 360.869 448.033 361.432 447.756 361.986C447.479 362.54 447.024 363.094 446.391 363.648C445.758 364.202 445.075 364.469 444.343 364.449C443.414 364.449 442.741 364.182 442.325 363.648C441.91 363.114 441.702 362.56 441.702 361.986C441.702 361.61 442.058 360.423 442.771 358.425C443.483 356.427 443.849 354.924 443.869 353.915C443.869 352.747 443.433 352.164 442.563 352.164H442.414C440.713 352.164 439.279 353.163 438.111 355.161L437.904 355.517L436.924 359.494C436.272 362.085 435.896 363.48 435.797 363.678C435.54 364.212 435.114 364.479 434.521 364.479C434.264 364.479 434.056 364.42 433.898 364.301C433.739 364.182 433.63 364.064 433.571 363.945C433.512 363.826 433.492 363.727 433.512 363.648C433.512 363.391 433.888 361.779 434.639 358.811C435.391 355.844 435.787 354.231 435.826 353.974C435.846 353.875 435.856 353.648 435.856 353.291C435.856 352.52 435.619 352.134 435.144 352.134C434.392 352.134 433.769 353.123 433.274 355.102C433.156 355.497 433.096 355.705 433.096 355.725C433.057 355.844 432.869 355.903 432.532 355.903H432.117C431.998 355.784 431.939 355.695 431.939 355.636Z" fill="#00001D"/>
<path d="M451.224 130.526V127H465.789V202.511H462.263V130.526H451.224Z" fill="#00001D"/>
<path d="M462.263 364.824V292.839H465.789V368.35H451.224V364.824H462.263Z" fill="#00001D"/>
<g clip-path="url(#clip1_119_659)">
<path d="M462.263 321.717V173.645H465.789V321.717H462.263Z" fill="#00001D"/>
</g>
<path d="M548 490.455C548.019 490.34 548.048 490.187 548.086 489.995C548.124 489.803 548.239 489.44 548.431 488.903C548.622 488.367 548.814 487.917 549.006 487.553C549.197 487.189 549.513 486.835 549.954 486.49C550.394 486.145 550.835 485.982 551.275 486.002C551.965 486.002 552.539 486.174 552.999 486.519C553.459 486.863 553.746 487.189 553.861 487.495C553.976 487.802 554.033 488.003 554.033 488.099C554.033 488.137 554.043 488.156 554.062 488.156L554.378 487.84C555.547 486.614 556.878 486.002 558.372 486.002C559.406 486.002 560.239 486.26 560.871 486.777C561.503 487.294 561.829 488.051 561.848 489.047C561.867 490.043 561.503 491.546 560.756 493.558C560.009 495.569 559.645 496.785 559.665 497.206C559.665 497.704 559.827 497.953 560.153 497.953C560.268 497.953 560.354 497.944 560.412 497.925C560.967 497.829 561.465 497.465 561.905 496.833C562.346 496.201 562.681 495.435 562.911 494.534C562.949 494.381 563.141 494.305 563.486 494.305C563.869 494.305 564.06 494.381 564.06 494.534C564.06 494.554 564.022 494.697 563.945 494.965C563.792 495.521 563.581 496.067 563.313 496.603C563.045 497.139 562.605 497.676 561.992 498.212C561.379 498.748 560.718 499.007 560.009 498.988C559.109 498.988 558.458 498.729 558.056 498.212C557.653 497.695 557.452 497.158 557.452 496.603C557.452 496.239 557.797 495.09 558.487 493.155C559.176 491.221 559.53 489.765 559.55 488.788C559.55 487.658 559.128 487.093 558.285 487.093H558.142C556.495 487.093 555.106 488.061 553.976 489.995L553.775 490.34L552.827 494.19C552.195 496.699 551.831 498.049 551.735 498.241C551.486 498.758 551.074 499.016 550.5 499.016C550.251 499.016 550.049 498.959 549.896 498.844C549.743 498.729 549.638 498.614 549.58 498.499C549.523 498.384 549.504 498.289 549.523 498.212C549.523 497.963 549.887 496.402 550.614 493.529C551.342 490.656 551.725 489.095 551.764 488.846C551.783 488.75 551.792 488.53 551.792 488.185C551.792 487.438 551.563 487.065 551.103 487.065C550.375 487.065 549.772 488.022 549.293 489.938C549.178 490.321 549.12 490.522 549.12 490.541C549.082 490.656 548.9 490.713 548.575 490.713H548.172C548.057 490.598 548 490.512 548 490.455Z" fill="#00001D"/>
<defs>
<clipPath id="clip0_119_659">
<rect width="27.9966" height="98.7227" fill="white" transform="matrix(1 0 0 -1 382.962 297.036)"/>
</clipPath>
<clipPath id="clip1_119_659">
<rect width="27.9966" height="98.7227" fill="white" transform="matrix(1 0 0 -1 451.224 297.036)"/>
</clipPath>
</defs>
</svg>
