<svg width="1200" height="600" viewBox="0 0 1200 600" fill="none" xmlns="http://www.w3.org/2000/svg">
<path d="M230 375V362.28H232.112V375H230ZM231.056 360.6C230.64 360.6 230.296 360.464 230.024 360.192C229.752 359.92 229.616 359.576 229.616 359.16C229.616 358.744 229.752 358.4 230.024 358.128C230.296 357.856 230.64 357.72 231.056 357.72C231.472 357.72 231.816 357.856 232.088 358.128C232.36 358.4 232.496 358.744 232.496 359.16C232.496 359.576 232.36 359.92 232.088 360.192C231.816 360.464 231.472 360.6 231.056 360.6ZM236.182 375V362.28H238.15V364.68C238.438 363.976 238.942 363.36 239.662 362.832C240.398 362.304 241.342 362.04 242.494 362.04C244.094 362.04 245.278 362.472 246.046 363.336C246.83 364.184 247.222 365.432 247.222 367.08V375H245.11V367.56C245.11 366.376 244.862 365.48 244.366 364.872C243.87 364.264 243.038 363.96 241.87 363.96C241.038 363.96 240.358 364.136 239.83 364.488C239.302 364.84 238.91 365.288 238.654 365.832C238.414 366.376 238.294 366.952 238.294 367.56V375H236.182ZM255.987 375V373.152L262.707 367.32C263.395 366.744 263.923 366.24 264.291 365.808C264.659 365.36 264.907 364.936 265.035 364.536C265.179 364.136 265.251 363.704 265.251 363.24C265.251 362.296 264.971 361.52 264.411 360.912C263.851 360.288 263.083 359.976 262.107 359.976C260.939 359.976 260.043 360.296 259.419 360.936C258.795 361.56 258.483 362.448 258.483 363.6H256.227C256.227 362.496 256.467 361.52 256.947 360.672C257.443 359.824 258.131 359.16 259.011 358.68C259.907 358.2 260.939 357.96 262.107 357.96C263.243 357.96 264.211 358.192 265.011 358.656C265.827 359.104 266.443 359.728 266.859 360.528C267.291 361.312 267.507 362.216 267.507 363.24C267.507 364.008 267.355 364.712 267.051 365.352C266.747 365.976 266.323 366.568 265.779 367.128C265.251 367.688 264.635 368.272 263.931 368.88L258.915 373.032H267.747V375H255.987ZM271.349 375V358.2H276.269C277.949 358.2 279.389 358.504 280.589 359.112C281.789 359.72 282.709 360.624 283.349 361.824C283.989 363.008 284.309 364.48 284.309 366.24V366.72C284.309 368.512 283.981 370.024 283.325 371.256C282.669 372.488 281.717 373.424 280.469 374.064C279.237 374.688 277.757 375 276.029 375H271.349ZM273.605 373.032H275.789C277.053 373.032 278.141 372.816 279.053 372.384C279.965 371.952 280.669 371.272 281.165 370.344C281.661 369.416 281.909 368.208 281.909 366.72V366.24C281.909 364.8 281.669 363.64 281.189 362.76C280.709 361.864 280.029 361.208 279.149 360.792C278.269 360.376 277.229 360.168 276.029 360.168H273.605V373.032ZM286.605 378.6L287.565 375V372.36H290.205V375L287.805 378.6H286.605ZM302.08 380.04C301.84 380.04 301.6 380.016 301.36 379.968V378.048C301.6 378.096 301.84 378.12 302.08 378.12C302.4 378.12 302.664 378.04 302.872 377.88C303.096 377.736 303.32 377.44 303.544 376.992C303.768 376.544 304.04 375.88 304.36 375L298.96 362.28H301.312L305.44 372.6L309.184 362.28H311.44L306.64 375C306.192 376.2 305.76 377.168 305.344 377.904C304.944 378.64 304.488 379.176 303.976 379.512C303.48 379.864 302.848 380.04 302.08 380.04ZM318.641 375.24C317.569 375.24 316.561 375.008 315.617 374.544C314.689 374.064 313.937 373.344 313.361 372.384C312.801 371.424 312.521 370.216 312.521 368.76V368.28C312.521 366.904 312.801 365.752 313.361 364.824C313.937 363.896 314.689 363.2 315.617 362.736C316.561 362.272 317.569 362.04 318.641 362.04C319.729 362.04 320.737 362.272 321.665 362.736C322.593 363.2 323.337 363.896 323.897 364.824C324.473 365.752 324.761 366.904 324.761 368.28V368.76C324.761 370.216 324.473 371.424 323.897 372.384C323.337 373.344 322.593 374.064 321.665 374.544C320.737 375.008 319.729 375.24 318.641 375.24ZM318.641 373.32C319.297 373.32 319.921 373.176 320.513 372.888C321.121 372.584 321.617 372.096 322.001 371.424C322.401 370.752 322.601 369.864 322.601 368.76V368.28C322.601 367.256 322.401 366.432 322.001 365.808C321.617 365.168 321.121 364.704 320.513 364.416C319.921 364.112 319.297 363.96 318.641 363.96C318.001 363.96 317.377 364.112 316.769 364.416C316.161 364.704 315.657 365.168 315.257 365.808C314.873 366.432 314.681 367.256 314.681 368.28V368.76C314.681 369.864 314.873 370.752 315.257 371.424C315.657 372.096 316.161 372.584 316.769 372.888C317.377 373.176 318.001 373.32 318.641 373.32ZM332.24 375.24C330.704 375.24 329.552 374.8 328.784 373.92C328.016 373.04 327.632 371.68 327.632 369.84V362.28H329.744V369.72C329.744 370.904 329.984 371.8 330.464 372.408C330.96 373.016 331.76 373.32 332.864 373.32C333.664 373.32 334.32 373.144 334.832 372.792C335.344 372.44 335.72 371.992 335.96 371.448C336.2 370.888 336.32 370.312 336.32 369.72V362.28H338.432V375H336.464V372.6C336.176 373.304 335.672 373.92 334.952 374.448C334.232 374.976 333.328 375.24 332.24 375.24ZM353.203 375.24C352.115 375.24 351.131 375.008 350.251 374.544C349.387 374.064 348.699 373.344 348.187 372.384C347.691 371.424 347.443 370.216 347.443 368.76V368.28C347.443 366.904 347.715 365.752 348.259 364.824C348.803 363.896 349.515 363.2 350.395 362.736C351.275 362.272 352.211 362.04 353.203 362.04C354.211 362.04 355.075 362.224 355.795 362.592C356.531 362.944 357.123 363.432 357.571 364.056C358.019 364.664 358.323 365.352 358.483 366.12H356.323C356.067 365.512 355.707 365 355.243 364.584C354.795 364.168 354.115 363.96 353.203 363.96C352.579 363.96 351.995 364.112 351.451 364.416C350.907 364.704 350.459 365.168 350.107 365.808C349.771 366.432 349.603 367.256 349.603 368.28V368.76C349.603 369.848 349.771 370.728 350.107 371.4C350.459 372.072 350.907 372.56 351.451 372.864C351.995 373.168 352.579 373.32 353.203 373.32C353.987 373.32 354.643 373.128 355.171 372.744C355.715 372.36 356.099 371.832 356.323 371.16H358.483C358.291 371.992 357.947 372.72 357.451 373.344C356.955 373.952 356.347 374.424 355.627 374.76C354.907 375.08 354.099 375.24 353.203 375.24ZM364.985 375.24C364.057 375.24 363.265 375.072 362.609 374.736C361.969 374.384 361.481 373.912 361.145 373.32C360.809 372.712 360.641 372.032 360.641 371.28C360.641 370.016 361.009 369.104 361.745 368.544C362.497 367.984 363.569 367.704 364.961 367.704H369.089V366.84C369.089 365.752 368.841 365 368.345 364.584C367.865 364.168 367.137 363.96 366.161 363.96C365.249 363.96 364.585 364.136 364.169 364.488C363.753 364.824 363.521 365.208 363.473 365.64H361.361C361.409 364.952 361.641 364.344 362.057 363.816C362.473 363.272 363.041 362.84 363.761 362.52C364.481 362.2 365.321 362.04 366.281 362.04C367.289 362.04 368.161 362.2 368.897 362.52C369.633 362.824 370.201 363.312 370.601 363.984C371.001 364.64 371.201 365.512 371.201 366.6V371.76C371.201 372.432 371.201 373.024 371.201 373.536C371.217 374.032 371.257 374.52 371.321 375H369.473C369.425 374.632 369.393 374.288 369.377 373.968C369.361 373.632 369.353 373.256 369.353 372.84C369.017 373.512 368.473 374.08 367.721 374.544C366.969 375.008 366.057 375.24 364.985 375.24ZM365.441 373.32C366.113 373.32 366.721 373.2 367.265 372.96C367.825 372.72 368.265 372.368 368.585 371.904C368.921 371.44 369.089 370.872 369.089 370.2V369.336H365.321C364.537 369.336 363.921 369.496 363.473 369.816C363.025 370.12 362.801 370.608 362.801 371.28C362.801 371.872 363.009 372.36 363.425 372.744C363.857 373.128 364.529 373.32 365.441 373.32ZM374.932 375V362.28H376.9V364.68C377.188 363.976 377.692 363.36 378.412 362.832C379.148 362.304 380.092 362.04 381.244 362.04C382.844 362.04 384.028 362.472 384.796 363.336C385.58 364.184 385.972 365.432 385.972 367.08V375H383.86V367.56C383.86 366.376 383.612 365.48 383.116 364.872C382.62 364.264 381.788 363.96 380.62 363.96C379.788 363.96 379.108 364.136 378.58 364.488C378.052 364.84 377.66 365.288 377.404 365.832C377.164 366.376 377.044 366.952 377.044 367.56V375H374.932ZM400.377 375.12C399.481 375.12 398.745 374.984 398.169 374.712C397.609 374.44 397.193 374.032 396.921 373.488C396.665 372.928 396.537 372.232 396.537 371.4V364.152H394.617V362.28H396.537V359.4H398.649V362.28H402.057V364.152H398.649V371.16C398.649 371.88 398.801 372.4 399.105 372.72C399.409 373.04 399.993 373.2 400.857 373.2C401.337 373.2 401.817 373.176 402.297 373.128V375C401.993 375.032 401.689 375.056 401.385 375.072C401.081 375.104 400.745 375.12 400.377 375.12ZM405.307 375V358.2H407.419V364.56C407.643 364.112 407.947 363.696 408.331 363.312C408.715 362.928 409.179 362.624 409.723 362.4C410.283 362.16 410.915 362.04 411.619 362.04C413.219 362.04 414.403 362.472 415.171 363.336C415.955 364.184 416.347 365.432 416.347 367.08V375H414.235V367.56C414.235 366.376 413.987 365.48 413.491 364.872C412.995 364.264 412.163 363.96 410.995 363.96C410.163 363.96 409.483 364.136 408.955 364.488C408.427 364.84 408.035 365.288 407.779 365.832C407.539 366.376 407.419 366.952 407.419 367.56V375H405.307ZM420.312 375V362.28H422.424V375H420.312ZM421.368 360.6C420.952 360.6 420.608 360.464 420.336 360.192C420.064 359.92 419.928 359.576 419.928 359.16C419.928 358.744 420.064 358.4 420.336 358.128C420.608 357.856 420.952 357.72 421.368 357.72C421.784 357.72 422.128 357.856 422.4 358.128C422.672 358.4 422.808 358.744 422.808 359.16C422.808 359.576 422.672 359.92 422.4 360.192C422.128 360.464 421.784 360.6 421.368 360.6ZM426.494 375V362.28H428.462V364.68C428.75 363.976 429.254 363.36 429.974 362.832C430.71 362.304 431.654 362.04 432.806 362.04C434.406 362.04 435.59 362.472 436.358 363.336C437.142 364.184 437.534 365.432 437.534 367.08V375H435.422V367.56C435.422 366.376 435.174 365.48 434.678 364.872C434.182 364.264 433.35 363.96 432.182 363.96C431.35 363.96 430.67 364.136 430.142 364.488C429.614 364.84 429.222 365.288 428.966 365.832C428.726 366.376 428.606 366.952 428.606 367.56V375H426.494ZM441.26 375V358.2H443.372V368.136L449.228 362.28H451.82L446.54 367.536L452.3 375H449.612L445.028 369L443.372 370.56V375H441.26ZM466.11 375.24C465.038 375.24 464.03 375.008 463.086 374.544C462.158 374.064 461.406 373.344 460.83 372.384C460.27 371.424 459.99 370.216 459.99 368.76V368.28C459.99 366.904 460.27 365.752 460.83 364.824C461.406 363.896 462.158 363.2 463.086 362.736C464.03 362.272 465.038 362.04 466.11 362.04C467.198 362.04 468.206 362.272 469.134 362.736C470.062 363.2 470.806 363.896 471.366 364.824C471.942 365.752 472.23 366.904 472.23 368.28V368.76C472.23 370.216 471.942 371.424 471.366 372.384C470.806 373.344 470.062 374.064 469.134 374.544C468.206 375.008 467.198 375.24 466.11 375.24ZM466.11 373.32C466.766 373.32 467.39 373.176 467.982 372.888C468.59 372.584 469.086 372.096 469.47 371.424C469.87 370.752 470.07 369.864 470.07 368.76V368.28C470.07 367.256 469.87 366.432 469.47 365.808C469.086 365.168 468.59 364.704 467.982 364.416C467.39 364.112 466.766 363.96 466.11 363.96C465.47 363.96 464.846 364.112 464.238 364.416C463.63 364.704 463.126 365.168 462.726 365.808C462.342 366.432 462.15 367.256 462.15 368.28V368.76C462.15 369.864 462.342 370.752 462.726 371.424C463.126 372.096 463.63 372.584 464.238 372.888C464.846 373.176 465.47 373.32 466.11 373.32ZM475.706 375V364.152H473.906V362.28H475.706V362.04C475.706 361.144 475.842 360.408 476.114 359.832C476.386 359.24 476.802 358.8 477.362 358.512C477.938 358.224 478.666 358.08 479.546 358.08C479.786 358.08 480.058 358.088 480.362 358.104C480.666 358.104 480.994 358.12 481.346 358.152V360.072C481.106 360.04 480.842 360.024 480.554 360.024C480.282 360.008 480.026 360 479.786 360C479.05 360 478.538 360.152 478.25 360.456C477.962 360.744 477.818 361.272 477.818 362.04V362.28H481.106V364.152H477.818V375H475.706ZM489.992 375V362.28H492.104V375H489.992ZM491.048 360.6C490.632 360.6 490.288 360.464 490.016 360.192C489.744 359.92 489.608 359.576 489.608 359.16C489.608 358.744 489.744 358.4 490.016 358.128C490.288 357.856 490.632 357.72 491.048 357.72C491.464 357.72 491.808 357.856 492.08 358.128C492.352 358.4 492.488 358.744 492.488 359.16C492.488 359.576 492.352 359.92 492.08 360.192C491.808 360.464 491.464 360.6 491.048 360.6ZM500.854 375.12C499.958 375.12 499.222 374.984 498.646 374.712C498.086 374.44 497.67 374.032 497.398 373.488C497.142 372.928 497.014 372.232 497.014 371.4V364.152H495.094V362.28H497.014V359.4H499.126V362.28H502.534V364.152H499.126V371.16C499.126 371.88 499.278 372.4 499.582 372.72C499.886 373.04 500.47 373.2 501.334 373.2C501.814 373.2 502.294 373.176 502.774 373.128V375C502.47 375.032 502.166 375.056 501.862 375.072C501.558 375.104 501.222 375.12 500.854 375.12ZM515.407 375.24C514.479 375.24 513.687 375.072 513.031 374.736C512.391 374.384 511.903 373.912 511.567 373.32C511.231 372.712 511.063 372.032 511.063 371.28C511.063 370.016 511.431 369.104 512.167 368.544C512.919 367.984 513.991 367.704 515.383 367.704H519.511V366.84C519.511 365.752 519.263 365 518.767 364.584C518.287 364.168 517.559 363.96 516.583 363.96C515.671 363.96 515.007 364.136 514.591 364.488C514.175 364.824 513.943 365.208 513.895 365.64H511.783C511.831 364.952 512.063 364.344 512.479 363.816C512.895 363.272 513.463 362.84 514.183 362.52C514.903 362.2 515.743 362.04 516.703 362.04C517.711 362.04 518.583 362.2 519.319 362.52C520.055 362.824 520.623 363.312 521.023 363.984C521.423 364.64 521.623 365.512 521.623 366.6V371.76C521.623 372.432 521.623 373.024 521.623 373.536C521.639 374.032 521.679 374.52 521.743 375H519.895C519.847 374.632 519.815 374.288 519.799 373.968C519.783 373.632 519.775 373.256 519.775 372.84C519.439 373.512 518.895 374.08 518.143 374.544C517.391 375.008 516.479 375.24 515.407 375.24ZM515.863 373.32C516.535 373.32 517.143 373.2 517.687 372.96C518.247 372.72 518.687 372.368 519.007 371.904C519.343 371.44 519.511 370.872 519.511 370.2V369.336H515.743C514.959 369.336 514.343 369.496 513.895 369.816C513.447 370.12 513.223 370.608 513.223 371.28C513.223 371.872 513.431 372.36 513.847 372.744C514.279 373.128 514.951 373.32 515.863 373.32ZM529.794 375.24C528.946 375.24 528.21 375.144 527.586 374.952C526.962 374.744 526.442 374.472 526.026 374.136C525.61 373.8 525.274 373.408 525.018 372.96C524.778 372.496 524.61 372.016 524.514 371.52H526.626C526.738 372.032 527.034 372.48 527.514 372.864C528.01 373.232 528.77 373.416 529.794 373.416C530.978 373.416 531.802 373.232 532.266 372.864C532.73 372.48 532.962 372.032 532.962 371.52C532.962 371.168 532.858 370.864 532.65 370.608C532.458 370.336 532.106 370.104 531.594 369.912C531.098 369.72 530.386 369.56 529.458 369.432C528.754 369.336 528.122 369.2 527.562 369.024C527.002 368.832 526.522 368.584 526.122 368.28C525.722 367.976 525.41 367.608 525.186 367.176C524.978 366.744 524.874 366.232 524.874 365.64C524.874 365 525.058 364.408 525.426 363.864C525.794 363.32 526.346 362.88 527.082 362.544C527.818 362.208 528.722 362.04 529.794 362.04C530.802 362.04 531.634 362.216 532.29 362.568C532.962 362.904 533.482 363.352 533.85 363.912C534.218 364.472 534.466 365.088 534.594 365.76H532.482C532.354 365.2 532.082 364.744 531.666 364.392C531.25 364.04 530.626 363.864 529.794 363.864C528.754 363.864 528.026 364.04 527.61 364.392C527.194 364.728 526.986 365.144 526.986 365.64C526.986 366.216 527.21 366.648 527.658 366.936C528.122 367.224 528.962 367.448 530.178 367.608C530.962 367.704 531.658 367.848 532.266 368.04C532.874 368.216 533.386 368.464 533.802 368.784C534.218 369.088 534.53 369.464 534.738 369.912C534.962 370.36 535.074 370.896 535.074 371.52C535.074 372.192 534.882 372.808 534.498 373.368C534.114 373.928 533.53 374.384 532.746 374.736C531.978 375.072 530.994 375.24 529.794 375.24ZM181.096 413.12C180.2 413.12 179.464 412.984 178.888 412.712C178.328 412.44 177.912 412.032 177.64 411.488C177.384 410.928 177.256 410.232 177.256 409.4V402.152H175.336V400.28H177.256V397.4H179.368V400.28H182.776V402.152H179.368V409.16C179.368 409.88 179.52 410.4 179.824 410.72C180.128 411.04 180.712 411.2 181.576 411.2C182.056 411.2 182.536 411.176 183.016 411.128V413C182.712 413.032 182.408 413.056 182.104 413.072C181.8 413.104 181.464 413.12 181.096 413.12ZM186.025 413V396.2H188.137V402.56C188.361 402.112 188.665 401.696 189.049 401.312C189.433 400.928 189.897 400.624 190.441 400.4C191.001 400.16 191.633 400.04 192.337 400.04C193.937 400.04 195.121 400.472 195.889 401.336C196.673 402.184 197.065 403.432 197.065 405.08V413H194.953V405.56C194.953 404.376 194.705 403.48 194.209 402.872C193.713 402.264 192.881 401.96 191.713 401.96C190.881 401.96 190.201 402.136 189.673 402.488C189.145 402.84 188.753 403.288 188.497 403.832C188.257 404.376 188.137 404.952 188.137 405.56V413H186.025ZM206.071 413.24C204.999 413.24 203.991 413.008 203.047 412.544C202.119 412.08 201.367 411.368 200.791 410.408C200.231 409.448 199.951 408.232 199.951 406.76V406.28C199.951 404.872 200.223 403.712 200.767 402.8C201.311 401.872 202.031 401.184 202.927 400.736C203.823 400.272 204.791 400.04 205.831 400.04C207.703 400.04 209.151 400.552 210.175 401.576C211.199 402.6 211.711 404.048 211.711 405.92V407.264H202.063C202.063 408.256 202.263 409.048 202.663 409.64C203.079 410.232 203.591 410.664 204.199 410.936C204.823 411.192 205.447 411.32 206.071 411.32C207.031 411.32 207.767 411.16 208.279 410.84C208.807 410.52 209.183 410.08 209.407 409.52H211.471C211.215 410.736 210.583 411.664 209.575 412.304C208.583 412.928 207.415 413.24 206.071 413.24ZM205.951 401.96C205.295 401.96 204.671 402.088 204.079 402.344C203.487 402.584 202.999 402.968 202.615 403.496C202.247 404.024 202.063 404.704 202.063 405.536H209.719C209.703 404.656 209.519 403.96 209.167 403.448C208.831 402.92 208.383 402.544 207.823 402.32C207.263 402.08 206.639 401.96 205.951 401.96ZM237.753 407.264V405.296H244.953V407.264H237.753ZM252.75 413.24C251.662 413.24 250.678 413.008 249.798 412.544C248.934 412.064 248.246 411.344 247.734 410.384C247.238 409.424 246.99 408.216 246.99 406.76V406.28C246.99 404.904 247.262 403.752 247.806 402.824C248.35 401.896 249.062 401.2 249.942 400.736C250.822 400.272 251.758 400.04 252.75 400.04C253.758 400.04 254.622 400.224 255.342 400.592C256.078 400.944 256.67 401.432 257.118 402.056C257.566 402.664 257.87 403.352 258.03 404.12H255.87C255.614 403.512 255.254 403 254.79 402.584C254.342 402.168 253.662 401.96 252.75 401.96C252.126 401.96 251.542 402.112 250.998 402.416C250.454 402.704 250.006 403.168 249.654 403.808C249.318 404.432 249.15 405.256 249.15 406.28V406.76C249.15 407.848 249.318 408.728 249.654 409.4C250.006 410.072 250.454 410.56 250.998 410.864C251.542 411.168 252.126 411.32 252.75 411.32C253.534 411.32 254.19 411.128 254.718 410.744C255.262 410.36 255.646 409.832 255.87 409.16H258.03C257.838 409.992 257.494 410.72 256.998 411.344C256.502 411.952 255.894 412.424 255.174 412.76C254.454 413.08 253.646 413.24 252.75 413.24ZM266.188 413.24C265.116 413.24 264.108 413.008 263.164 412.544C262.236 412.064 261.484 411.344 260.908 410.384C260.348 409.424 260.068 408.216 260.068 406.76V406.28C260.068 404.904 260.348 403.752 260.908 402.824C261.484 401.896 262.236 401.2 263.164 400.736C264.108 400.272 265.116 400.04 266.188 400.04C267.276 400.04 268.284 400.272 269.212 400.736C270.14 401.2 270.884 401.896 271.444 402.824C272.02 403.752 272.308 404.904 272.308 406.28V406.76C272.308 408.216 272.02 409.424 271.444 410.384C270.884 411.344 270.14 412.064 269.212 412.544C268.284 413.008 267.276 413.24 266.188 413.24ZM266.188 411.32C266.844 411.32 267.468 411.176 268.06 410.888C268.668 410.584 269.164 410.096 269.548 409.424C269.948 408.752 270.148 407.864 270.148 406.76V406.28C270.148 405.256 269.948 404.432 269.548 403.808C269.164 403.168 268.668 402.704 268.06 402.416C267.468 402.112 266.844 401.96 266.188 401.96C265.548 401.96 264.924 402.112 264.316 402.416C263.708 402.704 263.204 403.168 262.804 403.808C262.42 404.432 262.228 405.256 262.228 406.28V406.76C262.228 407.864 262.42 408.752 262.804 409.424C263.204 410.096 263.708 410.584 264.316 410.888C264.924 411.176 265.548 411.32 266.188 411.32ZM275.299 413V400.28H277.267V402.68C277.539 401.896 278.003 401.264 278.659 400.784C279.331 400.288 280.091 400.04 280.939 400.04C282.043 400.04 282.891 400.28 283.483 400.76C284.075 401.224 284.483 401.824 284.707 402.56C285.123 401.776 285.651 401.16 286.291 400.712C286.947 400.264 287.731 400.04 288.643 400.04C289.955 400.04 290.979 400.44 291.715 401.24C292.451 402.024 292.819 403.264 292.819 404.96V413H290.707V405.44C290.707 404.176 290.483 403.28 290.035 402.752C289.603 402.224 288.939 401.96 288.043 401.96C287.531 401.96 287.051 402.104 286.603 402.392C286.155 402.664 285.795 403.064 285.523 403.592C285.251 404.104 285.115 404.72 285.115 405.44V413H283.003V405.44C283.003 404.176 282.779 403.28 282.331 402.752C281.883 402.224 281.219 401.96 280.339 401.96C279.827 401.96 279.347 402.104 278.899 402.392C278.451 402.664 278.091 403.064 277.819 403.592C277.547 404.104 277.411 404.72 277.411 405.44V413H275.299ZM296.533 417.8V400.28H298.501V402.68C298.933 401.832 299.533 401.184 300.301 400.736C301.085 400.272 301.989 400.04 303.013 400.04C304.613 400.04 305.893 400.568 306.853 401.624C307.813 402.664 308.293 404.216 308.293 406.28V406.76C308.293 408.2 308.069 409.4 307.621 410.36C307.189 411.32 306.573 412.04 305.773 412.52C304.989 413 304.069 413.24 303.013 413.24C301.925 413.24 301.013 413 300.277 412.52C299.557 412.04 299.013 411.44 298.645 410.72V417.8H296.533ZM302.533 411.368C303.573 411.368 304.437 410.976 305.125 410.192C305.829 409.408 306.181 408.264 306.181 406.76V406.28C306.181 404.888 305.829 403.816 305.125 403.064C304.437 402.296 303.573 401.912 302.533 401.912C301.765 401.912 301.085 402.072 300.493 402.392C299.917 402.712 299.461 403.152 299.125 403.712C298.805 404.256 298.645 404.872 298.645 405.56V407.48C298.645 408.248 298.805 408.928 299.125 409.52C299.461 410.096 299.917 410.552 300.493 410.888C301.085 411.208 301.765 411.368 302.533 411.368ZM316.579 413.24C315.507 413.24 314.499 413.008 313.555 412.544C312.627 412.064 311.875 411.344 311.299 410.384C310.739 409.424 310.459 408.216 310.459 406.76V406.28C310.459 404.904 310.739 403.752 311.299 402.824C311.875 401.896 312.627 401.2 313.555 400.736C314.499 400.272 315.507 400.04 316.579 400.04C317.667 400.04 318.675 400.272 319.603 400.736C320.531 401.2 321.275 401.896 321.835 402.824C322.411 403.752 322.699 404.904 322.699 406.28V406.76C322.699 408.216 322.411 409.424 321.835 410.384C321.275 411.344 320.531 412.064 319.603 412.544C318.675 413.008 317.667 413.24 316.579 413.24ZM316.579 411.32C317.235 411.32 317.859 411.176 318.451 410.888C319.059 410.584 319.555 410.096 319.939 409.424C320.339 408.752 320.539 407.864 320.539 406.76V406.28C320.539 405.256 320.339 404.432 319.939 403.808C319.555 403.168 319.059 402.704 318.451 402.416C317.859 402.112 317.235 401.96 316.579 401.96C315.939 401.96 315.315 402.112 314.707 402.416C314.099 402.704 313.595 403.168 313.195 403.808C312.811 404.432 312.619 405.256 312.619 406.28V406.76C312.619 407.864 312.811 408.752 313.195 409.424C313.595 410.096 314.099 410.584 314.707 410.888C315.315 411.176 315.939 411.32 316.579 411.32ZM325.69 413V400.28H327.658V402.68C327.946 401.976 328.45 401.36 329.17 400.832C329.906 400.304 330.85 400.04 332.002 400.04C333.602 400.04 334.786 400.472 335.554 401.336C336.338 402.184 336.73 403.432 336.73 405.08V413H334.618V405.56C334.618 404.376 334.37 403.48 333.874 402.872C333.378 402.264 332.546 401.96 331.378 401.96C330.546 401.96 329.866 402.136 329.338 402.488C328.81 402.84 328.418 403.288 328.162 403.832C327.922 404.376 327.802 404.952 327.802 405.56V413H325.69ZM345.735 413.24C344.663 413.24 343.655 413.008 342.711 412.544C341.783 412.08 341.031 411.368 340.455 410.408C339.895 409.448 339.615 408.232 339.615 406.76V406.28C339.615 404.872 339.887 403.712 340.431 402.8C340.975 401.872 341.695 401.184 342.591 400.736C343.487 400.272 344.455 400.04 345.495 400.04C347.367 400.04 348.815 400.552 349.839 401.576C350.863 402.6 351.375 404.048 351.375 405.92V407.264H341.727C341.727 408.256 341.927 409.048 342.327 409.64C342.743 410.232 343.255 410.664 343.863 410.936C344.487 411.192 345.111 411.32 345.735 411.32C346.695 411.32 347.431 411.16 347.943 410.84C348.471 410.52 348.847 410.08 349.071 409.52H351.135C350.879 410.736 350.247 411.664 349.239 412.304C348.247 412.928 347.079 413.24 345.735 413.24ZM345.615 401.96C344.959 401.96 344.335 402.088 343.743 402.344C343.151 402.584 342.663 402.968 342.279 403.496C341.911 404.024 341.727 404.704 341.727 405.536H349.383C349.367 404.656 349.183 403.96 348.831 403.448C348.495 402.92 348.047 402.544 347.487 402.32C346.927 402.08 346.303 401.96 345.615 401.96ZM354.377 413V400.28H356.345V402.68C356.633 401.976 357.137 401.36 357.857 400.832C358.593 400.304 359.537 400.04 360.689 400.04C362.289 400.04 363.473 400.472 364.241 401.336C365.025 402.184 365.417 403.432 365.417 405.08V413H363.305V405.56C363.305 404.376 363.057 403.48 362.561 402.872C362.065 402.264 361.233 401.96 360.065 401.96C359.233 401.96 358.553 402.136 358.025 402.488C357.497 402.84 357.105 403.288 356.849 403.832C356.609 404.376 356.489 404.952 356.489 405.56V413H354.377ZM373.588 413.12C372.692 413.12 371.956 412.984 371.38 412.712C370.82 412.44 370.404 412.032 370.132 411.488C369.876 410.928 369.748 410.232 369.748 409.4V402.152H367.828V400.28H369.748V397.4H371.86V400.28H375.268V402.152H371.86V409.16C371.86 409.88 372.012 410.4 372.316 410.72C372.62 411.04 373.204 411.2 374.068 411.2C374.548 411.2 375.028 411.176 375.508 411.128V413C375.204 413.032 374.9 413.056 374.596 413.072C374.292 413.104 373.956 413.12 373.588 413.12ZM388.142 413.24C387.214 413.24 386.422 413.072 385.766 412.736C385.126 412.384 384.638 411.912 384.302 411.32C383.966 410.712 383.798 410.032 383.798 409.28C383.798 408.016 384.166 407.104 384.902 406.544C385.654 405.984 386.726 405.704 388.118 405.704H392.246V404.84C392.246 403.752 391.998 403 391.502 402.584C391.022 402.168 390.294 401.96 389.318 401.96C388.406 401.96 387.742 402.136 387.326 402.488C386.91 402.824 386.678 403.208 386.63 403.64H384.518C384.566 402.952 384.798 402.344 385.214 401.816C385.63 401.272 386.198 400.84 386.918 400.52C387.638 400.2 388.478 400.04 389.438 400.04C390.446 400.04 391.318 400.2 392.054 400.52C392.79 400.824 393.358 401.312 393.758 401.984C394.158 402.64 394.358 403.512 394.358 404.6V409.76C394.358 410.432 394.358 411.024 394.358 411.536C394.374 412.032 394.414 412.52 394.478 413H392.63C392.582 412.632 392.55 412.288 392.534 411.968C392.518 411.632 392.51 411.256 392.51 410.84C392.174 411.512 391.63 412.08 390.878 412.544C390.126 413.008 389.214 413.24 388.142 413.24ZM388.598 411.32C389.27 411.32 389.878 411.2 390.422 410.96C390.982 410.72 391.422 410.368 391.742 409.904C392.078 409.44 392.246 408.872 392.246 408.2V407.336H388.478C387.694 407.336 387.078 407.496 386.63 407.816C386.182 408.12 385.958 408.608 385.958 409.28C385.958 409.872 386.166 410.36 386.582 410.744C387.014 411.128 387.686 411.32 388.598 411.32ZM398.088 413V400.28H400.056V402.68C400.344 401.976 400.848 401.36 401.568 400.832C402.304 400.304 403.248 400.04 404.4 400.04C406 400.04 407.184 400.472 407.952 401.336C408.736 402.184 409.128 403.432 409.128 405.08V413H407.016V405.56C407.016 404.376 406.768 403.48 406.272 402.872C405.776 402.264 404.944 401.96 403.776 401.96C402.944 401.96 402.264 402.136 401.736 402.488C401.208 402.84 400.816 403.288 400.56 403.832C400.32 404.376 400.2 404.952 400.2 405.56V413H398.088ZM417.294 413.24C416.254 413.24 415.334 413 414.534 412.52C413.734 412.04 413.11 411.32 412.662 410.36C412.23 409.4 412.014 408.2 412.014 406.76V406.28C412.014 404.936 412.238 403.8 412.686 402.872C413.15 401.944 413.774 401.24 414.558 400.76C415.358 400.28 416.27 400.04 417.294 400.04C418.318 400.04 419.206 400.264 419.958 400.712C420.726 401.16 421.294 401.776 421.662 402.56V396.2H423.774V413H421.806V410.6C421.486 411.384 420.926 412.024 420.126 412.52C419.326 413 418.382 413.24 417.294 413.24ZM417.774 411.368C418.542 411.368 419.214 411.208 419.79 410.888C420.382 410.552 420.838 410.096 421.158 409.52C421.494 408.928 421.662 408.248 421.662 407.48V405.56C421.662 404.872 421.494 404.256 421.158 403.712C420.838 403.152 420.382 402.712 419.79 402.392C419.214 402.072 418.542 401.912 417.774 401.912C416.75 401.912 415.886 402.296 415.182 403.064C414.478 403.816 414.126 404.888 414.126 406.28V406.76C414.126 408.264 414.478 409.408 415.182 410.192C415.886 410.976 416.75 411.368 417.774 411.368ZM450.659 407.264V405.296H457.859V407.264H450.659ZM465.656 413.24C464.568 413.24 463.584 413.008 462.704 412.544C461.84 412.064 461.152 411.344 460.64 410.384C460.144 409.424 459.896 408.216 459.896 406.76V406.28C459.896 404.904 460.168 403.752 460.712 402.824C461.256 401.896 461.968 401.2 462.848 400.736C463.728 400.272 464.664 400.04 465.656 400.04C466.664 400.04 467.528 400.224 468.248 400.592C468.984 400.944 469.576 401.432 470.024 402.056C470.472 402.664 470.776 403.352 470.936 404.12H468.776C468.52 403.512 468.16 403 467.696 402.584C467.248 402.168 466.568 401.96 465.656 401.96C465.032 401.96 464.448 402.112 463.904 402.416C463.36 402.704 462.912 403.168 462.56 403.808C462.224 404.432 462.056 405.256 462.056 406.28V406.76C462.056 407.848 462.224 408.728 462.56 409.4C462.912 410.072 463.36 410.56 463.904 410.864C464.448 411.168 465.032 411.32 465.656 411.32C466.44 411.32 467.096 411.128 467.624 410.744C468.168 410.36 468.552 409.832 468.776 409.16H470.936C470.744 409.992 470.4 410.72 469.904 411.344C469.408 411.952 468.8 412.424 468.08 412.76C467.36 413.08 466.552 413.24 465.656 413.24ZM479.095 413.24C478.023 413.24 477.015 413.008 476.071 412.544C475.143 412.064 474.391 411.344 473.815 410.384C473.255 409.424 472.975 408.216 472.975 406.76V406.28C472.975 404.904 473.255 403.752 473.815 402.824C474.391 401.896 475.143 401.2 476.071 400.736C477.015 400.272 478.023 400.04 479.095 400.04C480.183 400.04 481.191 400.272 482.119 400.736C483.047 401.2 483.791 401.896 484.351 402.824C484.927 403.752 485.215 404.904 485.215 406.28V406.76C485.215 408.216 484.927 409.424 484.351 410.384C483.791 411.344 483.047 412.064 482.119 412.544C481.191 413.008 480.183 413.24 479.095 413.24ZM479.095 411.32C479.751 411.32 480.375 411.176 480.967 410.888C481.575 410.584 482.071 410.096 482.455 409.424C482.855 408.752 483.055 407.864 483.055 406.76V406.28C483.055 405.256 482.855 404.432 482.455 403.808C482.071 403.168 481.575 402.704 480.967 402.416C480.375 402.112 479.751 401.96 479.095 401.96C478.455 401.96 477.831 402.112 477.223 402.416C476.615 402.704 476.111 403.168 475.711 403.808C475.327 404.432 475.135 405.256 475.135 406.28V406.76C475.135 407.864 475.327 408.752 475.711 409.424C476.111 410.096 476.615 410.584 477.223 410.888C477.831 411.176 478.455 411.32 479.095 411.32ZM488.205 413V400.28H490.173V402.68C490.445 401.896 490.909 401.264 491.565 400.784C492.237 400.288 492.997 400.04 493.845 400.04C494.949 400.04 495.797 400.28 496.389 400.76C496.981 401.224 497.389 401.824 497.613 402.56C498.029 401.776 498.557 401.16 499.197 400.712C499.853 400.264 500.637 400.04 501.549 400.04C502.861 400.04 503.885 400.44 504.621 401.24C505.357 402.024 505.725 403.264 505.725 404.96V413H503.613V405.44C503.613 404.176 503.389 403.28 502.941 402.752C502.509 402.224 501.845 401.96 500.949 401.96C500.437 401.96 499.957 402.104 499.509 402.392C499.061 402.664 498.701 403.064 498.429 403.592C498.157 404.104 498.021 404.72 498.021 405.44V413H495.909V405.44C495.909 404.176 495.685 403.28 495.237 402.752C494.789 402.224 494.125 401.96 493.245 401.96C492.733 401.96 492.253 402.104 491.805 402.392C491.357 402.664 490.997 403.064 490.725 403.592C490.453 404.104 490.317 404.72 490.317 405.44V413H488.205ZM509.44 417.8V400.28H511.408V402.68C511.84 401.832 512.44 401.184 513.208 400.736C513.992 400.272 514.896 400.04 515.92 400.04C517.52 400.04 518.8 400.568 519.76 401.624C520.72 402.664 521.2 404.216 521.2 406.28V406.76C521.2 408.2 520.976 409.4 520.528 410.36C520.096 411.32 519.48 412.04 518.68 412.52C517.896 413 516.976 413.24 515.92 413.24C514.832 413.24 513.92 413 513.184 412.52C512.464 412.04 511.92 411.44 511.552 410.72V417.8H509.44ZM515.44 411.368C516.48 411.368 517.344 410.976 518.032 410.192C518.736 409.408 519.088 408.264 519.088 406.76V406.28C519.088 404.888 518.736 403.816 518.032 403.064C517.344 402.296 516.48 401.912 515.44 401.912C514.672 401.912 513.992 402.072 513.4 402.392C512.824 402.712 512.368 403.152 512.032 403.712C511.712 404.256 511.552 404.872 511.552 405.56V407.48C511.552 408.248 511.712 408.928 512.032 409.52C512.368 410.096 512.824 410.552 513.4 410.888C513.992 411.208 514.672 411.368 515.44 411.368ZM529.485 413.24C528.413 413.24 527.405 413.008 526.461 412.544C525.533 412.064 524.781 411.344 524.205 410.384C523.645 409.424 523.365 408.216 523.365 406.76V406.28C523.365 404.904 523.645 403.752 524.205 402.824C524.781 401.896 525.533 401.2 526.461 400.736C527.405 400.272 528.413 400.04 529.485 400.04C530.573 400.04 531.581 400.272 532.509 400.736C533.437 401.2 534.181 401.896 534.741 402.824C535.317 403.752 535.605 404.904 535.605 406.28V406.76C535.605 408.216 535.317 409.424 534.741 410.384C534.181 411.344 533.437 412.064 532.509 412.544C531.581 413.008 530.573 413.24 529.485 413.24ZM529.485 411.32C530.141 411.32 530.765 411.176 531.357 410.888C531.965 410.584 532.461 410.096 532.845 409.424C533.245 408.752 533.445 407.864 533.445 406.76V406.28C533.445 405.256 533.245 404.432 532.845 403.808C532.461 403.168 531.965 402.704 531.357 402.416C530.765 402.112 530.141 401.96 529.485 401.96C528.845 401.96 528.221 402.112 527.613 402.416C527.005 402.704 526.501 403.168 526.101 403.808C525.717 404.432 525.525 405.256 525.525 406.28V406.76C525.525 407.864 525.717 408.752 526.101 409.424C526.501 410.096 527.005 410.584 527.613 410.888C528.221 411.176 528.845 411.32 529.485 411.32ZM538.596 413V400.28H540.564V402.68C540.852 401.976 541.356 401.36 542.076 400.832C542.812 400.304 543.756 400.04 544.908 400.04C546.508 400.04 547.692 400.472 548.46 401.336C549.244 402.184 549.636 403.432 549.636 405.08V413H547.524V405.56C547.524 404.376 547.276 403.48 546.78 402.872C546.284 402.264 545.452 401.96 544.284 401.96C543.452 401.96 542.772 402.136 542.244 402.488C541.716 402.84 541.324 403.288 541.068 403.832C540.828 404.376 540.708 404.952 540.708 405.56V413H538.596ZM558.641 413.24C557.569 413.24 556.561 413.008 555.617 412.544C554.689 412.08 553.937 411.368 553.361 410.408C552.801 409.448 552.521 408.232 552.521 406.76V406.28C552.521 404.872 552.793 403.712 553.337 402.8C553.881 401.872 554.601 401.184 555.497 400.736C556.393 400.272 557.361 400.04 558.401 400.04C560.273 400.04 561.721 400.552 562.745 401.576C563.769 402.6 564.281 404.048 564.281 405.92V407.264H554.633C554.633 408.256 554.833 409.048 555.233 409.64C555.649 410.232 556.161 410.664 556.769 410.936C557.393 411.192 558.017 411.32 558.641 411.32C559.601 411.32 560.337 411.16 560.849 410.84C561.377 410.52 561.753 410.08 561.977 409.52H564.041C563.785 410.736 563.153 411.664 562.145 412.304C561.153 412.928 559.985 413.24 558.641 413.24ZM558.521 401.96C557.865 401.96 557.241 402.088 556.649 402.344C556.057 402.584 555.569 402.968 555.185 403.496C554.817 404.024 554.633 404.704 554.633 405.536H562.289C562.273 404.656 562.089 403.96 561.737 403.448C561.401 402.92 560.953 402.544 560.393 402.32C559.833 402.08 559.209 401.96 558.521 401.96ZM567.283 413V400.28H569.251V402.68C569.539 401.976 570.043 401.36 570.763 400.832C571.499 400.304 572.443 400.04 573.595 400.04C575.195 400.04 576.379 400.472 577.147 401.336C577.931 402.184 578.323 403.432 578.323 405.08V413H576.211V405.56C576.211 404.376 575.963 403.48 575.467 402.872C574.971 402.264 574.139 401.96 572.971 401.96C572.139 401.96 571.459 402.136 570.931 402.488C570.403 402.84 570.011 403.288 569.755 403.832C569.515 404.376 569.395 404.952 569.395 405.56V413H567.283ZM586.495 413.12C585.599 413.12 584.863 412.984 584.287 412.712C583.727 412.44 583.311 412.032 583.039 411.488C582.783 410.928 582.655 410.232 582.655 409.4V402.152H580.735V400.28H582.655V397.4H584.767V400.28H588.175V402.152H584.767V409.16C584.767 409.88 584.919 410.4 585.223 410.72C585.527 411.04 586.111 411.2 586.975 411.2C587.455 411.2 587.935 411.176 588.415 411.128V413C588.111 413.032 587.807 413.056 587.503 413.072C587.199 413.104 586.863 413.12 586.495 413.12Z" fill="#00001D"/>
<path d="M315.38 242.912C315.38 242.213 315.114 241.863 314.583 241.863C313.911 241.863 313.211 242.269 312.484 243.08C311.756 243.892 311.155 245.137 310.679 246.816C310.651 246.844 310.623 246.886 310.595 246.942C310.567 246.998 310.553 247.04 310.553 247.068C310.553 247.096 310.525 247.124 310.469 247.152C310.413 247.18 310.371 247.194 310.343 247.194C310.315 247.194 310.259 247.194 310.175 247.194C310.091 247.194 309.979 247.194 309.839 247.194H309.252C309.084 247.026 309 246.9 309 246.816C309 246.62 309.112 246.214 309.336 245.598C309.56 244.983 309.895 244.255 310.343 243.416C310.791 242.576 311.407 241.863 312.19 241.275C312.974 240.688 313.855 240.38 314.834 240.352C316.01 240.352 316.919 240.688 317.563 241.359C318.206 242.031 318.542 242.814 318.57 243.71C318.57 244.185 318.528 244.549 318.444 244.801C318.444 244.969 318.234 245.584 317.815 246.648C317.395 247.711 316.961 248.956 316.513 250.384C316.066 251.811 315.814 253.056 315.758 254.119C315.758 254.875 315.828 255.49 315.968 255.966C316.331 257.169 317.213 257.771 318.612 257.771C319.647 257.771 320.613 257.295 321.508 256.344C322.404 255.392 323.103 254.287 323.607 253.028C324.111 251.769 324.516 250.607 324.824 249.544C325.132 248.481 325.286 247.711 325.286 247.235C325.286 246.592 325.174 246.032 324.95 245.557C324.726 245.081 324.474 244.717 324.195 244.465C323.915 244.213 323.663 243.962 323.439 243.71C323.215 243.458 323.103 243.15 323.103 242.786C323.103 242.171 323.369 241.597 323.901 241.065C324.432 240.534 325.006 240.268 325.622 240.268C326.153 240.268 326.629 240.52 327.049 241.023C327.469 241.527 327.692 242.339 327.72 243.458C327.72 244.213 327.552 245.375 327.217 246.942C326.881 248.509 326.363 250.258 325.664 252.188C324.964 254.119 323.971 255.784 322.684 257.183C321.396 258.582 319.913 259.296 318.234 259.324C316.443 259.324 315.016 258.862 313.953 257.939C312.918 257.043 312.4 255.714 312.4 253.951C312.4 253.084 312.512 252.188 312.736 251.265C312.96 250.342 313.533 248.705 314.457 246.354C315.072 244.563 315.38 243.416 315.38 242.912Z" fill="#00001D"/>
<path d="M324.796 230.278C324.796 230.054 324.866 229.858 325.006 229.691C325.146 229.523 325.356 229.439 325.635 229.439C325.831 229.439 325.999 229.509 326.139 229.649C326.279 229.76 326.419 230.026 326.559 230.446C326.839 231.481 327.412 232.279 328.28 232.839C328.588 233.034 328.741 233.286 328.741 233.594C328.741 233.846 328.699 234.014 328.616 234.098C328.532 234.182 328.336 234.308 328.028 234.476C326.825 235.091 325.775 235.973 324.88 237.12C324.824 237.176 324.754 237.26 324.67 237.372C324.586 237.484 324.516 237.568 324.46 237.624C324.404 237.68 324.334 237.708 324.25 237.708C324.166 237.708 324.068 237.722 323.956 237.75C323.761 237.75 323.579 237.68 323.411 237.54C323.243 237.4 323.145 237.19 323.117 236.91C323.117 236.378 323.775 235.553 325.09 234.434H317.912L310.735 234.392C310.371 234.14 310.189 233.874 310.189 233.594C310.189 233.398 310.371 233.118 310.735 232.755H325.803C325.132 231.691 324.796 230.866 324.796 230.278Z" fill="#00001D"/>
<path d="M343.969 244.297C343.969 243.934 344.165 243.654 344.556 243.458H371.294C371.714 243.682 371.923 243.962 371.923 244.297C371.923 244.605 371.728 244.871 371.336 245.095L357.988 245.137H344.64C344.193 244.997 343.969 244.717 343.969 244.297ZM343.969 252.44C343.969 252.021 344.193 251.741 344.64 251.601H371.336C371.728 251.881 371.923 252.16 371.923 252.44C371.923 252.804 371.714 253.084 371.294 253.28H344.556C344.165 253.084 343.969 252.804 343.969 252.44Z" fill="#00001D"/>
<path d="M396.297 298.696V198H407.588V200.602H398.9V296.093H407.588V298.696H396.297Z" fill="#00001D"/>
<path d="M415.353 213.53C415.353 212.831 415.087 212.481 414.556 212.481C413.884 212.481 413.185 212.886 412.457 213.698C411.729 214.509 411.128 215.755 410.652 217.434C410.624 217.462 410.596 217.504 410.568 217.56C410.54 217.616 410.526 217.658 410.526 217.685C410.526 217.713 410.498 217.741 410.442 217.769C410.386 217.797 410.344 217.811 410.316 217.811C410.288 217.811 410.232 217.811 410.148 217.811C410.064 217.811 409.953 217.811 409.813 217.811H409.225C409.057 217.644 408.973 217.518 408.973 217.434C408.973 217.238 409.085 216.832 409.309 216.216C409.533 215.601 409.869 214.873 410.316 214.034C410.764 213.194 411.38 212.481 412.163 211.893C412.947 211.305 413.828 210.998 414.808 210.97C415.983 210.97 416.892 211.305 417.536 211.977C418.179 212.649 418.515 213.432 418.543 214.328C418.543 214.803 418.501 215.167 418.417 215.419C418.417 215.587 418.207 216.202 417.788 217.266C417.368 218.329 416.934 219.574 416.486 221.001C416.039 222.429 415.787 223.674 415.731 224.737C415.731 225.493 415.801 226.108 415.941 226.584C416.305 227.787 417.186 228.389 418.585 228.389C419.621 228.389 420.586 227.913 421.481 226.962C422.377 226.01 423.076 224.905 423.58 223.646C424.084 222.387 424.49 221.225 424.797 220.162C425.105 219.099 425.259 218.329 425.259 217.853C425.259 217.21 425.147 216.65 424.923 216.174C424.699 215.699 424.448 215.335 424.168 215.083C423.888 214.831 423.636 214.579 423.412 214.328C423.188 214.076 423.076 213.768 423.076 213.404C423.076 212.789 423.342 212.215 423.874 211.683C424.406 211.152 424.979 210.886 425.595 210.886C426.127 210.886 426.602 211.138 427.022 211.641C427.442 212.145 427.666 212.956 427.694 214.076C427.694 214.831 427.526 215.993 427.19 217.56C426.854 219.127 426.336 220.876 425.637 222.806C424.937 224.737 423.944 226.402 422.657 227.801C421.369 229.2 419.886 229.914 418.207 229.942C416.417 229.942 414.989 229.48 413.926 228.557C412.891 227.661 412.373 226.332 412.373 224.569C412.373 223.702 412.485 222.806 412.709 221.883C412.933 220.959 413.506 219.322 414.43 216.972C415.045 215.181 415.353 214.034 415.353 213.53Z" fill="#00001D"/>
<path d="M434.77 218.624L434.384 218.772C434.107 218.871 433.712 218.97 433.197 219.069C432.683 219.168 432.109 219.237 431.476 219.277H430.912V217.912H431.476C432.406 217.872 433.266 217.724 434.058 217.467C434.849 217.209 435.403 216.972 435.72 216.754C436.036 216.537 436.313 216.319 436.55 216.101C436.59 216.042 436.709 216.012 436.907 216.012C437.085 216.012 437.253 216.072 437.411 216.19V225.063L437.441 233.966C437.579 234.105 437.698 234.194 437.797 234.233C437.896 234.273 438.133 234.312 438.509 234.352C438.885 234.392 439.498 234.411 440.349 234.411H441.121V235.776H440.794C440.379 235.717 438.806 235.687 436.076 235.687C433.385 235.687 431.832 235.717 431.417 235.776H431.06V234.411H431.832C432.267 234.411 432.643 234.411 432.96 234.411C433.276 234.411 433.524 234.401 433.702 234.382C433.88 234.362 434.038 234.332 434.176 234.293C434.315 234.253 434.394 234.233 434.414 234.233C434.434 234.233 434.493 234.184 434.592 234.085C434.691 233.986 434.75 233.946 434.77 233.966V218.624Z" fill="#00001D"/>
<path d="M415.353 272.294C415.353 271.594 415.087 271.244 414.556 271.244C413.884 271.244 413.185 271.65 412.457 272.462C411.729 273.273 411.128 274.518 410.652 276.197C410.624 276.225 410.596 276.267 410.568 276.323C410.54 276.379 410.526 276.421 410.526 276.449C410.526 276.477 410.498 276.505 410.442 276.533C410.386 276.561 410.344 276.575 410.316 276.575C410.288 276.575 410.232 276.575 410.148 276.575C410.064 276.575 409.953 276.575 409.813 276.575H409.225C409.057 276.407 408.973 276.281 408.973 276.197C408.973 276.001 409.085 275.596 409.309 274.98C409.533 274.364 409.869 273.637 410.316 272.797C410.764 271.958 411.38 271.244 412.163 270.657C412.947 270.069 413.828 269.761 414.808 269.733C415.983 269.733 416.892 270.069 417.536 270.741C418.179 271.412 418.515 272.196 418.543 273.091C418.543 273.567 418.501 273.931 418.417 274.183C418.417 274.35 418.207 274.966 417.788 276.029C417.368 277.093 416.934 278.338 416.486 279.765C416.039 281.192 415.787 282.437 415.731 283.501C415.731 284.256 415.801 284.872 415.941 285.348C416.305 286.551 417.186 287.153 418.585 287.153C419.621 287.153 420.586 286.677 421.481 285.725C422.377 284.774 423.076 283.669 423.58 282.409C424.084 281.15 424.49 279.989 424.797 278.926C425.105 277.862 425.259 277.093 425.259 276.617C425.259 275.973 425.147 275.414 424.923 274.938C424.699 274.462 424.448 274.099 424.168 273.847C423.888 273.595 423.636 273.343 423.412 273.091C423.188 272.839 423.076 272.532 423.076 272.168C423.076 271.552 423.342 270.979 423.874 270.447C424.406 269.915 424.979 269.649 425.595 269.649C426.127 269.649 426.602 269.901 427.022 270.405C427.442 270.909 427.666 271.72 427.694 272.839C427.694 273.595 427.526 274.756 427.19 276.323C426.854 277.89 426.336 279.639 425.637 281.57C424.937 283.501 423.944 285.166 422.657 286.565C421.369 287.964 419.886 288.678 418.207 288.706C416.417 288.706 414.989 288.244 413.926 287.32C412.891 286.425 412.373 285.096 412.373 283.333C412.373 282.465 412.485 281.57 412.709 280.647C412.933 279.723 413.506 278.086 414.43 275.736C415.045 273.945 415.353 272.797 415.353 272.294Z" fill="#00001D"/>
<path d="M431.683 281.809C431.149 281.809 430.724 281.631 430.407 281.275C430.091 280.919 429.933 280.484 429.933 279.969C429.933 278.565 430.457 277.348 431.505 276.319C432.554 275.29 433.86 274.776 435.423 274.776C437.223 274.776 438.726 275.33 439.933 276.438C441.14 277.546 441.753 278.98 441.773 280.741C441.773 281.592 441.575 282.403 441.18 283.174C440.784 283.946 440.309 284.619 439.755 285.192C439.201 285.766 438.41 286.498 437.381 287.388C436.669 288.002 435.68 288.912 434.414 290.118L432.663 291.78L434.918 291.81C438.024 291.81 439.676 291.76 439.874 291.662C440.012 291.622 440.25 290.742 440.586 289.02V288.931H441.773V289.02C441.753 289.08 441.625 289.98 441.387 291.721C441.15 293.462 441.002 294.372 440.942 294.451V294.54H429.933V293.976V293.62C429.933 293.482 429.992 293.333 430.111 293.175C430.229 293.017 430.526 292.67 431.001 292.136C431.575 291.503 432.069 290.949 432.485 290.474C432.663 290.277 432.999 289.911 433.494 289.376C433.988 288.842 434.325 288.476 434.503 288.278C434.681 288.081 434.968 287.754 435.363 287.299C435.759 286.844 436.036 286.508 436.194 286.29C436.352 286.073 436.58 285.776 436.877 285.4C437.173 285.024 437.381 284.708 437.5 284.45C437.619 284.193 437.767 283.906 437.945 283.59C438.123 283.273 438.252 282.957 438.331 282.64C438.41 282.324 438.479 282.027 438.539 281.75C438.598 281.473 438.628 281.146 438.628 280.771C438.628 279.524 438.291 278.446 437.619 277.536C436.946 276.626 435.986 276.171 434.74 276.171C434.087 276.171 433.513 276.339 433.019 276.675C432.524 277.012 432.178 277.338 431.98 277.655C431.782 277.971 431.683 278.159 431.683 278.218C431.683 278.238 431.733 278.248 431.832 278.248C432.188 278.248 432.554 278.387 432.93 278.664C433.306 278.941 433.494 279.396 433.494 280.029C433.494 280.523 433.335 280.939 433.019 281.275C432.702 281.611 432.257 281.789 431.683 281.809Z" fill="#00001D"/>
<path d="M445.852 200.602V198H457.143V298.696H445.852V296.093H454.541V200.602H445.852Z" fill="#00001D"/>
<path d="M435 404.552C435 404.278 435.147 403.808 435.44 403.143C435.734 402.477 436.204 401.782 436.85 401.058C437.496 400.334 438.22 399.981 439.023 400.001C439.826 400.001 440.472 400.226 440.961 400.676C441.451 401.126 441.705 401.753 441.725 402.555C441.685 402.927 441.656 403.133 441.637 403.172C441.637 403.231 441.48 403.681 441.167 404.523C440.853 405.365 440.53 406.314 440.198 407.371C439.865 408.429 439.708 409.27 439.728 409.897C439.728 410.739 439.865 411.326 440.139 411.659C440.413 411.992 440.824 412.168 441.372 412.187C441.823 412.187 442.243 412.08 442.635 411.864C443.026 411.649 443.33 411.424 443.545 411.189C443.761 410.954 444.025 410.631 444.338 410.22C444.338 410.2 444.387 410.004 444.485 409.633C444.583 409.261 444.72 408.683 444.896 407.9C445.072 407.117 445.258 406.393 445.454 405.727C446.198 402.79 446.609 401.254 446.687 401.117C446.942 400.588 447.363 400.324 447.95 400.324C448.205 400.324 448.41 400.392 448.567 400.529C448.723 400.666 448.831 400.784 448.89 400.882C448.948 400.98 448.968 401.068 448.948 401.146C448.948 401.4 448.469 403.456 447.51 407.313C446.55 411.169 446.002 413.284 445.865 413.656C445.317 415.28 444.367 416.572 443.017 417.532C441.666 418.491 440.315 418.98 438.964 419C438.083 419 437.31 418.785 436.644 418.354C435.979 417.923 435.646 417.277 435.646 416.416C435.646 415.985 435.715 415.623 435.852 415.329C435.989 415.036 436.175 414.82 436.41 414.683C436.644 414.546 436.84 414.448 436.997 414.39C437.153 414.331 437.32 414.302 437.496 414.302C438.357 414.302 438.788 414.713 438.788 415.535C438.788 415.926 438.671 416.269 438.436 416.563C438.201 416.856 437.976 417.052 437.76 417.15C437.545 417.248 437.418 417.297 437.379 417.297L437.29 417.326C437.33 417.424 437.516 417.542 437.848 417.679C438.181 417.816 438.514 417.884 438.847 417.884H439.082C439.415 417.884 439.669 417.865 439.845 417.825C440.491 417.649 441.088 417.277 441.637 416.71C442.185 416.142 442.606 415.535 442.899 414.889C443.193 414.243 443.418 413.695 443.575 413.244C443.731 412.794 443.81 412.501 443.81 412.363L443.633 412.481C443.516 412.559 443.33 412.667 443.075 412.804C442.821 412.941 442.566 413.058 442.312 413.156C441.92 413.254 441.539 413.303 441.167 413.303C440.266 413.303 439.473 413.088 438.788 412.657C438.103 412.226 437.653 411.531 437.437 410.572C437.418 410.435 437.408 410.132 437.408 409.662C437.408 408.546 437.751 407.088 438.436 405.286C439.121 403.485 439.464 402.34 439.464 401.851C439.464 401.831 439.464 401.812 439.464 401.792C439.464 401.616 439.464 401.498 439.464 401.44C439.464 401.381 439.424 401.312 439.346 401.234C439.268 401.156 439.16 401.117 439.023 401.117H438.906C438.455 401.117 438.044 401.303 437.672 401.675C437.3 402.046 437.007 402.448 436.791 402.879C436.576 403.309 436.41 403.72 436.292 404.112C436.175 404.503 436.096 404.719 436.057 404.758C436.018 404.797 435.861 404.817 435.587 404.817H435.176C435.059 404.699 435 404.611 435 404.552Z" fill="#00001D"/>
<path d="M222.708 404.494C222.845 403.671 223.374 402.722 224.294 401.645C225.214 400.568 226.349 400.02 227.7 400.001C228.385 400.001 229.012 400.177 229.58 400.529C230.147 400.882 230.568 401.322 230.842 401.851C231.665 400.617 232.653 400.001 233.808 400.001C234.533 400.001 235.159 400.216 235.688 400.647C236.216 401.077 236.49 401.655 236.51 402.379C236.51 402.947 236.373 403.407 236.099 403.759C235.825 404.112 235.56 404.327 235.306 404.405C235.051 404.484 234.826 404.523 234.63 404.523C234.259 404.523 233.955 404.415 233.72 404.2C233.485 403.985 233.368 403.701 233.368 403.348C233.368 402.448 233.857 401.831 234.836 401.498C234.621 401.244 234.229 401.117 233.661 401.117C233.407 401.117 233.221 401.136 233.103 401.175C232.36 401.489 231.811 402.135 231.459 403.113C230.284 407.44 229.697 409.965 229.697 410.69C229.697 411.238 229.854 411.629 230.167 411.864C230.48 412.099 230.823 412.217 231.195 412.217C231.919 412.217 232.634 411.894 233.338 411.248C234.043 410.602 234.523 409.809 234.777 408.869C234.836 408.673 234.895 408.566 234.953 408.546C235.012 408.526 235.169 408.507 235.423 408.487H235.541C235.834 408.487 235.981 408.566 235.981 408.722C235.981 408.742 235.962 408.849 235.923 409.045C235.609 410.161 235.002 411.15 234.102 412.011C233.201 412.872 232.154 413.303 230.96 413.303C229.589 413.303 228.552 412.686 227.847 411.453C227.044 412.667 226.124 413.274 225.087 413.274H224.911C223.951 413.274 223.266 413.019 222.855 412.51C222.444 412.001 222.229 411.463 222.209 410.895C222.209 410.269 222.395 409.76 222.767 409.368C223.139 408.977 223.579 408.781 224.088 408.781C224.93 408.781 225.351 409.192 225.351 410.014C225.351 410.406 225.234 410.748 224.999 411.042C224.764 411.336 224.539 411.531 224.323 411.629C224.108 411.727 223.981 411.776 223.942 411.776L223.853 411.805C223.853 411.825 223.912 411.864 224.03 411.923C224.147 411.982 224.304 412.05 224.499 412.128C224.695 412.207 224.881 412.236 225.057 412.217C225.762 412.217 226.369 411.776 226.878 410.895C227.054 410.582 227.279 409.916 227.553 408.898C227.828 407.88 228.102 406.823 228.376 405.727C228.65 404.631 228.806 403.985 228.846 403.789C228.943 403.26 228.992 402.878 228.992 402.644C228.992 402.095 228.846 401.704 228.552 401.469C228.258 401.234 227.925 401.117 227.553 401.117C226.77 401.117 226.036 401.43 225.351 402.056C224.666 402.683 224.186 403.485 223.912 404.464C223.873 404.64 223.824 404.738 223.765 404.758C223.707 404.777 223.55 404.797 223.295 404.817H222.884C222.767 404.699 222.708 404.591 222.708 404.494Z" fill="#00001D"/>
</svg>
