<svg width="1200" height="600" viewBox="0 0 1200 600" fill="none" xmlns="http://www.w3.org/2000/svg">
<path d="M230.5 375V362.28H232.612V375H230.5ZM231.556 360.6C231.14 360.6 230.796 360.464 230.524 360.192C230.252 359.92 230.116 359.576 230.116 359.16C230.116 358.744 230.252 358.4 230.524 358.128C230.796 357.856 231.14 357.72 231.556 357.72C231.972 357.72 232.316 357.856 232.588 358.128C232.86 358.4 232.996 358.744 232.996 359.16C232.996 359.576 232.86 359.92 232.588 360.192C232.316 360.464 231.972 360.6 231.556 360.6ZM236.682 375V362.28H238.65V364.68C238.938 363.976 239.442 363.36 240.162 362.832C240.898 362.304 241.842 362.04 242.994 362.04C244.594 362.04 245.778 362.472 246.546 363.336C247.33 364.184 247.722 365.432 247.722 367.08V375H245.61V367.56C245.61 366.376 245.362 365.48 244.866 364.872C244.37 364.264 243.538 363.96 242.37 363.96C241.538 363.96 240.858 364.136 240.33 364.488C239.802 364.84 239.41 365.288 239.154 365.832C238.914 366.376 238.794 366.952 238.794 367.56V375H236.682ZM256.487 375V373.152L263.207 367.32C263.895 366.744 264.423 366.24 264.791 365.808C265.159 365.36 265.407 364.936 265.535 364.536C265.679 364.136 265.751 363.704 265.751 363.24C265.751 362.296 265.471 361.52 264.911 360.912C264.351 360.288 263.583 359.976 262.607 359.976C261.439 359.976 260.543 360.296 259.919 360.936C259.295 361.56 258.983 362.448 258.983 363.6H256.727C256.727 362.496 256.967 361.52 257.447 360.672C257.943 359.824 258.631 359.16 259.511 358.68C260.407 358.2 261.439 357.96 262.607 357.96C263.743 357.96 264.711 358.192 265.511 358.656C266.327 359.104 266.943 359.728 267.359 360.528C267.791 361.312 268.007 362.216 268.007 363.24C268.007 364.008 267.855 364.712 267.551 365.352C267.247 365.976 266.823 366.568 266.279 367.128C265.751 367.688 265.135 368.272 264.431 368.88L259.415 373.032H268.247V375H256.487ZM271.849 375V358.2H276.769C278.449 358.2 279.889 358.504 281.089 359.112C282.289 359.72 283.209 360.624 283.849 361.824C284.489 363.008 284.809 364.48 284.809 366.24V366.72C284.809 368.512 284.481 370.024 283.825 371.256C283.169 372.488 282.217 373.424 280.969 374.064C279.737 374.688 278.257 375 276.529 375H271.849ZM274.105 373.032H276.289C277.553 373.032 278.641 372.816 279.553 372.384C280.465 371.952 281.169 371.272 281.665 370.344C282.161 369.416 282.409 368.208 282.409 366.72V366.24C282.409 364.8 282.169 363.64 281.689 362.76C281.209 361.864 280.529 361.208 279.649 360.792C278.769 360.376 277.729 360.168 276.529 360.168H274.105V373.032ZM287.105 378.6L288.065 375V372.36H290.705V375L288.305 378.6H287.105ZM302.58 380.04C302.34 380.04 302.1 380.016 301.86 379.968V378.048C302.1 378.096 302.34 378.12 302.58 378.12C302.9 378.12 303.164 378.04 303.372 377.88C303.596 377.736 303.82 377.44 304.044 376.992C304.268 376.544 304.54 375.88 304.86 375L299.46 362.28H301.812L305.94 372.6L309.684 362.28H311.94L307.14 375C306.692 376.2 306.26 377.168 305.844 377.904C305.444 378.64 304.988 379.176 304.476 379.512C303.98 379.864 303.348 380.04 302.58 380.04ZM319.141 375.24C318.069 375.24 317.061 375.008 316.117 374.544C315.189 374.064 314.437 373.344 313.861 372.384C313.301 371.424 313.021 370.216 313.021 368.76V368.28C313.021 366.904 313.301 365.752 313.861 364.824C314.437 363.896 315.189 363.2 316.117 362.736C317.061 362.272 318.069 362.04 319.141 362.04C320.229 362.04 321.237 362.272 322.165 362.736C323.093 363.2 323.837 363.896 324.397 364.824C324.973 365.752 325.261 366.904 325.261 368.28V368.76C325.261 370.216 324.973 371.424 324.397 372.384C323.837 373.344 323.093 374.064 322.165 374.544C321.237 375.008 320.229 375.24 319.141 375.24ZM319.141 373.32C319.797 373.32 320.421 373.176 321.013 372.888C321.621 372.584 322.117 372.096 322.501 371.424C322.901 370.752 323.101 369.864 323.101 368.76V368.28C323.101 367.256 322.901 366.432 322.501 365.808C322.117 365.168 321.621 364.704 321.013 364.416C320.421 364.112 319.797 363.96 319.141 363.96C318.501 363.96 317.877 364.112 317.269 364.416C316.661 364.704 316.157 365.168 315.757 365.808C315.373 366.432 315.181 367.256 315.181 368.28V368.76C315.181 369.864 315.373 370.752 315.757 371.424C316.157 372.096 316.661 372.584 317.269 372.888C317.877 373.176 318.501 373.32 319.141 373.32ZM332.74 375.24C331.204 375.24 330.052 374.8 329.284 373.92C328.516 373.04 328.132 371.68 328.132 369.84V362.28H330.244V369.72C330.244 370.904 330.484 371.8 330.964 372.408C331.46 373.016 332.26 373.32 333.364 373.32C334.164 373.32 334.82 373.144 335.332 372.792C335.844 372.44 336.22 371.992 336.46 371.448C336.7 370.888 336.82 370.312 336.82 369.72V362.28H338.932V375H336.964V372.6C336.676 373.304 336.172 373.92 335.452 374.448C334.732 374.976 333.828 375.24 332.74 375.24ZM353.703 375.24C352.615 375.24 351.631 375.008 350.751 374.544C349.887 374.064 349.199 373.344 348.687 372.384C348.191 371.424 347.943 370.216 347.943 368.76V368.28C347.943 366.904 348.215 365.752 348.759 364.824C349.303 363.896 350.015 363.2 350.895 362.736C351.775 362.272 352.711 362.04 353.703 362.04C354.711 362.04 355.575 362.224 356.295 362.592C357.031 362.944 357.623 363.432 358.071 364.056C358.519 364.664 358.823 365.352 358.983 366.12H356.823C356.567 365.512 356.207 365 355.743 364.584C355.295 364.168 354.615 363.96 353.703 363.96C353.079 363.96 352.495 364.112 351.951 364.416C351.407 364.704 350.959 365.168 350.607 365.808C350.271 366.432 350.103 367.256 350.103 368.28V368.76C350.103 369.848 350.271 370.728 350.607 371.4C350.959 372.072 351.407 372.56 351.951 372.864C352.495 373.168 353.079 373.32 353.703 373.32C354.487 373.32 355.143 373.128 355.671 372.744C356.215 372.36 356.599 371.832 356.823 371.16H358.983C358.791 371.992 358.447 372.72 357.951 373.344C357.455 373.952 356.847 374.424 356.127 374.76C355.407 375.08 354.599 375.24 353.703 375.24ZM365.485 375.24C364.557 375.24 363.765 375.072 363.109 374.736C362.469 374.384 361.981 373.912 361.645 373.32C361.309 372.712 361.141 372.032 361.141 371.28C361.141 370.016 361.509 369.104 362.245 368.544C362.997 367.984 364.069 367.704 365.461 367.704H369.589V366.84C369.589 365.752 369.341 365 368.845 364.584C368.365 364.168 367.637 363.96 366.661 363.96C365.749 363.96 365.085 364.136 364.669 364.488C364.253 364.824 364.021 365.208 363.973 365.64H361.861C361.909 364.952 362.141 364.344 362.557 363.816C362.973 363.272 363.541 362.84 364.261 362.52C364.981 362.2 365.821 362.04 366.781 362.04C367.789 362.04 368.661 362.2 369.397 362.52C370.133 362.824 370.701 363.312 371.101 363.984C371.501 364.64 371.701 365.512 371.701 366.6V371.76C371.701 372.432 371.701 373.024 371.701 373.536C371.717 374.032 371.757 374.52 371.821 375H369.973C369.925 374.632 369.893 374.288 369.877 373.968C369.861 373.632 369.853 373.256 369.853 372.84C369.517 373.512 368.973 374.08 368.221 374.544C367.469 375.008 366.557 375.24 365.485 375.24ZM365.941 373.32C366.613 373.32 367.221 373.2 367.765 372.96C368.325 372.72 368.765 372.368 369.085 371.904C369.421 371.44 369.589 370.872 369.589 370.2V369.336H365.821C365.037 369.336 364.421 369.496 363.973 369.816C363.525 370.12 363.301 370.608 363.301 371.28C363.301 371.872 363.509 372.36 363.925 372.744C364.357 373.128 365.029 373.32 365.941 373.32ZM375.432 375V362.28H377.4V364.68C377.688 363.976 378.192 363.36 378.912 362.832C379.648 362.304 380.592 362.04 381.744 362.04C383.344 362.04 384.528 362.472 385.296 363.336C386.08 364.184 386.472 365.432 386.472 367.08V375H384.36V367.56C384.36 366.376 384.112 365.48 383.616 364.872C383.12 364.264 382.288 363.96 381.12 363.96C380.288 363.96 379.608 364.136 379.08 364.488C378.552 364.84 378.16 365.288 377.904 365.832C377.664 366.376 377.544 366.952 377.544 367.56V375H375.432ZM400.877 375.12C399.981 375.12 399.245 374.984 398.669 374.712C398.109 374.44 397.693 374.032 397.421 373.488C397.165 372.928 397.037 372.232 397.037 371.4V364.152H395.117V362.28H397.037V359.4H399.149V362.28H402.557V364.152H399.149V371.16C399.149 371.88 399.301 372.4 399.605 372.72C399.909 373.04 400.493 373.2 401.357 373.2C401.837 373.2 402.317 373.176 402.797 373.128V375C402.493 375.032 402.189 375.056 401.885 375.072C401.581 375.104 401.245 375.12 400.877 375.12ZM405.807 375V358.2H407.919V364.56C408.143 364.112 408.447 363.696 408.831 363.312C409.215 362.928 409.679 362.624 410.223 362.4C410.783 362.16 411.415 362.04 412.119 362.04C413.719 362.04 414.903 362.472 415.671 363.336C416.455 364.184 416.847 365.432 416.847 367.08V375H414.735V367.56C414.735 366.376 414.487 365.48 413.991 364.872C413.495 364.264 412.663 363.96 411.495 363.96C410.663 363.96 409.983 364.136 409.455 364.488C408.927 364.84 408.535 365.288 408.279 365.832C408.039 366.376 407.919 366.952 407.919 367.56V375H405.807ZM420.812 375V362.28H422.924V375H420.812ZM421.868 360.6C421.452 360.6 421.108 360.464 420.836 360.192C420.564 359.92 420.428 359.576 420.428 359.16C420.428 358.744 420.564 358.4 420.836 358.128C421.108 357.856 421.452 357.72 421.868 357.72C422.284 357.72 422.628 357.856 422.9 358.128C423.172 358.4 423.308 358.744 423.308 359.16C423.308 359.576 423.172 359.92 422.9 360.192C422.628 360.464 422.284 360.6 421.868 360.6ZM426.994 375V362.28H428.962V364.68C429.25 363.976 429.754 363.36 430.474 362.832C431.21 362.304 432.154 362.04 433.306 362.04C434.906 362.04 436.09 362.472 436.858 363.336C437.642 364.184 438.034 365.432 438.034 367.08V375H435.922V367.56C435.922 366.376 435.674 365.48 435.178 364.872C434.682 364.264 433.85 363.96 432.682 363.96C431.85 363.96 431.17 364.136 430.642 364.488C430.114 364.84 429.722 365.288 429.466 365.832C429.226 366.376 429.106 366.952 429.106 367.56V375H426.994ZM441.76 375V358.2H443.872V368.136L449.728 362.28H452.32L447.04 367.536L452.8 375H450.112L445.528 369L443.872 370.56V375H441.76ZM466.61 375.24C465.538 375.24 464.53 375.008 463.586 374.544C462.658 374.064 461.906 373.344 461.33 372.384C460.77 371.424 460.49 370.216 460.49 368.76V368.28C460.49 366.904 460.77 365.752 461.33 364.824C461.906 363.896 462.658 363.2 463.586 362.736C464.53 362.272 465.538 362.04 466.61 362.04C467.698 362.04 468.706 362.272 469.634 362.736C470.562 363.2 471.306 363.896 471.866 364.824C472.442 365.752 472.73 366.904 472.73 368.28V368.76C472.73 370.216 472.442 371.424 471.866 372.384C471.306 373.344 470.562 374.064 469.634 374.544C468.706 375.008 467.698 375.24 466.61 375.24ZM466.61 373.32C467.266 373.32 467.89 373.176 468.482 372.888C469.09 372.584 469.586 372.096 469.97 371.424C470.37 370.752 470.57 369.864 470.57 368.76V368.28C470.57 367.256 470.37 366.432 469.97 365.808C469.586 365.168 469.09 364.704 468.482 364.416C467.89 364.112 467.266 363.96 466.61 363.96C465.97 363.96 465.346 364.112 464.738 364.416C464.13 364.704 463.626 365.168 463.226 365.808C462.842 366.432 462.65 367.256 462.65 368.28V368.76C462.65 369.864 462.842 370.752 463.226 371.424C463.626 372.096 464.13 372.584 464.738 372.888C465.346 373.176 465.97 373.32 466.61 373.32ZM476.206 375V364.152H474.406V362.28H476.206V362.04C476.206 361.144 476.342 360.408 476.614 359.832C476.886 359.24 477.302 358.8 477.862 358.512C478.438 358.224 479.166 358.08 480.046 358.08C480.286 358.08 480.558 358.088 480.862 358.104C481.166 358.104 481.494 358.12 481.846 358.152V360.072C481.606 360.04 481.342 360.024 481.054 360.024C480.782 360.008 480.526 360 480.286 360C479.55 360 479.038 360.152 478.75 360.456C478.462 360.744 478.318 361.272 478.318 362.04V362.28H481.606V364.152H478.318V375H476.206ZM490.492 375V362.28H492.604V375H490.492ZM491.548 360.6C491.132 360.6 490.788 360.464 490.516 360.192C490.244 359.92 490.108 359.576 490.108 359.16C490.108 358.744 490.244 358.4 490.516 358.128C490.788 357.856 491.132 357.72 491.548 357.72C491.964 357.72 492.308 357.856 492.58 358.128C492.852 358.4 492.988 358.744 492.988 359.16C492.988 359.576 492.852 359.92 492.58 360.192C492.308 360.464 491.964 360.6 491.548 360.6ZM501.354 375.12C500.458 375.12 499.722 374.984 499.146 374.712C498.586 374.44 498.17 374.032 497.898 373.488C497.642 372.928 497.514 372.232 497.514 371.4V364.152H495.594V362.28H497.514V359.4H499.626V362.28H503.034V364.152H499.626V371.16C499.626 371.88 499.778 372.4 500.082 372.72C500.386 373.04 500.97 373.2 501.834 373.2C502.314 373.2 502.794 373.176 503.274 373.128V375C502.97 375.032 502.666 375.056 502.362 375.072C502.058 375.104 501.722 375.12 501.354 375.12ZM515.907 375.24C514.979 375.24 514.187 375.072 513.531 374.736C512.891 374.384 512.403 373.912 512.067 373.32C511.731 372.712 511.563 372.032 511.563 371.28C511.563 370.016 511.931 369.104 512.667 368.544C513.419 367.984 514.491 367.704 515.883 367.704H520.011V366.84C520.011 365.752 519.763 365 519.267 364.584C518.787 364.168 518.059 363.96 517.083 363.96C516.171 363.96 515.507 364.136 515.091 364.488C514.675 364.824 514.443 365.208 514.395 365.64H512.283C512.331 364.952 512.563 364.344 512.979 363.816C513.395 363.272 513.963 362.84 514.683 362.52C515.403 362.2 516.243 362.04 517.203 362.04C518.211 362.04 519.083 362.2 519.819 362.52C520.555 362.824 521.123 363.312 521.523 363.984C521.923 364.64 522.123 365.512 522.123 366.6V371.76C522.123 372.432 522.123 373.024 522.123 373.536C522.139 374.032 522.179 374.52 522.243 375H520.395C520.347 374.632 520.315 374.288 520.299 373.968C520.283 373.632 520.275 373.256 520.275 372.84C519.939 373.512 519.395 374.08 518.643 374.544C517.891 375.008 516.979 375.24 515.907 375.24ZM516.363 373.32C517.035 373.32 517.643 373.2 518.187 372.96C518.747 372.72 519.187 372.368 519.507 371.904C519.843 371.44 520.011 370.872 520.011 370.2V369.336H516.243C515.459 369.336 514.843 369.496 514.395 369.816C513.947 370.12 513.723 370.608 513.723 371.28C513.723 371.872 513.931 372.36 514.347 372.744C514.779 373.128 515.451 373.32 516.363 373.32ZM530.294 375.24C529.446 375.24 528.71 375.144 528.086 374.952C527.462 374.744 526.942 374.472 526.526 374.136C526.11 373.8 525.774 373.408 525.518 372.96C525.278 372.496 525.11 372.016 525.014 371.52H527.126C527.238 372.032 527.534 372.48 528.014 372.864C528.51 373.232 529.27 373.416 530.294 373.416C531.478 373.416 532.302 373.232 532.766 372.864C533.23 372.48 533.462 372.032 533.462 371.52C533.462 371.168 533.358 370.864 533.15 370.608C532.958 370.336 532.606 370.104 532.094 369.912C531.598 369.72 530.886 369.56 529.958 369.432C529.254 369.336 528.622 369.2 528.062 369.024C527.502 368.832 527.022 368.584 526.622 368.28C526.222 367.976 525.91 367.608 525.686 367.176C525.478 366.744 525.374 366.232 525.374 365.64C525.374 365 525.558 364.408 525.926 363.864C526.294 363.32 526.846 362.88 527.582 362.544C528.318 362.208 529.222 362.04 530.294 362.04C531.302 362.04 532.134 362.216 532.79 362.568C533.462 362.904 533.982 363.352 534.35 363.912C534.718 364.472 534.966 365.088 535.094 365.76H532.982C532.854 365.2 532.582 364.744 532.166 364.392C531.75 364.04 531.126 363.864 530.294 363.864C529.254 363.864 528.526 364.04 528.11 364.392C527.694 364.728 527.486 365.144 527.486 365.64C527.486 366.216 527.71 366.648 528.158 366.936C528.622 367.224 529.462 367.448 530.678 367.608C531.462 367.704 532.158 367.848 532.766 368.04C533.374 368.216 533.886 368.464 534.302 368.784C534.718 369.088 535.03 369.464 535.238 369.912C535.462 370.36 535.574 370.896 535.574 371.52C535.574 372.192 535.382 372.808 534.998 373.368C534.614 373.928 534.03 374.384 533.246 374.736C532.478 375.072 531.494 375.24 530.294 375.24ZM186.998 413.12C186.102 413.12 185.366 412.984 184.79 412.712C184.23 412.44 183.814 412.032 183.542 411.488C183.286 410.928 183.158 410.232 183.158 409.4V402.152H181.238V400.28H183.158V397.4H185.27V400.28H188.678V402.152H185.27V409.16C185.27 409.88 185.422 410.4 185.726 410.72C186.03 411.04 186.614 411.2 187.478 411.2C187.958 411.2 188.438 411.176 188.918 411.128V413C188.614 413.032 188.31 413.056 188.006 413.072C187.702 413.104 187.366 413.12 186.998 413.12ZM191.928 413V396.2H194.04V402.56C194.264 402.112 194.568 401.696 194.952 401.312C195.336 400.928 195.8 400.624 196.344 400.4C196.904 400.16 197.536 400.04 198.24 400.04C199.84 400.04 201.024 400.472 201.792 401.336C202.576 402.184 202.968 403.432 202.968 405.08V413H200.856V405.56C200.856 404.376 200.608 403.48 200.112 402.872C199.616 402.264 198.784 401.96 197.616 401.96C196.784 401.96 196.104 402.136 195.576 402.488C195.048 402.84 194.656 403.288 194.4 403.832C194.16 404.376 194.04 404.952 194.04 405.56V413H191.928ZM211.973 413.24C210.901 413.24 209.893 413.008 208.949 412.544C208.021 412.08 207.269 411.368 206.693 410.408C206.133 409.448 205.853 408.232 205.853 406.76V406.28C205.853 404.872 206.125 403.712 206.669 402.8C207.213 401.872 207.933 401.184 208.829 400.736C209.725 400.272 210.693 400.04 211.733 400.04C213.605 400.04 215.053 400.552 216.077 401.576C217.101 402.6 217.613 404.048 217.613 405.92V407.264H207.965C207.965 408.256 208.165 409.048 208.565 409.64C208.981 410.232 209.493 410.664 210.101 410.936C210.725 411.192 211.349 411.32 211.973 411.32C212.933 411.32 213.669 411.16 214.181 410.84C214.709 410.52 215.085 410.08 215.309 409.52H217.373C217.117 410.736 216.485 411.664 215.477 412.304C214.485 412.928 213.317 413.24 211.973 413.24ZM211.853 401.96C211.197 401.96 210.573 402.088 209.981 402.344C209.389 402.584 208.901 402.968 208.517 403.496C208.149 404.024 207.965 404.704 207.965 405.536H215.621C215.605 404.656 215.421 403.96 215.069 403.448C214.733 402.92 214.285 402.544 213.725 402.32C213.165 402.08 212.541 401.96 211.853 401.96ZM225.295 413L230.071 406.544L225.535 400.28H227.983L231.343 404.912L234.703 400.28H237.055L232.519 406.424L237.295 413H234.799L231.247 408.032L227.695 413H225.295ZM237.89 407.264V405.296H245.09V407.264H237.89ZM252.887 413.24C251.799 413.24 250.815 413.008 249.935 412.544C249.071 412.064 248.383 411.344 247.871 410.384C247.375 409.424 247.127 408.216 247.127 406.76V406.28C247.127 404.904 247.399 403.752 247.943 402.824C248.487 401.896 249.199 401.2 250.079 400.736C250.959 400.272 251.895 400.04 252.887 400.04C253.895 400.04 254.759 400.224 255.479 400.592C256.215 400.944 256.807 401.432 257.255 402.056C257.703 402.664 258.007 403.352 258.167 404.12H256.007C255.751 403.512 255.391 403 254.927 402.584C254.479 402.168 253.799 401.96 252.887 401.96C252.263 401.96 251.679 402.112 251.135 402.416C250.591 402.704 250.143 403.168 249.791 403.808C249.455 404.432 249.287 405.256 249.287 406.28V406.76C249.287 407.848 249.455 408.728 249.791 409.4C250.143 410.072 250.591 410.56 251.135 410.864C251.679 411.168 252.263 411.32 252.887 411.32C253.671 411.32 254.327 411.128 254.855 410.744C255.399 410.36 255.783 409.832 256.007 409.16H258.167C257.975 409.992 257.631 410.72 257.135 411.344C256.639 411.952 256.031 412.424 255.311 412.76C254.591 413.08 253.783 413.24 252.887 413.24ZM266.325 413.24C265.253 413.24 264.245 413.008 263.301 412.544C262.373 412.064 261.621 411.344 261.045 410.384C260.485 409.424 260.205 408.216 260.205 406.76V406.28C260.205 404.904 260.485 403.752 261.045 402.824C261.621 401.896 262.373 401.2 263.301 400.736C264.245 400.272 265.253 400.04 266.325 400.04C267.413 400.04 268.421 400.272 269.349 400.736C270.277 401.2 271.021 401.896 271.581 402.824C272.157 403.752 272.445 404.904 272.445 406.28V406.76C272.445 408.216 272.157 409.424 271.581 410.384C271.021 411.344 270.277 412.064 269.349 412.544C268.421 413.008 267.413 413.24 266.325 413.24ZM266.325 411.32C266.981 411.32 267.605 411.176 268.197 410.888C268.805 410.584 269.301 410.096 269.685 409.424C270.085 408.752 270.285 407.864 270.285 406.76V406.28C270.285 405.256 270.085 404.432 269.685 403.808C269.301 403.168 268.805 402.704 268.197 402.416C267.605 402.112 266.981 401.96 266.325 401.96C265.685 401.96 265.061 402.112 264.453 402.416C263.845 402.704 263.341 403.168 262.941 403.808C262.557 404.432 262.365 405.256 262.365 406.28V406.76C262.365 407.864 262.557 408.752 262.941 409.424C263.341 410.096 263.845 410.584 264.453 410.888C265.061 411.176 265.685 411.32 266.325 411.32ZM275.436 413V400.28H277.404V402.68C277.676 401.896 278.14 401.264 278.796 400.784C279.468 400.288 280.228 400.04 281.076 400.04C282.18 400.04 283.028 400.28 283.62 400.76C284.212 401.224 284.62 401.824 284.844 402.56C285.26 401.776 285.788 401.16 286.428 400.712C287.084 400.264 287.868 400.04 288.78 400.04C290.092 400.04 291.116 400.44 291.852 401.24C292.588 402.024 292.956 403.264 292.956 404.96V413H290.844V405.44C290.844 404.176 290.62 403.28 290.172 402.752C289.74 402.224 289.076 401.96 288.18 401.96C287.668 401.96 287.188 402.104 286.74 402.392C286.292 402.664 285.932 403.064 285.66 403.592C285.388 404.104 285.252 404.72 285.252 405.44V413H283.14V405.44C283.14 404.176 282.916 403.28 282.468 402.752C282.02 402.224 281.356 401.96 280.476 401.96C279.964 401.96 279.484 402.104 279.036 402.392C278.588 402.664 278.228 403.064 277.956 403.592C277.684 404.104 277.548 404.72 277.548 405.44V413H275.436ZM296.67 417.8V400.28H298.638V402.68C299.07 401.832 299.67 401.184 300.438 400.736C301.222 400.272 302.126 400.04 303.15 400.04C304.75 400.04 306.03 400.568 306.99 401.624C307.95 402.664 308.43 404.216 308.43 406.28V406.76C308.43 408.2 308.206 409.4 307.758 410.36C307.326 411.32 306.71 412.04 305.91 412.52C305.126 413 304.206 413.24 303.15 413.24C302.062 413.24 301.15 413 300.414 412.52C299.694 412.04 299.15 411.44 298.782 410.72V417.8H296.67ZM302.67 411.368C303.71 411.368 304.574 410.976 305.262 410.192C305.966 409.408 306.318 408.264 306.318 406.76V406.28C306.318 404.888 305.966 403.816 305.262 403.064C304.574 402.296 303.71 401.912 302.67 401.912C301.902 401.912 301.222 402.072 300.63 402.392C300.054 402.712 299.598 403.152 299.262 403.712C298.942 404.256 298.782 404.872 298.782 405.56V407.48C298.782 408.248 298.942 408.928 299.262 409.52C299.598 410.096 300.054 410.552 300.63 410.888C301.222 411.208 301.902 411.368 302.67 411.368ZM316.716 413.24C315.644 413.24 314.636 413.008 313.692 412.544C312.764 412.064 312.012 411.344 311.436 410.384C310.876 409.424 310.596 408.216 310.596 406.76V406.28C310.596 404.904 310.876 403.752 311.436 402.824C312.012 401.896 312.764 401.2 313.692 400.736C314.636 400.272 315.644 400.04 316.716 400.04C317.804 400.04 318.812 400.272 319.74 400.736C320.668 401.2 321.412 401.896 321.972 402.824C322.548 403.752 322.836 404.904 322.836 406.28V406.76C322.836 408.216 322.548 409.424 321.972 410.384C321.412 411.344 320.668 412.064 319.74 412.544C318.812 413.008 317.804 413.24 316.716 413.24ZM316.716 411.32C317.372 411.32 317.996 411.176 318.588 410.888C319.196 410.584 319.692 410.096 320.076 409.424C320.476 408.752 320.676 407.864 320.676 406.76V406.28C320.676 405.256 320.476 404.432 320.076 403.808C319.692 403.168 319.196 402.704 318.588 402.416C317.996 402.112 317.372 401.96 316.716 401.96C316.076 401.96 315.452 402.112 314.844 402.416C314.236 402.704 313.732 403.168 313.332 403.808C312.948 404.432 312.756 405.256 312.756 406.28V406.76C312.756 407.864 312.948 408.752 313.332 409.424C313.732 410.096 314.236 410.584 314.844 410.888C315.452 411.176 316.076 411.32 316.716 411.32ZM325.826 413V400.28H327.794V402.68C328.082 401.976 328.586 401.36 329.306 400.832C330.042 400.304 330.986 400.04 332.138 400.04C333.738 400.04 334.922 400.472 335.69 401.336C336.474 402.184 336.866 403.432 336.866 405.08V413H334.754V405.56C334.754 404.376 334.506 403.48 334.01 402.872C333.514 402.264 332.682 401.96 331.514 401.96C330.682 401.96 330.002 402.136 329.474 402.488C328.946 402.84 328.554 403.288 328.298 403.832C328.058 404.376 327.938 404.952 327.938 405.56V413H325.826ZM345.872 413.24C344.8 413.24 343.792 413.008 342.848 412.544C341.92 412.08 341.168 411.368 340.592 410.408C340.032 409.448 339.752 408.232 339.752 406.76V406.28C339.752 404.872 340.024 403.712 340.568 402.8C341.112 401.872 341.832 401.184 342.728 400.736C343.624 400.272 344.592 400.04 345.632 400.04C347.504 400.04 348.952 400.552 349.976 401.576C351 402.6 351.512 404.048 351.512 405.92V407.264H341.864C341.864 408.256 342.064 409.048 342.464 409.64C342.88 410.232 343.392 410.664 344 410.936C344.624 411.192 345.248 411.32 345.872 411.32C346.832 411.32 347.568 411.16 348.08 410.84C348.608 410.52 348.984 410.08 349.208 409.52H351.272C351.016 410.736 350.384 411.664 349.376 412.304C348.384 412.928 347.216 413.24 345.872 413.24ZM345.752 401.96C345.096 401.96 344.472 402.088 343.88 402.344C343.288 402.584 342.8 402.968 342.416 403.496C342.048 404.024 341.864 404.704 341.864 405.536H349.52C349.504 404.656 349.32 403.96 348.968 403.448C348.632 402.92 348.184 402.544 347.624 402.32C347.064 402.08 346.44 401.96 345.752 401.96ZM354.514 413V400.28H356.482V402.68C356.77 401.976 357.274 401.36 357.994 400.832C358.73 400.304 359.674 400.04 360.826 400.04C362.426 400.04 363.61 400.472 364.378 401.336C365.162 402.184 365.554 403.432 365.554 405.08V413H363.442V405.56C363.442 404.376 363.194 403.48 362.698 402.872C362.202 402.264 361.37 401.96 360.202 401.96C359.37 401.96 358.69 402.136 358.162 402.488C357.634 402.84 357.242 403.288 356.986 403.832C356.746 404.376 356.626 404.952 356.626 405.56V413H354.514ZM373.725 413.12C372.829 413.12 372.093 412.984 371.517 412.712C370.957 412.44 370.541 412.032 370.269 411.488C370.013 410.928 369.885 410.232 369.885 409.4V402.152H367.965V400.28H369.885V397.4H371.997V400.28H375.405V402.152H371.997V409.16C371.997 409.88 372.149 410.4 372.453 410.72C372.757 411.04 373.341 411.2 374.205 411.2C374.685 411.2 375.165 411.176 375.645 411.128V413C375.341 413.032 375.037 413.056 374.733 413.072C374.429 413.104 374.093 413.12 373.725 413.12ZM388.278 413.24C387.35 413.24 386.558 413.072 385.902 412.736C385.262 412.384 384.774 411.912 384.438 411.32C384.102 410.712 383.934 410.032 383.934 409.28C383.934 408.016 384.302 407.104 385.038 406.544C385.79 405.984 386.862 405.704 388.254 405.704H392.382V404.84C392.382 403.752 392.134 403 391.638 402.584C391.158 402.168 390.43 401.96 389.454 401.96C388.542 401.96 387.878 402.136 387.462 402.488C387.046 402.824 386.814 403.208 386.766 403.64H384.654C384.702 402.952 384.934 402.344 385.35 401.816C385.766 401.272 386.334 400.84 387.054 400.52C387.774 400.2 388.614 400.04 389.574 400.04C390.582 400.04 391.454 400.2 392.19 400.52C392.926 400.824 393.494 401.312 393.894 401.984C394.294 402.64 394.494 403.512 394.494 404.6V409.76C394.494 410.432 394.494 411.024 394.494 411.536C394.51 412.032 394.55 412.52 394.614 413H392.766C392.718 412.632 392.686 412.288 392.67 411.968C392.654 411.632 392.646 411.256 392.646 410.84C392.31 411.512 391.766 412.08 391.014 412.544C390.262 413.008 389.35 413.24 388.278 413.24ZM388.734 411.32C389.406 411.32 390.014 411.2 390.558 410.96C391.118 410.72 391.558 410.368 391.878 409.904C392.214 409.44 392.382 408.872 392.382 408.2V407.336H388.614C387.83 407.336 387.214 407.496 386.766 407.816C386.318 408.12 386.094 408.608 386.094 409.28C386.094 409.872 386.302 410.36 386.718 410.744C387.15 411.128 387.822 411.32 388.734 411.32ZM398.225 413V400.28H400.193V402.68C400.481 401.976 400.985 401.36 401.705 400.832C402.441 400.304 403.385 400.04 404.537 400.04C406.137 400.04 407.321 400.472 408.089 401.336C408.873 402.184 409.265 403.432 409.265 405.08V413H407.153V405.56C407.153 404.376 406.905 403.48 406.409 402.872C405.913 402.264 405.081 401.96 403.913 401.96C403.081 401.96 402.401 402.136 401.873 402.488C401.345 402.84 400.953 403.288 400.697 403.832C400.457 404.376 400.337 404.952 400.337 405.56V413H398.225ZM417.43 413.24C416.39 413.24 415.47 413 414.67 412.52C413.87 412.04 413.246 411.32 412.798 410.36C412.366 409.4 412.15 408.2 412.15 406.76V406.28C412.15 404.936 412.374 403.8 412.822 402.872C413.286 401.944 413.91 401.24 414.694 400.76C415.494 400.28 416.406 400.04 417.43 400.04C418.454 400.04 419.342 400.264 420.094 400.712C420.862 401.16 421.43 401.776 421.798 402.56V396.2H423.91V413H421.942V410.6C421.622 411.384 421.062 412.024 420.262 412.52C419.462 413 418.518 413.24 417.43 413.24ZM417.91 411.368C418.678 411.368 419.35 411.208 419.926 410.888C420.518 410.552 420.974 410.096 421.294 409.52C421.63 408.928 421.798 408.248 421.798 407.48V405.56C421.798 404.872 421.63 404.256 421.294 403.712C420.974 403.152 420.518 402.712 419.926 402.392C419.35 402.072 418.678 401.912 417.91 401.912C416.886 401.912 416.022 402.296 415.318 403.064C414.614 403.816 414.262 404.888 414.262 406.28V406.76C414.262 408.264 414.614 409.408 415.318 410.192C416.022 410.976 416.886 411.368 417.91 411.368ZM435.436 418.04C435.196 418.04 434.956 418.016 434.716 417.968V416.048C434.956 416.096 435.196 416.12 435.436 416.12C435.756 416.12 436.02 416.04 436.228 415.88C436.452 415.736 436.676 415.44 436.9 414.992C437.124 414.544 437.396 413.88 437.716 413L432.316 400.28H434.668L438.796 410.6L442.54 400.28H444.796L439.996 413C439.548 414.2 439.116 415.168 438.7 415.904C438.3 416.64 437.844 417.176 437.332 417.512C436.836 417.864 436.204 418.04 435.436 418.04ZM445.757 407.264V405.296H452.957V407.264H445.757ZM460.754 413.24C459.666 413.24 458.682 413.008 457.802 412.544C456.938 412.064 456.25 411.344 455.738 410.384C455.242 409.424 454.994 408.216 454.994 406.76V406.28C454.994 404.904 455.266 403.752 455.81 402.824C456.354 401.896 457.066 401.2 457.946 400.736C458.826 400.272 459.762 400.04 460.754 400.04C461.762 400.04 462.626 400.224 463.346 400.592C464.082 400.944 464.674 401.432 465.122 402.056C465.57 402.664 465.874 403.352 466.034 404.12H463.874C463.618 403.512 463.258 403 462.794 402.584C462.346 402.168 461.666 401.96 460.754 401.96C460.13 401.96 459.546 402.112 459.002 402.416C458.458 402.704 458.01 403.168 457.658 403.808C457.322 404.432 457.154 405.256 457.154 406.28V406.76C457.154 407.848 457.322 408.728 457.658 409.4C458.01 410.072 458.458 410.56 459.002 410.864C459.546 411.168 460.13 411.32 460.754 411.32C461.538 411.32 462.194 411.128 462.722 410.744C463.266 410.36 463.65 409.832 463.874 409.16H466.034C465.842 409.992 465.498 410.72 465.002 411.344C464.506 411.952 463.898 412.424 463.178 412.76C462.458 413.08 461.65 413.24 460.754 413.24ZM474.192 413.24C473.12 413.24 472.112 413.008 471.168 412.544C470.24 412.064 469.488 411.344 468.912 410.384C468.352 409.424 468.072 408.216 468.072 406.76V406.28C468.072 404.904 468.352 403.752 468.912 402.824C469.488 401.896 470.24 401.2 471.168 400.736C472.112 400.272 473.12 400.04 474.192 400.04C475.28 400.04 476.288 400.272 477.216 400.736C478.144 401.2 478.888 401.896 479.448 402.824C480.024 403.752 480.312 404.904 480.312 406.28V406.76C480.312 408.216 480.024 409.424 479.448 410.384C478.888 411.344 478.144 412.064 477.216 412.544C476.288 413.008 475.28 413.24 474.192 413.24ZM474.192 411.32C474.848 411.32 475.472 411.176 476.064 410.888C476.672 410.584 477.168 410.096 477.552 409.424C477.952 408.752 478.152 407.864 478.152 406.76V406.28C478.152 405.256 477.952 404.432 477.552 403.808C477.168 403.168 476.672 402.704 476.064 402.416C475.472 402.112 474.848 401.96 474.192 401.96C473.552 401.96 472.928 402.112 472.32 402.416C471.712 402.704 471.208 403.168 470.808 403.808C470.424 404.432 470.232 405.256 470.232 406.28V406.76C470.232 407.864 470.424 408.752 470.808 409.424C471.208 410.096 471.712 410.584 472.32 410.888C472.928 411.176 473.552 411.32 474.192 411.32ZM483.303 413V400.28H485.271V402.68C485.543 401.896 486.007 401.264 486.663 400.784C487.335 400.288 488.095 400.04 488.943 400.04C490.047 400.04 490.895 400.28 491.487 400.76C492.079 401.224 492.487 401.824 492.711 402.56C493.127 401.776 493.655 401.16 494.295 400.712C494.951 400.264 495.735 400.04 496.647 400.04C497.959 400.04 498.983 400.44 499.719 401.24C500.455 402.024 500.823 403.264 500.823 404.96V413H498.711V405.44C498.711 404.176 498.487 403.28 498.039 402.752C497.607 402.224 496.943 401.96 496.047 401.96C495.535 401.96 495.055 402.104 494.607 402.392C494.159 402.664 493.799 403.064 493.527 403.592C493.255 404.104 493.119 404.72 493.119 405.44V413H491.007V405.44C491.007 404.176 490.783 403.28 490.335 402.752C489.887 402.224 489.223 401.96 488.343 401.96C487.831 401.96 487.351 402.104 486.903 402.392C486.455 402.664 486.095 403.064 485.823 403.592C485.551 404.104 485.415 404.72 485.415 405.44V413H483.303ZM504.537 417.8V400.28H506.505V402.68C506.937 401.832 507.537 401.184 508.305 400.736C509.089 400.272 509.993 400.04 511.017 400.04C512.617 400.04 513.897 400.568 514.857 401.624C515.817 402.664 516.297 404.216 516.297 406.28V406.76C516.297 408.2 516.073 409.4 515.625 410.36C515.193 411.32 514.577 412.04 513.777 412.52C512.993 413 512.073 413.24 511.017 413.24C509.929 413.24 509.017 413 508.281 412.52C507.561 412.04 507.017 411.44 506.649 410.72V417.8H504.537ZM510.537 411.368C511.577 411.368 512.441 410.976 513.129 410.192C513.833 409.408 514.185 408.264 514.185 406.76V406.28C514.185 404.888 513.833 403.816 513.129 403.064C512.441 402.296 511.577 401.912 510.537 401.912C509.769 401.912 509.089 402.072 508.497 402.392C507.921 402.712 507.465 403.152 507.129 403.712C506.809 404.256 506.649 404.872 506.649 405.56V407.48C506.649 408.248 506.809 408.928 507.129 409.52C507.465 410.096 507.921 410.552 508.497 410.888C509.089 411.208 509.769 411.368 510.537 411.368ZM524.583 413.24C523.511 413.24 522.503 413.008 521.559 412.544C520.631 412.064 519.879 411.344 519.303 410.384C518.743 409.424 518.463 408.216 518.463 406.76V406.28C518.463 404.904 518.743 403.752 519.303 402.824C519.879 401.896 520.631 401.2 521.559 400.736C522.503 400.272 523.511 400.04 524.583 400.04C525.671 400.04 526.679 400.272 527.607 400.736C528.535 401.2 529.279 401.896 529.839 402.824C530.415 403.752 530.703 404.904 530.703 406.28V406.76C530.703 408.216 530.415 409.424 529.839 410.384C529.279 411.344 528.535 412.064 527.607 412.544C526.679 413.008 525.671 413.24 524.583 413.24ZM524.583 411.32C525.239 411.32 525.863 411.176 526.455 410.888C527.063 410.584 527.559 410.096 527.943 409.424C528.343 408.752 528.543 407.864 528.543 406.76V406.28C528.543 405.256 528.343 404.432 527.943 403.808C527.559 403.168 527.063 402.704 526.455 402.416C525.863 402.112 525.239 401.96 524.583 401.96C523.943 401.96 523.319 402.112 522.711 402.416C522.103 402.704 521.599 403.168 521.199 403.808C520.815 404.432 520.623 405.256 520.623 406.28V406.76C520.623 407.864 520.815 408.752 521.199 409.424C521.599 410.096 522.103 410.584 522.711 410.888C523.319 411.176 523.943 411.32 524.583 411.32ZM533.693 413V400.28H535.661V402.68C535.949 401.976 536.453 401.36 537.173 400.832C537.909 400.304 538.853 400.04 540.005 400.04C541.605 400.04 542.789 400.472 543.557 401.336C544.341 402.184 544.733 403.432 544.733 405.08V413H542.621V405.56C542.621 404.376 542.373 403.48 541.877 402.872C541.381 402.264 540.549 401.96 539.381 401.96C538.549 401.96 537.869 402.136 537.341 402.488C536.813 402.84 536.421 403.288 536.165 403.832C535.925 404.376 535.805 404.952 535.805 405.56V413H533.693ZM553.739 413.24C552.667 413.24 551.659 413.008 550.715 412.544C549.787 412.08 549.035 411.368 548.459 410.408C547.899 409.448 547.619 408.232 547.619 406.76V406.28C547.619 404.872 547.891 403.712 548.435 402.8C548.979 401.872 549.699 401.184 550.595 400.736C551.491 400.272 552.459 400.04 553.499 400.04C555.371 400.04 556.819 400.552 557.843 401.576C558.867 402.6 559.379 404.048 559.379 405.92V407.264H549.731C549.731 408.256 549.931 409.048 550.331 409.64C550.747 410.232 551.259 410.664 551.867 410.936C552.491 411.192 553.115 411.32 553.739 411.32C554.699 411.32 555.435 411.16 555.947 410.84C556.475 410.52 556.851 410.08 557.075 409.52H559.139C558.883 410.736 558.251 411.664 557.243 412.304C556.251 412.928 555.083 413.24 553.739 413.24ZM553.619 401.96C552.963 401.96 552.339 402.088 551.747 402.344C551.155 402.584 550.667 402.968 550.283 403.496C549.915 404.024 549.731 404.704 549.731 405.536H557.387C557.371 404.656 557.187 403.96 556.835 403.448C556.499 402.92 556.051 402.544 555.491 402.32C554.931 402.08 554.307 401.96 553.619 401.96ZM562.381 413V400.28H564.349V402.68C564.637 401.976 565.141 401.36 565.861 400.832C566.597 400.304 567.541 400.04 568.693 400.04C570.293 400.04 571.477 400.472 572.245 401.336C573.029 402.184 573.421 403.432 573.421 405.08V413H571.309V405.56C571.309 404.376 571.061 403.48 570.565 402.872C570.069 402.264 569.237 401.96 568.069 401.96C567.237 401.96 566.557 402.136 566.029 402.488C565.501 402.84 565.109 403.288 564.853 403.832C564.613 404.376 564.493 404.952 564.493 405.56V413H562.381ZM581.592 413.12C580.696 413.12 579.96 412.984 579.384 412.712C578.824 412.44 578.408 412.032 578.136 411.488C577.88 410.928 577.752 410.232 577.752 409.4V402.152H575.832V400.28H577.752V397.4H579.864V400.28H583.272V402.152H579.864V409.16C579.864 409.88 580.016 410.4 580.32 410.72C580.624 411.04 581.208 411.2 582.072 411.2C582.552 411.2 583.032 411.176 583.512 411.128V413C583.208 413.032 582.904 413.056 582.6 413.072C582.296 413.104 581.96 413.12 581.592 413.12Z" fill="#0C0824"/>
<path d="M301.667 231.968C301.667 231.128 301.347 230.707 300.708 230.707C299.901 230.707 299.061 231.195 298.186 232.17C297.312 233.145 296.589 234.642 296.018 236.659C295.984 236.693 295.95 236.743 295.917 236.81C295.883 236.878 295.866 236.928 295.866 236.962C295.866 236.995 295.833 237.029 295.765 237.063C295.698 237.096 295.648 237.113 295.614 237.113C295.58 237.113 295.513 237.113 295.412 237.113C295.311 237.113 295.177 237.113 295.009 237.113H294.303C294.101 236.911 294 236.76 294 236.659C294 236.424 294.135 235.936 294.404 235.196C294.673 234.457 295.076 233.582 295.614 232.574C296.152 231.565 296.892 230.707 297.833 230.001C298.775 229.295 299.834 228.925 301.011 228.892C302.423 228.892 303.516 229.295 304.289 230.102C305.063 230.909 305.466 231.851 305.5 232.927C305.5 233.498 305.449 233.935 305.348 234.238C305.348 234.44 305.096 235.18 304.592 236.457C304.088 237.735 303.566 239.231 303.028 240.946C302.49 242.661 302.188 244.157 302.12 245.435C302.12 246.343 302.205 247.083 302.373 247.654C302.81 249.1 303.869 249.823 305.55 249.823C306.794 249.823 307.954 249.252 309.03 248.108C310.106 246.965 310.947 245.637 311.552 244.124C312.158 242.611 312.645 241.215 313.015 239.937C313.385 238.66 313.57 237.735 313.57 237.163C313.57 236.39 313.435 235.718 313.166 235.146C312.897 234.574 312.595 234.137 312.258 233.835C311.922 233.532 311.62 233.229 311.351 232.927C311.082 232.624 310.947 232.254 310.947 231.817C310.947 231.077 311.267 230.388 311.905 229.749C312.544 229.11 313.234 228.791 313.973 228.791C314.612 228.791 315.184 229.093 315.688 229.699C316.193 230.304 316.462 231.279 316.495 232.624C316.495 233.532 316.293 234.927 315.89 236.81C315.486 238.693 314.864 240.795 314.024 243.115C313.183 245.435 311.989 247.436 310.443 249.117C308.896 250.798 307.114 251.656 305.096 251.689C302.944 251.689 301.229 251.135 299.952 250.025C298.708 248.949 298.085 247.352 298.085 245.233C298.085 244.191 298.22 243.115 298.489 242.005C298.758 240.896 299.447 238.929 300.557 236.104C301.297 233.952 301.667 232.574 301.667 231.968Z" fill="#0C0824"/>
<path d="M334.239 233.633C334.239 233.196 334.475 232.859 334.945 232.624H367.074C367.579 232.893 367.831 233.229 367.831 233.633C367.831 234.003 367.595 234.322 367.125 234.591L351.085 234.642H335.046C334.508 234.473 334.239 234.137 334.239 233.633ZM334.239 243.418C334.239 242.913 334.508 242.577 335.046 242.409H367.125C367.595 242.745 367.831 243.082 367.831 243.418C367.831 243.855 367.579 244.191 367.074 244.427H334.945C334.475 244.191 334.239 243.855 334.239 243.418Z" fill="#0C0824"/>
<path d="M397.125 299V178H410.693V181.127H400.252V295.873H410.693V299H397.125Z" fill="#0C0824"/>
<path d="M420.024 196.662C420.024 195.821 419.704 195.401 419.065 195.401C418.258 195.401 417.418 195.889 416.544 196.864C415.669 197.839 414.946 199.335 414.375 201.353C414.341 201.386 414.307 201.437 414.274 201.504C414.24 201.571 414.223 201.622 414.223 201.655C414.223 201.689 414.19 201.723 414.122 201.756C414.055 201.79 414.005 201.807 413.971 201.807C413.938 201.807 413.87 201.807 413.769 201.807C413.669 201.807 413.534 201.807 413.366 201.807H412.66C412.458 201.605 412.357 201.454 412.357 201.353C412.357 201.117 412.492 200.63 412.761 199.89C413.03 199.15 413.433 198.276 413.971 197.267C414.509 196.258 415.249 195.401 416.19 194.695C417.132 193.989 418.191 193.619 419.368 193.585C420.78 193.585 421.873 193.989 422.646 194.796C423.42 195.603 423.823 196.544 423.857 197.62C423.857 198.192 423.807 198.629 423.706 198.932C423.706 199.133 423.453 199.873 422.949 201.151C422.445 202.429 421.924 203.925 421.386 205.64C420.848 207.355 420.545 208.851 420.478 210.129C420.478 211.037 420.562 211.776 420.73 212.348C421.167 213.794 422.226 214.517 423.907 214.517C425.152 214.517 426.312 213.945 427.388 212.802C428.464 211.659 429.304 210.331 429.909 208.817C430.515 207.304 431.002 205.909 431.372 204.631C431.742 203.353 431.927 202.429 431.927 201.857C431.927 201.084 431.793 200.411 431.524 199.839C431.254 199.268 430.952 198.831 430.616 198.528C430.279 198.225 429.977 197.923 429.708 197.62C429.439 197.318 429.304 196.948 429.304 196.511C429.304 195.771 429.624 195.082 430.263 194.443C430.901 193.804 431.591 193.484 432.331 193.484C432.969 193.484 433.541 193.787 434.045 194.392C434.55 194.997 434.819 195.973 434.852 197.318C434.852 198.225 434.651 199.621 434.247 201.504C433.844 203.387 433.222 205.489 432.381 207.809C431.54 210.129 430.347 212.129 428.8 213.811C427.253 215.492 425.471 216.349 423.453 216.383C421.301 216.383 419.587 215.828 418.309 214.719C417.065 213.643 416.443 212.045 416.443 209.927C416.443 208.885 416.577 207.809 416.846 206.699C417.115 205.589 417.804 203.622 418.914 200.798C419.654 198.646 420.024 197.267 420.024 196.662Z" fill="#0C0824"/>
<path d="M443.355 202.783L442.892 202.961C442.559 203.08 442.084 203.199 441.466 203.318C440.847 203.437 440.158 203.52 439.397 203.567H438.72V201.927H439.397C440.515 201.879 441.549 201.701 442.5 201.392C443.451 201.083 444.116 200.798 444.497 200.536C444.877 200.275 445.21 200.013 445.495 199.752C445.543 199.68 445.685 199.645 445.923 199.645C446.137 199.645 446.339 199.716 446.529 199.859V210.521L446.565 221.219C446.731 221.385 446.874 221.492 446.993 221.54C447.112 221.587 447.397 221.635 447.849 221.682C448.3 221.73 449.037 221.754 450.059 221.754H450.987V223.394H450.594C450.095 223.323 448.205 223.287 444.924 223.287C441.691 223.287 439.825 223.323 439.326 223.394H438.898V221.754H439.825C440.348 221.754 440.8 221.754 441.18 221.754C441.561 221.754 441.858 221.742 442.072 221.718C442.286 221.694 442.476 221.658 442.642 221.611C442.809 221.563 442.904 221.54 442.928 221.54C442.951 221.54 443.023 221.48 443.141 221.361C443.26 221.242 443.332 221.195 443.355 221.219V202.783Z" fill="#0C0824"/>
<path d="M420.024 267.275C420.024 266.434 419.704 266.014 419.065 266.014C418.258 266.014 417.418 266.501 416.544 267.476C415.669 268.452 414.946 269.948 414.375 271.965C414.341 271.999 414.307 272.049 414.274 272.117C414.24 272.184 414.223 272.234 414.223 272.268C414.223 272.302 414.19 272.335 414.122 272.369C414.055 272.403 414.005 272.419 413.971 272.419C413.938 272.419 413.87 272.419 413.769 272.419C413.669 272.419 413.534 272.419 413.366 272.419H412.66C412.458 272.218 412.357 272.066 412.357 271.965C412.357 271.73 412.492 271.242 412.761 270.503C413.03 269.763 413.433 268.889 413.971 267.88C414.509 266.871 415.249 266.014 416.19 265.308C417.132 264.602 418.191 264.232 419.368 264.198C420.78 264.198 421.873 264.602 422.646 265.409C423.42 266.216 423.823 267.157 423.857 268.233C423.857 268.805 423.807 269.242 423.706 269.544C423.706 269.746 423.453 270.486 422.949 271.764C422.445 273.041 421.924 274.538 421.386 276.253C420.848 277.968 420.545 279.464 420.478 280.742C420.478 281.649 420.562 282.389 420.73 282.961C421.167 284.407 422.226 285.13 423.907 285.13C425.152 285.13 426.312 284.558 427.388 283.415C428.464 282.272 429.304 280.943 429.909 279.43C430.515 277.917 431.002 276.522 431.372 275.244C431.742 273.966 431.927 273.041 431.927 272.47C431.927 271.696 431.793 271.024 431.524 270.452C431.254 269.881 430.952 269.444 430.616 269.141C430.279 268.838 429.977 268.536 429.708 268.233C429.439 267.93 429.304 267.561 429.304 267.123C429.304 266.384 429.624 265.694 430.263 265.055C430.901 264.417 431.591 264.097 432.331 264.097C432.969 264.097 433.541 264.4 434.045 265.005C434.55 265.61 434.819 266.585 434.852 267.93C434.852 268.838 434.651 270.234 434.247 272.117C433.844 274 433.222 276.101 432.381 278.421C431.54 280.742 430.347 282.742 428.8 284.424C427.253 286.105 425.471 286.962 423.453 286.996C421.301 286.996 419.587 286.441 418.309 285.331C417.065 284.255 416.443 282.658 416.443 280.54C416.443 279.497 416.577 278.421 416.846 277.312C417.115 276.202 417.804 274.235 418.914 271.411C419.654 269.259 420.024 267.88 420.024 267.275Z" fill="#0C0824"/>
<path d="M439.647 278.709C439.005 278.709 438.494 278.495 438.114 278.067C437.733 277.639 437.543 277.116 437.543 276.498C437.543 274.81 438.173 273.348 439.433 272.112C440.693 270.875 442.262 270.257 444.14 270.257C446.303 270.257 448.11 270.923 449.56 272.254C451.01 273.586 451.747 275.309 451.771 277.425C451.771 278.447 451.533 279.422 451.058 280.349C450.582 281.276 450.012 282.084 449.346 282.774C448.681 283.463 447.73 284.343 446.493 285.413C445.638 286.15 444.449 287.243 442.928 288.693L440.824 290.69L443.534 290.726C447.266 290.726 449.251 290.666 449.489 290.548C449.655 290.5 449.941 289.442 450.345 287.374V287.267H451.771V287.374C451.747 287.445 451.593 288.527 451.308 290.619C451.022 292.711 450.844 293.805 450.773 293.9V294.007H437.543V293.329V292.901C437.543 292.735 437.614 292.556 437.757 292.366C437.9 292.176 438.256 291.76 438.827 291.118C439.516 290.357 440.11 289.692 440.61 289.121C440.824 288.884 441.228 288.444 441.822 287.802C442.416 287.16 442.821 286.72 443.035 286.482C443.248 286.245 443.593 285.852 444.069 285.306C444.544 284.759 444.877 284.355 445.067 284.093C445.257 283.832 445.531 283.475 445.887 283.023C446.244 282.572 446.493 282.191 446.636 281.882C446.779 281.573 446.957 281.229 447.171 280.848C447.385 280.468 447.54 280.088 447.635 279.707C447.73 279.327 447.813 278.97 447.884 278.637C447.956 278.305 447.991 277.912 447.991 277.461C447.991 275.963 447.587 274.667 446.779 273.574C445.97 272.48 444.817 271.933 443.32 271.933C442.535 271.933 441.846 272.135 441.252 272.54C440.657 272.944 440.241 273.336 440.003 273.716C439.766 274.097 439.647 274.323 439.647 274.394C439.647 274.418 439.706 274.43 439.825 274.43C440.253 274.43 440.693 274.596 441.145 274.929C441.596 275.262 441.822 275.808 441.822 276.569C441.822 277.163 441.632 277.663 441.252 278.067C440.871 278.471 440.336 278.685 439.647 278.709Z" fill="#0C0824"/>
<path d="M456.672 181.127V178H470.239V299H456.672V295.873H467.112V181.127H456.672Z" fill="#0C0824"/>
</svg>
