<svg width="1200" height="600" viewBox="0 0 1200 600" fill="none" xmlns="http://www.w3.org/2000/svg">
<path d="M202.909 461.38C202.605 461.38 202.325 461.3 202.069 461.14C201.813 460.996 201.605 460.796 201.445 460.54C201.301 460.284 201.229 460.004 201.229 459.7C201.229 459.22 201.389 458.82 201.709 458.5C202.045 458.18 202.445 458.02 202.909 458.02C203.373 458.02 203.765 458.18 204.085 458.5C204.421 458.82 204.589 459.22 204.589 459.7C204.589 460.004 204.509 460.284 204.349 460.54C204.205 460.796 204.005 460.996 203.749 461.14C203.509 461.3 203.229 461.38 202.909 461.38ZM210.104 461.38C209.8 461.38 209.52 461.3 209.264 461.14C209.008 460.996 208.8 460.796 208.64 460.54C208.496 460.284 208.424 460.004 208.424 459.7C208.424 459.22 208.584 458.82 208.904 458.5C209.24 458.18 209.64 458.02 210.104 458.02C210.568 458.02 210.96 458.18 211.28 458.5C211.616 458.82 211.784 459.22 211.784 459.7C211.784 460.004 211.704 460.284 211.544 460.54C211.4 460.796 211.2 460.996 210.944 461.14C210.704 461.3 210.424 461.38 210.104 461.38ZM217.299 461.38C216.995 461.38 216.715 461.3 216.459 461.14C216.203 460.996 215.995 460.796 215.835 460.54C215.691 460.284 215.619 460.004 215.619 459.7C215.619 459.22 215.779 458.82 216.099 458.5C216.435 458.18 216.835 458.02 217.299 458.02C217.763 458.02 218.155 458.18 218.475 458.5C218.811 458.82 218.979 459.22 218.979 459.7C218.979 460.004 218.899 460.284 218.739 460.54C218.595 460.796 218.395 460.996 218.139 461.14C217.899 461.3 217.619 461.38 217.299 461.38ZM229.295 461.38C228.207 461.38 227.263 461.14 226.463 460.66C225.663 460.164 225.103 459.524 224.783 458.74V461.14H222.815V444.34H224.927V450.7C225.295 449.916 225.855 449.3 226.607 448.852C227.375 448.404 228.271 448.18 229.295 448.18C230.879 448.18 232.151 448.708 233.111 449.764C234.087 450.804 234.575 452.356 234.575 454.42V454.9C234.575 456.34 234.351 457.54 233.903 458.5C233.471 459.46 232.855 460.18 232.055 460.66C231.271 461.14 230.351 461.38 229.295 461.38ZM228.815 459.508C229.855 459.508 230.719 459.116 231.407 458.332C232.111 457.548 232.463 456.404 232.463 454.9V454.42C232.463 453.028 232.111 451.956 231.407 451.204C230.719 450.436 229.855 450.052 228.815 450.052C228.047 450.052 227.367 450.212 226.775 450.532C226.199 450.852 225.743 451.292 225.407 451.852C225.087 452.396 224.927 453.012 224.927 453.7V455.62C224.927 456.388 225.087 457.068 225.407 457.66C225.743 458.236 226.199 458.692 226.775 459.028C227.367 459.348 228.047 459.508 228.815 459.508ZM242.068 461.38C240.532 461.38 239.38 460.94 238.612 460.06C237.844 459.18 237.46 457.82 237.46 455.98V448.42H239.572V455.86C239.572 457.044 239.812 457.94 240.292 458.548C240.788 459.156 241.588 459.46 242.692 459.46C243.492 459.46 244.148 459.284 244.66 458.932C245.172 458.58 245.548 458.132 245.788 457.588C246.028 457.028 246.148 456.452 246.148 455.86V448.42H248.26V461.14H246.292V458.74C246.004 459.444 245.5 460.06 244.78 460.588C244.06 461.116 243.156 461.38 242.068 461.38ZM256.791 461.26C255.895 461.26 255.159 461.124 254.583 460.852C254.023 460.58 253.607 460.172 253.335 459.628C253.079 459.068 252.951 458.372 252.951 457.54V450.292H251.031V448.42H252.951V445.54H255.063V448.42H258.471V450.292H255.063V457.3C255.063 458.02 255.215 458.54 255.519 458.86C255.823 459.18 256.407 459.34 257.271 459.34C257.751 459.34 258.231 459.316 258.711 459.268V461.14C258.407 461.172 258.103 461.196 257.799 461.212C257.495 461.244 257.159 461.26 256.791 461.26ZM270.001 461.14L266.521 448.42H268.825L271.273 458.26L274.585 448.42H276.457L279.889 458.26L282.313 448.42H284.521L281.041 461.14H278.929L275.473 451.3L272.113 461.14H270.001ZM292.196 461.38C291.124 461.38 290.116 461.148 289.172 460.684C288.244 460.22 287.492 459.508 286.916 458.548C286.356 457.588 286.076 456.372 286.076 454.9V454.42C286.076 453.012 286.348 451.852 286.892 450.94C287.436 450.012 288.156 449.324 289.052 448.876C289.948 448.412 290.916 448.18 291.956 448.18C293.828 448.18 295.276 448.692 296.3 449.716C297.324 450.74 297.836 452.188 297.836 454.06V455.404H288.188C288.188 456.396 288.388 457.188 288.788 457.78C289.204 458.372 289.716 458.804 290.324 459.076C290.948 459.332 291.572 459.46 292.196 459.46C293.156 459.46 293.892 459.3 294.404 458.98C294.932 458.66 295.308 458.22 295.532 457.66H297.596C297.34 458.876 296.708 459.804 295.7 460.444C294.708 461.068 293.54 461.38 292.196 461.38ZM292.076 450.1C291.42 450.1 290.796 450.228 290.204 450.484C289.612 450.724 289.124 451.108 288.74 451.636C288.372 452.164 288.188 452.844 288.188 453.676H295.844C295.828 452.796 295.644 452.1 295.292 451.588C294.956 451.06 294.508 450.684 293.948 450.46C293.388 450.22 292.764 450.1 292.076 450.1ZM311.758 461.38C310.67 461.38 309.686 461.148 308.806 460.684C307.942 460.204 307.254 459.484 306.742 458.524C306.246 457.564 305.998 456.356 305.998 454.9V454.42C305.998 453.044 306.27 451.892 306.814 450.964C307.358 450.036 308.07 449.34 308.95 448.876C309.83 448.412 310.766 448.18 311.758 448.18C312.766 448.18 313.63 448.364 314.35 448.732C315.086 449.084 315.678 449.572 316.126 450.196C316.574 450.804 316.878 451.492 317.038 452.26H314.878C314.622 451.652 314.262 451.14 313.798 450.724C313.35 450.308 312.67 450.1 311.758 450.1C311.134 450.1 310.55 450.252 310.006 450.556C309.462 450.844 309.014 451.308 308.662 451.948C308.326 452.572 308.158 453.396 308.158 454.42V454.9C308.158 455.988 308.326 456.868 308.662 457.54C309.014 458.212 309.462 458.7 310.006 459.004C310.55 459.308 311.134 459.46 311.758 459.46C312.542 459.46 313.198 459.268 313.726 458.884C314.27 458.5 314.654 457.972 314.878 457.3H317.038C316.846 458.132 316.502 458.86 316.006 459.484C315.51 460.092 314.902 460.564 314.182 460.9C313.462 461.22 312.654 461.38 311.758 461.38ZM323.54 461.38C322.612 461.38 321.82 461.212 321.164 460.876C320.524 460.524 320.036 460.052 319.7 459.46C319.364 458.852 319.196 458.172 319.196 457.42C319.196 456.156 319.564 455.244 320.3 454.684C321.052 454.124 322.124 453.844 323.516 453.844H327.644V452.98C327.644 451.892 327.396 451.14 326.9 450.724C326.42 450.308 325.692 450.1 324.716 450.1C323.804 450.1 323.14 450.276 322.724 450.628C322.308 450.964 322.076 451.348 322.028 451.78H319.916C319.964 451.092 320.196 450.484 320.612 449.956C321.028 449.412 321.596 448.98 322.316 448.66C323.036 448.34 323.876 448.18 324.836 448.18C325.844 448.18 326.716 448.34 327.452 448.66C328.188 448.964 328.756 449.452 329.156 450.124C329.556 450.78 329.756 451.652 329.756 452.74V457.9C329.756 458.572 329.756 459.164 329.756 459.676C329.772 460.172 329.812 460.66 329.876 461.14H328.028C327.98 460.772 327.948 460.428 327.932 460.108C327.916 459.772 327.908 459.396 327.908 458.98C327.572 459.652 327.028 460.22 326.276 460.684C325.524 461.148 324.612 461.38 323.54 461.38ZM323.996 459.46C324.668 459.46 325.276 459.34 325.82 459.1C326.38 458.86 326.82 458.508 327.14 458.044C327.476 457.58 327.644 457.012 327.644 456.34V455.476H323.876C323.092 455.476 322.476 455.636 322.028 455.956C321.58 456.26 321.356 456.748 321.356 457.42C321.356 458.012 321.564 458.5 321.98 458.884C322.412 459.268 323.084 459.46 323.996 459.46ZM333.486 461.14V448.42H335.454V450.82C335.742 450.116 336.246 449.5 336.966 448.972C337.702 448.444 338.646 448.18 339.798 448.18C341.398 448.18 342.582 448.612 343.35 449.476C344.134 450.324 344.526 451.572 344.526 453.22V461.14H342.414V453.7C342.414 452.516 342.166 451.62 341.67 451.012C341.174 450.404 340.342 450.1 339.174 450.1C338.342 450.1 337.662 450.276 337.134 450.628C336.606 450.98 336.214 451.428 335.958 451.972C335.718 452.516 335.598 453.092 335.598 453.7V461.14H333.486ZM357.876 461.38C356.948 461.38 356.156 461.212 355.5 460.876C354.86 460.524 354.372 460.052 354.036 459.46C353.7 458.852 353.532 458.172 353.532 457.42C353.532 456.156 353.9 455.244 354.636 454.684C355.388 454.124 356.46 453.844 357.852 453.844H361.98V452.98C361.98 451.892 361.732 451.14 361.236 450.724C360.756 450.308 360.028 450.1 359.052 450.1C358.14 450.1 357.476 450.276 357.06 450.628C356.644 450.964 356.412 451.348 356.364 451.78H354.252C354.3 451.092 354.532 450.484 354.948 449.956C355.364 449.412 355.932 448.98 356.652 448.66C357.372 448.34 358.212 448.18 359.172 448.18C360.18 448.18 361.052 448.34 361.788 448.66C362.524 448.964 363.092 449.452 363.492 450.124C363.892 450.78 364.092 451.652 364.092 452.74V457.9C364.092 458.572 364.092 459.164 364.092 459.676C364.108 460.172 364.148 460.66 364.212 461.14H362.364C362.316 460.772 362.284 460.428 362.268 460.108C362.252 459.772 362.244 459.396 362.244 458.98C361.908 459.652 361.364 460.22 360.612 460.684C359.86 461.148 358.948 461.38 357.876 461.38ZM358.332 459.46C359.004 459.46 359.612 459.34 360.156 459.1C360.716 458.86 361.156 458.508 361.476 458.044C361.812 457.58 361.98 457.012 361.98 456.34V455.476H358.212C357.428 455.476 356.812 455.636 356.364 455.956C355.916 456.26 355.692 456.748 355.692 457.42C355.692 458.012 355.9 458.5 356.316 458.884C356.748 459.268 357.42 459.46 358.332 459.46ZM371.662 461.26C370.782 461.26 370.062 461.124 369.502 460.852C368.958 460.564 368.558 460.124 368.302 459.532C368.062 458.924 367.942 458.14 367.942 457.18V444.34H370.054V457.18C370.054 458.012 370.19 458.58 370.462 458.884C370.734 459.188 371.214 459.34 371.902 459.34C372.078 459.34 372.23 459.34 372.358 459.34C372.486 459.324 372.614 459.308 372.742 459.292V461.164C372.662 461.18 372.55 461.196 372.406 461.212C372.278 461.228 372.142 461.236 371.998 461.236C371.87 461.252 371.758 461.26 371.662 461.26ZM379.95 461.38C379.102 461.38 378.366 461.284 377.742 461.092C377.118 460.884 376.598 460.612 376.182 460.276C375.766 459.94 375.43 459.548 375.174 459.1C374.934 458.636 374.766 458.156 374.67 457.66H376.782C376.894 458.172 377.19 458.62 377.67 459.004C378.166 459.372 378.926 459.556 379.95 459.556C381.134 459.556 381.958 459.372 382.422 459.004C382.886 458.62 383.118 458.172 383.118 457.66C383.118 457.308 383.014 457.004 382.806 456.748C382.614 456.476 382.262 456.244 381.75 456.052C381.254 455.86 380.542 455.7 379.614 455.572C378.91 455.476 378.278 455.34 377.718 455.164C377.158 454.972 376.678 454.724 376.278 454.42C375.878 454.116 375.566 453.748 375.342 453.316C375.134 452.884 375.03 452.372 375.03 451.78C375.03 451.14 375.214 450.548 375.582 450.004C375.95 449.46 376.502 449.02 377.238 448.684C377.974 448.348 378.878 448.18 379.95 448.18C380.958 448.18 381.79 448.356 382.446 448.708C383.118 449.044 383.638 449.492 384.006 450.052C384.374 450.612 384.622 451.228 384.75 451.9H382.638C382.51 451.34 382.238 450.884 381.822 450.532C381.406 450.18 380.782 450.004 379.95 450.004C378.91 450.004 378.182 450.18 377.766 450.532C377.35 450.868 377.142 451.284 377.142 451.78C377.142 452.356 377.366 452.788 377.814 453.076C378.278 453.364 379.118 453.588 380.334 453.748C381.118 453.844 381.814 453.988 382.422 454.18C383.03 454.356 383.542 454.604 383.958 454.924C384.374 455.228 384.686 455.604 384.894 456.052C385.118 456.5 385.23 457.036 385.23 457.66C385.23 458.332 385.038 458.948 384.654 459.508C384.27 460.068 383.686 460.524 382.902 460.876C382.134 461.212 381.15 461.38 379.95 461.38ZM393.516 461.38C392.444 461.38 391.436 461.148 390.492 460.684C389.564 460.204 388.812 459.484 388.236 458.524C387.676 457.564 387.396 456.356 387.396 454.9V454.42C387.396 453.044 387.676 451.892 388.236 450.964C388.812 450.036 389.564 449.34 390.492 448.876C391.436 448.412 392.444 448.18 393.516 448.18C394.604 448.18 395.612 448.412 396.54 448.876C397.468 449.34 398.212 450.036 398.772 450.964C399.348 451.892 399.636 453.044 399.636 454.42V454.9C399.636 456.356 399.348 457.564 398.772 458.524C398.212 459.484 397.468 460.204 396.54 460.684C395.612 461.148 394.604 461.38 393.516 461.38ZM393.516 459.46C394.172 459.46 394.796 459.316 395.388 459.028C395.996 458.724 396.492 458.236 396.876 457.564C397.276 456.892 397.476 456.004 397.476 454.9V454.42C397.476 453.396 397.276 452.572 396.876 451.948C396.492 451.308 395.996 450.844 395.388 450.556C394.796 450.252 394.172 450.1 393.516 450.1C392.876 450.1 392.252 450.252 391.644 450.556C391.036 450.844 390.532 451.308 390.132 451.948C389.748 452.572 389.556 453.396 389.556 454.42V454.9C389.556 456.004 389.748 456.892 390.132 457.564C390.532 458.236 391.036 458.724 391.644 459.028C392.252 459.316 392.876 459.46 393.516 459.46ZM413.667 466.18C412.435 466.18 411.435 466.02 410.667 465.7C409.899 465.38 409.331 464.948 408.963 464.404C408.595 463.86 408.363 463.252 408.267 462.58H410.475C410.635 463.092 410.939 463.5 411.387 463.804C411.835 464.108 412.595 464.26 413.667 464.26C414.963 464.26 415.915 463.948 416.523 463.324C417.131 462.7 417.435 461.812 417.435 460.66V458.62C417.067 459.468 416.499 460.1 415.731 460.516C414.979 460.932 414.091 461.14 413.067 461.14C412.027 461.14 411.107 460.9 410.307 460.42C409.507 459.94 408.883 459.228 408.435 458.284C408.003 457.34 407.787 456.172 407.787 454.78V454.3C407.787 452.988 408.011 451.884 408.459 450.988C408.923 450.076 409.547 449.38 410.331 448.9C411.131 448.42 412.043 448.18 413.067 448.18C414.155 448.18 415.099 448.428 415.899 448.924C416.699 449.404 417.259 450.036 417.579 450.82V448.42H419.547V460.66C419.547 462.388 419.043 463.74 418.035 464.716C417.027 465.692 415.571 466.18 413.667 466.18ZM413.547 459.268C414.315 459.268 414.987 459.108 415.563 458.788C416.155 458.468 416.611 458.028 416.931 457.468C417.267 456.892 417.435 456.236 417.435 455.5V453.58C417.435 452.924 417.267 452.332 416.931 451.804C416.611 451.276 416.155 450.852 415.563 450.532C414.987 450.212 414.315 450.052 413.547 450.052C412.523 450.052 411.659 450.428 410.955 451.18C410.251 451.932 409.899 452.972 409.899 454.3V454.78C409.899 456.236 410.251 457.348 410.955 458.116C411.659 458.884 412.523 459.268 413.547 459.268ZM428.673 461.38C427.601 461.38 426.593 461.148 425.649 460.684C424.721 460.204 423.969 459.484 423.393 458.524C422.833 457.564 422.553 456.356 422.553 454.9V454.42C422.553 453.044 422.833 451.892 423.393 450.964C423.969 450.036 424.721 449.34 425.649 448.876C426.593 448.412 427.601 448.18 428.673 448.18C429.761 448.18 430.769 448.412 431.697 448.876C432.625 449.34 433.369 450.036 433.929 450.964C434.505 451.892 434.793 453.044 434.793 454.42V454.9C434.793 456.356 434.505 457.564 433.929 458.524C433.369 459.484 432.625 460.204 431.697 460.684C430.769 461.148 429.761 461.38 428.673 461.38ZM428.673 459.46C429.329 459.46 429.953 459.316 430.545 459.028C431.153 458.724 431.649 458.236 432.033 457.564C432.433 456.892 432.633 456.004 432.633 454.9V454.42C432.633 453.396 432.433 452.572 432.033 451.948C431.649 451.308 431.153 450.844 430.545 450.556C429.953 450.252 429.329 450.1 428.673 450.1C428.033 450.1 427.409 450.252 426.801 450.556C426.193 450.844 425.689 451.308 425.289 451.948C424.905 452.572 424.713 453.396 424.713 454.42V454.9C424.713 456.004 424.905 456.892 425.289 457.564C425.689 458.236 426.193 458.724 426.801 459.028C427.409 459.316 428.033 459.46 428.673 459.46ZM448.463 461.26C447.567 461.26 446.831 461.124 446.255 460.852C445.695 460.58 445.279 460.172 445.007 459.628C444.751 459.068 444.623 458.372 444.623 457.54V450.292H442.703V448.42H444.623V445.54H446.735V448.42H450.143V450.292H446.735V457.3C446.735 458.02 446.887 458.54 447.191 458.86C447.495 459.18 448.079 459.34 448.943 459.34C449.423 459.34 449.903 459.316 450.383 459.268V461.14C450.079 461.172 449.775 461.196 449.471 461.212C449.167 461.244 448.831 461.26 448.463 461.26ZM458.673 461.38C457.601 461.38 456.593 461.148 455.649 460.684C454.721 460.204 453.969 459.484 453.393 458.524C452.833 457.564 452.553 456.356 452.553 454.9V454.42C452.553 453.044 452.833 451.892 453.393 450.964C453.969 450.036 454.721 449.34 455.649 448.876C456.593 448.412 457.601 448.18 458.673 448.18C459.761 448.18 460.769 448.412 461.697 448.876C462.625 449.34 463.369 450.036 463.929 450.964C464.505 451.892 464.793 453.044 464.793 454.42V454.9C464.793 456.356 464.505 457.564 463.929 458.524C463.369 459.484 462.625 460.204 461.697 460.684C460.769 461.148 459.761 461.38 458.673 461.38ZM458.673 459.46C459.329 459.46 459.953 459.316 460.545 459.028C461.153 458.724 461.649 458.236 462.033 457.564C462.433 456.892 462.633 456.004 462.633 454.9V454.42C462.633 453.396 462.433 452.572 462.033 451.948C461.649 451.308 461.153 450.844 460.545 450.556C459.953 450.252 459.329 450.1 458.673 450.1C458.033 450.1 457.409 450.252 456.801 450.556C456.193 450.844 455.689 451.308 455.289 451.948C454.905 452.572 454.713 453.396 454.713 454.42V454.9C454.713 456.004 454.905 456.892 455.289 457.564C455.689 458.236 456.193 458.724 456.801 459.028C457.409 459.316 458.033 459.46 458.673 459.46ZM477.407 461.38C476.479 461.38 475.687 461.212 475.031 460.876C474.391 460.524 473.903 460.052 473.567 459.46C473.231 458.852 473.063 458.172 473.063 457.42C473.063 456.156 473.431 455.244 474.167 454.684C474.919 454.124 475.991 453.844 477.383 453.844H481.511V452.98C481.511 451.892 481.263 451.14 480.767 450.724C480.287 450.308 479.559 450.1 478.583 450.1C477.671 450.1 477.007 450.276 476.591 450.628C476.175 450.964 475.943 451.348 475.895 451.78H473.783C473.831 451.092 474.063 450.484 474.479 449.956C474.895 449.412 475.463 448.98 476.183 448.66C476.903 448.34 477.743 448.18 478.703 448.18C479.711 448.18 480.583 448.34 481.319 448.66C482.055 448.964 482.623 449.452 483.023 450.124C483.423 450.78 483.623 451.652 483.623 452.74V457.9C483.623 458.572 483.623 459.164 483.623 459.676C483.639 460.172 483.679 460.66 483.743 461.14H481.895C481.847 460.772 481.815 460.428 481.799 460.108C481.783 459.772 481.775 459.396 481.775 458.98C481.439 459.652 480.895 460.22 480.143 460.684C479.391 461.148 478.479 461.38 477.407 461.38ZM477.863 459.46C478.535 459.46 479.143 459.34 479.687 459.1C480.247 458.86 480.687 458.508 481.007 458.044C481.343 457.58 481.511 457.012 481.511 456.34V455.476H477.743C476.959 455.476 476.343 455.636 475.895 455.956C475.447 456.26 475.223 456.748 475.223 457.42C475.223 458.012 475.431 458.5 475.847 458.884C476.279 459.268 476.951 459.46 477.863 459.46ZM491.794 461.38C490.946 461.38 490.21 461.284 489.586 461.092C488.962 460.884 488.442 460.612 488.026 460.276C487.61 459.94 487.274 459.548 487.018 459.1C486.778 458.636 486.61 458.156 486.514 457.66H488.626C488.738 458.172 489.034 458.62 489.514 459.004C490.01 459.372 490.77 459.556 491.794 459.556C492.978 459.556 493.802 459.372 494.266 459.004C494.73 458.62 494.962 458.172 494.962 457.66C494.962 457.308 494.858 457.004 494.65 456.748C494.458 456.476 494.106 456.244 493.594 456.052C493.098 455.86 492.386 455.7 491.458 455.572C490.754 455.476 490.122 455.34 489.562 455.164C489.002 454.972 488.522 454.724 488.122 454.42C487.722 454.116 487.41 453.748 487.186 453.316C486.978 452.884 486.874 452.372 486.874 451.78C486.874 451.14 487.058 450.548 487.426 450.004C487.794 449.46 488.346 449.02 489.082 448.684C489.818 448.348 490.722 448.18 491.794 448.18C492.802 448.18 493.634 448.356 494.29 448.708C494.962 449.044 495.482 449.492 495.85 450.052C496.218 450.612 496.466 451.228 496.594 451.9H494.482C494.354 451.34 494.082 450.884 493.666 450.532C493.25 450.18 492.626 450.004 491.794 450.004C490.754 450.004 490.026 450.18 489.61 450.532C489.194 450.868 488.986 451.284 488.986 451.78C488.986 452.356 489.21 452.788 489.658 453.076C490.122 453.364 490.962 453.588 492.178 453.748C492.962 453.844 493.658 453.988 494.266 454.18C494.874 454.356 495.386 454.604 495.802 454.924C496.218 455.228 496.53 455.604 496.738 456.052C496.962 456.5 497.074 457.036 497.074 457.66C497.074 458.332 496.882 458.948 496.498 459.508C496.114 460.068 495.53 460.524 494.746 460.876C493.978 461.212 492.994 461.38 491.794 461.38ZM506.08 461.14V448.42H508.048V450.82C508.32 450.036 508.784 449.404 509.44 448.924C510.112 448.428 510.872 448.18 511.72 448.18C512.824 448.18 513.672 448.42 514.264 448.9C514.856 449.364 515.264 449.964 515.488 450.7C515.904 449.916 516.432 449.3 517.072 448.852C517.728 448.404 518.512 448.18 519.424 448.18C520.736 448.18 521.76 448.58 522.496 449.38C523.232 450.164 523.6 451.404 523.6 453.1V461.14H521.488V453.58C521.488 452.316 521.264 451.42 520.816 450.892C520.384 450.364 519.72 450.1 518.824 450.1C518.312 450.1 517.832 450.244 517.384 450.532C516.936 450.804 516.576 451.204 516.304 451.732C516.032 452.244 515.896 452.86 515.896 453.58V461.14H513.784V453.58C513.784 452.316 513.56 451.42 513.112 450.892C512.664 450.364 512 450.1 511.12 450.1C510.608 450.1 510.128 450.244 509.68 450.532C509.232 450.804 508.872 451.204 508.6 451.732C508.328 452.244 508.192 452.86 508.192 453.58V461.14H506.08ZM530.939 461.38C530.011 461.38 529.219 461.212 528.563 460.876C527.923 460.524 527.435 460.052 527.099 459.46C526.763 458.852 526.595 458.172 526.595 457.42C526.595 456.156 526.963 455.244 527.699 454.684C528.451 454.124 529.523 453.844 530.915 453.844H535.043V452.98C535.043 451.892 534.795 451.14 534.299 450.724C533.819 450.308 533.091 450.1 532.115 450.1C531.203 450.1 530.539 450.276 530.123 450.628C529.707 450.964 529.475 451.348 529.427 451.78H527.315C527.363 451.092 527.595 450.484 528.011 449.956C528.427 449.412 528.995 448.98 529.715 448.66C530.435 448.34 531.275 448.18 532.235 448.18C533.243 448.18 534.115 448.34 534.851 448.66C535.587 448.964 536.155 449.452 536.555 450.124C536.955 450.78 537.155 451.652 537.155 452.74V457.9C537.155 458.572 537.155 459.164 537.155 459.676C537.171 460.172 537.211 460.66 537.275 461.14H535.427C535.379 460.772 535.347 460.428 535.331 460.108C535.315 459.772 535.307 459.396 535.307 458.98C534.971 459.652 534.427 460.22 533.675 460.684C532.923 461.148 532.011 461.38 530.939 461.38ZM531.395 459.46C532.067 459.46 532.675 459.34 533.219 459.1C533.779 458.86 534.219 458.508 534.539 458.044C534.875 457.58 535.043 457.012 535.043 456.34V455.476H531.275C530.491 455.476 529.875 455.636 529.427 455.956C528.979 456.26 528.755 456.748 528.755 457.42C528.755 458.012 528.963 458.5 529.379 458.884C529.811 459.268 530.483 459.46 531.395 459.46ZM540.885 461.14V448.42H542.853V450.82C543.141 450.116 543.645 449.5 544.365 448.972C545.101 448.444 546.045 448.18 547.197 448.18C548.797 448.18 549.981 448.612 550.749 449.476C551.533 450.324 551.925 451.572 551.925 453.22V461.14H549.813V453.7C549.813 452.516 549.565 451.62 549.069 451.012C548.573 450.404 547.741 450.1 546.573 450.1C545.741 450.1 545.061 450.276 544.533 450.628C544.005 450.98 543.613 451.428 543.357 451.972C543.117 452.516 542.997 453.092 542.997 453.7V461.14H540.885ZM556.862 466.18C556.622 466.18 556.382 466.156 556.142 466.108V464.188C556.382 464.236 556.622 464.26 556.862 464.26C557.182 464.26 557.446 464.18 557.654 464.02C557.878 463.876 558.102 463.58 558.326 463.132C558.55 462.684 558.822 462.02 559.142 461.14L553.742 448.42H556.094L560.222 458.74L563.966 448.42H566.222L561.422 461.14C560.974 462.34 560.542 463.308 560.126 464.044C559.726 464.78 559.27 465.316 558.758 465.652C558.262 466.004 557.63 466.18 556.862 466.18ZM201.719 499.38C200.679 499.38 199.759 499.14 198.959 498.66C198.159 498.18 197.535 497.46 197.087 496.5C196.655 495.54 196.439 494.34 196.439 492.9V492.42C196.439 491.076 196.663 489.94 197.111 489.012C197.575 488.084 198.199 487.38 198.983 486.9C199.783 486.42 200.695 486.18 201.719 486.18C202.743 486.18 203.631 486.404 204.383 486.852C205.151 487.3 205.719 487.916 206.087 488.7V482.34H208.199V499.14H206.231V496.74C205.911 497.524 205.351 498.164 204.551 498.66C203.751 499.14 202.807 499.38 201.719 499.38ZM202.199 497.508C202.967 497.508 203.639 497.348 204.215 497.028C204.807 496.692 205.263 496.236 205.583 495.66C205.919 495.068 206.087 494.388 206.087 493.62V491.7C206.087 491.012 205.919 490.396 205.583 489.852C205.263 489.292 204.807 488.852 204.215 488.532C203.639 488.212 202.967 488.052 202.199 488.052C201.175 488.052 200.311 488.436 199.607 489.204C198.903 489.956 198.551 491.028 198.551 492.42V492.9C198.551 494.404 198.903 495.548 199.607 496.332C200.311 497.116 201.175 497.508 202.199 497.508ZM212.285 499.14V486.42H214.397V499.14H212.285ZM213.341 484.74C212.925 484.74 212.581 484.604 212.309 484.332C212.037 484.06 211.901 483.716 211.901 483.3C211.901 482.884 212.037 482.54 212.309 482.268C212.581 481.996 212.925 481.86 213.341 481.86C213.757 481.86 214.101 481.996 214.373 482.268C214.645 482.54 214.781 482.884 214.781 483.3C214.781 483.716 214.645 484.06 214.373 484.332C214.101 484.604 213.757 484.74 213.341 484.74ZM218.467 499.14V486.42H220.435V488.82C220.707 488.036 221.171 487.404 221.827 486.924C222.499 486.428 223.259 486.18 224.107 486.18C225.211 486.18 226.059 486.42 226.651 486.9C227.243 487.364 227.651 487.964 227.875 488.7C228.291 487.916 228.819 487.3 229.459 486.852C230.115 486.404 230.899 486.18 231.811 486.18C233.123 486.18 234.147 486.58 234.883 487.38C235.619 488.164 235.987 489.404 235.987 491.1V499.14H233.875V491.58C233.875 490.316 233.651 489.42 233.203 488.892C232.771 488.364 232.107 488.1 231.211 488.1C230.699 488.1 230.219 488.244 229.771 488.532C229.323 488.804 228.963 489.204 228.691 489.732C228.419 490.244 228.283 490.86 228.283 491.58V499.14H226.171V491.58C226.171 490.316 225.947 489.42 225.499 488.892C225.051 488.364 224.387 488.1 223.507 488.1C222.995 488.1 222.515 488.244 222.067 488.532C221.619 488.804 221.259 489.204 220.987 489.732C220.715 490.244 220.579 490.86 220.579 491.58V499.14H218.467ZM244.981 499.38C243.909 499.38 242.901 499.148 241.957 498.684C241.029 498.22 240.277 497.508 239.701 496.548C239.141 495.588 238.861 494.372 238.861 492.9V492.42C238.861 491.012 239.133 489.852 239.677 488.94C240.221 488.012 240.941 487.324 241.837 486.876C242.733 486.412 243.701 486.18 244.741 486.18C246.613 486.18 248.061 486.692 249.085 487.716C250.109 488.74 250.621 490.188 250.621 492.06V493.404H240.973C240.973 494.396 241.173 495.188 241.573 495.78C241.989 496.372 242.501 496.804 243.109 497.076C243.733 497.332 244.357 497.46 244.981 497.46C245.941 497.46 246.677 497.3 247.189 496.98C247.717 496.66 248.093 496.22 248.317 495.66H250.381C250.125 496.876 249.493 497.804 248.485 498.444C247.493 499.068 246.325 499.38 244.981 499.38ZM244.861 488.1C244.205 488.1 243.581 488.228 242.989 488.484C242.397 488.724 241.909 489.108 241.525 489.636C241.157 490.164 240.973 490.844 240.973 491.676H248.629C248.613 490.796 248.429 490.1 248.077 489.588C247.741 489.06 247.293 488.684 246.733 488.46C246.173 488.22 245.549 488.1 244.861 488.1ZM253.623 499.14V486.42H255.591V488.82C255.879 488.116 256.383 487.5 257.103 486.972C257.839 486.444 258.783 486.18 259.935 486.18C261.535 486.18 262.719 486.612 263.487 487.476C264.271 488.324 264.663 489.572 264.663 491.22V499.14H262.551V491.7C262.551 490.516 262.303 489.62 261.807 489.012C261.311 488.404 260.479 488.1 259.311 488.1C258.479 488.1 257.799 488.276 257.271 488.628C256.743 488.98 256.351 489.428 256.095 489.972C255.855 490.516 255.735 491.092 255.735 491.7V499.14H253.623ZM272.829 499.38C271.981 499.38 271.245 499.284 270.621 499.092C269.997 498.884 269.477 498.612 269.061 498.276C268.645 497.94 268.309 497.548 268.053 497.1C267.813 496.636 267.645 496.156 267.549 495.66H269.661C269.773 496.172 270.069 496.62 270.549 497.004C271.045 497.372 271.805 497.556 272.829 497.556C274.013 497.556 274.837 497.372 275.301 497.004C275.765 496.62 275.997 496.172 275.997 495.66C275.997 495.308 275.893 495.004 275.685 494.748C275.493 494.476 275.141 494.244 274.629 494.052C274.133 493.86 273.421 493.7 272.493 493.572C271.789 493.476 271.157 493.34 270.597 493.164C270.037 492.972 269.557 492.724 269.157 492.42C268.757 492.116 268.445 491.748 268.221 491.316C268.013 490.884 267.909 490.372 267.909 489.78C267.909 489.14 268.093 488.548 268.461 488.004C268.829 487.46 269.381 487.02 270.117 486.684C270.853 486.348 271.757 486.18 272.829 486.18C273.837 486.18 274.669 486.356 275.325 486.708C275.997 487.044 276.517 487.492 276.885 488.052C277.253 488.612 277.501 489.228 277.629 489.9H275.517C275.389 489.34 275.117 488.884 274.701 488.532C274.285 488.18 273.661 488.004 272.829 488.004C271.789 488.004 271.061 488.18 270.645 488.532C270.229 488.868 270.021 489.284 270.021 489.78C270.021 490.356 270.245 490.788 270.693 491.076C271.157 491.364 271.997 491.588 273.213 491.748C273.997 491.844 274.693 491.988 275.301 492.18C275.909 492.356 276.421 492.604 276.837 492.924C277.253 493.228 277.565 493.604 277.773 494.052C277.997 494.5 278.109 495.036 278.109 495.66C278.109 496.332 277.917 496.948 277.533 497.508C277.149 498.068 276.565 498.524 275.781 498.876C275.013 499.212 274.029 499.38 272.829 499.38ZM281.355 499.14V486.42H283.467V499.14H281.355ZM282.411 484.74C281.995 484.74 281.651 484.604 281.379 484.332C281.107 484.06 280.971 483.716 280.971 483.3C280.971 482.884 281.107 482.54 281.379 482.268C281.651 481.996 281.995 481.86 282.411 481.86C282.827 481.86 283.171 481.996 283.443 482.268C283.715 482.54 283.851 482.884 283.851 483.3C283.851 483.716 283.715 484.06 283.443 484.332C283.171 484.604 282.827 484.74 282.411 484.74ZM292.817 499.38C291.745 499.38 290.737 499.148 289.793 498.684C288.865 498.204 288.113 497.484 287.537 496.524C286.977 495.564 286.697 494.356 286.697 492.9V492.42C286.697 491.044 286.977 489.892 287.537 488.964C288.113 488.036 288.865 487.34 289.793 486.876C290.737 486.412 291.745 486.18 292.817 486.18C293.905 486.18 294.913 486.412 295.841 486.876C296.769 487.34 297.513 488.036 298.073 488.964C298.649 489.892 298.937 491.044 298.937 492.42V492.9C298.937 494.356 298.649 495.564 298.073 496.524C297.513 497.484 296.769 498.204 295.841 498.684C294.913 499.148 293.905 499.38 292.817 499.38ZM292.817 497.46C293.473 497.46 294.097 497.316 294.689 497.028C295.297 496.724 295.793 496.236 296.177 495.564C296.577 494.892 296.777 494.004 296.777 492.9V492.42C296.777 491.396 296.577 490.572 296.177 489.948C295.793 489.308 295.297 488.844 294.689 488.556C294.097 488.252 293.473 488.1 292.817 488.1C292.177 488.1 291.553 488.252 290.945 488.556C290.337 488.844 289.833 489.308 289.433 489.948C289.049 490.572 288.857 491.396 288.857 492.42V492.9C288.857 494.004 289.049 494.892 289.433 495.564C289.833 496.236 290.337 496.724 290.945 497.028C291.553 497.316 292.177 497.46 292.817 497.46ZM301.928 499.14V486.42H303.896V488.82C304.184 488.116 304.688 487.5 305.408 486.972C306.144 486.444 307.088 486.18 308.24 486.18C309.84 486.18 311.024 486.612 311.792 487.476C312.576 488.324 312.968 489.572 312.968 491.22V499.14H310.856V491.7C310.856 490.516 310.608 489.62 310.112 489.012C309.616 488.404 308.784 488.1 307.616 488.1C306.784 488.1 306.104 488.276 305.576 488.628C305.048 488.98 304.656 489.428 304.4 489.972C304.16 490.516 304.04 491.092 304.04 491.7V499.14H301.928ZM321.133 499.38C320.285 499.38 319.549 499.284 318.925 499.092C318.301 498.884 317.781 498.612 317.365 498.276C316.949 497.94 316.613 497.548 316.357 497.1C316.117 496.636 315.949 496.156 315.853 495.66H317.965C318.077 496.172 318.373 496.62 318.853 497.004C319.349 497.372 320.109 497.556 321.133 497.556C322.317 497.556 323.141 497.372 323.605 497.004C324.069 496.62 324.301 496.172 324.301 495.66C324.301 495.308 324.197 495.004 323.989 494.748C323.797 494.476 323.445 494.244 322.933 494.052C322.437 493.86 321.725 493.7 320.797 493.572C320.093 493.476 319.461 493.34 318.901 493.164C318.341 492.972 317.861 492.724 317.461 492.42C317.061 492.116 316.749 491.748 316.525 491.316C316.317 490.884 316.213 490.372 316.213 489.78C316.213 489.14 316.397 488.548 316.765 488.004C317.133 487.46 317.685 487.02 318.421 486.684C319.157 486.348 320.061 486.18 321.133 486.18C322.141 486.18 322.973 486.356 323.629 486.708C324.301 487.044 324.821 487.492 325.189 488.052C325.557 488.612 325.805 489.228 325.933 489.9H323.821C323.693 489.34 323.421 488.884 323.005 488.532C322.589 488.18 321.965 488.004 321.133 488.004C320.093 488.004 319.365 488.18 318.949 488.532C318.533 488.868 318.325 489.284 318.325 489.78C318.325 490.356 318.549 490.788 318.997 491.076C319.461 491.364 320.301 491.588 321.517 491.748C322.301 491.844 322.997 491.988 323.605 492.18C324.213 492.356 324.725 492.604 325.141 492.924C325.557 493.228 325.869 493.604 326.077 494.052C326.301 494.5 326.413 495.036 326.413 495.66C326.413 496.332 326.221 496.948 325.837 497.508C325.453 498.068 324.869 498.524 324.085 498.876C323.317 499.212 322.333 499.38 321.133 499.38ZM339.044 499.38C338.116 499.38 337.324 499.212 336.668 498.876C336.028 498.524 335.54 498.052 335.204 497.46C334.868 496.852 334.7 496.172 334.7 495.42C334.7 494.156 335.068 493.244 335.804 492.684C336.556 492.124 337.628 491.844 339.02 491.844H343.148V490.98C343.148 489.892 342.9 489.14 342.404 488.724C341.924 488.308 341.196 488.1 340.22 488.1C339.308 488.1 338.644 488.276 338.228 488.628C337.812 488.964 337.58 489.348 337.532 489.78H335.42C335.468 489.092 335.7 488.484 336.116 487.956C336.532 487.412 337.1 486.98 337.82 486.66C338.54 486.34 339.38 486.18 340.34 486.18C341.348 486.18 342.22 486.34 342.956 486.66C343.692 486.964 344.26 487.452 344.66 488.124C345.06 488.78 345.26 489.652 345.26 490.74V495.9C345.26 496.572 345.26 497.164 345.26 497.676C345.276 498.172 345.316 498.66 345.38 499.14H343.532C343.484 498.772 343.452 498.428 343.436 498.108C343.42 497.772 343.412 497.396 343.412 496.98C343.076 497.652 342.532 498.22 341.78 498.684C341.028 499.148 340.116 499.38 339.044 499.38ZM339.5 497.46C340.172 497.46 340.78 497.34 341.324 497.1C341.884 496.86 342.324 496.508 342.644 496.044C342.98 495.58 343.148 495.012 343.148 494.34V493.476H339.38C338.596 493.476 337.98 493.636 337.532 493.956C337.084 494.26 336.86 494.748 336.86 495.42C336.86 496.012 337.068 496.5 337.484 496.884C337.916 497.268 338.588 497.46 339.5 497.46ZM353.43 499.38C352.582 499.38 351.846 499.284 351.222 499.092C350.598 498.884 350.078 498.612 349.662 498.276C349.246 497.94 348.91 497.548 348.654 497.1C348.414 496.636 348.246 496.156 348.15 495.66H350.262C350.374 496.172 350.67 496.62 351.15 497.004C351.646 497.372 352.406 497.556 353.43 497.556C354.614 497.556 355.438 497.372 355.902 497.004C356.366 496.62 356.598 496.172 356.598 495.66C356.598 495.308 356.494 495.004 356.286 494.748C356.094 494.476 355.742 494.244 355.23 494.052C354.734 493.86 354.022 493.7 353.094 493.572C352.39 493.476 351.758 493.34 351.198 493.164C350.638 492.972 350.158 492.724 349.758 492.42C349.358 492.116 349.046 491.748 348.822 491.316C348.614 490.884 348.51 490.372 348.51 489.78C348.51 489.14 348.694 488.548 349.062 488.004C349.43 487.46 349.982 487.02 350.718 486.684C351.454 486.348 352.358 486.18 353.43 486.18C354.438 486.18 355.27 486.356 355.926 486.708C356.598 487.044 357.118 487.492 357.486 488.052C357.854 488.612 358.102 489.228 358.23 489.9H356.118C355.99 489.34 355.718 488.884 355.302 488.532C354.886 488.18 354.262 488.004 353.43 488.004C352.39 488.004 351.662 488.18 351.246 488.532C350.83 488.868 350.622 489.284 350.622 489.78C350.622 490.356 350.846 490.788 351.294 491.076C351.758 491.364 352.598 491.588 353.814 491.748C354.598 491.844 355.294 491.988 355.902 492.18C356.51 492.356 357.022 492.604 357.438 492.924C357.854 493.228 358.166 493.604 358.374 494.052C358.598 494.5 358.71 495.036 358.71 495.66C358.71 496.332 358.518 496.948 358.134 497.508C357.75 498.068 357.166 498.524 356.382 498.876C355.614 499.212 354.63 499.38 353.43 499.38ZM369.997 499.14L366.517 486.42H368.821L371.269 496.26L374.581 486.42H376.453L379.885 496.26L382.309 486.42H384.517L381.037 499.14H378.925L375.469 489.3L372.109 499.14H369.997ZM392.192 499.38C391.12 499.38 390.112 499.148 389.168 498.684C388.24 498.22 387.488 497.508 386.912 496.548C386.352 495.588 386.072 494.372 386.072 492.9V492.42C386.072 491.012 386.344 489.852 386.888 488.94C387.432 488.012 388.152 487.324 389.048 486.876C389.944 486.412 390.912 486.18 391.952 486.18C393.824 486.18 395.272 486.692 396.296 487.716C397.32 488.74 397.832 490.188 397.832 492.06V493.404H388.184C388.184 494.396 388.384 495.188 388.784 495.78C389.2 496.372 389.712 496.804 390.32 497.076C390.944 497.332 391.568 497.46 392.192 497.46C393.152 497.46 393.888 497.3 394.4 496.98C394.928 496.66 395.304 496.22 395.528 495.66H397.592C397.336 496.876 396.704 497.804 395.696 498.444C394.704 499.068 393.536 499.38 392.192 499.38ZM392.072 488.1C391.416 488.1 390.792 488.228 390.2 488.484C389.608 488.724 389.12 489.108 388.736 489.636C388.368 490.164 388.184 490.844 388.184 491.676H395.84C395.824 490.796 395.64 490.1 395.288 489.588C394.952 489.06 394.504 488.684 393.944 488.46C393.384 488.22 392.76 488.1 392.072 488.1ZM409.114 499.14L405.634 486.42H407.938L410.386 496.26L413.698 486.42H415.57L419.002 496.26L421.426 486.42H423.634L420.154 499.14H418.042L414.586 489.3L411.226 499.14H409.114ZM429.419 499.38C428.491 499.38 427.699 499.212 427.043 498.876C426.403 498.524 425.915 498.052 425.579 497.46C425.243 496.852 425.075 496.172 425.075 495.42C425.075 494.156 425.443 493.244 426.179 492.684C426.931 492.124 428.003 491.844 429.395 491.844H433.523V490.98C433.523 489.892 433.275 489.14 432.779 488.724C432.299 488.308 431.571 488.1 430.595 488.1C429.683 488.1 429.019 488.276 428.603 488.628C428.187 488.964 427.955 489.348 427.907 489.78H425.795C425.843 489.092 426.075 488.484 426.491 487.956C426.907 487.412 427.475 486.98 428.195 486.66C428.915 486.34 429.755 486.18 430.715 486.18C431.723 486.18 432.595 486.34 433.331 486.66C434.067 486.964 434.635 487.452 435.035 488.124C435.435 488.78 435.635 489.652 435.635 490.74V495.9C435.635 496.572 435.635 497.164 435.635 497.676C435.651 498.172 435.691 498.66 435.755 499.14H433.907C433.859 498.772 433.827 498.428 433.811 498.108C433.795 497.772 433.787 497.396 433.787 496.98C433.451 497.652 432.907 498.22 432.155 498.684C431.403 499.148 430.491 499.38 429.419 499.38ZM429.875 497.46C430.547 497.46 431.155 497.34 431.699 497.1C432.259 496.86 432.699 496.508 433.019 496.044C433.355 495.58 433.523 495.012 433.523 494.34V493.476H429.755C428.971 493.476 428.355 493.636 427.907 493.956C427.459 494.26 427.235 494.748 427.235 495.42C427.235 496.012 427.443 496.5 427.859 496.884C428.291 497.268 428.963 497.46 429.875 497.46ZM439.365 499.14V486.42H441.333V488.82C441.621 488.116 442.125 487.5 442.845 486.972C443.581 486.444 444.525 486.18 445.677 486.18C447.277 486.18 448.461 486.612 449.229 487.476C450.013 488.324 450.405 489.572 450.405 491.22V499.14H448.293V491.7C448.293 490.516 448.045 489.62 447.549 489.012C447.053 488.404 446.221 488.1 445.053 488.1C444.221 488.1 443.541 488.276 443.013 488.628C442.485 488.98 442.093 489.428 441.837 489.972C441.597 490.516 441.477 491.092 441.477 491.7V499.14H439.365ZM458.577 499.26C457.681 499.26 456.945 499.124 456.369 498.852C455.809 498.58 455.393 498.172 455.121 497.628C454.865 497.068 454.737 496.372 454.737 495.54V488.292H452.817V486.42H454.737V483.54H456.849V486.42H460.257V488.292H456.849V495.3C456.849 496.02 457.001 496.54 457.305 496.86C457.609 497.18 458.193 497.34 459.057 497.34C459.537 497.34 460.017 497.316 460.497 497.268V499.14C460.193 499.172 459.889 499.196 459.585 499.212C459.281 499.244 458.945 499.26 458.577 499.26ZM469.746 493.38V492.9C469.746 491.332 469.962 489.908 470.394 488.628C470.842 487.348 471.338 486.236 471.882 485.292C472.202 484.748 472.538 484.236 472.89 483.756C473.242 483.26 473.618 482.788 474.018 482.34H476.466C476.034 482.788 475.626 483.26 475.242 483.756C474.858 484.236 474.506 484.748 474.186 485.292C473.61 486.22 473.082 487.332 472.602 488.628C472.138 489.908 471.906 491.332 471.906 492.9V493.38C471.906 494.948 472.138 496.38 472.602 497.676C473.082 498.972 473.61 500.084 474.186 501.012C474.506 501.556 474.858 502.076 475.242 502.572C475.626 503.068 476.034 503.524 476.466 503.94H473.922C473.522 503.524 473.146 503.068 472.794 502.572C472.458 502.076 472.138 501.556 471.834 501.012C471.306 500.084 470.826 498.972 470.394 497.676C469.962 496.38 469.746 494.948 469.746 493.38ZM483.543 499.38C482.455 499.38 481.471 499.148 480.591 498.684C479.727 498.204 479.039 497.484 478.527 496.524C478.031 495.564 477.783 494.356 477.783 492.9V492.42C477.783 491.044 478.055 489.892 478.599 488.964C479.143 488.036 479.855 487.34 480.735 486.876C481.615 486.412 482.551 486.18 483.543 486.18C484.551 486.18 485.415 486.364 486.135 486.732C486.871 487.084 487.463 487.572 487.911 488.196C488.359 488.804 488.663 489.492 488.823 490.26H486.663C486.407 489.652 486.047 489.14 485.583 488.724C485.135 488.308 484.455 488.1 483.543 488.1C482.919 488.1 482.335 488.252 481.791 488.556C481.247 488.844 480.799 489.308 480.447 489.948C480.111 490.572 479.943 491.396 479.943 492.42V492.9C479.943 493.988 480.111 494.868 480.447 495.54C480.799 496.212 481.247 496.7 481.791 497.004C482.335 497.308 482.919 497.46 483.543 497.46C484.327 497.46 484.983 497.268 485.511 496.884C486.055 496.5 486.439 495.972 486.663 495.3H488.823C488.631 496.132 488.287 496.86 487.791 497.484C487.295 498.092 486.687 498.564 485.967 498.9C485.247 499.22 484.439 499.38 483.543 499.38ZM495.325 499.38C494.397 499.38 493.605 499.212 492.949 498.876C492.309 498.524 491.821 498.052 491.485 497.46C491.149 496.852 490.981 496.172 490.981 495.42C490.981 494.156 491.349 493.244 492.085 492.684C492.837 492.124 493.909 491.844 495.301 491.844H499.429V490.98C499.429 489.892 499.181 489.14 498.685 488.724C498.205 488.308 497.477 488.1 496.501 488.1C495.589 488.1 494.925 488.276 494.509 488.628C494.093 488.964 493.861 489.348 493.813 489.78H491.701C491.749 489.092 491.981 488.484 492.397 487.956C492.813 487.412 493.381 486.98 494.101 486.66C494.821 486.34 495.661 486.18 496.621 486.18C497.629 486.18 498.501 486.34 499.237 486.66C499.973 486.964 500.541 487.452 500.941 488.124C501.341 488.78 501.541 489.652 501.541 490.74V495.9C501.541 496.572 501.541 497.164 501.541 497.676C501.557 498.172 501.597 498.66 501.661 499.14H499.813C499.765 498.772 499.733 498.428 499.717 498.108C499.701 497.772 499.693 497.396 499.693 496.98C499.357 497.652 498.813 498.22 498.061 498.684C497.309 499.148 496.397 499.38 495.325 499.38ZM495.781 497.46C496.453 497.46 497.061 497.34 497.605 497.1C498.165 496.86 498.605 496.508 498.925 496.044C499.261 495.58 499.429 495.012 499.429 494.34V493.476H495.661C494.877 493.476 494.261 493.636 493.813 493.956C493.365 494.26 493.141 494.748 493.141 495.42C493.141 496.012 493.349 496.5 493.765 496.884C494.197 497.268 494.869 497.46 495.781 497.46ZM509.112 499.26C508.232 499.26 507.512 499.124 506.952 498.852C506.408 498.564 506.008 498.124 505.752 497.532C505.512 496.924 505.392 496.14 505.392 495.18V482.34H507.504V495.18C507.504 496.012 507.64 496.58 507.912 496.884C508.184 497.188 508.664 497.34 509.352 497.34C509.528 497.34 509.68 497.34 509.808 497.34C509.936 497.324 510.064 497.308 510.192 497.292V499.164C510.112 499.18 510 499.196 509.856 499.212C509.728 499.228 509.592 499.236 509.448 499.236C509.32 499.252 509.208 499.26 509.112 499.26ZM516.799 499.26C515.919 499.26 515.199 499.124 514.639 498.852C514.095 498.564 513.695 498.124 513.439 497.532C513.199 496.924 513.079 496.14 513.079 495.18V482.34H515.191V495.18C515.191 496.012 515.327 496.58 515.599 496.884C515.871 497.188 516.351 497.34 517.039 497.34C517.215 497.34 517.367 497.34 517.495 497.34C517.623 497.324 517.751 497.308 517.879 497.292V499.164C517.799 499.18 517.687 499.196 517.543 499.212C517.415 499.228 517.279 499.236 517.135 499.236C517.007 499.252 516.895 499.26 516.799 499.26ZM526.887 499.14V486.42H528.999V499.14H526.887ZM527.943 484.74C527.527 484.74 527.183 484.604 526.911 484.332C526.639 484.06 526.503 483.716 526.503 483.3C526.503 482.884 526.639 482.54 526.911 482.268C527.183 481.996 527.527 481.86 527.943 481.86C528.359 481.86 528.703 481.996 528.975 482.268C529.247 482.54 529.383 482.884 529.383 483.3C529.383 483.716 529.247 484.06 528.975 484.332C528.703 484.604 528.359 484.74 527.943 484.74ZM537.748 499.26C536.852 499.26 536.116 499.124 535.54 498.852C534.98 498.58 534.564 498.172 534.292 497.628C534.036 497.068 533.908 496.372 533.908 495.54V488.292H531.988V486.42H533.908V483.54H536.02V486.42H539.428V488.292H536.02V495.3C536.02 496.02 536.172 496.54 536.476 496.86C536.78 497.18 537.364 497.34 538.228 497.34C538.708 497.34 539.188 497.316 539.668 497.268V499.14C539.364 499.172 539.06 499.196 538.756 499.212C538.452 499.244 538.116 499.26 537.748 499.26ZM548.678 499.14V486.42H550.646V488.82C550.934 488.116 551.438 487.5 552.158 486.972C552.894 486.444 553.838 486.18 554.99 486.18C556.59 486.18 557.774 486.612 558.542 487.476C559.326 488.324 559.718 489.572 559.718 491.22V499.14H557.606V491.7C557.606 490.516 557.358 489.62 556.862 489.012C556.366 488.404 555.534 488.1 554.366 488.1C553.534 488.1 552.854 488.276 552.326 488.628C551.798 488.98 551.406 489.428 551.15 489.972C550.91 490.516 550.79 491.092 550.79 491.7V499.14H548.678ZM568.483 492.9V493.38C568.483 494.948 568.259 496.372 567.811 497.652C567.379 498.932 566.891 500.044 566.347 500.988C566.043 501.532 565.707 502.044 565.339 502.524C564.987 503.02 564.611 503.492 564.211 503.94H561.763C562.195 503.492 562.603 503.02 562.987 502.524C563.371 502.044 563.723 501.532 564.043 500.988C564.619 500.06 565.139 498.948 565.603 497.652C566.083 496.356 566.323 494.932 566.323 493.38V492.9C566.323 491.332 566.083 489.9 565.603 488.604C565.139 487.308 564.619 486.196 564.043 485.268C563.723 484.708 563.371 484.188 562.987 483.708C562.603 483.212 562.195 482.756 561.763 482.34H564.307C564.707 482.756 565.075 483.212 565.411 483.708C565.763 484.188 566.091 484.708 566.395 485.268C566.923 486.196 567.403 487.308 567.835 488.604C568.267 489.9 568.483 491.332 568.483 492.9Z" fill="#0C0824"/>
<path d="M287.617 234.555C287.617 233.72 287.3 233.303 286.665 233.303C285.863 233.303 285.028 233.787 284.159 234.756C283.291 235.725 282.572 237.211 282.004 239.216C281.971 239.249 281.938 239.299 281.904 239.366C281.871 239.433 281.854 239.483 281.854 239.516C281.854 239.55 281.821 239.583 281.754 239.617C281.687 239.65 281.637 239.667 281.604 239.667C281.57 239.667 281.503 239.667 281.403 239.667C281.303 239.667 281.169 239.667 281.002 239.667H280.301C280.1 239.466 280 239.316 280 239.216C280 238.982 280.134 238.497 280.401 237.762C280.668 237.027 281.069 236.159 281.604 235.157C282.138 234.154 282.873 233.303 283.808 232.601C284.744 231.899 285.796 231.532 286.965 231.499C288.369 231.499 289.454 231.899 290.223 232.701C290.991 233.503 291.392 234.438 291.425 235.507C291.425 236.075 291.375 236.51 291.275 236.81C291.275 237.011 291.024 237.746 290.523 239.015C290.022 240.285 289.504 241.771 288.97 243.475C288.435 245.179 288.135 246.666 288.068 247.935C288.068 248.837 288.151 249.572 288.318 250.14C288.753 251.576 289.805 252.295 291.475 252.295C292.712 252.295 293.864 251.727 294.933 250.591C296.002 249.455 296.837 248.135 297.439 246.632C298.04 245.129 298.524 243.742 298.892 242.473C299.259 241.203 299.443 240.285 299.443 239.717C299.443 238.948 299.31 238.28 299.042 237.712C298.775 237.144 298.474 236.71 298.14 236.409C297.806 236.109 297.506 235.808 297.238 235.507C296.971 235.207 296.837 234.839 296.837 234.405C296.837 233.67 297.155 232.985 297.789 232.35C298.424 231.716 299.109 231.398 299.844 231.398C300.479 231.398 301.047 231.699 301.548 232.3C302.049 232.902 302.316 233.87 302.35 235.207C302.35 236.109 302.149 237.495 301.748 239.366C301.347 241.237 300.729 243.325 299.894 245.63C299.059 247.935 297.873 249.923 296.336 251.593C294.8 253.264 293.029 254.115 291.024 254.149C288.886 254.149 287.183 253.598 285.913 252.495C284.677 251.426 284.059 249.839 284.059 247.735C284.059 246.699 284.193 245.63 284.46 244.527C284.727 243.425 285.412 241.471 286.514 238.664C287.249 236.526 287.617 235.157 287.617 234.555Z" fill="#0C0824"/>
<path d="M319.979 236.209C319.979 235.775 320.213 235.441 320.68 235.207H352.601C353.102 235.474 353.353 235.808 353.353 236.209C353.353 236.576 353.119 236.894 352.651 237.161L336.716 237.211H320.781C320.246 237.044 319.979 236.71 319.979 236.209ZM319.979 245.931C319.979 245.429 320.246 245.095 320.781 244.928H352.651C353.119 245.262 353.353 245.596 353.353 245.931C353.353 246.365 353.102 246.699 352.601 246.933H320.68C320.213 246.699 319.979 246.365 319.979 245.931Z" fill="#0C0824"/>
<path d="M386.065 187.15V96.9999H403.454V101.209H390.275V187.15H386.065Z" fill="#0C0824"/>
<path d="M386.065 385.14V294.989H390.275V380.93H403.454V385.14H386.065Z" fill="#0C0824"/>
<g clip-path="url(#clip0_10_494)">
<path d="M386.065 329.466V152.688H390.275V329.466H386.065Z" fill="#0C0824"/>
</g>
<path d="M413.947 115.541C413.947 114.706 413.63 114.288 412.995 114.288C412.193 114.288 411.358 114.773 410.49 115.742C409.621 116.71 408.903 118.197 408.335 120.201C408.301 120.235 408.268 120.285 408.235 120.352C408.201 120.419 408.184 120.469 408.184 120.502C408.184 120.536 408.151 120.569 408.084 120.602C408.017 120.636 407.967 120.653 407.934 120.653C407.9 120.653 407.834 120.653 407.733 120.653C407.633 120.653 407.5 120.653 407.333 120.653H406.631C406.431 120.452 406.33 120.302 406.33 120.201C406.33 119.968 406.464 119.483 406.731 118.748C406.998 118.013 407.399 117.145 407.934 116.142C408.468 115.14 409.203 114.288 410.139 113.587C411.074 112.885 412.127 112.518 413.296 112.484C414.699 112.484 415.785 112.885 416.553 113.687C417.321 114.489 417.722 115.424 417.756 116.493C417.756 117.061 417.706 117.495 417.605 117.796C417.605 117.997 417.355 118.732 416.854 120.001C416.353 121.271 415.835 122.757 415.3 124.461C414.766 126.165 414.465 127.651 414.398 128.921C414.398 129.823 414.482 130.558 414.649 131.126C415.083 132.562 416.135 133.281 417.806 133.281C419.042 133.281 420.194 132.713 421.263 131.577C422.333 130.441 423.168 129.121 423.769 127.618C424.37 126.115 424.855 124.728 425.222 123.459C425.59 122.189 425.773 121.271 425.773 120.703C425.773 119.934 425.64 119.266 425.373 118.698C425.105 118.13 424.805 117.696 424.471 117.395C424.137 117.095 423.836 116.794 423.569 116.493C423.301 116.193 423.168 115.825 423.168 115.391C423.168 114.656 423.485 113.971 424.12 113.336C424.755 112.702 425.439 112.384 426.174 112.384C426.809 112.384 427.377 112.685 427.878 113.286C428.379 113.887 428.647 114.856 428.68 116.193C428.68 117.095 428.479 118.481 428.079 120.352C427.678 122.223 427.06 124.311 426.224 126.616C425.389 128.921 424.203 130.909 422.667 132.579C421.13 134.249 419.359 135.101 417.355 135.135C415.217 135.135 413.513 134.583 412.243 133.481C411.007 132.412 410.389 130.825 410.389 128.72C410.389 127.685 410.523 126.616 410.79 125.513C411.057 124.411 411.742 122.457 412.845 119.65C413.58 117.512 413.947 116.142 413.947 115.541Z" fill="#0C0824"/>
<path d="M437.128 121.622L436.668 121.799C436.337 121.918 435.865 122.036 435.25 122.154C434.636 122.272 433.951 122.355 433.196 122.402H432.522V120.772H433.196C434.306 120.725 435.333 120.548 436.278 120.241C437.223 119.934 437.884 119.65 438.262 119.39C438.64 119.131 438.97 118.871 439.254 118.611C439.301 118.54 439.443 118.505 439.679 118.505C439.892 118.505 440.092 118.575 440.281 118.717V129.31L440.317 139.939C440.482 140.104 440.624 140.211 440.742 140.258C440.86 140.305 441.143 140.352 441.592 140.4C442.041 140.447 442.773 140.47 443.789 140.47H444.71V142.1H444.32C443.824 142.029 441.946 141.994 438.687 141.994C435.475 141.994 433.621 142.029 433.125 142.1H432.7V140.47H433.621C434.14 140.47 434.589 140.47 434.967 140.47C435.345 140.47 435.64 140.459 435.853 140.435C436.065 140.411 436.254 140.376 436.42 140.329C436.585 140.281 436.679 140.258 436.703 140.258C436.727 140.258 436.798 140.199 436.916 140.081C437.034 139.963 437.105 139.915 437.128 139.939V121.622Z" fill="#0C0824"/>
<path d="M413.947 185.697C413.947 184.862 413.63 184.444 412.995 184.444C412.193 184.444 411.358 184.928 410.49 185.897C409.621 186.866 408.903 188.353 408.335 190.357C408.301 190.391 408.268 190.441 408.235 190.507C408.201 190.574 408.184 190.624 408.184 190.658C408.184 190.691 408.151 190.725 408.084 190.758C408.017 190.791 407.967 190.808 407.934 190.808C407.9 190.808 407.834 190.808 407.733 190.808C407.633 190.808 407.5 190.808 407.333 190.808H406.631C406.431 190.608 406.33 190.457 406.33 190.357C406.33 190.123 406.464 189.639 406.731 188.904C406.998 188.169 407.399 187.3 407.934 186.298C408.468 185.296 409.203 184.444 410.139 183.742C411.074 183.041 412.127 182.673 413.296 182.64C414.699 182.64 415.785 183.041 416.553 183.843C417.321 184.644 417.722 185.58 417.756 186.649C417.756 187.217 417.706 187.651 417.605 187.952C417.605 188.152 417.355 188.887 416.854 190.157C416.353 191.426 415.835 192.913 415.3 194.617C414.766 196.32 414.465 197.807 414.398 199.076C414.398 199.978 414.482 200.713 414.649 201.281C415.083 202.718 416.135 203.436 417.806 203.436C419.042 203.436 420.194 202.868 421.263 201.732C422.333 200.597 423.168 199.277 423.769 197.774C424.37 196.27 424.855 194.884 425.222 193.614C425.59 192.345 425.773 191.426 425.773 190.858C425.773 190.09 425.64 189.422 425.373 188.854C425.105 188.286 424.805 187.852 424.471 187.551C424.137 187.25 423.836 186.95 423.569 186.649C423.301 186.348 423.168 185.981 423.168 185.546C423.168 184.811 423.485 184.127 424.12 183.492C424.755 182.857 425.439 182.54 426.174 182.54C426.809 182.54 427.377 182.84 427.878 183.442C428.379 184.043 428.647 185.012 428.68 186.348C428.68 187.25 428.479 188.637 428.079 190.507C427.678 192.378 427.06 194.466 426.224 196.771C425.389 199.076 424.203 201.064 422.667 202.735C421.13 204.405 419.359 205.257 417.355 205.29C415.217 205.29 413.513 204.739 412.243 203.637C411.007 202.568 410.389 200.981 410.389 198.876C410.389 197.84 410.523 196.771 410.79 195.669C411.057 194.566 411.742 192.612 412.845 189.806C413.58 187.668 413.947 186.298 413.947 185.697Z" fill="#0C0824"/>
<path d="M433.444 197.057C432.806 197.057 432.298 196.844 431.92 196.419C431.542 195.994 431.353 195.474 431.353 194.86C431.353 193.183 431.979 191.731 433.231 190.503C434.483 189.274 436.042 188.66 437.908 188.66C440.057 188.66 441.852 189.322 443.293 190.644C444.733 191.967 445.466 193.679 445.489 195.781C445.489 196.797 445.253 197.765 444.781 198.687C444.308 199.608 443.741 200.411 443.08 201.096C442.419 201.781 441.474 202.655 440.246 203.717C439.396 204.45 438.215 205.536 436.703 206.977L434.613 208.961L437.305 208.996C441.013 208.996 442.986 208.937 443.222 208.819C443.387 208.772 443.671 207.721 444.072 205.666V205.56H445.489V205.666C445.466 205.737 445.312 206.812 445.029 208.89C444.745 210.968 444.568 212.055 444.497 212.149V212.256H431.353V211.583V211.157C431.353 210.992 431.424 210.815 431.566 210.626C431.708 210.437 432.062 210.024 432.629 209.386C433.314 208.63 433.904 207.969 434.4 207.402C434.613 207.166 435.014 206.729 435.605 206.091C436.195 205.453 436.597 205.016 436.809 204.78C437.022 204.544 437.364 204.154 437.837 203.611C438.309 203.068 438.64 202.666 438.829 202.407C439.018 202.147 439.289 201.792 439.644 201.344C439.998 200.895 440.246 200.517 440.388 200.21C440.529 199.903 440.706 199.56 440.919 199.183C441.132 198.805 441.285 198.427 441.38 198.049C441.474 197.671 441.557 197.317 441.628 196.986C441.698 196.655 441.734 196.266 441.734 195.817C441.734 194.329 441.332 193.042 440.529 191.955C439.726 190.869 438.581 190.325 437.093 190.325C436.313 190.325 435.628 190.526 435.038 190.928C434.447 191.329 434.034 191.719 433.798 192.097C433.562 192.475 433.444 192.699 433.444 192.77C433.444 192.794 433.503 192.805 433.621 192.805C434.046 192.805 434.483 192.971 434.932 193.301C435.38 193.632 435.605 194.175 435.605 194.931C435.605 195.522 435.416 196.018 435.038 196.419C434.66 196.821 434.129 197.033 433.444 197.057Z" fill="#0C0824"/>
<path d="M424.48 300.953C424.48 300.151 424.764 299.449 425.332 298.848C425.9 298.247 426.619 297.946 427.487 297.946C428.289 297.946 428.99 298.213 429.592 298.748C430.193 299.282 430.511 300.001 430.544 300.903C430.544 301.738 430.26 302.456 429.692 303.057C429.124 303.659 428.406 303.959 427.537 303.959C426.669 303.959 425.95 303.675 425.382 303.107C424.815 302.54 424.514 301.821 424.48 300.953ZM424.48 280.407C424.48 279.605 424.764 278.904 425.332 278.302C425.9 277.701 426.619 277.4 427.487 277.4C428.289 277.4 428.99 277.668 429.592 278.202C430.193 278.737 430.511 279.455 430.544 280.357C430.544 281.192 430.26 281.91 429.692 282.512C429.124 283.113 428.406 283.414 427.537 283.414C426.669 283.414 425.95 283.13 425.382 282.562C424.815 281.994 424.514 281.276 424.48 280.407ZM424.48 260.363C424.48 259.561 424.764 258.859 425.332 258.258C425.9 257.657 426.619 257.356 427.487 257.356C428.289 257.356 428.99 257.623 429.592 258.158C430.193 258.692 430.511 259.41 430.544 260.312C430.544 261.148 430.26 261.866 429.692 262.467C429.124 263.069 428.406 263.369 427.537 263.369C426.669 263.369 425.95 263.085 425.382 262.517C424.815 261.949 424.514 261.231 424.48 260.363Z" fill="#0C0824"/>
<path d="M412.173 353.569C412.173 352.734 411.856 352.317 411.221 352.317C410.419 352.317 409.584 352.801 408.716 353.77C407.847 354.739 407.129 356.225 406.561 358.23C406.527 358.263 406.494 358.313 406.461 358.38C406.427 358.447 406.411 358.497 406.411 358.53C406.411 358.564 406.377 358.597 406.31 358.631C406.243 358.664 406.193 358.681 406.16 358.681C406.127 358.681 406.06 358.681 405.96 358.681C405.859 358.681 405.726 358.681 405.559 358.681H404.857C404.657 358.48 404.556 358.33 404.556 358.23C404.556 357.996 404.69 357.511 404.957 356.776C405.225 356.042 405.625 355.173 406.16 354.171C406.694 353.168 407.429 352.317 408.365 351.615C409.3 350.913 410.353 350.546 411.522 350.513C412.925 350.513 414.011 350.913 414.779 351.715C415.547 352.517 415.948 353.452 415.982 354.521C415.982 355.089 415.932 355.524 415.831 355.824C415.831 356.025 415.581 356.76 415.08 358.029C414.579 359.299 414.061 360.785 413.526 362.489C412.992 364.193 412.691 365.68 412.624 366.949C412.624 367.851 412.708 368.586 412.875 369.154C413.309 370.59 414.361 371.309 416.032 371.309C417.268 371.309 418.421 370.741 419.49 369.605C420.559 368.469 421.394 367.149 421.995 365.646C422.596 364.143 423.081 362.756 423.448 361.487C423.816 360.217 424 359.299 424 358.731C424 357.962 423.866 357.294 423.599 356.726C423.331 356.158 423.031 355.724 422.697 355.423C422.363 355.123 422.062 354.822 421.795 354.521C421.527 354.221 421.394 353.853 421.394 353.419C421.394 352.684 421.711 351.999 422.346 351.364C422.981 350.73 423.665 350.412 424.4 350.412C425.035 350.412 425.603 350.713 426.104 351.314C426.605 351.916 426.873 352.885 426.906 354.221C426.906 355.123 426.706 356.509 426.305 358.38C425.904 360.251 425.286 362.339 424.451 364.644C423.615 366.949 422.429 368.937 420.893 370.607C419.356 372.278 417.585 373.129 415.581 373.163C413.443 373.163 411.739 372.612 410.47 371.509C409.233 370.44 408.615 368.853 408.615 366.749C408.615 365.713 408.749 364.644 409.016 363.541C409.284 362.439 409.968 360.485 411.071 357.678C411.806 355.54 412.173 354.171 412.173 353.569Z" fill="#0C0824"/>
<path d="M428.552 369.96C428.576 369.819 428.611 369.63 428.658 369.393C428.706 369.157 428.847 368.709 429.083 368.047C429.32 367.386 429.556 366.831 429.792 366.382C430.028 365.933 430.418 365.496 430.961 365.071C431.504 364.646 432.048 364.445 432.591 364.469C433.441 364.469 434.15 364.681 434.717 365.107C435.283 365.532 435.638 365.933 435.779 366.311C435.921 366.689 435.992 366.937 435.992 367.055C435.992 367.102 436.004 367.126 436.027 367.126L436.417 366.736C437.858 365.225 439.499 364.469 441.342 364.469C442.617 364.469 443.645 364.788 444.424 365.425C445.203 366.063 445.605 366.996 445.629 368.224C445.652 369.453 445.203 371.307 444.282 373.787C443.361 376.267 442.912 377.766 442.936 378.286C442.936 378.9 443.137 379.207 443.538 379.207C443.68 379.207 443.786 379.195 443.857 379.172C444.542 379.054 445.156 378.605 445.699 377.825C446.243 377.046 446.656 376.101 446.939 374.991C446.987 374.802 447.223 374.708 447.648 374.708C448.12 374.708 448.357 374.802 448.357 374.991C448.357 375.015 448.309 375.192 448.215 375.523C448.026 376.208 447.766 376.881 447.435 377.542C447.105 378.203 446.562 378.865 445.806 379.526C445.05 380.187 444.235 380.506 443.361 380.483C442.251 380.483 441.448 380.164 440.952 379.526C440.456 378.888 440.208 378.227 440.208 377.542C440.208 377.093 440.633 375.676 441.483 373.291C442.334 370.905 442.771 369.11 442.794 367.905C442.794 366.512 442.275 365.815 441.235 365.815H441.058C439.027 365.815 437.315 367.008 435.921 369.393L435.673 369.819L434.504 374.566C433.725 377.66 433.276 379.325 433.158 379.561C432.851 380.199 432.343 380.518 431.634 380.518C431.327 380.518 431.079 380.447 430.89 380.305C430.701 380.164 430.571 380.022 430.501 379.88C430.43 379.739 430.406 379.621 430.43 379.526C430.43 379.219 430.878 377.294 431.776 373.751C432.674 370.208 433.146 368.283 433.193 367.976C433.217 367.858 433.229 367.587 433.229 367.161C433.229 366.24 432.945 365.78 432.378 365.78C431.481 365.78 430.737 366.961 430.146 369.323C430.005 369.795 429.934 370.043 429.934 370.067C429.886 370.208 429.662 370.279 429.261 370.279H428.765C428.623 370.137 428.552 370.031 428.552 369.96Z" fill="#0C0824"/>
<path d="M451.576 101.209V96.9999H468.964V187.15H464.755V101.209H451.576Z" fill="#0C0824"/>
<path d="M464.755 380.93V294.989H468.964V385.14H451.576V380.93H464.755Z" fill="#0C0824"/>
<g clip-path="url(#clip1_10_494)">
<path d="M464.755 329.466V152.688H468.964V329.466H464.755Z" fill="#0C0824"/>
</g>
<defs>
<clipPath id="clip0_10_494">
<rect width="33.4242" height="117.862" fill="white" transform="matrix(1 0 0 -1 370.08 300)"/>
</clipPath>
<clipPath id="clip1_10_494">
<rect width="33.4242" height="117.862" fill="white" transform="matrix(1 0 0 -1 451.576 300)"/>
</clipPath>
</defs>
</svg>
