<svg width="1200" height="600" viewBox="0 0 1200 600" fill="none" xmlns="http://www.w3.org/2000/svg">
<path d="M709.667 450C709.667 461.782 719.218 471.333 731 471.333C742.782 471.333 752.333 461.782 752.333 450C752.333 438.218 742.782 428.667 731 428.667C719.218 428.667 709.667 438.218 709.667 450ZM910.812 108.788C910.143 106.683 907.894 105.519 905.788 106.188L871.48 117.092C869.374 117.761 868.21 120.011 868.879 122.116C869.548 124.221 871.797 125.386 873.903 124.716L904.4 115.024L914.092 145.52C914.761 147.626 917.011 148.79 919.116 148.121C921.221 147.452 922.386 145.203 921.716 143.097L910.812 108.788ZM731 450L734.552 451.839L910.552 111.839L907 110L903.448 108.161L727.448 448.161L731 450Z" fill="#656AFF"/>
<path d="M893.38 236.474C893.38 235.774 893.114 235.425 892.583 235.425C891.911 235.425 891.211 235.83 890.484 236.642C889.756 237.453 889.155 238.699 888.679 240.378C888.651 240.405 888.623 240.447 888.595 240.503C888.567 240.559 888.553 240.601 888.553 240.629C888.553 240.657 888.525 240.685 888.469 240.713C888.413 240.741 888.371 240.755 888.343 240.755C888.315 240.755 888.259 240.755 888.175 240.755C888.091 240.755 887.979 240.755 887.839 240.755H887.252C887.084 240.587 887 240.461 887 240.378C887 240.182 887.112 239.776 887.336 239.16C887.56 238.545 887.895 237.817 888.343 236.978C888.791 236.138 889.407 235.425 890.19 234.837C890.974 234.249 891.855 233.941 892.834 233.914C894.01 233.914 894.919 234.249 895.563 234.921C896.206 235.592 896.542 236.376 896.57 237.271C896.57 237.747 896.528 238.111 896.444 238.363C896.444 238.531 896.234 239.146 895.815 240.21C895.395 241.273 894.961 242.518 894.513 243.945C894.066 245.372 893.814 246.618 893.758 247.681C893.758 248.437 893.828 249.052 893.968 249.528C894.331 250.731 895.213 251.333 896.612 251.333C897.647 251.333 898.613 250.857 899.508 249.906C900.404 248.954 901.103 247.849 901.607 246.59C902.111 245.33 902.516 244.169 902.824 243.106C903.132 242.042 903.286 241.273 903.286 240.797C903.286 240.154 903.174 239.594 902.95 239.118C902.726 238.643 902.474 238.279 902.195 238.027C901.915 237.775 901.663 237.523 901.439 237.271C901.215 237.02 901.103 236.712 901.103 236.348C901.103 235.732 901.369 235.159 901.901 234.627C902.432 234.095 903.006 233.83 903.622 233.83C904.153 233.83 904.629 234.081 905.049 234.585C905.469 235.089 905.692 235.9 905.72 237.02C905.72 237.775 905.552 238.936 905.217 240.503C904.881 242.07 904.363 243.819 903.664 245.75C902.964 247.681 901.971 249.346 900.684 250.745C899.396 252.144 897.913 252.858 896.234 252.886C894.443 252.886 893.016 252.424 891.953 251.501C890.918 250.605 890.4 249.276 890.4 247.513C890.4 246.646 890.512 245.75 890.736 244.827C890.96 243.903 891.533 242.266 892.457 239.916C893.072 238.125 893.38 236.978 893.38 236.474Z" fill="#656AFF"/>
<path d="M902.794 223.84C902.794 223.616 902.864 223.42 903.004 223.252C903.144 223.084 903.354 223 903.634 223C903.83 223 903.998 223.07 904.138 223.21C904.278 223.322 904.417 223.588 904.557 224.008C904.837 225.043 905.411 225.84 906.278 226.4C906.586 226.596 906.74 226.848 906.74 227.156C906.74 227.407 906.698 227.575 906.614 227.659C906.53 227.743 906.334 227.869 906.026 228.037C904.823 228.653 903.774 229.534 902.878 230.681C902.822 230.737 902.752 230.821 902.669 230.933C902.585 231.045 902.515 231.129 902.459 231.185C902.403 231.241 902.333 231.269 902.249 231.269C902.165 231.269 902.067 231.283 901.955 231.311C901.759 231.311 901.577 231.241 901.409 231.101C901.241 230.961 901.143 230.751 901.115 230.472C901.115 229.94 901.773 229.114 903.088 227.995H895.911L888.733 227.953C888.369 227.701 888.188 227.435 888.188 227.156C888.188 226.96 888.369 226.68 888.733 226.316H903.802C903.13 225.253 902.794 224.427 902.794 223.84Z" fill="#656AFF"/>
</svg>
