<svg width="1200" height="600" viewBox="0 0 1200 600" fill="none" xmlns="http://www.w3.org/2000/svg">
<path d="M731 450H877" stroke="#656AFF" stroke-width="2" stroke-linecap="round"/>
<path d="M884 450L891 450" stroke="#656AFF" stroke-width="2" stroke-linecap="round"/>
<path d="M899 450H898" stroke="#656AFF" stroke-width="2" stroke-linecap="round"/>
<path d="M822 450C822 432.89 817.176 416.127 808.082 401.634C798.988 387.14 785.993 375.505 770.587 368.062L731 450H822Z" stroke="#656AFF" stroke-width="2"/>
<path d="M681 430L857 90" stroke="#656AFF" stroke-width="2" stroke-linecap="round"/>
<path d="M869.4 95L846 83" stroke="#656AFF" stroke-width="2" stroke-linecap="round"/>
<path d="M692.4 436L669 424" stroke="#656AFF" stroke-width="2" stroke-linecap="round"/>
<path d="M846.36 430.24C845.32 430.24 844.4 430 843.6 429.52C842.8 429.04 842.176 428.32 841.728 427.36C841.296 426.4 841.08 425.2 841.08 423.76V423.28C841.08 421.936 841.304 420.8 841.752 419.872C842.216 418.944 842.84 418.24 843.624 417.76C844.424 417.28 845.336 417.04 846.36 417.04C847.384 417.04 848.272 417.264 849.024 417.712C849.792 418.16 850.36 418.776 850.728 419.56V413.2H852.84V430H850.872V427.6C850.552 428.384 849.992 429.024 849.192 429.52C848.392 430 847.448 430.24 846.36 430.24ZM846.84 428.368C847.608 428.368 848.28 428.208 848.856 427.888C849.448 427.552 849.904 427.096 850.224 426.52C850.56 425.928 850.728 425.248 850.728 424.48V422.56C850.728 421.872 850.56 421.256 850.224 420.712C849.904 420.152 849.448 419.712 848.856 419.392C848.28 419.072 847.608 418.912 846.84 418.912C845.816 418.912 844.952 419.296 844.248 420.064C843.544 420.816 843.192 421.888 843.192 423.28V423.76C843.192 425.264 843.544 426.408 844.248 427.192C844.952 427.976 845.816 428.368 846.84 428.368ZM856.926 430V417.28H859.038V430H856.926ZM857.982 415.6C857.566 415.6 857.222 415.464 856.95 415.192C856.678 414.92 856.542 414.576 856.542 414.16C856.542 413.744 856.678 413.4 856.95 413.128C857.222 412.856 857.566 412.72 857.982 412.72C858.398 412.72 858.742 412.856 859.014 413.128C859.286 413.4 859.422 413.744 859.422 414.16C859.422 414.576 859.286 414.92 859.014 415.192C858.742 415.464 858.398 415.6 857.982 415.6ZM863.108 430V417.28H865.076V419.68C865.268 419.168 865.532 418.72 865.868 418.336C866.204 417.936 866.612 417.624 867.092 417.4C867.588 417.16 868.14 417.04 868.748 417.04C869.068 417.04 869.324 417.056 869.516 417.088C869.724 417.12 869.908 417.16 870.068 417.208V419.176C869.86 419.096 869.652 419.04 869.444 419.008C869.252 418.976 868.98 418.96 868.628 418.96C867.988 418.96 867.412 419.112 866.9 419.416C866.388 419.72 865.98 420.144 865.676 420.688C865.372 421.216 865.22 421.84 865.22 422.56V430H863.108ZM877.505 430.24C876.433 430.24 875.425 430.008 874.481 429.544C873.553 429.08 872.801 428.368 872.225 427.408C871.665 426.448 871.385 425.232 871.385 423.76V423.28C871.385 421.872 871.657 420.712 872.201 419.8C872.745 418.872 873.465 418.184 874.361 417.736C875.257 417.272 876.225 417.04 877.265 417.04C879.137 417.04 880.585 417.552 881.609 418.576C882.633 419.6 883.145 421.048 883.145 422.92V424.264H873.497C873.497 425.256 873.697 426.048 874.097 426.64C874.513 427.232 875.025 427.664 875.633 427.936C876.257 428.192 876.881 428.32 877.505 428.32C878.465 428.32 879.201 428.16 879.713 427.84C880.241 427.52 880.617 427.08 880.841 426.52H882.905C882.649 427.736 882.017 428.664 881.009 429.304C880.017 429.928 878.849 430.24 877.505 430.24ZM877.385 418.96C876.729 418.96 876.105 419.088 875.513 419.344C874.921 419.584 874.433 419.968 874.049 420.496C873.681 421.024 873.497 421.704 873.497 422.536H881.153C881.137 421.656 880.953 420.96 880.601 420.448C880.265 419.92 879.817 419.544 879.257 419.32C878.697 419.08 878.073 418.96 877.385 418.96ZM891.067 430.24C889.979 430.24 888.995 430.008 888.115 429.544C887.251 429.064 886.563 428.344 886.051 427.384C885.555 426.424 885.307 425.216 885.307 423.76V423.28C885.307 421.904 885.579 420.752 886.123 419.824C886.667 418.896 887.379 418.2 888.259 417.736C889.139 417.272 890.075 417.04 891.067 417.04C892.075 417.04 892.939 417.224 893.659 417.592C894.395 417.944 894.987 418.432 895.435 419.056C895.883 419.664 896.187 420.352 896.347 421.12H894.187C893.931 420.512 893.571 420 893.107 419.584C892.659 419.168 891.979 418.96 891.067 418.96C890.443 418.96 889.859 419.112 889.315 419.416C888.771 419.704 888.323 420.168 887.971 420.808C887.635 421.432 887.467 422.256 887.467 423.28V423.76C887.467 424.848 887.635 425.728 887.971 426.4C888.323 427.072 888.771 427.56 889.315 427.864C889.859 428.168 890.443 428.32 891.067 428.32C891.851 428.32 892.507 428.128 893.035 427.744C893.579 427.36 893.963 426.832 894.187 426.16H896.347C896.155 426.992 895.811 427.72 895.315 428.344C894.819 428.952 894.211 429.424 893.491 429.76C892.771 430.08 891.963 430.24 891.067 430.24ZM903.905 430.12C903.009 430.12 902.273 429.984 901.697 429.712C901.137 429.44 900.721 429.032 900.449 428.488C900.193 427.928 900.065 427.232 900.065 426.4V419.152H898.145V417.28H900.065V414.4H902.177V417.28H905.585V419.152H902.177V426.16C902.177 426.88 902.329 427.4 902.633 427.72C902.937 428.04 903.521 428.2 904.385 428.2C904.865 428.2 905.345 428.176 905.825 428.128V430C905.521 430.032 905.217 430.056 904.913 430.072C904.609 430.104 904.273 430.12 903.905 430.12ZM909.074 430V417.28H911.186V430H909.074ZM910.13 415.6C909.714 415.6 909.37 415.464 909.098 415.192C908.826 414.92 908.69 414.576 908.69 414.16C908.69 413.744 908.826 413.4 909.098 413.128C909.37 412.856 909.714 412.72 910.13 412.72C910.546 412.72 910.89 412.856 911.162 413.128C911.434 413.4 911.57 413.744 911.57 414.16C911.57 414.576 911.434 414.92 911.162 415.192C910.89 415.464 910.546 415.6 910.13 415.6ZM920.536 430.24C919.464 430.24 918.456 430.008 917.512 429.544C916.584 429.064 915.832 428.344 915.256 427.384C914.696 426.424 914.416 425.216 914.416 423.76V423.28C914.416 421.904 914.696 420.752 915.256 419.824C915.832 418.896 916.584 418.2 917.512 417.736C918.456 417.272 919.464 417.04 920.536 417.04C921.624 417.04 922.632 417.272 923.56 417.736C924.488 418.2 925.232 418.896 925.792 419.824C926.368 420.752 926.656 421.904 926.656 423.28V423.76C926.656 425.216 926.368 426.424 925.792 427.384C925.232 428.344 924.488 429.064 923.56 429.544C922.632 430.008 921.624 430.24 920.536 430.24ZM920.536 428.32C921.192 428.32 921.816 428.176 922.408 427.888C923.016 427.584 923.512 427.096 923.896 426.424C924.296 425.752 924.496 424.864 924.496 423.76V423.28C924.496 422.256 924.296 421.432 923.896 420.808C923.512 420.168 923.016 419.704 922.408 419.416C921.816 419.112 921.192 418.96 920.536 418.96C919.896 418.96 919.272 419.112 918.664 419.416C918.056 419.704 917.552 420.168 917.152 420.808C916.768 421.432 916.576 422.256 916.576 423.28V423.76C916.576 424.864 916.768 425.752 917.152 426.424C917.552 427.096 918.056 427.584 918.664 427.888C919.272 428.176 919.896 428.32 920.536 428.32ZM929.647 430V417.28H931.615V419.68C931.903 418.976 932.407 418.36 933.127 417.832C933.863 417.304 934.807 417.04 935.959 417.04C937.559 417.04 938.743 417.472 939.511 418.336C940.295 419.184 940.687 420.432 940.687 422.08V430H938.575V422.56C938.575 421.376 938.327 420.48 937.831 419.872C937.335 419.264 936.503 418.96 935.335 418.96C934.503 418.96 933.823 419.136 933.295 419.488C932.767 419.84 932.375 420.288 932.119 420.832C931.879 421.376 931.759 421.952 931.759 422.56V430H929.647Z" fill="#656AFF"/>
<path d="M720.754 301.766L709.455 295.924L710.359 294.176L712.491 295.278C711.919 294.676 711.571 293.974 711.446 293.17C711.314 292.346 711.443 291.557 711.832 290.803C712.339 289.823 712.942 289.18 713.64 288.874C714.324 288.562 715.044 288.475 715.801 288.614C715.296 287.884 714.991 287.132 714.887 286.358C714.79 285.569 714.951 284.77 715.37 283.96C715.973 282.795 716.798 282.069 717.847 281.782C718.882 281.489 720.152 281.731 721.659 282.51L728.801 286.203L727.831 288.079L721.115 284.607C719.992 284.026 719.093 283.814 718.419 283.969C717.751 284.11 717.212 284.579 716.8 285.375C716.565 285.83 716.473 286.322 716.523 286.852C716.559 287.375 716.748 287.879 717.093 288.363C717.422 288.84 717.907 289.243 718.547 289.574L725.262 293.046L724.292 294.922L717.577 291.45C716.454 290.87 715.555 290.657 714.88 290.812C714.206 290.968 713.666 291.437 713.262 292.218C713.027 292.673 712.934 293.166 712.984 293.696C713.02 294.219 713.21 294.722 713.554 295.206C713.884 295.683 714.369 296.087 715.009 296.417L721.724 299.89L720.754 301.766ZM732.384 279.794C731.958 280.619 731.445 281.245 730.845 281.673C730.238 282.08 729.595 282.297 728.915 282.323C728.22 282.343 727.539 282.18 726.871 281.834C725.748 281.254 725.107 280.508 724.948 279.597C724.796 278.672 725.039 277.591 725.679 276.354L727.575 272.688L726.807 272.291C725.841 271.791 725.059 271.666 724.461 271.916C723.871 272.151 723.352 272.702 722.904 273.569C722.485 274.379 722.337 275.05 722.458 275.581C722.566 276.105 722.8 276.487 723.162 276.728L722.192 278.604C721.603 278.246 721.169 277.76 720.891 277.148C720.599 276.529 720.476 275.826 720.523 275.04C720.569 274.253 720.813 273.433 721.254 272.581C721.717 271.685 722.259 270.984 722.882 270.477C723.49 269.963 724.184 269.683 724.965 269.636C725.731 269.582 726.597 269.805 727.564 270.304L732.148 272.674C732.744 272.983 733.27 273.255 733.725 273.49C734.173 273.704 734.625 273.892 735.081 274.056L734.232 275.697C733.883 275.571 733.563 275.441 733.271 275.309C732.965 275.169 732.628 275.003 732.258 274.812C732.701 275.419 732.956 276.163 733.022 277.044C733.089 277.925 732.876 278.842 732.384 279.794ZM730.888 278.507C731.197 277.91 731.369 277.315 731.406 276.722C731.45 276.114 731.339 275.562 731.074 275.064C730.816 274.553 730.389 274.143 729.792 273.834L729.024 273.437L727.294 276.784C726.934 277.481 726.793 278.101 726.871 278.646C726.936 279.184 727.266 279.607 727.863 279.916C728.389 280.187 728.918 280.227 729.45 280.034C729.99 279.826 730.469 279.317 730.888 278.507ZM743.531 268.686C742.965 269.781 742.363 270.596 741.726 271.131C741.089 271.666 740.445 271.972 739.793 272.049C739.14 272.126 738.494 272.053 737.853 271.83L738.867 269.868C739.395 269.962 739.897 269.879 740.373 269.621C740.849 269.362 741.333 268.757 741.825 267.805C742.42 266.653 742.58 265.664 742.305 264.838C742.03 264.011 741.381 263.333 740.358 262.804L738.546 261.867C739.13 262.584 739.43 263.378 739.447 264.252C739.471 265.111 739.248 265.995 738.778 266.905C738.3 267.828 737.665 268.536 736.871 269.026C736.077 269.516 735.158 269.743 734.114 269.708C733.077 269.658 731.94 269.313 730.703 268.674L730.277 268.453C729.112 267.851 728.234 267.145 727.644 266.335C727.047 265.504 726.715 264.63 726.649 263.714C726.59 262.782 726.795 261.862 727.266 260.953C727.765 259.986 728.419 259.261 729.227 258.779C730.021 258.288 730.84 258.081 731.683 258.157L729.551 257.055L730.455 255.307L741.328 260.928C742.863 261.722 743.832 262.79 744.236 264.134C744.64 265.478 744.405 266.995 743.531 268.686ZM737.336 265.619C737.688 264.936 737.855 264.266 737.835 263.607C737.823 262.934 737.641 262.327 737.291 261.786C736.933 261.223 736.428 260.772 735.774 260.434L734.069 259.553C733.486 259.251 732.883 259.129 732.259 259.185C731.643 259.226 731.057 259.437 730.501 259.816C729.952 260.18 729.502 260.704 729.149 261.386C728.679 262.296 728.616 263.236 728.961 264.206C729.305 265.177 730.067 265.967 731.247 266.577L731.673 266.798C732.967 267.467 734.116 267.665 735.122 267.392C736.127 267.119 736.865 266.528 737.336 265.619ZM743.52 257.732L732.221 251.891L733.125 250.142L735.257 251.245C734.764 250.665 734.448 249.935 734.31 249.053C734.179 248.157 734.378 247.197 734.907 246.173C735.642 244.752 736.569 243.899 737.689 243.613C738.803 243.306 740.091 243.531 741.555 244.288L748.591 247.926L747.621 249.802L741.012 246.385C739.96 245.841 739.05 245.65 738.282 245.811C737.514 245.973 736.862 246.572 736.326 247.609C735.944 248.349 735.788 249.033 735.858 249.664C735.928 250.295 736.146 250.849 736.512 251.326C736.885 251.789 737.341 252.16 737.881 252.439L744.49 255.856L743.52 257.732ZM750.412 244.403L739.113 238.561L740.083 236.685L751.382 242.527L750.412 244.403ZM738.105 236.851C737.914 237.221 737.636 237.464 737.269 237.581C736.902 237.698 736.534 237.66 736.165 237.469C735.795 237.278 735.552 236.999 735.436 236.633C735.319 236.266 735.356 235.898 735.547 235.529C735.738 235.159 736.017 234.916 736.383 234.799C736.75 234.683 737.118 234.72 737.488 234.911C737.857 235.102 738.1 235.381 738.217 235.747C738.334 236.114 738.296 236.482 738.105 236.851ZM755.507 234.81C755.096 235.605 754.637 236.197 754.131 236.584C753.632 236.956 753.078 237.138 752.47 237.13C751.855 237.1 751.178 236.894 750.439 236.512L744.001 233.183L743.119 234.889L741.456 234.029L742.338 232.324L739.779 231.001L740.749 229.125L743.308 230.447L744.873 227.42L746.536 228.28L744.971 231.307L751.196 234.526C751.835 234.856 752.367 234.96 752.791 234.837C753.215 234.714 753.625 234.269 754.022 233.501C754.242 233.075 754.442 232.638 754.619 232.189L756.282 233.049C756.171 233.334 756.053 233.615 755.927 233.892C755.816 234.177 755.676 234.483 755.507 234.81ZM759.939 226.499C759.233 227.864 758.313 228.685 757.179 228.963C756.045 229.241 754.66 228.958 753.026 228.112L746.31 224.64L747.28 222.764L753.889 226.181C754.941 226.725 755.847 226.923 756.607 226.776C757.375 226.615 758.013 226.044 758.52 225.063C758.887 224.353 759.032 223.689 758.955 223.072C758.877 222.456 758.652 221.916 758.279 221.453C757.892 220.983 757.435 220.612 756.909 220.34L750.3 216.923L751.27 215.047L762.569 220.889L761.665 222.637L759.534 221.535C760.027 222.114 760.342 222.844 760.481 223.726C760.619 224.609 760.438 225.533 759.939 226.499ZM766.59 213.634C766.113 214.558 765.477 215.265 764.683 215.755C763.889 216.245 762.963 216.469 761.905 216.426C760.854 216.369 759.688 216.009 758.409 215.348L757.983 215.128C756.789 214.51 755.883 213.79 755.264 212.965C754.653 212.127 754.314 211.249 754.248 210.333C754.189 209.401 754.395 208.481 754.865 207.571C755.335 206.662 755.942 205.976 756.685 205.514C757.436 205.037 758.244 204.816 759.11 204.849L753.46 201.928L754.43 200.052L769.353 207.767L768.449 209.516L766.318 208.413C766.867 209.058 767.178 209.849 767.252 210.787C767.31 211.719 767.09 212.667 766.59 213.634ZM765.148 212.348C765.501 211.665 765.667 210.995 765.648 210.336C765.621 209.656 765.425 209.042 765.061 208.493C764.689 207.923 764.162 207.461 763.48 207.108L761.774 206.227C761.163 205.911 760.539 205.777 759.901 205.826C759.257 205.853 758.657 206.056 758.101 206.434C757.552 206.799 757.101 207.323 756.748 208.005C756.278 208.914 756.222 209.858 756.581 210.836C756.926 211.807 757.716 212.612 758.953 213.251L759.379 213.472C760.715 214.163 761.893 214.375 762.913 214.11C763.933 213.845 764.678 213.257 765.148 212.348ZM773.758 199.771C773.265 200.724 772.596 201.512 771.751 202.138C770.912 202.749 769.934 203.09 768.817 203.161C767.707 203.217 766.498 202.908 765.191 202.232L764.764 202.011C763.514 201.365 762.608 200.59 762.048 199.688C761.473 198.779 761.193 197.823 761.206 196.821C761.206 195.812 761.444 194.846 761.922 193.922C762.782 192.259 763.901 191.208 765.281 190.769C766.661 190.33 768.183 190.54 769.846 191.4L771.039 192.017L766.608 200.587C767.49 201.043 768.285 201.229 768.995 201.145C769.711 201.048 770.33 200.791 770.851 200.376C771.365 199.939 771.766 199.444 772.052 198.89C772.493 198.037 772.689 197.31 772.64 196.708C772.598 196.092 772.38 195.556 771.985 195.1L772.933 193.266C773.896 194.052 774.43 195.04 774.535 196.229C774.634 197.397 774.375 198.578 773.758 199.771ZM763.683 194.697C763.381 195.28 763.208 195.893 763.164 196.537C763.105 197.173 763.222 197.783 763.515 198.366C763.815 198.936 764.334 199.411 765.073 199.793L768.59 192.993C767.801 192.603 767.098 192.447 766.481 192.524C765.858 192.58 765.318 192.805 764.862 193.2C764.392 193.587 763.999 194.086 763.683 194.697Z" fill="#656AFF"/>
<path d="M213.596 123L208.244 110.28H212.324L215.54 118.752L218.468 110.28H222.164L217.316 123H213.596ZM229.246 123.312C227.998 123.312 226.878 123.08 225.886 122.616C224.894 122.136 224.102 121.408 223.51 120.432C222.934 119.456 222.646 118.232 222.646 116.76V116.28C222.646 114.872 222.926 113.704 223.486 112.776C224.046 111.848 224.806 111.152 225.766 110.688C226.742 110.208 227.822 109.968 229.006 109.968C231.102 109.968 232.686 110.512 233.758 111.6C234.83 112.672 235.366 114.232 235.366 116.28V117.624H226.438C226.47 118.248 226.614 118.768 226.87 119.184C227.142 119.6 227.486 119.904 227.902 120.096C228.318 120.272 228.766 120.36 229.246 120.36C229.95 120.36 230.502 120.256 230.902 120.048C231.318 119.824 231.59 119.528 231.718 119.16H235.126C234.87 120.552 234.238 121.592 233.23 122.28C232.222 122.968 230.894 123.312 229.246 123.312ZM229.126 112.92C228.678 112.92 228.254 112.992 227.854 113.136C227.454 113.28 227.126 113.52 226.87 113.856C226.63 114.176 226.494 114.616 226.462 115.176H231.742C231.742 114.584 231.622 114.128 231.382 113.808C231.142 113.472 230.822 113.24 230.422 113.112C230.038 112.984 229.606 112.92 229.126 112.92ZM243.282 123.312C242.034 123.312 240.922 123.072 239.946 122.592C238.97 122.112 238.202 121.384 237.642 120.408C237.082 119.432 236.802 118.216 236.802 116.76V116.28C236.802 114.936 237.09 113.792 237.666 112.848C238.258 111.904 239.042 111.192 240.018 110.712C241.01 110.216 242.098 109.968 243.282 109.968C244.562 109.968 245.634 110.192 246.498 110.64C247.362 111.072 248.026 111.656 248.49 112.392C248.954 113.128 249.218 113.944 249.282 114.84H245.466C245.354 114.264 245.122 113.824 244.77 113.52C244.434 113.2 243.938 113.04 243.282 113.04C242.77 113.04 242.306 113.16 241.89 113.4C241.49 113.64 241.17 114 240.93 114.48C240.706 114.944 240.594 115.544 240.594 116.28V116.76C240.594 117.544 240.706 118.192 240.93 118.704C241.154 119.216 241.466 119.6 241.866 119.856C242.266 120.096 242.738 120.216 243.282 120.216C243.842 120.216 244.314 120.072 244.698 119.784C245.098 119.48 245.354 119.032 245.466 118.44H249.282C249.218 119.432 248.93 120.296 248.418 121.032C247.906 121.768 247.21 122.336 246.33 122.736C245.466 123.12 244.45 123.312 243.282 123.312ZM256.487 123.144C255.431 123.144 254.567 123.008 253.895 122.736C253.223 122.448 252.727 121.984 252.407 121.344C252.087 120.688 251.927 119.8 251.927 118.68V113.304H250.367V110.28H251.927V107.4H255.623V110.28H258.527V113.304H255.623V118.08C255.623 118.8 255.735 119.312 255.959 119.616C256.199 119.92 256.655 120.072 257.327 120.072C257.807 120.072 258.287 120.048 258.767 120V123C258.463 123.048 258.143 123.08 257.807 123.096C257.471 123.128 257.031 123.144 256.487 123.144ZM266.696 123.312C265.512 123.312 264.424 123.08 263.432 122.616C262.456 122.152 261.672 121.432 261.08 120.456C260.504 119.464 260.216 118.232 260.216 116.76V116.28C260.216 114.904 260.504 113.752 261.08 112.824C261.672 111.88 262.456 111.168 263.432 110.688C264.424 110.208 265.512 109.968 266.696 109.968C267.896 109.968 268.984 110.208 269.96 110.688C270.936 111.168 271.712 111.88 272.288 112.824C272.88 113.752 273.176 114.904 273.176 116.28V116.76C273.176 118.216 272.88 119.432 272.288 120.408C271.712 121.368 270.936 122.096 269.96 122.592C268.984 123.072 267.896 123.312 266.696 123.312ZM266.696 120.24C267.272 120.24 267.76 120.104 268.16 119.832C268.56 119.544 268.864 119.136 269.072 118.608C269.28 118.08 269.384 117.464 269.384 116.76V116.28C269.384 115.64 269.28 115.08 269.072 114.6C268.864 114.12 268.56 113.744 268.16 113.472C267.76 113.184 267.272 113.04 266.696 113.04C266.12 113.04 265.632 113.184 265.232 113.472C264.832 113.744 264.528 114.12 264.32 114.6C264.112 115.08 264.008 115.64 264.008 116.28V116.76C264.008 117.496 264.112 118.128 264.32 118.656C264.528 119.168 264.832 119.56 265.232 119.832C265.632 120.104 266.12 120.24 266.696 120.24ZM275.087 123V110.28H278.495V112.008C278.623 111.72 278.839 111.416 279.143 111.096C279.447 110.776 279.815 110.512 280.247 110.304C280.679 110.08 281.159 109.968 281.687 109.968C281.959 109.968 282.175 109.984 282.335 110.016C282.495 110.048 282.639 110.08 282.767 110.112V113.304C282.687 113.256 282.503 113.2 282.215 113.136C281.927 113.072 281.599 113.04 281.231 113.04C280.655 113.04 280.183 113.152 279.815 113.376C279.463 113.6 279.199 113.904 279.023 114.288C278.863 114.672 278.783 115.104 278.783 115.584V123H275.087ZM290.198 117.264V115.296H305.798V117.264H290.198ZM318.314 123.24C317.386 123.24 316.594 123.072 315.938 122.736C315.298 122.384 314.81 121.912 314.474 121.32C314.138 120.712 313.97 120.032 313.97 119.28C313.97 118.016 314.338 117.104 315.074 116.544C315.826 115.984 316.898 115.704 318.29 115.704H322.418V114.84C322.418 113.752 322.17 113 321.674 112.584C321.194 112.168 320.466 111.96 319.49 111.96C318.578 111.96 317.914 112.136 317.498 112.488C317.082 112.824 316.85 113.208 316.802 113.64H314.69C314.738 112.952 314.97 112.344 315.386 111.816C315.802 111.272 316.37 110.84 317.09 110.52C317.81 110.2 318.65 110.04 319.61 110.04C320.618 110.04 321.49 110.2 322.226 110.52C322.962 110.824 323.53 111.312 323.93 111.984C324.33 112.64 324.53 113.512 324.53 114.6V119.76C324.53 120.432 324.53 121.024 324.53 121.536C324.546 122.032 324.586 122.52 324.65 123H322.802C322.754 122.632 322.722 122.288 322.706 121.968C322.69 121.632 322.682 121.256 322.682 120.84C322.346 121.512 321.802 122.08 321.05 122.544C320.298 123.008 319.386 123.24 318.314 123.24ZM318.77 121.32C319.442 121.32 320.05 121.2 320.594 120.96C321.154 120.72 321.594 120.368 321.914 119.904C322.25 119.44 322.418 118.872 322.418 118.2V117.336H318.65C317.866 117.336 317.25 117.496 316.802 117.816C316.354 118.12 316.13 118.608 316.13 119.28C316.13 119.872 316.338 120.36 316.754 120.744C317.186 121.128 317.858 121.32 318.77 121.32ZM338.94 123.12C338.044 123.12 337.308 122.984 336.732 122.712C336.172 122.44 335.756 122.032 335.484 121.488C335.228 120.928 335.1 120.232 335.1 119.4V112.152H333.18V110.28H335.1V107.4H337.212V110.28H340.62V112.152H337.212V119.16C337.212 119.88 337.364 120.4 337.668 120.72C337.972 121.04 338.556 121.2 339.42 121.2C339.9 121.2 340.38 121.176 340.86 121.128V123C340.556 123.032 340.252 123.056 339.948 123.072C339.644 123.104 339.308 123.12 338.94 123.12ZM343.869 123V106.2H345.981V112.56C346.205 112.112 346.509 111.696 346.893 111.312C347.277 110.928 347.741 110.624 348.285 110.4C348.845 110.16 349.477 110.04 350.181 110.04C351.781 110.04 352.965 110.472 353.733 111.336C354.517 112.184 354.909 113.432 354.909 115.08V123H352.797V115.56C352.797 114.376 352.549 113.48 352.053 112.872C351.557 112.264 350.725 111.96 349.557 111.96C348.725 111.96 348.045 112.136 347.517 112.488C346.989 112.84 346.597 113.288 346.341 113.832C346.101 114.376 345.981 114.952 345.981 115.56V123H343.869ZM358.875 123V110.28H360.987V123H358.875ZM359.931 108.6C359.515 108.6 359.171 108.464 358.899 108.192C358.627 107.92 358.491 107.576 358.491 107.16C358.491 106.744 358.627 106.4 358.899 106.128C359.171 105.856 359.515 105.72 359.931 105.72C360.347 105.72 360.691 105.856 360.963 106.128C361.235 106.4 361.371 106.744 361.371 107.16C361.371 107.576 361.235 107.92 360.963 108.192C360.691 108.464 360.347 108.6 359.931 108.6ZM365.057 123V110.28H367.025V112.68C367.313 111.976 367.817 111.36 368.537 110.832C369.273 110.304 370.217 110.04 371.369 110.04C372.969 110.04 374.153 110.472 374.921 111.336C375.705 112.184 376.097 113.432 376.097 115.08V123H373.985V115.56C373.985 114.376 373.737 113.48 373.241 112.872C372.745 112.264 371.913 111.96 370.745 111.96C369.913 111.96 369.233 112.136 368.705 112.488C368.177 112.84 367.785 113.288 367.529 113.832C367.289 114.376 367.169 114.952 367.169 115.56V123H365.057ZM384.862 128.04C383.63 128.04 382.63 127.88 381.862 127.56C381.094 127.24 380.526 126.808 380.158 126.264C379.79 125.72 379.558 125.112 379.462 124.44H381.67C381.83 124.952 382.134 125.36 382.582 125.664C383.03 125.968 383.79 126.12 384.862 126.12C386.158 126.12 387.11 125.808 387.718 125.184C388.326 124.56 388.63 123.672 388.63 122.52V120.48C388.262 121.328 387.694 121.96 386.926 122.376C386.174 122.792 385.286 123 384.262 123C383.222 123 382.302 122.76 381.502 122.28C380.702 121.8 380.078 121.088 379.63 120.144C379.198 119.2 378.982 118.032 378.982 116.64V116.16C378.982 114.848 379.206 113.744 379.654 112.848C380.118 111.936 380.742 111.24 381.526 110.76C382.326 110.28 383.238 110.04 384.262 110.04C385.35 110.04 386.294 110.288 387.094 110.784C387.894 111.264 388.454 111.896 388.774 112.68V110.28H390.742V122.52C390.742 124.248 390.238 125.6 389.23 126.576C388.222 127.552 386.766 128.04 384.862 128.04ZM384.742 121.128C385.51 121.128 386.182 120.968 386.758 120.648C387.35 120.328 387.806 119.888 388.126 119.328C388.462 118.752 388.63 118.096 388.63 117.36V115.44C388.63 114.784 388.462 114.192 388.126 113.664C387.806 113.136 387.35 112.712 386.758 112.392C386.182 112.072 385.51 111.912 384.742 111.912C383.718 111.912 382.854 112.288 382.15 113.04C381.446 113.792 381.094 114.832 381.094 116.16V116.64C381.094 118.096 381.446 119.208 382.15 119.976C382.854 120.744 383.718 121.128 384.742 121.128ZM402.868 123L399.388 110.28H401.692L404.14 120.12L407.452 110.28H409.324L412.756 120.12L415.18 110.28H417.388L413.908 123H411.796L408.34 113.16L404.98 123H402.868ZM420.258 123V110.28H422.37V123H420.258ZM421.314 108.6C420.898 108.6 420.554 108.464 420.282 108.192C420.01 107.92 419.874 107.576 419.874 107.16C419.874 106.744 420.01 106.4 420.282 106.128C420.554 105.856 420.898 105.72 421.314 105.72C421.73 105.72 422.074 105.856 422.346 106.128C422.618 106.4 422.754 106.744 422.754 107.16C422.754 107.576 422.618 107.92 422.346 108.192C422.074 108.464 421.73 108.6 421.314 108.6ZM431.12 123.12C430.224 123.12 429.488 122.984 428.912 122.712C428.352 122.44 427.936 122.032 427.664 121.488C427.408 120.928 427.28 120.232 427.28 119.4V112.152H425.36V110.28H427.28V107.4H429.392V110.28H432.8V112.152H429.392V119.16C429.392 119.88 429.544 120.4 429.848 120.72C430.152 121.04 430.736 121.2 431.6 121.2C432.08 121.2 432.56 121.176 433.04 121.128V123C432.736 123.032 432.432 123.056 432.128 123.072C431.824 123.104 431.488 123.12 431.12 123.12ZM436.049 123V106.2H438.161V112.56C438.385 112.112 438.689 111.696 439.073 111.312C439.457 110.928 439.921 110.624 440.465 110.4C441.025 110.16 441.657 110.04 442.361 110.04C443.961 110.04 445.145 110.472 445.913 111.336C446.697 112.184 447.089 113.432 447.089 115.08V123H444.977V115.56C444.977 114.376 444.729 113.48 444.233 112.872C443.737 112.264 442.905 111.96 441.737 111.96C440.905 111.96 440.225 112.136 439.697 112.488C439.169 112.84 438.777 113.288 438.521 113.832C438.281 114.376 438.161 114.952 438.161 115.56V123H436.049ZM456.815 123V110.28H458.783V112.68C459.055 111.896 459.519 111.264 460.175 110.784C460.847 110.288 461.607 110.04 462.455 110.04C463.559 110.04 464.407 110.28 464.999 110.76C465.591 111.224 465.999 111.824 466.223 112.56C466.639 111.776 467.167 111.16 467.807 110.712C468.463 110.264 469.247 110.04 470.159 110.04C471.471 110.04 472.495 110.44 473.231 111.24C473.967 112.024 474.335 113.264 474.335 114.96V123H472.223V115.44C472.223 114.176 471.999 113.28 471.551 112.752C471.119 112.224 470.455 111.96 469.559 111.96C469.047 111.96 468.567 112.104 468.119 112.392C467.671 112.664 467.311 113.064 467.039 113.592C466.767 114.104 466.631 114.72 466.631 115.44V123H464.519V115.44C464.519 114.176 464.295 113.28 463.847 112.752C463.399 112.224 462.735 111.96 461.855 111.96C461.343 111.96 460.863 112.104 460.415 112.392C459.967 112.664 459.607 113.064 459.335 113.592C459.063 114.104 458.927 114.72 458.927 115.44V123H456.815ZM481.673 123.24C480.745 123.24 479.953 123.072 479.297 122.736C478.657 122.384 478.169 121.912 477.833 121.32C477.497 120.712 477.329 120.032 477.329 119.28C477.329 118.016 477.697 117.104 478.433 116.544C479.185 115.984 480.257 115.704 481.649 115.704H485.777V114.84C485.777 113.752 485.529 113 485.033 112.584C484.553 112.168 483.825 111.96 482.849 111.96C481.937 111.96 481.273 112.136 480.857 112.488C480.441 112.824 480.209 113.208 480.161 113.64H478.049C478.097 112.952 478.329 112.344 478.745 111.816C479.161 111.272 479.729 110.84 480.449 110.52C481.169 110.2 482.009 110.04 482.969 110.04C483.977 110.04 484.849 110.2 485.585 110.52C486.321 110.824 486.889 111.312 487.289 111.984C487.689 112.64 487.889 113.512 487.889 114.6V119.76C487.889 120.432 487.889 121.024 487.889 121.536C487.905 122.032 487.945 122.52 488.009 123H486.161C486.113 122.632 486.081 122.288 486.065 121.968C486.049 121.632 486.041 121.256 486.041 120.84C485.705 121.512 485.161 122.08 484.409 122.544C483.657 123.008 482.745 123.24 481.673 123.24ZM482.129 121.32C482.801 121.32 483.409 121.2 483.953 120.96C484.513 120.72 484.953 120.368 485.273 119.904C485.609 119.44 485.777 118.872 485.777 118.2V117.336H482.009C481.225 117.336 480.609 117.496 480.161 117.816C479.713 118.12 479.489 118.608 479.489 119.28C479.489 119.872 479.697 120.36 480.113 120.744C480.545 121.128 481.217 121.32 482.129 121.32ZM496.659 128.04C495.427 128.04 494.427 127.88 493.659 127.56C492.891 127.24 492.323 126.808 491.955 126.264C491.587 125.72 491.355 125.112 491.259 124.44H493.467C493.627 124.952 493.931 125.36 494.379 125.664C494.827 125.968 495.587 126.12 496.659 126.12C497.955 126.12 498.907 125.808 499.515 125.184C500.123 124.56 500.427 123.672 500.427 122.52V120.48C500.059 121.328 499.491 121.96 498.723 122.376C497.971 122.792 497.083 123 496.059 123C495.019 123 494.099 122.76 493.299 122.28C492.499 121.8 491.875 121.088 491.427 120.144C490.995 119.2 490.779 118.032 490.779 116.64V116.16C490.779 114.848 491.003 113.744 491.451 112.848C491.915 111.936 492.539 111.24 493.323 110.76C494.123 110.28 495.035 110.04 496.059 110.04C497.147 110.04 498.091 110.288 498.891 110.784C499.691 111.264 500.251 111.896 500.571 112.68V110.28H502.539V122.52C502.539 124.248 502.035 125.6 501.027 126.576C500.019 127.552 498.563 128.04 496.659 128.04ZM496.539 121.128C497.307 121.128 497.979 120.968 498.555 120.648C499.147 120.328 499.603 119.888 499.923 119.328C500.259 118.752 500.427 118.096 500.427 117.36V115.44C500.427 114.784 500.259 114.192 499.923 113.664C499.603 113.136 499.147 112.712 498.555 112.392C497.979 112.072 497.307 111.912 496.539 111.912C495.515 111.912 494.651 112.288 493.947 113.04C493.243 113.792 492.891 114.832 492.891 116.16V116.64C492.891 118.096 493.243 119.208 493.947 119.976C494.651 120.744 495.515 121.128 496.539 121.128ZM506.385 123V110.28H508.353V112.68C508.641 111.976 509.145 111.36 509.865 110.832C510.601 110.304 511.545 110.04 512.697 110.04C514.297 110.04 515.481 110.472 516.249 111.336C517.033 112.184 517.425 113.432 517.425 115.08V123H515.313V115.56C515.313 114.376 515.065 113.48 514.569 112.872C514.073 112.264 513.241 111.96 512.073 111.96C511.241 111.96 510.561 112.136 510.033 112.488C509.505 112.84 509.113 113.288 508.857 113.832C508.617 114.376 508.497 114.952 508.497 115.56V123H506.385ZM521.39 123V110.28H523.502V123H521.39ZM522.446 108.6C522.03 108.6 521.686 108.464 521.414 108.192C521.142 107.92 521.006 107.576 521.006 107.16C521.006 106.744 521.142 106.4 521.414 106.128C521.686 105.856 522.03 105.72 522.446 105.72C522.862 105.72 523.206 105.856 523.478 106.128C523.75 106.4 523.886 106.744 523.886 107.16C523.886 107.576 523.75 107.92 523.478 108.192C523.206 108.464 522.862 108.6 522.446 108.6ZM532.252 123.12C531.356 123.12 530.62 122.984 530.044 122.712C529.484 122.44 529.068 122.032 528.796 121.488C528.54 120.928 528.412 120.232 528.412 119.4V112.152H526.492V110.28H528.412V107.4H530.524V110.28H533.932V112.152H530.524V119.16C530.524 119.88 530.676 120.4 530.98 120.72C531.284 121.04 531.868 121.2 532.732 121.2C533.212 121.2 533.692 121.176 534.172 121.128V123C533.868 123.032 533.564 123.056 533.26 123.072C532.956 123.104 532.62 123.12 532.252 123.12ZM541.67 123.24C540.134 123.24 538.982 122.8 538.214 121.92C537.446 121.04 537.062 119.68 537.062 117.84V110.28H539.174V117.72C539.174 118.904 539.414 119.8 539.894 120.408C540.39 121.016 541.19 121.32 542.294 121.32C543.094 121.32 543.75 121.144 544.262 120.792C544.774 120.44 545.15 119.992 545.39 119.448C545.63 118.888 545.75 118.312 545.75 117.72V110.28H547.862V123H545.894V120.6C545.606 121.304 545.102 121.92 544.382 122.448C543.662 122.976 542.758 123.24 541.67 123.24ZM556.153 123.24C555.113 123.24 554.193 123 553.393 122.52C552.593 122.04 551.969 121.32 551.521 120.36C551.089 119.4 550.873 118.2 550.873 116.76V116.28C550.873 114.936 551.097 113.8 551.545 112.872C552.009 111.944 552.633 111.24 553.417 110.76C554.217 110.28 555.129 110.04 556.153 110.04C557.177 110.04 558.065 110.264 558.817 110.712C559.585 111.16 560.153 111.776 560.521 112.56V106.2H562.633V123H560.665V120.6C560.345 121.384 559.785 122.024 558.985 122.52C558.185 123 557.241 123.24 556.153 123.24ZM556.633 121.368C557.401 121.368 558.073 121.208 558.649 120.888C559.241 120.552 559.697 120.096 560.017 119.52C560.353 118.928 560.521 118.248 560.521 117.48V115.56C560.521 114.872 560.353 114.256 560.017 113.712C559.697 113.152 559.241 112.712 558.649 112.392C558.073 112.072 557.401 111.912 556.633 111.912C555.609 111.912 554.745 112.296 554.041 113.064C553.337 113.816 552.985 114.888 552.985 116.28V116.76C552.985 118.264 553.337 119.408 554.041 120.192C554.745 120.976 555.609 121.368 556.633 121.368ZM571.759 123.24C570.687 123.24 569.679 123.008 568.735 122.544C567.807 122.08 567.055 121.368 566.479 120.408C565.919 119.448 565.639 118.232 565.639 116.76V116.28C565.639 114.872 565.911 113.712 566.455 112.8C566.999 111.872 567.719 111.184 568.615 110.736C569.511 110.272 570.479 110.04 571.519 110.04C573.391 110.04 574.839 110.552 575.863 111.576C576.887 112.6 577.399 114.048 577.399 115.92V117.264H567.751C567.751 118.256 567.951 119.048 568.351 119.64C568.767 120.232 569.279 120.664 569.887 120.936C570.511 121.192 571.135 121.32 571.759 121.32C572.719 121.32 573.455 121.16 573.967 120.84C574.495 120.52 574.871 120.08 575.095 119.52H577.159C576.903 120.736 576.271 121.664 575.263 122.304C574.271 122.928 573.103 123.24 571.759 123.24ZM571.639 111.96C570.983 111.96 570.359 112.088 569.767 112.344C569.175 112.584 568.687 112.968 568.303 113.496C567.935 114.024 567.751 114.704 567.751 115.536H575.407C575.391 114.656 575.207 113.96 574.855 113.448C574.519 112.92 574.071 112.544 573.511 112.32C572.951 112.08 572.327 111.96 571.639 111.96ZM586.64 117.24V116.76C586.64 115.192 586.856 113.768 587.288 112.488C587.736 111.208 588.232 110.096 588.776 109.152C589.096 108.608 589.432 108.096 589.784 107.616C590.136 107.12 590.512 106.648 590.912 106.2H593.36C592.928 106.648 592.52 107.12 592.136 107.616C591.752 108.096 591.4 108.608 591.08 109.152C590.504 110.08 589.976 111.192 589.496 112.488C589.032 113.768 588.8 115.192 588.8 116.76V117.24C588.8 118.808 589.032 120.24 589.496 121.536C589.976 122.832 590.504 123.944 591.08 124.872C591.4 125.416 591.752 125.936 592.136 126.432C592.52 126.928 592.928 127.384 593.36 127.8H590.816C590.416 127.384 590.04 126.928 589.688 126.432C589.352 125.936 589.032 125.416 588.728 124.872C588.2 123.944 587.72 122.832 587.288 121.536C586.856 120.24 586.64 118.808 586.64 117.24ZM599.358 123.12C598.478 123.12 597.758 122.984 597.198 122.712C596.654 122.424 596.254 121.984 595.998 121.392C595.758 120.784 595.638 120 595.638 119.04V106.2H597.75V119.04C597.75 119.872 597.886 120.44 598.158 120.744C598.43 121.048 598.91 121.2 599.598 121.2C599.774 121.2 599.926 121.2 600.054 121.2C600.182 121.184 600.31 121.168 600.438 121.152V123.024C600.358 123.04 600.246 123.056 600.102 123.072C599.974 123.088 599.838 123.096 599.694 123.096C599.566 123.112 599.454 123.12 599.358 123.12ZM608.251 123.24C607.179 123.24 606.171 123.008 605.227 122.544C604.299 122.08 603.547 121.368 602.971 120.408C602.411 119.448 602.131 118.232 602.131 116.76V116.28C602.131 114.872 602.403 113.712 602.947 112.8C603.491 111.872 604.211 111.184 605.107 110.736C606.003 110.272 606.971 110.04 608.011 110.04C609.883 110.04 611.331 110.552 612.355 111.576C613.379 112.6 613.891 114.048 613.891 115.92V117.264H604.243C604.243 118.256 604.443 119.048 604.843 119.64C605.259 120.232 605.771 120.664 606.379 120.936C607.003 121.192 607.627 121.32 608.251 121.32C609.211 121.32 609.947 121.16 610.459 120.84C610.987 120.52 611.363 120.08 611.587 119.52H613.651C613.395 120.736 612.763 121.664 611.755 122.304C610.763 122.928 609.595 123.24 608.251 123.24ZM608.131 111.96C607.475 111.96 606.851 112.088 606.259 112.344C605.667 112.584 605.179 112.968 604.795 113.496C604.427 114.024 604.243 114.704 604.243 115.536H611.899C611.883 114.656 611.699 113.96 611.347 113.448C611.011 112.92 610.563 112.544 610.003 112.32C609.443 112.08 608.819 111.96 608.131 111.96ZM616.893 123V110.28H618.861V112.68C619.149 111.976 619.653 111.36 620.373 110.832C621.109 110.304 622.053 110.04 623.205 110.04C624.805 110.04 625.989 110.472 626.757 111.336C627.541 112.184 627.933 113.432 627.933 115.08V123H625.821V115.56C625.821 114.376 625.573 113.48 625.077 112.872C624.581 112.264 623.749 111.96 622.581 111.96C621.749 111.96 621.069 112.136 620.541 112.488C620.013 112.84 619.621 113.288 619.365 113.832C619.125 114.376 619.005 114.952 619.005 115.56V123H616.893ZM636.698 128.04C635.466 128.04 634.466 127.88 633.698 127.56C632.93 127.24 632.362 126.808 631.994 126.264C631.626 125.72 631.394 125.112 631.298 124.44H633.506C633.666 124.952 633.97 125.36 634.418 125.664C634.866 125.968 635.626 126.12 636.698 126.12C637.994 126.12 638.946 125.808 639.554 125.184C640.162 124.56 640.466 123.672 640.466 122.52V120.48C640.098 121.328 639.53 121.96 638.762 122.376C638.01 122.792 637.122 123 636.098 123C635.058 123 634.138 122.76 633.338 122.28C632.538 121.8 631.914 121.088 631.466 120.144C631.034 119.2 630.818 118.032 630.818 116.64V116.16C630.818 114.848 631.042 113.744 631.49 112.848C631.954 111.936 632.578 111.24 633.362 110.76C634.162 110.28 635.074 110.04 636.098 110.04C637.186 110.04 638.13 110.288 638.93 110.784C639.73 111.264 640.29 111.896 640.61 112.68V110.28H642.578V122.52C642.578 124.248 642.074 125.6 641.066 126.576C640.058 127.552 638.602 128.04 636.698 128.04ZM636.578 121.128C637.346 121.128 638.018 120.968 638.594 120.648C639.186 120.328 639.642 119.888 639.962 119.328C640.298 118.752 640.466 118.096 640.466 117.36V115.44C640.466 114.784 640.298 114.192 639.962 113.664C639.642 113.136 639.186 112.712 638.594 112.392C638.018 112.072 637.346 111.912 636.578 111.912C635.554 111.912 634.69 112.288 633.986 113.04C633.282 113.792 632.93 114.832 632.93 116.16V116.64C632.93 118.096 633.282 119.208 633.986 119.976C634.69 120.744 635.554 121.128 636.578 121.128ZM651.104 123.12C650.208 123.12 649.472 122.984 648.896 122.712C648.336 122.44 647.92 122.032 647.648 121.488C647.392 120.928 647.264 120.232 647.264 119.4V112.152H645.344V110.28H647.264V107.4H649.376V110.28H652.784V112.152H649.376V119.16C649.376 119.88 649.528 120.4 649.832 120.72C650.136 121.04 650.72 121.2 651.584 121.2C652.064 121.2 652.544 121.176 653.024 121.128V123C652.72 123.032 652.416 123.056 652.112 123.072C651.808 123.104 651.472 123.12 651.104 123.12ZM656.033 123V106.2H658.145V112.56C658.369 112.112 658.673 111.696 659.057 111.312C659.441 110.928 659.905 110.624 660.449 110.4C661.009 110.16 661.641 110.04 662.345 110.04C663.945 110.04 665.129 110.472 665.897 111.336C666.681 112.184 667.073 113.432 667.073 115.08V123H664.961V115.56C664.961 114.376 664.713 113.48 664.217 112.872C663.721 112.264 662.889 111.96 661.721 111.96C660.889 111.96 660.209 112.136 659.681 112.488C659.153 112.84 658.761 113.288 658.505 113.832C658.265 114.376 658.145 114.952 658.145 115.56V123H656.033ZM675.839 116.76V117.24C675.839 118.808 675.615 120.232 675.167 121.512C674.735 122.792 674.247 123.904 673.703 124.848C673.399 125.392 673.063 125.904 672.695 126.384C672.343 126.88 671.967 127.352 671.567 127.8H669.119C669.551 127.352 669.959 126.88 670.343 126.384C670.727 125.904 671.079 125.392 671.399 124.848C671.975 123.92 672.495 122.808 672.959 121.512C673.439 120.216 673.679 118.792 673.679 117.24V116.76C673.679 115.192 673.439 113.76 672.959 112.464C672.495 111.168 671.975 110.056 671.399 109.128C671.079 108.568 670.727 108.048 670.343 107.568C669.959 107.072 669.551 106.616 669.119 106.2H671.663C672.063 106.616 672.431 107.072 672.767 107.568C673.119 108.048 673.447 108.568 673.751 109.128C674.279 110.056 674.759 111.168 675.191 112.464C675.623 113.76 675.839 115.192 675.839 116.76ZM267.63 161.24C266.702 161.24 265.91 161.072 265.254 160.736C264.614 160.384 264.126 159.912 263.79 159.32C263.454 158.712 263.286 158.032 263.286 157.28C263.286 156.016 263.654 155.104 264.39 154.544C265.142 153.984 266.214 153.704 267.606 153.704H271.734V152.84C271.734 151.752 271.486 151 270.99 150.584C270.51 150.168 269.782 149.96 268.806 149.96C267.894 149.96 267.23 150.136 266.814 150.488C266.398 150.824 266.166 151.208 266.118 151.64H264.006C264.054 150.952 264.286 150.344 264.702 149.816C265.118 149.272 265.686 148.84 266.406 148.52C267.126 148.2 267.966 148.04 268.926 148.04C269.934 148.04 270.806 148.2 271.542 148.52C272.278 148.824 272.846 149.312 273.246 149.984C273.646 150.64 273.846 151.512 273.846 152.6V157.76C273.846 158.432 273.846 159.024 273.846 159.536C273.862 160.032 273.902 160.52 273.966 161H272.118C272.07 160.632 272.038 160.288 272.022 159.968C272.006 159.632 271.998 159.256 271.998 158.84C271.662 159.512 271.118 160.08 270.366 160.544C269.614 161.008 268.702 161.24 267.63 161.24ZM268.086 159.32C268.758 159.32 269.366 159.2 269.91 158.96C270.47 158.72 270.91 158.368 271.23 157.904C271.566 157.44 271.734 156.872 271.734 156.2V155.336H267.966C267.182 155.336 266.566 155.496 266.118 155.816C265.67 156.12 265.446 156.608 265.446 157.28C265.446 157.872 265.654 158.36 266.07 158.744C266.502 159.128 267.174 159.32 268.086 159.32ZM277.576 161V148.28H279.544V150.68C279.832 149.976 280.336 149.36 281.056 148.832C281.792 148.304 282.736 148.04 283.888 148.04C285.488 148.04 286.672 148.472 287.44 149.336C288.224 150.184 288.616 151.432 288.616 153.08V161H286.504V153.56C286.504 152.376 286.256 151.48 285.76 150.872C285.264 150.264 284.432 149.96 283.264 149.96C282.432 149.96 281.752 150.136 281.224 150.488C280.696 150.84 280.304 151.288 280.048 151.832C279.808 152.376 279.688 152.952 279.688 153.56V161H277.576ZM296.782 161.24C295.742 161.24 294.822 161 294.022 160.52C293.222 160.04 292.598 159.32 292.15 158.36C291.718 157.4 291.502 156.2 291.502 154.76V154.28C291.502 152.936 291.726 151.8 292.174 150.872C292.638 149.944 293.262 149.24 294.046 148.76C294.846 148.28 295.758 148.04 296.782 148.04C297.806 148.04 298.694 148.264 299.446 148.712C300.214 149.16 300.782 149.776 301.15 150.56V144.2H303.262V161H301.294V158.6C300.974 159.384 300.414 160.024 299.614 160.52C298.814 161 297.87 161.24 296.782 161.24ZM297.262 159.368C298.03 159.368 298.702 159.208 299.278 158.888C299.87 158.552 300.326 158.096 300.646 157.52C300.982 156.928 301.15 156.248 301.15 155.48V153.56C301.15 152.872 300.982 152.256 300.646 151.712C300.326 151.152 299.87 150.712 299.278 150.392C298.702 150.072 298.03 149.912 297.262 149.912C296.238 149.912 295.374 150.296 294.67 151.064C293.966 151.816 293.614 152.888 293.614 154.28V154.76C293.614 156.264 293.966 157.408 294.67 158.192C295.374 158.976 296.238 159.368 297.262 159.368ZM317.548 161.24C316.508 161.24 315.588 161 314.788 160.52C313.988 160.04 313.364 159.32 312.916 158.36C312.484 157.4 312.268 156.2 312.268 154.76V154.28C312.268 152.936 312.492 151.8 312.94 150.872C313.404 149.944 314.028 149.24 314.812 148.76C315.612 148.28 316.524 148.04 317.548 148.04C318.572 148.04 319.46 148.264 320.212 148.712C320.98 149.16 321.548 149.776 321.916 150.56V144.2H324.028V161H322.06V158.6C321.74 159.384 321.18 160.024 320.38 160.52C319.58 161 318.636 161.24 317.548 161.24ZM318.028 159.368C318.796 159.368 319.468 159.208 320.044 158.888C320.636 158.552 321.092 158.096 321.412 157.52C321.748 156.928 321.916 156.248 321.916 155.48V153.56C321.916 152.872 321.748 152.256 321.412 151.712C321.092 151.152 320.636 150.712 320.044 150.392C319.468 150.072 318.796 149.912 318.028 149.912C317.004 149.912 316.14 150.296 315.436 151.064C314.732 151.816 314.38 152.888 314.38 154.28V154.76C314.38 156.264 314.732 157.408 315.436 158.192C316.14 158.976 317.004 159.368 318.028 159.368ZM328.113 161V148.28H330.225V161H328.113ZM329.169 146.6C328.753 146.6 328.409 146.464 328.137 146.192C327.865 145.92 327.729 145.576 327.729 145.16C327.729 144.744 327.865 144.4 328.137 144.128C328.409 143.856 328.753 143.72 329.169 143.72C329.585 143.72 329.929 143.856 330.201 144.128C330.473 144.4 330.609 144.744 330.609 145.16C330.609 145.576 330.473 145.92 330.201 146.192C329.929 146.464 329.585 146.6 329.169 146.6ZM334.295 161V148.28H336.263V150.68C336.455 150.168 336.719 149.72 337.055 149.336C337.391 148.936 337.799 148.624 338.279 148.4C338.775 148.16 339.327 148.04 339.935 148.04C340.255 148.04 340.511 148.056 340.703 148.088C340.911 148.12 341.095 148.16 341.255 148.208V150.176C341.047 150.096 340.839 150.04 340.631 150.008C340.439 149.976 340.167 149.96 339.815 149.96C339.175 149.96 338.599 150.112 338.087 150.416C337.575 150.72 337.167 151.144 336.863 151.688C336.559 152.216 336.407 152.84 336.407 153.56V161H334.295ZM348.692 161.24C347.62 161.24 346.612 161.008 345.668 160.544C344.74 160.08 343.988 159.368 343.412 158.408C342.852 157.448 342.572 156.232 342.572 154.76V154.28C342.572 152.872 342.844 151.712 343.388 150.8C343.932 149.872 344.652 149.184 345.548 148.736C346.444 148.272 347.412 148.04 348.452 148.04C350.324 148.04 351.772 148.552 352.796 149.576C353.82 150.6 354.332 152.048 354.332 153.92V155.264H344.684C344.684 156.256 344.884 157.048 345.284 157.64C345.7 158.232 346.212 158.664 346.82 158.936C347.444 159.192 348.068 159.32 348.692 159.32C349.652 159.32 350.388 159.16 350.9 158.84C351.428 158.52 351.804 158.08 352.028 157.52H354.092C353.836 158.736 353.204 159.664 352.196 160.304C351.204 160.928 350.036 161.24 348.692 161.24ZM348.572 149.96C347.916 149.96 347.292 150.088 346.7 150.344C346.108 150.584 345.62 150.968 345.236 151.496C344.868 152.024 344.684 152.704 344.684 153.536H352.34C352.324 152.656 352.14 151.96 351.788 151.448C351.452 150.92 351.004 150.544 350.444 150.32C349.884 150.08 349.26 149.96 348.572 149.96ZM362.254 161.24C361.166 161.24 360.182 161.008 359.302 160.544C358.438 160.064 357.75 159.344 357.238 158.384C356.742 157.424 356.494 156.216 356.494 154.76V154.28C356.494 152.904 356.766 151.752 357.31 150.824C357.854 149.896 358.566 149.2 359.446 148.736C360.326 148.272 361.262 148.04 362.254 148.04C363.262 148.04 364.126 148.224 364.846 148.592C365.582 148.944 366.174 149.432 366.622 150.056C367.07 150.664 367.374 151.352 367.534 152.12H365.374C365.118 151.512 364.758 151 364.294 150.584C363.846 150.168 363.166 149.96 362.254 149.96C361.63 149.96 361.046 150.112 360.502 150.416C359.958 150.704 359.51 151.168 359.158 151.808C358.822 152.432 358.654 153.256 358.654 154.28V154.76C358.654 155.848 358.822 156.728 359.158 157.4C359.51 158.072 359.958 158.56 360.502 158.864C361.046 159.168 361.63 159.32 362.254 159.32C363.038 159.32 363.694 159.128 364.222 158.744C364.766 158.36 365.15 157.832 365.374 157.16H367.534C367.342 157.992 366.998 158.72 366.502 159.344C366.006 159.952 365.398 160.424 364.678 160.76C363.958 161.08 363.15 161.24 362.254 161.24ZM375.092 161.12C374.196 161.12 373.46 160.984 372.884 160.712C372.324 160.44 371.908 160.032 371.636 159.488C371.38 158.928 371.252 158.232 371.252 157.4V150.152H369.332V148.28H371.252V145.4H373.364V148.28H376.772V150.152H373.364V157.16C373.364 157.88 373.516 158.4 373.82 158.72C374.124 159.04 374.708 159.2 375.572 159.2C376.052 159.2 376.532 159.176 377.012 159.128V161C376.708 161.032 376.404 161.056 376.1 161.072C375.796 161.104 375.46 161.12 375.092 161.12ZM380.262 161V148.28H382.374V161H380.262ZM381.318 146.6C380.902 146.6 380.558 146.464 380.286 146.192C380.014 145.92 379.878 145.576 379.878 145.16C379.878 144.744 380.014 144.4 380.286 144.128C380.558 143.856 380.902 143.72 381.318 143.72C381.734 143.72 382.078 143.856 382.35 144.128C382.622 144.4 382.758 144.744 382.758 145.16C382.758 145.576 382.622 145.92 382.35 146.192C382.078 146.464 381.734 146.6 381.318 146.6ZM391.723 161.24C390.651 161.24 389.643 161.008 388.699 160.544C387.771 160.064 387.019 159.344 386.443 158.384C385.883 157.424 385.603 156.216 385.603 154.76V154.28C385.603 152.904 385.883 151.752 386.443 150.824C387.019 149.896 387.771 149.2 388.699 148.736C389.643 148.272 390.651 148.04 391.723 148.04C392.811 148.04 393.819 148.272 394.747 148.736C395.675 149.2 396.419 149.896 396.979 150.824C397.555 151.752 397.843 152.904 397.843 154.28V154.76C397.843 156.216 397.555 157.424 396.979 158.384C396.419 159.344 395.675 160.064 394.747 160.544C393.819 161.008 392.811 161.24 391.723 161.24ZM391.723 159.32C392.379 159.32 393.003 159.176 393.595 158.888C394.203 158.584 394.699 158.096 395.083 157.424C395.483 156.752 395.683 155.864 395.683 154.76V154.28C395.683 153.256 395.483 152.432 395.083 151.808C394.699 151.168 394.203 150.704 393.595 150.416C393.003 150.112 392.379 149.96 391.723 149.96C391.083 149.96 390.459 150.112 389.851 150.416C389.243 150.704 388.739 151.168 388.339 151.808C387.955 152.432 387.763 153.256 387.763 154.28V154.76C387.763 155.864 387.955 156.752 388.339 157.424C388.739 158.096 389.243 158.584 389.851 158.888C390.459 159.176 391.083 159.32 391.723 159.32ZM400.834 161V148.28H402.802V150.68C403.09 149.976 403.594 149.36 404.314 148.832C405.05 148.304 405.994 148.04 407.146 148.04C408.746 148.04 409.93 148.472 410.698 149.336C411.482 150.184 411.874 151.432 411.874 153.08V161H409.762V153.56C409.762 152.376 409.514 151.48 409.018 150.872C408.522 150.264 407.69 149.96 406.522 149.96C405.69 149.96 405.01 150.136 404.482 150.488C403.954 150.84 403.562 151.288 403.306 151.832C403.066 152.376 402.946 152.952 402.946 153.56V161H400.834ZM421.84 155.24V154.76C421.84 153.192 422.056 151.768 422.488 150.488C422.936 149.208 423.432 148.096 423.976 147.152C424.296 146.608 424.632 146.096 424.984 145.616C425.336 145.12 425.712 144.648 426.112 144.2H428.56C428.128 144.648 427.72 145.12 427.336 145.616C426.952 146.096 426.6 146.608 426.28 147.152C425.704 148.08 425.176 149.192 424.696 150.488C424.232 151.768 424 153.192 424 154.76V155.24C424 156.808 424.232 158.24 424.696 159.536C425.176 160.832 425.704 161.944 426.28 162.872C426.6 163.416 426.952 163.936 427.336 164.432C427.72 164.928 428.128 165.384 428.56 165.8H426.016C425.616 165.384 425.24 164.928 424.888 164.432C424.552 163.936 424.232 163.416 423.928 162.872C423.4 161.944 422.92 160.832 422.488 159.536C422.056 158.24 421.84 156.808 421.84 155.24ZM432.397 161.24C432.093 161.24 431.813 161.16 431.557 161C431.301 160.856 431.093 160.656 430.933 160.4C430.789 160.144 430.717 159.864 430.717 159.56C430.717 159.08 430.877 158.68 431.197 158.36C431.533 158.04 431.933 157.88 432.397 157.88C432.861 157.88 433.253 158.04 433.573 158.36C433.909 158.68 434.077 159.08 434.077 159.56C434.077 159.864 433.997 160.144 433.837 160.4C433.693 160.656 433.493 160.856 433.237 161C432.997 161.16 432.717 161.24 432.397 161.24ZM439.592 161.24C439.288 161.24 439.008 161.16 438.752 161C438.496 160.856 438.288 160.656 438.128 160.4C437.984 160.144 437.912 159.864 437.912 159.56C437.912 159.08 438.072 158.68 438.392 158.36C438.728 158.04 439.128 157.88 439.592 157.88C440.056 157.88 440.448 158.04 440.768 158.36C441.104 158.68 441.272 159.08 441.272 159.56C441.272 159.864 441.192 160.144 441.032 160.4C440.888 160.656 440.688 160.856 440.432 161C440.192 161.16 439.912 161.24 439.592 161.24ZM446.788 161.24C446.484 161.24 446.204 161.16 445.948 161C445.692 160.856 445.484 160.656 445.324 160.4C445.18 160.144 445.108 159.864 445.108 159.56C445.108 159.08 445.268 158.68 445.588 158.36C445.924 158.04 446.324 157.88 446.788 157.88C447.252 157.88 447.644 158.04 447.964 158.36C448.3 158.68 448.468 159.08 448.468 159.56C448.468 159.864 448.388 160.144 448.228 160.4C448.084 160.656 447.884 160.856 447.628 161C447.388 161.16 447.108 161.24 446.788 161.24ZM453.622 161L450.142 148.28H452.446L454.894 158.12L458.206 148.28H460.078L463.51 158.12L465.934 148.28H468.142L464.662 161H462.55L459.094 151.16L455.734 161H453.622ZM475.817 161.24C474.745 161.24 473.737 161.008 472.793 160.544C471.865 160.08 471.113 159.368 470.537 158.408C469.977 157.448 469.697 156.232 469.697 154.76V154.28C469.697 152.872 469.969 151.712 470.513 150.8C471.057 149.872 471.777 149.184 472.673 148.736C473.569 148.272 474.537 148.04 475.577 148.04C477.449 148.04 478.897 148.552 479.921 149.576C480.945 150.6 481.457 152.048 481.457 153.92V155.264H471.809C471.809 156.256 472.009 157.048 472.409 157.64C472.825 158.232 473.337 158.664 473.945 158.936C474.569 159.192 475.193 159.32 475.817 159.32C476.777 159.32 477.513 159.16 478.025 158.84C478.553 158.52 478.929 158.08 479.153 157.52H481.217C480.961 158.736 480.329 159.664 479.321 160.304C478.329 160.928 477.161 161.24 475.817 161.24ZM475.697 149.96C475.041 149.96 474.417 150.088 473.825 150.344C473.233 150.584 472.745 150.968 472.361 151.496C471.993 152.024 471.809 152.704 471.809 153.536H479.465C479.449 152.656 479.265 151.96 478.913 151.448C478.577 150.92 478.129 150.544 477.569 150.32C477.009 150.08 476.385 149.96 475.697 149.96ZM488.299 161.12C487.419 161.12 486.699 160.984 486.139 160.712C485.595 160.424 485.195 159.984 484.939 159.392C484.699 158.784 484.579 158 484.579 157.04V144.2H486.691V157.04C486.691 157.872 486.827 158.44 487.099 158.744C487.371 159.048 487.851 159.2 488.539 159.2C488.715 159.2 488.867 159.2 488.995 159.2C489.123 159.184 489.251 159.168 489.379 159.152V161.024C489.299 161.04 489.187 161.056 489.043 161.072C488.915 161.088 488.779 161.096 488.635 161.096C488.507 161.112 488.395 161.12 488.299 161.12ZM495.987 161.12C495.107 161.12 494.387 160.984 493.827 160.712C493.283 160.424 492.883 159.984 492.627 159.392C492.387 158.784 492.267 158 492.267 157.04V144.2H494.379V157.04C494.379 157.872 494.515 158.44 494.787 158.744C495.059 159.048 495.539 159.2 496.227 159.2C496.403 159.2 496.555 159.2 496.683 159.2C496.811 159.184 496.939 159.168 497.067 159.152V161.024C496.987 161.04 496.875 161.056 496.731 161.072C496.603 161.088 496.467 161.096 496.323 161.096C496.195 161.112 496.083 161.12 495.987 161.12ZM500.429 164.6L501.389 161V158.36H504.029V161L501.629 164.6H500.429ZM518.665 161.24C517.625 161.24 516.705 161 515.905 160.52C515.105 160.04 514.481 159.32 514.033 158.36C513.601 157.4 513.385 156.2 513.385 154.76V154.28C513.385 152.936 513.609 151.8 514.057 150.872C514.521 149.944 515.145 149.24 515.929 148.76C516.729 148.28 517.641 148.04 518.665 148.04C519.689 148.04 520.577 148.264 521.329 148.712C522.097 149.16 522.665 149.776 523.033 150.56V144.2H525.145V161H523.177V158.6C522.857 159.384 522.297 160.024 521.497 160.52C520.697 161 519.753 161.24 518.665 161.24ZM519.145 159.368C519.913 159.368 520.585 159.208 521.161 158.888C521.753 158.552 522.209 158.096 522.529 157.52C522.865 156.928 523.033 156.248 523.033 155.48V153.56C523.033 152.872 522.865 152.256 522.529 151.712C522.209 151.152 521.753 150.712 521.161 150.392C520.585 150.072 519.913 149.912 519.145 149.912C518.121 149.912 517.257 150.296 516.553 151.064C515.849 151.816 515.497 152.888 515.497 154.28V154.76C515.497 156.264 515.849 157.408 516.553 158.192C517.257 158.976 518.121 159.368 519.145 159.368ZM529.23 161V148.28H531.342V161H529.23ZM530.286 146.6C529.87 146.6 529.526 146.464 529.254 146.192C528.982 145.92 528.846 145.576 528.846 145.16C528.846 144.744 528.982 144.4 529.254 144.128C529.526 143.856 529.87 143.72 530.286 143.72C530.702 143.72 531.046 143.856 531.318 144.128C531.59 144.4 531.726 144.744 531.726 145.16C531.726 145.576 531.59 145.92 531.318 146.192C531.046 146.464 530.702 146.6 530.286 146.6ZM535.412 161V148.28H537.38V150.68C537.572 150.168 537.836 149.72 538.172 149.336C538.508 148.936 538.916 148.624 539.396 148.4C539.892 148.16 540.444 148.04 541.052 148.04C541.372 148.04 541.628 148.056 541.82 148.088C542.028 148.12 542.212 148.16 542.372 148.208V150.176C542.164 150.096 541.956 150.04 541.748 150.008C541.556 149.976 541.284 149.96 540.932 149.96C540.292 149.96 539.716 150.112 539.204 150.416C538.692 150.72 538.284 151.144 537.98 151.688C537.676 152.216 537.524 152.84 537.524 153.56V161H535.412ZM549.809 161.24C548.737 161.24 547.729 161.008 546.785 160.544C545.857 160.08 545.105 159.368 544.529 158.408C543.969 157.448 543.689 156.232 543.689 154.76V154.28C543.689 152.872 543.961 151.712 544.505 150.8C545.049 149.872 545.769 149.184 546.665 148.736C547.561 148.272 548.529 148.04 549.569 148.04C551.441 148.04 552.889 148.552 553.913 149.576C554.937 150.6 555.449 152.048 555.449 153.92V155.264H545.801C545.801 156.256 546.001 157.048 546.401 157.64C546.817 158.232 547.329 158.664 547.937 158.936C548.561 159.192 549.185 159.32 549.809 159.32C550.769 159.32 551.505 159.16 552.017 158.84C552.545 158.52 552.921 158.08 553.145 157.52H555.209C554.953 158.736 554.321 159.664 553.313 160.304C552.321 160.928 551.153 161.24 549.809 161.24ZM549.689 149.96C549.033 149.96 548.409 150.088 547.817 150.344C547.225 150.584 546.737 150.968 546.353 151.496C545.985 152.024 545.801 152.704 545.801 153.536H553.457C553.441 152.656 553.257 151.96 552.905 151.448C552.569 150.92 552.121 150.544 551.561 150.32C551.001 150.08 550.377 149.96 549.689 149.96ZM563.371 161.24C562.283 161.24 561.299 161.008 560.419 160.544C559.555 160.064 558.867 159.344 558.355 158.384C557.859 157.424 557.611 156.216 557.611 154.76V154.28C557.611 152.904 557.883 151.752 558.427 150.824C558.971 149.896 559.683 149.2 560.563 148.736C561.443 148.272 562.379 148.04 563.371 148.04C564.379 148.04 565.243 148.224 565.963 148.592C566.699 148.944 567.291 149.432 567.739 150.056C568.187 150.664 568.491 151.352 568.651 152.12H566.491C566.235 151.512 565.875 151 565.411 150.584C564.963 150.168 564.283 149.96 563.371 149.96C562.747 149.96 562.163 150.112 561.619 150.416C561.075 150.704 560.627 151.168 560.275 151.808C559.939 152.432 559.771 153.256 559.771 154.28V154.76C559.771 155.848 559.939 156.728 560.275 157.4C560.627 158.072 561.075 158.56 561.619 158.864C562.163 159.168 562.747 159.32 563.371 159.32C564.155 159.32 564.811 159.128 565.339 158.744C565.883 158.36 566.267 157.832 566.491 157.16H568.651C568.459 157.992 568.115 158.72 567.619 159.344C567.123 159.952 566.515 160.424 565.795 160.76C565.075 161.08 564.267 161.24 563.371 161.24ZM576.209 161.12C575.313 161.12 574.577 160.984 574.001 160.712C573.441 160.44 573.025 160.032 572.753 159.488C572.497 158.928 572.369 158.232 572.369 157.4V150.152H570.449V148.28H572.369V145.4H574.481V148.28H577.889V150.152H574.481V157.16C574.481 157.88 574.633 158.4 574.937 158.72C575.241 159.04 575.825 159.2 576.689 159.2C577.169 159.2 577.649 159.176 578.129 159.128V161C577.825 161.032 577.521 161.056 577.217 161.072C576.913 161.104 576.577 161.12 576.209 161.12ZM581.379 161V148.28H583.491V161H581.379ZM582.435 146.6C582.019 146.6 581.675 146.464 581.403 146.192C581.131 145.92 580.995 145.576 580.995 145.16C580.995 144.744 581.131 144.4 581.403 144.128C581.675 143.856 582.019 143.72 582.435 143.72C582.851 143.72 583.195 143.856 583.467 144.128C583.739 144.4 583.875 144.744 583.875 145.16C583.875 145.576 583.739 145.92 583.467 146.192C583.195 146.464 582.851 146.6 582.435 146.6ZM592.841 161.24C591.769 161.24 590.761 161.008 589.817 160.544C588.889 160.064 588.137 159.344 587.561 158.384C587.001 157.424 586.721 156.216 586.721 154.76V154.28C586.721 152.904 587.001 151.752 587.561 150.824C588.137 149.896 588.889 149.2 589.817 148.736C590.761 148.272 591.769 148.04 592.841 148.04C593.929 148.04 594.937 148.272 595.865 148.736C596.793 149.2 597.537 149.896 598.097 150.824C598.673 151.752 598.961 152.904 598.961 154.28V154.76C598.961 156.216 598.673 157.424 598.097 158.384C597.537 159.344 596.793 160.064 595.865 160.544C594.937 161.008 593.929 161.24 592.841 161.24ZM592.841 159.32C593.497 159.32 594.121 159.176 594.713 158.888C595.321 158.584 595.817 158.096 596.201 157.424C596.601 156.752 596.801 155.864 596.801 154.76V154.28C596.801 153.256 596.601 152.432 596.201 151.808C595.817 151.168 595.321 150.704 594.713 150.416C594.121 150.112 593.497 149.96 592.841 149.96C592.201 149.96 591.577 150.112 590.969 150.416C590.361 150.704 589.857 151.168 589.457 151.808C589.073 152.432 588.881 153.256 588.881 154.28V154.76C588.881 155.864 589.073 156.752 589.457 157.424C589.857 158.096 590.361 158.584 590.969 158.888C591.577 159.176 592.201 159.32 592.841 159.32ZM601.951 161V148.28H603.919V150.68C604.207 149.976 604.711 149.36 605.431 148.832C606.167 148.304 607.111 148.04 608.263 148.04C609.863 148.04 611.047 148.472 611.815 149.336C612.599 150.184 612.991 151.432 612.991 153.08V161H610.879V153.56C610.879 152.376 610.631 151.48 610.135 150.872C609.639 150.264 608.807 149.96 607.639 149.96C606.807 149.96 606.127 150.136 605.599 150.488C605.071 150.84 604.679 151.288 604.423 151.832C604.183 152.376 604.063 152.952 604.063 153.56V161H601.951ZM621.757 154.76V155.24C621.757 156.808 621.533 158.232 621.085 159.512C620.653 160.792 620.165 161.904 619.621 162.848C619.317 163.392 618.981 163.904 618.613 164.384C618.261 164.88 617.885 165.352 617.485 165.8H615.037C615.469 165.352 615.877 164.88 616.261 164.384C616.645 163.904 616.997 163.392 617.317 162.848C617.893 161.92 618.413 160.808 618.877 159.512C619.357 158.216 619.597 156.792 619.597 155.24V154.76C619.597 153.192 619.357 151.76 618.877 150.464C618.413 149.168 617.893 148.056 617.317 147.128C616.997 146.568 616.645 146.048 616.261 145.568C615.877 145.072 615.469 144.616 615.037 144.2H617.581C617.981 144.616 618.349 145.072 618.685 145.568C619.037 146.048 619.365 146.568 619.669 147.128C620.197 148.056 620.677 149.168 621.109 150.464C621.541 151.76 621.757 153.192 621.757 154.76Z" fill="#0C0824"/>
<path d="M301.904 184.573C301.668 184.073 301.072 183.86 300.573 184.096C300.073 184.332 299.86 184.928 300.096 185.427L301.904 184.573ZM562.707 304.707C563.098 304.317 563.098 303.683 562.707 303.293L556.343 296.929C555.953 296.538 555.319 296.538 554.929 296.929C554.538 297.319 554.538 297.953 554.929 298.343L560.586 304L554.929 309.657C554.538 310.047 554.538 310.681 554.929 311.071C555.319 311.462 555.953 311.462 556.343 311.071L562.707 304.707ZM300.096 185.427C321.316 230.325 369.91 260.196 421.491 278.841C473.106 297.498 527.947 305 562 305V303C528.172 303 473.561 295.536 422.171 276.96C370.747 258.372 322.781 228.743 301.904 184.573L300.096 185.427Z" fill="#0C0824"/>
</svg>
