<?xml version="1.0" encoding="UTF-8"?>
<svg id="Layer_1" data-name="Layer 1" xmlns="http://www.w3.org/2000/svg" viewBox="0 0 200 200">
  <defs>
    <style>
      .cls-1 {
        fill: #000;
        stroke-width: 0px;
      }
    </style>
  </defs>
  <path class="cls-1" d="M90.1,140.43c0,19.43-3.6,24.66-8.6,24.66s-8.38-5.23-8.38-24.66,3.61-26.17,8.38-26.17,8.6,6.63,8.6,26.17Z"/>
  <path class="cls-1" d="M98.09,65.85c0,19.43-3.6,24.66-8.6,24.66s-8.38-5.23-8.38-24.66,3.61-26.17,8.38-26.17,8.6,6.63,8.6,26.17Z"/>
  <path class="cls-1" d="M49.12,92.49c-.69,0-4.53-.12-7.09-3.37v21.31c0,2.44,1.28,3.49,3.02,3.49h1.05s2.71-.01,2.71-.01v-9.31c0-5.34,1.57-9.91,5.04-12.84-1.49.48-3.07.73-4.73.73ZM50.06,40.38c-5.71,0-8.03,6.98-8.03,12.56v30.13c1.05,4.19,3.02,7.1,7.33,7.1,8.95,0,9.3-18.62,9.3-25.48,0-17.68-2.79-24.31-8.6-24.31ZM153.78,114.26c-4.77,0-8.38,6.63-8.38,26.17s3.49,24.66,8.38,24.66,8.61-5.23,8.61-24.66-3.61-26.17-8.61-26.17ZM153.78,114.26c-4.77,0-8.38,6.63-8.38,26.17s3.49,24.66,8.38,24.66,8.61-5.23,8.61-24.66-3.61-26.17-8.61-26.17ZM49.36,90.17c8.95,0,9.3-18.62,9.3-25.48,0-17.68-2.79-24.31-8.6-24.31s-8.03,6.98-8.03,12.56v30.13c1.05,4.19,3.02,7.1,7.33,7.1ZM42.03,89.12v21.31c0,2.44,1.28,3.49,3.02,3.49h1.05s2.71-.01,2.71-.01v-9.31c0-5.34,1.57-9.91,5.04-12.84-1.49.48-3.07.73-4.73.73-.69,0-4.53-.12-7.09-3.37ZM168,0H32C14.32,0,0,14.33,0,32v136c0,17.67,14.32,32,32,32h136c17.67,0,32-14.33,32-32V32c0-17.67-14.33-32-32-32ZM64.05,167.19h-19.31v-1.98h1.28c1.39,0,2.79-.24,2.79-3.49v-45.82h-20.97v-1.98h1.16c1.63,0,3.26-.23,3.26-3.49V43.87c0-3.26-1.75-3.38-3.38-3.38h-1.51v-1.86h14.66v4.19c2.09-3.49,6.05-5,9.07-5,11.52,0,17.8,11.4,17.8,26.4,0,10.45-3.77,20.04-10.11,24.92,1.77-.54,3.79-.82,6.07-.82,5.24,0,12.22,2.21,12.22,7.79,0,2.44-1.17,4.65-4.08,4.65-2.44,0-4.3-1.74-4.3-4.65,0-2.56-1.05-5.82-4.42-5.82-5.58,0-5.7,6.4-5.7,15.01v8.61h9.77v1.99h-9.77v45.82c0,2.44,1.16,3.49,3.02,3.49h2.45v1.98ZM136.85,167.19h-18.5v-1.98h1.28c1.63,0,3.26-.24,3.26-3.49v-42.58c0-2.23-.82-2.99-1.86-3.24h-8.98v45.82c0,2.44,1.05,3.49,3.03,3.49h1.04v1.98h-18.38v-1.98h1.28c1.63,0,3.26-.24,3.26-3.49v-45.82h-11.12c5.82,4.76,9.18,13.83,9.18,23.83,0,14.43-7.21,27.46-18.84,27.46s-18.5-13.03-18.5-27.46,6.98-27.33,18.5-27.33c1.34,0,2.62.17,3.85.49.01,0,.03.01.04.01.27.07.53.15.79.23,2.72.78,3.81.78,5.79.78h10.31v-20.24c0-2.9-1.38-3.31-2.84-3.37h-.02c-.5,0-1.31.01-4.11,1.11,0,.01-.01.01-.01.01-.19.08-.39.15-.59.24-1.62.62-3.37.95-5.22.95-11.52,0-18.5-13.03-18.5-27.46s6.98-27.33,18.5-27.33,18.84,12.68,18.84,27.33c0,9.45-3.09,18.3-8.49,23.28h7.78c1.47-.06,2.8-.53,2.8-3.48v-41.08c0-3.26-1.74-3.38-3.37-3.38h-1.51v-1.86h14.65v8.03c1.98-4.65,5.71-8.84,11.17-8.84,0,0,1.65,0,3.14.83,1.14.65,2.43.92,4.06.64.06-.01.13-.02.2-.03,1.27-.24,2.54-.61,3.61-1.33,3.49-2.2,6.28-6.16,8.02-11.28h2.21v11.98h10.7v2.68h-10.7v41.06c0,4.31,1.86,6.75,5.35,6.75,1.05,0,3.26-.58,4.77-3.49l1.52,1.16c-2.8,4.19-5.7,5.82-9.78,5.82-6.51,0-11.74-3.49-11.74-11.98v-39.32h-6.09c.13.44.2.94.2,1.51,0,2.68-1.98,4.31-4.07,4.31-3.84,0-4.07-3.38-6.4-3.38-5.82.12-6.17,11.87-6.17,16.87v25.82c0,2.45,1.29,3.49,3.03,3.49h1.16v1.98h-12.33v22h20.61v47.81c0,2.44,1.28,3.49,3.03,3.49h1.16v1.98ZM153.78,167.19c-11.52,0-18.5-13.03-18.5-27.46s6.98-27.33,18.5-27.33,18.84,12.68,18.84,27.33-7.21,27.46-18.84,27.46ZM153.78,114.26c-4.77,0-8.38,6.63-8.38,26.17s3.49,24.66,8.38,24.66,8.61-5.23,8.61-24.66-3.61-26.17-8.61-26.17ZM49.36,90.17c8.95,0,9.3-18.62,9.3-25.48,0-17.68-2.79-24.31-8.6-24.31s-8.03,6.98-8.03,12.56v30.13c1.05,4.19,3.02,7.1,7.33,7.1ZM42.03,89.12v21.31c0,2.44,1.28,3.49,3.02,3.49h1.05s2.71-.01,2.71-.01v-9.31c0-5.34,1.57-9.91,5.04-12.84-1.49.48-3.07.73-4.73.73-.69,0-4.53-.12-7.09-3.37ZM49.12,92.49c-.69,0-4.53-.12-7.09-3.37v21.31c0,2.44,1.28,3.49,3.02,3.49h1.05s2.71-.01,2.71-.01v-9.31c0-5.34,1.57-9.91,5.04-12.84-1.49.48-3.07.73-4.73.73ZM50.06,40.38c-5.71,0-8.03,6.98-8.03,12.56v30.13c1.05,4.19,3.02,7.1,7.33,7.1,8.95,0,9.3-18.62,9.3-25.48,0-17.68-2.79-24.31-8.6-24.31ZM50.06,40.38c-5.71,0-8.03,6.98-8.03,12.56v30.13c1.05,4.19,3.02,7.1,7.33,7.1,8.95,0,9.3-18.62,9.3-25.48,0-17.68-2.79-24.31-8.6-24.31ZM49.12,92.49c-.69,0-4.53-.12-7.09-3.37v21.31c0,2.44,1.28,3.49,3.02,3.49h1.05s2.71-.01,2.71-.01v-9.31c0-5.34,1.57-9.91,5.04-12.84-1.49.48-3.07.73-4.73.73Z"/>
</svg>