<?xml version="1.0" encoding="UTF-8"?>
<svg id="Layer_1" xmlns="http://www.w3.org/2000/svg" viewBox="0 0 1959.12 913.4">
  <defs>
    <style>
      .cls-1 {
        fill: #231f20;
      }
    </style>
  </defs>
  <path class="cls-1" d="M913.13,483.96v279.03c0,82.92-67.22,150.14-150.14,150.14H150.14C67.22,913.13,0,845.91,0,762.99v-443.49c123.73,3.94,270.11-2.17,486.67-56.01l-.58.36.79-.21c-30.66,19.57-63.85,41.52-98.51,64.45-34.53,22.84-70.57,46.68-106.48,69.67-11.29,1.68-23.16,3.73-35.92,6.39-46.86,9.78-97.35,29.23-142.18,54.78-35.51,20.23-64.23,42.58-71.47,55.61-1.97,3.55-2.45,6.57-1.47,9.26.53,1.45,1.8,3.47,4.8,4.78,2.33,1.02,5.47,1.47,9.12,1.47,10.69,0,25.72-3.9,37.44-8.78,58.04-24.2,130.35-67.28,203.26-113.92,16.02-2.33,30.89-3.92,45.48-5.47,28.88-3.08,56.16-5.99,86.74-14.29,5.85-1.58,11.16-3.19,16.29-4.74,9.19-2.78,17.68-5.34,27.19-7.13-52.8,39.95-118.49,91.07-196.22,152.66-2.16,1.71-2.53,4.86-.81,7.02,1.71,2.17,4.86,2.53,7.02.82,84.51-66.96,154.77-121.52,209.66-162.8,1.7-.09,3.46-.15,5.26-.18,10.73-.21,20.81.41,29.71.97,9.4.58,17.64,1.09,24.85.57-27.63,29.97-58.16,61.91-87.21,91.79-71.19,54.57-130.93,106.55-175.94,148.12-87.91,81.19-151.85,152.79-154.24,166.25-.44,2.43.38,4.08,1.14,5.03,1.2,1.5,2.64,2.09,4.2,2.09,3.49,0,7.57-2.98,10.81-5.36,32.11-23.54,156.16-141.78,276.52-263.59,15.33-15.51,30.06-30.54,44.14-45.02,49.39-37.84,104.34-76.94,163.72-114.65,18.24-4.7,36.22-9.99,54.62-15.4,16.75-4.93,34.08-10.02,52.4-14.92,14.52-3.89,33.47-7.79,53.31-10.62-7.95,24.13-22.39,50.43-42.87,77.81-19.03,25.44-42.43,50.55-68.35,73.57-20.84,3.37-40.94,7.59-57.09,11.31-73.81,17-148.7,42.63-182.12,62.33-14.42,8.5-20.57,15.37-19.94,22.28.44,4.7,3.91,8.27,10.32,10.61,26.29,9.59,58.85,8.43,96.78-3.45,33.92-10.63,71.25-29.82,107.96-55.5,16.76-11.73,33.05-24.55,48.49-38.12,51.6-8.06,88.57-7.53,102.62,2.02.64.43,2.33,1.58.21,7.27-1.56,4.19-4.7,9.38-9.26,15.4-8.09,2.94-16.06,6.07-23.94,9.41-48.8,20.69-93,48.52-135.14,85.1-1.82,1.57-3.97,3.42-6.37,5.48-11.18,9.61-28.09,24.13-41.81,37.71-23.25,22.99-25.31,31.39-24.26,36.58.67,3.35,3.01,5.83,6.58,6.98,2.98.95,9.17,2.95,45.51-19.79,21.31-13.33,47.81-31.99,74.62-52.55,20.86-15.99,83.3-65.13,111.24-100.87,42.51-15.16,87.68-24.5,135.84-28.12Z"/>
  <path class="cls-1" d="M757.65,519.58c-20.24,21.88-52.41,50.35-92.21,81.22-26.75,20.73-53.61,39.88-75.63,53.9-29.84,19-38.73,20.86-40.61,21.01.39-2.02,3.23-8.93,21.88-27.32,13.4-13.2,29.92-27.39,40.85-36.78,2.41-2.08,4.58-3.94,6.4-5.52,43.08-37.38,89.33-66.15,139.32-86.51Z"/>
  <path class="cls-1" d="M791.31,277.68c0,9.56-1.38,19.69-4.11,30.31-21.91,2.92-43.06,7.21-58.98,11.47-18.44,4.93-35.83,10.04-52.64,14.99-7.4,2.18-14.74,4.33-22.05,6.44,2.61-1.6,5.24-3.2,7.87-4.79,7.11-4.3,15.04-9.28,23.44-14.54,20.54-12.88,43.81-27.48,63.8-37.7,28.1-14.36,37.4-13.67,40.45-11.98.61.33,2.22,1.23,2.22,5.8Z"/>
  <path class="cls-1" d="M840.96,141c-.84,1.5-5.35,6.75-29.35,16.87-17.8,7.51-43.61,16.55-76.7,26.85-54.7,17.03-124.39,36.01-185.53,52.18,66.96-39.36,129.35-68.86,181.95-85.92,32.53-10.56,60.39-15.96,80.98-15.96,11.74,0,21.12,1.76,27.63,5.32.5.27.82.5,1.02.66Z"/>
  <path class="cls-1" d="M260.26,411.52c-65.68,41.45-129.75,78.78-181.9,100.52-16.96,7.06-32.53,8.86-37.59,7.76,3.03-6.38,22.32-25.23,61.13-48.21,26.45-15.66,80.6-43.98,146.11-57.65,4.18-.87,8.25-1.67,12.25-2.42Z"/>
  <path class="cls-1" d="M396.81,524.2c-3.89,3.92-7.68,7.73-11.33,11.4-111.03,111.5-203.13,198.5-240.52,229.94,20.36-25.52,66.91-76.75,140.73-144.82,30.56-28.17,67.95-61.17,111.12-96.52Z"/>
  <path class="cls-1" d="M658.03,482.62c-11.31,9.36-23.01,18.28-34.96,26.64-75.95,53.14-149.06,74.73-195.58,57.75-3.14-1.14-3.76-2.12-3.79-2.12.02-.17.75-5.19,20.4-15.76,36.02-19.38,109.87-43.84,179.59-59.48,11.94-2.68,23.41-5.02,34.34-7.03Z"/>
  <path class="cls-1" d="M621.68,277.38c-3.8,7.6-18.23,28.63-70.78,86.22-3.04.38-6.09.73-9.18,1.05-6.87.72-15.42.19-25.31-.42-6.72-.42-14.1-.88-21.99-1,9.95-7.43,19.33-14.37,28.15-20.82,30.33-22.19,54.56-39.04,72.02-50.09,15.23-9.63,23.11-13.45,27.09-14.94Z"/>
  <path class="cls-1" d="M913.13,150.14v323.85c-44.37,3.4-86.75,11.65-126.72,24.68.52-.93,1-1.85,1.44-2.74,6.44-13.2,2.3-19.71-2.32-22.84-17.52-11.91-55.97-10.98-94.94-5.82,22.03-20.64,41.98-42.68,58.66-64.97,22.37-29.9,37.81-58.76,45.78-85.23,14.42-1.73,28.96-2.8,42.31-2.8,2.76,0,5-2.24,5-5s-2.24-5-5-5c-12.51,0-26.04.91-39.55,2.42,2.34-10.09,3.52-19.78,3.52-29.01,0-8.65-4.01-12.69-7.38-14.55-17.13-9.48-58.22,14.72-114.4,49.96-8.36,5.24-16.26,10.2-23.31,14.46-12.33,7.46-24.49,15-36.47,22.6-17.35,4.44-34.94,8.32-53.34,11.25,1.25-1.39,2.48-2.76,3.7-4.11,21.01-23.38,36.93-42.15,47.32-55.81,15.88-20.87,17.27-27.5,14.33-31.89-1.08-1.62-2.82-2.7-4.9-3.03-4.66-.73-14.35-2.26-108.72,66.7-12.5,9.13-26.15,19.26-40.93,30.36-18.26,1.23-31.31,5.18-46.12,9.66-5.07,1.53-10.3,3.11-16.02,4.66-29.81,8.09-56.71,10.96-85.18,13.99-8.11.87-16.3,1.74-24.73,2.75,29.99-19.4,59.89-39.18,88.73-58.25,44.99-29.76,87.5-57.88,125.14-81.2,68.56-17.96,155.4-41.14,220.59-61.5,96.03-30,110.31-42.66,111.44-51.87.29-2.4-.14-6.92-6.32-10.3-20.65-11.29-62.02-7.77-116.5,9.9-60.89,19.76-134.59,55.88-213.2,104.47C282.39,306.79,128.83,313.62,0,309.5v-159.36C0,67.22,67.22,0,150.14,0h612.85c82.92,0,150.14,67.22,150.14,150.14Z"/>
  <path class="cls-1" d="M594.66,366.31c-32.07,20.97-62.75,42.25-91.87,63.41,19.61-20.59,37.39-39.59,53.02-56.67,13.37-1.77,26.25-4.06,38.85-6.74Z"/>
</svg>