<svg width="939" height="939" viewBox="0 0 939 939" fill="none" xmlns="http://www.w3.org/2000/svg">
<g clip-path="url(#clip0_18_937)">
<path fill-rule="evenodd" clip-rule="evenodd" d="M46.8629 46.8629C0 93.7258 0 169.151 0 320V327.262C-6.31814 327.045 -12.578 326.804 -18.7859 326.542C-21.5659 326.432 -23.8759 328.572 -23.9959 331.332C-24.1059 334.092 -21.9659 336.422 -19.2059 336.542C-12.86 336.809 -6.46028 337.056 0 337.276V619C0 769.849 0 845.274 46.8629 892.137C93.7258 939 169.151 939 320 939H619C769.849 939 845.274 939 892.137 892.137C939 845.274 939 769.849 939 619V500.664C947.584 500.316 956.262 500.142 965.034 500.142C967.794 500.142 970.034 497.902 970.034 495.142C970.034 492.382 967.794 490.142 965.034 490.142C956.287 490.142 947.609 490.321 939 490.679V320C939 169.151 939 93.7258 892.137 46.8629C845.274 0 769.849 0 619 0H320C169.151 0 93.7258 0 46.8629 46.8629ZM939 490.679C886.981 492.839 837.535 501.517 791.314 516.592C791.824 515.662 792.304 514.752 792.744 513.852C799.194 500.652 795.044 494.142 790.434 491.012C772.904 479.102 734.454 480.022 695.484 485.192C717.524 464.552 737.474 442.512 754.144 420.222C776.513 390.322 791.955 361.478 799.923 335.006C814.34 333.279 828.881 332.212 842.224 332.212C844.984 332.212 847.224 329.972 847.224 327.212C847.224 324.452 844.984 322.212 842.224 322.212C829.718 322.212 816.198 323.123 802.692 324.628C805.029 314.537 806.214 304.836 806.214 295.602C806.214 286.952 802.204 282.912 798.834 281.052C781.694 271.572 740.604 295.782 684.424 331.012C683.631 331.509 682.842 332.003 682.058 332.494L681.779 332.669C674.391 337.296 667.417 341.664 661.114 345.472C648.763 352.947 636.582 360.5 624.582 368.109C607.242 372.541 589.668 376.421 571.283 379.341C572.539 377.95 573.78 376.574 575.004 375.212C596.014 351.832 611.934 333.052 622.324 319.402C638.194 298.532 639.594 291.902 636.654 287.512C635.574 285.882 633.824 284.812 631.744 284.482C627.084 283.742 617.404 282.222 523.024 351.182C510.525 360.316 496.873 370.443 482.091 381.547C463.839 382.795 450.783 386.739 435.98 391.21L435.974 391.212C430.904 392.742 425.664 394.322 419.954 395.872C390.202 403.943 363.367 406.809 334.97 409.841L334.774 409.862C326.664 410.722 318.474 411.602 310.044 412.602C339.038 393.853 367.929 374.749 395.868 356.273L395.877 356.268L398.774 354.352L398.812 354.327C443.788 324.576 486.285 296.465 523.914 273.152C592.474 255.192 679.314 232.022 744.504 211.652C840.534 181.652 854.814 168.992 855.944 159.782C856.234 157.392 855.804 152.872 849.624 149.492C828.974 138.202 787.604 141.722 733.124 159.392C672.234 179.152 598.534 215.262 519.924 263.862C284.328 325.484 129.846 331.707 0 327.262V337.276C124.772 341.528 272.144 335.968 491.554 281.422L490.974 281.782L491.774 281.572C461.114 301.132 427.924 323.082 393.264 346.012C358.734 368.862 322.684 392.692 286.784 415.692C275.494 417.362 263.624 419.412 250.864 422.082C204.004 431.852 153.514 451.302 108.684 476.852C73.1841 497.092 44.4641 519.432 37.2241 532.462C35.2441 536.012 34.7641 539.042 35.7441 541.722C36.2841 543.182 37.5441 545.192 40.5441 546.502C42.8741 547.522 46.0141 547.972 49.6641 547.972L49.6541 547.992C60.3441 547.992 75.3741 544.092 87.0941 539.212C145.134 515.012 217.444 471.922 290.354 425.282C306.089 422.992 320.733 421.427 335.082 419.892L335.083 419.892L335.834 419.812C364.714 416.732 391.994 413.822 422.574 405.522C428.258 403.987 433.431 402.424 438.426 400.914L438.427 400.914L438.864 400.782C448.047 398.008 456.523 395.448 466.023 393.664C413.234 433.621 347.553 484.724 269.844 546.302C267.684 548.012 267.324 551.162 269.034 553.322C270.744 555.482 273.884 555.842 276.054 554.132C360.547 487.176 430.806 432.627 485.688 391.354C487.398 391.267 489.155 391.206 490.964 391.172C501.608 390.964 511.613 391.582 520.461 392.129L520.674 392.142L520.86 392.153L520.861 392.154C530.191 392.731 538.365 393.236 545.513 392.72C517.881 422.685 487.364 454.613 458.324 484.482C387.134 539.052 327.394 591.032 282.384 632.602C194.474 713.802 130.544 785.392 128.144 798.862C127.704 801.292 128.524 802.932 129.284 803.882C130.484 805.392 131.924 805.982 133.484 805.982C136.984 805.982 141.054 803.002 144.294 800.622C176.404 777.082 300.454 658.842 420.814 537.032C436.144 521.522 450.874 506.492 464.954 492.012C514.325 454.192 569.248 415.105 628.591 377.408C646.858 372.7 664.86 367.404 683.284 361.982C700.034 357.052 717.364 351.962 735.684 347.062C750.202 343.176 769.155 339.271 788.995 336.441C781.041 360.561 766.598 386.849 746.124 414.222C727.094 439.662 703.694 464.772 677.774 487.792C656.934 491.162 636.834 495.382 620.684 499.102C546.874 516.102 471.984 541.732 438.564 561.432C424.144 569.932 418.004 576.802 418.634 583.712C419.064 588.412 422.544 591.982 428.954 594.322C455.234 603.912 487.794 602.752 525.724 590.872C559.644 580.242 596.974 561.052 633.684 535.372C650.454 523.642 666.734 510.822 682.174 497.252C733.784 489.192 770.754 489.722 784.804 499.272C785.444 499.702 787.134 500.852 785.014 506.542C783.454 510.732 780.324 515.922 775.754 521.942C767.674 524.882 759.694 528.012 751.824 531.352C703.024 552.042 658.814 579.882 616.674 616.452C614.854 618.032 612.704 619.882 610.304 621.942L610.177 622.052C598.996 631.662 582.172 646.124 568.494 659.652C545.254 682.642 543.184 691.042 544.234 696.232C544.914 699.582 547.254 702.062 550.824 703.212L550.831 703.214C553.814 704.165 560.022 706.145 596.334 683.422C617.644 670.092 644.144 651.432 670.954 630.872C691.814 614.882 754.254 565.742 782.194 530.002C830.82 512.657 882.922 502.939 939 500.664V490.679ZM521.294 382.162C514.571 381.74 507.186 381.281 499.293 381.159C509.244 373.731 518.633 366.787 527.454 360.332C557.794 338.142 582.024 321.282 599.474 310.242C614.704 300.602 622.584 296.792 626.564 295.302C622.773 302.895 608.334 323.932 555.769 381.543C552.74 381.921 549.685 382.271 546.604 382.592C539.757 383.3 531.252 382.776 521.394 382.168L521.294 382.162ZM507.684 447.642C527.297 427.059 545.066 408.067 560.692 390.988C574.044 389.217 586.905 386.932 599.483 384.272C567.439 405.227 536.779 426.493 507.684 447.642ZM680.389 352.414C672.992 354.589 665.664 356.745 658.361 358.849C660.997 357.236 663.642 355.627 666.294 354.022C673.404 349.712 681.334 344.742 689.734 339.472L689.896 339.371C710.386 326.525 733.597 311.975 753.534 301.782C781.624 287.422 790.934 288.102 793.984 289.792L793.987 289.794C794.599 290.135 796.204 291.03 796.204 295.592C796.204 305.16 794.817 315.306 792.085 325.928C770.177 328.855 749.026 333.14 733.104 337.402C714.664 342.332 697.274 347.442 680.464 352.392L680.397 352.412L680.389 352.414ZM83.2641 529.972C66.2988 537.03 50.7428 538.821 45.6783 537.723C48.7122 531.334 68.0123 512.491 106.794 489.522C133.244 473.852 187.404 445.532 252.914 431.872C257.094 431.002 261.164 430.202 265.164 429.452C199.484 470.892 135.414 508.232 83.2641 529.972ZM817.214 152.942C796.624 152.942 768.754 158.352 736.224 168.902C683.634 185.962 621.234 215.462 554.274 254.822C615.414 238.652 685.104 219.672 739.804 202.642C772.904 192.332 798.704 183.302 816.514 175.792C840.514 165.672 845.024 160.422 845.864 158.922C845.664 158.762 845.344 158.532 844.844 158.262C838.324 154.702 828.954 152.942 817.214 152.942ZM290.594 638.642C321.131 610.474 358.503 577.489 401.651 542.166C398.061 545.783 394.565 549.299 391.178 552.704L390.374 553.512C279.354 665.022 187.244 752.022 149.854 783.462C170.224 757.942 216.774 706.712 290.594 638.642ZM762.544 537.502C712.554 557.862 666.304 586.632 623.234 624.012C621.404 625.592 619.244 627.452 616.824 629.532L616.781 629.569L616.779 629.571C605.849 638.961 589.356 653.13 575.984 666.312C557.324 684.702 554.494 691.622 554.094 693.632C555.974 693.482 564.864 691.622 594.704 672.622C616.724 658.602 643.584 639.452 670.324 618.722C710.134 587.852 742.294 559.392 762.534 537.512L762.544 537.502ZM428.604 582.812C428.604 582.812 429.254 583.792 432.394 584.942C478.914 601.912 552.024 580.322 627.974 527.192C639.924 518.832 651.624 509.902 662.944 500.552C652.014 502.562 640.544 504.912 628.604 507.592C558.884 523.232 485.034 547.692 449.024 567.072C429.364 577.652 428.634 582.662 428.624 582.832L428.604 582.812Z" fill="black"/>
</g>
<defs>
<clipPath id="clip0_18_937">
<rect width="939" height="939" fill="white"/>
</clipPath>
</defs>
</svg>
