<svg width="939" height="939" viewBox="0 0 939 939" fill="none" xmlns="http://www.w3.org/2000/svg">
<g clip-path="url(#clip0_18_937)">
<path fill-rule="evenodd" clip-rule="evenodd" d="M2.21728e-06 318.734C2.21728e-06 319.155 3.09927e-07 319.577 3.09927e-07 320V334.751C-2.12025 334.667 -4.23432 334.58 -6.34247 334.491C-10.7525 334.301 -14.1825 330.571 -13.9925 326.161C-13.8125 321.741 -10.0725 318.311 -5.66247 318.501C-3.77982 318.581 -1.89239 318.658 2.21728e-06 318.734ZM939 483.309C893.847 486.136 850.693 493.924 809.958 506.591C815.198 493.051 809.318 486.361 805.088 483.491C788.307 472.081 753.497 471.951 717.047 476.111C736.628 457.171 754.408 437.181 769.518 416.981C791.568 387.511 806.958 359.001 815.188 332.691C828.857 331.111 842.578 330.151 855.208 330.151C859.628 330.151 863.208 326.571 863.208 322.151C863.208 317.731 859.628 314.151 855.208 314.151C843.867 314.151 831.707 314.891 819.477 316.141C821.277 307.291 822.188 298.751 822.188 290.561C822.188 280.441 817.328 275.631 813.258 273.381C794.638 263.081 754.657 286.511 695.797 323.431L693.816 324.673C686.2 329.444 679.009 333.949 672.537 337.861C660.327 345.261 648.277 352.731 636.407 360.251C621.967 363.931 607.367 367.231 592.268 369.891C612.318 347.511 627.588 329.451 637.688 316.181C653.037 296.001 656.547 287.401 652.128 280.811C650.578 278.481 648.117 276.941 645.198 276.481C640.758 275.781 633.778 276.451 606.818 293.391C589.287 304.411 564.867 321.341 534.237 343.721C521.927 352.711 508.508 362.671 493.988 373.571C475.728 374.931 462.248 379.001 448.098 383.281C443.048 384.811 437.828 386.391 432.158 387.921C402.568 395.951 375.788 398.811 347.438 401.831C346.001 401.986 344.56 402.141 343.116 402.296C340.548 402.572 337.966 402.85 335.368 403.131C361.768 385.971 388.008 368.621 413.418 351.811C458.238 322.161 500.597 294.151 538.097 270.891C606.627 252.941 693.268 229.811 758.388 209.471C860.917 177.441 870.688 165.051 871.907 155.101C872.217 152.571 872.078 146.201 864.047 141.811C842.667 130.121 800.448 133.561 745.188 151.491C684.177 171.291 610.377 207.421 531.717 256.021C288.773 319.523 132.268 324.005 2.21728e-06 318.734C0.000368428 168.728 0.131327 93.5945 46.8629 46.8629C93.7258 0 169.151 0 320 0H619C769.849 0 845.274 0 892.137 46.8629C939 93.7258 939 169.151 939 320V483.309ZM939 483.309C951.841 482.504 964.843 482.101 977.997 482.101C982.417 482.101 985.997 485.681 985.997 490.101C985.997 494.521 982.417 498.101 977.997 498.101C964.784 498.101 951.787 498.498 939 499.293V483.309ZM939 499.293V619C939 769.849 939 845.274 892.137 892.137C845.274 939 769.849 939 619 939H320C169.151 939 93.7258 939 46.8629 892.137C3.09927e-07 845.274 3.09927e-07 769.849 3.09927e-07 619V334.751C124.271 339.671 269.752 336.02 486.868 283.781L485.388 284.701L487.218 284.221C461.373 300.907 433.954 319.04 405.531 337.837L404.588 338.461L403.972 338.869C369.809 361.465 334.184 385.028 298.688 407.771C287.538 409.431 275.818 411.471 263.228 414.101C216.068 423.931 165.268 443.501 120.168 469.201C84.2275 489.681 55.0575 512.491 47.5775 525.961C45.1875 530.261 44.6175 534.211 45.8975 537.711C46.6375 539.721 48.3475 542.471 52.3175 544.211C55.0175 545.381 58.5775 545.911 62.6775 545.911C73.8675 545.911 89.0175 542.011 101.238 536.922C159.328 512.701 231.568 469.691 304.408 423.101C320.138 420.831 334.778 419.271 349.138 417.741C378.138 414.651 405.528 411.731 436.348 403.371C442.238 401.771 447.568 400.161 452.728 398.601L453.716 398.304C457.884 397.049 461.918 395.834 465.988 394.731C415.188 433.361 353.278 481.601 280.958 538.911C277.498 541.651 276.918 546.681 279.658 550.151C282.408 553.611 287.438 554.191 290.898 551.451C375.008 484.791 445.008 430.441 499.747 389.261C501.138 389.191 502.557 389.151 504.008 389.121C514.617 388.921 524.637 389.531 533.477 390.081C539.987 390.491 545.958 390.861 551.448 390.881C525.177 419.261 496.588 449.141 469.298 477.201C398.098 531.792 338.348 583.781 293.328 625.361C251.508 663.991 211.898 703.461 181.798 736.521C154.148 766.891 139.458 785.991 138.158 793.301C137.498 797.021 138.978 799.551 139.918 800.721C141.798 803.071 143.998 803.951 146.288 803.951C150.934 803.951 155.89 800.317 159.04 798.007L159.048 798.001C191.258 774.391 315.468 656.001 435.928 534.101C451.188 518.651 465.878 503.671 479.908 489.251C529.058 451.601 583.758 412.661 642.857 375.111C660.977 370.431 678.827 365.181 697.107 359.801L697.357 359.728C714.019 354.831 731.248 349.767 749.448 344.901C762.628 341.371 779.477 337.831 797.307 335.101C780.597 380.961 741.388 433.721 689.458 479.961C668.818 483.301 648.987 487.461 632.997 491.151C558.917 508.211 483.678 533.981 450.018 553.821C434.478 562.981 427.878 570.732 428.628 578.951C429.008 583.042 431.438 588.651 440.908 592.111C467.828 601.931 501.027 600.781 539.607 588.701C573.818 577.982 611.438 558.651 648.388 532.792C664.958 521.201 681.057 508.551 696.347 495.161C743.357 487.861 781.538 487.021 796.008 496.661C796.057 497.591 795.787 502.281 787.357 513.701C787.19 513.938 787.022 514.165 786.855 514.392L786.847 514.401C779.007 517.271 771.268 520.321 763.628 523.561C714.528 544.371 670.068 572.371 627.677 609.151C625.867 610.721 623.718 612.571 621.318 614.631C568.018 660.421 551.728 679.172 554.268 691.781C555.158 696.182 558.287 699.552 562.878 701.021C567.948 702.661 576.268 702.591 610.888 680.921C632.278 667.541 658.857 648.821 685.747 628.211C706.518 612.281 768.337 563.621 796.927 527.531C841.249 511.803 888.481 502.436 939 499.293ZM830.367 150.951C810.047 150.951 782.138 156.321 750.117 166.711C702.888 182.041 647.677 207.451 588.328 241.081C642.138 226.721 700.347 210.671 747.847 195.991C780.547 185.881 806.368 176.981 824.588 169.541C842.747 162.121 850.557 157.281 853.888 154.651C848.028 152.171 840.057 150.951 830.367 150.951ZM64.2175 529.901C70.9975 529.541 82.6375 527.331 95.0775 522.151C143.368 502.021 201.968 468.441 262.628 430.591C200.488 444.191 148.998 470.841 123.558 485.721C90.6475 504.961 71.3375 521.451 64.2175 529.901ZM307.558 634.001C257.978 679.621 220.238 718.171 194.548 746.361C234.118 710.251 293.778 653.241 363.018 584.511C342.628 602.171 324.098 618.791 307.558 634.001ZM533.943 374.079L534.467 374.111C544.227 374.721 552.658 375.241 559.278 374.551C561.968 374.271 564.637 373.971 567.287 373.641C606.497 330.641 623.997 308.521 631.778 297.201C618.958 304.121 592.797 320.621 539.638 359.601C533.677 363.971 527.467 368.561 520.997 373.371C525.533 373.563 529.857 373.829 533.943 374.079ZM575.157 388.761C565.657 399.141 555.367 410.221 544.367 421.931C561.787 409.621 579.717 397.311 598.107 385.101C590.597 386.481 582.957 387.711 575.157 388.761ZM692.597 344.451C709.427 339.501 726.838 334.381 745.318 329.441C760.807 325.291 781.237 321.121 802.518 318.191C804.938 308.521 806.188 299.261 806.188 290.561C806.188 288.721 805.848 287.571 805.508 287.381C804.818 287.001 797.878 284.081 767.878 299.411C747.997 309.571 724.787 324.131 704.307 336.981C700.128 339.601 696.057 342.151 692.148 344.581C692.223 344.561 692.297 344.539 692.372 344.516C692.448 344.494 692.522 344.471 692.597 344.451ZM446.388 577.071C491.988 593.711 564.077 572.261 639.217 519.681C647.907 513.611 656.378 507.291 664.607 500.801C628.167 508.011 588.787 518.191 552.177 529.792C522.008 539.352 495.718 549.201 476.168 558.292C455.218 568.031 448.048 574.091 445.648 576.792C445.868 576.881 446.118 576.971 446.388 577.071ZM573.008 683.661C587.158 677.591 620.938 657.171 668.927 620.911C706.698 592.361 739.968 564.011 762.958 541.071C718.478 560.852 677.027 587.511 638.167 621.231C636.337 622.821 634.167 624.691 631.747 626.771L631.583 626.912C621.163 635.863 605.509 649.308 592.547 661.941C581.517 672.691 575.888 679.511 573.008 683.661Z" fill="black"/>
</g>
<defs>
<clipPath id="clip0_18_937">
<rect width="939" height="939" fill="white"/>
</clipPath>
</defs>
</svg>
